G04 (created by PCBNEW (2013-01-27 BZR 3925)-testing) date Tue 29 Jan 2013 05:11:15 PM CET*
%MOIN*%
G04 Gerber Fmt 3.4, Leading zero omitted, Abs format*
%FSLAX34Y34*%
G01*
G70*
G90*
G04 APERTURE LIST*
%ADD10C,2.3622e-06*%
%ADD11R,0.059X0.0511*%
%ADD12R,0.065X0.065*%
%ADD13C,0.065*%
%ADD14R,0.0472X0.0472*%
%ADD15R,0.063X0.0591*%
%ADD16R,0.0256X0.063*%
%ADD17R,0.0314X0.0314*%
%ADD18R,0.06X0.06*%
%ADD19C,0.06*%
G04 APERTURE END LIST*
G54D10*
G54D11*
X57875Y-44651D03*
X57875Y-45399D03*
G54D12*
X55500Y-49000D03*
G54D13*
X56500Y-49000D03*
X57500Y-49000D03*
X58500Y-49000D03*
X59500Y-49000D03*
X60500Y-49000D03*
X61500Y-49000D03*
X62500Y-49000D03*
X63500Y-49000D03*
X64500Y-49000D03*
X65500Y-49000D03*
X66500Y-49000D03*
G54D14*
X66594Y-44314D03*
X65806Y-44314D03*
G54D15*
X66200Y-45594D03*
G54D16*
X58835Y-46575D03*
X59228Y-46575D03*
X59622Y-46575D03*
X60016Y-46575D03*
X60409Y-46575D03*
X60803Y-46575D03*
X61197Y-46575D03*
X61591Y-46575D03*
X61984Y-46575D03*
X62378Y-46575D03*
X62772Y-46575D03*
X63165Y-46575D03*
X63165Y-43425D03*
X62772Y-43425D03*
X62378Y-43425D03*
X61984Y-43425D03*
X61591Y-43425D03*
X61197Y-43425D03*
X60803Y-43425D03*
X60409Y-43425D03*
X60016Y-43425D03*
X59622Y-43425D03*
X59228Y-43425D03*
X58835Y-43425D03*
G54D11*
X57050Y-44651D03*
X57050Y-45399D03*
G54D17*
X64300Y-44705D03*
X64300Y-45295D03*
G54D18*
X55500Y-48000D03*
G54D19*
X56500Y-48000D03*
X57500Y-48000D03*
X58500Y-48000D03*
X59500Y-48000D03*
X60500Y-48000D03*
X61500Y-48000D03*
X62500Y-48000D03*
X63500Y-48000D03*
X64500Y-48000D03*
X65500Y-48000D03*
X66500Y-48000D03*
G54D18*
X55500Y-41000D03*
G54D19*
X56500Y-41000D03*
X57500Y-41000D03*
X58500Y-41000D03*
X59500Y-41000D03*
X60500Y-41000D03*
X61500Y-41000D03*
X62500Y-41000D03*
X63500Y-41000D03*
X64500Y-41000D03*
X65500Y-41000D03*
X66500Y-41000D03*
G54D18*
X55500Y-42000D03*
G54D19*
X56500Y-42000D03*
X57500Y-42000D03*
X58500Y-42000D03*
X59500Y-42000D03*
X60500Y-42000D03*
X61500Y-42000D03*
X62500Y-42000D03*
X63500Y-42000D03*
X64500Y-42000D03*
X65500Y-42000D03*
X66500Y-42000D03*
M02*
