G04 (created by PCBNEW (2013-01-27 BZR 3925)-testing) date Tue 29 Jan 2013 05:43:06 PM CET*
%MOIN*%
G04 Gerber Fmt 3.4, Leading zero omitted, Abs format*
%FSLAX34Y34*%
G01*
G70*
G90*
G04 APERTURE LIST*
%ADD10C,2.3622e-06*%
%ADD11R,0.06X0.06*%
%ADD12C,0.06*%
%ADD13R,0.0314X0.0314*%
%ADD14R,0.0472X0.0472*%
G04 APERTURE END LIST*
G54D10*
G54D11*
X55500Y-48000D03*
G54D12*
X56500Y-48000D03*
X57500Y-48000D03*
X58500Y-48000D03*
X59500Y-48000D03*
X60500Y-48000D03*
X61500Y-48000D03*
X62500Y-48000D03*
X63500Y-48000D03*
X64500Y-48000D03*
X65500Y-48000D03*
X66500Y-48000D03*
G54D11*
X55500Y-42000D03*
G54D12*
X56500Y-42000D03*
X57500Y-42000D03*
X58500Y-42000D03*
X59500Y-42000D03*
X60500Y-42000D03*
X61500Y-42000D03*
X62500Y-42000D03*
X63500Y-42000D03*
X64500Y-42000D03*
X65500Y-42000D03*
X66500Y-42000D03*
G54D13*
X58156Y-45400D03*
X57566Y-45400D03*
X58156Y-44600D03*
X57566Y-44600D03*
X59156Y-44600D03*
X58566Y-44600D03*
X60156Y-44600D03*
X59566Y-44600D03*
X61156Y-44600D03*
X60566Y-44600D03*
X63156Y-44600D03*
X62566Y-44600D03*
X62156Y-44600D03*
X61566Y-44600D03*
X64156Y-44600D03*
X63566Y-44600D03*
X65156Y-44600D03*
X64566Y-44600D03*
X65156Y-45400D03*
X64566Y-45400D03*
X64156Y-45400D03*
X63566Y-45400D03*
X63156Y-45400D03*
X62566Y-45400D03*
X62156Y-45400D03*
X61566Y-45400D03*
X60156Y-45400D03*
X59566Y-45400D03*
X61156Y-45400D03*
X60566Y-45400D03*
X59156Y-45400D03*
X58566Y-45400D03*
G54D14*
X61500Y-43713D03*
X61500Y-42887D03*
X60500Y-46287D03*
X60500Y-47113D03*
X62500Y-43713D03*
X62500Y-42887D03*
X59500Y-43713D03*
X59500Y-42887D03*
X60500Y-43713D03*
X60500Y-42887D03*
X63500Y-43713D03*
X63500Y-42887D03*
X64500Y-43713D03*
X64500Y-42887D03*
X65500Y-43713D03*
X65500Y-42887D03*
X66500Y-43713D03*
X66500Y-42887D03*
X59500Y-46287D03*
X59500Y-47113D03*
X64500Y-46287D03*
X64500Y-47113D03*
X63500Y-46287D03*
X63500Y-47113D03*
X66500Y-46287D03*
X66500Y-47113D03*
X65500Y-46287D03*
X65500Y-47113D03*
X62500Y-46287D03*
X62500Y-47113D03*
X61500Y-46287D03*
X61500Y-47113D03*
M02*
