M48
INCH,TZ
T1C0.040
%
G90
G05
T1
X055500Y-042000
X055500Y-048000
X056500Y-042000
X056500Y-048000
X057500Y-042000
X057500Y-048000
X058500Y-042000
X058500Y-048000
X059500Y-042000
X059500Y-048000
X060500Y-042000
X060500Y-048000
X061500Y-042000
X061500Y-048000
X062500Y-042000
X062500Y-048000
X063500Y-042000
X063500Y-048000
X064500Y-042000
X064500Y-048000
X065500Y-042000
X065500Y-048000
X066500Y-042000
X066500Y-048000
T0
M30
