G04 (created by PCBNEW (2013-01-27 BZR 3925)-testing) date Tue 29 Jan 2013 05:43:06 PM CET*
%MOIN*%
G04 Gerber Fmt 3.4, Leading zero omitted, Abs format*
%FSLAX34Y34*%
G01*
G70*
G90*
G04 APERTURE LIST*
%ADD10C,2.3622e-06*%
%ADD11C,0.00787402*%
%ADD12C,0.012*%
%ADD13C,0.008*%
%ADD14C,0.0026*%
%ADD15C,0.004*%
%ADD16C,0.002*%
%ADD17R,0.06X0.06*%
%ADD18C,0.06*%
%ADD19R,0.0314X0.0314*%
%ADD20R,0.0472X0.0472*%
G04 APERTURE END LIST*
G54D10*
G54D11*
X55950Y-44909D02*
X55725Y-44909D01*
X55837Y-44909D02*
X55837Y-44515D01*
X55800Y-44571D01*
X55762Y-44609D01*
X55725Y-44628D01*
X56287Y-44515D02*
X56212Y-44515D01*
X56175Y-44534D01*
X56156Y-44553D01*
X56118Y-44609D01*
X56100Y-44684D01*
X56100Y-44834D01*
X56118Y-44871D01*
X56137Y-44890D01*
X56175Y-44909D01*
X56250Y-44909D01*
X56287Y-44890D01*
X56306Y-44871D01*
X56325Y-44834D01*
X56325Y-44740D01*
X56306Y-44703D01*
X56287Y-44684D01*
X56250Y-44665D01*
X56175Y-44665D01*
X56137Y-44684D01*
X56118Y-44703D01*
X56100Y-44740D01*
X56493Y-44871D02*
X56512Y-44890D01*
X56493Y-44909D01*
X56474Y-44890D01*
X56493Y-44871D01*
X56493Y-44909D01*
X56681Y-44871D02*
X56699Y-44890D01*
X56681Y-44909D01*
X56662Y-44890D01*
X56681Y-44871D01*
X56681Y-44909D01*
X56924Y-44684D02*
X56887Y-44665D01*
X56868Y-44646D01*
X56849Y-44609D01*
X56849Y-44590D01*
X56868Y-44553D01*
X56887Y-44534D01*
X56924Y-44515D01*
X56999Y-44515D01*
X57037Y-44534D01*
X57056Y-44553D01*
X57074Y-44590D01*
X57074Y-44609D01*
X57056Y-44646D01*
X57037Y-44665D01*
X56999Y-44684D01*
X56924Y-44684D01*
X56887Y-44703D01*
X56868Y-44721D01*
X56849Y-44759D01*
X56849Y-44834D01*
X56868Y-44871D01*
X56887Y-44890D01*
X56924Y-44909D01*
X56999Y-44909D01*
X57037Y-44890D01*
X57056Y-44871D01*
X57074Y-44834D01*
X57074Y-44759D01*
X57056Y-44721D01*
X57037Y-44703D01*
X56999Y-44684D01*
X56156Y-45145D02*
X56193Y-45145D01*
X56231Y-45164D01*
X56250Y-45183D01*
X56268Y-45220D01*
X56287Y-45295D01*
X56287Y-45389D01*
X56268Y-45464D01*
X56250Y-45501D01*
X56231Y-45520D01*
X56193Y-45539D01*
X56156Y-45539D01*
X56118Y-45520D01*
X56100Y-45501D01*
X56081Y-45464D01*
X56062Y-45389D01*
X56062Y-45295D01*
X56081Y-45220D01*
X56100Y-45183D01*
X56118Y-45164D01*
X56156Y-45145D01*
X56456Y-45501D02*
X56474Y-45520D01*
X56456Y-45539D01*
X56437Y-45520D01*
X56456Y-45501D01*
X56456Y-45539D01*
X56643Y-45501D02*
X56662Y-45520D01*
X56643Y-45539D01*
X56624Y-45520D01*
X56643Y-45501D01*
X56643Y-45539D01*
X56793Y-45145D02*
X57056Y-45145D01*
X56887Y-45539D01*
X58284Y-43143D02*
X58265Y-43181D01*
X58265Y-43237D01*
X58284Y-43293D01*
X58321Y-43331D01*
X58359Y-43349D01*
X58434Y-43368D01*
X58490Y-43368D01*
X58565Y-43349D01*
X58603Y-43331D01*
X58640Y-43293D01*
X58659Y-43237D01*
X58659Y-43199D01*
X58640Y-43143D01*
X58621Y-43124D01*
X58490Y-43124D01*
X58490Y-43199D01*
X58621Y-42731D02*
X58640Y-42750D01*
X58659Y-42806D01*
X58659Y-42843D01*
X58640Y-42900D01*
X58603Y-42937D01*
X58565Y-42956D01*
X58490Y-42975D01*
X58434Y-42975D01*
X58359Y-42956D01*
X58321Y-42937D01*
X58284Y-42900D01*
X58265Y-42843D01*
X58265Y-42806D01*
X58284Y-42750D01*
X58303Y-42731D01*
X57640Y-43765D02*
X57659Y-43709D01*
X57659Y-43615D01*
X57640Y-43578D01*
X57621Y-43559D01*
X57584Y-43540D01*
X57546Y-43540D01*
X57509Y-43559D01*
X57490Y-43578D01*
X57471Y-43615D01*
X57453Y-43690D01*
X57434Y-43728D01*
X57415Y-43746D01*
X57378Y-43765D01*
X57340Y-43765D01*
X57303Y-43746D01*
X57284Y-43728D01*
X57265Y-43690D01*
X57265Y-43596D01*
X57284Y-43540D01*
X57659Y-43371D02*
X57265Y-43371D01*
X57265Y-43278D01*
X57284Y-43221D01*
X57321Y-43184D01*
X57359Y-43165D01*
X57434Y-43146D01*
X57490Y-43146D01*
X57565Y-43165D01*
X57603Y-43184D01*
X57640Y-43221D01*
X57659Y-43278D01*
X57659Y-43371D01*
X57265Y-42903D02*
X57265Y-42828D01*
X57284Y-42790D01*
X57321Y-42753D01*
X57396Y-42734D01*
X57528Y-42734D01*
X57603Y-42753D01*
X57640Y-42790D01*
X57659Y-42828D01*
X57659Y-42903D01*
X57640Y-42940D01*
X57603Y-42978D01*
X57528Y-42996D01*
X57396Y-42996D01*
X57321Y-42978D01*
X57284Y-42940D01*
X57265Y-42903D01*
X56659Y-43793D02*
X56471Y-43924D01*
X56659Y-44018D02*
X56265Y-44018D01*
X56265Y-43868D01*
X56284Y-43831D01*
X56303Y-43812D01*
X56340Y-43793D01*
X56396Y-43793D01*
X56434Y-43812D01*
X56453Y-43831D01*
X56471Y-43868D01*
X56471Y-44018D01*
X56453Y-43624D02*
X56453Y-43493D01*
X56659Y-43437D02*
X56659Y-43624D01*
X56265Y-43624D01*
X56265Y-43437D01*
X56265Y-43306D02*
X56659Y-43043D01*
X56265Y-43043D02*
X56659Y-43306D01*
X56265Y-42950D02*
X56265Y-42725D01*
X56659Y-42837D02*
X56265Y-42837D01*
X58659Y-47056D02*
X58659Y-47243D01*
X58265Y-47243D01*
X58453Y-46925D02*
X58453Y-46793D01*
X58659Y-46737D02*
X58659Y-46925D01*
X58265Y-46925D01*
X58265Y-46737D01*
X57659Y-47256D02*
X57265Y-47256D01*
X57265Y-47162D01*
X57284Y-47106D01*
X57321Y-47068D01*
X57359Y-47049D01*
X57434Y-47031D01*
X57490Y-47031D01*
X57565Y-47049D01*
X57603Y-47068D01*
X57640Y-47106D01*
X57659Y-47162D01*
X57659Y-47256D01*
X57621Y-46637D02*
X57640Y-46656D01*
X57659Y-46712D01*
X57659Y-46749D01*
X57640Y-46806D01*
X57603Y-46843D01*
X57565Y-46862D01*
X57490Y-46881D01*
X57434Y-46881D01*
X57359Y-46862D01*
X57321Y-46843D01*
X57284Y-46806D01*
X57265Y-46749D01*
X57265Y-46712D01*
X57284Y-46656D01*
X57303Y-46637D01*
X57659Y-46281D02*
X57659Y-46468D01*
X57265Y-46468D01*
X57659Y-46150D02*
X57265Y-46150D01*
X57659Y-45925D02*
X57434Y-46093D01*
X57265Y-45925D02*
X57490Y-46150D01*
X56640Y-47253D02*
X56659Y-47196D01*
X56659Y-47103D01*
X56640Y-47065D01*
X56621Y-47046D01*
X56584Y-47028D01*
X56546Y-47028D01*
X56509Y-47046D01*
X56490Y-47065D01*
X56471Y-47103D01*
X56453Y-47178D01*
X56434Y-47215D01*
X56415Y-47234D01*
X56378Y-47253D01*
X56340Y-47253D01*
X56303Y-47234D01*
X56284Y-47215D01*
X56265Y-47178D01*
X56265Y-47084D01*
X56284Y-47028D01*
X56659Y-46859D02*
X56265Y-46859D01*
X56265Y-46765D01*
X56284Y-46709D01*
X56321Y-46671D01*
X56359Y-46653D01*
X56434Y-46634D01*
X56490Y-46634D01*
X56565Y-46653D01*
X56603Y-46671D01*
X56640Y-46709D01*
X56659Y-46765D01*
X56659Y-46859D01*
X56659Y-46465D02*
X56265Y-46465D01*
X55284Y-47049D02*
X55265Y-47087D01*
X55265Y-47143D01*
X55284Y-47199D01*
X55321Y-47237D01*
X55359Y-47256D01*
X55434Y-47274D01*
X55490Y-47274D01*
X55565Y-47256D01*
X55603Y-47237D01*
X55640Y-47199D01*
X55659Y-47143D01*
X55659Y-47106D01*
X55640Y-47049D01*
X55621Y-47031D01*
X55490Y-47031D01*
X55490Y-47106D01*
X55659Y-46862D02*
X55265Y-46862D01*
X55659Y-46637D01*
X55265Y-46637D01*
X55659Y-46450D02*
X55265Y-46450D01*
X55265Y-46356D01*
X55284Y-46300D01*
X55321Y-46262D01*
X55359Y-46243D01*
X55434Y-46225D01*
X55490Y-46225D01*
X55565Y-46243D01*
X55603Y-46262D01*
X55640Y-46300D01*
X55659Y-46356D01*
X55659Y-46450D01*
X55265Y-43724D02*
X55659Y-43593D01*
X55265Y-43462D01*
X55621Y-43106D02*
X55640Y-43125D01*
X55659Y-43181D01*
X55659Y-43218D01*
X55640Y-43274D01*
X55603Y-43312D01*
X55565Y-43331D01*
X55490Y-43349D01*
X55434Y-43349D01*
X55359Y-43331D01*
X55321Y-43312D01*
X55284Y-43274D01*
X55265Y-43218D01*
X55265Y-43181D01*
X55284Y-43125D01*
X55303Y-43106D01*
X55621Y-42712D02*
X55640Y-42731D01*
X55659Y-42787D01*
X55659Y-42825D01*
X55640Y-42881D01*
X55603Y-42918D01*
X55565Y-42937D01*
X55490Y-42956D01*
X55434Y-42956D01*
X55359Y-42937D01*
X55321Y-42918D01*
X55284Y-42881D01*
X55265Y-42825D01*
X55265Y-42787D01*
X55284Y-42731D01*
X55303Y-42712D01*
G54D12*
X55000Y-48500D02*
X55000Y-48500D01*
X55000Y-48500D02*
X55000Y-47500D01*
X55000Y-47500D02*
X65000Y-47500D01*
X65000Y-48500D02*
X55000Y-48500D01*
X56000Y-48500D02*
X56000Y-47500D01*
X65000Y-47500D02*
X66750Y-47500D01*
X66750Y-47500D02*
X67000Y-47500D01*
X67000Y-47500D02*
X67000Y-48500D01*
X67000Y-48500D02*
X65000Y-48500D01*
X55000Y-42500D02*
X55000Y-42500D01*
X55000Y-42500D02*
X55000Y-41500D01*
X55000Y-41500D02*
X65000Y-41500D01*
X65000Y-42500D02*
X55000Y-42500D01*
X56000Y-42500D02*
X56000Y-41500D01*
X65000Y-41500D02*
X66750Y-41500D01*
X66750Y-41500D02*
X67000Y-41500D01*
X67000Y-41500D02*
X67000Y-42500D01*
X67000Y-42500D02*
X65000Y-42500D01*
G54D13*
X57561Y-45250D02*
X58161Y-45250D01*
X58161Y-45250D02*
X58161Y-45550D01*
X58161Y-45550D02*
X57561Y-45550D01*
X57561Y-45550D02*
X57561Y-45250D01*
X57561Y-44450D02*
X58161Y-44450D01*
X58161Y-44450D02*
X58161Y-44750D01*
X58161Y-44750D02*
X57561Y-44750D01*
X57561Y-44750D02*
X57561Y-44450D01*
X58561Y-44450D02*
X59161Y-44450D01*
X59161Y-44450D02*
X59161Y-44750D01*
X59161Y-44750D02*
X58561Y-44750D01*
X58561Y-44750D02*
X58561Y-44450D01*
X59561Y-44450D02*
X60161Y-44450D01*
X60161Y-44450D02*
X60161Y-44750D01*
X60161Y-44750D02*
X59561Y-44750D01*
X59561Y-44750D02*
X59561Y-44450D01*
X60561Y-44450D02*
X61161Y-44450D01*
X61161Y-44450D02*
X61161Y-44750D01*
X61161Y-44750D02*
X60561Y-44750D01*
X60561Y-44750D02*
X60561Y-44450D01*
X62561Y-44450D02*
X63161Y-44450D01*
X63161Y-44450D02*
X63161Y-44750D01*
X63161Y-44750D02*
X62561Y-44750D01*
X62561Y-44750D02*
X62561Y-44450D01*
X61561Y-44450D02*
X62161Y-44450D01*
X62161Y-44450D02*
X62161Y-44750D01*
X62161Y-44750D02*
X61561Y-44750D01*
X61561Y-44750D02*
X61561Y-44450D01*
X63561Y-44450D02*
X64161Y-44450D01*
X64161Y-44450D02*
X64161Y-44750D01*
X64161Y-44750D02*
X63561Y-44750D01*
X63561Y-44750D02*
X63561Y-44450D01*
X64561Y-44450D02*
X65161Y-44450D01*
X65161Y-44450D02*
X65161Y-44750D01*
X65161Y-44750D02*
X64561Y-44750D01*
X64561Y-44750D02*
X64561Y-44450D01*
X64561Y-45250D02*
X65161Y-45250D01*
X65161Y-45250D02*
X65161Y-45550D01*
X65161Y-45550D02*
X64561Y-45550D01*
X64561Y-45550D02*
X64561Y-45250D01*
X63561Y-45250D02*
X64161Y-45250D01*
X64161Y-45250D02*
X64161Y-45550D01*
X64161Y-45550D02*
X63561Y-45550D01*
X63561Y-45550D02*
X63561Y-45250D01*
X62561Y-45250D02*
X63161Y-45250D01*
X63161Y-45250D02*
X63161Y-45550D01*
X63161Y-45550D02*
X62561Y-45550D01*
X62561Y-45550D02*
X62561Y-45250D01*
X61561Y-45250D02*
X62161Y-45250D01*
X62161Y-45250D02*
X62161Y-45550D01*
X62161Y-45550D02*
X61561Y-45550D01*
X61561Y-45550D02*
X61561Y-45250D01*
X59561Y-45250D02*
X60161Y-45250D01*
X60161Y-45250D02*
X60161Y-45550D01*
X60161Y-45550D02*
X59561Y-45550D01*
X59561Y-45550D02*
X59561Y-45250D01*
X60561Y-45250D02*
X61161Y-45250D01*
X61161Y-45250D02*
X61161Y-45550D01*
X61161Y-45550D02*
X60561Y-45550D01*
X60561Y-45550D02*
X60561Y-45250D01*
X58561Y-45250D02*
X59161Y-45250D01*
X59161Y-45250D02*
X59161Y-45550D01*
X59161Y-45550D02*
X58561Y-45550D01*
X58561Y-45550D02*
X58561Y-45250D01*
G54D14*
X61618Y-43104D02*
X61746Y-43104D01*
X61746Y-43104D02*
X61746Y-42907D01*
X61618Y-42907D02*
X61746Y-42907D01*
X61618Y-43104D02*
X61618Y-42907D01*
X61373Y-43104D02*
X61432Y-43104D01*
X61432Y-43104D02*
X61432Y-43005D01*
X61373Y-43005D02*
X61432Y-43005D01*
X61373Y-43104D02*
X61373Y-43005D01*
X61568Y-43104D02*
X61627Y-43104D01*
X61627Y-43104D02*
X61627Y-43005D01*
X61568Y-43005D02*
X61627Y-43005D01*
X61568Y-43104D02*
X61568Y-43005D01*
X61422Y-43104D02*
X61578Y-43104D01*
X61578Y-43104D02*
X61578Y-43035D01*
X61422Y-43035D02*
X61578Y-43035D01*
X61422Y-43104D02*
X61422Y-43035D01*
X61618Y-43693D02*
X61746Y-43693D01*
X61746Y-43693D02*
X61746Y-43496D01*
X61618Y-43496D02*
X61746Y-43496D01*
X61618Y-43693D02*
X61618Y-43496D01*
X61254Y-43693D02*
X61382Y-43693D01*
X61382Y-43693D02*
X61382Y-43496D01*
X61254Y-43496D02*
X61382Y-43496D01*
X61254Y-43693D02*
X61254Y-43496D01*
X61568Y-43595D02*
X61627Y-43595D01*
X61627Y-43595D02*
X61627Y-43496D01*
X61568Y-43496D02*
X61627Y-43496D01*
X61568Y-43595D02*
X61568Y-43496D01*
X61373Y-43595D02*
X61432Y-43595D01*
X61432Y-43595D02*
X61432Y-43496D01*
X61373Y-43496D02*
X61432Y-43496D01*
X61373Y-43595D02*
X61373Y-43496D01*
X61422Y-43565D02*
X61578Y-43565D01*
X61578Y-43565D02*
X61578Y-43496D01*
X61422Y-43496D02*
X61578Y-43496D01*
X61422Y-43565D02*
X61422Y-43496D01*
X61461Y-43300D02*
X61539Y-43300D01*
X61539Y-43300D02*
X61539Y-43222D01*
X61461Y-43222D02*
X61539Y-43222D01*
X61461Y-43300D02*
X61461Y-43222D01*
X61264Y-43104D02*
X61382Y-43104D01*
X61382Y-43104D02*
X61382Y-42986D01*
X61264Y-42986D02*
X61382Y-42986D01*
X61264Y-43104D02*
X61264Y-42986D01*
X61254Y-42936D02*
X61343Y-42936D01*
X61343Y-42936D02*
X61343Y-42907D01*
X61254Y-42907D02*
X61343Y-42907D01*
X61254Y-42936D02*
X61254Y-42907D01*
G54D15*
X61726Y-43094D02*
X61726Y-43506D01*
X61274Y-43496D02*
X61274Y-42936D01*
G54D16*
X61351Y-42966D02*
G75*
G03X61351Y-42966I-28J0D01*
G74*
G01*
G54D15*
X61363Y-42907D02*
G75*
G03X61637Y-42907I137J0D01*
G74*
G01*
X61637Y-43693D02*
G75*
G03X61363Y-43693I-137J0D01*
G74*
G01*
G54D14*
X60382Y-46896D02*
X60254Y-46896D01*
X60254Y-46896D02*
X60254Y-47093D01*
X60382Y-47093D02*
X60254Y-47093D01*
X60382Y-46896D02*
X60382Y-47093D01*
X60627Y-46896D02*
X60568Y-46896D01*
X60568Y-46896D02*
X60568Y-46995D01*
X60627Y-46995D02*
X60568Y-46995D01*
X60627Y-46896D02*
X60627Y-46995D01*
X60432Y-46896D02*
X60373Y-46896D01*
X60373Y-46896D02*
X60373Y-46995D01*
X60432Y-46995D02*
X60373Y-46995D01*
X60432Y-46896D02*
X60432Y-46995D01*
X60578Y-46896D02*
X60422Y-46896D01*
X60422Y-46896D02*
X60422Y-46965D01*
X60578Y-46965D02*
X60422Y-46965D01*
X60578Y-46896D02*
X60578Y-46965D01*
X60382Y-46307D02*
X60254Y-46307D01*
X60254Y-46307D02*
X60254Y-46504D01*
X60382Y-46504D02*
X60254Y-46504D01*
X60382Y-46307D02*
X60382Y-46504D01*
X60746Y-46307D02*
X60618Y-46307D01*
X60618Y-46307D02*
X60618Y-46504D01*
X60746Y-46504D02*
X60618Y-46504D01*
X60746Y-46307D02*
X60746Y-46504D01*
X60432Y-46405D02*
X60373Y-46405D01*
X60373Y-46405D02*
X60373Y-46504D01*
X60432Y-46504D02*
X60373Y-46504D01*
X60432Y-46405D02*
X60432Y-46504D01*
X60627Y-46405D02*
X60568Y-46405D01*
X60568Y-46405D02*
X60568Y-46504D01*
X60627Y-46504D02*
X60568Y-46504D01*
X60627Y-46405D02*
X60627Y-46504D01*
X60578Y-46435D02*
X60422Y-46435D01*
X60422Y-46435D02*
X60422Y-46504D01*
X60578Y-46504D02*
X60422Y-46504D01*
X60578Y-46435D02*
X60578Y-46504D01*
X60539Y-46700D02*
X60461Y-46700D01*
X60461Y-46700D02*
X60461Y-46778D01*
X60539Y-46778D02*
X60461Y-46778D01*
X60539Y-46700D02*
X60539Y-46778D01*
X60736Y-46896D02*
X60618Y-46896D01*
X60618Y-46896D02*
X60618Y-47014D01*
X60736Y-47014D02*
X60618Y-47014D01*
X60736Y-46896D02*
X60736Y-47014D01*
X60746Y-47064D02*
X60657Y-47064D01*
X60657Y-47064D02*
X60657Y-47093D01*
X60746Y-47093D02*
X60657Y-47093D01*
X60746Y-47064D02*
X60746Y-47093D01*
G54D15*
X60274Y-46906D02*
X60274Y-46494D01*
X60726Y-46504D02*
X60726Y-47064D01*
G54D16*
X60705Y-47034D02*
G75*
G03X60705Y-47034I-28J0D01*
G74*
G01*
G54D15*
X60637Y-47093D02*
G75*
G03X60363Y-47093I-137J0D01*
G74*
G01*
X60363Y-46307D02*
G75*
G03X60637Y-46307I137J0D01*
G74*
G01*
G54D14*
X62618Y-43104D02*
X62746Y-43104D01*
X62746Y-43104D02*
X62746Y-42907D01*
X62618Y-42907D02*
X62746Y-42907D01*
X62618Y-43104D02*
X62618Y-42907D01*
X62373Y-43104D02*
X62432Y-43104D01*
X62432Y-43104D02*
X62432Y-43005D01*
X62373Y-43005D02*
X62432Y-43005D01*
X62373Y-43104D02*
X62373Y-43005D01*
X62568Y-43104D02*
X62627Y-43104D01*
X62627Y-43104D02*
X62627Y-43005D01*
X62568Y-43005D02*
X62627Y-43005D01*
X62568Y-43104D02*
X62568Y-43005D01*
X62422Y-43104D02*
X62578Y-43104D01*
X62578Y-43104D02*
X62578Y-43035D01*
X62422Y-43035D02*
X62578Y-43035D01*
X62422Y-43104D02*
X62422Y-43035D01*
X62618Y-43693D02*
X62746Y-43693D01*
X62746Y-43693D02*
X62746Y-43496D01*
X62618Y-43496D02*
X62746Y-43496D01*
X62618Y-43693D02*
X62618Y-43496D01*
X62254Y-43693D02*
X62382Y-43693D01*
X62382Y-43693D02*
X62382Y-43496D01*
X62254Y-43496D02*
X62382Y-43496D01*
X62254Y-43693D02*
X62254Y-43496D01*
X62568Y-43595D02*
X62627Y-43595D01*
X62627Y-43595D02*
X62627Y-43496D01*
X62568Y-43496D02*
X62627Y-43496D01*
X62568Y-43595D02*
X62568Y-43496D01*
X62373Y-43595D02*
X62432Y-43595D01*
X62432Y-43595D02*
X62432Y-43496D01*
X62373Y-43496D02*
X62432Y-43496D01*
X62373Y-43595D02*
X62373Y-43496D01*
X62422Y-43565D02*
X62578Y-43565D01*
X62578Y-43565D02*
X62578Y-43496D01*
X62422Y-43496D02*
X62578Y-43496D01*
X62422Y-43565D02*
X62422Y-43496D01*
X62461Y-43300D02*
X62539Y-43300D01*
X62539Y-43300D02*
X62539Y-43222D01*
X62461Y-43222D02*
X62539Y-43222D01*
X62461Y-43300D02*
X62461Y-43222D01*
X62264Y-43104D02*
X62382Y-43104D01*
X62382Y-43104D02*
X62382Y-42986D01*
X62264Y-42986D02*
X62382Y-42986D01*
X62264Y-43104D02*
X62264Y-42986D01*
X62254Y-42936D02*
X62343Y-42936D01*
X62343Y-42936D02*
X62343Y-42907D01*
X62254Y-42907D02*
X62343Y-42907D01*
X62254Y-42936D02*
X62254Y-42907D01*
G54D15*
X62726Y-43094D02*
X62726Y-43506D01*
X62274Y-43496D02*
X62274Y-42936D01*
G54D16*
X62351Y-42966D02*
G75*
G03X62351Y-42966I-28J0D01*
G74*
G01*
G54D15*
X62363Y-42907D02*
G75*
G03X62637Y-42907I137J0D01*
G74*
G01*
X62637Y-43693D02*
G75*
G03X62363Y-43693I-137J0D01*
G74*
G01*
G54D14*
X59618Y-43104D02*
X59746Y-43104D01*
X59746Y-43104D02*
X59746Y-42907D01*
X59618Y-42907D02*
X59746Y-42907D01*
X59618Y-43104D02*
X59618Y-42907D01*
X59373Y-43104D02*
X59432Y-43104D01*
X59432Y-43104D02*
X59432Y-43005D01*
X59373Y-43005D02*
X59432Y-43005D01*
X59373Y-43104D02*
X59373Y-43005D01*
X59568Y-43104D02*
X59627Y-43104D01*
X59627Y-43104D02*
X59627Y-43005D01*
X59568Y-43005D02*
X59627Y-43005D01*
X59568Y-43104D02*
X59568Y-43005D01*
X59422Y-43104D02*
X59578Y-43104D01*
X59578Y-43104D02*
X59578Y-43035D01*
X59422Y-43035D02*
X59578Y-43035D01*
X59422Y-43104D02*
X59422Y-43035D01*
X59618Y-43693D02*
X59746Y-43693D01*
X59746Y-43693D02*
X59746Y-43496D01*
X59618Y-43496D02*
X59746Y-43496D01*
X59618Y-43693D02*
X59618Y-43496D01*
X59254Y-43693D02*
X59382Y-43693D01*
X59382Y-43693D02*
X59382Y-43496D01*
X59254Y-43496D02*
X59382Y-43496D01*
X59254Y-43693D02*
X59254Y-43496D01*
X59568Y-43595D02*
X59627Y-43595D01*
X59627Y-43595D02*
X59627Y-43496D01*
X59568Y-43496D02*
X59627Y-43496D01*
X59568Y-43595D02*
X59568Y-43496D01*
X59373Y-43595D02*
X59432Y-43595D01*
X59432Y-43595D02*
X59432Y-43496D01*
X59373Y-43496D02*
X59432Y-43496D01*
X59373Y-43595D02*
X59373Y-43496D01*
X59422Y-43565D02*
X59578Y-43565D01*
X59578Y-43565D02*
X59578Y-43496D01*
X59422Y-43496D02*
X59578Y-43496D01*
X59422Y-43565D02*
X59422Y-43496D01*
X59461Y-43300D02*
X59539Y-43300D01*
X59539Y-43300D02*
X59539Y-43222D01*
X59461Y-43222D02*
X59539Y-43222D01*
X59461Y-43300D02*
X59461Y-43222D01*
X59264Y-43104D02*
X59382Y-43104D01*
X59382Y-43104D02*
X59382Y-42986D01*
X59264Y-42986D02*
X59382Y-42986D01*
X59264Y-43104D02*
X59264Y-42986D01*
X59254Y-42936D02*
X59343Y-42936D01*
X59343Y-42936D02*
X59343Y-42907D01*
X59254Y-42907D02*
X59343Y-42907D01*
X59254Y-42936D02*
X59254Y-42907D01*
G54D15*
X59726Y-43094D02*
X59726Y-43506D01*
X59274Y-43496D02*
X59274Y-42936D01*
G54D16*
X59351Y-42966D02*
G75*
G03X59351Y-42966I-28J0D01*
G74*
G01*
G54D15*
X59363Y-42907D02*
G75*
G03X59637Y-42907I137J0D01*
G74*
G01*
X59637Y-43693D02*
G75*
G03X59363Y-43693I-137J0D01*
G74*
G01*
G54D14*
X60618Y-43104D02*
X60746Y-43104D01*
X60746Y-43104D02*
X60746Y-42907D01*
X60618Y-42907D02*
X60746Y-42907D01*
X60618Y-43104D02*
X60618Y-42907D01*
X60373Y-43104D02*
X60432Y-43104D01*
X60432Y-43104D02*
X60432Y-43005D01*
X60373Y-43005D02*
X60432Y-43005D01*
X60373Y-43104D02*
X60373Y-43005D01*
X60568Y-43104D02*
X60627Y-43104D01*
X60627Y-43104D02*
X60627Y-43005D01*
X60568Y-43005D02*
X60627Y-43005D01*
X60568Y-43104D02*
X60568Y-43005D01*
X60422Y-43104D02*
X60578Y-43104D01*
X60578Y-43104D02*
X60578Y-43035D01*
X60422Y-43035D02*
X60578Y-43035D01*
X60422Y-43104D02*
X60422Y-43035D01*
X60618Y-43693D02*
X60746Y-43693D01*
X60746Y-43693D02*
X60746Y-43496D01*
X60618Y-43496D02*
X60746Y-43496D01*
X60618Y-43693D02*
X60618Y-43496D01*
X60254Y-43693D02*
X60382Y-43693D01*
X60382Y-43693D02*
X60382Y-43496D01*
X60254Y-43496D02*
X60382Y-43496D01*
X60254Y-43693D02*
X60254Y-43496D01*
X60568Y-43595D02*
X60627Y-43595D01*
X60627Y-43595D02*
X60627Y-43496D01*
X60568Y-43496D02*
X60627Y-43496D01*
X60568Y-43595D02*
X60568Y-43496D01*
X60373Y-43595D02*
X60432Y-43595D01*
X60432Y-43595D02*
X60432Y-43496D01*
X60373Y-43496D02*
X60432Y-43496D01*
X60373Y-43595D02*
X60373Y-43496D01*
X60422Y-43565D02*
X60578Y-43565D01*
X60578Y-43565D02*
X60578Y-43496D01*
X60422Y-43496D02*
X60578Y-43496D01*
X60422Y-43565D02*
X60422Y-43496D01*
X60461Y-43300D02*
X60539Y-43300D01*
X60539Y-43300D02*
X60539Y-43222D01*
X60461Y-43222D02*
X60539Y-43222D01*
X60461Y-43300D02*
X60461Y-43222D01*
X60264Y-43104D02*
X60382Y-43104D01*
X60382Y-43104D02*
X60382Y-42986D01*
X60264Y-42986D02*
X60382Y-42986D01*
X60264Y-43104D02*
X60264Y-42986D01*
X60254Y-42936D02*
X60343Y-42936D01*
X60343Y-42936D02*
X60343Y-42907D01*
X60254Y-42907D02*
X60343Y-42907D01*
X60254Y-42936D02*
X60254Y-42907D01*
G54D15*
X60726Y-43094D02*
X60726Y-43506D01*
X60274Y-43496D02*
X60274Y-42936D01*
G54D16*
X60351Y-42966D02*
G75*
G03X60351Y-42966I-28J0D01*
G74*
G01*
G54D15*
X60363Y-42907D02*
G75*
G03X60637Y-42907I137J0D01*
G74*
G01*
X60637Y-43693D02*
G75*
G03X60363Y-43693I-137J0D01*
G74*
G01*
G54D14*
X63618Y-43104D02*
X63746Y-43104D01*
X63746Y-43104D02*
X63746Y-42907D01*
X63618Y-42907D02*
X63746Y-42907D01*
X63618Y-43104D02*
X63618Y-42907D01*
X63373Y-43104D02*
X63432Y-43104D01*
X63432Y-43104D02*
X63432Y-43005D01*
X63373Y-43005D02*
X63432Y-43005D01*
X63373Y-43104D02*
X63373Y-43005D01*
X63568Y-43104D02*
X63627Y-43104D01*
X63627Y-43104D02*
X63627Y-43005D01*
X63568Y-43005D02*
X63627Y-43005D01*
X63568Y-43104D02*
X63568Y-43005D01*
X63422Y-43104D02*
X63578Y-43104D01*
X63578Y-43104D02*
X63578Y-43035D01*
X63422Y-43035D02*
X63578Y-43035D01*
X63422Y-43104D02*
X63422Y-43035D01*
X63618Y-43693D02*
X63746Y-43693D01*
X63746Y-43693D02*
X63746Y-43496D01*
X63618Y-43496D02*
X63746Y-43496D01*
X63618Y-43693D02*
X63618Y-43496D01*
X63254Y-43693D02*
X63382Y-43693D01*
X63382Y-43693D02*
X63382Y-43496D01*
X63254Y-43496D02*
X63382Y-43496D01*
X63254Y-43693D02*
X63254Y-43496D01*
X63568Y-43595D02*
X63627Y-43595D01*
X63627Y-43595D02*
X63627Y-43496D01*
X63568Y-43496D02*
X63627Y-43496D01*
X63568Y-43595D02*
X63568Y-43496D01*
X63373Y-43595D02*
X63432Y-43595D01*
X63432Y-43595D02*
X63432Y-43496D01*
X63373Y-43496D02*
X63432Y-43496D01*
X63373Y-43595D02*
X63373Y-43496D01*
X63422Y-43565D02*
X63578Y-43565D01*
X63578Y-43565D02*
X63578Y-43496D01*
X63422Y-43496D02*
X63578Y-43496D01*
X63422Y-43565D02*
X63422Y-43496D01*
X63461Y-43300D02*
X63539Y-43300D01*
X63539Y-43300D02*
X63539Y-43222D01*
X63461Y-43222D02*
X63539Y-43222D01*
X63461Y-43300D02*
X63461Y-43222D01*
X63264Y-43104D02*
X63382Y-43104D01*
X63382Y-43104D02*
X63382Y-42986D01*
X63264Y-42986D02*
X63382Y-42986D01*
X63264Y-43104D02*
X63264Y-42986D01*
X63254Y-42936D02*
X63343Y-42936D01*
X63343Y-42936D02*
X63343Y-42907D01*
X63254Y-42907D02*
X63343Y-42907D01*
X63254Y-42936D02*
X63254Y-42907D01*
G54D15*
X63726Y-43094D02*
X63726Y-43506D01*
X63274Y-43496D02*
X63274Y-42936D01*
G54D16*
X63351Y-42966D02*
G75*
G03X63351Y-42966I-28J0D01*
G74*
G01*
G54D15*
X63363Y-42907D02*
G75*
G03X63637Y-42907I137J0D01*
G74*
G01*
X63637Y-43693D02*
G75*
G03X63363Y-43693I-137J0D01*
G74*
G01*
G54D14*
X64618Y-43104D02*
X64746Y-43104D01*
X64746Y-43104D02*
X64746Y-42907D01*
X64618Y-42907D02*
X64746Y-42907D01*
X64618Y-43104D02*
X64618Y-42907D01*
X64373Y-43104D02*
X64432Y-43104D01*
X64432Y-43104D02*
X64432Y-43005D01*
X64373Y-43005D02*
X64432Y-43005D01*
X64373Y-43104D02*
X64373Y-43005D01*
X64568Y-43104D02*
X64627Y-43104D01*
X64627Y-43104D02*
X64627Y-43005D01*
X64568Y-43005D02*
X64627Y-43005D01*
X64568Y-43104D02*
X64568Y-43005D01*
X64422Y-43104D02*
X64578Y-43104D01*
X64578Y-43104D02*
X64578Y-43035D01*
X64422Y-43035D02*
X64578Y-43035D01*
X64422Y-43104D02*
X64422Y-43035D01*
X64618Y-43693D02*
X64746Y-43693D01*
X64746Y-43693D02*
X64746Y-43496D01*
X64618Y-43496D02*
X64746Y-43496D01*
X64618Y-43693D02*
X64618Y-43496D01*
X64254Y-43693D02*
X64382Y-43693D01*
X64382Y-43693D02*
X64382Y-43496D01*
X64254Y-43496D02*
X64382Y-43496D01*
X64254Y-43693D02*
X64254Y-43496D01*
X64568Y-43595D02*
X64627Y-43595D01*
X64627Y-43595D02*
X64627Y-43496D01*
X64568Y-43496D02*
X64627Y-43496D01*
X64568Y-43595D02*
X64568Y-43496D01*
X64373Y-43595D02*
X64432Y-43595D01*
X64432Y-43595D02*
X64432Y-43496D01*
X64373Y-43496D02*
X64432Y-43496D01*
X64373Y-43595D02*
X64373Y-43496D01*
X64422Y-43565D02*
X64578Y-43565D01*
X64578Y-43565D02*
X64578Y-43496D01*
X64422Y-43496D02*
X64578Y-43496D01*
X64422Y-43565D02*
X64422Y-43496D01*
X64461Y-43300D02*
X64539Y-43300D01*
X64539Y-43300D02*
X64539Y-43222D01*
X64461Y-43222D02*
X64539Y-43222D01*
X64461Y-43300D02*
X64461Y-43222D01*
X64264Y-43104D02*
X64382Y-43104D01*
X64382Y-43104D02*
X64382Y-42986D01*
X64264Y-42986D02*
X64382Y-42986D01*
X64264Y-43104D02*
X64264Y-42986D01*
X64254Y-42936D02*
X64343Y-42936D01*
X64343Y-42936D02*
X64343Y-42907D01*
X64254Y-42907D02*
X64343Y-42907D01*
X64254Y-42936D02*
X64254Y-42907D01*
G54D15*
X64726Y-43094D02*
X64726Y-43506D01*
X64274Y-43496D02*
X64274Y-42936D01*
G54D16*
X64351Y-42966D02*
G75*
G03X64351Y-42966I-28J0D01*
G74*
G01*
G54D15*
X64363Y-42907D02*
G75*
G03X64637Y-42907I137J0D01*
G74*
G01*
X64637Y-43693D02*
G75*
G03X64363Y-43693I-137J0D01*
G74*
G01*
G54D14*
X65618Y-43104D02*
X65746Y-43104D01*
X65746Y-43104D02*
X65746Y-42907D01*
X65618Y-42907D02*
X65746Y-42907D01*
X65618Y-43104D02*
X65618Y-42907D01*
X65373Y-43104D02*
X65432Y-43104D01*
X65432Y-43104D02*
X65432Y-43005D01*
X65373Y-43005D02*
X65432Y-43005D01*
X65373Y-43104D02*
X65373Y-43005D01*
X65568Y-43104D02*
X65627Y-43104D01*
X65627Y-43104D02*
X65627Y-43005D01*
X65568Y-43005D02*
X65627Y-43005D01*
X65568Y-43104D02*
X65568Y-43005D01*
X65422Y-43104D02*
X65578Y-43104D01*
X65578Y-43104D02*
X65578Y-43035D01*
X65422Y-43035D02*
X65578Y-43035D01*
X65422Y-43104D02*
X65422Y-43035D01*
X65618Y-43693D02*
X65746Y-43693D01*
X65746Y-43693D02*
X65746Y-43496D01*
X65618Y-43496D02*
X65746Y-43496D01*
X65618Y-43693D02*
X65618Y-43496D01*
X65254Y-43693D02*
X65382Y-43693D01*
X65382Y-43693D02*
X65382Y-43496D01*
X65254Y-43496D02*
X65382Y-43496D01*
X65254Y-43693D02*
X65254Y-43496D01*
X65568Y-43595D02*
X65627Y-43595D01*
X65627Y-43595D02*
X65627Y-43496D01*
X65568Y-43496D02*
X65627Y-43496D01*
X65568Y-43595D02*
X65568Y-43496D01*
X65373Y-43595D02*
X65432Y-43595D01*
X65432Y-43595D02*
X65432Y-43496D01*
X65373Y-43496D02*
X65432Y-43496D01*
X65373Y-43595D02*
X65373Y-43496D01*
X65422Y-43565D02*
X65578Y-43565D01*
X65578Y-43565D02*
X65578Y-43496D01*
X65422Y-43496D02*
X65578Y-43496D01*
X65422Y-43565D02*
X65422Y-43496D01*
X65461Y-43300D02*
X65539Y-43300D01*
X65539Y-43300D02*
X65539Y-43222D01*
X65461Y-43222D02*
X65539Y-43222D01*
X65461Y-43300D02*
X65461Y-43222D01*
X65264Y-43104D02*
X65382Y-43104D01*
X65382Y-43104D02*
X65382Y-42986D01*
X65264Y-42986D02*
X65382Y-42986D01*
X65264Y-43104D02*
X65264Y-42986D01*
X65254Y-42936D02*
X65343Y-42936D01*
X65343Y-42936D02*
X65343Y-42907D01*
X65254Y-42907D02*
X65343Y-42907D01*
X65254Y-42936D02*
X65254Y-42907D01*
G54D15*
X65726Y-43094D02*
X65726Y-43506D01*
X65274Y-43496D02*
X65274Y-42936D01*
G54D16*
X65351Y-42966D02*
G75*
G03X65351Y-42966I-28J0D01*
G74*
G01*
G54D15*
X65363Y-42907D02*
G75*
G03X65637Y-42907I137J0D01*
G74*
G01*
X65637Y-43693D02*
G75*
G03X65363Y-43693I-137J0D01*
G74*
G01*
G54D14*
X66618Y-43104D02*
X66746Y-43104D01*
X66746Y-43104D02*
X66746Y-42907D01*
X66618Y-42907D02*
X66746Y-42907D01*
X66618Y-43104D02*
X66618Y-42907D01*
X66373Y-43104D02*
X66432Y-43104D01*
X66432Y-43104D02*
X66432Y-43005D01*
X66373Y-43005D02*
X66432Y-43005D01*
X66373Y-43104D02*
X66373Y-43005D01*
X66568Y-43104D02*
X66627Y-43104D01*
X66627Y-43104D02*
X66627Y-43005D01*
X66568Y-43005D02*
X66627Y-43005D01*
X66568Y-43104D02*
X66568Y-43005D01*
X66422Y-43104D02*
X66578Y-43104D01*
X66578Y-43104D02*
X66578Y-43035D01*
X66422Y-43035D02*
X66578Y-43035D01*
X66422Y-43104D02*
X66422Y-43035D01*
X66618Y-43693D02*
X66746Y-43693D01*
X66746Y-43693D02*
X66746Y-43496D01*
X66618Y-43496D02*
X66746Y-43496D01*
X66618Y-43693D02*
X66618Y-43496D01*
X66254Y-43693D02*
X66382Y-43693D01*
X66382Y-43693D02*
X66382Y-43496D01*
X66254Y-43496D02*
X66382Y-43496D01*
X66254Y-43693D02*
X66254Y-43496D01*
X66568Y-43595D02*
X66627Y-43595D01*
X66627Y-43595D02*
X66627Y-43496D01*
X66568Y-43496D02*
X66627Y-43496D01*
X66568Y-43595D02*
X66568Y-43496D01*
X66373Y-43595D02*
X66432Y-43595D01*
X66432Y-43595D02*
X66432Y-43496D01*
X66373Y-43496D02*
X66432Y-43496D01*
X66373Y-43595D02*
X66373Y-43496D01*
X66422Y-43565D02*
X66578Y-43565D01*
X66578Y-43565D02*
X66578Y-43496D01*
X66422Y-43496D02*
X66578Y-43496D01*
X66422Y-43565D02*
X66422Y-43496D01*
X66461Y-43300D02*
X66539Y-43300D01*
X66539Y-43300D02*
X66539Y-43222D01*
X66461Y-43222D02*
X66539Y-43222D01*
X66461Y-43300D02*
X66461Y-43222D01*
X66264Y-43104D02*
X66382Y-43104D01*
X66382Y-43104D02*
X66382Y-42986D01*
X66264Y-42986D02*
X66382Y-42986D01*
X66264Y-43104D02*
X66264Y-42986D01*
X66254Y-42936D02*
X66343Y-42936D01*
X66343Y-42936D02*
X66343Y-42907D01*
X66254Y-42907D02*
X66343Y-42907D01*
X66254Y-42936D02*
X66254Y-42907D01*
G54D15*
X66726Y-43094D02*
X66726Y-43506D01*
X66274Y-43496D02*
X66274Y-42936D01*
G54D16*
X66351Y-42966D02*
G75*
G03X66351Y-42966I-28J0D01*
G74*
G01*
G54D15*
X66363Y-42907D02*
G75*
G03X66637Y-42907I137J0D01*
G74*
G01*
X66637Y-43693D02*
G75*
G03X66363Y-43693I-137J0D01*
G74*
G01*
G54D14*
X59382Y-46896D02*
X59254Y-46896D01*
X59254Y-46896D02*
X59254Y-47093D01*
X59382Y-47093D02*
X59254Y-47093D01*
X59382Y-46896D02*
X59382Y-47093D01*
X59627Y-46896D02*
X59568Y-46896D01*
X59568Y-46896D02*
X59568Y-46995D01*
X59627Y-46995D02*
X59568Y-46995D01*
X59627Y-46896D02*
X59627Y-46995D01*
X59432Y-46896D02*
X59373Y-46896D01*
X59373Y-46896D02*
X59373Y-46995D01*
X59432Y-46995D02*
X59373Y-46995D01*
X59432Y-46896D02*
X59432Y-46995D01*
X59578Y-46896D02*
X59422Y-46896D01*
X59422Y-46896D02*
X59422Y-46965D01*
X59578Y-46965D02*
X59422Y-46965D01*
X59578Y-46896D02*
X59578Y-46965D01*
X59382Y-46307D02*
X59254Y-46307D01*
X59254Y-46307D02*
X59254Y-46504D01*
X59382Y-46504D02*
X59254Y-46504D01*
X59382Y-46307D02*
X59382Y-46504D01*
X59746Y-46307D02*
X59618Y-46307D01*
X59618Y-46307D02*
X59618Y-46504D01*
X59746Y-46504D02*
X59618Y-46504D01*
X59746Y-46307D02*
X59746Y-46504D01*
X59432Y-46405D02*
X59373Y-46405D01*
X59373Y-46405D02*
X59373Y-46504D01*
X59432Y-46504D02*
X59373Y-46504D01*
X59432Y-46405D02*
X59432Y-46504D01*
X59627Y-46405D02*
X59568Y-46405D01*
X59568Y-46405D02*
X59568Y-46504D01*
X59627Y-46504D02*
X59568Y-46504D01*
X59627Y-46405D02*
X59627Y-46504D01*
X59578Y-46435D02*
X59422Y-46435D01*
X59422Y-46435D02*
X59422Y-46504D01*
X59578Y-46504D02*
X59422Y-46504D01*
X59578Y-46435D02*
X59578Y-46504D01*
X59539Y-46700D02*
X59461Y-46700D01*
X59461Y-46700D02*
X59461Y-46778D01*
X59539Y-46778D02*
X59461Y-46778D01*
X59539Y-46700D02*
X59539Y-46778D01*
X59736Y-46896D02*
X59618Y-46896D01*
X59618Y-46896D02*
X59618Y-47014D01*
X59736Y-47014D02*
X59618Y-47014D01*
X59736Y-46896D02*
X59736Y-47014D01*
X59746Y-47064D02*
X59657Y-47064D01*
X59657Y-47064D02*
X59657Y-47093D01*
X59746Y-47093D02*
X59657Y-47093D01*
X59746Y-47064D02*
X59746Y-47093D01*
G54D15*
X59274Y-46906D02*
X59274Y-46494D01*
X59726Y-46504D02*
X59726Y-47064D01*
G54D16*
X59705Y-47034D02*
G75*
G03X59705Y-47034I-28J0D01*
G74*
G01*
G54D15*
X59637Y-47093D02*
G75*
G03X59363Y-47093I-137J0D01*
G74*
G01*
X59363Y-46307D02*
G75*
G03X59637Y-46307I137J0D01*
G74*
G01*
G54D14*
X64382Y-46896D02*
X64254Y-46896D01*
X64254Y-46896D02*
X64254Y-47093D01*
X64382Y-47093D02*
X64254Y-47093D01*
X64382Y-46896D02*
X64382Y-47093D01*
X64627Y-46896D02*
X64568Y-46896D01*
X64568Y-46896D02*
X64568Y-46995D01*
X64627Y-46995D02*
X64568Y-46995D01*
X64627Y-46896D02*
X64627Y-46995D01*
X64432Y-46896D02*
X64373Y-46896D01*
X64373Y-46896D02*
X64373Y-46995D01*
X64432Y-46995D02*
X64373Y-46995D01*
X64432Y-46896D02*
X64432Y-46995D01*
X64578Y-46896D02*
X64422Y-46896D01*
X64422Y-46896D02*
X64422Y-46965D01*
X64578Y-46965D02*
X64422Y-46965D01*
X64578Y-46896D02*
X64578Y-46965D01*
X64382Y-46307D02*
X64254Y-46307D01*
X64254Y-46307D02*
X64254Y-46504D01*
X64382Y-46504D02*
X64254Y-46504D01*
X64382Y-46307D02*
X64382Y-46504D01*
X64746Y-46307D02*
X64618Y-46307D01*
X64618Y-46307D02*
X64618Y-46504D01*
X64746Y-46504D02*
X64618Y-46504D01*
X64746Y-46307D02*
X64746Y-46504D01*
X64432Y-46405D02*
X64373Y-46405D01*
X64373Y-46405D02*
X64373Y-46504D01*
X64432Y-46504D02*
X64373Y-46504D01*
X64432Y-46405D02*
X64432Y-46504D01*
X64627Y-46405D02*
X64568Y-46405D01*
X64568Y-46405D02*
X64568Y-46504D01*
X64627Y-46504D02*
X64568Y-46504D01*
X64627Y-46405D02*
X64627Y-46504D01*
X64578Y-46435D02*
X64422Y-46435D01*
X64422Y-46435D02*
X64422Y-46504D01*
X64578Y-46504D02*
X64422Y-46504D01*
X64578Y-46435D02*
X64578Y-46504D01*
X64539Y-46700D02*
X64461Y-46700D01*
X64461Y-46700D02*
X64461Y-46778D01*
X64539Y-46778D02*
X64461Y-46778D01*
X64539Y-46700D02*
X64539Y-46778D01*
X64736Y-46896D02*
X64618Y-46896D01*
X64618Y-46896D02*
X64618Y-47014D01*
X64736Y-47014D02*
X64618Y-47014D01*
X64736Y-46896D02*
X64736Y-47014D01*
X64746Y-47064D02*
X64657Y-47064D01*
X64657Y-47064D02*
X64657Y-47093D01*
X64746Y-47093D02*
X64657Y-47093D01*
X64746Y-47064D02*
X64746Y-47093D01*
G54D15*
X64274Y-46906D02*
X64274Y-46494D01*
X64726Y-46504D02*
X64726Y-47064D01*
G54D16*
X64705Y-47034D02*
G75*
G03X64705Y-47034I-28J0D01*
G74*
G01*
G54D15*
X64637Y-47093D02*
G75*
G03X64363Y-47093I-137J0D01*
G74*
G01*
X64363Y-46307D02*
G75*
G03X64637Y-46307I137J0D01*
G74*
G01*
G54D14*
X63382Y-46896D02*
X63254Y-46896D01*
X63254Y-46896D02*
X63254Y-47093D01*
X63382Y-47093D02*
X63254Y-47093D01*
X63382Y-46896D02*
X63382Y-47093D01*
X63627Y-46896D02*
X63568Y-46896D01*
X63568Y-46896D02*
X63568Y-46995D01*
X63627Y-46995D02*
X63568Y-46995D01*
X63627Y-46896D02*
X63627Y-46995D01*
X63432Y-46896D02*
X63373Y-46896D01*
X63373Y-46896D02*
X63373Y-46995D01*
X63432Y-46995D02*
X63373Y-46995D01*
X63432Y-46896D02*
X63432Y-46995D01*
X63578Y-46896D02*
X63422Y-46896D01*
X63422Y-46896D02*
X63422Y-46965D01*
X63578Y-46965D02*
X63422Y-46965D01*
X63578Y-46896D02*
X63578Y-46965D01*
X63382Y-46307D02*
X63254Y-46307D01*
X63254Y-46307D02*
X63254Y-46504D01*
X63382Y-46504D02*
X63254Y-46504D01*
X63382Y-46307D02*
X63382Y-46504D01*
X63746Y-46307D02*
X63618Y-46307D01*
X63618Y-46307D02*
X63618Y-46504D01*
X63746Y-46504D02*
X63618Y-46504D01*
X63746Y-46307D02*
X63746Y-46504D01*
X63432Y-46405D02*
X63373Y-46405D01*
X63373Y-46405D02*
X63373Y-46504D01*
X63432Y-46504D02*
X63373Y-46504D01*
X63432Y-46405D02*
X63432Y-46504D01*
X63627Y-46405D02*
X63568Y-46405D01*
X63568Y-46405D02*
X63568Y-46504D01*
X63627Y-46504D02*
X63568Y-46504D01*
X63627Y-46405D02*
X63627Y-46504D01*
X63578Y-46435D02*
X63422Y-46435D01*
X63422Y-46435D02*
X63422Y-46504D01*
X63578Y-46504D02*
X63422Y-46504D01*
X63578Y-46435D02*
X63578Y-46504D01*
X63539Y-46700D02*
X63461Y-46700D01*
X63461Y-46700D02*
X63461Y-46778D01*
X63539Y-46778D02*
X63461Y-46778D01*
X63539Y-46700D02*
X63539Y-46778D01*
X63736Y-46896D02*
X63618Y-46896D01*
X63618Y-46896D02*
X63618Y-47014D01*
X63736Y-47014D02*
X63618Y-47014D01*
X63736Y-46896D02*
X63736Y-47014D01*
X63746Y-47064D02*
X63657Y-47064D01*
X63657Y-47064D02*
X63657Y-47093D01*
X63746Y-47093D02*
X63657Y-47093D01*
X63746Y-47064D02*
X63746Y-47093D01*
G54D15*
X63274Y-46906D02*
X63274Y-46494D01*
X63726Y-46504D02*
X63726Y-47064D01*
G54D16*
X63705Y-47034D02*
G75*
G03X63705Y-47034I-28J0D01*
G74*
G01*
G54D15*
X63637Y-47093D02*
G75*
G03X63363Y-47093I-137J0D01*
G74*
G01*
X63363Y-46307D02*
G75*
G03X63637Y-46307I137J0D01*
G74*
G01*
G54D14*
X66382Y-46896D02*
X66254Y-46896D01*
X66254Y-46896D02*
X66254Y-47093D01*
X66382Y-47093D02*
X66254Y-47093D01*
X66382Y-46896D02*
X66382Y-47093D01*
X66627Y-46896D02*
X66568Y-46896D01*
X66568Y-46896D02*
X66568Y-46995D01*
X66627Y-46995D02*
X66568Y-46995D01*
X66627Y-46896D02*
X66627Y-46995D01*
X66432Y-46896D02*
X66373Y-46896D01*
X66373Y-46896D02*
X66373Y-46995D01*
X66432Y-46995D02*
X66373Y-46995D01*
X66432Y-46896D02*
X66432Y-46995D01*
X66578Y-46896D02*
X66422Y-46896D01*
X66422Y-46896D02*
X66422Y-46965D01*
X66578Y-46965D02*
X66422Y-46965D01*
X66578Y-46896D02*
X66578Y-46965D01*
X66382Y-46307D02*
X66254Y-46307D01*
X66254Y-46307D02*
X66254Y-46504D01*
X66382Y-46504D02*
X66254Y-46504D01*
X66382Y-46307D02*
X66382Y-46504D01*
X66746Y-46307D02*
X66618Y-46307D01*
X66618Y-46307D02*
X66618Y-46504D01*
X66746Y-46504D02*
X66618Y-46504D01*
X66746Y-46307D02*
X66746Y-46504D01*
X66432Y-46405D02*
X66373Y-46405D01*
X66373Y-46405D02*
X66373Y-46504D01*
X66432Y-46504D02*
X66373Y-46504D01*
X66432Y-46405D02*
X66432Y-46504D01*
X66627Y-46405D02*
X66568Y-46405D01*
X66568Y-46405D02*
X66568Y-46504D01*
X66627Y-46504D02*
X66568Y-46504D01*
X66627Y-46405D02*
X66627Y-46504D01*
X66578Y-46435D02*
X66422Y-46435D01*
X66422Y-46435D02*
X66422Y-46504D01*
X66578Y-46504D02*
X66422Y-46504D01*
X66578Y-46435D02*
X66578Y-46504D01*
X66539Y-46700D02*
X66461Y-46700D01*
X66461Y-46700D02*
X66461Y-46778D01*
X66539Y-46778D02*
X66461Y-46778D01*
X66539Y-46700D02*
X66539Y-46778D01*
X66736Y-46896D02*
X66618Y-46896D01*
X66618Y-46896D02*
X66618Y-47014D01*
X66736Y-47014D02*
X66618Y-47014D01*
X66736Y-46896D02*
X66736Y-47014D01*
X66746Y-47064D02*
X66657Y-47064D01*
X66657Y-47064D02*
X66657Y-47093D01*
X66746Y-47093D02*
X66657Y-47093D01*
X66746Y-47064D02*
X66746Y-47093D01*
G54D15*
X66274Y-46906D02*
X66274Y-46494D01*
X66726Y-46504D02*
X66726Y-47064D01*
G54D16*
X66705Y-47034D02*
G75*
G03X66705Y-47034I-28J0D01*
G74*
G01*
G54D15*
X66637Y-47093D02*
G75*
G03X66363Y-47093I-137J0D01*
G74*
G01*
X66363Y-46307D02*
G75*
G03X66637Y-46307I137J0D01*
G74*
G01*
G54D14*
X65382Y-46896D02*
X65254Y-46896D01*
X65254Y-46896D02*
X65254Y-47093D01*
X65382Y-47093D02*
X65254Y-47093D01*
X65382Y-46896D02*
X65382Y-47093D01*
X65627Y-46896D02*
X65568Y-46896D01*
X65568Y-46896D02*
X65568Y-46995D01*
X65627Y-46995D02*
X65568Y-46995D01*
X65627Y-46896D02*
X65627Y-46995D01*
X65432Y-46896D02*
X65373Y-46896D01*
X65373Y-46896D02*
X65373Y-46995D01*
X65432Y-46995D02*
X65373Y-46995D01*
X65432Y-46896D02*
X65432Y-46995D01*
X65578Y-46896D02*
X65422Y-46896D01*
X65422Y-46896D02*
X65422Y-46965D01*
X65578Y-46965D02*
X65422Y-46965D01*
X65578Y-46896D02*
X65578Y-46965D01*
X65382Y-46307D02*
X65254Y-46307D01*
X65254Y-46307D02*
X65254Y-46504D01*
X65382Y-46504D02*
X65254Y-46504D01*
X65382Y-46307D02*
X65382Y-46504D01*
X65746Y-46307D02*
X65618Y-46307D01*
X65618Y-46307D02*
X65618Y-46504D01*
X65746Y-46504D02*
X65618Y-46504D01*
X65746Y-46307D02*
X65746Y-46504D01*
X65432Y-46405D02*
X65373Y-46405D01*
X65373Y-46405D02*
X65373Y-46504D01*
X65432Y-46504D02*
X65373Y-46504D01*
X65432Y-46405D02*
X65432Y-46504D01*
X65627Y-46405D02*
X65568Y-46405D01*
X65568Y-46405D02*
X65568Y-46504D01*
X65627Y-46504D02*
X65568Y-46504D01*
X65627Y-46405D02*
X65627Y-46504D01*
X65578Y-46435D02*
X65422Y-46435D01*
X65422Y-46435D02*
X65422Y-46504D01*
X65578Y-46504D02*
X65422Y-46504D01*
X65578Y-46435D02*
X65578Y-46504D01*
X65539Y-46700D02*
X65461Y-46700D01*
X65461Y-46700D02*
X65461Y-46778D01*
X65539Y-46778D02*
X65461Y-46778D01*
X65539Y-46700D02*
X65539Y-46778D01*
X65736Y-46896D02*
X65618Y-46896D01*
X65618Y-46896D02*
X65618Y-47014D01*
X65736Y-47014D02*
X65618Y-47014D01*
X65736Y-46896D02*
X65736Y-47014D01*
X65746Y-47064D02*
X65657Y-47064D01*
X65657Y-47064D02*
X65657Y-47093D01*
X65746Y-47093D02*
X65657Y-47093D01*
X65746Y-47064D02*
X65746Y-47093D01*
G54D15*
X65274Y-46906D02*
X65274Y-46494D01*
X65726Y-46504D02*
X65726Y-47064D01*
G54D16*
X65705Y-47034D02*
G75*
G03X65705Y-47034I-28J0D01*
G74*
G01*
G54D15*
X65637Y-47093D02*
G75*
G03X65363Y-47093I-137J0D01*
G74*
G01*
X65363Y-46307D02*
G75*
G03X65637Y-46307I137J0D01*
G74*
G01*
G54D14*
X62382Y-46896D02*
X62254Y-46896D01*
X62254Y-46896D02*
X62254Y-47093D01*
X62382Y-47093D02*
X62254Y-47093D01*
X62382Y-46896D02*
X62382Y-47093D01*
X62627Y-46896D02*
X62568Y-46896D01*
X62568Y-46896D02*
X62568Y-46995D01*
X62627Y-46995D02*
X62568Y-46995D01*
X62627Y-46896D02*
X62627Y-46995D01*
X62432Y-46896D02*
X62373Y-46896D01*
X62373Y-46896D02*
X62373Y-46995D01*
X62432Y-46995D02*
X62373Y-46995D01*
X62432Y-46896D02*
X62432Y-46995D01*
X62578Y-46896D02*
X62422Y-46896D01*
X62422Y-46896D02*
X62422Y-46965D01*
X62578Y-46965D02*
X62422Y-46965D01*
X62578Y-46896D02*
X62578Y-46965D01*
X62382Y-46307D02*
X62254Y-46307D01*
X62254Y-46307D02*
X62254Y-46504D01*
X62382Y-46504D02*
X62254Y-46504D01*
X62382Y-46307D02*
X62382Y-46504D01*
X62746Y-46307D02*
X62618Y-46307D01*
X62618Y-46307D02*
X62618Y-46504D01*
X62746Y-46504D02*
X62618Y-46504D01*
X62746Y-46307D02*
X62746Y-46504D01*
X62432Y-46405D02*
X62373Y-46405D01*
X62373Y-46405D02*
X62373Y-46504D01*
X62432Y-46504D02*
X62373Y-46504D01*
X62432Y-46405D02*
X62432Y-46504D01*
X62627Y-46405D02*
X62568Y-46405D01*
X62568Y-46405D02*
X62568Y-46504D01*
X62627Y-46504D02*
X62568Y-46504D01*
X62627Y-46405D02*
X62627Y-46504D01*
X62578Y-46435D02*
X62422Y-46435D01*
X62422Y-46435D02*
X62422Y-46504D01*
X62578Y-46504D02*
X62422Y-46504D01*
X62578Y-46435D02*
X62578Y-46504D01*
X62539Y-46700D02*
X62461Y-46700D01*
X62461Y-46700D02*
X62461Y-46778D01*
X62539Y-46778D02*
X62461Y-46778D01*
X62539Y-46700D02*
X62539Y-46778D01*
X62736Y-46896D02*
X62618Y-46896D01*
X62618Y-46896D02*
X62618Y-47014D01*
X62736Y-47014D02*
X62618Y-47014D01*
X62736Y-46896D02*
X62736Y-47014D01*
X62746Y-47064D02*
X62657Y-47064D01*
X62657Y-47064D02*
X62657Y-47093D01*
X62746Y-47093D02*
X62657Y-47093D01*
X62746Y-47064D02*
X62746Y-47093D01*
G54D15*
X62274Y-46906D02*
X62274Y-46494D01*
X62726Y-46504D02*
X62726Y-47064D01*
G54D16*
X62705Y-47034D02*
G75*
G03X62705Y-47034I-28J0D01*
G74*
G01*
G54D15*
X62637Y-47093D02*
G75*
G03X62363Y-47093I-137J0D01*
G74*
G01*
X62363Y-46307D02*
G75*
G03X62637Y-46307I137J0D01*
G74*
G01*
G54D14*
X61382Y-46896D02*
X61254Y-46896D01*
X61254Y-46896D02*
X61254Y-47093D01*
X61382Y-47093D02*
X61254Y-47093D01*
X61382Y-46896D02*
X61382Y-47093D01*
X61627Y-46896D02*
X61568Y-46896D01*
X61568Y-46896D02*
X61568Y-46995D01*
X61627Y-46995D02*
X61568Y-46995D01*
X61627Y-46896D02*
X61627Y-46995D01*
X61432Y-46896D02*
X61373Y-46896D01*
X61373Y-46896D02*
X61373Y-46995D01*
X61432Y-46995D02*
X61373Y-46995D01*
X61432Y-46896D02*
X61432Y-46995D01*
X61578Y-46896D02*
X61422Y-46896D01*
X61422Y-46896D02*
X61422Y-46965D01*
X61578Y-46965D02*
X61422Y-46965D01*
X61578Y-46896D02*
X61578Y-46965D01*
X61382Y-46307D02*
X61254Y-46307D01*
X61254Y-46307D02*
X61254Y-46504D01*
X61382Y-46504D02*
X61254Y-46504D01*
X61382Y-46307D02*
X61382Y-46504D01*
X61746Y-46307D02*
X61618Y-46307D01*
X61618Y-46307D02*
X61618Y-46504D01*
X61746Y-46504D02*
X61618Y-46504D01*
X61746Y-46307D02*
X61746Y-46504D01*
X61432Y-46405D02*
X61373Y-46405D01*
X61373Y-46405D02*
X61373Y-46504D01*
X61432Y-46504D02*
X61373Y-46504D01*
X61432Y-46405D02*
X61432Y-46504D01*
X61627Y-46405D02*
X61568Y-46405D01*
X61568Y-46405D02*
X61568Y-46504D01*
X61627Y-46504D02*
X61568Y-46504D01*
X61627Y-46405D02*
X61627Y-46504D01*
X61578Y-46435D02*
X61422Y-46435D01*
X61422Y-46435D02*
X61422Y-46504D01*
X61578Y-46504D02*
X61422Y-46504D01*
X61578Y-46435D02*
X61578Y-46504D01*
X61539Y-46700D02*
X61461Y-46700D01*
X61461Y-46700D02*
X61461Y-46778D01*
X61539Y-46778D02*
X61461Y-46778D01*
X61539Y-46700D02*
X61539Y-46778D01*
X61736Y-46896D02*
X61618Y-46896D01*
X61618Y-46896D02*
X61618Y-47014D01*
X61736Y-47014D02*
X61618Y-47014D01*
X61736Y-46896D02*
X61736Y-47014D01*
X61746Y-47064D02*
X61657Y-47064D01*
X61657Y-47064D02*
X61657Y-47093D01*
X61746Y-47093D02*
X61657Y-47093D01*
X61746Y-47064D02*
X61746Y-47093D01*
G54D15*
X61274Y-46906D02*
X61274Y-46494D01*
X61726Y-46504D02*
X61726Y-47064D01*
G54D16*
X61705Y-47034D02*
G75*
G03X61705Y-47034I-28J0D01*
G74*
G01*
G54D15*
X61637Y-47093D02*
G75*
G03X61363Y-47093I-137J0D01*
G74*
G01*
X61363Y-46307D02*
G75*
G03X61637Y-46307I137J0D01*
G74*
G01*
%LPC*%
G54D17*
X55500Y-48000D03*
G54D18*
X56500Y-48000D03*
X57500Y-48000D03*
X58500Y-48000D03*
X59500Y-48000D03*
X60500Y-48000D03*
X61500Y-48000D03*
X62500Y-48000D03*
X63500Y-48000D03*
X64500Y-48000D03*
X65500Y-48000D03*
X66500Y-48000D03*
G54D17*
X55500Y-42000D03*
G54D18*
X56500Y-42000D03*
X57500Y-42000D03*
X58500Y-42000D03*
X59500Y-42000D03*
X60500Y-42000D03*
X61500Y-42000D03*
X62500Y-42000D03*
X63500Y-42000D03*
X64500Y-42000D03*
X65500Y-42000D03*
X66500Y-42000D03*
G54D19*
X58156Y-45400D03*
X57566Y-45400D03*
X58156Y-44600D03*
X57566Y-44600D03*
X59156Y-44600D03*
X58566Y-44600D03*
X60156Y-44600D03*
X59566Y-44600D03*
X61156Y-44600D03*
X60566Y-44600D03*
X63156Y-44600D03*
X62566Y-44600D03*
X62156Y-44600D03*
X61566Y-44600D03*
X64156Y-44600D03*
X63566Y-44600D03*
X65156Y-44600D03*
X64566Y-44600D03*
X65156Y-45400D03*
X64566Y-45400D03*
X64156Y-45400D03*
X63566Y-45400D03*
X63156Y-45400D03*
X62566Y-45400D03*
X62156Y-45400D03*
X61566Y-45400D03*
X60156Y-45400D03*
X59566Y-45400D03*
X61156Y-45400D03*
X60566Y-45400D03*
X59156Y-45400D03*
X58566Y-45400D03*
G54D20*
X61500Y-43713D03*
X61500Y-42887D03*
X60500Y-46287D03*
X60500Y-47113D03*
X62500Y-43713D03*
X62500Y-42887D03*
X59500Y-43713D03*
X59500Y-42887D03*
X60500Y-43713D03*
X60500Y-42887D03*
X63500Y-43713D03*
X63500Y-42887D03*
X64500Y-43713D03*
X64500Y-42887D03*
X65500Y-43713D03*
X65500Y-42887D03*
X66500Y-43713D03*
X66500Y-42887D03*
X59500Y-46287D03*
X59500Y-47113D03*
X64500Y-46287D03*
X64500Y-47113D03*
X63500Y-46287D03*
X63500Y-47113D03*
X66500Y-46287D03*
X66500Y-47113D03*
X65500Y-46287D03*
X65500Y-47113D03*
X62500Y-46287D03*
X62500Y-47113D03*
X61500Y-46287D03*
X61500Y-47113D03*
M02*
