G04 (created by PCBNEW (2013-01-27 BZR 3925)-testing) date Tue 29 Jan 2013 05:43:05 PM CET*
%MOIN*%
G04 Gerber Fmt 3.4, Leading zero omitted, Abs format*
%FSLAX34Y34*%
G01*
G70*
G90*
G04 APERTURE LIST*
%ADD10C,2.3622e-06*%
%ADD11R,0.06X0.06*%
%ADD12C,0.06*%
%ADD13R,0.0314X0.0314*%
%ADD14R,0.0472X0.0472*%
%ADD15C,0.012*%
%ADD16C,0.024*%
%ADD17C,0.008*%
G04 APERTURE END LIST*
G54D10*
G54D11*
X55500Y-48000D03*
G54D12*
X56500Y-48000D03*
X57500Y-48000D03*
X58500Y-48000D03*
X59500Y-48000D03*
X60500Y-48000D03*
X61500Y-48000D03*
X62500Y-48000D03*
X63500Y-48000D03*
X64500Y-48000D03*
X65500Y-48000D03*
X66500Y-48000D03*
G54D11*
X55500Y-42000D03*
G54D12*
X56500Y-42000D03*
X57500Y-42000D03*
X58500Y-42000D03*
X59500Y-42000D03*
X60500Y-42000D03*
X61500Y-42000D03*
X62500Y-42000D03*
X63500Y-42000D03*
X64500Y-42000D03*
X65500Y-42000D03*
X66500Y-42000D03*
G54D13*
X58156Y-45400D03*
X57566Y-45400D03*
X58156Y-44600D03*
X57566Y-44600D03*
X59156Y-44600D03*
X58566Y-44600D03*
X60156Y-44600D03*
X59566Y-44600D03*
X61156Y-44600D03*
X60566Y-44600D03*
X63156Y-44600D03*
X62566Y-44600D03*
X62156Y-44600D03*
X61566Y-44600D03*
X64156Y-44600D03*
X63566Y-44600D03*
X65156Y-44600D03*
X64566Y-44600D03*
X65156Y-45400D03*
X64566Y-45400D03*
X64156Y-45400D03*
X63566Y-45400D03*
X63156Y-45400D03*
X62566Y-45400D03*
X62156Y-45400D03*
X61566Y-45400D03*
X60156Y-45400D03*
X59566Y-45400D03*
X61156Y-45400D03*
X60566Y-45400D03*
X59156Y-45400D03*
X58566Y-45400D03*
G54D14*
X61500Y-43713D03*
X61500Y-42887D03*
X60500Y-46287D03*
X60500Y-47113D03*
X62500Y-43713D03*
X62500Y-42887D03*
X59500Y-43713D03*
X59500Y-42887D03*
X60500Y-43713D03*
X60500Y-42887D03*
X63500Y-43713D03*
X63500Y-42887D03*
X64500Y-43713D03*
X64500Y-42887D03*
X65500Y-43713D03*
X65500Y-42887D03*
X66500Y-43713D03*
X66500Y-42887D03*
X59500Y-46287D03*
X59500Y-47113D03*
X64500Y-46287D03*
X64500Y-47113D03*
X63500Y-46287D03*
X63500Y-47113D03*
X66500Y-46287D03*
X66500Y-47113D03*
X65500Y-46287D03*
X65500Y-47113D03*
X62500Y-46287D03*
X62500Y-47113D03*
X61500Y-46287D03*
X61500Y-47113D03*
G54D15*
X59500Y-47113D02*
X59500Y-48000D01*
X60500Y-47113D02*
X60500Y-48000D01*
X64500Y-42000D02*
X64500Y-42887D01*
X63500Y-42000D02*
X63500Y-42887D01*
X62500Y-42000D02*
X62500Y-42887D01*
X61500Y-42000D02*
X61500Y-42887D01*
X60500Y-42000D02*
X60500Y-42887D01*
X59500Y-42000D02*
X59500Y-42887D01*
X61500Y-47113D02*
X61500Y-48000D01*
X62500Y-47113D02*
X62500Y-48000D01*
X63500Y-47113D02*
X63500Y-48000D01*
X64500Y-47113D02*
X64500Y-48000D01*
X65500Y-47113D02*
X65500Y-48000D01*
X66500Y-47113D02*
X66500Y-48000D01*
X66500Y-42887D02*
X66500Y-42000D01*
X65500Y-42887D02*
X65500Y-42000D01*
X65500Y-42110D02*
X65500Y-42000D01*
G54D16*
X58161Y-45000D02*
X56850Y-45000D01*
X55500Y-43650D02*
X55500Y-42000D01*
X56850Y-45000D02*
X55500Y-43650D01*
X61161Y-45000D02*
X61161Y-45395D01*
X61161Y-45395D02*
X61156Y-45400D01*
X61161Y-45000D02*
X61161Y-44605D01*
X61161Y-44605D02*
X61156Y-44600D01*
X60161Y-45000D02*
X60161Y-45395D01*
X60161Y-45395D02*
X60156Y-45400D01*
X65161Y-45000D02*
X65161Y-44605D01*
X65161Y-44605D02*
X65156Y-44600D01*
X64161Y-45000D02*
X64161Y-45395D01*
X64161Y-45395D02*
X64156Y-45400D01*
X64161Y-45000D02*
X64161Y-44605D01*
X64161Y-44605D02*
X64156Y-44600D01*
X63161Y-45000D02*
X63161Y-45395D01*
X63161Y-45395D02*
X63156Y-45400D01*
X63161Y-45000D02*
X63161Y-44605D01*
X63161Y-44605D02*
X63156Y-44600D01*
X62161Y-45000D02*
X62161Y-44605D01*
X62161Y-44605D02*
X62156Y-44600D01*
X62161Y-45000D02*
X62161Y-45395D01*
X62161Y-45395D02*
X62156Y-45400D01*
X60156Y-44600D02*
X60156Y-44995D01*
X60156Y-44995D02*
X60161Y-45000D01*
X59161Y-45000D02*
X59161Y-44605D01*
X59161Y-44605D02*
X59156Y-44600D01*
X59161Y-45000D02*
X59161Y-45395D01*
X59161Y-45395D02*
X59156Y-45400D01*
X58161Y-45000D02*
X58161Y-45000D01*
X58161Y-45000D02*
X58161Y-45395D01*
X58161Y-45395D02*
X58156Y-45400D01*
X58156Y-44600D02*
X58156Y-44995D01*
X58156Y-44995D02*
X58161Y-45000D01*
X65161Y-45000D02*
X65161Y-45395D01*
X65161Y-45395D02*
X65156Y-45400D01*
X58161Y-45000D02*
X59161Y-45000D01*
X59161Y-45000D02*
X60161Y-45000D01*
X60161Y-45000D02*
X61161Y-45000D01*
X61161Y-45000D02*
X62161Y-45000D01*
X62161Y-45000D02*
X63161Y-45000D01*
X63161Y-45000D02*
X64161Y-45000D01*
X64161Y-45000D02*
X65161Y-45000D01*
G54D17*
X60566Y-45400D02*
X60566Y-45616D01*
X62137Y-46287D02*
X62500Y-46287D01*
X62000Y-46150D02*
X62137Y-46287D01*
X62000Y-46000D02*
X62000Y-46150D01*
X61900Y-45900D02*
X62000Y-46000D01*
X61300Y-45900D02*
X61900Y-45900D01*
X61150Y-45750D02*
X61300Y-45900D01*
X60700Y-45750D02*
X61150Y-45750D01*
X60566Y-45616D02*
X60700Y-45750D01*
X61566Y-45400D02*
X61566Y-45626D01*
X63087Y-46287D02*
X63500Y-46287D01*
X63000Y-46200D02*
X63087Y-46287D01*
X63000Y-46000D02*
X63000Y-46200D01*
X62900Y-45900D02*
X63000Y-46000D01*
X62350Y-45900D02*
X62900Y-45900D01*
X62200Y-45750D02*
X62350Y-45900D01*
X61690Y-45750D02*
X62200Y-45750D01*
X61566Y-45626D02*
X61690Y-45750D01*
X62566Y-45400D02*
X62566Y-45616D01*
X64137Y-46287D02*
X64500Y-46287D01*
X64050Y-46200D02*
X64137Y-46287D01*
X64050Y-46000D02*
X64050Y-46200D01*
X63950Y-45900D02*
X64050Y-46000D01*
X63300Y-45900D02*
X63950Y-45900D01*
X63150Y-45750D02*
X63300Y-45900D01*
X62700Y-45750D02*
X63150Y-45750D01*
X62566Y-45616D02*
X62700Y-45750D01*
X63566Y-45400D02*
X63566Y-45626D01*
X64200Y-45750D02*
X64350Y-45900D01*
X64350Y-45900D02*
X64950Y-45900D01*
X64950Y-45900D02*
X65000Y-45950D01*
X65000Y-45950D02*
X65000Y-46150D01*
X65000Y-46150D02*
X65137Y-46287D01*
X65137Y-46287D02*
X65500Y-46287D01*
X63690Y-45750D02*
X64200Y-45750D01*
X63566Y-45626D02*
X63690Y-45750D01*
X64566Y-45400D02*
X64566Y-45616D01*
X66087Y-46287D02*
X66500Y-46287D01*
X66000Y-46200D02*
X66087Y-46287D01*
X66000Y-46050D02*
X66000Y-46200D01*
X65850Y-45900D02*
X66000Y-46050D01*
X65400Y-45900D02*
X65850Y-45900D01*
X65250Y-45750D02*
X65400Y-45900D01*
X64700Y-45750D02*
X65250Y-45750D01*
X64566Y-45616D02*
X64700Y-45750D01*
X64566Y-44600D02*
X64566Y-44433D01*
X66137Y-43713D02*
X66500Y-43713D01*
X66000Y-43850D02*
X66137Y-43713D01*
X66000Y-43950D02*
X66000Y-43850D01*
X65850Y-44100D02*
X66000Y-43950D01*
X65500Y-44100D02*
X65850Y-44100D01*
X65350Y-44250D02*
X65500Y-44100D01*
X64750Y-44250D02*
X65350Y-44250D01*
X64566Y-44433D02*
X64750Y-44250D01*
X63566Y-44600D02*
X63566Y-44483D01*
X65087Y-43713D02*
X65500Y-43713D01*
X65000Y-43800D02*
X65087Y-43713D01*
X65000Y-43950D02*
X65000Y-43800D01*
X64850Y-44100D02*
X65000Y-43950D01*
X64500Y-44100D02*
X64850Y-44100D01*
X64350Y-44250D02*
X64500Y-44100D01*
X63800Y-44250D02*
X64350Y-44250D01*
X63566Y-44483D02*
X63800Y-44250D01*
X61566Y-44600D02*
X61566Y-44433D01*
X63087Y-43713D02*
X63500Y-43713D01*
X63000Y-43800D02*
X63087Y-43713D01*
X63000Y-44000D02*
X63000Y-43800D01*
X62900Y-44100D02*
X63000Y-44000D01*
X62300Y-44100D02*
X62900Y-44100D01*
X62150Y-44250D02*
X62300Y-44100D01*
X61750Y-44250D02*
X62150Y-44250D01*
X61566Y-44433D02*
X61750Y-44250D01*
X62566Y-44600D02*
X62566Y-44433D01*
X64137Y-43713D02*
X64500Y-43713D01*
X64000Y-43850D02*
X64137Y-43713D01*
X64000Y-44050D02*
X64000Y-43850D01*
X63950Y-44100D02*
X64000Y-44050D01*
X63400Y-44100D02*
X63950Y-44100D01*
X63250Y-44250D02*
X63400Y-44100D01*
X62750Y-44250D02*
X63250Y-44250D01*
X62566Y-44433D02*
X62750Y-44250D01*
X60566Y-44600D02*
X60566Y-44383D01*
X62137Y-43713D02*
X62500Y-43713D01*
X61950Y-43900D02*
X62137Y-43713D01*
X61950Y-44000D02*
X61950Y-43900D01*
X61850Y-44100D02*
X61950Y-44000D01*
X61500Y-44100D02*
X61850Y-44100D01*
X61350Y-44250D02*
X61500Y-44100D01*
X60700Y-44250D02*
X61350Y-44250D01*
X60566Y-44383D02*
X60700Y-44250D01*
X59566Y-44600D02*
X59566Y-44383D01*
X61137Y-43713D02*
X61500Y-43713D01*
X61050Y-43800D02*
X61137Y-43713D01*
X61050Y-43900D02*
X61050Y-43800D01*
X60850Y-44100D02*
X61050Y-43900D01*
X60450Y-44100D02*
X60850Y-44100D01*
X60300Y-44250D02*
X60450Y-44100D01*
X59700Y-44250D02*
X60300Y-44250D01*
X59566Y-44383D02*
X59700Y-44250D01*
X58566Y-44600D02*
X58566Y-44183D01*
X58566Y-44183D02*
X58650Y-44100D01*
X58650Y-44100D02*
X59900Y-44100D01*
X59900Y-44100D02*
X60000Y-44000D01*
X60000Y-44000D02*
X60000Y-43800D01*
X60000Y-43800D02*
X60087Y-43713D01*
X60087Y-43713D02*
X60500Y-43713D01*
X59566Y-45400D02*
X59566Y-45666D01*
X61087Y-46287D02*
X61500Y-46287D01*
X61050Y-46250D02*
X61087Y-46287D01*
X61050Y-46050D02*
X61050Y-46250D01*
X60900Y-45900D02*
X61050Y-46050D01*
X60400Y-45900D02*
X60900Y-45900D01*
X60250Y-45750D02*
X60400Y-45900D01*
X59650Y-45750D02*
X60250Y-45750D01*
X59566Y-45666D02*
X59650Y-45750D01*
X57566Y-45400D02*
X57566Y-46166D01*
X57566Y-46166D02*
X57687Y-46287D01*
X57687Y-46287D02*
X59500Y-46287D01*
X58566Y-45400D02*
X58566Y-45766D01*
X60087Y-46287D02*
X60500Y-46287D01*
X60000Y-46200D02*
X60087Y-46287D01*
X60000Y-46000D02*
X60000Y-46200D01*
X59900Y-45900D02*
X60000Y-46000D01*
X58700Y-45900D02*
X59900Y-45900D01*
X58566Y-45766D02*
X58700Y-45900D01*
X57566Y-44600D02*
X57566Y-43833D01*
X57566Y-43833D02*
X57687Y-43713D01*
X57687Y-43713D02*
X59500Y-43713D01*
M02*
