G04 (created by PCBNEW (2013-04-01 BZR 4056)-testing) date Tue 02 Apr 2013 12:46:50 AM CEST*
%MOIN*%
G04 Gerber Fmt 3.4, Leading zero omitted, Abs format*
%FSLAX34Y34*%
G01*
G70*
G90*
G04 APERTURE LIST*
%ADD10C,0.006*%
%ADD11R,0.0314961X0.0433071*%
%ADD12R,0.0649606X0.0649606*%
%ADD13C,0.0649606*%
%ADD14R,0.0256X0.063*%
%ADD15R,0.0314X0.0314*%
%ADD16R,0.0472X0.0472*%
%ADD17R,0.063X0.0591*%
%ADD18R,0.059X0.0511*%
%ADD19C,0.025*%
%ADD20C,0.012*%
%ADD21C,0.024*%
%ADD22C,0.016*%
%ADD23C,0.008*%
%ADD24C,0.04*%
%ADD25C,0.02*%
G04 APERTURE END LIST*
G54D10*
G54D11*
X43614Y-54183D03*
X43024Y-54183D03*
G54D12*
X39330Y-56783D03*
G54D13*
X39330Y-57783D03*
G54D12*
X39318Y-53283D03*
G54D13*
X40318Y-53283D03*
X41318Y-53283D03*
X42318Y-53283D03*
X43318Y-53283D03*
X44318Y-53283D03*
X45318Y-53283D03*
X46318Y-53283D03*
X47318Y-53283D03*
X48318Y-53283D03*
X49318Y-53283D03*
X50318Y-53283D03*
G54D12*
X39318Y-61283D03*
G54D13*
X40318Y-61283D03*
X41318Y-61283D03*
X42318Y-61283D03*
X43318Y-61283D03*
X44318Y-61283D03*
X45318Y-61283D03*
X46318Y-61283D03*
X47318Y-61283D03*
X48318Y-61283D03*
X49318Y-61283D03*
X50318Y-61283D03*
G54D14*
X42653Y-58858D03*
X43046Y-58858D03*
X43440Y-58858D03*
X43834Y-58858D03*
X44227Y-58858D03*
X44621Y-58858D03*
X45015Y-58858D03*
X45409Y-58858D03*
X45802Y-58858D03*
X46196Y-58858D03*
X46590Y-58858D03*
X46983Y-58858D03*
X46983Y-55708D03*
X46590Y-55708D03*
X46196Y-55708D03*
X45802Y-55708D03*
X45409Y-55708D03*
X45015Y-55708D03*
X44621Y-55708D03*
X44227Y-55708D03*
X43834Y-55708D03*
X43440Y-55708D03*
X43046Y-55708D03*
X42653Y-55708D03*
G54D15*
X43614Y-54830D03*
X43024Y-54830D03*
X44614Y-54830D03*
X44024Y-54830D03*
X50614Y-54830D03*
X50024Y-54830D03*
X48071Y-57579D03*
X48071Y-56989D03*
X49614Y-54830D03*
X49024Y-54830D03*
X47614Y-54830D03*
X47024Y-54830D03*
X48614Y-54830D03*
X48024Y-54830D03*
X46614Y-54830D03*
X46024Y-54830D03*
X45614Y-54830D03*
X45024Y-54830D03*
X50614Y-59730D03*
X50024Y-59730D03*
X49614Y-59730D03*
X49024Y-59730D03*
X48614Y-59730D03*
X48024Y-59730D03*
X47614Y-59730D03*
X47024Y-59730D03*
X45614Y-59730D03*
X45024Y-59730D03*
X46614Y-59730D03*
X46024Y-59730D03*
X44614Y-59730D03*
X44024Y-59730D03*
X43614Y-59730D03*
X43024Y-59730D03*
G54D16*
X50412Y-56674D03*
X49624Y-56674D03*
G54D17*
X50018Y-57954D03*
G54D18*
X40868Y-56934D03*
X40868Y-57682D03*
X41693Y-56934D03*
X41693Y-57682D03*
G54D11*
X48614Y-60383D03*
X48024Y-60383D03*
X47614Y-60383D03*
X47024Y-60383D03*
X49614Y-60383D03*
X49024Y-60383D03*
X46614Y-60383D03*
X46024Y-60383D03*
X45614Y-60383D03*
X45024Y-60383D03*
X44614Y-60383D03*
X44024Y-60383D03*
X43614Y-60383D03*
X43024Y-60383D03*
X50614Y-60383D03*
X50024Y-60383D03*
X50614Y-54183D03*
X50024Y-54183D03*
X49614Y-54183D03*
X49024Y-54183D03*
X48614Y-54183D03*
X48024Y-54183D03*
X47614Y-54183D03*
X47024Y-54183D03*
X44614Y-54183D03*
X44024Y-54183D03*
X46614Y-54183D03*
X46024Y-54183D03*
X45614Y-54183D03*
X45024Y-54183D03*
X45614Y-44301D03*
X45024Y-44301D03*
X46614Y-44301D03*
X46024Y-44301D03*
X44614Y-44301D03*
X44024Y-44301D03*
X47614Y-44301D03*
X47024Y-44301D03*
X48614Y-44301D03*
X48024Y-44301D03*
X49614Y-44301D03*
X49024Y-44301D03*
X50614Y-44301D03*
X50024Y-44301D03*
X50614Y-50501D03*
X50024Y-50501D03*
X43614Y-50501D03*
X43024Y-50501D03*
X44614Y-50501D03*
X44024Y-50501D03*
X45614Y-50501D03*
X45024Y-50501D03*
X46614Y-50501D03*
X46024Y-50501D03*
X49614Y-50501D03*
X49024Y-50501D03*
X47614Y-50501D03*
X47024Y-50501D03*
X48614Y-50501D03*
X48024Y-50501D03*
G54D18*
X41693Y-47052D03*
X41693Y-47800D03*
X40868Y-47052D03*
X40868Y-47800D03*
G54D16*
X50412Y-46792D03*
X49624Y-46792D03*
G54D17*
X50018Y-48072D03*
G54D15*
X43614Y-49848D03*
X43024Y-49848D03*
X44614Y-49848D03*
X44024Y-49848D03*
X46614Y-49848D03*
X46024Y-49848D03*
X45614Y-49848D03*
X45024Y-49848D03*
X47614Y-49848D03*
X47024Y-49848D03*
X48614Y-49848D03*
X48024Y-49848D03*
X49614Y-49848D03*
X49024Y-49848D03*
X50614Y-49848D03*
X50024Y-49848D03*
X45614Y-44948D03*
X45024Y-44948D03*
X46614Y-44948D03*
X46024Y-44948D03*
X48614Y-44948D03*
X48024Y-44948D03*
X47614Y-44948D03*
X47024Y-44948D03*
X49614Y-44948D03*
X49024Y-44948D03*
X48071Y-47697D03*
X48071Y-47107D03*
X50614Y-44948D03*
X50024Y-44948D03*
X44614Y-44948D03*
X44024Y-44948D03*
X43614Y-44948D03*
X43024Y-44948D03*
G54D14*
X42653Y-48976D03*
X43046Y-48976D03*
X43440Y-48976D03*
X43834Y-48976D03*
X44227Y-48976D03*
X44621Y-48976D03*
X45015Y-48976D03*
X45409Y-48976D03*
X45802Y-48976D03*
X46196Y-48976D03*
X46590Y-48976D03*
X46983Y-48976D03*
X46983Y-45826D03*
X46590Y-45826D03*
X46196Y-45826D03*
X45802Y-45826D03*
X45409Y-45826D03*
X45015Y-45826D03*
X44621Y-45826D03*
X44227Y-45826D03*
X43834Y-45826D03*
X43440Y-45826D03*
X43046Y-45826D03*
X42653Y-45826D03*
G54D12*
X39318Y-51401D03*
G54D13*
X40318Y-51401D03*
X41318Y-51401D03*
X42318Y-51401D03*
X43318Y-51401D03*
X44318Y-51401D03*
X45318Y-51401D03*
X46318Y-51401D03*
X47318Y-51401D03*
X48318Y-51401D03*
X49318Y-51401D03*
X50318Y-51401D03*
G54D12*
X39318Y-43401D03*
G54D13*
X40318Y-43401D03*
X41318Y-43401D03*
X42318Y-43401D03*
X43318Y-43401D03*
X44318Y-43401D03*
X45318Y-43401D03*
X46318Y-43401D03*
X47318Y-43401D03*
X48318Y-43401D03*
X49318Y-43401D03*
X50318Y-43401D03*
G54D12*
X39330Y-46901D03*
G54D13*
X39330Y-47901D03*
G54D11*
X43614Y-44301D03*
X43024Y-44301D03*
X43614Y-24537D03*
X43024Y-24537D03*
G54D12*
X39330Y-27137D03*
G54D13*
X39330Y-28137D03*
G54D12*
X39318Y-23637D03*
G54D13*
X40318Y-23637D03*
X41318Y-23637D03*
X42318Y-23637D03*
X43318Y-23637D03*
X44318Y-23637D03*
X45318Y-23637D03*
X46318Y-23637D03*
X47318Y-23637D03*
X48318Y-23637D03*
X49318Y-23637D03*
X50318Y-23637D03*
G54D12*
X39318Y-31637D03*
G54D13*
X40318Y-31637D03*
X41318Y-31637D03*
X42318Y-31637D03*
X43318Y-31637D03*
X44318Y-31637D03*
X45318Y-31637D03*
X46318Y-31637D03*
X47318Y-31637D03*
X48318Y-31637D03*
X49318Y-31637D03*
X50318Y-31637D03*
G54D14*
X42653Y-29212D03*
X43046Y-29212D03*
X43440Y-29212D03*
X43834Y-29212D03*
X44227Y-29212D03*
X44621Y-29212D03*
X45015Y-29212D03*
X45409Y-29212D03*
X45802Y-29212D03*
X46196Y-29212D03*
X46590Y-29212D03*
X46983Y-29212D03*
X46983Y-26062D03*
X46590Y-26062D03*
X46196Y-26062D03*
X45802Y-26062D03*
X45409Y-26062D03*
X45015Y-26062D03*
X44621Y-26062D03*
X44227Y-26062D03*
X43834Y-26062D03*
X43440Y-26062D03*
X43046Y-26062D03*
X42653Y-26062D03*
G54D15*
X43614Y-25184D03*
X43024Y-25184D03*
X44614Y-25184D03*
X44024Y-25184D03*
X50614Y-25184D03*
X50024Y-25184D03*
X48071Y-27933D03*
X48071Y-27343D03*
X49614Y-25184D03*
X49024Y-25184D03*
X47614Y-25184D03*
X47024Y-25184D03*
X48614Y-25184D03*
X48024Y-25184D03*
X46614Y-25184D03*
X46024Y-25184D03*
X45614Y-25184D03*
X45024Y-25184D03*
X50614Y-30084D03*
X50024Y-30084D03*
X49614Y-30084D03*
X49024Y-30084D03*
X48614Y-30084D03*
X48024Y-30084D03*
X47614Y-30084D03*
X47024Y-30084D03*
X45614Y-30084D03*
X45024Y-30084D03*
X46614Y-30084D03*
X46024Y-30084D03*
X44614Y-30084D03*
X44024Y-30084D03*
X43614Y-30084D03*
X43024Y-30084D03*
G54D16*
X50412Y-27028D03*
X49624Y-27028D03*
G54D17*
X50018Y-28308D03*
G54D18*
X40868Y-27288D03*
X40868Y-28036D03*
X41693Y-27288D03*
X41693Y-28036D03*
G54D11*
X48614Y-30737D03*
X48024Y-30737D03*
X47614Y-30737D03*
X47024Y-30737D03*
X49614Y-30737D03*
X49024Y-30737D03*
X46614Y-30737D03*
X46024Y-30737D03*
X45614Y-30737D03*
X45024Y-30737D03*
X44614Y-30737D03*
X44024Y-30737D03*
X43614Y-30737D03*
X43024Y-30737D03*
X50614Y-30737D03*
X50024Y-30737D03*
X50614Y-24537D03*
X50024Y-24537D03*
X49614Y-24537D03*
X49024Y-24537D03*
X48614Y-24537D03*
X48024Y-24537D03*
X47614Y-24537D03*
X47024Y-24537D03*
X44614Y-24537D03*
X44024Y-24537D03*
X46614Y-24537D03*
X46024Y-24537D03*
X45614Y-24537D03*
X45024Y-24537D03*
X45614Y-34419D03*
X45024Y-34419D03*
X46614Y-34419D03*
X46024Y-34419D03*
X44614Y-34419D03*
X44024Y-34419D03*
X47614Y-34419D03*
X47024Y-34419D03*
X48614Y-34419D03*
X48024Y-34419D03*
X49614Y-34419D03*
X49024Y-34419D03*
X50614Y-34419D03*
X50024Y-34419D03*
X50614Y-40619D03*
X50024Y-40619D03*
X43614Y-40619D03*
X43024Y-40619D03*
X44614Y-40619D03*
X44024Y-40619D03*
X45614Y-40619D03*
X45024Y-40619D03*
X46614Y-40619D03*
X46024Y-40619D03*
X49614Y-40619D03*
X49024Y-40619D03*
X47614Y-40619D03*
X47024Y-40619D03*
X48614Y-40619D03*
X48024Y-40619D03*
G54D18*
X41693Y-37170D03*
X41693Y-37918D03*
X40868Y-37170D03*
X40868Y-37918D03*
G54D16*
X50412Y-36910D03*
X49624Y-36910D03*
G54D17*
X50018Y-38190D03*
G54D15*
X43614Y-39966D03*
X43024Y-39966D03*
X44614Y-39966D03*
X44024Y-39966D03*
X46614Y-39966D03*
X46024Y-39966D03*
X45614Y-39966D03*
X45024Y-39966D03*
X47614Y-39966D03*
X47024Y-39966D03*
X48614Y-39966D03*
X48024Y-39966D03*
X49614Y-39966D03*
X49024Y-39966D03*
X50614Y-39966D03*
X50024Y-39966D03*
X45614Y-35066D03*
X45024Y-35066D03*
X46614Y-35066D03*
X46024Y-35066D03*
X48614Y-35066D03*
X48024Y-35066D03*
X47614Y-35066D03*
X47024Y-35066D03*
X49614Y-35066D03*
X49024Y-35066D03*
X48071Y-37815D03*
X48071Y-37225D03*
X50614Y-35066D03*
X50024Y-35066D03*
X44614Y-35066D03*
X44024Y-35066D03*
X43614Y-35066D03*
X43024Y-35066D03*
G54D14*
X42653Y-39094D03*
X43046Y-39094D03*
X43440Y-39094D03*
X43834Y-39094D03*
X44227Y-39094D03*
X44621Y-39094D03*
X45015Y-39094D03*
X45409Y-39094D03*
X45802Y-39094D03*
X46196Y-39094D03*
X46590Y-39094D03*
X46983Y-39094D03*
X46983Y-35944D03*
X46590Y-35944D03*
X46196Y-35944D03*
X45802Y-35944D03*
X45409Y-35944D03*
X45015Y-35944D03*
X44621Y-35944D03*
X44227Y-35944D03*
X43834Y-35944D03*
X43440Y-35944D03*
X43046Y-35944D03*
X42653Y-35944D03*
G54D12*
X39318Y-41519D03*
G54D13*
X40318Y-41519D03*
X41318Y-41519D03*
X42318Y-41519D03*
X43318Y-41519D03*
X44318Y-41519D03*
X45318Y-41519D03*
X46318Y-41519D03*
X47318Y-41519D03*
X48318Y-41519D03*
X49318Y-41519D03*
X50318Y-41519D03*
G54D12*
X39318Y-33519D03*
G54D13*
X40318Y-33519D03*
X41318Y-33519D03*
X42318Y-33519D03*
X43318Y-33519D03*
X44318Y-33519D03*
X45318Y-33519D03*
X46318Y-33519D03*
X47318Y-33519D03*
X48318Y-33519D03*
X49318Y-33519D03*
X50318Y-33519D03*
G54D12*
X39330Y-37019D03*
G54D13*
X39330Y-38019D03*
G54D11*
X43614Y-34419D03*
X43024Y-34419D03*
X30740Y-34419D03*
X30150Y-34419D03*
G54D12*
X26456Y-37019D03*
G54D13*
X26456Y-38019D03*
G54D12*
X26444Y-33519D03*
G54D13*
X27444Y-33519D03*
X28444Y-33519D03*
X29444Y-33519D03*
X30444Y-33519D03*
X31444Y-33519D03*
X32444Y-33519D03*
X33444Y-33519D03*
X34444Y-33519D03*
X35444Y-33519D03*
X36444Y-33519D03*
X37444Y-33519D03*
G54D12*
X26444Y-41519D03*
G54D13*
X27444Y-41519D03*
X28444Y-41519D03*
X29444Y-41519D03*
X30444Y-41519D03*
X31444Y-41519D03*
X32444Y-41519D03*
X33444Y-41519D03*
X34444Y-41519D03*
X35444Y-41519D03*
X36444Y-41519D03*
X37444Y-41519D03*
G54D14*
X29779Y-39094D03*
X30172Y-39094D03*
X30566Y-39094D03*
X30960Y-39094D03*
X31353Y-39094D03*
X31747Y-39094D03*
X32141Y-39094D03*
X32535Y-39094D03*
X32928Y-39094D03*
X33322Y-39094D03*
X33716Y-39094D03*
X34109Y-39094D03*
X34109Y-35944D03*
X33716Y-35944D03*
X33322Y-35944D03*
X32928Y-35944D03*
X32535Y-35944D03*
X32141Y-35944D03*
X31747Y-35944D03*
X31353Y-35944D03*
X30960Y-35944D03*
X30566Y-35944D03*
X30172Y-35944D03*
X29779Y-35944D03*
G54D15*
X30740Y-35066D03*
X30150Y-35066D03*
X31740Y-35066D03*
X31150Y-35066D03*
X37740Y-35066D03*
X37150Y-35066D03*
X35197Y-37815D03*
X35197Y-37225D03*
X36740Y-35066D03*
X36150Y-35066D03*
X34740Y-35066D03*
X34150Y-35066D03*
X35740Y-35066D03*
X35150Y-35066D03*
X33740Y-35066D03*
X33150Y-35066D03*
X32740Y-35066D03*
X32150Y-35066D03*
X37740Y-39966D03*
X37150Y-39966D03*
X36740Y-39966D03*
X36150Y-39966D03*
X35740Y-39966D03*
X35150Y-39966D03*
X34740Y-39966D03*
X34150Y-39966D03*
X32740Y-39966D03*
X32150Y-39966D03*
X33740Y-39966D03*
X33150Y-39966D03*
X31740Y-39966D03*
X31150Y-39966D03*
X30740Y-39966D03*
X30150Y-39966D03*
G54D16*
X37538Y-36910D03*
X36750Y-36910D03*
G54D17*
X37144Y-38190D03*
G54D18*
X27994Y-37170D03*
X27994Y-37918D03*
X28819Y-37170D03*
X28819Y-37918D03*
G54D11*
X35740Y-40619D03*
X35150Y-40619D03*
X34740Y-40619D03*
X34150Y-40619D03*
X36740Y-40619D03*
X36150Y-40619D03*
X33740Y-40619D03*
X33150Y-40619D03*
X32740Y-40619D03*
X32150Y-40619D03*
X31740Y-40619D03*
X31150Y-40619D03*
X30740Y-40619D03*
X30150Y-40619D03*
X37740Y-40619D03*
X37150Y-40619D03*
X37740Y-34419D03*
X37150Y-34419D03*
X36740Y-34419D03*
X36150Y-34419D03*
X35740Y-34419D03*
X35150Y-34419D03*
X34740Y-34419D03*
X34150Y-34419D03*
X31740Y-34419D03*
X31150Y-34419D03*
X33740Y-34419D03*
X33150Y-34419D03*
X32740Y-34419D03*
X32150Y-34419D03*
X32740Y-24537D03*
X32150Y-24537D03*
X33740Y-24537D03*
X33150Y-24537D03*
X31740Y-24537D03*
X31150Y-24537D03*
X34740Y-24537D03*
X34150Y-24537D03*
X35740Y-24537D03*
X35150Y-24537D03*
X36740Y-24537D03*
X36150Y-24537D03*
X37740Y-24537D03*
X37150Y-24537D03*
X37740Y-30737D03*
X37150Y-30737D03*
X30740Y-30737D03*
X30150Y-30737D03*
X31740Y-30737D03*
X31150Y-30737D03*
X32740Y-30737D03*
X32150Y-30737D03*
X33740Y-30737D03*
X33150Y-30737D03*
X36740Y-30737D03*
X36150Y-30737D03*
X34740Y-30737D03*
X34150Y-30737D03*
X35740Y-30737D03*
X35150Y-30737D03*
G54D18*
X28819Y-27288D03*
X28819Y-28036D03*
X27994Y-27288D03*
X27994Y-28036D03*
G54D16*
X37538Y-27028D03*
X36750Y-27028D03*
G54D17*
X37144Y-28308D03*
G54D15*
X30740Y-30084D03*
X30150Y-30084D03*
X31740Y-30084D03*
X31150Y-30084D03*
X33740Y-30084D03*
X33150Y-30084D03*
X32740Y-30084D03*
X32150Y-30084D03*
X34740Y-30084D03*
X34150Y-30084D03*
X35740Y-30084D03*
X35150Y-30084D03*
X36740Y-30084D03*
X36150Y-30084D03*
X37740Y-30084D03*
X37150Y-30084D03*
X32740Y-25184D03*
X32150Y-25184D03*
X33740Y-25184D03*
X33150Y-25184D03*
X35740Y-25184D03*
X35150Y-25184D03*
X34740Y-25184D03*
X34150Y-25184D03*
X36740Y-25184D03*
X36150Y-25184D03*
X35197Y-27933D03*
X35197Y-27343D03*
X37740Y-25184D03*
X37150Y-25184D03*
X31740Y-25184D03*
X31150Y-25184D03*
X30740Y-25184D03*
X30150Y-25184D03*
G54D14*
X29779Y-29212D03*
X30172Y-29212D03*
X30566Y-29212D03*
X30960Y-29212D03*
X31353Y-29212D03*
X31747Y-29212D03*
X32141Y-29212D03*
X32535Y-29212D03*
X32928Y-29212D03*
X33322Y-29212D03*
X33716Y-29212D03*
X34109Y-29212D03*
X34109Y-26062D03*
X33716Y-26062D03*
X33322Y-26062D03*
X32928Y-26062D03*
X32535Y-26062D03*
X32141Y-26062D03*
X31747Y-26062D03*
X31353Y-26062D03*
X30960Y-26062D03*
X30566Y-26062D03*
X30172Y-26062D03*
X29779Y-26062D03*
G54D12*
X26444Y-31637D03*
G54D13*
X27444Y-31637D03*
X28444Y-31637D03*
X29444Y-31637D03*
X30444Y-31637D03*
X31444Y-31637D03*
X32444Y-31637D03*
X33444Y-31637D03*
X34444Y-31637D03*
X35444Y-31637D03*
X36444Y-31637D03*
X37444Y-31637D03*
G54D12*
X26444Y-23637D03*
G54D13*
X27444Y-23637D03*
X28444Y-23637D03*
X29444Y-23637D03*
X30444Y-23637D03*
X31444Y-23637D03*
X32444Y-23637D03*
X33444Y-23637D03*
X34444Y-23637D03*
X35444Y-23637D03*
X36444Y-23637D03*
X37444Y-23637D03*
G54D12*
X26456Y-27137D03*
G54D13*
X26456Y-28137D03*
G54D11*
X30740Y-24537D03*
X30150Y-24537D03*
X30740Y-44301D03*
X30150Y-44301D03*
G54D12*
X26456Y-46901D03*
G54D13*
X26456Y-47901D03*
G54D12*
X26444Y-43401D03*
G54D13*
X27444Y-43401D03*
X28444Y-43401D03*
X29444Y-43401D03*
X30444Y-43401D03*
X31444Y-43401D03*
X32444Y-43401D03*
X33444Y-43401D03*
X34444Y-43401D03*
X35444Y-43401D03*
X36444Y-43401D03*
X37444Y-43401D03*
G54D12*
X26444Y-51401D03*
G54D13*
X27444Y-51401D03*
X28444Y-51401D03*
X29444Y-51401D03*
X30444Y-51401D03*
X31444Y-51401D03*
X32444Y-51401D03*
X33444Y-51401D03*
X34444Y-51401D03*
X35444Y-51401D03*
X36444Y-51401D03*
X37444Y-51401D03*
G54D14*
X29779Y-48976D03*
X30172Y-48976D03*
X30566Y-48976D03*
X30960Y-48976D03*
X31353Y-48976D03*
X31747Y-48976D03*
X32141Y-48976D03*
X32535Y-48976D03*
X32928Y-48976D03*
X33322Y-48976D03*
X33716Y-48976D03*
X34109Y-48976D03*
X34109Y-45826D03*
X33716Y-45826D03*
X33322Y-45826D03*
X32928Y-45826D03*
X32535Y-45826D03*
X32141Y-45826D03*
X31747Y-45826D03*
X31353Y-45826D03*
X30960Y-45826D03*
X30566Y-45826D03*
X30172Y-45826D03*
X29779Y-45826D03*
G54D15*
X30740Y-44948D03*
X30150Y-44948D03*
X31740Y-44948D03*
X31150Y-44948D03*
X37740Y-44948D03*
X37150Y-44948D03*
X35197Y-47697D03*
X35197Y-47107D03*
X36740Y-44948D03*
X36150Y-44948D03*
X34740Y-44948D03*
X34150Y-44948D03*
X35740Y-44948D03*
X35150Y-44948D03*
X33740Y-44948D03*
X33150Y-44948D03*
X32740Y-44948D03*
X32150Y-44948D03*
X37740Y-49848D03*
X37150Y-49848D03*
X36740Y-49848D03*
X36150Y-49848D03*
X35740Y-49848D03*
X35150Y-49848D03*
X34740Y-49848D03*
X34150Y-49848D03*
X32740Y-49848D03*
X32150Y-49848D03*
X33740Y-49848D03*
X33150Y-49848D03*
X31740Y-49848D03*
X31150Y-49848D03*
X30740Y-49848D03*
X30150Y-49848D03*
G54D16*
X37538Y-46792D03*
X36750Y-46792D03*
G54D17*
X37144Y-48072D03*
G54D18*
X27994Y-47052D03*
X27994Y-47800D03*
X28819Y-47052D03*
X28819Y-47800D03*
G54D11*
X35740Y-50501D03*
X35150Y-50501D03*
X34740Y-50501D03*
X34150Y-50501D03*
X36740Y-50501D03*
X36150Y-50501D03*
X33740Y-50501D03*
X33150Y-50501D03*
X32740Y-50501D03*
X32150Y-50501D03*
X31740Y-50501D03*
X31150Y-50501D03*
X30740Y-50501D03*
X30150Y-50501D03*
X37740Y-50501D03*
X37150Y-50501D03*
X37740Y-44301D03*
X37150Y-44301D03*
X36740Y-44301D03*
X36150Y-44301D03*
X35740Y-44301D03*
X35150Y-44301D03*
X34740Y-44301D03*
X34150Y-44301D03*
X31740Y-44301D03*
X31150Y-44301D03*
X33740Y-44301D03*
X33150Y-44301D03*
X32740Y-44301D03*
X32150Y-44301D03*
X32740Y-54183D03*
X32150Y-54183D03*
X33740Y-54183D03*
X33150Y-54183D03*
X31740Y-54183D03*
X31150Y-54183D03*
X34740Y-54183D03*
X34150Y-54183D03*
X35740Y-54183D03*
X35150Y-54183D03*
X36740Y-54183D03*
X36150Y-54183D03*
X37740Y-54183D03*
X37150Y-54183D03*
X37740Y-60383D03*
X37150Y-60383D03*
X30740Y-60383D03*
X30150Y-60383D03*
X31740Y-60383D03*
X31150Y-60383D03*
X32740Y-60383D03*
X32150Y-60383D03*
X33740Y-60383D03*
X33150Y-60383D03*
X36740Y-60383D03*
X36150Y-60383D03*
X34740Y-60383D03*
X34150Y-60383D03*
X35740Y-60383D03*
X35150Y-60383D03*
G54D18*
X28819Y-56934D03*
X28819Y-57682D03*
X27994Y-56934D03*
X27994Y-57682D03*
G54D16*
X37538Y-56674D03*
X36750Y-56674D03*
G54D17*
X37144Y-57954D03*
G54D15*
X30740Y-59730D03*
X30150Y-59730D03*
X31740Y-59730D03*
X31150Y-59730D03*
X33740Y-59730D03*
X33150Y-59730D03*
X32740Y-59730D03*
X32150Y-59730D03*
X34740Y-59730D03*
X34150Y-59730D03*
X35740Y-59730D03*
X35150Y-59730D03*
X36740Y-59730D03*
X36150Y-59730D03*
X37740Y-59730D03*
X37150Y-59730D03*
X32740Y-54830D03*
X32150Y-54830D03*
X33740Y-54830D03*
X33150Y-54830D03*
X35740Y-54830D03*
X35150Y-54830D03*
X34740Y-54830D03*
X34150Y-54830D03*
X36740Y-54830D03*
X36150Y-54830D03*
X35197Y-57579D03*
X35197Y-56989D03*
X37740Y-54830D03*
X37150Y-54830D03*
X31740Y-54830D03*
X31150Y-54830D03*
X30740Y-54830D03*
X30150Y-54830D03*
G54D14*
X29779Y-58858D03*
X30172Y-58858D03*
X30566Y-58858D03*
X30960Y-58858D03*
X31353Y-58858D03*
X31747Y-58858D03*
X32141Y-58858D03*
X32535Y-58858D03*
X32928Y-58858D03*
X33322Y-58858D03*
X33716Y-58858D03*
X34109Y-58858D03*
X34109Y-55708D03*
X33716Y-55708D03*
X33322Y-55708D03*
X32928Y-55708D03*
X32535Y-55708D03*
X32141Y-55708D03*
X31747Y-55708D03*
X31353Y-55708D03*
X30960Y-55708D03*
X30566Y-55708D03*
X30172Y-55708D03*
X29779Y-55708D03*
G54D12*
X26444Y-61283D03*
G54D13*
X27444Y-61283D03*
X28444Y-61283D03*
X29444Y-61283D03*
X30444Y-61283D03*
X31444Y-61283D03*
X32444Y-61283D03*
X33444Y-61283D03*
X34444Y-61283D03*
X35444Y-61283D03*
X36444Y-61283D03*
X37444Y-61283D03*
G54D12*
X26444Y-53283D03*
G54D13*
X27444Y-53283D03*
X28444Y-53283D03*
X29444Y-53283D03*
X30444Y-53283D03*
X31444Y-53283D03*
X32444Y-53283D03*
X33444Y-53283D03*
X34444Y-53283D03*
X35444Y-53283D03*
X36444Y-53283D03*
X37444Y-53283D03*
G54D12*
X26456Y-56783D03*
G54D13*
X26456Y-57783D03*
G54D11*
X30740Y-54183D03*
X30150Y-54183D03*
X56488Y-34419D03*
X55898Y-34419D03*
G54D12*
X52204Y-37019D03*
G54D13*
X52204Y-38019D03*
G54D12*
X52192Y-33519D03*
G54D13*
X53192Y-33519D03*
X54192Y-33519D03*
X55192Y-33519D03*
X56192Y-33519D03*
X57192Y-33519D03*
X58192Y-33519D03*
X59192Y-33519D03*
X60192Y-33519D03*
X61192Y-33519D03*
X62192Y-33519D03*
X63192Y-33519D03*
G54D12*
X52192Y-41519D03*
G54D13*
X53192Y-41519D03*
X54192Y-41519D03*
X55192Y-41519D03*
X56192Y-41519D03*
X57192Y-41519D03*
X58192Y-41519D03*
X59192Y-41519D03*
X60192Y-41519D03*
X61192Y-41519D03*
X62192Y-41519D03*
X63192Y-41519D03*
G54D14*
X55527Y-39094D03*
X55920Y-39094D03*
X56314Y-39094D03*
X56708Y-39094D03*
X57101Y-39094D03*
X57495Y-39094D03*
X57889Y-39094D03*
X58283Y-39094D03*
X58676Y-39094D03*
X59070Y-39094D03*
X59464Y-39094D03*
X59857Y-39094D03*
X59857Y-35944D03*
X59464Y-35944D03*
X59070Y-35944D03*
X58676Y-35944D03*
X58283Y-35944D03*
X57889Y-35944D03*
X57495Y-35944D03*
X57101Y-35944D03*
X56708Y-35944D03*
X56314Y-35944D03*
X55920Y-35944D03*
X55527Y-35944D03*
G54D15*
X56488Y-35066D03*
X55898Y-35066D03*
X57488Y-35066D03*
X56898Y-35066D03*
X63488Y-35066D03*
X62898Y-35066D03*
X60945Y-37815D03*
X60945Y-37225D03*
X62488Y-35066D03*
X61898Y-35066D03*
X60488Y-35066D03*
X59898Y-35066D03*
X61488Y-35066D03*
X60898Y-35066D03*
X59488Y-35066D03*
X58898Y-35066D03*
X58488Y-35066D03*
X57898Y-35066D03*
X63488Y-39966D03*
X62898Y-39966D03*
X62488Y-39966D03*
X61898Y-39966D03*
X61488Y-39966D03*
X60898Y-39966D03*
X60488Y-39966D03*
X59898Y-39966D03*
X58488Y-39966D03*
X57898Y-39966D03*
X59488Y-39966D03*
X58898Y-39966D03*
X57488Y-39966D03*
X56898Y-39966D03*
X56488Y-39966D03*
X55898Y-39966D03*
G54D16*
X63286Y-36910D03*
X62498Y-36910D03*
G54D17*
X62892Y-38190D03*
G54D18*
X53742Y-37170D03*
X53742Y-37918D03*
X54567Y-37170D03*
X54567Y-37918D03*
G54D11*
X61488Y-40619D03*
X60898Y-40619D03*
X60488Y-40619D03*
X59898Y-40619D03*
X62488Y-40619D03*
X61898Y-40619D03*
X59488Y-40619D03*
X58898Y-40619D03*
X58488Y-40619D03*
X57898Y-40619D03*
X57488Y-40619D03*
X56898Y-40619D03*
X56488Y-40619D03*
X55898Y-40619D03*
X63488Y-40619D03*
X62898Y-40619D03*
X63488Y-34419D03*
X62898Y-34419D03*
X62488Y-34419D03*
X61898Y-34419D03*
X61488Y-34419D03*
X60898Y-34419D03*
X60488Y-34419D03*
X59898Y-34419D03*
X57488Y-34419D03*
X56898Y-34419D03*
X59488Y-34419D03*
X58898Y-34419D03*
X58488Y-34419D03*
X57898Y-34419D03*
X58488Y-24537D03*
X57898Y-24537D03*
X59488Y-24537D03*
X58898Y-24537D03*
X57488Y-24537D03*
X56898Y-24537D03*
X60488Y-24537D03*
X59898Y-24537D03*
X61488Y-24537D03*
X60898Y-24537D03*
X62488Y-24537D03*
X61898Y-24537D03*
X63488Y-24537D03*
X62898Y-24537D03*
X63488Y-30737D03*
X62898Y-30737D03*
X56488Y-30737D03*
X55898Y-30737D03*
X57488Y-30737D03*
X56898Y-30737D03*
X58488Y-30737D03*
X57898Y-30737D03*
X59488Y-30737D03*
X58898Y-30737D03*
X62488Y-30737D03*
X61898Y-30737D03*
X60488Y-30737D03*
X59898Y-30737D03*
X61488Y-30737D03*
X60898Y-30737D03*
G54D18*
X54567Y-27288D03*
X54567Y-28036D03*
X53742Y-27288D03*
X53742Y-28036D03*
G54D16*
X63286Y-27028D03*
X62498Y-27028D03*
G54D17*
X62892Y-28308D03*
G54D15*
X56488Y-30084D03*
X55898Y-30084D03*
X57488Y-30084D03*
X56898Y-30084D03*
X59488Y-30084D03*
X58898Y-30084D03*
X58488Y-30084D03*
X57898Y-30084D03*
X60488Y-30084D03*
X59898Y-30084D03*
X61488Y-30084D03*
X60898Y-30084D03*
X62488Y-30084D03*
X61898Y-30084D03*
X63488Y-30084D03*
X62898Y-30084D03*
X58488Y-25184D03*
X57898Y-25184D03*
X59488Y-25184D03*
X58898Y-25184D03*
X61488Y-25184D03*
X60898Y-25184D03*
X60488Y-25184D03*
X59898Y-25184D03*
X62488Y-25184D03*
X61898Y-25184D03*
X60945Y-27933D03*
X60945Y-27343D03*
X63488Y-25184D03*
X62898Y-25184D03*
X57488Y-25184D03*
X56898Y-25184D03*
X56488Y-25184D03*
X55898Y-25184D03*
G54D14*
X55527Y-29212D03*
X55920Y-29212D03*
X56314Y-29212D03*
X56708Y-29212D03*
X57101Y-29212D03*
X57495Y-29212D03*
X57889Y-29212D03*
X58283Y-29212D03*
X58676Y-29212D03*
X59070Y-29212D03*
X59464Y-29212D03*
X59857Y-29212D03*
X59857Y-26062D03*
X59464Y-26062D03*
X59070Y-26062D03*
X58676Y-26062D03*
X58283Y-26062D03*
X57889Y-26062D03*
X57495Y-26062D03*
X57101Y-26062D03*
X56708Y-26062D03*
X56314Y-26062D03*
X55920Y-26062D03*
X55527Y-26062D03*
G54D12*
X52192Y-31637D03*
G54D13*
X53192Y-31637D03*
X54192Y-31637D03*
X55192Y-31637D03*
X56192Y-31637D03*
X57192Y-31637D03*
X58192Y-31637D03*
X59192Y-31637D03*
X60192Y-31637D03*
X61192Y-31637D03*
X62192Y-31637D03*
X63192Y-31637D03*
G54D12*
X52192Y-23637D03*
G54D13*
X53192Y-23637D03*
X54192Y-23637D03*
X55192Y-23637D03*
X56192Y-23637D03*
X57192Y-23637D03*
X58192Y-23637D03*
X59192Y-23637D03*
X60192Y-23637D03*
X61192Y-23637D03*
X62192Y-23637D03*
X63192Y-23637D03*
G54D12*
X52204Y-27137D03*
G54D13*
X52204Y-28137D03*
G54D11*
X56488Y-24537D03*
X55898Y-24537D03*
X56488Y-44301D03*
X55898Y-44301D03*
G54D12*
X52204Y-46901D03*
G54D13*
X52204Y-47901D03*
G54D12*
X52192Y-43401D03*
G54D13*
X53192Y-43401D03*
X54192Y-43401D03*
X55192Y-43401D03*
X56192Y-43401D03*
X57192Y-43401D03*
X58192Y-43401D03*
X59192Y-43401D03*
X60192Y-43401D03*
X61192Y-43401D03*
X62192Y-43401D03*
X63192Y-43401D03*
G54D12*
X52192Y-51401D03*
G54D13*
X53192Y-51401D03*
X54192Y-51401D03*
X55192Y-51401D03*
X56192Y-51401D03*
X57192Y-51401D03*
X58192Y-51401D03*
X59192Y-51401D03*
X60192Y-51401D03*
X61192Y-51401D03*
X62192Y-51401D03*
X63192Y-51401D03*
G54D14*
X55527Y-48976D03*
X55920Y-48976D03*
X56314Y-48976D03*
X56708Y-48976D03*
X57101Y-48976D03*
X57495Y-48976D03*
X57889Y-48976D03*
X58283Y-48976D03*
X58676Y-48976D03*
X59070Y-48976D03*
X59464Y-48976D03*
X59857Y-48976D03*
X59857Y-45826D03*
X59464Y-45826D03*
X59070Y-45826D03*
X58676Y-45826D03*
X58283Y-45826D03*
X57889Y-45826D03*
X57495Y-45826D03*
X57101Y-45826D03*
X56708Y-45826D03*
X56314Y-45826D03*
X55920Y-45826D03*
X55527Y-45826D03*
G54D15*
X56488Y-44948D03*
X55898Y-44948D03*
X57488Y-44948D03*
X56898Y-44948D03*
X63488Y-44948D03*
X62898Y-44948D03*
X60945Y-47697D03*
X60945Y-47107D03*
X62488Y-44948D03*
X61898Y-44948D03*
X60488Y-44948D03*
X59898Y-44948D03*
X61488Y-44948D03*
X60898Y-44948D03*
X59488Y-44948D03*
X58898Y-44948D03*
X58488Y-44948D03*
X57898Y-44948D03*
X63488Y-49848D03*
X62898Y-49848D03*
X62488Y-49848D03*
X61898Y-49848D03*
X61488Y-49848D03*
X60898Y-49848D03*
X60488Y-49848D03*
X59898Y-49848D03*
X58488Y-49848D03*
X57898Y-49848D03*
X59488Y-49848D03*
X58898Y-49848D03*
X57488Y-49848D03*
X56898Y-49848D03*
X56488Y-49848D03*
X55898Y-49848D03*
G54D16*
X63286Y-46792D03*
X62498Y-46792D03*
G54D17*
X62892Y-48072D03*
G54D18*
X53742Y-47052D03*
X53742Y-47800D03*
X54567Y-47052D03*
X54567Y-47800D03*
G54D11*
X61488Y-50501D03*
X60898Y-50501D03*
X60488Y-50501D03*
X59898Y-50501D03*
X62488Y-50501D03*
X61898Y-50501D03*
X59488Y-50501D03*
X58898Y-50501D03*
X58488Y-50501D03*
X57898Y-50501D03*
X57488Y-50501D03*
X56898Y-50501D03*
X56488Y-50501D03*
X55898Y-50501D03*
X63488Y-50501D03*
X62898Y-50501D03*
X63488Y-44301D03*
X62898Y-44301D03*
X62488Y-44301D03*
X61898Y-44301D03*
X61488Y-44301D03*
X60898Y-44301D03*
X60488Y-44301D03*
X59898Y-44301D03*
X57488Y-44301D03*
X56898Y-44301D03*
X59488Y-44301D03*
X58898Y-44301D03*
X58488Y-44301D03*
X57898Y-44301D03*
X58488Y-54183D03*
X57898Y-54183D03*
X59488Y-54183D03*
X58898Y-54183D03*
X57488Y-54183D03*
X56898Y-54183D03*
X60488Y-54183D03*
X59898Y-54183D03*
X61488Y-54183D03*
X60898Y-54183D03*
X62488Y-54183D03*
X61898Y-54183D03*
X63488Y-54183D03*
X62898Y-54183D03*
X63488Y-60383D03*
X62898Y-60383D03*
X56488Y-60383D03*
X55898Y-60383D03*
X57488Y-60383D03*
X56898Y-60383D03*
X58488Y-60383D03*
X57898Y-60383D03*
X59488Y-60383D03*
X58898Y-60383D03*
X62488Y-60383D03*
X61898Y-60383D03*
X60488Y-60383D03*
X59898Y-60383D03*
X61488Y-60383D03*
X60898Y-60383D03*
G54D18*
X54567Y-56934D03*
X54567Y-57682D03*
X53742Y-56934D03*
X53742Y-57682D03*
G54D16*
X63286Y-56674D03*
X62498Y-56674D03*
G54D17*
X62892Y-57954D03*
G54D15*
X56488Y-59730D03*
X55898Y-59730D03*
X57488Y-59730D03*
X56898Y-59730D03*
X59488Y-59730D03*
X58898Y-59730D03*
X58488Y-59730D03*
X57898Y-59730D03*
X60488Y-59730D03*
X59898Y-59730D03*
X61488Y-59730D03*
X60898Y-59730D03*
X62488Y-59730D03*
X61898Y-59730D03*
X63488Y-59730D03*
X62898Y-59730D03*
X58488Y-54830D03*
X57898Y-54830D03*
X59488Y-54830D03*
X58898Y-54830D03*
X61488Y-54830D03*
X60898Y-54830D03*
X60488Y-54830D03*
X59898Y-54830D03*
X62488Y-54830D03*
X61898Y-54830D03*
X60945Y-57579D03*
X60945Y-56989D03*
X63488Y-54830D03*
X62898Y-54830D03*
X57488Y-54830D03*
X56898Y-54830D03*
X56488Y-54830D03*
X55898Y-54830D03*
G54D14*
X55527Y-58858D03*
X55920Y-58858D03*
X56314Y-58858D03*
X56708Y-58858D03*
X57101Y-58858D03*
X57495Y-58858D03*
X57889Y-58858D03*
X58283Y-58858D03*
X58676Y-58858D03*
X59070Y-58858D03*
X59464Y-58858D03*
X59857Y-58858D03*
X59857Y-55708D03*
X59464Y-55708D03*
X59070Y-55708D03*
X58676Y-55708D03*
X58283Y-55708D03*
X57889Y-55708D03*
X57495Y-55708D03*
X57101Y-55708D03*
X56708Y-55708D03*
X56314Y-55708D03*
X55920Y-55708D03*
X55527Y-55708D03*
G54D12*
X52192Y-61283D03*
G54D13*
X53192Y-61283D03*
X54192Y-61283D03*
X55192Y-61283D03*
X56192Y-61283D03*
X57192Y-61283D03*
X58192Y-61283D03*
X59192Y-61283D03*
X60192Y-61283D03*
X61192Y-61283D03*
X62192Y-61283D03*
X63192Y-61283D03*
G54D12*
X52192Y-53283D03*
G54D13*
X53192Y-53283D03*
X54192Y-53283D03*
X55192Y-53283D03*
X56192Y-53283D03*
X57192Y-53283D03*
X58192Y-53283D03*
X59192Y-53283D03*
X60192Y-53283D03*
X61192Y-53283D03*
X62192Y-53283D03*
X63192Y-53283D03*
G54D12*
X52204Y-56783D03*
G54D13*
X52204Y-57783D03*
G54D11*
X56488Y-54183D03*
X55898Y-54183D03*
G54D19*
X43464Y-58149D03*
X43464Y-48267D03*
X43464Y-28503D03*
X43464Y-38385D03*
X30590Y-38385D03*
X30590Y-28503D03*
X30590Y-48267D03*
X30590Y-58149D03*
X56338Y-38385D03*
X56338Y-28503D03*
X56338Y-48267D03*
X56338Y-58149D03*
X43858Y-56377D03*
X43858Y-46496D03*
X43858Y-26732D03*
X43858Y-36614D03*
X30984Y-36614D03*
X30984Y-26732D03*
X30984Y-46496D03*
X30984Y-56377D03*
X56732Y-36614D03*
X56732Y-26732D03*
X56732Y-46496D03*
X56732Y-56377D03*
X43858Y-58149D03*
X43858Y-48267D03*
X43858Y-28503D03*
X43858Y-38385D03*
X30984Y-38385D03*
X30984Y-28503D03*
X30984Y-48267D03*
X30984Y-58149D03*
X56732Y-38385D03*
X56732Y-28503D03*
X56732Y-48267D03*
X56732Y-58149D03*
X44251Y-58149D03*
X44251Y-48267D03*
X44251Y-28503D03*
X44251Y-38385D03*
X31377Y-38385D03*
X31377Y-28503D03*
X31377Y-48267D03*
X31377Y-58149D03*
X57125Y-38385D03*
X57125Y-28503D03*
X57125Y-48267D03*
X57125Y-58149D03*
X44645Y-58149D03*
X44645Y-48267D03*
X44645Y-28503D03*
X44645Y-38385D03*
X31771Y-38385D03*
X31771Y-28503D03*
X31771Y-48267D03*
X31771Y-58149D03*
X57519Y-38385D03*
X57519Y-28503D03*
X57519Y-48267D03*
X57519Y-58149D03*
X46220Y-56377D03*
X46220Y-46496D03*
X46220Y-26732D03*
X46220Y-36614D03*
X33346Y-36614D03*
X33346Y-26732D03*
X33346Y-46496D03*
X33346Y-56377D03*
X59094Y-36614D03*
X59094Y-26732D03*
X59094Y-46496D03*
X59094Y-56377D03*
X45826Y-56377D03*
X45826Y-46496D03*
X45826Y-26732D03*
X45826Y-36614D03*
X32952Y-36614D03*
X32952Y-26732D03*
X32952Y-46496D03*
X32952Y-56377D03*
X58700Y-36614D03*
X58700Y-26732D03*
X58700Y-46496D03*
X58700Y-56377D03*
X45433Y-56377D03*
X45433Y-46496D03*
X45433Y-26732D03*
X45433Y-36614D03*
X32559Y-36614D03*
X32559Y-26732D03*
X32559Y-46496D03*
X32559Y-56377D03*
X58307Y-36614D03*
X58307Y-26732D03*
X58307Y-46496D03*
X58307Y-56377D03*
X45039Y-56377D03*
X45039Y-46496D03*
X45039Y-26732D03*
X45039Y-36614D03*
X32165Y-36614D03*
X32165Y-26732D03*
X32165Y-46496D03*
X32165Y-56377D03*
X57913Y-36614D03*
X57913Y-26732D03*
X57913Y-46496D03*
X57913Y-56377D03*
X44645Y-56377D03*
X44645Y-46496D03*
X44645Y-26732D03*
X44645Y-36614D03*
X31771Y-36614D03*
X31771Y-26732D03*
X31771Y-46496D03*
X31771Y-56377D03*
X57519Y-36614D03*
X57519Y-26732D03*
X57519Y-46496D03*
X57519Y-56377D03*
X44251Y-56377D03*
X44251Y-46496D03*
X44251Y-26732D03*
X44251Y-36614D03*
X31377Y-36614D03*
X31377Y-26732D03*
X31377Y-46496D03*
X31377Y-56377D03*
X57125Y-36614D03*
X57125Y-26732D03*
X57125Y-46496D03*
X57125Y-56377D03*
X45039Y-58149D03*
X45039Y-48267D03*
X45039Y-28503D03*
X45039Y-38385D03*
X32165Y-38385D03*
X32165Y-28503D03*
X32165Y-48267D03*
X32165Y-58149D03*
X57913Y-38385D03*
X57913Y-28503D03*
X57913Y-48267D03*
X57913Y-58149D03*
X45433Y-58149D03*
X45433Y-48267D03*
X45433Y-28503D03*
X45433Y-38385D03*
X32559Y-38385D03*
X32559Y-28503D03*
X32559Y-48267D03*
X32559Y-58149D03*
X58307Y-38385D03*
X58307Y-28503D03*
X58307Y-48267D03*
X58307Y-58149D03*
X45826Y-58149D03*
X45826Y-48267D03*
X45826Y-28503D03*
X45826Y-38385D03*
X32952Y-38385D03*
X32952Y-28503D03*
X32952Y-48267D03*
X32952Y-58149D03*
X58700Y-38385D03*
X58700Y-28503D03*
X58700Y-48267D03*
X58700Y-58149D03*
X46220Y-58149D03*
X46220Y-48267D03*
X46220Y-28503D03*
X46220Y-38385D03*
X33346Y-38385D03*
X33346Y-28503D03*
X33346Y-48267D03*
X33346Y-58149D03*
X59094Y-38385D03*
X59094Y-28503D03*
X59094Y-48267D03*
X59094Y-58149D03*
X46614Y-58149D03*
X46614Y-48267D03*
X46614Y-28503D03*
X46614Y-38385D03*
X33740Y-38385D03*
X33740Y-28503D03*
X33740Y-48267D03*
X33740Y-58149D03*
X59488Y-38385D03*
X59488Y-28503D03*
X59488Y-48267D03*
X59488Y-58149D03*
X47440Y-58897D03*
X47440Y-49015D03*
X47440Y-29251D03*
X47440Y-39133D03*
X34566Y-39133D03*
X34566Y-29251D03*
X34566Y-49015D03*
X34566Y-58897D03*
X60314Y-39133D03*
X60314Y-29251D03*
X60314Y-49015D03*
X60314Y-58897D03*
X47418Y-55733D03*
X47418Y-45851D03*
X47418Y-26087D03*
X47418Y-35969D03*
X34544Y-35969D03*
X34544Y-26087D03*
X34544Y-45851D03*
X34544Y-55733D03*
X60292Y-35969D03*
X60292Y-26087D03*
X60292Y-45851D03*
X60292Y-55733D03*
X46614Y-56377D03*
X46614Y-46496D03*
X46614Y-26732D03*
X46614Y-36614D03*
X33740Y-36614D03*
X33740Y-26732D03*
X33740Y-46496D03*
X33740Y-56377D03*
X59488Y-36614D03*
X59488Y-26732D03*
X59488Y-46496D03*
X59488Y-56377D03*
X43070Y-56377D03*
X43070Y-46496D03*
X43070Y-26732D03*
X43070Y-36614D03*
X30196Y-36614D03*
X30196Y-26732D03*
X30196Y-46496D03*
X30196Y-56377D03*
X55944Y-36614D03*
X55944Y-26732D03*
X55944Y-46496D03*
X55944Y-56377D03*
X43070Y-58149D03*
X43070Y-48267D03*
X43070Y-28503D03*
X43070Y-38385D03*
X30196Y-38385D03*
X30196Y-28503D03*
X30196Y-48267D03*
X30196Y-58149D03*
X55944Y-38385D03*
X55944Y-28503D03*
X55944Y-48267D03*
X55944Y-58149D03*
X43464Y-56377D03*
X43464Y-46496D03*
X43464Y-26732D03*
X43464Y-36614D03*
X30590Y-36614D03*
X30590Y-26732D03*
X30590Y-46496D03*
X30590Y-56377D03*
X56338Y-36614D03*
X56338Y-26732D03*
X56338Y-46496D03*
X56338Y-56377D03*
X41718Y-59383D03*
X40708Y-55196D03*
X40708Y-45314D03*
X41718Y-49501D03*
X41718Y-29737D03*
X40708Y-25551D03*
X40708Y-35433D03*
X41718Y-39619D03*
X28844Y-39619D03*
X27834Y-35433D03*
X27834Y-25551D03*
X28844Y-29737D03*
X28844Y-49501D03*
X27834Y-45314D03*
X27834Y-55196D03*
X28844Y-59383D03*
X54592Y-39619D03*
X53582Y-35433D03*
X53582Y-25551D03*
X54592Y-29737D03*
X54592Y-49501D03*
X53582Y-45314D03*
X53582Y-55196D03*
X54592Y-59383D03*
X42218Y-55683D03*
X42218Y-45801D03*
X42218Y-26037D03*
X42218Y-35919D03*
X29344Y-35919D03*
X29344Y-26037D03*
X29344Y-45801D03*
X29344Y-55683D03*
X55092Y-35919D03*
X55092Y-26037D03*
X55092Y-45801D03*
X55092Y-55683D03*
G54D20*
X43464Y-58834D02*
X43464Y-58149D01*
X43440Y-58858D02*
X43464Y-58834D01*
X43440Y-48976D02*
X43464Y-48952D01*
X43464Y-48952D02*
X43464Y-48267D01*
X43464Y-29189D02*
X43464Y-28503D01*
X43440Y-29212D02*
X43464Y-29189D01*
X43440Y-39094D02*
X43464Y-39071D01*
X43464Y-39071D02*
X43464Y-38385D01*
X30590Y-39071D02*
X30590Y-38385D01*
X30566Y-39094D02*
X30590Y-39071D01*
X30566Y-29212D02*
X30590Y-29189D01*
X30590Y-29189D02*
X30590Y-28503D01*
X30590Y-48952D02*
X30590Y-48267D01*
X30566Y-48976D02*
X30590Y-48952D01*
X30566Y-58858D02*
X30590Y-58834D01*
X30590Y-58834D02*
X30590Y-58149D01*
X56338Y-39071D02*
X56338Y-38385D01*
X56314Y-39094D02*
X56338Y-39071D01*
X56314Y-29212D02*
X56338Y-29189D01*
X56338Y-29189D02*
X56338Y-28503D01*
X56338Y-48952D02*
X56338Y-48267D01*
X56314Y-48976D02*
X56338Y-48952D01*
X56314Y-58858D02*
X56338Y-58834D01*
X56338Y-58834D02*
X56338Y-58149D01*
X43858Y-55731D02*
X43858Y-56377D01*
X43834Y-55708D02*
X43858Y-55731D01*
X43834Y-45826D02*
X43858Y-45849D01*
X43858Y-45849D02*
X43858Y-46496D01*
X43858Y-26086D02*
X43858Y-26732D01*
X43834Y-26062D02*
X43858Y-26086D01*
X43834Y-35944D02*
X43858Y-35968D01*
X43858Y-35968D02*
X43858Y-36614D01*
X30984Y-35968D02*
X30984Y-36614D01*
X30960Y-35944D02*
X30984Y-35968D01*
X30960Y-26062D02*
X30984Y-26086D01*
X30984Y-26086D02*
X30984Y-26732D01*
X30984Y-45849D02*
X30984Y-46496D01*
X30960Y-45826D02*
X30984Y-45849D01*
X30960Y-55708D02*
X30984Y-55731D01*
X30984Y-55731D02*
X30984Y-56377D01*
X56732Y-35968D02*
X56732Y-36614D01*
X56708Y-35944D02*
X56732Y-35968D01*
X56708Y-26062D02*
X56732Y-26086D01*
X56732Y-26086D02*
X56732Y-26732D01*
X56732Y-45849D02*
X56732Y-46496D01*
X56708Y-45826D02*
X56732Y-45849D01*
X56708Y-55708D02*
X56732Y-55731D01*
X56732Y-55731D02*
X56732Y-56377D01*
X43858Y-58835D02*
X43858Y-58149D01*
X43834Y-58858D02*
X43858Y-58835D01*
X43834Y-48976D02*
X43858Y-48953D01*
X43858Y-48953D02*
X43858Y-48267D01*
X43858Y-29189D02*
X43858Y-28503D01*
X43834Y-29212D02*
X43858Y-29189D01*
X43834Y-39094D02*
X43858Y-39071D01*
X43858Y-39071D02*
X43858Y-38385D01*
X30984Y-39071D02*
X30984Y-38385D01*
X30960Y-39094D02*
X30984Y-39071D01*
X30960Y-29212D02*
X30984Y-29189D01*
X30984Y-29189D02*
X30984Y-28503D01*
X30984Y-48953D02*
X30984Y-48267D01*
X30960Y-48976D02*
X30984Y-48953D01*
X30960Y-58858D02*
X30984Y-58835D01*
X30984Y-58835D02*
X30984Y-58149D01*
X56732Y-39071D02*
X56732Y-38385D01*
X56708Y-39094D02*
X56732Y-39071D01*
X56708Y-29212D02*
X56732Y-29189D01*
X56732Y-29189D02*
X56732Y-28503D01*
X56732Y-48953D02*
X56732Y-48267D01*
X56708Y-48976D02*
X56732Y-48953D01*
X56708Y-58858D02*
X56732Y-58835D01*
X56732Y-58835D02*
X56732Y-58149D01*
X43023Y-60988D02*
X43318Y-61283D01*
X43023Y-60383D02*
X43023Y-60988D01*
X44251Y-58834D02*
X44251Y-58149D01*
X44227Y-58858D02*
X44251Y-58834D01*
X44227Y-48976D02*
X44251Y-48952D01*
X44251Y-48952D02*
X44251Y-48267D01*
X43023Y-50501D02*
X43023Y-51106D01*
X43023Y-51106D02*
X43318Y-51401D01*
X43023Y-31342D02*
X43318Y-31637D01*
X43023Y-30737D02*
X43023Y-31342D01*
X44251Y-29188D02*
X44251Y-28503D01*
X44227Y-29212D02*
X44251Y-29188D01*
X44227Y-39094D02*
X44251Y-39070D01*
X44251Y-39070D02*
X44251Y-38385D01*
X43023Y-40619D02*
X43023Y-41224D01*
X43023Y-41224D02*
X43318Y-41519D01*
X30149Y-41224D02*
X30444Y-41519D01*
X30149Y-40619D02*
X30149Y-41224D01*
X31377Y-39070D02*
X31377Y-38385D01*
X31353Y-39094D02*
X31377Y-39070D01*
X31353Y-29212D02*
X31377Y-29188D01*
X31377Y-29188D02*
X31377Y-28503D01*
X30149Y-30737D02*
X30149Y-31342D01*
X30149Y-31342D02*
X30444Y-31637D01*
X30149Y-51106D02*
X30444Y-51401D01*
X30149Y-50501D02*
X30149Y-51106D01*
X31377Y-48952D02*
X31377Y-48267D01*
X31353Y-48976D02*
X31377Y-48952D01*
X31353Y-58858D02*
X31377Y-58834D01*
X31377Y-58834D02*
X31377Y-58149D01*
X30149Y-60383D02*
X30149Y-60988D01*
X30149Y-60988D02*
X30444Y-61283D01*
X55897Y-41224D02*
X56192Y-41519D01*
X55897Y-40619D02*
X55897Y-41224D01*
X57125Y-39070D02*
X57125Y-38385D01*
X57101Y-39094D02*
X57125Y-39070D01*
X57101Y-29212D02*
X57125Y-29188D01*
X57125Y-29188D02*
X57125Y-28503D01*
X55897Y-30737D02*
X55897Y-31342D01*
X55897Y-31342D02*
X56192Y-31637D01*
X55897Y-51106D02*
X56192Y-51401D01*
X55897Y-50501D02*
X55897Y-51106D01*
X57125Y-48952D02*
X57125Y-48267D01*
X57101Y-48976D02*
X57125Y-48952D01*
X57101Y-58858D02*
X57125Y-58834D01*
X57125Y-58834D02*
X57125Y-58149D01*
X55897Y-60383D02*
X55897Y-60988D01*
X55897Y-60988D02*
X56192Y-61283D01*
X44023Y-60988D02*
X44318Y-61283D01*
X44023Y-60383D02*
X44023Y-60988D01*
X44645Y-58834D02*
X44645Y-58149D01*
X44621Y-58858D02*
X44645Y-58834D01*
X44621Y-48976D02*
X44645Y-48952D01*
X44645Y-48952D02*
X44645Y-48267D01*
X44023Y-50501D02*
X44023Y-51106D01*
X44023Y-51106D02*
X44318Y-51401D01*
X44023Y-31342D02*
X44318Y-31637D01*
X44023Y-30737D02*
X44023Y-31342D01*
X44645Y-29189D02*
X44645Y-28503D01*
X44621Y-29212D02*
X44645Y-29189D01*
X44621Y-39094D02*
X44645Y-39070D01*
X44645Y-39070D02*
X44645Y-38385D01*
X44023Y-40619D02*
X44023Y-41224D01*
X44023Y-41224D02*
X44318Y-41519D01*
X31149Y-41224D02*
X31444Y-41519D01*
X31149Y-40619D02*
X31149Y-41224D01*
X31771Y-39070D02*
X31771Y-38385D01*
X31747Y-39094D02*
X31771Y-39070D01*
X31747Y-29212D02*
X31771Y-29189D01*
X31771Y-29189D02*
X31771Y-28503D01*
X31149Y-30737D02*
X31149Y-31342D01*
X31149Y-31342D02*
X31444Y-31637D01*
X31149Y-51106D02*
X31444Y-51401D01*
X31149Y-50501D02*
X31149Y-51106D01*
X31771Y-48952D02*
X31771Y-48267D01*
X31747Y-48976D02*
X31771Y-48952D01*
X31747Y-58858D02*
X31771Y-58834D01*
X31771Y-58834D02*
X31771Y-58149D01*
X31149Y-60383D02*
X31149Y-60988D01*
X31149Y-60988D02*
X31444Y-61283D01*
X56897Y-41224D02*
X57192Y-41519D01*
X56897Y-40619D02*
X56897Y-41224D01*
X57519Y-39070D02*
X57519Y-38385D01*
X57495Y-39094D02*
X57519Y-39070D01*
X57495Y-29212D02*
X57519Y-29189D01*
X57519Y-29189D02*
X57519Y-28503D01*
X56897Y-30737D02*
X56897Y-31342D01*
X56897Y-31342D02*
X57192Y-31637D01*
X56897Y-51106D02*
X57192Y-51401D01*
X56897Y-50501D02*
X56897Y-51106D01*
X57519Y-48952D02*
X57519Y-48267D01*
X57495Y-48976D02*
X57519Y-48952D01*
X57495Y-58858D02*
X57519Y-58834D01*
X57519Y-58834D02*
X57519Y-58149D01*
X56897Y-60383D02*
X56897Y-60988D01*
X56897Y-60988D02*
X57192Y-61283D01*
X48023Y-53578D02*
X48318Y-53283D01*
X48023Y-54183D02*
X48023Y-53578D01*
X46220Y-55732D02*
X46220Y-56377D01*
X46196Y-55708D02*
X46220Y-55732D01*
X46196Y-45826D02*
X46220Y-45850D01*
X46220Y-45850D02*
X46220Y-46496D01*
X48023Y-44301D02*
X48023Y-43696D01*
X48023Y-43696D02*
X48318Y-43401D01*
X48023Y-23932D02*
X48318Y-23637D01*
X48023Y-24537D02*
X48023Y-23932D01*
X46220Y-26086D02*
X46220Y-26732D01*
X46196Y-26062D02*
X46220Y-26086D01*
X46196Y-35944D02*
X46220Y-35968D01*
X46220Y-35968D02*
X46220Y-36614D01*
X48023Y-34419D02*
X48023Y-33814D01*
X48023Y-33814D02*
X48318Y-33519D01*
X35149Y-33814D02*
X35444Y-33519D01*
X35149Y-34419D02*
X35149Y-33814D01*
X33346Y-35968D02*
X33346Y-36614D01*
X33322Y-35944D02*
X33346Y-35968D01*
X33322Y-26062D02*
X33346Y-26086D01*
X33346Y-26086D02*
X33346Y-26732D01*
X35149Y-24537D02*
X35149Y-23932D01*
X35149Y-23932D02*
X35444Y-23637D01*
X35149Y-43696D02*
X35444Y-43401D01*
X35149Y-44301D02*
X35149Y-43696D01*
X33346Y-45850D02*
X33346Y-46496D01*
X33322Y-45826D02*
X33346Y-45850D01*
X33322Y-55708D02*
X33346Y-55732D01*
X33346Y-55732D02*
X33346Y-56377D01*
X35149Y-54183D02*
X35149Y-53578D01*
X35149Y-53578D02*
X35444Y-53283D01*
X60897Y-33814D02*
X61192Y-33519D01*
X60897Y-34419D02*
X60897Y-33814D01*
X59094Y-35968D02*
X59094Y-36614D01*
X59070Y-35944D02*
X59094Y-35968D01*
X59070Y-26062D02*
X59094Y-26086D01*
X59094Y-26086D02*
X59094Y-26732D01*
X60897Y-24537D02*
X60897Y-23932D01*
X60897Y-23932D02*
X61192Y-23637D01*
X60897Y-43696D02*
X61192Y-43401D01*
X60897Y-44301D02*
X60897Y-43696D01*
X59094Y-45850D02*
X59094Y-46496D01*
X59070Y-45826D02*
X59094Y-45850D01*
X59070Y-55708D02*
X59094Y-55732D01*
X59094Y-55732D02*
X59094Y-56377D01*
X60897Y-54183D02*
X60897Y-53578D01*
X60897Y-53578D02*
X61192Y-53283D01*
X47023Y-53578D02*
X47318Y-53283D01*
X47023Y-54183D02*
X47023Y-53578D01*
X45826Y-55732D02*
X45826Y-56377D01*
X45802Y-55708D02*
X45826Y-55732D01*
X45802Y-45826D02*
X45826Y-45850D01*
X45826Y-45850D02*
X45826Y-46496D01*
X47023Y-44301D02*
X47023Y-43696D01*
X47023Y-43696D02*
X47318Y-43401D01*
X47023Y-23932D02*
X47318Y-23637D01*
X47023Y-24537D02*
X47023Y-23932D01*
X45826Y-26086D02*
X45826Y-26732D01*
X45802Y-26062D02*
X45826Y-26086D01*
X45802Y-35944D02*
X45826Y-35968D01*
X45826Y-35968D02*
X45826Y-36614D01*
X47023Y-34419D02*
X47023Y-33814D01*
X47023Y-33814D02*
X47318Y-33519D01*
X34149Y-33814D02*
X34444Y-33519D01*
X34149Y-34419D02*
X34149Y-33814D01*
X32952Y-35968D02*
X32952Y-36614D01*
X32928Y-35944D02*
X32952Y-35968D01*
X32928Y-26062D02*
X32952Y-26086D01*
X32952Y-26086D02*
X32952Y-26732D01*
X34149Y-24537D02*
X34149Y-23932D01*
X34149Y-23932D02*
X34444Y-23637D01*
X34149Y-43696D02*
X34444Y-43401D01*
X34149Y-44301D02*
X34149Y-43696D01*
X32952Y-45850D02*
X32952Y-46496D01*
X32928Y-45826D02*
X32952Y-45850D01*
X32928Y-55708D02*
X32952Y-55732D01*
X32952Y-55732D02*
X32952Y-56377D01*
X34149Y-54183D02*
X34149Y-53578D01*
X34149Y-53578D02*
X34444Y-53283D01*
X59897Y-33814D02*
X60192Y-33519D01*
X59897Y-34419D02*
X59897Y-33814D01*
X58700Y-35968D02*
X58700Y-36614D01*
X58676Y-35944D02*
X58700Y-35968D01*
X58676Y-26062D02*
X58700Y-26086D01*
X58700Y-26086D02*
X58700Y-26732D01*
X59897Y-24537D02*
X59897Y-23932D01*
X59897Y-23932D02*
X60192Y-23637D01*
X59897Y-43696D02*
X60192Y-43401D01*
X59897Y-44301D02*
X59897Y-43696D01*
X58700Y-45850D02*
X58700Y-46496D01*
X58676Y-45826D02*
X58700Y-45850D01*
X58676Y-55708D02*
X58700Y-55732D01*
X58700Y-55732D02*
X58700Y-56377D01*
X59897Y-54183D02*
X59897Y-53578D01*
X59897Y-53578D02*
X60192Y-53283D01*
X46023Y-53578D02*
X46318Y-53283D01*
X46023Y-54183D02*
X46023Y-53578D01*
X45433Y-55731D02*
X45433Y-56377D01*
X45409Y-55708D02*
X45433Y-55731D01*
X45409Y-45826D02*
X45433Y-45849D01*
X45433Y-45849D02*
X45433Y-46496D01*
X46023Y-44301D02*
X46023Y-43696D01*
X46023Y-43696D02*
X46318Y-43401D01*
X46023Y-23932D02*
X46318Y-23637D01*
X46023Y-24537D02*
X46023Y-23932D01*
X45433Y-26085D02*
X45433Y-26732D01*
X45409Y-26062D02*
X45433Y-26085D01*
X45409Y-35944D02*
X45433Y-35967D01*
X45433Y-35967D02*
X45433Y-36614D01*
X46023Y-34419D02*
X46023Y-33814D01*
X46023Y-33814D02*
X46318Y-33519D01*
X33149Y-33814D02*
X33444Y-33519D01*
X33149Y-34419D02*
X33149Y-33814D01*
X32559Y-35967D02*
X32559Y-36614D01*
X32535Y-35944D02*
X32559Y-35967D01*
X32535Y-26062D02*
X32559Y-26085D01*
X32559Y-26085D02*
X32559Y-26732D01*
X33149Y-24537D02*
X33149Y-23932D01*
X33149Y-23932D02*
X33444Y-23637D01*
X33149Y-43696D02*
X33444Y-43401D01*
X33149Y-44301D02*
X33149Y-43696D01*
X32559Y-45849D02*
X32559Y-46496D01*
X32535Y-45826D02*
X32559Y-45849D01*
X32535Y-55708D02*
X32559Y-55731D01*
X32559Y-55731D02*
X32559Y-56377D01*
X33149Y-54183D02*
X33149Y-53578D01*
X33149Y-53578D02*
X33444Y-53283D01*
X58897Y-33814D02*
X59192Y-33519D01*
X58897Y-34419D02*
X58897Y-33814D01*
X58307Y-35967D02*
X58307Y-36614D01*
X58283Y-35944D02*
X58307Y-35967D01*
X58283Y-26062D02*
X58307Y-26085D01*
X58307Y-26085D02*
X58307Y-26732D01*
X58897Y-24537D02*
X58897Y-23932D01*
X58897Y-23932D02*
X59192Y-23637D01*
X58897Y-43696D02*
X59192Y-43401D01*
X58897Y-44301D02*
X58897Y-43696D01*
X58307Y-45849D02*
X58307Y-46496D01*
X58283Y-45826D02*
X58307Y-45849D01*
X58283Y-55708D02*
X58307Y-55731D01*
X58307Y-55731D02*
X58307Y-56377D01*
X58897Y-54183D02*
X58897Y-53578D01*
X58897Y-53578D02*
X59192Y-53283D01*
X45023Y-53578D02*
X45318Y-53283D01*
X45023Y-54183D02*
X45023Y-53578D01*
X45039Y-55731D02*
X45039Y-56377D01*
X45015Y-55708D02*
X45039Y-55731D01*
X45015Y-45826D02*
X45039Y-45850D01*
X45039Y-45850D02*
X45039Y-46496D01*
X45023Y-44301D02*
X45023Y-43696D01*
X45023Y-43696D02*
X45318Y-43401D01*
X45023Y-23932D02*
X45318Y-23637D01*
X45023Y-24537D02*
X45023Y-23932D01*
X45039Y-26086D02*
X45039Y-26732D01*
X45015Y-26062D02*
X45039Y-26086D01*
X45015Y-35944D02*
X45039Y-35968D01*
X45039Y-35968D02*
X45039Y-36614D01*
X45023Y-34419D02*
X45023Y-33814D01*
X45023Y-33814D02*
X45318Y-33519D01*
X32149Y-33814D02*
X32444Y-33519D01*
X32149Y-34419D02*
X32149Y-33814D01*
X32165Y-35968D02*
X32165Y-36614D01*
X32141Y-35944D02*
X32165Y-35968D01*
X32141Y-26062D02*
X32165Y-26086D01*
X32165Y-26086D02*
X32165Y-26732D01*
X32149Y-24537D02*
X32149Y-23932D01*
X32149Y-23932D02*
X32444Y-23637D01*
X32149Y-43696D02*
X32444Y-43401D01*
X32149Y-44301D02*
X32149Y-43696D01*
X32165Y-45850D02*
X32165Y-46496D01*
X32141Y-45826D02*
X32165Y-45850D01*
X32141Y-55708D02*
X32165Y-55731D01*
X32165Y-55731D02*
X32165Y-56377D01*
X32149Y-54183D02*
X32149Y-53578D01*
X32149Y-53578D02*
X32444Y-53283D01*
X57897Y-33814D02*
X58192Y-33519D01*
X57897Y-34419D02*
X57897Y-33814D01*
X57913Y-35968D02*
X57913Y-36614D01*
X57889Y-35944D02*
X57913Y-35968D01*
X57889Y-26062D02*
X57913Y-26086D01*
X57913Y-26086D02*
X57913Y-26732D01*
X57897Y-24537D02*
X57897Y-23932D01*
X57897Y-23932D02*
X58192Y-23637D01*
X57897Y-43696D02*
X58192Y-43401D01*
X57897Y-44301D02*
X57897Y-43696D01*
X57913Y-45850D02*
X57913Y-46496D01*
X57889Y-45826D02*
X57913Y-45850D01*
X57889Y-55708D02*
X57913Y-55731D01*
X57913Y-55731D02*
X57913Y-56377D01*
X57897Y-54183D02*
X57897Y-53578D01*
X57897Y-53578D02*
X58192Y-53283D01*
X44023Y-53578D02*
X44318Y-53283D01*
X44023Y-54183D02*
X44023Y-53578D01*
X44645Y-55732D02*
X44645Y-56377D01*
X44621Y-55708D02*
X44645Y-55732D01*
X44621Y-45826D02*
X44645Y-45850D01*
X44645Y-45850D02*
X44645Y-46496D01*
X44023Y-44301D02*
X44023Y-43696D01*
X44023Y-43696D02*
X44318Y-43401D01*
X44023Y-23932D02*
X44318Y-23637D01*
X44023Y-24537D02*
X44023Y-23932D01*
X44645Y-26086D02*
X44645Y-26732D01*
X44621Y-26062D02*
X44645Y-26086D01*
X44621Y-35944D02*
X44645Y-35968D01*
X44645Y-35968D02*
X44645Y-36614D01*
X44023Y-34419D02*
X44023Y-33814D01*
X44023Y-33814D02*
X44318Y-33519D01*
X31149Y-33814D02*
X31444Y-33519D01*
X31149Y-34419D02*
X31149Y-33814D01*
X31771Y-35968D02*
X31771Y-36614D01*
X31747Y-35944D02*
X31771Y-35968D01*
X31747Y-26062D02*
X31771Y-26086D01*
X31771Y-26086D02*
X31771Y-26732D01*
X31149Y-24537D02*
X31149Y-23932D01*
X31149Y-23932D02*
X31444Y-23637D01*
X31149Y-43696D02*
X31444Y-43401D01*
X31149Y-44301D02*
X31149Y-43696D01*
X31771Y-45850D02*
X31771Y-46496D01*
X31747Y-45826D02*
X31771Y-45850D01*
X31747Y-55708D02*
X31771Y-55732D01*
X31771Y-55732D02*
X31771Y-56377D01*
X31149Y-54183D02*
X31149Y-53578D01*
X31149Y-53578D02*
X31444Y-53283D01*
X56897Y-33814D02*
X57192Y-33519D01*
X56897Y-34419D02*
X56897Y-33814D01*
X57519Y-35968D02*
X57519Y-36614D01*
X57495Y-35944D02*
X57519Y-35968D01*
X57495Y-26062D02*
X57519Y-26086D01*
X57519Y-26086D02*
X57519Y-26732D01*
X56897Y-24537D02*
X56897Y-23932D01*
X56897Y-23932D02*
X57192Y-23637D01*
X56897Y-43696D02*
X57192Y-43401D01*
X56897Y-44301D02*
X56897Y-43696D01*
X57519Y-45850D02*
X57519Y-46496D01*
X57495Y-45826D02*
X57519Y-45850D01*
X57495Y-55708D02*
X57519Y-55732D01*
X57519Y-55732D02*
X57519Y-56377D01*
X56897Y-54183D02*
X56897Y-53578D01*
X56897Y-53578D02*
X57192Y-53283D01*
X43023Y-53578D02*
X43318Y-53283D01*
X43023Y-54183D02*
X43023Y-53578D01*
X44251Y-55732D02*
X44251Y-56377D01*
X44227Y-55708D02*
X44251Y-55732D01*
X44227Y-45826D02*
X44251Y-45850D01*
X44251Y-45850D02*
X44251Y-46496D01*
X43023Y-44301D02*
X43023Y-43696D01*
X43023Y-43696D02*
X43318Y-43401D01*
X43023Y-23932D02*
X43318Y-23637D01*
X43023Y-24537D02*
X43023Y-23932D01*
X44251Y-26086D02*
X44251Y-26732D01*
X44227Y-26062D02*
X44251Y-26086D01*
X44227Y-35944D02*
X44251Y-35968D01*
X44251Y-35968D02*
X44251Y-36614D01*
X43023Y-34419D02*
X43023Y-33814D01*
X43023Y-33814D02*
X43318Y-33519D01*
X30149Y-33814D02*
X30444Y-33519D01*
X30149Y-34419D02*
X30149Y-33814D01*
X31377Y-35968D02*
X31377Y-36614D01*
X31353Y-35944D02*
X31377Y-35968D01*
X31353Y-26062D02*
X31377Y-26086D01*
X31377Y-26086D02*
X31377Y-26732D01*
X30149Y-24537D02*
X30149Y-23932D01*
X30149Y-23932D02*
X30444Y-23637D01*
X30149Y-43696D02*
X30444Y-43401D01*
X30149Y-44301D02*
X30149Y-43696D01*
X31377Y-45850D02*
X31377Y-46496D01*
X31353Y-45826D02*
X31377Y-45850D01*
X31353Y-55708D02*
X31377Y-55732D01*
X31377Y-55732D02*
X31377Y-56377D01*
X30149Y-54183D02*
X30149Y-53578D01*
X30149Y-53578D02*
X30444Y-53283D01*
X55897Y-33814D02*
X56192Y-33519D01*
X55897Y-34419D02*
X55897Y-33814D01*
X57125Y-35968D02*
X57125Y-36614D01*
X57101Y-35944D02*
X57125Y-35968D01*
X57101Y-26062D02*
X57125Y-26086D01*
X57125Y-26086D02*
X57125Y-26732D01*
X55897Y-24537D02*
X55897Y-23932D01*
X55897Y-23932D02*
X56192Y-23637D01*
X55897Y-43696D02*
X56192Y-43401D01*
X55897Y-44301D02*
X55897Y-43696D01*
X57125Y-45850D02*
X57125Y-46496D01*
X57101Y-45826D02*
X57125Y-45850D01*
X57101Y-55708D02*
X57125Y-55732D01*
X57125Y-55732D02*
X57125Y-56377D01*
X55897Y-54183D02*
X55897Y-53578D01*
X55897Y-53578D02*
X56192Y-53283D01*
X45023Y-60988D02*
X45318Y-61283D01*
X45023Y-60383D02*
X45023Y-60988D01*
X45039Y-58834D02*
X45039Y-58149D01*
X45015Y-58858D02*
X45039Y-58834D01*
X45015Y-48976D02*
X45039Y-48953D01*
X45039Y-48953D02*
X45039Y-48267D01*
X45023Y-50501D02*
X45023Y-51106D01*
X45023Y-51106D02*
X45318Y-51401D01*
X45023Y-31342D02*
X45318Y-31637D01*
X45023Y-30737D02*
X45023Y-31342D01*
X45039Y-29189D02*
X45039Y-28503D01*
X45015Y-29212D02*
X45039Y-29189D01*
X45015Y-39094D02*
X45039Y-39071D01*
X45039Y-39071D02*
X45039Y-38385D01*
X45023Y-40619D02*
X45023Y-41224D01*
X45023Y-41224D02*
X45318Y-41519D01*
X32149Y-41224D02*
X32444Y-41519D01*
X32149Y-40619D02*
X32149Y-41224D01*
X32165Y-39071D02*
X32165Y-38385D01*
X32141Y-39094D02*
X32165Y-39071D01*
X32141Y-29212D02*
X32165Y-29189D01*
X32165Y-29189D02*
X32165Y-28503D01*
X32149Y-30737D02*
X32149Y-31342D01*
X32149Y-31342D02*
X32444Y-31637D01*
X32149Y-51106D02*
X32444Y-51401D01*
X32149Y-50501D02*
X32149Y-51106D01*
X32165Y-48953D02*
X32165Y-48267D01*
X32141Y-48976D02*
X32165Y-48953D01*
X32141Y-58858D02*
X32165Y-58834D01*
X32165Y-58834D02*
X32165Y-58149D01*
X32149Y-60383D02*
X32149Y-60988D01*
X32149Y-60988D02*
X32444Y-61283D01*
X57897Y-41224D02*
X58192Y-41519D01*
X57897Y-40619D02*
X57897Y-41224D01*
X57913Y-39071D02*
X57913Y-38385D01*
X57889Y-39094D02*
X57913Y-39071D01*
X57889Y-29212D02*
X57913Y-29189D01*
X57913Y-29189D02*
X57913Y-28503D01*
X57897Y-30737D02*
X57897Y-31342D01*
X57897Y-31342D02*
X58192Y-31637D01*
X57897Y-51106D02*
X58192Y-51401D01*
X57897Y-50501D02*
X57897Y-51106D01*
X57913Y-48953D02*
X57913Y-48267D01*
X57889Y-48976D02*
X57913Y-48953D01*
X57889Y-58858D02*
X57913Y-58834D01*
X57913Y-58834D02*
X57913Y-58149D01*
X57897Y-60383D02*
X57897Y-60988D01*
X57897Y-60988D02*
X58192Y-61283D01*
X46023Y-60988D02*
X46318Y-61283D01*
X46023Y-60383D02*
X46023Y-60988D01*
X45433Y-58835D02*
X45433Y-58149D01*
X45409Y-58858D02*
X45433Y-58835D01*
X45409Y-48976D02*
X45433Y-48953D01*
X45433Y-48953D02*
X45433Y-48267D01*
X46023Y-50501D02*
X46023Y-51106D01*
X46023Y-51106D02*
X46318Y-51401D01*
X46023Y-31342D02*
X46318Y-31637D01*
X46023Y-30737D02*
X46023Y-31342D01*
X45433Y-29189D02*
X45433Y-28503D01*
X45409Y-29212D02*
X45433Y-29189D01*
X45409Y-39094D02*
X45433Y-39071D01*
X45433Y-39071D02*
X45433Y-38385D01*
X46023Y-40619D02*
X46023Y-41224D01*
X46023Y-41224D02*
X46318Y-41519D01*
X33149Y-41224D02*
X33444Y-41519D01*
X33149Y-40619D02*
X33149Y-41224D01*
X32559Y-39071D02*
X32559Y-38385D01*
X32535Y-39094D02*
X32559Y-39071D01*
X32535Y-29212D02*
X32559Y-29189D01*
X32559Y-29189D02*
X32559Y-28503D01*
X33149Y-30737D02*
X33149Y-31342D01*
X33149Y-31342D02*
X33444Y-31637D01*
X33149Y-51106D02*
X33444Y-51401D01*
X33149Y-50501D02*
X33149Y-51106D01*
X32559Y-48953D02*
X32559Y-48267D01*
X32535Y-48976D02*
X32559Y-48953D01*
X32535Y-58858D02*
X32559Y-58835D01*
X32559Y-58835D02*
X32559Y-58149D01*
X33149Y-60383D02*
X33149Y-60988D01*
X33149Y-60988D02*
X33444Y-61283D01*
X58897Y-41224D02*
X59192Y-41519D01*
X58897Y-40619D02*
X58897Y-41224D01*
X58307Y-39071D02*
X58307Y-38385D01*
X58283Y-39094D02*
X58307Y-39071D01*
X58283Y-29212D02*
X58307Y-29189D01*
X58307Y-29189D02*
X58307Y-28503D01*
X58897Y-30737D02*
X58897Y-31342D01*
X58897Y-31342D02*
X59192Y-31637D01*
X58897Y-51106D02*
X59192Y-51401D01*
X58897Y-50501D02*
X58897Y-51106D01*
X58307Y-48953D02*
X58307Y-48267D01*
X58283Y-48976D02*
X58307Y-48953D01*
X58283Y-58858D02*
X58307Y-58835D01*
X58307Y-58835D02*
X58307Y-58149D01*
X58897Y-60383D02*
X58897Y-60988D01*
X58897Y-60988D02*
X59192Y-61283D01*
X47023Y-60988D02*
X47318Y-61283D01*
X47023Y-60383D02*
X47023Y-60988D01*
X45826Y-58834D02*
X45826Y-58149D01*
X45802Y-58858D02*
X45826Y-58834D01*
X45802Y-48976D02*
X45826Y-48952D01*
X45826Y-48952D02*
X45826Y-48267D01*
X47023Y-50501D02*
X47023Y-51106D01*
X47023Y-51106D02*
X47318Y-51401D01*
X47023Y-31342D02*
X47318Y-31637D01*
X47023Y-30737D02*
X47023Y-31342D01*
X45826Y-29188D02*
X45826Y-28503D01*
X45802Y-29212D02*
X45826Y-29188D01*
X45802Y-39094D02*
X45826Y-39070D01*
X45826Y-39070D02*
X45826Y-38385D01*
X47023Y-40619D02*
X47023Y-41224D01*
X47023Y-41224D02*
X47318Y-41519D01*
X34149Y-41224D02*
X34444Y-41519D01*
X34149Y-40619D02*
X34149Y-41224D01*
X32952Y-39070D02*
X32952Y-38385D01*
X32928Y-39094D02*
X32952Y-39070D01*
X32928Y-29212D02*
X32952Y-29188D01*
X32952Y-29188D02*
X32952Y-28503D01*
X34149Y-30737D02*
X34149Y-31342D01*
X34149Y-31342D02*
X34444Y-31637D01*
X34149Y-51106D02*
X34444Y-51401D01*
X34149Y-50501D02*
X34149Y-51106D01*
X32952Y-48952D02*
X32952Y-48267D01*
X32928Y-48976D02*
X32952Y-48952D01*
X32928Y-58858D02*
X32952Y-58834D01*
X32952Y-58834D02*
X32952Y-58149D01*
X34149Y-60383D02*
X34149Y-60988D01*
X34149Y-60988D02*
X34444Y-61283D01*
X59897Y-41224D02*
X60192Y-41519D01*
X59897Y-40619D02*
X59897Y-41224D01*
X58700Y-39070D02*
X58700Y-38385D01*
X58676Y-39094D02*
X58700Y-39070D01*
X58676Y-29212D02*
X58700Y-29188D01*
X58700Y-29188D02*
X58700Y-28503D01*
X59897Y-30737D02*
X59897Y-31342D01*
X59897Y-31342D02*
X60192Y-31637D01*
X59897Y-51106D02*
X60192Y-51401D01*
X59897Y-50501D02*
X59897Y-51106D01*
X58700Y-48952D02*
X58700Y-48267D01*
X58676Y-48976D02*
X58700Y-48952D01*
X58676Y-58858D02*
X58700Y-58834D01*
X58700Y-58834D02*
X58700Y-58149D01*
X59897Y-60383D02*
X59897Y-60988D01*
X59897Y-60988D02*
X60192Y-61283D01*
X48023Y-60988D02*
X48318Y-61283D01*
X48023Y-60383D02*
X48023Y-60988D01*
X46220Y-58834D02*
X46220Y-58149D01*
X46196Y-58858D02*
X46220Y-58834D01*
X46196Y-48976D02*
X46220Y-48953D01*
X46220Y-48953D02*
X46220Y-48267D01*
X48023Y-50501D02*
X48023Y-51106D01*
X48023Y-51106D02*
X48318Y-51401D01*
X48023Y-31342D02*
X48318Y-31637D01*
X48023Y-30737D02*
X48023Y-31342D01*
X46220Y-29189D02*
X46220Y-28503D01*
X46196Y-29212D02*
X46220Y-29189D01*
X46196Y-39094D02*
X46220Y-39071D01*
X46220Y-39071D02*
X46220Y-38385D01*
X48023Y-40619D02*
X48023Y-41224D01*
X48023Y-41224D02*
X48318Y-41519D01*
X35149Y-41224D02*
X35444Y-41519D01*
X35149Y-40619D02*
X35149Y-41224D01*
X33346Y-39071D02*
X33346Y-38385D01*
X33322Y-39094D02*
X33346Y-39071D01*
X33322Y-29212D02*
X33346Y-29189D01*
X33346Y-29189D02*
X33346Y-28503D01*
X35149Y-30737D02*
X35149Y-31342D01*
X35149Y-31342D02*
X35444Y-31637D01*
X35149Y-51106D02*
X35444Y-51401D01*
X35149Y-50501D02*
X35149Y-51106D01*
X33346Y-48953D02*
X33346Y-48267D01*
X33322Y-48976D02*
X33346Y-48953D01*
X33322Y-58858D02*
X33346Y-58834D01*
X33346Y-58834D02*
X33346Y-58149D01*
X35149Y-60383D02*
X35149Y-60988D01*
X35149Y-60988D02*
X35444Y-61283D01*
X60897Y-41224D02*
X61192Y-41519D01*
X60897Y-40619D02*
X60897Y-41224D01*
X59094Y-39071D02*
X59094Y-38385D01*
X59070Y-39094D02*
X59094Y-39071D01*
X59070Y-29212D02*
X59094Y-29189D01*
X59094Y-29189D02*
X59094Y-28503D01*
X60897Y-30737D02*
X60897Y-31342D01*
X60897Y-31342D02*
X61192Y-31637D01*
X60897Y-51106D02*
X61192Y-51401D01*
X60897Y-50501D02*
X60897Y-51106D01*
X59094Y-48953D02*
X59094Y-48267D01*
X59070Y-48976D02*
X59094Y-48953D01*
X59070Y-58858D02*
X59094Y-58834D01*
X59094Y-58834D02*
X59094Y-58149D01*
X60897Y-60383D02*
X60897Y-60988D01*
X60897Y-60988D02*
X61192Y-61283D01*
X49023Y-60988D02*
X49318Y-61283D01*
X49023Y-60383D02*
X49023Y-60988D01*
X46614Y-58835D02*
X46614Y-58149D01*
X46590Y-58858D02*
X46614Y-58835D01*
X46590Y-48976D02*
X46614Y-48953D01*
X46614Y-48953D02*
X46614Y-48267D01*
X49023Y-50501D02*
X49023Y-51106D01*
X49023Y-51106D02*
X49318Y-51401D01*
X49023Y-31342D02*
X49318Y-31637D01*
X49023Y-30737D02*
X49023Y-31342D01*
X46614Y-29189D02*
X46614Y-28503D01*
X46590Y-29212D02*
X46614Y-29189D01*
X46590Y-39094D02*
X46614Y-39071D01*
X46614Y-39071D02*
X46614Y-38385D01*
X49023Y-40619D02*
X49023Y-41224D01*
X49023Y-41224D02*
X49318Y-41519D01*
X36149Y-41224D02*
X36444Y-41519D01*
X36149Y-40619D02*
X36149Y-41224D01*
X33740Y-39071D02*
X33740Y-38385D01*
X33716Y-39094D02*
X33740Y-39071D01*
X33716Y-29212D02*
X33740Y-29189D01*
X33740Y-29189D02*
X33740Y-28503D01*
X36149Y-30737D02*
X36149Y-31342D01*
X36149Y-31342D02*
X36444Y-31637D01*
X36149Y-51106D02*
X36444Y-51401D01*
X36149Y-50501D02*
X36149Y-51106D01*
X33740Y-48953D02*
X33740Y-48267D01*
X33716Y-48976D02*
X33740Y-48953D01*
X33716Y-58858D02*
X33740Y-58835D01*
X33740Y-58835D02*
X33740Y-58149D01*
X36149Y-60383D02*
X36149Y-60988D01*
X36149Y-60988D02*
X36444Y-61283D01*
X61897Y-41224D02*
X62192Y-41519D01*
X61897Y-40619D02*
X61897Y-41224D01*
X59488Y-39071D02*
X59488Y-38385D01*
X59464Y-39094D02*
X59488Y-39071D01*
X59464Y-29212D02*
X59488Y-29189D01*
X59488Y-29189D02*
X59488Y-28503D01*
X61897Y-30737D02*
X61897Y-31342D01*
X61897Y-31342D02*
X62192Y-31637D01*
X61897Y-51106D02*
X62192Y-51401D01*
X61897Y-50501D02*
X61897Y-51106D01*
X59488Y-48953D02*
X59488Y-48267D01*
X59464Y-48976D02*
X59488Y-48953D01*
X59464Y-58858D02*
X59488Y-58835D01*
X59488Y-58835D02*
X59488Y-58149D01*
X61897Y-60383D02*
X61897Y-60988D01*
X61897Y-60988D02*
X62192Y-61283D01*
X50023Y-60988D02*
X50318Y-61283D01*
X50023Y-60383D02*
X50023Y-60988D01*
X47023Y-58897D02*
X47440Y-58897D01*
X46983Y-58858D02*
X47023Y-58897D01*
X46983Y-48976D02*
X47023Y-49015D01*
X47023Y-49015D02*
X47440Y-49015D01*
X50023Y-50501D02*
X50023Y-51106D01*
X50023Y-51106D02*
X50318Y-51401D01*
X50023Y-31342D02*
X50318Y-31637D01*
X50023Y-30737D02*
X50023Y-31342D01*
X47023Y-29251D02*
X47440Y-29251D01*
X46983Y-29212D02*
X47023Y-29251D01*
X46983Y-39094D02*
X47023Y-39133D01*
X47023Y-39133D02*
X47440Y-39133D01*
X50023Y-40619D02*
X50023Y-41224D01*
X50023Y-41224D02*
X50318Y-41519D01*
X37149Y-41224D02*
X37444Y-41519D01*
X37149Y-40619D02*
X37149Y-41224D01*
X34149Y-39133D02*
X34566Y-39133D01*
X34109Y-39094D02*
X34149Y-39133D01*
X34109Y-29212D02*
X34149Y-29251D01*
X34149Y-29251D02*
X34566Y-29251D01*
X37149Y-30737D02*
X37149Y-31342D01*
X37149Y-31342D02*
X37444Y-31637D01*
X37149Y-51106D02*
X37444Y-51401D01*
X37149Y-50501D02*
X37149Y-51106D01*
X34149Y-49015D02*
X34566Y-49015D01*
X34109Y-48976D02*
X34149Y-49015D01*
X34109Y-58858D02*
X34149Y-58897D01*
X34149Y-58897D02*
X34566Y-58897D01*
X37149Y-60383D02*
X37149Y-60988D01*
X37149Y-60988D02*
X37444Y-61283D01*
X62897Y-41224D02*
X63192Y-41519D01*
X62897Y-40619D02*
X62897Y-41224D01*
X59897Y-39133D02*
X60314Y-39133D01*
X59857Y-39094D02*
X59897Y-39133D01*
X59857Y-29212D02*
X59897Y-29251D01*
X59897Y-29251D02*
X60314Y-29251D01*
X62897Y-30737D02*
X62897Y-31342D01*
X62897Y-31342D02*
X63192Y-31637D01*
X62897Y-51106D02*
X63192Y-51401D01*
X62897Y-50501D02*
X62897Y-51106D01*
X59897Y-49015D02*
X60314Y-49015D01*
X59857Y-48976D02*
X59897Y-49015D01*
X59857Y-58858D02*
X59897Y-58897D01*
X59897Y-58897D02*
X60314Y-58897D01*
X62897Y-60383D02*
X62897Y-60988D01*
X62897Y-60988D02*
X63192Y-61283D01*
X50023Y-53578D02*
X50318Y-53283D01*
X50023Y-54183D02*
X50023Y-53578D01*
X47008Y-55733D02*
X47418Y-55733D01*
X46983Y-55708D02*
X47008Y-55733D01*
X46983Y-45826D02*
X47008Y-45851D01*
X47008Y-45851D02*
X47418Y-45851D01*
X50023Y-44301D02*
X50023Y-43696D01*
X50023Y-43696D02*
X50318Y-43401D01*
X50023Y-23932D02*
X50318Y-23637D01*
X50023Y-24537D02*
X50023Y-23932D01*
X47008Y-26087D02*
X47418Y-26087D01*
X46983Y-26062D02*
X47008Y-26087D01*
X46983Y-35944D02*
X47008Y-35969D01*
X47008Y-35969D02*
X47418Y-35969D01*
X50023Y-34419D02*
X50023Y-33814D01*
X50023Y-33814D02*
X50318Y-33519D01*
X37149Y-33814D02*
X37444Y-33519D01*
X37149Y-34419D02*
X37149Y-33814D01*
X34134Y-35969D02*
X34544Y-35969D01*
X34109Y-35944D02*
X34134Y-35969D01*
X34109Y-26062D02*
X34134Y-26087D01*
X34134Y-26087D02*
X34544Y-26087D01*
X37149Y-24537D02*
X37149Y-23932D01*
X37149Y-23932D02*
X37444Y-23637D01*
X37149Y-43696D02*
X37444Y-43401D01*
X37149Y-44301D02*
X37149Y-43696D01*
X34134Y-45851D02*
X34544Y-45851D01*
X34109Y-45826D02*
X34134Y-45851D01*
X34109Y-55708D02*
X34134Y-55733D01*
X34134Y-55733D02*
X34544Y-55733D01*
X37149Y-54183D02*
X37149Y-53578D01*
X37149Y-53578D02*
X37444Y-53283D01*
X62897Y-33814D02*
X63192Y-33519D01*
X62897Y-34419D02*
X62897Y-33814D01*
X59882Y-35969D02*
X60292Y-35969D01*
X59857Y-35944D02*
X59882Y-35969D01*
X59857Y-26062D02*
X59882Y-26087D01*
X59882Y-26087D02*
X60292Y-26087D01*
X62897Y-24537D02*
X62897Y-23932D01*
X62897Y-23932D02*
X63192Y-23637D01*
X62897Y-43696D02*
X63192Y-43401D01*
X62897Y-44301D02*
X62897Y-43696D01*
X59882Y-45851D02*
X60292Y-45851D01*
X59857Y-45826D02*
X59882Y-45851D01*
X59857Y-55708D02*
X59882Y-55733D01*
X59882Y-55733D02*
X60292Y-55733D01*
X62897Y-54183D02*
X62897Y-53578D01*
X62897Y-53578D02*
X63192Y-53283D01*
X49023Y-53578D02*
X49318Y-53283D01*
X49023Y-54183D02*
X49023Y-53578D01*
X46614Y-55731D02*
X46614Y-56377D01*
X46590Y-55708D02*
X46614Y-55731D01*
X46590Y-45826D02*
X46614Y-45849D01*
X46614Y-45849D02*
X46614Y-46496D01*
X49023Y-44301D02*
X49023Y-43696D01*
X49023Y-43696D02*
X49318Y-43401D01*
X49023Y-23932D02*
X49318Y-23637D01*
X49023Y-24537D02*
X49023Y-23932D01*
X46614Y-26086D02*
X46614Y-26732D01*
X46590Y-26062D02*
X46614Y-26086D01*
X46590Y-35944D02*
X46614Y-35967D01*
X46614Y-35967D02*
X46614Y-36614D01*
X49023Y-34419D02*
X49023Y-33814D01*
X49023Y-33814D02*
X49318Y-33519D01*
X36149Y-33814D02*
X36444Y-33519D01*
X36149Y-34419D02*
X36149Y-33814D01*
X33740Y-35967D02*
X33740Y-36614D01*
X33716Y-35944D02*
X33740Y-35967D01*
X33716Y-26062D02*
X33740Y-26086D01*
X33740Y-26086D02*
X33740Y-26732D01*
X36149Y-24537D02*
X36149Y-23932D01*
X36149Y-23932D02*
X36444Y-23637D01*
X36149Y-43696D02*
X36444Y-43401D01*
X36149Y-44301D02*
X36149Y-43696D01*
X33740Y-45849D02*
X33740Y-46496D01*
X33716Y-45826D02*
X33740Y-45849D01*
X33716Y-55708D02*
X33740Y-55731D01*
X33740Y-55731D02*
X33740Y-56377D01*
X36149Y-54183D02*
X36149Y-53578D01*
X36149Y-53578D02*
X36444Y-53283D01*
X61897Y-33814D02*
X62192Y-33519D01*
X61897Y-34419D02*
X61897Y-33814D01*
X59488Y-35967D02*
X59488Y-36614D01*
X59464Y-35944D02*
X59488Y-35967D01*
X59464Y-26062D02*
X59488Y-26086D01*
X59488Y-26086D02*
X59488Y-26732D01*
X61897Y-24537D02*
X61897Y-23932D01*
X61897Y-23932D02*
X62192Y-23637D01*
X61897Y-43696D02*
X62192Y-43401D01*
X61897Y-44301D02*
X61897Y-43696D01*
X59488Y-45849D02*
X59488Y-46496D01*
X59464Y-45826D02*
X59488Y-45849D01*
X59464Y-55708D02*
X59488Y-55731D01*
X59488Y-55731D02*
X59488Y-56377D01*
X61897Y-54183D02*
X61897Y-53578D01*
X61897Y-53578D02*
X62192Y-53283D01*
X43323Y-56988D02*
X48068Y-56988D01*
X43070Y-55732D02*
X43070Y-56377D01*
X43046Y-55708D02*
X43070Y-55732D01*
X43070Y-56735D02*
X43323Y-56988D01*
X43070Y-56377D02*
X43070Y-56735D01*
X43070Y-46496D02*
X43070Y-46853D01*
X43070Y-46853D02*
X43323Y-47106D01*
X43046Y-45826D02*
X43070Y-45850D01*
X43070Y-45850D02*
X43070Y-46496D01*
X43323Y-47106D02*
X48068Y-47106D01*
X43323Y-27342D02*
X48068Y-27342D01*
X43070Y-26086D02*
X43070Y-26732D01*
X43046Y-26062D02*
X43070Y-26086D01*
X43070Y-27089D02*
X43323Y-27342D01*
X43070Y-26732D02*
X43070Y-27089D01*
X43070Y-36614D02*
X43070Y-36971D01*
X43070Y-36971D02*
X43323Y-37224D01*
X43046Y-35944D02*
X43070Y-35968D01*
X43070Y-35968D02*
X43070Y-36614D01*
X43323Y-37224D02*
X48068Y-37224D01*
X30449Y-37224D02*
X35194Y-37224D01*
X30196Y-35968D02*
X30196Y-36614D01*
X30172Y-35944D02*
X30196Y-35968D01*
X30196Y-36971D02*
X30449Y-37224D01*
X30196Y-36614D02*
X30196Y-36971D01*
X30196Y-26732D02*
X30196Y-27089D01*
X30196Y-27089D02*
X30449Y-27342D01*
X30172Y-26062D02*
X30196Y-26086D01*
X30196Y-26086D02*
X30196Y-26732D01*
X30449Y-27342D02*
X35194Y-27342D01*
X30449Y-47106D02*
X35194Y-47106D01*
X30196Y-45850D02*
X30196Y-46496D01*
X30172Y-45826D02*
X30196Y-45850D01*
X30196Y-46853D02*
X30449Y-47106D01*
X30196Y-46496D02*
X30196Y-46853D01*
X30196Y-56377D02*
X30196Y-56735D01*
X30196Y-56735D02*
X30449Y-56988D01*
X30172Y-55708D02*
X30196Y-55732D01*
X30196Y-55732D02*
X30196Y-56377D01*
X30449Y-56988D02*
X35194Y-56988D01*
X56197Y-37224D02*
X60942Y-37224D01*
X55944Y-35968D02*
X55944Y-36614D01*
X55920Y-35944D02*
X55944Y-35968D01*
X55944Y-36971D02*
X56197Y-37224D01*
X55944Y-36614D02*
X55944Y-36971D01*
X55944Y-26732D02*
X55944Y-27089D01*
X55944Y-27089D02*
X56197Y-27342D01*
X55920Y-26062D02*
X55944Y-26086D01*
X55944Y-26086D02*
X55944Y-26732D01*
X56197Y-27342D02*
X60942Y-27342D01*
X56197Y-47106D02*
X60942Y-47106D01*
X55944Y-45850D02*
X55944Y-46496D01*
X55920Y-45826D02*
X55944Y-45850D01*
X55944Y-46853D02*
X56197Y-47106D01*
X55944Y-46496D02*
X55944Y-46853D01*
X55944Y-56377D02*
X55944Y-56735D01*
X55944Y-56735D02*
X56197Y-56988D01*
X55920Y-55708D02*
X55944Y-55732D01*
X55944Y-55732D02*
X55944Y-56377D01*
X56197Y-56988D02*
X60942Y-56988D01*
X43070Y-58834D02*
X43070Y-58149D01*
X43046Y-58858D02*
X43070Y-58834D01*
X43046Y-48976D02*
X43070Y-48952D01*
X43070Y-48952D02*
X43070Y-48267D01*
X43070Y-29188D02*
X43070Y-28503D01*
X43046Y-29212D02*
X43070Y-29188D01*
X43046Y-39094D02*
X43070Y-39070D01*
X43070Y-39070D02*
X43070Y-38385D01*
X30196Y-39070D02*
X30196Y-38385D01*
X30172Y-39094D02*
X30196Y-39070D01*
X30172Y-29212D02*
X30196Y-29188D01*
X30196Y-29188D02*
X30196Y-28503D01*
X30196Y-48952D02*
X30196Y-48267D01*
X30172Y-48976D02*
X30196Y-48952D01*
X30172Y-58858D02*
X30196Y-58834D01*
X30196Y-58834D02*
X30196Y-58149D01*
X55944Y-39070D02*
X55944Y-38385D01*
X55920Y-39094D02*
X55944Y-39070D01*
X55920Y-29212D02*
X55944Y-29188D01*
X55944Y-29188D02*
X55944Y-28503D01*
X55944Y-48952D02*
X55944Y-48267D01*
X55920Y-48976D02*
X55944Y-48952D01*
X55920Y-58858D02*
X55944Y-58834D01*
X55944Y-58834D02*
X55944Y-58149D01*
X43464Y-55732D02*
X43464Y-56377D01*
X43440Y-55708D02*
X43464Y-55732D01*
X43440Y-45826D02*
X43464Y-45850D01*
X43464Y-45850D02*
X43464Y-46496D01*
X43464Y-26086D02*
X43464Y-26732D01*
X43440Y-26062D02*
X43464Y-26086D01*
X43440Y-35944D02*
X43464Y-35968D01*
X43464Y-35968D02*
X43464Y-36614D01*
X30590Y-35968D02*
X30590Y-36614D01*
X30566Y-35944D02*
X30590Y-35968D01*
X30566Y-26062D02*
X30590Y-26086D01*
X30590Y-26086D02*
X30590Y-26732D01*
X30590Y-45850D02*
X30590Y-46496D01*
X30566Y-45826D02*
X30590Y-45850D01*
X30566Y-55708D02*
X30590Y-55732D01*
X30590Y-55732D02*
X30590Y-56377D01*
X56338Y-35968D02*
X56338Y-36614D01*
X56314Y-35944D02*
X56338Y-35968D01*
X56314Y-26062D02*
X56338Y-26086D01*
X56338Y-26086D02*
X56338Y-26732D01*
X56338Y-45850D02*
X56338Y-46496D01*
X56314Y-45826D02*
X56338Y-45850D01*
X56314Y-55708D02*
X56338Y-55732D01*
X56338Y-55732D02*
X56338Y-56377D01*
G54D21*
X40868Y-57682D02*
X41693Y-57682D01*
G54D22*
X42653Y-58858D02*
X42653Y-58858D01*
G54D20*
X50018Y-57583D02*
X50412Y-57189D01*
X50412Y-57189D02*
X50412Y-56674D01*
X50018Y-57954D02*
X50018Y-57583D01*
G54D21*
X42653Y-57868D02*
X42653Y-58858D01*
X42467Y-57682D02*
X42653Y-57868D01*
X41693Y-57682D02*
X42467Y-57682D01*
G54D23*
X49947Y-57883D02*
X50018Y-57954D01*
G54D21*
X42318Y-58858D02*
X42293Y-58858D01*
X42653Y-58858D02*
X42318Y-58858D01*
G54D24*
X40993Y-58858D02*
X39318Y-60533D01*
X39318Y-60533D02*
X39318Y-61283D01*
X42318Y-58858D02*
X40993Y-58858D01*
G54D20*
X42838Y-57683D02*
X47268Y-57683D01*
X47268Y-57683D02*
X47568Y-57983D01*
X47568Y-57983D02*
X49989Y-57983D01*
G54D21*
X49989Y-57983D02*
X50018Y-57954D01*
G54D20*
X42653Y-57868D02*
X42838Y-57683D01*
X42653Y-47986D02*
X42838Y-47801D01*
G54D21*
X49989Y-48101D02*
X50018Y-48072D01*
G54D20*
X47568Y-48101D02*
X49989Y-48101D01*
X47268Y-47801D02*
X47568Y-48101D01*
X42838Y-47801D02*
X47268Y-47801D01*
G54D24*
X42318Y-48976D02*
X40993Y-48976D01*
X39318Y-50651D02*
X39318Y-51401D01*
X40993Y-48976D02*
X39318Y-50651D01*
G54D21*
X42653Y-48976D02*
X42318Y-48976D01*
X42318Y-48976D02*
X42293Y-48976D01*
G54D23*
X49947Y-48001D02*
X50018Y-48072D01*
G54D21*
X41693Y-47800D02*
X42467Y-47800D01*
X42467Y-47800D02*
X42653Y-47986D01*
X42653Y-47986D02*
X42653Y-48976D01*
G54D20*
X50018Y-48072D02*
X50018Y-47701D01*
X50412Y-47307D02*
X50412Y-46792D01*
X50018Y-47701D02*
X50412Y-47307D01*
G54D22*
X42653Y-48976D02*
X42653Y-48976D01*
G54D21*
X40868Y-47800D02*
X41693Y-47800D01*
X40868Y-28036D02*
X41693Y-28036D01*
G54D22*
X42653Y-29212D02*
X42653Y-29212D01*
G54D20*
X50018Y-27937D02*
X50412Y-27543D01*
X50412Y-27543D02*
X50412Y-27028D01*
X50018Y-28308D02*
X50018Y-27937D01*
G54D21*
X42653Y-28222D02*
X42653Y-29212D01*
X42467Y-28036D02*
X42653Y-28222D01*
X41693Y-28036D02*
X42467Y-28036D01*
G54D23*
X49947Y-28237D02*
X50018Y-28308D01*
G54D21*
X42318Y-29212D02*
X42293Y-29212D01*
X42653Y-29212D02*
X42318Y-29212D01*
G54D24*
X40993Y-29212D02*
X39318Y-30887D01*
X39318Y-30887D02*
X39318Y-31637D01*
X42318Y-29212D02*
X40993Y-29212D01*
G54D20*
X42838Y-28037D02*
X47268Y-28037D01*
X47268Y-28037D02*
X47568Y-28337D01*
X47568Y-28337D02*
X49989Y-28337D01*
G54D21*
X49989Y-28337D02*
X50018Y-28308D01*
G54D20*
X42653Y-28222D02*
X42838Y-28037D01*
X42653Y-38104D02*
X42838Y-37919D01*
G54D21*
X49989Y-38219D02*
X50018Y-38190D01*
G54D20*
X47568Y-38219D02*
X49989Y-38219D01*
X47268Y-37919D02*
X47568Y-38219D01*
X42838Y-37919D02*
X47268Y-37919D01*
G54D24*
X42318Y-39094D02*
X40993Y-39094D01*
X39318Y-40769D02*
X39318Y-41519D01*
X40993Y-39094D02*
X39318Y-40769D01*
G54D21*
X42653Y-39094D02*
X42318Y-39094D01*
X42318Y-39094D02*
X42293Y-39094D01*
G54D23*
X49947Y-38119D02*
X50018Y-38190D01*
G54D21*
X41693Y-37918D02*
X42467Y-37918D01*
X42467Y-37918D02*
X42653Y-38104D01*
X42653Y-38104D02*
X42653Y-39094D01*
G54D20*
X50018Y-38190D02*
X50018Y-37819D01*
X50412Y-37425D02*
X50412Y-36910D01*
X50018Y-37819D02*
X50412Y-37425D01*
G54D22*
X42653Y-39094D02*
X42653Y-39094D01*
G54D21*
X40868Y-37918D02*
X41693Y-37918D01*
X27994Y-37918D02*
X28819Y-37918D01*
G54D22*
X29779Y-39094D02*
X29779Y-39094D01*
G54D20*
X37144Y-37819D02*
X37538Y-37425D01*
X37538Y-37425D02*
X37538Y-36910D01*
X37144Y-38190D02*
X37144Y-37819D01*
G54D21*
X29779Y-38104D02*
X29779Y-39094D01*
X29593Y-37918D02*
X29779Y-38104D01*
X28819Y-37918D02*
X29593Y-37918D01*
G54D23*
X37073Y-38119D02*
X37144Y-38190D01*
G54D21*
X29444Y-39094D02*
X29419Y-39094D01*
X29779Y-39094D02*
X29444Y-39094D01*
G54D24*
X28119Y-39094D02*
X26444Y-40769D01*
X26444Y-40769D02*
X26444Y-41519D01*
X29444Y-39094D02*
X28119Y-39094D01*
G54D20*
X29964Y-37919D02*
X34394Y-37919D01*
X34394Y-37919D02*
X34694Y-38219D01*
X34694Y-38219D02*
X37115Y-38219D01*
G54D21*
X37115Y-38219D02*
X37144Y-38190D01*
G54D20*
X29779Y-38104D02*
X29964Y-37919D01*
X29779Y-28222D02*
X29964Y-28037D01*
G54D21*
X37115Y-28337D02*
X37144Y-28308D01*
G54D20*
X34694Y-28337D02*
X37115Y-28337D01*
X34394Y-28037D02*
X34694Y-28337D01*
X29964Y-28037D02*
X34394Y-28037D01*
G54D24*
X29444Y-29212D02*
X28119Y-29212D01*
X26444Y-30887D02*
X26444Y-31637D01*
X28119Y-29212D02*
X26444Y-30887D01*
G54D21*
X29779Y-29212D02*
X29444Y-29212D01*
X29444Y-29212D02*
X29419Y-29212D01*
G54D23*
X37073Y-28237D02*
X37144Y-28308D01*
G54D21*
X28819Y-28036D02*
X29593Y-28036D01*
X29593Y-28036D02*
X29779Y-28222D01*
X29779Y-28222D02*
X29779Y-29212D01*
G54D20*
X37144Y-28308D02*
X37144Y-27937D01*
X37538Y-27543D02*
X37538Y-27028D01*
X37144Y-27937D02*
X37538Y-27543D01*
G54D22*
X29779Y-29212D02*
X29779Y-29212D01*
G54D21*
X27994Y-28036D02*
X28819Y-28036D01*
X27994Y-47800D02*
X28819Y-47800D01*
G54D22*
X29779Y-48976D02*
X29779Y-48976D01*
G54D20*
X37144Y-47701D02*
X37538Y-47307D01*
X37538Y-47307D02*
X37538Y-46792D01*
X37144Y-48072D02*
X37144Y-47701D01*
G54D21*
X29779Y-47986D02*
X29779Y-48976D01*
X29593Y-47800D02*
X29779Y-47986D01*
X28819Y-47800D02*
X29593Y-47800D01*
G54D23*
X37073Y-48001D02*
X37144Y-48072D01*
G54D21*
X29444Y-48976D02*
X29419Y-48976D01*
X29779Y-48976D02*
X29444Y-48976D01*
G54D24*
X28119Y-48976D02*
X26444Y-50651D01*
X26444Y-50651D02*
X26444Y-51401D01*
X29444Y-48976D02*
X28119Y-48976D01*
G54D20*
X29964Y-47801D02*
X34394Y-47801D01*
X34394Y-47801D02*
X34694Y-48101D01*
X34694Y-48101D02*
X37115Y-48101D01*
G54D21*
X37115Y-48101D02*
X37144Y-48072D01*
G54D20*
X29779Y-47986D02*
X29964Y-47801D01*
X29779Y-57868D02*
X29964Y-57683D01*
G54D21*
X37115Y-57983D02*
X37144Y-57954D01*
G54D20*
X34694Y-57983D02*
X37115Y-57983D01*
X34394Y-57683D02*
X34694Y-57983D01*
X29964Y-57683D02*
X34394Y-57683D01*
G54D24*
X29444Y-58858D02*
X28119Y-58858D01*
X26444Y-60533D02*
X26444Y-61283D01*
X28119Y-58858D02*
X26444Y-60533D01*
G54D21*
X29779Y-58858D02*
X29444Y-58858D01*
X29444Y-58858D02*
X29419Y-58858D01*
G54D23*
X37073Y-57883D02*
X37144Y-57954D01*
G54D21*
X28819Y-57682D02*
X29593Y-57682D01*
X29593Y-57682D02*
X29779Y-57868D01*
X29779Y-57868D02*
X29779Y-58858D01*
G54D20*
X37144Y-57954D02*
X37144Y-57583D01*
X37538Y-57189D02*
X37538Y-56674D01*
X37144Y-57583D02*
X37538Y-57189D01*
G54D22*
X29779Y-58858D02*
X29779Y-58858D01*
G54D21*
X27994Y-57682D02*
X28819Y-57682D01*
X53742Y-37918D02*
X54567Y-37918D01*
G54D22*
X55527Y-39094D02*
X55527Y-39094D01*
G54D20*
X62892Y-37819D02*
X63286Y-37425D01*
X63286Y-37425D02*
X63286Y-36910D01*
X62892Y-38190D02*
X62892Y-37819D01*
G54D21*
X55527Y-38104D02*
X55527Y-39094D01*
X55341Y-37918D02*
X55527Y-38104D01*
X54567Y-37918D02*
X55341Y-37918D01*
G54D23*
X62821Y-38119D02*
X62892Y-38190D01*
G54D21*
X55192Y-39094D02*
X55167Y-39094D01*
X55527Y-39094D02*
X55192Y-39094D01*
G54D24*
X53867Y-39094D02*
X52192Y-40769D01*
X52192Y-40769D02*
X52192Y-41519D01*
X55192Y-39094D02*
X53867Y-39094D01*
G54D20*
X55712Y-37919D02*
X60142Y-37919D01*
X60142Y-37919D02*
X60442Y-38219D01*
X60442Y-38219D02*
X62863Y-38219D01*
G54D21*
X62863Y-38219D02*
X62892Y-38190D01*
G54D20*
X55527Y-38104D02*
X55712Y-37919D01*
X55527Y-28222D02*
X55712Y-28037D01*
G54D21*
X62863Y-28337D02*
X62892Y-28308D01*
G54D20*
X60442Y-28337D02*
X62863Y-28337D01*
X60142Y-28037D02*
X60442Y-28337D01*
X55712Y-28037D02*
X60142Y-28037D01*
G54D24*
X55192Y-29212D02*
X53867Y-29212D01*
X52192Y-30887D02*
X52192Y-31637D01*
X53867Y-29212D02*
X52192Y-30887D01*
G54D21*
X55527Y-29212D02*
X55192Y-29212D01*
X55192Y-29212D02*
X55167Y-29212D01*
G54D23*
X62821Y-28237D02*
X62892Y-28308D01*
G54D21*
X54567Y-28036D02*
X55341Y-28036D01*
X55341Y-28036D02*
X55527Y-28222D01*
X55527Y-28222D02*
X55527Y-29212D01*
G54D20*
X62892Y-28308D02*
X62892Y-27937D01*
X63286Y-27543D02*
X63286Y-27028D01*
X62892Y-27937D02*
X63286Y-27543D01*
G54D22*
X55527Y-29212D02*
X55527Y-29212D01*
G54D21*
X53742Y-28036D02*
X54567Y-28036D01*
X53742Y-47800D02*
X54567Y-47800D01*
G54D22*
X55527Y-48976D02*
X55527Y-48976D01*
G54D20*
X62892Y-47701D02*
X63286Y-47307D01*
X63286Y-47307D02*
X63286Y-46792D01*
X62892Y-48072D02*
X62892Y-47701D01*
G54D21*
X55527Y-47986D02*
X55527Y-48976D01*
X55341Y-47800D02*
X55527Y-47986D01*
X54567Y-47800D02*
X55341Y-47800D01*
G54D23*
X62821Y-48001D02*
X62892Y-48072D01*
G54D21*
X55192Y-48976D02*
X55167Y-48976D01*
X55527Y-48976D02*
X55192Y-48976D01*
G54D24*
X53867Y-48976D02*
X52192Y-50651D01*
X52192Y-50651D02*
X52192Y-51401D01*
X55192Y-48976D02*
X53867Y-48976D01*
G54D20*
X55712Y-47801D02*
X60142Y-47801D01*
X60142Y-47801D02*
X60442Y-48101D01*
X60442Y-48101D02*
X62863Y-48101D01*
G54D21*
X62863Y-48101D02*
X62892Y-48072D01*
G54D20*
X55527Y-47986D02*
X55712Y-47801D01*
X55527Y-57868D02*
X55712Y-57683D01*
G54D21*
X62863Y-57983D02*
X62892Y-57954D01*
G54D20*
X60442Y-57983D02*
X62863Y-57983D01*
X60142Y-57683D02*
X60442Y-57983D01*
X55712Y-57683D02*
X60142Y-57683D01*
G54D24*
X55192Y-58858D02*
X53867Y-58858D01*
X52192Y-60533D02*
X52192Y-61283D01*
X53867Y-58858D02*
X52192Y-60533D01*
G54D21*
X55527Y-58858D02*
X55192Y-58858D01*
X55192Y-58858D02*
X55167Y-58858D01*
G54D23*
X62821Y-57883D02*
X62892Y-57954D01*
G54D21*
X54567Y-57682D02*
X55341Y-57682D01*
X55341Y-57682D02*
X55527Y-57868D01*
X55527Y-57868D02*
X55527Y-58858D01*
G54D20*
X62892Y-57954D02*
X62892Y-57583D01*
X63286Y-57189D02*
X63286Y-56674D01*
X62892Y-57583D02*
X63286Y-57189D01*
G54D22*
X55527Y-58858D02*
X55527Y-58858D01*
G54D21*
X53742Y-57682D02*
X54567Y-57682D01*
G54D20*
X45613Y-59733D02*
X45613Y-60383D01*
X45613Y-49851D02*
X45613Y-50501D01*
X45613Y-30087D02*
X45613Y-30737D01*
X45613Y-39969D02*
X45613Y-40619D01*
X32739Y-39969D02*
X32739Y-40619D01*
X32739Y-30087D02*
X32739Y-30737D01*
X32739Y-49851D02*
X32739Y-50501D01*
X32739Y-59733D02*
X32739Y-60383D01*
X58487Y-39969D02*
X58487Y-40619D01*
X58487Y-30087D02*
X58487Y-30737D01*
X58487Y-49851D02*
X58487Y-50501D01*
X58487Y-59733D02*
X58487Y-60383D01*
X46613Y-59733D02*
X46613Y-60383D01*
X46613Y-49851D02*
X46613Y-50501D01*
X46613Y-30087D02*
X46613Y-30737D01*
X46613Y-39969D02*
X46613Y-40619D01*
X33739Y-39969D02*
X33739Y-40619D01*
X33739Y-30087D02*
X33739Y-30737D01*
X33739Y-49851D02*
X33739Y-50501D01*
X33739Y-59733D02*
X33739Y-60383D01*
X59487Y-39969D02*
X59487Y-40619D01*
X59487Y-30087D02*
X59487Y-30737D01*
X59487Y-49851D02*
X59487Y-50501D01*
X59487Y-59733D02*
X59487Y-60383D01*
X47613Y-60383D02*
X47613Y-59733D01*
X47613Y-50501D02*
X47613Y-49851D01*
X47613Y-30737D02*
X47613Y-30087D01*
X47613Y-40619D02*
X47613Y-39969D01*
X34739Y-40619D02*
X34739Y-39969D01*
X34739Y-30737D02*
X34739Y-30087D01*
X34739Y-50501D02*
X34739Y-49851D01*
X34739Y-60383D02*
X34739Y-59733D01*
X60487Y-40619D02*
X60487Y-39969D01*
X60487Y-30737D02*
X60487Y-30087D01*
X60487Y-50501D02*
X60487Y-49851D01*
X60487Y-60383D02*
X60487Y-59733D01*
X48613Y-60383D02*
X48613Y-59733D01*
X48613Y-50501D02*
X48613Y-49851D01*
X48613Y-30737D02*
X48613Y-30087D01*
X48613Y-40619D02*
X48613Y-39969D01*
X35739Y-40619D02*
X35739Y-39969D01*
X35739Y-30737D02*
X35739Y-30087D01*
X35739Y-50501D02*
X35739Y-49851D01*
X35739Y-60383D02*
X35739Y-59733D01*
X61487Y-40619D02*
X61487Y-39969D01*
X61487Y-30737D02*
X61487Y-30087D01*
X61487Y-50501D02*
X61487Y-49851D01*
X61487Y-60383D02*
X61487Y-59733D01*
X49613Y-60383D02*
X49613Y-59733D01*
X49613Y-50501D02*
X49613Y-49851D01*
X49613Y-30737D02*
X49613Y-30087D01*
X49613Y-40619D02*
X49613Y-39969D01*
X36739Y-40619D02*
X36739Y-39969D01*
X36739Y-30737D02*
X36739Y-30087D01*
X36739Y-50501D02*
X36739Y-49851D01*
X36739Y-60383D02*
X36739Y-59733D01*
X62487Y-40619D02*
X62487Y-39969D01*
X62487Y-30737D02*
X62487Y-30087D01*
X62487Y-50501D02*
X62487Y-49851D01*
X62487Y-60383D02*
X62487Y-59733D01*
X50613Y-60383D02*
X50613Y-59733D01*
X50613Y-50501D02*
X50613Y-49851D01*
X50613Y-30737D02*
X50613Y-30087D01*
X50613Y-40619D02*
X50613Y-39969D01*
X37739Y-40619D02*
X37739Y-39969D01*
X37739Y-30737D02*
X37739Y-30087D01*
X37739Y-50501D02*
X37739Y-49851D01*
X37739Y-60383D02*
X37739Y-59733D01*
X63487Y-40619D02*
X63487Y-39969D01*
X63487Y-30737D02*
X63487Y-30087D01*
X63487Y-50501D02*
X63487Y-49851D01*
X63487Y-60383D02*
X63487Y-59733D01*
X48613Y-54833D02*
X48613Y-54183D01*
X48613Y-44951D02*
X48613Y-44301D01*
X48613Y-25187D02*
X48613Y-24537D01*
X48613Y-35069D02*
X48613Y-34419D01*
X35739Y-35069D02*
X35739Y-34419D01*
X35739Y-25187D02*
X35739Y-24537D01*
X35739Y-44951D02*
X35739Y-44301D01*
X35739Y-54833D02*
X35739Y-54183D01*
X61487Y-35069D02*
X61487Y-34419D01*
X61487Y-25187D02*
X61487Y-24537D01*
X61487Y-44951D02*
X61487Y-44301D01*
X61487Y-54833D02*
X61487Y-54183D01*
X46613Y-54833D02*
X46613Y-54183D01*
X46613Y-44951D02*
X46613Y-44301D01*
X46613Y-25187D02*
X46613Y-24537D01*
X46613Y-35069D02*
X46613Y-34419D01*
X33739Y-35069D02*
X33739Y-34419D01*
X33739Y-25187D02*
X33739Y-24537D01*
X33739Y-44951D02*
X33739Y-44301D01*
X33739Y-54833D02*
X33739Y-54183D01*
X59487Y-35069D02*
X59487Y-34419D01*
X59487Y-25187D02*
X59487Y-24537D01*
X59487Y-44951D02*
X59487Y-44301D01*
X59487Y-54833D02*
X59487Y-54183D01*
X45613Y-54833D02*
X45613Y-54183D01*
X45613Y-44951D02*
X45613Y-44301D01*
X45613Y-25187D02*
X45613Y-24537D01*
X45613Y-35069D02*
X45613Y-34419D01*
X32739Y-35069D02*
X32739Y-34419D01*
X32739Y-25187D02*
X32739Y-24537D01*
X32739Y-44951D02*
X32739Y-44301D01*
X32739Y-54833D02*
X32739Y-54183D01*
X58487Y-35069D02*
X58487Y-34419D01*
X58487Y-25187D02*
X58487Y-24537D01*
X58487Y-44951D02*
X58487Y-44301D01*
X58487Y-54833D02*
X58487Y-54183D01*
X44613Y-54833D02*
X44613Y-54183D01*
X44613Y-44951D02*
X44613Y-44301D01*
X44613Y-25187D02*
X44613Y-24537D01*
X44613Y-35069D02*
X44613Y-34419D01*
X31739Y-35069D02*
X31739Y-34419D01*
X31739Y-25187D02*
X31739Y-24537D01*
X31739Y-44951D02*
X31739Y-44301D01*
X31739Y-54833D02*
X31739Y-54183D01*
X57487Y-35069D02*
X57487Y-34419D01*
X57487Y-25187D02*
X57487Y-24537D01*
X57487Y-44951D02*
X57487Y-44301D01*
X57487Y-54833D02*
X57487Y-54183D01*
X43613Y-54833D02*
X43613Y-54183D01*
X43613Y-44951D02*
X43613Y-44301D01*
X43613Y-25187D02*
X43613Y-24537D01*
X43613Y-35069D02*
X43613Y-34419D01*
X30739Y-35069D02*
X30739Y-34419D01*
X30739Y-25187D02*
X30739Y-24537D01*
X30739Y-44951D02*
X30739Y-44301D01*
X30739Y-54833D02*
X30739Y-54183D01*
X56487Y-35069D02*
X56487Y-34419D01*
X56487Y-25187D02*
X56487Y-24537D01*
X56487Y-44951D02*
X56487Y-44301D01*
X56487Y-54833D02*
X56487Y-54183D01*
X50023Y-55128D02*
X50023Y-54833D01*
X49968Y-55183D02*
X50023Y-55128D01*
X49018Y-55183D02*
X49968Y-55183D01*
X48018Y-55183D02*
X49018Y-55183D01*
X47018Y-55183D02*
X48018Y-55183D01*
X46018Y-55183D02*
X47018Y-55183D01*
X45018Y-55183D02*
X46018Y-55183D01*
X44018Y-55183D02*
X45018Y-55183D01*
X43018Y-55183D02*
X44018Y-55183D01*
G54D23*
X43018Y-54838D02*
X43023Y-54833D01*
G54D20*
X43018Y-55183D02*
X43018Y-54838D01*
G54D23*
X44018Y-54838D02*
X44023Y-54833D01*
G54D20*
X44018Y-55183D02*
X44018Y-54838D01*
G54D23*
X45018Y-54838D02*
X45023Y-54833D01*
G54D20*
X45018Y-55183D02*
X45018Y-54838D01*
G54D23*
X46018Y-54838D02*
X46023Y-54833D01*
G54D20*
X46018Y-55183D02*
X46018Y-54838D01*
G54D23*
X47018Y-54838D02*
X47023Y-54833D01*
G54D20*
X47018Y-55183D02*
X47018Y-54838D01*
G54D23*
X48018Y-54838D02*
X48023Y-54833D01*
G54D20*
X48018Y-55183D02*
X48018Y-54838D01*
G54D23*
X49018Y-54838D02*
X49023Y-54833D01*
G54D20*
X49018Y-55183D02*
X49018Y-54838D01*
X48018Y-59383D02*
X49018Y-59383D01*
X47018Y-59383D02*
X48018Y-59383D01*
X46018Y-59383D02*
X47018Y-59383D01*
X45018Y-59383D02*
X46018Y-59383D01*
X44018Y-59383D02*
X45018Y-59383D01*
X43018Y-59383D02*
X44018Y-59383D01*
X49018Y-59383D02*
X49968Y-59383D01*
X49968Y-59383D02*
X50023Y-59438D01*
X50023Y-59438D02*
X50023Y-59733D01*
G54D23*
X49018Y-59728D02*
X49023Y-59733D01*
G54D20*
X49018Y-59383D02*
X49018Y-59728D01*
G54D23*
X48018Y-59728D02*
X48023Y-59733D01*
G54D20*
X48018Y-59383D02*
X48018Y-59728D01*
G54D23*
X47018Y-59728D02*
X47023Y-59733D01*
G54D20*
X47018Y-59383D02*
X47018Y-59728D01*
G54D23*
X46018Y-59728D02*
X46023Y-59733D01*
G54D20*
X46018Y-59383D02*
X46018Y-59728D01*
G54D23*
X45018Y-59728D02*
X45023Y-59733D01*
G54D20*
X45018Y-59383D02*
X45018Y-59728D01*
G54D23*
X44018Y-59728D02*
X44023Y-59733D01*
G54D20*
X44018Y-59383D02*
X44018Y-59728D01*
G54D23*
X43018Y-59728D02*
X43023Y-59733D01*
G54D20*
X43018Y-59383D02*
X43018Y-59728D01*
X41718Y-59383D02*
X43018Y-59383D01*
X40708Y-55183D02*
X43018Y-55183D01*
X40708Y-55196D02*
X40708Y-55183D01*
X40708Y-45314D02*
X40708Y-45301D01*
X40708Y-45301D02*
X43018Y-45301D01*
X41718Y-49501D02*
X43018Y-49501D01*
X43018Y-49501D02*
X43018Y-49846D01*
G54D23*
X43018Y-49846D02*
X43023Y-49851D01*
G54D20*
X44018Y-49501D02*
X44018Y-49846D01*
G54D23*
X44018Y-49846D02*
X44023Y-49851D01*
G54D20*
X45018Y-49501D02*
X45018Y-49846D01*
G54D23*
X45018Y-49846D02*
X45023Y-49851D01*
G54D20*
X46018Y-49501D02*
X46018Y-49846D01*
G54D23*
X46018Y-49846D02*
X46023Y-49851D01*
G54D20*
X47018Y-49501D02*
X47018Y-49846D01*
G54D23*
X47018Y-49846D02*
X47023Y-49851D01*
G54D20*
X48018Y-49501D02*
X48018Y-49846D01*
G54D23*
X48018Y-49846D02*
X48023Y-49851D01*
G54D20*
X49018Y-49501D02*
X49018Y-49846D01*
G54D23*
X49018Y-49846D02*
X49023Y-49851D01*
G54D20*
X50023Y-49556D02*
X50023Y-49851D01*
X49968Y-49501D02*
X50023Y-49556D01*
X49018Y-49501D02*
X49968Y-49501D01*
X43018Y-49501D02*
X44018Y-49501D01*
X44018Y-49501D02*
X45018Y-49501D01*
X45018Y-49501D02*
X46018Y-49501D01*
X46018Y-49501D02*
X47018Y-49501D01*
X47018Y-49501D02*
X48018Y-49501D01*
X48018Y-49501D02*
X49018Y-49501D01*
X49018Y-45301D02*
X49018Y-44956D01*
G54D23*
X49018Y-44956D02*
X49023Y-44951D01*
G54D20*
X48018Y-45301D02*
X48018Y-44956D01*
G54D23*
X48018Y-44956D02*
X48023Y-44951D01*
G54D20*
X47018Y-45301D02*
X47018Y-44956D01*
G54D23*
X47018Y-44956D02*
X47023Y-44951D01*
G54D20*
X46018Y-45301D02*
X46018Y-44956D01*
G54D23*
X46018Y-44956D02*
X46023Y-44951D01*
G54D20*
X45018Y-45301D02*
X45018Y-44956D01*
G54D23*
X45018Y-44956D02*
X45023Y-44951D01*
G54D20*
X44018Y-45301D02*
X44018Y-44956D01*
G54D23*
X44018Y-44956D02*
X44023Y-44951D01*
G54D20*
X43018Y-45301D02*
X43018Y-44956D01*
G54D23*
X43018Y-44956D02*
X43023Y-44951D01*
G54D20*
X43018Y-45301D02*
X44018Y-45301D01*
X44018Y-45301D02*
X45018Y-45301D01*
X45018Y-45301D02*
X46018Y-45301D01*
X46018Y-45301D02*
X47018Y-45301D01*
X47018Y-45301D02*
X48018Y-45301D01*
X48018Y-45301D02*
X49018Y-45301D01*
X49018Y-45301D02*
X49968Y-45301D01*
X49968Y-45301D02*
X50023Y-45246D01*
X50023Y-45246D02*
X50023Y-44951D01*
X50023Y-25482D02*
X50023Y-25187D01*
X49968Y-25537D02*
X50023Y-25482D01*
X49018Y-25537D02*
X49968Y-25537D01*
X48018Y-25537D02*
X49018Y-25537D01*
X47018Y-25537D02*
X48018Y-25537D01*
X46018Y-25537D02*
X47018Y-25537D01*
X45018Y-25537D02*
X46018Y-25537D01*
X44018Y-25537D02*
X45018Y-25537D01*
X43018Y-25537D02*
X44018Y-25537D01*
G54D23*
X43018Y-25192D02*
X43023Y-25187D01*
G54D20*
X43018Y-25537D02*
X43018Y-25192D01*
G54D23*
X44018Y-25192D02*
X44023Y-25187D01*
G54D20*
X44018Y-25537D02*
X44018Y-25192D01*
G54D23*
X45018Y-25192D02*
X45023Y-25187D01*
G54D20*
X45018Y-25537D02*
X45018Y-25192D01*
G54D23*
X46018Y-25192D02*
X46023Y-25187D01*
G54D20*
X46018Y-25537D02*
X46018Y-25192D01*
G54D23*
X47018Y-25192D02*
X47023Y-25187D01*
G54D20*
X47018Y-25537D02*
X47018Y-25192D01*
G54D23*
X48018Y-25192D02*
X48023Y-25187D01*
G54D20*
X48018Y-25537D02*
X48018Y-25192D01*
G54D23*
X49018Y-25192D02*
X49023Y-25187D01*
G54D20*
X49018Y-25537D02*
X49018Y-25192D01*
X48018Y-29737D02*
X49018Y-29737D01*
X47018Y-29737D02*
X48018Y-29737D01*
X46018Y-29737D02*
X47018Y-29737D01*
X45018Y-29737D02*
X46018Y-29737D01*
X44018Y-29737D02*
X45018Y-29737D01*
X43018Y-29737D02*
X44018Y-29737D01*
X49018Y-29737D02*
X49968Y-29737D01*
X49968Y-29737D02*
X50023Y-29792D01*
X50023Y-29792D02*
X50023Y-30087D01*
G54D23*
X49018Y-30082D02*
X49023Y-30087D01*
G54D20*
X49018Y-29737D02*
X49018Y-30082D01*
G54D23*
X48018Y-30082D02*
X48023Y-30087D01*
G54D20*
X48018Y-29737D02*
X48018Y-30082D01*
G54D23*
X47018Y-30082D02*
X47023Y-30087D01*
G54D20*
X47018Y-29737D02*
X47018Y-30082D01*
G54D23*
X46018Y-30082D02*
X46023Y-30087D01*
G54D20*
X46018Y-29737D02*
X46018Y-30082D01*
G54D23*
X45018Y-30082D02*
X45023Y-30087D01*
G54D20*
X45018Y-29737D02*
X45018Y-30082D01*
G54D23*
X44018Y-30082D02*
X44023Y-30087D01*
G54D20*
X44018Y-29737D02*
X44018Y-30082D01*
G54D23*
X43018Y-30082D02*
X43023Y-30087D01*
G54D20*
X43018Y-29737D02*
X43018Y-30082D01*
X41718Y-29737D02*
X43018Y-29737D01*
X40708Y-25537D02*
X43018Y-25537D01*
X40708Y-25551D02*
X40708Y-25537D01*
X40708Y-35433D02*
X40708Y-35419D01*
X40708Y-35419D02*
X43018Y-35419D01*
X41718Y-39619D02*
X43018Y-39619D01*
X43018Y-39619D02*
X43018Y-39964D01*
G54D23*
X43018Y-39964D02*
X43023Y-39969D01*
G54D20*
X44018Y-39619D02*
X44018Y-39964D01*
G54D23*
X44018Y-39964D02*
X44023Y-39969D01*
G54D20*
X45018Y-39619D02*
X45018Y-39964D01*
G54D23*
X45018Y-39964D02*
X45023Y-39969D01*
G54D20*
X46018Y-39619D02*
X46018Y-39964D01*
G54D23*
X46018Y-39964D02*
X46023Y-39969D01*
G54D20*
X47018Y-39619D02*
X47018Y-39964D01*
G54D23*
X47018Y-39964D02*
X47023Y-39969D01*
G54D20*
X48018Y-39619D02*
X48018Y-39964D01*
G54D23*
X48018Y-39964D02*
X48023Y-39969D01*
G54D20*
X49018Y-39619D02*
X49018Y-39964D01*
G54D23*
X49018Y-39964D02*
X49023Y-39969D01*
G54D20*
X50023Y-39674D02*
X50023Y-39969D01*
X49968Y-39619D02*
X50023Y-39674D01*
X49018Y-39619D02*
X49968Y-39619D01*
X43018Y-39619D02*
X44018Y-39619D01*
X44018Y-39619D02*
X45018Y-39619D01*
X45018Y-39619D02*
X46018Y-39619D01*
X46018Y-39619D02*
X47018Y-39619D01*
X47018Y-39619D02*
X48018Y-39619D01*
X48018Y-39619D02*
X49018Y-39619D01*
X49018Y-35419D02*
X49018Y-35074D01*
G54D23*
X49018Y-35074D02*
X49023Y-35069D01*
G54D20*
X48018Y-35419D02*
X48018Y-35074D01*
G54D23*
X48018Y-35074D02*
X48023Y-35069D01*
G54D20*
X47018Y-35419D02*
X47018Y-35074D01*
G54D23*
X47018Y-35074D02*
X47023Y-35069D01*
G54D20*
X46018Y-35419D02*
X46018Y-35074D01*
G54D23*
X46018Y-35074D02*
X46023Y-35069D01*
G54D20*
X45018Y-35419D02*
X45018Y-35074D01*
G54D23*
X45018Y-35074D02*
X45023Y-35069D01*
G54D20*
X44018Y-35419D02*
X44018Y-35074D01*
G54D23*
X44018Y-35074D02*
X44023Y-35069D01*
G54D20*
X43018Y-35419D02*
X43018Y-35074D01*
G54D23*
X43018Y-35074D02*
X43023Y-35069D01*
G54D20*
X43018Y-35419D02*
X44018Y-35419D01*
X44018Y-35419D02*
X45018Y-35419D01*
X45018Y-35419D02*
X46018Y-35419D01*
X46018Y-35419D02*
X47018Y-35419D01*
X47018Y-35419D02*
X48018Y-35419D01*
X48018Y-35419D02*
X49018Y-35419D01*
X49018Y-35419D02*
X49968Y-35419D01*
X49968Y-35419D02*
X50023Y-35364D01*
X50023Y-35364D02*
X50023Y-35069D01*
X37149Y-35364D02*
X37149Y-35069D01*
X37094Y-35419D02*
X37149Y-35364D01*
X36144Y-35419D02*
X37094Y-35419D01*
X35144Y-35419D02*
X36144Y-35419D01*
X34144Y-35419D02*
X35144Y-35419D01*
X33144Y-35419D02*
X34144Y-35419D01*
X32144Y-35419D02*
X33144Y-35419D01*
X31144Y-35419D02*
X32144Y-35419D01*
X30144Y-35419D02*
X31144Y-35419D01*
G54D23*
X30144Y-35074D02*
X30149Y-35069D01*
G54D20*
X30144Y-35419D02*
X30144Y-35074D01*
G54D23*
X31144Y-35074D02*
X31149Y-35069D01*
G54D20*
X31144Y-35419D02*
X31144Y-35074D01*
G54D23*
X32144Y-35074D02*
X32149Y-35069D01*
G54D20*
X32144Y-35419D02*
X32144Y-35074D01*
G54D23*
X33144Y-35074D02*
X33149Y-35069D01*
G54D20*
X33144Y-35419D02*
X33144Y-35074D01*
G54D23*
X34144Y-35074D02*
X34149Y-35069D01*
G54D20*
X34144Y-35419D02*
X34144Y-35074D01*
G54D23*
X35144Y-35074D02*
X35149Y-35069D01*
G54D20*
X35144Y-35419D02*
X35144Y-35074D01*
G54D23*
X36144Y-35074D02*
X36149Y-35069D01*
G54D20*
X36144Y-35419D02*
X36144Y-35074D01*
X35144Y-39619D02*
X36144Y-39619D01*
X34144Y-39619D02*
X35144Y-39619D01*
X33144Y-39619D02*
X34144Y-39619D01*
X32144Y-39619D02*
X33144Y-39619D01*
X31144Y-39619D02*
X32144Y-39619D01*
X30144Y-39619D02*
X31144Y-39619D01*
X36144Y-39619D02*
X37094Y-39619D01*
X37094Y-39619D02*
X37149Y-39674D01*
X37149Y-39674D02*
X37149Y-39969D01*
G54D23*
X36144Y-39964D02*
X36149Y-39969D01*
G54D20*
X36144Y-39619D02*
X36144Y-39964D01*
G54D23*
X35144Y-39964D02*
X35149Y-39969D01*
G54D20*
X35144Y-39619D02*
X35144Y-39964D01*
G54D23*
X34144Y-39964D02*
X34149Y-39969D01*
G54D20*
X34144Y-39619D02*
X34144Y-39964D01*
G54D23*
X33144Y-39964D02*
X33149Y-39969D01*
G54D20*
X33144Y-39619D02*
X33144Y-39964D01*
G54D23*
X32144Y-39964D02*
X32149Y-39969D01*
G54D20*
X32144Y-39619D02*
X32144Y-39964D01*
G54D23*
X31144Y-39964D02*
X31149Y-39969D01*
G54D20*
X31144Y-39619D02*
X31144Y-39964D01*
G54D23*
X30144Y-39964D02*
X30149Y-39969D01*
G54D20*
X30144Y-39619D02*
X30144Y-39964D01*
X28844Y-39619D02*
X30144Y-39619D01*
X27834Y-35419D02*
X30144Y-35419D01*
X27834Y-35433D02*
X27834Y-35419D01*
X27834Y-25551D02*
X27834Y-25537D01*
X27834Y-25537D02*
X30144Y-25537D01*
X28844Y-29737D02*
X30144Y-29737D01*
X30144Y-29737D02*
X30144Y-30082D01*
G54D23*
X30144Y-30082D02*
X30149Y-30087D01*
G54D20*
X31144Y-29737D02*
X31144Y-30082D01*
G54D23*
X31144Y-30082D02*
X31149Y-30087D01*
G54D20*
X32144Y-29737D02*
X32144Y-30082D01*
G54D23*
X32144Y-30082D02*
X32149Y-30087D01*
G54D20*
X33144Y-29737D02*
X33144Y-30082D01*
G54D23*
X33144Y-30082D02*
X33149Y-30087D01*
G54D20*
X34144Y-29737D02*
X34144Y-30082D01*
G54D23*
X34144Y-30082D02*
X34149Y-30087D01*
G54D20*
X35144Y-29737D02*
X35144Y-30082D01*
G54D23*
X35144Y-30082D02*
X35149Y-30087D01*
G54D20*
X36144Y-29737D02*
X36144Y-30082D01*
G54D23*
X36144Y-30082D02*
X36149Y-30087D01*
G54D20*
X37149Y-29792D02*
X37149Y-30087D01*
X37094Y-29737D02*
X37149Y-29792D01*
X36144Y-29737D02*
X37094Y-29737D01*
X30144Y-29737D02*
X31144Y-29737D01*
X31144Y-29737D02*
X32144Y-29737D01*
X32144Y-29737D02*
X33144Y-29737D01*
X33144Y-29737D02*
X34144Y-29737D01*
X34144Y-29737D02*
X35144Y-29737D01*
X35144Y-29737D02*
X36144Y-29737D01*
X36144Y-25537D02*
X36144Y-25192D01*
G54D23*
X36144Y-25192D02*
X36149Y-25187D01*
G54D20*
X35144Y-25537D02*
X35144Y-25192D01*
G54D23*
X35144Y-25192D02*
X35149Y-25187D01*
G54D20*
X34144Y-25537D02*
X34144Y-25192D01*
G54D23*
X34144Y-25192D02*
X34149Y-25187D01*
G54D20*
X33144Y-25537D02*
X33144Y-25192D01*
G54D23*
X33144Y-25192D02*
X33149Y-25187D01*
G54D20*
X32144Y-25537D02*
X32144Y-25192D01*
G54D23*
X32144Y-25192D02*
X32149Y-25187D01*
G54D20*
X31144Y-25537D02*
X31144Y-25192D01*
G54D23*
X31144Y-25192D02*
X31149Y-25187D01*
G54D20*
X30144Y-25537D02*
X30144Y-25192D01*
G54D23*
X30144Y-25192D02*
X30149Y-25187D01*
G54D20*
X30144Y-25537D02*
X31144Y-25537D01*
X31144Y-25537D02*
X32144Y-25537D01*
X32144Y-25537D02*
X33144Y-25537D01*
X33144Y-25537D02*
X34144Y-25537D01*
X34144Y-25537D02*
X35144Y-25537D01*
X35144Y-25537D02*
X36144Y-25537D01*
X36144Y-25537D02*
X37094Y-25537D01*
X37094Y-25537D02*
X37149Y-25482D01*
X37149Y-25482D02*
X37149Y-25187D01*
X37149Y-45246D02*
X37149Y-44951D01*
X37094Y-45301D02*
X37149Y-45246D01*
X36144Y-45301D02*
X37094Y-45301D01*
X35144Y-45301D02*
X36144Y-45301D01*
X34144Y-45301D02*
X35144Y-45301D01*
X33144Y-45301D02*
X34144Y-45301D01*
X32144Y-45301D02*
X33144Y-45301D01*
X31144Y-45301D02*
X32144Y-45301D01*
X30144Y-45301D02*
X31144Y-45301D01*
G54D23*
X30144Y-44956D02*
X30149Y-44951D01*
G54D20*
X30144Y-45301D02*
X30144Y-44956D01*
G54D23*
X31144Y-44956D02*
X31149Y-44951D01*
G54D20*
X31144Y-45301D02*
X31144Y-44956D01*
G54D23*
X32144Y-44956D02*
X32149Y-44951D01*
G54D20*
X32144Y-45301D02*
X32144Y-44956D01*
G54D23*
X33144Y-44956D02*
X33149Y-44951D01*
G54D20*
X33144Y-45301D02*
X33144Y-44956D01*
G54D23*
X34144Y-44956D02*
X34149Y-44951D01*
G54D20*
X34144Y-45301D02*
X34144Y-44956D01*
G54D23*
X35144Y-44956D02*
X35149Y-44951D01*
G54D20*
X35144Y-45301D02*
X35144Y-44956D01*
G54D23*
X36144Y-44956D02*
X36149Y-44951D01*
G54D20*
X36144Y-45301D02*
X36144Y-44956D01*
X35144Y-49501D02*
X36144Y-49501D01*
X34144Y-49501D02*
X35144Y-49501D01*
X33144Y-49501D02*
X34144Y-49501D01*
X32144Y-49501D02*
X33144Y-49501D01*
X31144Y-49501D02*
X32144Y-49501D01*
X30144Y-49501D02*
X31144Y-49501D01*
X36144Y-49501D02*
X37094Y-49501D01*
X37094Y-49501D02*
X37149Y-49556D01*
X37149Y-49556D02*
X37149Y-49851D01*
G54D23*
X36144Y-49846D02*
X36149Y-49851D01*
G54D20*
X36144Y-49501D02*
X36144Y-49846D01*
G54D23*
X35144Y-49846D02*
X35149Y-49851D01*
G54D20*
X35144Y-49501D02*
X35144Y-49846D01*
G54D23*
X34144Y-49846D02*
X34149Y-49851D01*
G54D20*
X34144Y-49501D02*
X34144Y-49846D01*
G54D23*
X33144Y-49846D02*
X33149Y-49851D01*
G54D20*
X33144Y-49501D02*
X33144Y-49846D01*
G54D23*
X32144Y-49846D02*
X32149Y-49851D01*
G54D20*
X32144Y-49501D02*
X32144Y-49846D01*
G54D23*
X31144Y-49846D02*
X31149Y-49851D01*
G54D20*
X31144Y-49501D02*
X31144Y-49846D01*
G54D23*
X30144Y-49846D02*
X30149Y-49851D01*
G54D20*
X30144Y-49501D02*
X30144Y-49846D01*
X28844Y-49501D02*
X30144Y-49501D01*
X27834Y-45301D02*
X30144Y-45301D01*
X27834Y-45314D02*
X27834Y-45301D01*
X27834Y-55196D02*
X27834Y-55183D01*
X27834Y-55183D02*
X30144Y-55183D01*
X28844Y-59383D02*
X30144Y-59383D01*
X30144Y-59383D02*
X30144Y-59728D01*
G54D23*
X30144Y-59728D02*
X30149Y-59733D01*
G54D20*
X31144Y-59383D02*
X31144Y-59728D01*
G54D23*
X31144Y-59728D02*
X31149Y-59733D01*
G54D20*
X32144Y-59383D02*
X32144Y-59728D01*
G54D23*
X32144Y-59728D02*
X32149Y-59733D01*
G54D20*
X33144Y-59383D02*
X33144Y-59728D01*
G54D23*
X33144Y-59728D02*
X33149Y-59733D01*
G54D20*
X34144Y-59383D02*
X34144Y-59728D01*
G54D23*
X34144Y-59728D02*
X34149Y-59733D01*
G54D20*
X35144Y-59383D02*
X35144Y-59728D01*
G54D23*
X35144Y-59728D02*
X35149Y-59733D01*
G54D20*
X36144Y-59383D02*
X36144Y-59728D01*
G54D23*
X36144Y-59728D02*
X36149Y-59733D01*
G54D20*
X37149Y-59438D02*
X37149Y-59733D01*
X37094Y-59383D02*
X37149Y-59438D01*
X36144Y-59383D02*
X37094Y-59383D01*
X30144Y-59383D02*
X31144Y-59383D01*
X31144Y-59383D02*
X32144Y-59383D01*
X32144Y-59383D02*
X33144Y-59383D01*
X33144Y-59383D02*
X34144Y-59383D01*
X34144Y-59383D02*
X35144Y-59383D01*
X35144Y-59383D02*
X36144Y-59383D01*
X36144Y-55183D02*
X36144Y-54838D01*
G54D23*
X36144Y-54838D02*
X36149Y-54833D01*
G54D20*
X35144Y-55183D02*
X35144Y-54838D01*
G54D23*
X35144Y-54838D02*
X35149Y-54833D01*
G54D20*
X34144Y-55183D02*
X34144Y-54838D01*
G54D23*
X34144Y-54838D02*
X34149Y-54833D01*
G54D20*
X33144Y-55183D02*
X33144Y-54838D01*
G54D23*
X33144Y-54838D02*
X33149Y-54833D01*
G54D20*
X32144Y-55183D02*
X32144Y-54838D01*
G54D23*
X32144Y-54838D02*
X32149Y-54833D01*
G54D20*
X31144Y-55183D02*
X31144Y-54838D01*
G54D23*
X31144Y-54838D02*
X31149Y-54833D01*
G54D20*
X30144Y-55183D02*
X30144Y-54838D01*
G54D23*
X30144Y-54838D02*
X30149Y-54833D01*
G54D20*
X30144Y-55183D02*
X31144Y-55183D01*
X31144Y-55183D02*
X32144Y-55183D01*
X32144Y-55183D02*
X33144Y-55183D01*
X33144Y-55183D02*
X34144Y-55183D01*
X34144Y-55183D02*
X35144Y-55183D01*
X35144Y-55183D02*
X36144Y-55183D01*
X36144Y-55183D02*
X37094Y-55183D01*
X37094Y-55183D02*
X37149Y-55128D01*
X37149Y-55128D02*
X37149Y-54833D01*
X62897Y-35364D02*
X62897Y-35069D01*
X62842Y-35419D02*
X62897Y-35364D01*
X61892Y-35419D02*
X62842Y-35419D01*
X60892Y-35419D02*
X61892Y-35419D01*
X59892Y-35419D02*
X60892Y-35419D01*
X58892Y-35419D02*
X59892Y-35419D01*
X57892Y-35419D02*
X58892Y-35419D01*
X56892Y-35419D02*
X57892Y-35419D01*
X55892Y-35419D02*
X56892Y-35419D01*
G54D23*
X55892Y-35074D02*
X55897Y-35069D01*
G54D20*
X55892Y-35419D02*
X55892Y-35074D01*
G54D23*
X56892Y-35074D02*
X56897Y-35069D01*
G54D20*
X56892Y-35419D02*
X56892Y-35074D01*
G54D23*
X57892Y-35074D02*
X57897Y-35069D01*
G54D20*
X57892Y-35419D02*
X57892Y-35074D01*
G54D23*
X58892Y-35074D02*
X58897Y-35069D01*
G54D20*
X58892Y-35419D02*
X58892Y-35074D01*
G54D23*
X59892Y-35074D02*
X59897Y-35069D01*
G54D20*
X59892Y-35419D02*
X59892Y-35074D01*
G54D23*
X60892Y-35074D02*
X60897Y-35069D01*
G54D20*
X60892Y-35419D02*
X60892Y-35074D01*
G54D23*
X61892Y-35074D02*
X61897Y-35069D01*
G54D20*
X61892Y-35419D02*
X61892Y-35074D01*
X60892Y-39619D02*
X61892Y-39619D01*
X59892Y-39619D02*
X60892Y-39619D01*
X58892Y-39619D02*
X59892Y-39619D01*
X57892Y-39619D02*
X58892Y-39619D01*
X56892Y-39619D02*
X57892Y-39619D01*
X55892Y-39619D02*
X56892Y-39619D01*
X61892Y-39619D02*
X62842Y-39619D01*
X62842Y-39619D02*
X62897Y-39674D01*
X62897Y-39674D02*
X62897Y-39969D01*
G54D23*
X61892Y-39964D02*
X61897Y-39969D01*
G54D20*
X61892Y-39619D02*
X61892Y-39964D01*
G54D23*
X60892Y-39964D02*
X60897Y-39969D01*
G54D20*
X60892Y-39619D02*
X60892Y-39964D01*
G54D23*
X59892Y-39964D02*
X59897Y-39969D01*
G54D20*
X59892Y-39619D02*
X59892Y-39964D01*
G54D23*
X58892Y-39964D02*
X58897Y-39969D01*
G54D20*
X58892Y-39619D02*
X58892Y-39964D01*
G54D23*
X57892Y-39964D02*
X57897Y-39969D01*
G54D20*
X57892Y-39619D02*
X57892Y-39964D01*
G54D23*
X56892Y-39964D02*
X56897Y-39969D01*
G54D20*
X56892Y-39619D02*
X56892Y-39964D01*
G54D23*
X55892Y-39964D02*
X55897Y-39969D01*
G54D20*
X55892Y-39619D02*
X55892Y-39964D01*
X54592Y-39619D02*
X55892Y-39619D01*
X53582Y-35419D02*
X55892Y-35419D01*
X53582Y-35433D02*
X53582Y-35419D01*
X53582Y-25551D02*
X53582Y-25537D01*
X53582Y-25537D02*
X55892Y-25537D01*
X54592Y-29737D02*
X55892Y-29737D01*
X55892Y-29737D02*
X55892Y-30082D01*
G54D23*
X55892Y-30082D02*
X55897Y-30087D01*
G54D20*
X56892Y-29737D02*
X56892Y-30082D01*
G54D23*
X56892Y-30082D02*
X56897Y-30087D01*
G54D20*
X57892Y-29737D02*
X57892Y-30082D01*
G54D23*
X57892Y-30082D02*
X57897Y-30087D01*
G54D20*
X58892Y-29737D02*
X58892Y-30082D01*
G54D23*
X58892Y-30082D02*
X58897Y-30087D01*
G54D20*
X59892Y-29737D02*
X59892Y-30082D01*
G54D23*
X59892Y-30082D02*
X59897Y-30087D01*
G54D20*
X60892Y-29737D02*
X60892Y-30082D01*
G54D23*
X60892Y-30082D02*
X60897Y-30087D01*
G54D20*
X61892Y-29737D02*
X61892Y-30082D01*
G54D23*
X61892Y-30082D02*
X61897Y-30087D01*
G54D20*
X62897Y-29792D02*
X62897Y-30087D01*
X62842Y-29737D02*
X62897Y-29792D01*
X61892Y-29737D02*
X62842Y-29737D01*
X55892Y-29737D02*
X56892Y-29737D01*
X56892Y-29737D02*
X57892Y-29737D01*
X57892Y-29737D02*
X58892Y-29737D01*
X58892Y-29737D02*
X59892Y-29737D01*
X59892Y-29737D02*
X60892Y-29737D01*
X60892Y-29737D02*
X61892Y-29737D01*
X61892Y-25537D02*
X61892Y-25192D01*
G54D23*
X61892Y-25192D02*
X61897Y-25187D01*
G54D20*
X60892Y-25537D02*
X60892Y-25192D01*
G54D23*
X60892Y-25192D02*
X60897Y-25187D01*
G54D20*
X59892Y-25537D02*
X59892Y-25192D01*
G54D23*
X59892Y-25192D02*
X59897Y-25187D01*
G54D20*
X58892Y-25537D02*
X58892Y-25192D01*
G54D23*
X58892Y-25192D02*
X58897Y-25187D01*
G54D20*
X57892Y-25537D02*
X57892Y-25192D01*
G54D23*
X57892Y-25192D02*
X57897Y-25187D01*
G54D20*
X56892Y-25537D02*
X56892Y-25192D01*
G54D23*
X56892Y-25192D02*
X56897Y-25187D01*
G54D20*
X55892Y-25537D02*
X55892Y-25192D01*
G54D23*
X55892Y-25192D02*
X55897Y-25187D01*
G54D20*
X55892Y-25537D02*
X56892Y-25537D01*
X56892Y-25537D02*
X57892Y-25537D01*
X57892Y-25537D02*
X58892Y-25537D01*
X58892Y-25537D02*
X59892Y-25537D01*
X59892Y-25537D02*
X60892Y-25537D01*
X60892Y-25537D02*
X61892Y-25537D01*
X61892Y-25537D02*
X62842Y-25537D01*
X62842Y-25537D02*
X62897Y-25482D01*
X62897Y-25482D02*
X62897Y-25187D01*
X62897Y-45246D02*
X62897Y-44951D01*
X62842Y-45301D02*
X62897Y-45246D01*
X61892Y-45301D02*
X62842Y-45301D01*
X60892Y-45301D02*
X61892Y-45301D01*
X59892Y-45301D02*
X60892Y-45301D01*
X58892Y-45301D02*
X59892Y-45301D01*
X57892Y-45301D02*
X58892Y-45301D01*
X56892Y-45301D02*
X57892Y-45301D01*
X55892Y-45301D02*
X56892Y-45301D01*
G54D23*
X55892Y-44956D02*
X55897Y-44951D01*
G54D20*
X55892Y-45301D02*
X55892Y-44956D01*
G54D23*
X56892Y-44956D02*
X56897Y-44951D01*
G54D20*
X56892Y-45301D02*
X56892Y-44956D01*
G54D23*
X57892Y-44956D02*
X57897Y-44951D01*
G54D20*
X57892Y-45301D02*
X57892Y-44956D01*
G54D23*
X58892Y-44956D02*
X58897Y-44951D01*
G54D20*
X58892Y-45301D02*
X58892Y-44956D01*
G54D23*
X59892Y-44956D02*
X59897Y-44951D01*
G54D20*
X59892Y-45301D02*
X59892Y-44956D01*
G54D23*
X60892Y-44956D02*
X60897Y-44951D01*
G54D20*
X60892Y-45301D02*
X60892Y-44956D01*
G54D23*
X61892Y-44956D02*
X61897Y-44951D01*
G54D20*
X61892Y-45301D02*
X61892Y-44956D01*
X60892Y-49501D02*
X61892Y-49501D01*
X59892Y-49501D02*
X60892Y-49501D01*
X58892Y-49501D02*
X59892Y-49501D01*
X57892Y-49501D02*
X58892Y-49501D01*
X56892Y-49501D02*
X57892Y-49501D01*
X55892Y-49501D02*
X56892Y-49501D01*
X61892Y-49501D02*
X62842Y-49501D01*
X62842Y-49501D02*
X62897Y-49556D01*
X62897Y-49556D02*
X62897Y-49851D01*
G54D23*
X61892Y-49846D02*
X61897Y-49851D01*
G54D20*
X61892Y-49501D02*
X61892Y-49846D01*
G54D23*
X60892Y-49846D02*
X60897Y-49851D01*
G54D20*
X60892Y-49501D02*
X60892Y-49846D01*
G54D23*
X59892Y-49846D02*
X59897Y-49851D01*
G54D20*
X59892Y-49501D02*
X59892Y-49846D01*
G54D23*
X58892Y-49846D02*
X58897Y-49851D01*
G54D20*
X58892Y-49501D02*
X58892Y-49846D01*
G54D23*
X57892Y-49846D02*
X57897Y-49851D01*
G54D20*
X57892Y-49501D02*
X57892Y-49846D01*
G54D23*
X56892Y-49846D02*
X56897Y-49851D01*
G54D20*
X56892Y-49501D02*
X56892Y-49846D01*
G54D23*
X55892Y-49846D02*
X55897Y-49851D01*
G54D20*
X55892Y-49501D02*
X55892Y-49846D01*
X54592Y-49501D02*
X55892Y-49501D01*
X53582Y-45301D02*
X55892Y-45301D01*
X53582Y-45314D02*
X53582Y-45301D01*
X53582Y-55196D02*
X53582Y-55183D01*
X53582Y-55183D02*
X55892Y-55183D01*
X54592Y-59383D02*
X55892Y-59383D01*
X55892Y-59383D02*
X55892Y-59728D01*
G54D23*
X55892Y-59728D02*
X55897Y-59733D01*
G54D20*
X56892Y-59383D02*
X56892Y-59728D01*
G54D23*
X56892Y-59728D02*
X56897Y-59733D01*
G54D20*
X57892Y-59383D02*
X57892Y-59728D01*
G54D23*
X57892Y-59728D02*
X57897Y-59733D01*
G54D20*
X58892Y-59383D02*
X58892Y-59728D01*
G54D23*
X58892Y-59728D02*
X58897Y-59733D01*
G54D20*
X59892Y-59383D02*
X59892Y-59728D01*
G54D23*
X59892Y-59728D02*
X59897Y-59733D01*
G54D20*
X60892Y-59383D02*
X60892Y-59728D01*
G54D23*
X60892Y-59728D02*
X60897Y-59733D01*
G54D20*
X61892Y-59383D02*
X61892Y-59728D01*
G54D23*
X61892Y-59728D02*
X61897Y-59733D01*
G54D20*
X62897Y-59438D02*
X62897Y-59733D01*
X62842Y-59383D02*
X62897Y-59438D01*
X61892Y-59383D02*
X62842Y-59383D01*
X55892Y-59383D02*
X56892Y-59383D01*
X56892Y-59383D02*
X57892Y-59383D01*
X57892Y-59383D02*
X58892Y-59383D01*
X58892Y-59383D02*
X59892Y-59383D01*
X59892Y-59383D02*
X60892Y-59383D01*
X60892Y-59383D02*
X61892Y-59383D01*
X61892Y-55183D02*
X61892Y-54838D01*
G54D23*
X61892Y-54838D02*
X61897Y-54833D01*
G54D20*
X60892Y-55183D02*
X60892Y-54838D01*
G54D23*
X60892Y-54838D02*
X60897Y-54833D01*
G54D20*
X59892Y-55183D02*
X59892Y-54838D01*
G54D23*
X59892Y-54838D02*
X59897Y-54833D01*
G54D20*
X58892Y-55183D02*
X58892Y-54838D01*
G54D23*
X58892Y-54838D02*
X58897Y-54833D01*
G54D20*
X57892Y-55183D02*
X57892Y-54838D01*
G54D23*
X57892Y-54838D02*
X57897Y-54833D01*
G54D20*
X56892Y-55183D02*
X56892Y-54838D01*
G54D23*
X56892Y-54838D02*
X56897Y-54833D01*
G54D20*
X55892Y-55183D02*
X55892Y-54838D01*
G54D23*
X55892Y-54838D02*
X55897Y-54833D01*
G54D20*
X55892Y-55183D02*
X56892Y-55183D01*
X56892Y-55183D02*
X57892Y-55183D01*
X57892Y-55183D02*
X58892Y-55183D01*
X58892Y-55183D02*
X59892Y-55183D01*
X59892Y-55183D02*
X60892Y-55183D01*
X60892Y-55183D02*
X61892Y-55183D01*
X61892Y-55183D02*
X62842Y-55183D01*
X62842Y-55183D02*
X62897Y-55128D01*
X62897Y-55128D02*
X62897Y-54833D01*
X49624Y-56674D02*
X49624Y-56977D01*
X49624Y-56977D02*
X49023Y-57578D01*
X49023Y-57578D02*
X48068Y-57578D01*
X49023Y-47696D02*
X48068Y-47696D01*
X49624Y-47095D02*
X49023Y-47696D01*
X49624Y-46792D02*
X49624Y-47095D01*
X49624Y-27028D02*
X49624Y-27331D01*
X49624Y-27331D02*
X49023Y-27932D01*
X49023Y-27932D02*
X48068Y-27932D01*
X49023Y-37814D02*
X48068Y-37814D01*
X49624Y-37213D02*
X49023Y-37814D01*
X49624Y-36910D02*
X49624Y-37213D01*
X36750Y-36910D02*
X36750Y-37213D01*
X36750Y-37213D02*
X36149Y-37814D01*
X36149Y-37814D02*
X35194Y-37814D01*
X36149Y-27932D02*
X35194Y-27932D01*
X36750Y-27331D02*
X36149Y-27932D01*
X36750Y-27028D02*
X36750Y-27331D01*
X36750Y-46792D02*
X36750Y-47095D01*
X36750Y-47095D02*
X36149Y-47696D01*
X36149Y-47696D02*
X35194Y-47696D01*
X36149Y-57578D02*
X35194Y-57578D01*
X36750Y-56977D02*
X36149Y-57578D01*
X36750Y-56674D02*
X36750Y-56977D01*
X62498Y-36910D02*
X62498Y-37213D01*
X62498Y-37213D02*
X61897Y-37814D01*
X61897Y-37814D02*
X60942Y-37814D01*
X61897Y-27932D02*
X60942Y-27932D01*
X62498Y-27331D02*
X61897Y-27932D01*
X62498Y-27028D02*
X62498Y-27331D01*
X62498Y-46792D02*
X62498Y-47095D01*
X62498Y-47095D02*
X61897Y-47696D01*
X61897Y-47696D02*
X60942Y-47696D01*
X61897Y-57578D02*
X60942Y-57578D01*
X62498Y-56977D02*
X61897Y-57578D01*
X62498Y-56674D02*
X62498Y-56977D01*
X50613Y-54833D02*
X50613Y-54183D01*
X50613Y-44951D02*
X50613Y-44301D01*
X50613Y-25187D02*
X50613Y-24537D01*
X50613Y-35069D02*
X50613Y-34419D01*
X37739Y-35069D02*
X37739Y-34419D01*
X37739Y-25187D02*
X37739Y-24537D01*
X37739Y-44951D02*
X37739Y-44301D01*
X37739Y-54833D02*
X37739Y-54183D01*
X63487Y-35069D02*
X63487Y-34419D01*
X63487Y-25187D02*
X63487Y-24537D01*
X63487Y-44951D02*
X63487Y-44301D01*
X63487Y-54833D02*
X63487Y-54183D01*
X49613Y-54833D02*
X49613Y-54183D01*
X49613Y-44951D02*
X49613Y-44301D01*
X49613Y-25187D02*
X49613Y-24537D01*
X49613Y-35069D02*
X49613Y-34419D01*
X36739Y-35069D02*
X36739Y-34419D01*
X36739Y-25187D02*
X36739Y-24537D01*
X36739Y-44951D02*
X36739Y-44301D01*
X36739Y-54833D02*
X36739Y-54183D01*
X62487Y-35069D02*
X62487Y-34419D01*
X62487Y-25187D02*
X62487Y-24537D01*
X62487Y-44951D02*
X62487Y-44301D01*
X62487Y-54833D02*
X62487Y-54183D01*
X47613Y-54833D02*
X47613Y-54183D01*
X47613Y-44951D02*
X47613Y-44301D01*
X47613Y-25187D02*
X47613Y-24537D01*
X47613Y-35069D02*
X47613Y-34419D01*
X34739Y-35069D02*
X34739Y-34419D01*
X34739Y-25187D02*
X34739Y-24537D01*
X34739Y-44951D02*
X34739Y-44301D01*
X34739Y-54833D02*
X34739Y-54183D01*
X60487Y-35069D02*
X60487Y-34419D01*
X60487Y-25187D02*
X60487Y-24537D01*
X60487Y-44951D02*
X60487Y-44301D01*
X60487Y-54833D02*
X60487Y-54183D01*
X43613Y-59733D02*
X43613Y-60383D01*
X43613Y-49851D02*
X43613Y-50501D01*
X43613Y-30087D02*
X43613Y-30737D01*
X43613Y-39969D02*
X43613Y-40619D01*
X30739Y-39969D02*
X30739Y-40619D01*
X30739Y-30087D02*
X30739Y-30737D01*
X30739Y-49851D02*
X30739Y-50501D01*
X30739Y-59733D02*
X30739Y-60383D01*
X56487Y-39969D02*
X56487Y-40619D01*
X56487Y-30087D02*
X56487Y-30737D01*
X56487Y-49851D02*
X56487Y-50501D01*
X56487Y-59733D02*
X56487Y-60383D01*
X44613Y-59733D02*
X44613Y-60383D01*
X44613Y-49851D02*
X44613Y-50501D01*
X44613Y-30087D02*
X44613Y-30737D01*
X44613Y-39969D02*
X44613Y-40619D01*
X31739Y-39969D02*
X31739Y-40619D01*
X31739Y-30087D02*
X31739Y-30737D01*
X31739Y-49851D02*
X31739Y-50501D01*
X31739Y-59733D02*
X31739Y-60383D01*
X57487Y-39969D02*
X57487Y-40619D01*
X57487Y-30087D02*
X57487Y-30737D01*
X57487Y-49851D02*
X57487Y-50501D01*
X57487Y-59733D02*
X57487Y-60383D01*
X40723Y-56788D02*
X40868Y-56934D01*
G54D25*
X40868Y-56934D02*
X41693Y-56934D01*
X42367Y-56934D02*
X42653Y-56648D01*
X42653Y-56648D02*
X42653Y-55708D01*
X41693Y-56934D02*
X42367Y-56934D01*
X42653Y-55708D02*
X42628Y-55683D01*
X42628Y-55683D02*
X42218Y-55683D01*
X39481Y-56934D02*
X39330Y-56783D01*
X40868Y-56934D02*
X39481Y-56934D01*
X40868Y-47052D02*
X39481Y-47052D01*
X39481Y-47052D02*
X39330Y-46901D01*
X42628Y-45801D02*
X42218Y-45801D01*
X42653Y-45826D02*
X42628Y-45801D01*
X41693Y-47052D02*
X42367Y-47052D01*
X42653Y-46766D02*
X42653Y-45826D01*
X42367Y-47052D02*
X42653Y-46766D01*
X40868Y-47052D02*
X41693Y-47052D01*
G54D20*
X40723Y-46906D02*
X40868Y-47052D01*
X40723Y-27143D02*
X40868Y-27288D01*
G54D25*
X40868Y-27288D02*
X41693Y-27288D01*
X42367Y-27288D02*
X42653Y-27002D01*
X42653Y-27002D02*
X42653Y-26062D01*
X41693Y-27288D02*
X42367Y-27288D01*
X42653Y-26062D02*
X42628Y-26037D01*
X42628Y-26037D02*
X42218Y-26037D01*
X39481Y-27288D02*
X39330Y-27137D01*
X40868Y-27288D02*
X39481Y-27288D01*
X40868Y-37170D02*
X39481Y-37170D01*
X39481Y-37170D02*
X39330Y-37019D01*
X42628Y-35919D02*
X42218Y-35919D01*
X42653Y-35944D02*
X42628Y-35919D01*
X41693Y-37170D02*
X42367Y-37170D01*
X42653Y-36884D02*
X42653Y-35944D01*
X42367Y-37170D02*
X42653Y-36884D01*
X40868Y-37170D02*
X41693Y-37170D01*
G54D20*
X40723Y-37025D02*
X40868Y-37170D01*
X27849Y-37025D02*
X27994Y-37170D01*
G54D25*
X27994Y-37170D02*
X28819Y-37170D01*
X29493Y-37170D02*
X29779Y-36884D01*
X29779Y-36884D02*
X29779Y-35944D01*
X28819Y-37170D02*
X29493Y-37170D01*
X29779Y-35944D02*
X29754Y-35919D01*
X29754Y-35919D02*
X29344Y-35919D01*
X26607Y-37170D02*
X26456Y-37019D01*
X27994Y-37170D02*
X26607Y-37170D01*
X27994Y-27288D02*
X26607Y-27288D01*
X26607Y-27288D02*
X26456Y-27137D01*
X29754Y-26037D02*
X29344Y-26037D01*
X29779Y-26062D02*
X29754Y-26037D01*
X28819Y-27288D02*
X29493Y-27288D01*
X29779Y-27002D02*
X29779Y-26062D01*
X29493Y-27288D02*
X29779Y-27002D01*
X27994Y-27288D02*
X28819Y-27288D01*
G54D20*
X27849Y-27143D02*
X27994Y-27288D01*
X27849Y-46906D02*
X27994Y-47052D01*
G54D25*
X27994Y-47052D02*
X28819Y-47052D01*
X29493Y-47052D02*
X29779Y-46766D01*
X29779Y-46766D02*
X29779Y-45826D01*
X28819Y-47052D02*
X29493Y-47052D01*
X29779Y-45826D02*
X29754Y-45801D01*
X29754Y-45801D02*
X29344Y-45801D01*
X26607Y-47052D02*
X26456Y-46901D01*
X27994Y-47052D02*
X26607Y-47052D01*
X27994Y-56934D02*
X26607Y-56934D01*
X26607Y-56934D02*
X26456Y-56783D01*
X29754Y-55683D02*
X29344Y-55683D01*
X29779Y-55708D02*
X29754Y-55683D01*
X28819Y-56934D02*
X29493Y-56934D01*
X29779Y-56648D02*
X29779Y-55708D01*
X29493Y-56934D02*
X29779Y-56648D01*
X27994Y-56934D02*
X28819Y-56934D01*
G54D20*
X27849Y-56788D02*
X27994Y-56934D01*
X53597Y-37025D02*
X53742Y-37170D01*
G54D25*
X53742Y-37170D02*
X54567Y-37170D01*
X55241Y-37170D02*
X55527Y-36884D01*
X55527Y-36884D02*
X55527Y-35944D01*
X54567Y-37170D02*
X55241Y-37170D01*
X55527Y-35944D02*
X55502Y-35919D01*
X55502Y-35919D02*
X55092Y-35919D01*
X52355Y-37170D02*
X52204Y-37019D01*
X53742Y-37170D02*
X52355Y-37170D01*
X53742Y-27288D02*
X52355Y-27288D01*
X52355Y-27288D02*
X52204Y-27137D01*
X55502Y-26037D02*
X55092Y-26037D01*
X55527Y-26062D02*
X55502Y-26037D01*
X54567Y-27288D02*
X55241Y-27288D01*
X55527Y-27002D02*
X55527Y-26062D01*
X55241Y-27288D02*
X55527Y-27002D01*
X53742Y-27288D02*
X54567Y-27288D01*
G54D20*
X53597Y-27143D02*
X53742Y-27288D01*
X53597Y-46906D02*
X53742Y-47052D01*
G54D25*
X53742Y-47052D02*
X54567Y-47052D01*
X55241Y-47052D02*
X55527Y-46766D01*
X55527Y-46766D02*
X55527Y-45826D01*
X54567Y-47052D02*
X55241Y-47052D01*
X55527Y-45826D02*
X55502Y-45801D01*
X55502Y-45801D02*
X55092Y-45801D01*
X52355Y-47052D02*
X52204Y-46901D01*
X53742Y-47052D02*
X52355Y-47052D01*
X53742Y-56934D02*
X52355Y-56934D01*
X52355Y-56934D02*
X52204Y-56783D01*
X55502Y-55683D02*
X55092Y-55683D01*
X55527Y-55708D02*
X55502Y-55683D01*
X54567Y-56934D02*
X55241Y-56934D01*
X55527Y-56648D02*
X55527Y-55708D01*
X55241Y-56934D02*
X55527Y-56648D01*
X53742Y-56934D02*
X54567Y-56934D01*
G54D20*
X53597Y-56788D02*
X53742Y-56934D01*
M02*
