G04 (created by PCBNEW (2013-04-03 BZR 4062)-testing) date Thu 04 Apr 2013 12:57:26 AM CEST*
%MOIN*%
G04 Gerber Fmt 3.4, Leading zero omitted, Abs format*
%FSLAX34Y34*%
G01*
G70*
G90*
G04 APERTURE LIST*
%ADD10C,0.006*%
%ADD11R,0.0255906X0.0393701*%
%ADD12R,0.019685X0.0393701*%
%ADD13R,0.0314961X0.0433071*%
%ADD14R,0.0649606X0.0649606*%
%ADD15C,0.0649606*%
%ADD16R,0.0256X0.063*%
%ADD17R,0.0314X0.0314*%
%ADD18R,0.0472X0.0472*%
%ADD19R,0.063X0.0591*%
%ADD20R,0.059X0.0511*%
%ADD21C,0.025*%
%ADD22C,0.012*%
%ADD23C,0.008*%
%ADD24C,0.024*%
%ADD25C,0.016*%
%ADD26C,0.04*%
%ADD27C,0.02*%
G04 APERTURE END LIST*
G54D10*
G54D11*
X36131Y-26771D03*
G54D12*
X35767Y-26771D03*
X35452Y-26771D03*
G54D11*
X35088Y-26771D03*
X36131Y-26062D03*
G54D12*
X35767Y-26062D03*
X35452Y-26062D03*
G54D11*
X35088Y-26062D03*
X37667Y-26240D03*
G54D12*
X37303Y-26240D03*
X36988Y-26240D03*
G54D11*
X36624Y-26240D03*
X37667Y-25531D03*
G54D12*
X37303Y-25531D03*
X36988Y-25531D03*
G54D11*
X36624Y-25531D03*
X36624Y-29035D03*
G54D12*
X36988Y-29035D03*
X37303Y-29035D03*
G54D11*
X37667Y-29035D03*
X36624Y-29744D03*
G54D12*
X36988Y-29744D03*
X37303Y-29744D03*
G54D11*
X37667Y-29744D03*
X35088Y-28622D03*
G54D12*
X35452Y-28622D03*
X35767Y-28622D03*
G54D11*
X36131Y-28622D03*
X35088Y-29330D03*
G54D12*
X35452Y-29330D03*
X35767Y-29330D03*
G54D11*
X36131Y-29330D03*
G54D13*
X30740Y-24537D03*
X30150Y-24537D03*
G54D14*
X26456Y-27137D03*
G54D15*
X26456Y-28137D03*
G54D14*
X26444Y-23637D03*
G54D15*
X27444Y-23637D03*
X28444Y-23637D03*
X29444Y-23637D03*
X30444Y-23637D03*
X31444Y-23637D03*
X32444Y-23637D03*
X33444Y-23637D03*
X34444Y-23637D03*
X35444Y-23637D03*
X36444Y-23637D03*
X37444Y-23637D03*
G54D14*
X26444Y-31637D03*
G54D15*
X27444Y-31637D03*
X28444Y-31637D03*
X29444Y-31637D03*
X30444Y-31637D03*
X31444Y-31637D03*
X32444Y-31637D03*
X33444Y-31637D03*
X34444Y-31637D03*
X35444Y-31637D03*
X36444Y-31637D03*
X37444Y-31637D03*
G54D16*
X29779Y-29212D03*
X30172Y-29212D03*
X30566Y-29212D03*
X30960Y-29212D03*
X31353Y-29212D03*
X31747Y-29212D03*
X32141Y-29212D03*
X32535Y-29212D03*
X32928Y-29212D03*
X33322Y-29212D03*
X33716Y-29212D03*
X34109Y-29212D03*
X34109Y-26062D03*
X33716Y-26062D03*
X33322Y-26062D03*
X32928Y-26062D03*
X32535Y-26062D03*
X32141Y-26062D03*
X31747Y-26062D03*
X31353Y-26062D03*
X30960Y-26062D03*
X30566Y-26062D03*
X30172Y-26062D03*
X29779Y-26062D03*
G54D17*
X35492Y-27615D03*
X34902Y-27615D03*
G54D18*
X37539Y-26968D03*
X36751Y-26968D03*
G54D19*
X37145Y-28248D03*
G54D20*
X27994Y-27288D03*
X27994Y-28036D03*
X28819Y-27288D03*
X28819Y-28036D03*
G54D13*
X35740Y-30737D03*
X35150Y-30737D03*
X34740Y-30737D03*
X34150Y-30737D03*
X36740Y-30737D03*
X36150Y-30737D03*
X33740Y-30737D03*
X33150Y-30737D03*
X32740Y-30737D03*
X32150Y-30737D03*
X31740Y-30737D03*
X31150Y-30737D03*
X30740Y-30737D03*
X30150Y-30737D03*
X37740Y-30737D03*
X37150Y-30737D03*
X37740Y-24537D03*
X37150Y-24537D03*
X36740Y-24537D03*
X36150Y-24537D03*
X35740Y-24537D03*
X35150Y-24537D03*
X34740Y-24537D03*
X34150Y-24537D03*
X31740Y-24537D03*
X31150Y-24537D03*
X33740Y-24537D03*
X33150Y-24537D03*
X32740Y-24537D03*
X32150Y-24537D03*
X32740Y-34419D03*
X32150Y-34419D03*
X33740Y-34419D03*
X33150Y-34419D03*
X31740Y-34419D03*
X31150Y-34419D03*
X34740Y-34419D03*
X34150Y-34419D03*
X35740Y-34419D03*
X35150Y-34419D03*
X36740Y-34419D03*
X36150Y-34419D03*
X37740Y-34419D03*
X37150Y-34419D03*
X37740Y-40619D03*
X37150Y-40619D03*
X30740Y-40619D03*
X30150Y-40619D03*
X31740Y-40619D03*
X31150Y-40619D03*
X32740Y-40619D03*
X32150Y-40619D03*
X33740Y-40619D03*
X33150Y-40619D03*
X36740Y-40619D03*
X36150Y-40619D03*
X34740Y-40619D03*
X34150Y-40619D03*
X35740Y-40619D03*
X35150Y-40619D03*
G54D20*
X28819Y-37170D03*
X28819Y-37918D03*
X27994Y-37170D03*
X27994Y-37918D03*
G54D18*
X37539Y-36850D03*
X36751Y-36850D03*
G54D19*
X37145Y-38130D03*
G54D17*
X35492Y-37497D03*
X34902Y-37497D03*
G54D16*
X29779Y-39094D03*
X30172Y-39094D03*
X30566Y-39094D03*
X30960Y-39094D03*
X31353Y-39094D03*
X31747Y-39094D03*
X32141Y-39094D03*
X32535Y-39094D03*
X32928Y-39094D03*
X33322Y-39094D03*
X33716Y-39094D03*
X34109Y-39094D03*
X34109Y-35944D03*
X33716Y-35944D03*
X33322Y-35944D03*
X32928Y-35944D03*
X32535Y-35944D03*
X32141Y-35944D03*
X31747Y-35944D03*
X31353Y-35944D03*
X30960Y-35944D03*
X30566Y-35944D03*
X30172Y-35944D03*
X29779Y-35944D03*
G54D14*
X26444Y-41519D03*
G54D15*
X27444Y-41519D03*
X28444Y-41519D03*
X29444Y-41519D03*
X30444Y-41519D03*
X31444Y-41519D03*
X32444Y-41519D03*
X33444Y-41519D03*
X34444Y-41519D03*
X35444Y-41519D03*
X36444Y-41519D03*
X37444Y-41519D03*
G54D14*
X26444Y-33519D03*
G54D15*
X27444Y-33519D03*
X28444Y-33519D03*
X29444Y-33519D03*
X30444Y-33519D03*
X31444Y-33519D03*
X32444Y-33519D03*
X33444Y-33519D03*
X34444Y-33519D03*
X35444Y-33519D03*
X36444Y-33519D03*
X37444Y-33519D03*
G54D14*
X26456Y-37019D03*
G54D15*
X26456Y-38019D03*
G54D13*
X30740Y-34419D03*
X30150Y-34419D03*
G54D11*
X35088Y-38503D03*
G54D12*
X35452Y-38503D03*
X35767Y-38503D03*
G54D11*
X36131Y-38503D03*
X35088Y-39212D03*
G54D12*
X35452Y-39212D03*
X35767Y-39212D03*
G54D11*
X36131Y-39212D03*
X36624Y-38917D03*
G54D12*
X36988Y-38917D03*
X37303Y-38917D03*
G54D11*
X37667Y-38917D03*
X36624Y-39625D03*
G54D12*
X36988Y-39625D03*
X37303Y-39625D03*
G54D11*
X37667Y-39625D03*
X37667Y-36122D03*
G54D12*
X37303Y-36122D03*
X36988Y-36122D03*
G54D11*
X36624Y-36122D03*
X37667Y-35413D03*
G54D12*
X37303Y-35413D03*
X36988Y-35413D03*
G54D11*
X36624Y-35413D03*
X36131Y-36653D03*
G54D12*
X35767Y-36653D03*
X35452Y-36653D03*
G54D11*
X35088Y-36653D03*
X36131Y-35944D03*
G54D12*
X35767Y-35944D03*
X35452Y-35944D03*
G54D11*
X35088Y-35944D03*
X36131Y-46535D03*
G54D12*
X35767Y-46535D03*
X35452Y-46535D03*
G54D11*
X35088Y-46535D03*
X36131Y-45826D03*
G54D12*
X35767Y-45826D03*
X35452Y-45826D03*
G54D11*
X35088Y-45826D03*
X37667Y-46003D03*
G54D12*
X37303Y-46003D03*
X36988Y-46003D03*
G54D11*
X36624Y-46003D03*
X37667Y-45295D03*
G54D12*
X37303Y-45295D03*
X36988Y-45295D03*
G54D11*
X36624Y-45295D03*
X36624Y-48799D03*
G54D12*
X36988Y-48799D03*
X37303Y-48799D03*
G54D11*
X37667Y-48799D03*
X36624Y-49507D03*
G54D12*
X36988Y-49507D03*
X37303Y-49507D03*
G54D11*
X37667Y-49507D03*
X35088Y-48385D03*
G54D12*
X35452Y-48385D03*
X35767Y-48385D03*
G54D11*
X36131Y-48385D03*
X35088Y-49094D03*
G54D12*
X35452Y-49094D03*
X35767Y-49094D03*
G54D11*
X36131Y-49094D03*
G54D13*
X30740Y-44301D03*
X30150Y-44301D03*
G54D14*
X26456Y-46901D03*
G54D15*
X26456Y-47901D03*
G54D14*
X26444Y-43401D03*
G54D15*
X27444Y-43401D03*
X28444Y-43401D03*
X29444Y-43401D03*
X30444Y-43401D03*
X31444Y-43401D03*
X32444Y-43401D03*
X33444Y-43401D03*
X34444Y-43401D03*
X35444Y-43401D03*
X36444Y-43401D03*
X37444Y-43401D03*
G54D14*
X26444Y-51401D03*
G54D15*
X27444Y-51401D03*
X28444Y-51401D03*
X29444Y-51401D03*
X30444Y-51401D03*
X31444Y-51401D03*
X32444Y-51401D03*
X33444Y-51401D03*
X34444Y-51401D03*
X35444Y-51401D03*
X36444Y-51401D03*
X37444Y-51401D03*
G54D16*
X29779Y-48976D03*
X30172Y-48976D03*
X30566Y-48976D03*
X30960Y-48976D03*
X31353Y-48976D03*
X31747Y-48976D03*
X32141Y-48976D03*
X32535Y-48976D03*
X32928Y-48976D03*
X33322Y-48976D03*
X33716Y-48976D03*
X34109Y-48976D03*
X34109Y-45826D03*
X33716Y-45826D03*
X33322Y-45826D03*
X32928Y-45826D03*
X32535Y-45826D03*
X32141Y-45826D03*
X31747Y-45826D03*
X31353Y-45826D03*
X30960Y-45826D03*
X30566Y-45826D03*
X30172Y-45826D03*
X29779Y-45826D03*
G54D17*
X35492Y-47378D03*
X34902Y-47378D03*
G54D18*
X37539Y-46731D03*
X36751Y-46731D03*
G54D19*
X37145Y-48011D03*
G54D20*
X27994Y-47052D03*
X27994Y-47800D03*
X28819Y-47052D03*
X28819Y-47800D03*
G54D13*
X35740Y-50501D03*
X35150Y-50501D03*
X34740Y-50501D03*
X34150Y-50501D03*
X36740Y-50501D03*
X36150Y-50501D03*
X33740Y-50501D03*
X33150Y-50501D03*
X32740Y-50501D03*
X32150Y-50501D03*
X31740Y-50501D03*
X31150Y-50501D03*
X30740Y-50501D03*
X30150Y-50501D03*
X37740Y-50501D03*
X37150Y-50501D03*
X37740Y-44301D03*
X37150Y-44301D03*
X36740Y-44301D03*
X36150Y-44301D03*
X35740Y-44301D03*
X35150Y-44301D03*
X34740Y-44301D03*
X34150Y-44301D03*
X31740Y-44301D03*
X31150Y-44301D03*
X33740Y-44301D03*
X33150Y-44301D03*
X32740Y-44301D03*
X32150Y-44301D03*
X32740Y-54183D03*
X32150Y-54183D03*
X33740Y-54183D03*
X33150Y-54183D03*
X31740Y-54183D03*
X31150Y-54183D03*
X34740Y-54183D03*
X34150Y-54183D03*
X35740Y-54183D03*
X35150Y-54183D03*
X36740Y-54183D03*
X36150Y-54183D03*
X37740Y-54183D03*
X37150Y-54183D03*
X37740Y-60383D03*
X37150Y-60383D03*
X30740Y-60383D03*
X30150Y-60383D03*
X31740Y-60383D03*
X31150Y-60383D03*
X32740Y-60383D03*
X32150Y-60383D03*
X33740Y-60383D03*
X33150Y-60383D03*
X36740Y-60383D03*
X36150Y-60383D03*
X34740Y-60383D03*
X34150Y-60383D03*
X35740Y-60383D03*
X35150Y-60383D03*
G54D20*
X28819Y-56934D03*
X28819Y-57682D03*
X27994Y-56934D03*
X27994Y-57682D03*
G54D18*
X37539Y-56613D03*
X36751Y-56613D03*
G54D19*
X37145Y-57893D03*
G54D17*
X35492Y-57260D03*
X34902Y-57260D03*
G54D16*
X29779Y-58858D03*
X30172Y-58858D03*
X30566Y-58858D03*
X30960Y-58858D03*
X31353Y-58858D03*
X31747Y-58858D03*
X32141Y-58858D03*
X32535Y-58858D03*
X32928Y-58858D03*
X33322Y-58858D03*
X33716Y-58858D03*
X34109Y-58858D03*
X34109Y-55708D03*
X33716Y-55708D03*
X33322Y-55708D03*
X32928Y-55708D03*
X32535Y-55708D03*
X32141Y-55708D03*
X31747Y-55708D03*
X31353Y-55708D03*
X30960Y-55708D03*
X30566Y-55708D03*
X30172Y-55708D03*
X29779Y-55708D03*
G54D14*
X26444Y-61283D03*
G54D15*
X27444Y-61283D03*
X28444Y-61283D03*
X29444Y-61283D03*
X30444Y-61283D03*
X31444Y-61283D03*
X32444Y-61283D03*
X33444Y-61283D03*
X34444Y-61283D03*
X35444Y-61283D03*
X36444Y-61283D03*
X37444Y-61283D03*
G54D14*
X26444Y-53283D03*
G54D15*
X27444Y-53283D03*
X28444Y-53283D03*
X29444Y-53283D03*
X30444Y-53283D03*
X31444Y-53283D03*
X32444Y-53283D03*
X33444Y-53283D03*
X34444Y-53283D03*
X35444Y-53283D03*
X36444Y-53283D03*
X37444Y-53283D03*
G54D14*
X26456Y-56783D03*
G54D15*
X26456Y-57783D03*
G54D13*
X30740Y-54183D03*
X30150Y-54183D03*
G54D11*
X35088Y-58267D03*
G54D12*
X35452Y-58267D03*
X35767Y-58267D03*
G54D11*
X36131Y-58267D03*
X35088Y-58976D03*
G54D12*
X35452Y-58976D03*
X35767Y-58976D03*
G54D11*
X36131Y-58976D03*
X36624Y-58681D03*
G54D12*
X36988Y-58681D03*
X37303Y-58681D03*
G54D11*
X37667Y-58681D03*
X36624Y-59389D03*
G54D12*
X36988Y-59389D03*
X37303Y-59389D03*
G54D11*
X37667Y-59389D03*
X37667Y-55885D03*
G54D12*
X37303Y-55885D03*
X36988Y-55885D03*
G54D11*
X36624Y-55885D03*
X37667Y-55177D03*
G54D12*
X37303Y-55177D03*
X36988Y-55177D03*
G54D11*
X36624Y-55177D03*
X36131Y-56417D03*
G54D12*
X35767Y-56417D03*
X35452Y-56417D03*
G54D11*
X35088Y-56417D03*
X36131Y-55708D03*
G54D12*
X35767Y-55708D03*
X35452Y-55708D03*
G54D11*
X35088Y-55708D03*
X49005Y-56417D03*
G54D12*
X48641Y-56417D03*
X48326Y-56417D03*
G54D11*
X47962Y-56417D03*
X49005Y-55708D03*
G54D12*
X48641Y-55708D03*
X48326Y-55708D03*
G54D11*
X47962Y-55708D03*
X50541Y-55885D03*
G54D12*
X50177Y-55885D03*
X49862Y-55885D03*
G54D11*
X49498Y-55885D03*
X50541Y-55177D03*
G54D12*
X50177Y-55177D03*
X49862Y-55177D03*
G54D11*
X49498Y-55177D03*
X49498Y-58681D03*
G54D12*
X49862Y-58681D03*
X50177Y-58681D03*
G54D11*
X50541Y-58681D03*
X49498Y-59389D03*
G54D12*
X49862Y-59389D03*
X50177Y-59389D03*
G54D11*
X50541Y-59389D03*
X47962Y-58267D03*
G54D12*
X48326Y-58267D03*
X48641Y-58267D03*
G54D11*
X49005Y-58267D03*
X47962Y-58976D03*
G54D12*
X48326Y-58976D03*
X48641Y-58976D03*
G54D11*
X49005Y-58976D03*
G54D13*
X43614Y-54183D03*
X43024Y-54183D03*
G54D14*
X39330Y-56783D03*
G54D15*
X39330Y-57783D03*
G54D14*
X39318Y-53283D03*
G54D15*
X40318Y-53283D03*
X41318Y-53283D03*
X42318Y-53283D03*
X43318Y-53283D03*
X44318Y-53283D03*
X45318Y-53283D03*
X46318Y-53283D03*
X47318Y-53283D03*
X48318Y-53283D03*
X49318Y-53283D03*
X50318Y-53283D03*
G54D14*
X39318Y-61283D03*
G54D15*
X40318Y-61283D03*
X41318Y-61283D03*
X42318Y-61283D03*
X43318Y-61283D03*
X44318Y-61283D03*
X45318Y-61283D03*
X46318Y-61283D03*
X47318Y-61283D03*
X48318Y-61283D03*
X49318Y-61283D03*
X50318Y-61283D03*
G54D16*
X42653Y-58858D03*
X43046Y-58858D03*
X43440Y-58858D03*
X43834Y-58858D03*
X44227Y-58858D03*
X44621Y-58858D03*
X45015Y-58858D03*
X45409Y-58858D03*
X45802Y-58858D03*
X46196Y-58858D03*
X46590Y-58858D03*
X46983Y-58858D03*
X46983Y-55708D03*
X46590Y-55708D03*
X46196Y-55708D03*
X45802Y-55708D03*
X45409Y-55708D03*
X45015Y-55708D03*
X44621Y-55708D03*
X44227Y-55708D03*
X43834Y-55708D03*
X43440Y-55708D03*
X43046Y-55708D03*
X42653Y-55708D03*
G54D17*
X48366Y-57260D03*
X47776Y-57260D03*
G54D18*
X50413Y-56613D03*
X49625Y-56613D03*
G54D19*
X50019Y-57893D03*
G54D20*
X40868Y-56934D03*
X40868Y-57682D03*
X41693Y-56934D03*
X41693Y-57682D03*
G54D13*
X48614Y-60383D03*
X48024Y-60383D03*
X47614Y-60383D03*
X47024Y-60383D03*
X49614Y-60383D03*
X49024Y-60383D03*
X46614Y-60383D03*
X46024Y-60383D03*
X45614Y-60383D03*
X45024Y-60383D03*
X44614Y-60383D03*
X44024Y-60383D03*
X43614Y-60383D03*
X43024Y-60383D03*
X50614Y-60383D03*
X50024Y-60383D03*
X50614Y-54183D03*
X50024Y-54183D03*
X49614Y-54183D03*
X49024Y-54183D03*
X48614Y-54183D03*
X48024Y-54183D03*
X47614Y-54183D03*
X47024Y-54183D03*
X44614Y-54183D03*
X44024Y-54183D03*
X46614Y-54183D03*
X46024Y-54183D03*
X45614Y-54183D03*
X45024Y-54183D03*
X45614Y-44301D03*
X45024Y-44301D03*
X46614Y-44301D03*
X46024Y-44301D03*
X44614Y-44301D03*
X44024Y-44301D03*
X47614Y-44301D03*
X47024Y-44301D03*
X48614Y-44301D03*
X48024Y-44301D03*
X49614Y-44301D03*
X49024Y-44301D03*
X50614Y-44301D03*
X50024Y-44301D03*
X50614Y-50501D03*
X50024Y-50501D03*
X43614Y-50501D03*
X43024Y-50501D03*
X44614Y-50501D03*
X44024Y-50501D03*
X45614Y-50501D03*
X45024Y-50501D03*
X46614Y-50501D03*
X46024Y-50501D03*
X49614Y-50501D03*
X49024Y-50501D03*
X47614Y-50501D03*
X47024Y-50501D03*
X48614Y-50501D03*
X48024Y-50501D03*
G54D20*
X41693Y-47052D03*
X41693Y-47800D03*
X40868Y-47052D03*
X40868Y-47800D03*
G54D18*
X50413Y-46731D03*
X49625Y-46731D03*
G54D19*
X50019Y-48011D03*
G54D17*
X48366Y-47378D03*
X47776Y-47378D03*
G54D16*
X42653Y-48976D03*
X43046Y-48976D03*
X43440Y-48976D03*
X43834Y-48976D03*
X44227Y-48976D03*
X44621Y-48976D03*
X45015Y-48976D03*
X45409Y-48976D03*
X45802Y-48976D03*
X46196Y-48976D03*
X46590Y-48976D03*
X46983Y-48976D03*
X46983Y-45826D03*
X46590Y-45826D03*
X46196Y-45826D03*
X45802Y-45826D03*
X45409Y-45826D03*
X45015Y-45826D03*
X44621Y-45826D03*
X44227Y-45826D03*
X43834Y-45826D03*
X43440Y-45826D03*
X43046Y-45826D03*
X42653Y-45826D03*
G54D14*
X39318Y-51401D03*
G54D15*
X40318Y-51401D03*
X41318Y-51401D03*
X42318Y-51401D03*
X43318Y-51401D03*
X44318Y-51401D03*
X45318Y-51401D03*
X46318Y-51401D03*
X47318Y-51401D03*
X48318Y-51401D03*
X49318Y-51401D03*
X50318Y-51401D03*
G54D14*
X39318Y-43401D03*
G54D15*
X40318Y-43401D03*
X41318Y-43401D03*
X42318Y-43401D03*
X43318Y-43401D03*
X44318Y-43401D03*
X45318Y-43401D03*
X46318Y-43401D03*
X47318Y-43401D03*
X48318Y-43401D03*
X49318Y-43401D03*
X50318Y-43401D03*
G54D14*
X39330Y-46901D03*
G54D15*
X39330Y-47901D03*
G54D13*
X43614Y-44301D03*
X43024Y-44301D03*
G54D11*
X47962Y-48385D03*
G54D12*
X48326Y-48385D03*
X48641Y-48385D03*
G54D11*
X49005Y-48385D03*
X47962Y-49094D03*
G54D12*
X48326Y-49094D03*
X48641Y-49094D03*
G54D11*
X49005Y-49094D03*
X49498Y-48799D03*
G54D12*
X49862Y-48799D03*
X50177Y-48799D03*
G54D11*
X50541Y-48799D03*
X49498Y-49507D03*
G54D12*
X49862Y-49507D03*
X50177Y-49507D03*
G54D11*
X50541Y-49507D03*
X50541Y-46003D03*
G54D12*
X50177Y-46003D03*
X49862Y-46003D03*
G54D11*
X49498Y-46003D03*
X50541Y-45295D03*
G54D12*
X50177Y-45295D03*
X49862Y-45295D03*
G54D11*
X49498Y-45295D03*
X49005Y-46535D03*
G54D12*
X48641Y-46535D03*
X48326Y-46535D03*
G54D11*
X47962Y-46535D03*
X49005Y-45826D03*
G54D12*
X48641Y-45826D03*
X48326Y-45826D03*
G54D11*
X47962Y-45826D03*
X49005Y-36653D03*
G54D12*
X48641Y-36653D03*
X48326Y-36653D03*
G54D11*
X47962Y-36653D03*
X49005Y-35944D03*
G54D12*
X48641Y-35944D03*
X48326Y-35944D03*
G54D11*
X47962Y-35944D03*
X50541Y-36122D03*
G54D12*
X50177Y-36122D03*
X49862Y-36122D03*
G54D11*
X49498Y-36122D03*
X50541Y-35413D03*
G54D12*
X50177Y-35413D03*
X49862Y-35413D03*
G54D11*
X49498Y-35413D03*
X49498Y-38917D03*
G54D12*
X49862Y-38917D03*
X50177Y-38917D03*
G54D11*
X50541Y-38917D03*
X49498Y-39625D03*
G54D12*
X49862Y-39625D03*
X50177Y-39625D03*
G54D11*
X50541Y-39625D03*
X47962Y-38503D03*
G54D12*
X48326Y-38503D03*
X48641Y-38503D03*
G54D11*
X49005Y-38503D03*
X47962Y-39212D03*
G54D12*
X48326Y-39212D03*
X48641Y-39212D03*
G54D11*
X49005Y-39212D03*
G54D13*
X43614Y-34419D03*
X43024Y-34419D03*
G54D14*
X39330Y-37019D03*
G54D15*
X39330Y-38019D03*
G54D14*
X39318Y-33519D03*
G54D15*
X40318Y-33519D03*
X41318Y-33519D03*
X42318Y-33519D03*
X43318Y-33519D03*
X44318Y-33519D03*
X45318Y-33519D03*
X46318Y-33519D03*
X47318Y-33519D03*
X48318Y-33519D03*
X49318Y-33519D03*
X50318Y-33519D03*
G54D14*
X39318Y-41519D03*
G54D15*
X40318Y-41519D03*
X41318Y-41519D03*
X42318Y-41519D03*
X43318Y-41519D03*
X44318Y-41519D03*
X45318Y-41519D03*
X46318Y-41519D03*
X47318Y-41519D03*
X48318Y-41519D03*
X49318Y-41519D03*
X50318Y-41519D03*
G54D16*
X42653Y-39094D03*
X43046Y-39094D03*
X43440Y-39094D03*
X43834Y-39094D03*
X44227Y-39094D03*
X44621Y-39094D03*
X45015Y-39094D03*
X45409Y-39094D03*
X45802Y-39094D03*
X46196Y-39094D03*
X46590Y-39094D03*
X46983Y-39094D03*
X46983Y-35944D03*
X46590Y-35944D03*
X46196Y-35944D03*
X45802Y-35944D03*
X45409Y-35944D03*
X45015Y-35944D03*
X44621Y-35944D03*
X44227Y-35944D03*
X43834Y-35944D03*
X43440Y-35944D03*
X43046Y-35944D03*
X42653Y-35944D03*
G54D17*
X48366Y-37497D03*
X47776Y-37497D03*
G54D18*
X50413Y-36850D03*
X49625Y-36850D03*
G54D19*
X50019Y-38130D03*
G54D20*
X40868Y-37170D03*
X40868Y-37918D03*
X41693Y-37170D03*
X41693Y-37918D03*
G54D13*
X48614Y-40619D03*
X48024Y-40619D03*
X47614Y-40619D03*
X47024Y-40619D03*
X49614Y-40619D03*
X49024Y-40619D03*
X46614Y-40619D03*
X46024Y-40619D03*
X45614Y-40619D03*
X45024Y-40619D03*
X44614Y-40619D03*
X44024Y-40619D03*
X43614Y-40619D03*
X43024Y-40619D03*
X50614Y-40619D03*
X50024Y-40619D03*
X50614Y-34419D03*
X50024Y-34419D03*
X49614Y-34419D03*
X49024Y-34419D03*
X48614Y-34419D03*
X48024Y-34419D03*
X47614Y-34419D03*
X47024Y-34419D03*
X44614Y-34419D03*
X44024Y-34419D03*
X46614Y-34419D03*
X46024Y-34419D03*
X45614Y-34419D03*
X45024Y-34419D03*
X45614Y-24537D03*
X45024Y-24537D03*
X46614Y-24537D03*
X46024Y-24537D03*
X44614Y-24537D03*
X44024Y-24537D03*
X47614Y-24537D03*
X47024Y-24537D03*
X48614Y-24537D03*
X48024Y-24537D03*
X49614Y-24537D03*
X49024Y-24537D03*
X50614Y-24537D03*
X50024Y-24537D03*
X50614Y-30737D03*
X50024Y-30737D03*
X43614Y-30737D03*
X43024Y-30737D03*
X44614Y-30737D03*
X44024Y-30737D03*
X45614Y-30737D03*
X45024Y-30737D03*
X46614Y-30737D03*
X46024Y-30737D03*
X49614Y-30737D03*
X49024Y-30737D03*
X47614Y-30737D03*
X47024Y-30737D03*
X48614Y-30737D03*
X48024Y-30737D03*
G54D20*
X41693Y-27288D03*
X41693Y-28036D03*
X40868Y-27288D03*
X40868Y-28036D03*
G54D18*
X50413Y-26968D03*
X49625Y-26968D03*
G54D19*
X50019Y-28248D03*
G54D17*
X48366Y-27615D03*
X47776Y-27615D03*
G54D16*
X42653Y-29212D03*
X43046Y-29212D03*
X43440Y-29212D03*
X43834Y-29212D03*
X44227Y-29212D03*
X44621Y-29212D03*
X45015Y-29212D03*
X45409Y-29212D03*
X45802Y-29212D03*
X46196Y-29212D03*
X46590Y-29212D03*
X46983Y-29212D03*
X46983Y-26062D03*
X46590Y-26062D03*
X46196Y-26062D03*
X45802Y-26062D03*
X45409Y-26062D03*
X45015Y-26062D03*
X44621Y-26062D03*
X44227Y-26062D03*
X43834Y-26062D03*
X43440Y-26062D03*
X43046Y-26062D03*
X42653Y-26062D03*
G54D14*
X39318Y-31637D03*
G54D15*
X40318Y-31637D03*
X41318Y-31637D03*
X42318Y-31637D03*
X43318Y-31637D03*
X44318Y-31637D03*
X45318Y-31637D03*
X46318Y-31637D03*
X47318Y-31637D03*
X48318Y-31637D03*
X49318Y-31637D03*
X50318Y-31637D03*
G54D14*
X39318Y-23637D03*
G54D15*
X40318Y-23637D03*
X41318Y-23637D03*
X42318Y-23637D03*
X43318Y-23637D03*
X44318Y-23637D03*
X45318Y-23637D03*
X46318Y-23637D03*
X47318Y-23637D03*
X48318Y-23637D03*
X49318Y-23637D03*
X50318Y-23637D03*
G54D14*
X39330Y-27137D03*
G54D15*
X39330Y-28137D03*
G54D13*
X43614Y-24537D03*
X43024Y-24537D03*
G54D11*
X47962Y-28622D03*
G54D12*
X48326Y-28622D03*
X48641Y-28622D03*
G54D11*
X49005Y-28622D03*
X47962Y-29330D03*
G54D12*
X48326Y-29330D03*
X48641Y-29330D03*
G54D11*
X49005Y-29330D03*
X49498Y-29035D03*
G54D12*
X49862Y-29035D03*
X50177Y-29035D03*
G54D11*
X50541Y-29035D03*
X49498Y-29744D03*
G54D12*
X49862Y-29744D03*
X50177Y-29744D03*
G54D11*
X50541Y-29744D03*
X50541Y-26240D03*
G54D12*
X50177Y-26240D03*
X49862Y-26240D03*
G54D11*
X49498Y-26240D03*
X50541Y-25531D03*
G54D12*
X50177Y-25531D03*
X49862Y-25531D03*
G54D11*
X49498Y-25531D03*
X49005Y-26771D03*
G54D12*
X48641Y-26771D03*
X48326Y-26771D03*
G54D11*
X47962Y-26771D03*
X49005Y-26062D03*
G54D12*
X48641Y-26062D03*
X48326Y-26062D03*
G54D11*
X47962Y-26062D03*
X61879Y-26771D03*
G54D12*
X61515Y-26771D03*
X61200Y-26771D03*
G54D11*
X60836Y-26771D03*
X61879Y-26062D03*
G54D12*
X61515Y-26062D03*
X61200Y-26062D03*
G54D11*
X60836Y-26062D03*
X63415Y-26240D03*
G54D12*
X63051Y-26240D03*
X62736Y-26240D03*
G54D11*
X62372Y-26240D03*
X63415Y-25531D03*
G54D12*
X63051Y-25531D03*
X62736Y-25531D03*
G54D11*
X62372Y-25531D03*
X62372Y-29035D03*
G54D12*
X62736Y-29035D03*
X63051Y-29035D03*
G54D11*
X63415Y-29035D03*
X62372Y-29744D03*
G54D12*
X62736Y-29744D03*
X63051Y-29744D03*
G54D11*
X63415Y-29744D03*
X60836Y-28622D03*
G54D12*
X61200Y-28622D03*
X61515Y-28622D03*
G54D11*
X61879Y-28622D03*
X60836Y-29330D03*
G54D12*
X61200Y-29330D03*
X61515Y-29330D03*
G54D11*
X61879Y-29330D03*
G54D13*
X56488Y-24537D03*
X55898Y-24537D03*
G54D14*
X52204Y-27137D03*
G54D15*
X52204Y-28137D03*
G54D14*
X52192Y-23637D03*
G54D15*
X53192Y-23637D03*
X54192Y-23637D03*
X55192Y-23637D03*
X56192Y-23637D03*
X57192Y-23637D03*
X58192Y-23637D03*
X59192Y-23637D03*
X60192Y-23637D03*
X61192Y-23637D03*
X62192Y-23637D03*
X63192Y-23637D03*
G54D14*
X52192Y-31637D03*
G54D15*
X53192Y-31637D03*
X54192Y-31637D03*
X55192Y-31637D03*
X56192Y-31637D03*
X57192Y-31637D03*
X58192Y-31637D03*
X59192Y-31637D03*
X60192Y-31637D03*
X61192Y-31637D03*
X62192Y-31637D03*
X63192Y-31637D03*
G54D16*
X55527Y-29212D03*
X55920Y-29212D03*
X56314Y-29212D03*
X56708Y-29212D03*
X57101Y-29212D03*
X57495Y-29212D03*
X57889Y-29212D03*
X58283Y-29212D03*
X58676Y-29212D03*
X59070Y-29212D03*
X59464Y-29212D03*
X59857Y-29212D03*
X59857Y-26062D03*
X59464Y-26062D03*
X59070Y-26062D03*
X58676Y-26062D03*
X58283Y-26062D03*
X57889Y-26062D03*
X57495Y-26062D03*
X57101Y-26062D03*
X56708Y-26062D03*
X56314Y-26062D03*
X55920Y-26062D03*
X55527Y-26062D03*
G54D17*
X61240Y-27615D03*
X60650Y-27615D03*
G54D18*
X63287Y-26968D03*
X62499Y-26968D03*
G54D19*
X62893Y-28248D03*
G54D20*
X53742Y-27288D03*
X53742Y-28036D03*
X54567Y-27288D03*
X54567Y-28036D03*
G54D13*
X61488Y-30737D03*
X60898Y-30737D03*
X60488Y-30737D03*
X59898Y-30737D03*
X62488Y-30737D03*
X61898Y-30737D03*
X59488Y-30737D03*
X58898Y-30737D03*
X58488Y-30737D03*
X57898Y-30737D03*
X57488Y-30737D03*
X56898Y-30737D03*
X56488Y-30737D03*
X55898Y-30737D03*
X63488Y-30737D03*
X62898Y-30737D03*
X63488Y-24537D03*
X62898Y-24537D03*
X62488Y-24537D03*
X61898Y-24537D03*
X61488Y-24537D03*
X60898Y-24537D03*
X60488Y-24537D03*
X59898Y-24537D03*
X57488Y-24537D03*
X56898Y-24537D03*
X59488Y-24537D03*
X58898Y-24537D03*
X58488Y-24537D03*
X57898Y-24537D03*
X58488Y-34419D03*
X57898Y-34419D03*
X59488Y-34419D03*
X58898Y-34419D03*
X57488Y-34419D03*
X56898Y-34419D03*
X60488Y-34419D03*
X59898Y-34419D03*
X61488Y-34419D03*
X60898Y-34419D03*
X62488Y-34419D03*
X61898Y-34419D03*
X63488Y-34419D03*
X62898Y-34419D03*
X63488Y-40619D03*
X62898Y-40619D03*
X56488Y-40619D03*
X55898Y-40619D03*
X57488Y-40619D03*
X56898Y-40619D03*
X58488Y-40619D03*
X57898Y-40619D03*
X59488Y-40619D03*
X58898Y-40619D03*
X62488Y-40619D03*
X61898Y-40619D03*
X60488Y-40619D03*
X59898Y-40619D03*
X61488Y-40619D03*
X60898Y-40619D03*
G54D20*
X54567Y-37170D03*
X54567Y-37918D03*
X53742Y-37170D03*
X53742Y-37918D03*
G54D18*
X63287Y-36850D03*
X62499Y-36850D03*
G54D19*
X62893Y-38130D03*
G54D17*
X61240Y-37497D03*
X60650Y-37497D03*
G54D16*
X55527Y-39094D03*
X55920Y-39094D03*
X56314Y-39094D03*
X56708Y-39094D03*
X57101Y-39094D03*
X57495Y-39094D03*
X57889Y-39094D03*
X58283Y-39094D03*
X58676Y-39094D03*
X59070Y-39094D03*
X59464Y-39094D03*
X59857Y-39094D03*
X59857Y-35944D03*
X59464Y-35944D03*
X59070Y-35944D03*
X58676Y-35944D03*
X58283Y-35944D03*
X57889Y-35944D03*
X57495Y-35944D03*
X57101Y-35944D03*
X56708Y-35944D03*
X56314Y-35944D03*
X55920Y-35944D03*
X55527Y-35944D03*
G54D14*
X52192Y-41519D03*
G54D15*
X53192Y-41519D03*
X54192Y-41519D03*
X55192Y-41519D03*
X56192Y-41519D03*
X57192Y-41519D03*
X58192Y-41519D03*
X59192Y-41519D03*
X60192Y-41519D03*
X61192Y-41519D03*
X62192Y-41519D03*
X63192Y-41519D03*
G54D14*
X52192Y-33519D03*
G54D15*
X53192Y-33519D03*
X54192Y-33519D03*
X55192Y-33519D03*
X56192Y-33519D03*
X57192Y-33519D03*
X58192Y-33519D03*
X59192Y-33519D03*
X60192Y-33519D03*
X61192Y-33519D03*
X62192Y-33519D03*
X63192Y-33519D03*
G54D14*
X52204Y-37019D03*
G54D15*
X52204Y-38019D03*
G54D13*
X56488Y-34419D03*
X55898Y-34419D03*
G54D11*
X60836Y-38503D03*
G54D12*
X61200Y-38503D03*
X61515Y-38503D03*
G54D11*
X61879Y-38503D03*
X60836Y-39212D03*
G54D12*
X61200Y-39212D03*
X61515Y-39212D03*
G54D11*
X61879Y-39212D03*
X62372Y-38917D03*
G54D12*
X62736Y-38917D03*
X63051Y-38917D03*
G54D11*
X63415Y-38917D03*
X62372Y-39625D03*
G54D12*
X62736Y-39625D03*
X63051Y-39625D03*
G54D11*
X63415Y-39625D03*
X63415Y-36122D03*
G54D12*
X63051Y-36122D03*
X62736Y-36122D03*
G54D11*
X62372Y-36122D03*
X63415Y-35413D03*
G54D12*
X63051Y-35413D03*
X62736Y-35413D03*
G54D11*
X62372Y-35413D03*
X61879Y-36653D03*
G54D12*
X61515Y-36653D03*
X61200Y-36653D03*
G54D11*
X60836Y-36653D03*
X61879Y-35944D03*
G54D12*
X61515Y-35944D03*
X61200Y-35944D03*
G54D11*
X60836Y-35944D03*
X61879Y-46535D03*
G54D12*
X61515Y-46535D03*
X61200Y-46535D03*
G54D11*
X60836Y-46535D03*
X61879Y-45826D03*
G54D12*
X61515Y-45826D03*
X61200Y-45826D03*
G54D11*
X60836Y-45826D03*
X63415Y-46003D03*
G54D12*
X63051Y-46003D03*
X62736Y-46003D03*
G54D11*
X62372Y-46003D03*
X63415Y-45295D03*
G54D12*
X63051Y-45295D03*
X62736Y-45295D03*
G54D11*
X62372Y-45295D03*
X62372Y-48799D03*
G54D12*
X62736Y-48799D03*
X63051Y-48799D03*
G54D11*
X63415Y-48799D03*
X62372Y-49507D03*
G54D12*
X62736Y-49507D03*
X63051Y-49507D03*
G54D11*
X63415Y-49507D03*
X60836Y-48385D03*
G54D12*
X61200Y-48385D03*
X61515Y-48385D03*
G54D11*
X61879Y-48385D03*
X60836Y-49094D03*
G54D12*
X61200Y-49094D03*
X61515Y-49094D03*
G54D11*
X61879Y-49094D03*
G54D13*
X56488Y-44301D03*
X55898Y-44301D03*
G54D14*
X52204Y-46901D03*
G54D15*
X52204Y-47901D03*
G54D14*
X52192Y-43401D03*
G54D15*
X53192Y-43401D03*
X54192Y-43401D03*
X55192Y-43401D03*
X56192Y-43401D03*
X57192Y-43401D03*
X58192Y-43401D03*
X59192Y-43401D03*
X60192Y-43401D03*
X61192Y-43401D03*
X62192Y-43401D03*
X63192Y-43401D03*
G54D14*
X52192Y-51401D03*
G54D15*
X53192Y-51401D03*
X54192Y-51401D03*
X55192Y-51401D03*
X56192Y-51401D03*
X57192Y-51401D03*
X58192Y-51401D03*
X59192Y-51401D03*
X60192Y-51401D03*
X61192Y-51401D03*
X62192Y-51401D03*
X63192Y-51401D03*
G54D16*
X55527Y-48976D03*
X55920Y-48976D03*
X56314Y-48976D03*
X56708Y-48976D03*
X57101Y-48976D03*
X57495Y-48976D03*
X57889Y-48976D03*
X58283Y-48976D03*
X58676Y-48976D03*
X59070Y-48976D03*
X59464Y-48976D03*
X59857Y-48976D03*
X59857Y-45826D03*
X59464Y-45826D03*
X59070Y-45826D03*
X58676Y-45826D03*
X58283Y-45826D03*
X57889Y-45826D03*
X57495Y-45826D03*
X57101Y-45826D03*
X56708Y-45826D03*
X56314Y-45826D03*
X55920Y-45826D03*
X55527Y-45826D03*
G54D17*
X61240Y-47378D03*
X60650Y-47378D03*
G54D18*
X63287Y-46731D03*
X62499Y-46731D03*
G54D19*
X62893Y-48011D03*
G54D20*
X53742Y-47052D03*
X53742Y-47800D03*
X54567Y-47052D03*
X54567Y-47800D03*
G54D13*
X61488Y-50501D03*
X60898Y-50501D03*
X60488Y-50501D03*
X59898Y-50501D03*
X62488Y-50501D03*
X61898Y-50501D03*
X59488Y-50501D03*
X58898Y-50501D03*
X58488Y-50501D03*
X57898Y-50501D03*
X57488Y-50501D03*
X56898Y-50501D03*
X56488Y-50501D03*
X55898Y-50501D03*
X63488Y-50501D03*
X62898Y-50501D03*
X63488Y-44301D03*
X62898Y-44301D03*
X62488Y-44301D03*
X61898Y-44301D03*
X61488Y-44301D03*
X60898Y-44301D03*
X60488Y-44301D03*
X59898Y-44301D03*
X57488Y-44301D03*
X56898Y-44301D03*
X59488Y-44301D03*
X58898Y-44301D03*
X58488Y-44301D03*
X57898Y-44301D03*
X58488Y-54183D03*
X57898Y-54183D03*
X59488Y-54183D03*
X58898Y-54183D03*
X57488Y-54183D03*
X56898Y-54183D03*
X60488Y-54183D03*
X59898Y-54183D03*
X61488Y-54183D03*
X60898Y-54183D03*
X62488Y-54183D03*
X61898Y-54183D03*
X63488Y-54183D03*
X62898Y-54183D03*
X63488Y-60383D03*
X62898Y-60383D03*
X56488Y-60383D03*
X55898Y-60383D03*
X57488Y-60383D03*
X56898Y-60383D03*
X58488Y-60383D03*
X57898Y-60383D03*
X59488Y-60383D03*
X58898Y-60383D03*
X62488Y-60383D03*
X61898Y-60383D03*
X60488Y-60383D03*
X59898Y-60383D03*
X61488Y-60383D03*
X60898Y-60383D03*
G54D20*
X54567Y-56934D03*
X54567Y-57682D03*
X53742Y-56934D03*
X53742Y-57682D03*
G54D18*
X63287Y-56613D03*
X62499Y-56613D03*
G54D19*
X62893Y-57893D03*
G54D17*
X61240Y-57260D03*
X60650Y-57260D03*
G54D16*
X55527Y-58858D03*
X55920Y-58858D03*
X56314Y-58858D03*
X56708Y-58858D03*
X57101Y-58858D03*
X57495Y-58858D03*
X57889Y-58858D03*
X58283Y-58858D03*
X58676Y-58858D03*
X59070Y-58858D03*
X59464Y-58858D03*
X59857Y-58858D03*
X59857Y-55708D03*
X59464Y-55708D03*
X59070Y-55708D03*
X58676Y-55708D03*
X58283Y-55708D03*
X57889Y-55708D03*
X57495Y-55708D03*
X57101Y-55708D03*
X56708Y-55708D03*
X56314Y-55708D03*
X55920Y-55708D03*
X55527Y-55708D03*
G54D14*
X52192Y-61283D03*
G54D15*
X53192Y-61283D03*
X54192Y-61283D03*
X55192Y-61283D03*
X56192Y-61283D03*
X57192Y-61283D03*
X58192Y-61283D03*
X59192Y-61283D03*
X60192Y-61283D03*
X61192Y-61283D03*
X62192Y-61283D03*
X63192Y-61283D03*
G54D14*
X52192Y-53283D03*
G54D15*
X53192Y-53283D03*
X54192Y-53283D03*
X55192Y-53283D03*
X56192Y-53283D03*
X57192Y-53283D03*
X58192Y-53283D03*
X59192Y-53283D03*
X60192Y-53283D03*
X61192Y-53283D03*
X62192Y-53283D03*
X63192Y-53283D03*
G54D14*
X52204Y-56783D03*
G54D15*
X52204Y-57783D03*
G54D13*
X56488Y-54183D03*
X55898Y-54183D03*
G54D11*
X60836Y-58267D03*
G54D12*
X61200Y-58267D03*
X61515Y-58267D03*
G54D11*
X61879Y-58267D03*
X60836Y-58976D03*
G54D12*
X61200Y-58976D03*
X61515Y-58976D03*
G54D11*
X61879Y-58976D03*
X62372Y-58681D03*
G54D12*
X62736Y-58681D03*
X63051Y-58681D03*
G54D11*
X63415Y-58681D03*
X62372Y-59389D03*
G54D12*
X62736Y-59389D03*
X63051Y-59389D03*
G54D11*
X63415Y-59389D03*
X63415Y-55885D03*
G54D12*
X63051Y-55885D03*
X62736Y-55885D03*
G54D11*
X62372Y-55885D03*
X63415Y-55177D03*
G54D12*
X63051Y-55177D03*
X62736Y-55177D03*
G54D11*
X62372Y-55177D03*
X61879Y-56417D03*
G54D12*
X61515Y-56417D03*
X61200Y-56417D03*
G54D11*
X60836Y-56417D03*
X61879Y-55708D03*
G54D12*
X61515Y-55708D03*
X61200Y-55708D03*
G54D11*
X60836Y-55708D03*
G54D21*
X30590Y-28503D03*
X30590Y-38385D03*
X30590Y-48267D03*
X30590Y-58149D03*
X43464Y-58149D03*
X43464Y-48267D03*
X43464Y-38385D03*
X43464Y-28503D03*
X56338Y-28503D03*
X56338Y-38385D03*
X56338Y-48267D03*
X56338Y-58149D03*
X30984Y-26732D03*
X30984Y-36614D03*
X30984Y-46496D03*
X30984Y-56377D03*
X43858Y-56377D03*
X43858Y-46496D03*
X43858Y-36614D03*
X43858Y-26732D03*
X56732Y-26732D03*
X56732Y-36614D03*
X56732Y-46496D03*
X56732Y-56377D03*
X30984Y-28503D03*
X30984Y-38385D03*
X30984Y-48267D03*
X30984Y-58149D03*
X43858Y-58149D03*
X43858Y-48267D03*
X43858Y-38385D03*
X43858Y-28503D03*
X56732Y-28503D03*
X56732Y-38385D03*
X56732Y-48267D03*
X56732Y-58149D03*
X31377Y-28503D03*
X31377Y-38385D03*
X31377Y-48267D03*
X31377Y-58149D03*
X44251Y-58149D03*
X44251Y-48267D03*
X44251Y-38385D03*
X44251Y-28503D03*
X57125Y-28503D03*
X57125Y-38385D03*
X57125Y-48267D03*
X57125Y-58149D03*
X31771Y-28503D03*
X31771Y-38385D03*
X31771Y-48267D03*
X31771Y-58149D03*
X44645Y-58149D03*
X44645Y-48267D03*
X44645Y-38385D03*
X44645Y-28503D03*
X57519Y-28503D03*
X57519Y-38385D03*
X57519Y-48267D03*
X57519Y-58149D03*
X33346Y-26732D03*
X33346Y-36614D03*
X33346Y-46496D03*
X33346Y-56377D03*
X46220Y-56377D03*
X46220Y-46496D03*
X46220Y-36614D03*
X46220Y-26732D03*
X59094Y-26732D03*
X59094Y-36614D03*
X59094Y-46496D03*
X59094Y-56377D03*
X32952Y-26732D03*
X32952Y-36614D03*
X32952Y-46496D03*
X32952Y-56377D03*
X45826Y-56377D03*
X45826Y-46496D03*
X45826Y-36614D03*
X45826Y-26732D03*
X58700Y-26732D03*
X58700Y-36614D03*
X58700Y-46496D03*
X58700Y-56377D03*
X32559Y-26732D03*
X32559Y-36614D03*
X32559Y-46496D03*
X32559Y-56377D03*
X45433Y-56377D03*
X45433Y-46496D03*
X45433Y-36614D03*
X45433Y-26732D03*
X58307Y-26732D03*
X58307Y-36614D03*
X58307Y-46496D03*
X58307Y-56377D03*
X32165Y-26732D03*
X32165Y-36614D03*
X32165Y-46496D03*
X32165Y-56377D03*
X45039Y-56377D03*
X45039Y-46496D03*
X45039Y-36614D03*
X45039Y-26732D03*
X57913Y-26732D03*
X57913Y-36614D03*
X57913Y-46496D03*
X57913Y-56377D03*
X31771Y-26732D03*
X31771Y-36614D03*
X31771Y-46496D03*
X31771Y-56377D03*
X44645Y-56377D03*
X44645Y-46496D03*
X44645Y-36614D03*
X44645Y-26732D03*
X57519Y-26732D03*
X57519Y-36614D03*
X57519Y-46496D03*
X57519Y-56377D03*
X31377Y-26732D03*
X31377Y-36614D03*
X31377Y-46496D03*
X31377Y-56377D03*
X44251Y-56377D03*
X44251Y-46496D03*
X44251Y-36614D03*
X44251Y-26732D03*
X57125Y-26732D03*
X57125Y-36614D03*
X57125Y-46496D03*
X57125Y-56377D03*
X32165Y-28503D03*
X32165Y-38385D03*
X32165Y-48267D03*
X32165Y-58149D03*
X45039Y-58149D03*
X45039Y-48267D03*
X45039Y-38385D03*
X45039Y-28503D03*
X57913Y-28503D03*
X57913Y-38385D03*
X57913Y-48267D03*
X57913Y-58149D03*
X32559Y-28503D03*
X32559Y-38385D03*
X32559Y-48267D03*
X32559Y-58149D03*
X45433Y-58149D03*
X45433Y-48267D03*
X45433Y-38385D03*
X45433Y-28503D03*
X58307Y-28503D03*
X58307Y-38385D03*
X58307Y-48267D03*
X58307Y-58149D03*
X32952Y-28503D03*
X32952Y-38385D03*
X32952Y-48267D03*
X32952Y-58149D03*
X45826Y-58149D03*
X45826Y-48267D03*
X45826Y-38385D03*
X45826Y-28503D03*
X58700Y-28503D03*
X58700Y-38385D03*
X58700Y-48267D03*
X58700Y-58149D03*
X33346Y-28503D03*
X33346Y-38385D03*
X33346Y-48267D03*
X33346Y-58149D03*
X46220Y-58149D03*
X46220Y-48267D03*
X46220Y-38385D03*
X46220Y-28503D03*
X59094Y-28503D03*
X59094Y-38385D03*
X59094Y-48267D03*
X59094Y-58149D03*
X33740Y-28503D03*
X33740Y-38385D03*
X33740Y-48267D03*
X33740Y-58149D03*
X46614Y-58149D03*
X46614Y-48267D03*
X46614Y-38385D03*
X46614Y-28503D03*
X59488Y-28503D03*
X59488Y-38385D03*
X59488Y-48267D03*
X59488Y-58149D03*
X34566Y-29251D03*
X34566Y-39133D03*
X34566Y-49015D03*
X34566Y-58897D03*
X47440Y-58897D03*
X47440Y-49015D03*
X47440Y-39133D03*
X47440Y-29251D03*
X60314Y-29251D03*
X60314Y-39133D03*
X60314Y-49015D03*
X60314Y-58897D03*
X34544Y-26087D03*
X34544Y-35969D03*
X34544Y-45851D03*
X34544Y-55733D03*
X47418Y-55733D03*
X47418Y-45851D03*
X47418Y-35969D03*
X47418Y-26087D03*
X60292Y-26087D03*
X60292Y-35969D03*
X60292Y-45851D03*
X60292Y-55733D03*
X33740Y-26732D03*
X33740Y-36614D03*
X33740Y-46496D03*
X33740Y-56377D03*
X46614Y-56377D03*
X46614Y-46496D03*
X46614Y-36614D03*
X46614Y-26732D03*
X59488Y-26732D03*
X59488Y-36614D03*
X59488Y-46496D03*
X59488Y-56377D03*
X30196Y-26732D03*
X30196Y-36614D03*
X30196Y-46496D03*
X30196Y-56377D03*
X43070Y-56377D03*
X43070Y-46496D03*
X43070Y-36614D03*
X43070Y-26732D03*
X55944Y-26732D03*
X55944Y-36614D03*
X55944Y-46496D03*
X55944Y-56377D03*
X30196Y-28503D03*
X30196Y-38385D03*
X30196Y-48267D03*
X30196Y-58149D03*
X43070Y-58149D03*
X43070Y-48267D03*
X43070Y-38385D03*
X43070Y-28503D03*
X55944Y-28503D03*
X55944Y-38385D03*
X55944Y-48267D03*
X55944Y-58149D03*
X30590Y-26732D03*
X30590Y-36614D03*
X30590Y-46496D03*
X30590Y-56377D03*
X43464Y-56377D03*
X43464Y-46496D03*
X43464Y-36614D03*
X43464Y-26732D03*
X56338Y-26732D03*
X56338Y-36614D03*
X56338Y-46496D03*
X56338Y-56377D03*
X34665Y-26751D03*
X34665Y-28622D03*
X34665Y-38503D03*
X34665Y-36633D03*
X34665Y-46515D03*
X34665Y-48385D03*
X34665Y-58267D03*
X34665Y-56397D03*
X47539Y-56397D03*
X47539Y-58267D03*
X47539Y-48385D03*
X47539Y-46515D03*
X47539Y-36633D03*
X47539Y-38503D03*
X47539Y-28622D03*
X47539Y-26751D03*
X60413Y-26751D03*
X60413Y-28622D03*
X60413Y-38503D03*
X60413Y-36633D03*
X60413Y-46515D03*
X60413Y-48385D03*
X60413Y-58267D03*
X60413Y-56397D03*
X29344Y-26037D03*
X29344Y-35919D03*
X29344Y-45801D03*
X29344Y-55683D03*
X42218Y-55683D03*
X42218Y-45801D03*
X42218Y-35919D03*
X42218Y-26037D03*
X55092Y-26037D03*
X55092Y-35919D03*
X55092Y-45801D03*
X55092Y-55683D03*
G54D22*
X30590Y-29189D02*
X30590Y-28503D01*
X30566Y-29212D02*
X30590Y-29189D01*
X30566Y-39094D02*
X30590Y-39071D01*
X30590Y-39071D02*
X30590Y-38385D01*
X30590Y-48952D02*
X30590Y-48267D01*
X30566Y-48976D02*
X30590Y-48952D01*
X30566Y-58858D02*
X30590Y-58834D01*
X30590Y-58834D02*
X30590Y-58149D01*
X43464Y-58834D02*
X43464Y-58149D01*
X43440Y-58858D02*
X43464Y-58834D01*
X43440Y-48976D02*
X43464Y-48952D01*
X43464Y-48952D02*
X43464Y-48267D01*
X43464Y-39071D02*
X43464Y-38385D01*
X43440Y-39094D02*
X43464Y-39071D01*
X43440Y-29212D02*
X43464Y-29189D01*
X43464Y-29189D02*
X43464Y-28503D01*
X56338Y-29189D02*
X56338Y-28503D01*
X56314Y-29212D02*
X56338Y-29189D01*
X56314Y-39094D02*
X56338Y-39071D01*
X56338Y-39071D02*
X56338Y-38385D01*
X56338Y-48952D02*
X56338Y-48267D01*
X56314Y-48976D02*
X56338Y-48952D01*
X56314Y-58858D02*
X56338Y-58834D01*
X56338Y-58834D02*
X56338Y-58149D01*
X30984Y-26086D02*
X30984Y-26732D01*
X30960Y-26062D02*
X30984Y-26086D01*
X30960Y-35944D02*
X30984Y-35968D01*
X30984Y-35968D02*
X30984Y-36614D01*
X30984Y-45849D02*
X30984Y-46496D01*
X30960Y-45826D02*
X30984Y-45849D01*
X30960Y-55708D02*
X30984Y-55731D01*
X30984Y-55731D02*
X30984Y-56377D01*
X43858Y-55731D02*
X43858Y-56377D01*
X43834Y-55708D02*
X43858Y-55731D01*
X43834Y-45826D02*
X43858Y-45849D01*
X43858Y-45849D02*
X43858Y-46496D01*
X43858Y-35968D02*
X43858Y-36614D01*
X43834Y-35944D02*
X43858Y-35968D01*
X43834Y-26062D02*
X43858Y-26086D01*
X43858Y-26086D02*
X43858Y-26732D01*
X56732Y-26086D02*
X56732Y-26732D01*
X56708Y-26062D02*
X56732Y-26086D01*
X56708Y-35944D02*
X56732Y-35968D01*
X56732Y-35968D02*
X56732Y-36614D01*
X56732Y-45849D02*
X56732Y-46496D01*
X56708Y-45826D02*
X56732Y-45849D01*
X56708Y-55708D02*
X56732Y-55731D01*
X56732Y-55731D02*
X56732Y-56377D01*
G54D23*
X30740Y-29938D02*
X30964Y-29714D01*
X30964Y-29714D02*
X35009Y-29714D01*
X35009Y-29714D02*
X35088Y-29635D01*
X35088Y-29635D02*
X35088Y-29330D01*
X30740Y-30737D02*
X30740Y-29938D01*
X30740Y-40619D02*
X30740Y-39820D01*
X35088Y-39517D02*
X35088Y-39212D01*
X35009Y-39596D02*
X35088Y-39517D01*
X30964Y-39596D02*
X35009Y-39596D01*
X30740Y-39820D02*
X30964Y-39596D01*
X30740Y-49702D02*
X30964Y-49478D01*
X30964Y-49478D02*
X35009Y-49478D01*
X35009Y-49478D02*
X35088Y-49399D01*
X35088Y-49399D02*
X35088Y-49094D01*
X30740Y-50501D02*
X30740Y-49702D01*
X30740Y-60383D02*
X30740Y-59584D01*
X35088Y-59281D02*
X35088Y-58976D01*
X35009Y-59360D02*
X35088Y-59281D01*
X30964Y-59360D02*
X35009Y-59360D01*
X30740Y-59584D02*
X30964Y-59360D01*
X43614Y-59584D02*
X43838Y-59360D01*
X43838Y-59360D02*
X47883Y-59360D01*
X47883Y-59360D02*
X47962Y-59281D01*
X47962Y-59281D02*
X47962Y-58976D01*
X43614Y-60383D02*
X43614Y-59584D01*
X43614Y-50501D02*
X43614Y-49702D01*
X47962Y-49399D02*
X47962Y-49094D01*
X47883Y-49478D02*
X47962Y-49399D01*
X43838Y-49478D02*
X47883Y-49478D01*
X43614Y-49702D02*
X43838Y-49478D01*
X43614Y-39820D02*
X43838Y-39596D01*
X43838Y-39596D02*
X47883Y-39596D01*
X47883Y-39596D02*
X47962Y-39517D01*
X47962Y-39517D02*
X47962Y-39212D01*
X43614Y-40619D02*
X43614Y-39820D01*
X43614Y-30737D02*
X43614Y-29938D01*
X47962Y-29635D02*
X47962Y-29330D01*
X47883Y-29714D02*
X47962Y-29635D01*
X43838Y-29714D02*
X47883Y-29714D01*
X43614Y-29938D02*
X43838Y-29714D01*
X56488Y-29938D02*
X56712Y-29714D01*
X56712Y-29714D02*
X60757Y-29714D01*
X60757Y-29714D02*
X60836Y-29635D01*
X60836Y-29635D02*
X60836Y-29330D01*
X56488Y-30737D02*
X56488Y-29938D01*
X56488Y-40619D02*
X56488Y-39820D01*
X60836Y-39517D02*
X60836Y-39212D01*
X60757Y-39596D02*
X60836Y-39517D01*
X56712Y-39596D02*
X60757Y-39596D01*
X56488Y-39820D02*
X56712Y-39596D01*
X56488Y-49702D02*
X56712Y-49478D01*
X56712Y-49478D02*
X60757Y-49478D01*
X60757Y-49478D02*
X60836Y-49399D01*
X60836Y-49399D02*
X60836Y-49094D01*
X56488Y-50501D02*
X56488Y-49702D01*
X56488Y-60383D02*
X56488Y-59584D01*
X60836Y-59281D02*
X60836Y-58976D01*
X60757Y-59360D02*
X60836Y-59281D01*
X56712Y-59360D02*
X60757Y-59360D01*
X56488Y-59584D02*
X56712Y-59360D01*
G54D10*
X37667Y-25649D02*
X37740Y-25576D01*
G54D23*
X37696Y-25620D02*
X37696Y-24581D01*
G54D10*
X37696Y-24581D02*
X37740Y-24537D01*
X37667Y-25649D02*
X37696Y-25620D01*
X37667Y-35531D02*
X37696Y-35501D01*
X37696Y-34463D02*
X37740Y-34419D01*
G54D23*
X37696Y-35501D02*
X37696Y-34463D01*
G54D10*
X37667Y-35531D02*
X37740Y-35458D01*
X37667Y-45413D02*
X37740Y-45340D01*
G54D23*
X37696Y-45383D02*
X37696Y-44345D01*
G54D10*
X37696Y-44345D02*
X37740Y-44301D01*
X37667Y-45413D02*
X37696Y-45383D01*
X37667Y-55295D02*
X37696Y-55265D01*
X37696Y-54227D02*
X37740Y-54183D01*
G54D23*
X37696Y-55265D02*
X37696Y-54227D01*
G54D10*
X37667Y-55295D02*
X37740Y-55222D01*
X50541Y-55295D02*
X50614Y-55222D01*
G54D23*
X50570Y-55265D02*
X50570Y-54227D01*
G54D10*
X50570Y-54227D02*
X50614Y-54183D01*
X50541Y-55295D02*
X50570Y-55265D01*
X50541Y-45413D02*
X50570Y-45383D01*
X50570Y-44345D02*
X50614Y-44301D01*
G54D23*
X50570Y-45383D02*
X50570Y-44345D01*
G54D10*
X50541Y-45413D02*
X50614Y-45340D01*
X50541Y-35531D02*
X50614Y-35458D01*
G54D23*
X50570Y-35501D02*
X50570Y-34463D01*
G54D10*
X50570Y-34463D02*
X50614Y-34419D01*
X50541Y-35531D02*
X50570Y-35501D01*
X50541Y-25649D02*
X50570Y-25620D01*
X50570Y-24581D02*
X50614Y-24537D01*
G54D23*
X50570Y-25620D02*
X50570Y-24581D01*
G54D10*
X50541Y-25649D02*
X50614Y-25576D01*
X63415Y-25649D02*
X63488Y-25576D01*
G54D23*
X63444Y-25620D02*
X63444Y-24581D01*
G54D10*
X63444Y-24581D02*
X63488Y-24537D01*
X63415Y-25649D02*
X63444Y-25620D01*
X63415Y-35531D02*
X63444Y-35501D01*
X63444Y-34463D02*
X63488Y-34419D01*
G54D23*
X63444Y-35501D02*
X63444Y-34463D01*
G54D10*
X63415Y-35531D02*
X63488Y-35458D01*
X63415Y-45413D02*
X63488Y-45340D01*
G54D23*
X63444Y-45383D02*
X63444Y-44345D01*
G54D10*
X63444Y-44345D02*
X63488Y-44301D01*
X63415Y-45413D02*
X63444Y-45383D01*
X63415Y-55295D02*
X63444Y-55265D01*
X63444Y-54227D02*
X63488Y-54183D01*
G54D23*
X63444Y-55265D02*
X63444Y-54227D01*
G54D10*
X63415Y-55295D02*
X63488Y-55222D01*
G54D23*
X31740Y-30139D02*
X32017Y-29862D01*
X32017Y-29862D02*
X35206Y-29862D01*
X35206Y-29862D02*
X35452Y-29616D01*
X35452Y-29616D02*
X35452Y-29330D01*
X31740Y-30737D02*
X31740Y-30139D01*
X31740Y-40619D02*
X31740Y-40021D01*
X35452Y-39498D02*
X35452Y-39212D01*
X35206Y-39744D02*
X35452Y-39498D01*
X32017Y-39744D02*
X35206Y-39744D01*
X31740Y-40021D02*
X32017Y-39744D01*
X31740Y-49903D02*
X32017Y-49625D01*
X32017Y-49625D02*
X35206Y-49625D01*
X35206Y-49625D02*
X35452Y-49379D01*
X35452Y-49379D02*
X35452Y-49094D01*
X31740Y-50501D02*
X31740Y-49903D01*
X31740Y-60383D02*
X31740Y-59785D01*
X35452Y-59261D02*
X35452Y-58976D01*
X35206Y-59507D02*
X35452Y-59261D01*
X32017Y-59507D02*
X35206Y-59507D01*
X31740Y-59785D02*
X32017Y-59507D01*
X44614Y-59785D02*
X44891Y-59507D01*
X44891Y-59507D02*
X48080Y-59507D01*
X48080Y-59507D02*
X48326Y-59261D01*
X48326Y-59261D02*
X48326Y-58976D01*
X44614Y-60383D02*
X44614Y-59785D01*
X44614Y-50501D02*
X44614Y-49903D01*
X48326Y-49379D02*
X48326Y-49094D01*
X48080Y-49625D02*
X48326Y-49379D01*
X44891Y-49625D02*
X48080Y-49625D01*
X44614Y-49903D02*
X44891Y-49625D01*
X44614Y-40021D02*
X44891Y-39744D01*
X44891Y-39744D02*
X48080Y-39744D01*
X48080Y-39744D02*
X48326Y-39498D01*
X48326Y-39498D02*
X48326Y-39212D01*
X44614Y-40619D02*
X44614Y-40021D01*
X44614Y-30737D02*
X44614Y-30139D01*
X48326Y-29616D02*
X48326Y-29330D01*
X48080Y-29862D02*
X48326Y-29616D01*
X44891Y-29862D02*
X48080Y-29862D01*
X44614Y-30139D02*
X44891Y-29862D01*
X57488Y-30139D02*
X57765Y-29862D01*
X57765Y-29862D02*
X60954Y-29862D01*
X60954Y-29862D02*
X61200Y-29616D01*
X61200Y-29616D02*
X61200Y-29330D01*
X57488Y-30737D02*
X57488Y-30139D01*
X57488Y-40619D02*
X57488Y-40021D01*
X61200Y-39498D02*
X61200Y-39212D01*
X60954Y-39744D02*
X61200Y-39498D01*
X57765Y-39744D02*
X60954Y-39744D01*
X57488Y-40021D02*
X57765Y-39744D01*
X57488Y-49903D02*
X57765Y-49625D01*
X57765Y-49625D02*
X60954Y-49625D01*
X60954Y-49625D02*
X61200Y-49379D01*
X61200Y-49379D02*
X61200Y-49094D01*
X57488Y-50501D02*
X57488Y-49903D01*
X57488Y-60383D02*
X57488Y-59785D01*
X61200Y-59261D02*
X61200Y-58976D01*
X60954Y-59507D02*
X61200Y-59261D01*
X57765Y-59507D02*
X60954Y-59507D01*
X57488Y-59785D02*
X57765Y-59507D01*
X36732Y-24901D02*
X36909Y-25078D01*
X36909Y-25078D02*
X37125Y-25078D01*
X37125Y-25078D02*
X37303Y-25255D01*
X37303Y-25255D02*
X37303Y-25649D01*
X36732Y-24546D02*
X36732Y-24901D01*
G54D10*
X36740Y-24537D02*
X36732Y-24546D01*
X36740Y-34419D02*
X36732Y-34427D01*
G54D23*
X36732Y-34427D02*
X36732Y-34783D01*
X37303Y-35137D02*
X37303Y-35531D01*
X37125Y-34960D02*
X37303Y-35137D01*
X36909Y-34960D02*
X37125Y-34960D01*
X36732Y-34783D02*
X36909Y-34960D01*
X36732Y-44665D02*
X36909Y-44842D01*
X36909Y-44842D02*
X37125Y-44842D01*
X37125Y-44842D02*
X37303Y-45019D01*
X37303Y-45019D02*
X37303Y-45413D01*
X36732Y-44309D02*
X36732Y-44665D01*
G54D10*
X36740Y-44301D02*
X36732Y-44309D01*
X36740Y-54183D02*
X36732Y-54191D01*
G54D23*
X36732Y-54191D02*
X36732Y-54547D01*
X37303Y-54901D02*
X37303Y-55295D01*
X37125Y-54724D02*
X37303Y-54901D01*
X36909Y-54724D02*
X37125Y-54724D01*
X36732Y-54547D02*
X36909Y-54724D01*
X49606Y-54547D02*
X49783Y-54724D01*
X49783Y-54724D02*
X50000Y-54724D01*
X50000Y-54724D02*
X50177Y-54901D01*
X50177Y-54901D02*
X50177Y-55295D01*
X49606Y-54191D02*
X49606Y-54547D01*
G54D10*
X49614Y-54183D02*
X49606Y-54191D01*
X49614Y-44301D02*
X49606Y-44309D01*
G54D23*
X49606Y-44309D02*
X49606Y-44665D01*
X50177Y-45019D02*
X50177Y-45413D01*
X50000Y-44842D02*
X50177Y-45019D01*
X49783Y-44842D02*
X50000Y-44842D01*
X49606Y-44665D02*
X49783Y-44842D01*
X49606Y-34783D02*
X49783Y-34960D01*
X49783Y-34960D02*
X50000Y-34960D01*
X50000Y-34960D02*
X50177Y-35137D01*
X50177Y-35137D02*
X50177Y-35531D01*
X49606Y-34427D02*
X49606Y-34783D01*
G54D10*
X49614Y-34419D02*
X49606Y-34427D01*
X49614Y-24537D02*
X49606Y-24546D01*
G54D23*
X49606Y-24546D02*
X49606Y-24901D01*
X50177Y-25255D02*
X50177Y-25649D01*
X50000Y-25078D02*
X50177Y-25255D01*
X49783Y-25078D02*
X50000Y-25078D01*
X49606Y-24901D02*
X49783Y-25078D01*
X62480Y-24901D02*
X62657Y-25078D01*
X62657Y-25078D02*
X62874Y-25078D01*
X62874Y-25078D02*
X63051Y-25255D01*
X63051Y-25255D02*
X63051Y-25649D01*
X62480Y-24546D02*
X62480Y-24901D01*
G54D10*
X62488Y-24537D02*
X62480Y-24546D01*
X62488Y-34419D02*
X62480Y-34427D01*
G54D23*
X62480Y-34427D02*
X62480Y-34783D01*
X63051Y-35137D02*
X63051Y-35531D01*
X62874Y-34960D02*
X63051Y-35137D01*
X62657Y-34960D02*
X62874Y-34960D01*
X62480Y-34783D02*
X62657Y-34960D01*
X62480Y-44665D02*
X62657Y-44842D01*
X62657Y-44842D02*
X62874Y-44842D01*
X62874Y-44842D02*
X63051Y-45019D01*
X63051Y-45019D02*
X63051Y-45413D01*
X62480Y-44309D02*
X62480Y-44665D01*
G54D10*
X62488Y-44301D02*
X62480Y-44309D01*
X62488Y-54183D02*
X62480Y-54191D01*
G54D23*
X62480Y-54191D02*
X62480Y-54547D01*
X63051Y-54901D02*
X63051Y-55295D01*
X62874Y-54724D02*
X63051Y-54901D01*
X62657Y-54724D02*
X62874Y-54724D01*
X62480Y-54547D02*
X62657Y-54724D01*
X32740Y-30214D02*
X32945Y-30009D01*
X32945Y-30009D02*
X35433Y-30009D01*
X35433Y-30009D02*
X35767Y-29675D01*
X35767Y-29675D02*
X35767Y-29330D01*
X32740Y-30737D02*
X32740Y-30214D01*
X32740Y-40619D02*
X32740Y-40096D01*
X35767Y-39557D02*
X35767Y-39212D01*
X35433Y-39891D02*
X35767Y-39557D01*
X32945Y-39891D02*
X35433Y-39891D01*
X32740Y-40096D02*
X32945Y-39891D01*
X32740Y-49978D02*
X32945Y-49773D01*
X32945Y-49773D02*
X35433Y-49773D01*
X35433Y-49773D02*
X35767Y-49438D01*
X35767Y-49438D02*
X35767Y-49094D01*
X32740Y-50501D02*
X32740Y-49978D01*
X32740Y-60383D02*
X32740Y-59860D01*
X35767Y-59320D02*
X35767Y-58976D01*
X35433Y-59655D02*
X35767Y-59320D01*
X32945Y-59655D02*
X35433Y-59655D01*
X32740Y-59860D02*
X32945Y-59655D01*
X45614Y-59860D02*
X45819Y-59655D01*
X45819Y-59655D02*
X48307Y-59655D01*
X48307Y-59655D02*
X48641Y-59320D01*
X48641Y-59320D02*
X48641Y-58976D01*
X45614Y-60383D02*
X45614Y-59860D01*
X45614Y-50501D02*
X45614Y-49978D01*
X48641Y-49438D02*
X48641Y-49094D01*
X48307Y-49773D02*
X48641Y-49438D01*
X45819Y-49773D02*
X48307Y-49773D01*
X45614Y-49978D02*
X45819Y-49773D01*
X45614Y-40096D02*
X45819Y-39891D01*
X45819Y-39891D02*
X48307Y-39891D01*
X48307Y-39891D02*
X48641Y-39557D01*
X48641Y-39557D02*
X48641Y-39212D01*
X45614Y-40619D02*
X45614Y-40096D01*
X45614Y-30737D02*
X45614Y-30214D01*
X48641Y-29675D02*
X48641Y-29330D01*
X48307Y-30009D02*
X48641Y-29675D01*
X45819Y-30009D02*
X48307Y-30009D01*
X45614Y-30214D02*
X45819Y-30009D01*
X58488Y-30214D02*
X58693Y-30009D01*
X58693Y-30009D02*
X61181Y-30009D01*
X61181Y-30009D02*
X61515Y-29675D01*
X61515Y-29675D02*
X61515Y-29330D01*
X58488Y-30737D02*
X58488Y-30214D01*
X58488Y-40619D02*
X58488Y-40096D01*
X61515Y-39557D02*
X61515Y-39212D01*
X61181Y-39891D02*
X61515Y-39557D01*
X58693Y-39891D02*
X61181Y-39891D01*
X58488Y-40096D02*
X58693Y-39891D01*
X58488Y-49978D02*
X58693Y-49773D01*
X58693Y-49773D02*
X61181Y-49773D01*
X61181Y-49773D02*
X61515Y-49438D01*
X61515Y-49438D02*
X61515Y-49094D01*
X58488Y-50501D02*
X58488Y-49978D01*
X58488Y-60383D02*
X58488Y-59860D01*
X61515Y-59320D02*
X61515Y-58976D01*
X61181Y-59655D02*
X61515Y-59320D01*
X58693Y-59655D02*
X61181Y-59655D01*
X58488Y-59860D02*
X58693Y-59655D01*
X36043Y-25118D02*
X36732Y-25118D01*
X36732Y-25118D02*
X36988Y-25374D01*
G54D10*
X36988Y-25374D02*
X36988Y-25649D01*
G54D23*
X35740Y-24537D02*
X35740Y-24815D01*
X35740Y-24815D02*
X36043Y-25118D01*
X35740Y-34697D02*
X36043Y-35000D01*
X35740Y-34419D02*
X35740Y-34697D01*
G54D10*
X36988Y-35255D02*
X36988Y-35531D01*
G54D23*
X36732Y-35000D02*
X36988Y-35255D01*
X36043Y-35000D02*
X36732Y-35000D01*
X36043Y-44881D02*
X36732Y-44881D01*
X36732Y-44881D02*
X36988Y-45137D01*
G54D10*
X36988Y-45137D02*
X36988Y-45413D01*
G54D23*
X35740Y-44301D02*
X35740Y-44579D01*
X35740Y-44579D02*
X36043Y-44881D01*
X35740Y-54460D02*
X36043Y-54763D01*
X35740Y-54183D02*
X35740Y-54460D01*
G54D10*
X36988Y-55019D02*
X36988Y-55295D01*
G54D23*
X36732Y-54763D02*
X36988Y-55019D01*
X36043Y-54763D02*
X36732Y-54763D01*
X48917Y-54763D02*
X49606Y-54763D01*
X49606Y-54763D02*
X49862Y-55019D01*
G54D10*
X49862Y-55019D02*
X49862Y-55295D01*
G54D23*
X48614Y-54183D02*
X48614Y-54460D01*
X48614Y-54460D02*
X48917Y-54763D01*
X48614Y-44579D02*
X48917Y-44881D01*
X48614Y-44301D02*
X48614Y-44579D01*
G54D10*
X49862Y-45137D02*
X49862Y-45413D01*
G54D23*
X49606Y-44881D02*
X49862Y-45137D01*
X48917Y-44881D02*
X49606Y-44881D01*
X48917Y-35000D02*
X49606Y-35000D01*
X49606Y-35000D02*
X49862Y-35255D01*
G54D10*
X49862Y-35255D02*
X49862Y-35531D01*
G54D23*
X48614Y-34419D02*
X48614Y-34697D01*
X48614Y-34697D02*
X48917Y-35000D01*
X48614Y-24815D02*
X48917Y-25118D01*
X48614Y-24537D02*
X48614Y-24815D01*
G54D10*
X49862Y-25374D02*
X49862Y-25649D01*
G54D23*
X49606Y-25118D02*
X49862Y-25374D01*
X48917Y-25118D02*
X49606Y-25118D01*
X61791Y-25118D02*
X62480Y-25118D01*
X62480Y-25118D02*
X62736Y-25374D01*
G54D10*
X62736Y-25374D02*
X62736Y-25649D01*
G54D23*
X61488Y-24537D02*
X61488Y-24815D01*
X61488Y-24815D02*
X61791Y-25118D01*
X61488Y-34697D02*
X61791Y-35000D01*
X61488Y-34419D02*
X61488Y-34697D01*
G54D10*
X62736Y-35255D02*
X62736Y-35531D01*
G54D23*
X62480Y-35000D02*
X62736Y-35255D01*
X61791Y-35000D02*
X62480Y-35000D01*
X61791Y-44881D02*
X62480Y-44881D01*
X62480Y-44881D02*
X62736Y-45137D01*
G54D10*
X62736Y-45137D02*
X62736Y-45413D01*
G54D23*
X61488Y-44301D02*
X61488Y-44579D01*
X61488Y-44579D02*
X61791Y-44881D01*
X61488Y-54460D02*
X61791Y-54763D01*
X61488Y-54183D02*
X61488Y-54460D01*
G54D10*
X62736Y-55019D02*
X62736Y-55295D01*
G54D23*
X62480Y-54763D02*
X62736Y-55019D01*
X61791Y-54763D02*
X62480Y-54763D01*
X33740Y-30422D02*
X33996Y-30167D01*
X33996Y-30167D02*
X35531Y-30167D01*
X35531Y-30167D02*
X36131Y-29566D01*
X36131Y-29566D02*
X36131Y-29330D01*
X33740Y-30737D02*
X33740Y-30422D01*
X33740Y-40619D02*
X33740Y-40304D01*
X36131Y-39448D02*
X36131Y-39212D01*
X35531Y-40049D02*
X36131Y-39448D01*
X33996Y-40049D02*
X35531Y-40049D01*
X33740Y-40304D02*
X33996Y-40049D01*
X33740Y-50186D02*
X33996Y-49931D01*
X33996Y-49931D02*
X35531Y-49931D01*
X35531Y-49931D02*
X36131Y-49330D01*
X36131Y-49330D02*
X36131Y-49094D01*
X33740Y-50501D02*
X33740Y-50186D01*
X33740Y-60383D02*
X33740Y-60068D01*
X36131Y-59212D02*
X36131Y-58976D01*
X35531Y-59812D02*
X36131Y-59212D01*
X33996Y-59812D02*
X35531Y-59812D01*
X33740Y-60068D02*
X33996Y-59812D01*
X46614Y-60068D02*
X46870Y-59812D01*
X46870Y-59812D02*
X48405Y-59812D01*
X48405Y-59812D02*
X49005Y-59212D01*
X49005Y-59212D02*
X49005Y-58976D01*
X46614Y-60383D02*
X46614Y-60068D01*
X46614Y-50501D02*
X46614Y-50186D01*
X49005Y-49330D02*
X49005Y-49094D01*
X48405Y-49931D02*
X49005Y-49330D01*
X46870Y-49931D02*
X48405Y-49931D01*
X46614Y-50186D02*
X46870Y-49931D01*
X46614Y-40304D02*
X46870Y-40049D01*
X46870Y-40049D02*
X48405Y-40049D01*
X48405Y-40049D02*
X49005Y-39448D01*
X49005Y-39448D02*
X49005Y-39212D01*
X46614Y-40619D02*
X46614Y-40304D01*
X46614Y-30737D02*
X46614Y-30422D01*
X49005Y-29566D02*
X49005Y-29330D01*
X48405Y-30167D02*
X49005Y-29566D01*
X46870Y-30167D02*
X48405Y-30167D01*
X46614Y-30422D02*
X46870Y-30167D01*
X59488Y-30422D02*
X59744Y-30167D01*
X59744Y-30167D02*
X61279Y-30167D01*
X61279Y-30167D02*
X61879Y-29566D01*
X61879Y-29566D02*
X61879Y-29330D01*
X59488Y-30737D02*
X59488Y-30422D01*
X59488Y-40619D02*
X59488Y-40304D01*
X61879Y-39448D02*
X61879Y-39212D01*
X61279Y-40049D02*
X61879Y-39448D01*
X59744Y-40049D02*
X61279Y-40049D01*
X59488Y-40304D02*
X59744Y-40049D01*
X59488Y-50186D02*
X59744Y-49931D01*
X59744Y-49931D02*
X61279Y-49931D01*
X61279Y-49931D02*
X61879Y-49330D01*
X61879Y-49330D02*
X61879Y-49094D01*
X59488Y-50501D02*
X59488Y-50186D01*
X59488Y-60383D02*
X59488Y-60068D01*
X61879Y-59212D02*
X61879Y-58976D01*
X61279Y-59812D02*
X61879Y-59212D01*
X59744Y-59812D02*
X61279Y-59812D01*
X59488Y-60068D02*
X59744Y-59812D01*
X36181Y-25531D02*
X36624Y-25531D01*
X34740Y-24819D02*
X34842Y-24921D01*
X34842Y-24921D02*
X35570Y-24921D01*
X34740Y-24537D02*
X34740Y-24819D01*
X35570Y-24921D02*
X36181Y-25531D01*
X35570Y-34803D02*
X36181Y-35413D01*
X34740Y-34419D02*
X34740Y-34701D01*
X34842Y-34803D02*
X35570Y-34803D01*
X34740Y-34701D02*
X34842Y-34803D01*
X36181Y-35413D02*
X36624Y-35413D01*
X36181Y-45295D02*
X36624Y-45295D01*
X34740Y-44582D02*
X34842Y-44685D01*
X34842Y-44685D02*
X35570Y-44685D01*
X34740Y-44301D02*
X34740Y-44582D01*
X35570Y-44685D02*
X36181Y-45295D01*
X35570Y-54566D02*
X36181Y-55177D01*
X34740Y-54183D02*
X34740Y-54464D01*
X34842Y-54566D02*
X35570Y-54566D01*
X34740Y-54464D02*
X34842Y-54566D01*
X36181Y-55177D02*
X36624Y-55177D01*
X49055Y-55177D02*
X49498Y-55177D01*
X47614Y-54464D02*
X47716Y-54566D01*
X47716Y-54566D02*
X48444Y-54566D01*
X47614Y-54183D02*
X47614Y-54464D01*
X48444Y-54566D02*
X49055Y-55177D01*
X48444Y-44685D02*
X49055Y-45295D01*
X47614Y-44301D02*
X47614Y-44582D01*
X47716Y-44685D02*
X48444Y-44685D01*
X47614Y-44582D02*
X47716Y-44685D01*
X49055Y-45295D02*
X49498Y-45295D01*
X49055Y-35413D02*
X49498Y-35413D01*
X47614Y-34701D02*
X47716Y-34803D01*
X47716Y-34803D02*
X48444Y-34803D01*
X47614Y-34419D02*
X47614Y-34701D01*
X48444Y-34803D02*
X49055Y-35413D01*
X48444Y-24921D02*
X49055Y-25531D01*
X47614Y-24537D02*
X47614Y-24819D01*
X47716Y-24921D02*
X48444Y-24921D01*
X47614Y-24819D02*
X47716Y-24921D01*
X49055Y-25531D02*
X49498Y-25531D01*
X61929Y-25531D02*
X62372Y-25531D01*
X60488Y-24819D02*
X60590Y-24921D01*
X60590Y-24921D02*
X61318Y-24921D01*
X60488Y-24537D02*
X60488Y-24819D01*
X61318Y-24921D02*
X61929Y-25531D01*
X61318Y-34803D02*
X61929Y-35413D01*
X60488Y-34419D02*
X60488Y-34701D01*
X60590Y-34803D02*
X61318Y-34803D01*
X60488Y-34701D02*
X60590Y-34803D01*
X61929Y-35413D02*
X62372Y-35413D01*
X61929Y-45295D02*
X62372Y-45295D01*
X60488Y-44582D02*
X60590Y-44685D01*
X60590Y-44685D02*
X61318Y-44685D01*
X60488Y-44301D02*
X60488Y-44582D01*
X61318Y-44685D02*
X61929Y-45295D01*
X61318Y-54566D02*
X61929Y-55177D01*
X60488Y-54183D02*
X60488Y-54464D01*
X60590Y-54566D02*
X61318Y-54566D01*
X60488Y-54464D02*
X60590Y-54566D01*
X61929Y-55177D02*
X62372Y-55177D01*
X36240Y-29744D02*
X35649Y-30334D01*
X35649Y-30334D02*
X34872Y-30334D01*
X34872Y-30334D02*
X34740Y-30466D01*
X34740Y-30466D02*
X34740Y-30737D01*
X36624Y-29744D02*
X36240Y-29744D01*
X36624Y-39625D02*
X36240Y-39625D01*
X34740Y-40348D02*
X34740Y-40619D01*
X34872Y-40216D02*
X34740Y-40348D01*
X35649Y-40216D02*
X34872Y-40216D01*
X36240Y-39625D02*
X35649Y-40216D01*
X36240Y-49507D02*
X35649Y-50098D01*
X35649Y-50098D02*
X34872Y-50098D01*
X34872Y-50098D02*
X34740Y-50230D01*
X34740Y-50230D02*
X34740Y-50501D01*
X36624Y-49507D02*
X36240Y-49507D01*
X36624Y-59389D02*
X36240Y-59389D01*
X34740Y-60111D02*
X34740Y-60383D01*
X34872Y-59980D02*
X34740Y-60111D01*
X35649Y-59980D02*
X34872Y-59980D01*
X36240Y-59389D02*
X35649Y-59980D01*
X49114Y-59389D02*
X48523Y-59980D01*
X48523Y-59980D02*
X47746Y-59980D01*
X47746Y-59980D02*
X47614Y-60111D01*
X47614Y-60111D02*
X47614Y-60383D01*
X49498Y-59389D02*
X49114Y-59389D01*
X49498Y-49507D02*
X49114Y-49507D01*
X47614Y-50230D02*
X47614Y-50501D01*
X47746Y-50098D02*
X47614Y-50230D01*
X48523Y-50098D02*
X47746Y-50098D01*
X49114Y-49507D02*
X48523Y-50098D01*
X49114Y-39625D02*
X48523Y-40216D01*
X48523Y-40216D02*
X47746Y-40216D01*
X47746Y-40216D02*
X47614Y-40348D01*
X47614Y-40348D02*
X47614Y-40619D01*
X49498Y-39625D02*
X49114Y-39625D01*
X49498Y-29744D02*
X49114Y-29744D01*
X47614Y-30466D02*
X47614Y-30737D01*
X47746Y-30334D02*
X47614Y-30466D01*
X48523Y-30334D02*
X47746Y-30334D01*
X49114Y-29744D02*
X48523Y-30334D01*
X61988Y-29744D02*
X61397Y-30334D01*
X61397Y-30334D02*
X60620Y-30334D01*
X60620Y-30334D02*
X60488Y-30466D01*
X60488Y-30466D02*
X60488Y-30737D01*
X62372Y-29744D02*
X61988Y-29744D01*
X62372Y-39625D02*
X61988Y-39625D01*
X60488Y-40348D02*
X60488Y-40619D01*
X60620Y-40216D02*
X60488Y-40348D01*
X61397Y-40216D02*
X60620Y-40216D01*
X61988Y-39625D02*
X61397Y-40216D01*
X61988Y-49507D02*
X61397Y-50098D01*
X61397Y-50098D02*
X60620Y-50098D01*
X60620Y-50098D02*
X60488Y-50230D01*
X60488Y-50230D02*
X60488Y-50501D01*
X62372Y-49507D02*
X61988Y-49507D01*
X62372Y-59389D02*
X61988Y-59389D01*
X60488Y-60111D02*
X60488Y-60383D01*
X60620Y-59980D02*
X60488Y-60111D01*
X61397Y-59980D02*
X60620Y-59980D01*
X61988Y-59389D02*
X61397Y-59980D01*
X36131Y-25767D02*
X36131Y-26062D01*
X33740Y-24537D02*
X33740Y-24901D01*
X33740Y-24901D02*
X33917Y-25078D01*
X33917Y-25078D02*
X35442Y-25078D01*
X35442Y-25078D02*
X36131Y-25767D01*
X35442Y-34960D02*
X36131Y-35649D01*
X33917Y-34960D02*
X35442Y-34960D01*
X33740Y-34783D02*
X33917Y-34960D01*
X33740Y-34419D02*
X33740Y-34783D01*
X36131Y-35649D02*
X36131Y-35944D01*
X36131Y-45531D02*
X36131Y-45826D01*
X33740Y-44301D02*
X33740Y-44665D01*
X33740Y-44665D02*
X33917Y-44842D01*
X33917Y-44842D02*
X35442Y-44842D01*
X35442Y-44842D02*
X36131Y-45531D01*
X35442Y-54724D02*
X36131Y-55413D01*
X33917Y-54724D02*
X35442Y-54724D01*
X33740Y-54547D02*
X33917Y-54724D01*
X33740Y-54183D02*
X33740Y-54547D01*
X36131Y-55413D02*
X36131Y-55708D01*
X49005Y-55413D02*
X49005Y-55708D01*
X46614Y-54183D02*
X46614Y-54547D01*
X46614Y-54547D02*
X46791Y-54724D01*
X46791Y-54724D02*
X48316Y-54724D01*
X48316Y-54724D02*
X49005Y-55413D01*
X48316Y-44842D02*
X49005Y-45531D01*
X46791Y-44842D02*
X48316Y-44842D01*
X46614Y-44665D02*
X46791Y-44842D01*
X46614Y-44301D02*
X46614Y-44665D01*
X49005Y-45531D02*
X49005Y-45826D01*
X49005Y-35649D02*
X49005Y-35944D01*
X46614Y-34419D02*
X46614Y-34783D01*
X46614Y-34783D02*
X46791Y-34960D01*
X46791Y-34960D02*
X48316Y-34960D01*
X48316Y-34960D02*
X49005Y-35649D01*
X48316Y-25078D02*
X49005Y-25767D01*
X46791Y-25078D02*
X48316Y-25078D01*
X46614Y-24901D02*
X46791Y-25078D01*
X46614Y-24537D02*
X46614Y-24901D01*
X49005Y-25767D02*
X49005Y-26062D01*
X61879Y-25767D02*
X61879Y-26062D01*
X59488Y-24537D02*
X59488Y-24901D01*
X59488Y-24901D02*
X59665Y-25078D01*
X59665Y-25078D02*
X61190Y-25078D01*
X61190Y-25078D02*
X61879Y-25767D01*
X61190Y-34960D02*
X61879Y-35649D01*
X59665Y-34960D02*
X61190Y-34960D01*
X59488Y-34783D02*
X59665Y-34960D01*
X59488Y-34419D02*
X59488Y-34783D01*
X61879Y-35649D02*
X61879Y-35944D01*
X61879Y-45531D02*
X61879Y-45826D01*
X59488Y-44301D02*
X59488Y-44665D01*
X59488Y-44665D02*
X59665Y-44842D01*
X59665Y-44842D02*
X61190Y-44842D01*
X61190Y-44842D02*
X61879Y-45531D01*
X61190Y-54724D02*
X61879Y-55413D01*
X59665Y-54724D02*
X61190Y-54724D01*
X59488Y-54547D02*
X59665Y-54724D01*
X59488Y-54183D02*
X59488Y-54547D01*
X61879Y-55413D02*
X61879Y-55708D01*
X36988Y-29901D02*
X36673Y-30216D01*
X36673Y-30216D02*
X36003Y-30216D01*
X36003Y-30216D02*
X35740Y-30480D01*
X35740Y-30480D02*
X35740Y-30737D01*
X36988Y-29744D02*
X36988Y-29901D01*
X36988Y-39625D02*
X36988Y-39783D01*
X35740Y-40361D02*
X35740Y-40619D01*
X36003Y-40098D02*
X35740Y-40361D01*
X36673Y-40098D02*
X36003Y-40098D01*
X36988Y-39783D02*
X36673Y-40098D01*
X36988Y-49665D02*
X36673Y-49980D01*
X36673Y-49980D02*
X36003Y-49980D01*
X36003Y-49980D02*
X35740Y-50243D01*
X35740Y-50243D02*
X35740Y-50501D01*
X36988Y-49507D02*
X36988Y-49665D01*
X36988Y-59389D02*
X36988Y-59547D01*
X35740Y-60125D02*
X35740Y-60383D01*
X36003Y-59862D02*
X35740Y-60125D01*
X36673Y-59862D02*
X36003Y-59862D01*
X36988Y-59547D02*
X36673Y-59862D01*
X49862Y-59547D02*
X49547Y-59862D01*
X49547Y-59862D02*
X48877Y-59862D01*
X48877Y-59862D02*
X48614Y-60125D01*
X48614Y-60125D02*
X48614Y-60383D01*
X49862Y-59389D02*
X49862Y-59547D01*
X49862Y-49507D02*
X49862Y-49665D01*
X48614Y-50243D02*
X48614Y-50501D01*
X48877Y-49980D02*
X48614Y-50243D01*
X49547Y-49980D02*
X48877Y-49980D01*
X49862Y-49665D02*
X49547Y-49980D01*
X49862Y-39783D02*
X49547Y-40098D01*
X49547Y-40098D02*
X48877Y-40098D01*
X48877Y-40098D02*
X48614Y-40361D01*
X48614Y-40361D02*
X48614Y-40619D01*
X49862Y-39625D02*
X49862Y-39783D01*
X49862Y-29744D02*
X49862Y-29901D01*
X48614Y-30480D02*
X48614Y-30737D01*
X48877Y-30216D02*
X48614Y-30480D01*
X49547Y-30216D02*
X48877Y-30216D01*
X49862Y-29901D02*
X49547Y-30216D01*
X62736Y-29901D02*
X62421Y-30216D01*
X62421Y-30216D02*
X61751Y-30216D01*
X61751Y-30216D02*
X61488Y-30480D01*
X61488Y-30480D02*
X61488Y-30737D01*
X62736Y-29744D02*
X62736Y-29901D01*
X62736Y-39625D02*
X62736Y-39783D01*
X61488Y-40361D02*
X61488Y-40619D01*
X61751Y-40098D02*
X61488Y-40361D01*
X62421Y-40098D02*
X61751Y-40098D01*
X62736Y-39783D02*
X62421Y-40098D01*
X62736Y-49665D02*
X62421Y-49980D01*
X62421Y-49980D02*
X61751Y-49980D01*
X61751Y-49980D02*
X61488Y-50243D01*
X61488Y-50243D02*
X61488Y-50501D01*
X62736Y-49507D02*
X62736Y-49665D01*
X62736Y-59389D02*
X62736Y-59547D01*
X61488Y-60125D02*
X61488Y-60383D01*
X61751Y-59862D02*
X61488Y-60125D01*
X62421Y-59862D02*
X61751Y-59862D01*
X62736Y-59547D02*
X62421Y-59862D01*
X35767Y-25708D02*
X35767Y-26062D01*
X32972Y-25236D02*
X35295Y-25236D01*
X32740Y-25004D02*
X32972Y-25236D01*
X32740Y-24537D02*
X32740Y-25004D01*
X35295Y-25236D02*
X35767Y-25708D01*
X35295Y-35118D02*
X35767Y-35590D01*
X32740Y-34419D02*
X32740Y-34886D01*
X32740Y-34886D02*
X32972Y-35118D01*
X32972Y-35118D02*
X35295Y-35118D01*
X35767Y-35590D02*
X35767Y-35944D01*
X35767Y-45472D02*
X35767Y-45826D01*
X32972Y-45000D02*
X35295Y-45000D01*
X32740Y-44768D02*
X32972Y-45000D01*
X32740Y-44301D02*
X32740Y-44768D01*
X35295Y-45000D02*
X35767Y-45472D01*
X35295Y-54881D02*
X35767Y-55354D01*
X32740Y-54183D02*
X32740Y-54649D01*
X32740Y-54649D02*
X32972Y-54881D01*
X32972Y-54881D02*
X35295Y-54881D01*
X35767Y-55354D02*
X35767Y-55708D01*
X48641Y-55354D02*
X48641Y-55708D01*
X45846Y-54881D02*
X48169Y-54881D01*
X45614Y-54649D02*
X45846Y-54881D01*
X45614Y-54183D02*
X45614Y-54649D01*
X48169Y-54881D02*
X48641Y-55354D01*
X48169Y-45000D02*
X48641Y-45472D01*
X45614Y-44301D02*
X45614Y-44768D01*
X45614Y-44768D02*
X45846Y-45000D01*
X45846Y-45000D02*
X48169Y-45000D01*
X48641Y-45472D02*
X48641Y-45826D01*
X48641Y-35590D02*
X48641Y-35944D01*
X45846Y-35118D02*
X48169Y-35118D01*
X45614Y-34886D02*
X45846Y-35118D01*
X45614Y-34419D02*
X45614Y-34886D01*
X48169Y-35118D02*
X48641Y-35590D01*
X48169Y-25236D02*
X48641Y-25708D01*
X45614Y-24537D02*
X45614Y-25004D01*
X45614Y-25004D02*
X45846Y-25236D01*
X45846Y-25236D02*
X48169Y-25236D01*
X48641Y-25708D02*
X48641Y-26062D01*
X61515Y-25708D02*
X61515Y-26062D01*
X58720Y-25236D02*
X61043Y-25236D01*
X58488Y-25004D02*
X58720Y-25236D01*
X58488Y-24537D02*
X58488Y-25004D01*
X61043Y-25236D02*
X61515Y-25708D01*
X61043Y-35118D02*
X61515Y-35590D01*
X58488Y-34419D02*
X58488Y-34886D01*
X58488Y-34886D02*
X58720Y-35118D01*
X58720Y-35118D02*
X61043Y-35118D01*
X61515Y-35590D02*
X61515Y-35944D01*
X61515Y-45472D02*
X61515Y-45826D01*
X58720Y-45000D02*
X61043Y-45000D01*
X58488Y-44768D02*
X58720Y-45000D01*
X58488Y-44301D02*
X58488Y-44768D01*
X61043Y-45000D02*
X61515Y-45472D01*
X61043Y-54881D02*
X61515Y-55354D01*
X58488Y-54183D02*
X58488Y-54649D01*
X58488Y-54649D02*
X58720Y-54881D01*
X58720Y-54881D02*
X61043Y-54881D01*
X61515Y-55354D02*
X61515Y-55708D01*
X36919Y-30275D02*
X36820Y-30374D01*
X36820Y-30374D02*
X36820Y-30657D01*
X36820Y-30657D02*
X36740Y-30737D01*
X37303Y-29744D02*
X37303Y-30088D01*
X37303Y-30088D02*
X37116Y-30275D01*
X37116Y-30275D02*
X36919Y-30275D01*
X37116Y-40157D02*
X36919Y-40157D01*
X37303Y-39970D02*
X37116Y-40157D01*
X37303Y-39625D02*
X37303Y-39970D01*
X36820Y-40539D02*
X36740Y-40619D01*
X36820Y-40255D02*
X36820Y-40539D01*
X36919Y-40157D02*
X36820Y-40255D01*
X36919Y-50039D02*
X36820Y-50137D01*
X36820Y-50137D02*
X36820Y-50421D01*
X36820Y-50421D02*
X36740Y-50501D01*
X37303Y-49507D02*
X37303Y-49852D01*
X37303Y-49852D02*
X37116Y-50039D01*
X37116Y-50039D02*
X36919Y-50039D01*
X37116Y-59921D02*
X36919Y-59921D01*
X37303Y-59734D02*
X37116Y-59921D01*
X37303Y-59389D02*
X37303Y-59734D01*
X36820Y-60303D02*
X36740Y-60383D01*
X36820Y-60019D02*
X36820Y-60303D01*
X36919Y-59921D02*
X36820Y-60019D01*
X49793Y-59921D02*
X49694Y-60019D01*
X49694Y-60019D02*
X49694Y-60303D01*
X49694Y-60303D02*
X49614Y-60383D01*
X50177Y-59389D02*
X50177Y-59734D01*
X50177Y-59734D02*
X49990Y-59921D01*
X49990Y-59921D02*
X49793Y-59921D01*
X49990Y-50039D02*
X49793Y-50039D01*
X50177Y-49852D02*
X49990Y-50039D01*
X50177Y-49507D02*
X50177Y-49852D01*
X49694Y-50421D02*
X49614Y-50501D01*
X49694Y-50137D02*
X49694Y-50421D01*
X49793Y-50039D02*
X49694Y-50137D01*
X49793Y-40157D02*
X49694Y-40255D01*
X49694Y-40255D02*
X49694Y-40539D01*
X49694Y-40539D02*
X49614Y-40619D01*
X50177Y-39625D02*
X50177Y-39970D01*
X50177Y-39970D02*
X49990Y-40157D01*
X49990Y-40157D02*
X49793Y-40157D01*
X49990Y-30275D02*
X49793Y-30275D01*
X50177Y-30088D02*
X49990Y-30275D01*
X50177Y-29744D02*
X50177Y-30088D01*
X49694Y-30657D02*
X49614Y-30737D01*
X49694Y-30374D02*
X49694Y-30657D01*
X49793Y-30275D02*
X49694Y-30374D01*
X62667Y-30275D02*
X62568Y-30374D01*
X62568Y-30374D02*
X62568Y-30657D01*
X62568Y-30657D02*
X62488Y-30737D01*
X63051Y-29744D02*
X63051Y-30088D01*
X63051Y-30088D02*
X62864Y-30275D01*
X62864Y-30275D02*
X62667Y-30275D01*
X62864Y-40157D02*
X62667Y-40157D01*
X63051Y-39970D02*
X62864Y-40157D01*
X63051Y-39625D02*
X63051Y-39970D01*
X62568Y-40539D02*
X62488Y-40619D01*
X62568Y-40255D02*
X62568Y-40539D01*
X62667Y-40157D02*
X62568Y-40255D01*
X62667Y-50039D02*
X62568Y-50137D01*
X62568Y-50137D02*
X62568Y-50421D01*
X62568Y-50421D02*
X62488Y-50501D01*
X63051Y-49507D02*
X63051Y-49852D01*
X63051Y-49852D02*
X62864Y-50039D01*
X62864Y-50039D02*
X62667Y-50039D01*
X62864Y-59921D02*
X62667Y-59921D01*
X63051Y-59734D02*
X62864Y-59921D01*
X63051Y-59389D02*
X63051Y-59734D01*
X62568Y-60303D02*
X62488Y-60383D01*
X62568Y-60019D02*
X62568Y-60303D01*
X62667Y-59921D02*
X62568Y-60019D01*
X35452Y-25708D02*
X35127Y-25383D01*
X31740Y-25136D02*
X31740Y-24537D01*
X31740Y-25136D02*
X31988Y-25383D01*
X31988Y-25383D02*
X35127Y-25383D01*
X35452Y-26062D02*
X35452Y-25708D01*
X35452Y-35944D02*
X35452Y-35590D01*
X31988Y-35265D02*
X35127Y-35265D01*
X31740Y-35018D02*
X31988Y-35265D01*
X31740Y-35018D02*
X31740Y-34419D01*
X35452Y-35590D02*
X35127Y-35265D01*
X35452Y-45472D02*
X35127Y-45147D01*
X31740Y-44899D02*
X31740Y-44301D01*
X31740Y-44899D02*
X31988Y-45147D01*
X31988Y-45147D02*
X35127Y-45147D01*
X35452Y-45826D02*
X35452Y-45472D01*
X35452Y-55708D02*
X35452Y-55354D01*
X31988Y-55029D02*
X35127Y-55029D01*
X31740Y-54781D02*
X31988Y-55029D01*
X31740Y-54781D02*
X31740Y-54183D01*
X35452Y-55354D02*
X35127Y-55029D01*
X48326Y-55354D02*
X48001Y-55029D01*
X44614Y-54781D02*
X44614Y-54183D01*
X44614Y-54781D02*
X44862Y-55029D01*
X44862Y-55029D02*
X48001Y-55029D01*
X48326Y-55708D02*
X48326Y-55354D01*
X48326Y-45826D02*
X48326Y-45472D01*
X44862Y-45147D02*
X48001Y-45147D01*
X44614Y-44899D02*
X44862Y-45147D01*
X44614Y-44899D02*
X44614Y-44301D01*
X48326Y-45472D02*
X48001Y-45147D01*
X48326Y-35590D02*
X48001Y-35265D01*
X44614Y-35018D02*
X44614Y-34419D01*
X44614Y-35018D02*
X44862Y-35265D01*
X44862Y-35265D02*
X48001Y-35265D01*
X48326Y-35944D02*
X48326Y-35590D01*
X48326Y-26062D02*
X48326Y-25708D01*
X44862Y-25383D02*
X48001Y-25383D01*
X44614Y-25136D02*
X44862Y-25383D01*
X44614Y-25136D02*
X44614Y-24537D01*
X48326Y-25708D02*
X48001Y-25383D01*
X61200Y-25708D02*
X60875Y-25383D01*
X57488Y-25136D02*
X57488Y-24537D01*
X57488Y-25136D02*
X57736Y-25383D01*
X57736Y-25383D02*
X60875Y-25383D01*
X61200Y-26062D02*
X61200Y-25708D01*
X61200Y-35944D02*
X61200Y-35590D01*
X57736Y-35265D02*
X60875Y-35265D01*
X57488Y-35018D02*
X57736Y-35265D01*
X57488Y-35018D02*
X57488Y-34419D01*
X61200Y-35590D02*
X60875Y-35265D01*
X61200Y-45472D02*
X60875Y-45147D01*
X57488Y-44899D02*
X57488Y-44301D01*
X57488Y-44899D02*
X57736Y-45147D01*
X57736Y-45147D02*
X60875Y-45147D01*
X61200Y-45826D02*
X61200Y-45472D01*
X61200Y-55708D02*
X61200Y-55354D01*
X57736Y-55029D02*
X60875Y-55029D01*
X57488Y-54781D02*
X57736Y-55029D01*
X57488Y-54781D02*
X57488Y-54183D01*
X61200Y-55354D02*
X60875Y-55029D01*
X37740Y-29817D02*
X37740Y-30737D01*
G54D10*
X37667Y-29744D02*
X37740Y-29817D01*
X37667Y-39625D02*
X37740Y-39699D01*
G54D23*
X37740Y-39699D02*
X37740Y-40619D01*
X37740Y-49581D02*
X37740Y-50501D01*
G54D10*
X37667Y-49507D02*
X37740Y-49581D01*
X37667Y-59389D02*
X37740Y-59462D01*
G54D23*
X37740Y-59462D02*
X37740Y-60383D01*
X50614Y-59462D02*
X50614Y-60383D01*
G54D10*
X50541Y-59389D02*
X50614Y-59462D01*
X50541Y-49507D02*
X50614Y-49581D01*
G54D23*
X50614Y-49581D02*
X50614Y-50501D01*
X50614Y-39699D02*
X50614Y-40619D01*
G54D10*
X50541Y-39625D02*
X50614Y-39699D01*
X50541Y-29744D02*
X50614Y-29817D01*
G54D23*
X50614Y-29817D02*
X50614Y-30737D01*
X63488Y-29817D02*
X63488Y-30737D01*
G54D10*
X63415Y-29744D02*
X63488Y-29817D01*
X63415Y-39625D02*
X63488Y-39699D01*
G54D23*
X63488Y-39699D02*
X63488Y-40619D01*
X63488Y-49581D02*
X63488Y-50501D01*
G54D10*
X63415Y-49507D02*
X63488Y-49581D01*
X63415Y-59389D02*
X63488Y-59462D01*
G54D23*
X63488Y-59462D02*
X63488Y-60383D01*
X30740Y-25287D02*
X30740Y-24537D01*
X31003Y-25551D02*
X30740Y-25287D01*
X34960Y-25551D02*
X35088Y-25679D01*
X35088Y-25679D02*
X35088Y-26062D01*
X31003Y-25551D02*
X34960Y-25551D01*
X31003Y-35433D02*
X34960Y-35433D01*
X35088Y-35561D02*
X35088Y-35944D01*
X34960Y-35433D02*
X35088Y-35561D01*
X31003Y-35433D02*
X30740Y-35169D01*
X30740Y-35169D02*
X30740Y-34419D01*
X30740Y-45051D02*
X30740Y-44301D01*
X31003Y-45314D02*
X30740Y-45051D01*
X34960Y-45314D02*
X35088Y-45442D01*
X35088Y-45442D02*
X35088Y-45826D01*
X31003Y-45314D02*
X34960Y-45314D01*
X31003Y-55196D02*
X34960Y-55196D01*
X35088Y-55324D02*
X35088Y-55708D01*
X34960Y-55196D02*
X35088Y-55324D01*
X31003Y-55196D02*
X30740Y-54933D01*
X30740Y-54933D02*
X30740Y-54183D01*
X43614Y-54933D02*
X43614Y-54183D01*
X43877Y-55196D02*
X43614Y-54933D01*
X47834Y-55196D02*
X47962Y-55324D01*
X47962Y-55324D02*
X47962Y-55708D01*
X43877Y-55196D02*
X47834Y-55196D01*
X43877Y-45314D02*
X47834Y-45314D01*
X47962Y-45442D02*
X47962Y-45826D01*
X47834Y-45314D02*
X47962Y-45442D01*
X43877Y-45314D02*
X43614Y-45051D01*
X43614Y-45051D02*
X43614Y-44301D01*
X43614Y-35169D02*
X43614Y-34419D01*
X43877Y-35433D02*
X43614Y-35169D01*
X47834Y-35433D02*
X47962Y-35561D01*
X47962Y-35561D02*
X47962Y-35944D01*
X43877Y-35433D02*
X47834Y-35433D01*
X43877Y-25551D02*
X47834Y-25551D01*
X47962Y-25679D02*
X47962Y-26062D01*
X47834Y-25551D02*
X47962Y-25679D01*
X43877Y-25551D02*
X43614Y-25287D01*
X43614Y-25287D02*
X43614Y-24537D01*
X56488Y-25287D02*
X56488Y-24537D01*
X56751Y-25551D02*
X56488Y-25287D01*
X60708Y-25551D02*
X60836Y-25679D01*
X60836Y-25679D02*
X60836Y-26062D01*
X56751Y-25551D02*
X60708Y-25551D01*
X56751Y-35433D02*
X60708Y-35433D01*
X60836Y-35561D02*
X60836Y-35944D01*
X60708Y-35433D02*
X60836Y-35561D01*
X56751Y-35433D02*
X56488Y-35169D01*
X56488Y-35169D02*
X56488Y-34419D01*
X56488Y-45051D02*
X56488Y-44301D01*
X56751Y-45314D02*
X56488Y-45051D01*
X60708Y-45314D02*
X60836Y-45442D01*
X60836Y-45442D02*
X60836Y-45826D01*
X56751Y-45314D02*
X60708Y-45314D01*
X56751Y-55196D02*
X60708Y-55196D01*
X60836Y-55324D02*
X60836Y-55708D01*
X60708Y-55196D02*
X60836Y-55324D01*
X56751Y-55196D02*
X56488Y-54933D01*
X56488Y-54933D02*
X56488Y-54183D01*
G54D22*
X30984Y-29189D02*
X30984Y-28503D01*
X30960Y-29212D02*
X30984Y-29189D01*
X30960Y-39094D02*
X30984Y-39071D01*
X30984Y-39071D02*
X30984Y-38385D01*
X30984Y-48953D02*
X30984Y-48267D01*
X30960Y-48976D02*
X30984Y-48953D01*
X30960Y-58858D02*
X30984Y-58835D01*
X30984Y-58835D02*
X30984Y-58149D01*
X43858Y-58835D02*
X43858Y-58149D01*
X43834Y-58858D02*
X43858Y-58835D01*
X43834Y-48976D02*
X43858Y-48953D01*
X43858Y-48953D02*
X43858Y-48267D01*
X43858Y-39071D02*
X43858Y-38385D01*
X43834Y-39094D02*
X43858Y-39071D01*
X43834Y-29212D02*
X43858Y-29189D01*
X43858Y-29189D02*
X43858Y-28503D01*
X56732Y-29189D02*
X56732Y-28503D01*
X56708Y-29212D02*
X56732Y-29189D01*
X56708Y-39094D02*
X56732Y-39071D01*
X56732Y-39071D02*
X56732Y-38385D01*
X56732Y-48953D02*
X56732Y-48267D01*
X56708Y-48976D02*
X56732Y-48953D01*
X56708Y-58858D02*
X56732Y-58835D01*
X56732Y-58835D02*
X56732Y-58149D01*
X30149Y-31342D02*
X30444Y-31637D01*
X30149Y-30737D02*
X30149Y-31342D01*
X31377Y-29188D02*
X31377Y-28503D01*
X31353Y-29212D02*
X31377Y-29188D01*
X31353Y-39094D02*
X31377Y-39070D01*
X31377Y-39070D02*
X31377Y-38385D01*
X30149Y-40619D02*
X30149Y-41224D01*
X30149Y-41224D02*
X30444Y-41519D01*
X30149Y-51106D02*
X30444Y-51401D01*
X30149Y-50501D02*
X30149Y-51106D01*
X31377Y-48952D02*
X31377Y-48267D01*
X31353Y-48976D02*
X31377Y-48952D01*
X31353Y-58858D02*
X31377Y-58834D01*
X31377Y-58834D02*
X31377Y-58149D01*
X30149Y-60383D02*
X30149Y-60988D01*
X30149Y-60988D02*
X30444Y-61283D01*
X43023Y-60988D02*
X43318Y-61283D01*
X43023Y-60383D02*
X43023Y-60988D01*
X44251Y-58834D02*
X44251Y-58149D01*
X44227Y-58858D02*
X44251Y-58834D01*
X44227Y-48976D02*
X44251Y-48952D01*
X44251Y-48952D02*
X44251Y-48267D01*
X43023Y-50501D02*
X43023Y-51106D01*
X43023Y-51106D02*
X43318Y-51401D01*
X43023Y-41224D02*
X43318Y-41519D01*
X43023Y-40619D02*
X43023Y-41224D01*
X44251Y-39070D02*
X44251Y-38385D01*
X44227Y-39094D02*
X44251Y-39070D01*
X44227Y-29212D02*
X44251Y-29188D01*
X44251Y-29188D02*
X44251Y-28503D01*
X43023Y-30737D02*
X43023Y-31342D01*
X43023Y-31342D02*
X43318Y-31637D01*
X55897Y-31342D02*
X56192Y-31637D01*
X55897Y-30737D02*
X55897Y-31342D01*
X57125Y-29188D02*
X57125Y-28503D01*
X57101Y-29212D02*
X57125Y-29188D01*
X57101Y-39094D02*
X57125Y-39070D01*
X57125Y-39070D02*
X57125Y-38385D01*
X55897Y-40619D02*
X55897Y-41224D01*
X55897Y-41224D02*
X56192Y-41519D01*
X55897Y-51106D02*
X56192Y-51401D01*
X55897Y-50501D02*
X55897Y-51106D01*
X57125Y-48952D02*
X57125Y-48267D01*
X57101Y-48976D02*
X57125Y-48952D01*
X57101Y-58858D02*
X57125Y-58834D01*
X57125Y-58834D02*
X57125Y-58149D01*
X55897Y-60383D02*
X55897Y-60988D01*
X55897Y-60988D02*
X56192Y-61283D01*
X31149Y-31342D02*
X31444Y-31637D01*
X31149Y-30737D02*
X31149Y-31342D01*
X31771Y-29189D02*
X31771Y-28503D01*
X31747Y-29212D02*
X31771Y-29189D01*
X31747Y-39094D02*
X31771Y-39070D01*
X31771Y-39070D02*
X31771Y-38385D01*
X31149Y-40619D02*
X31149Y-41224D01*
X31149Y-41224D02*
X31444Y-41519D01*
X31149Y-51106D02*
X31444Y-51401D01*
X31149Y-50501D02*
X31149Y-51106D01*
X31771Y-48952D02*
X31771Y-48267D01*
X31747Y-48976D02*
X31771Y-48952D01*
X31747Y-58858D02*
X31771Y-58834D01*
X31771Y-58834D02*
X31771Y-58149D01*
X31149Y-60383D02*
X31149Y-60988D01*
X31149Y-60988D02*
X31444Y-61283D01*
X44023Y-60988D02*
X44318Y-61283D01*
X44023Y-60383D02*
X44023Y-60988D01*
X44645Y-58834D02*
X44645Y-58149D01*
X44621Y-58858D02*
X44645Y-58834D01*
X44621Y-48976D02*
X44645Y-48952D01*
X44645Y-48952D02*
X44645Y-48267D01*
X44023Y-50501D02*
X44023Y-51106D01*
X44023Y-51106D02*
X44318Y-51401D01*
X44023Y-41224D02*
X44318Y-41519D01*
X44023Y-40619D02*
X44023Y-41224D01*
X44645Y-39070D02*
X44645Y-38385D01*
X44621Y-39094D02*
X44645Y-39070D01*
X44621Y-29212D02*
X44645Y-29189D01*
X44645Y-29189D02*
X44645Y-28503D01*
X44023Y-30737D02*
X44023Y-31342D01*
X44023Y-31342D02*
X44318Y-31637D01*
X56897Y-31342D02*
X57192Y-31637D01*
X56897Y-30737D02*
X56897Y-31342D01*
X57519Y-29189D02*
X57519Y-28503D01*
X57495Y-29212D02*
X57519Y-29189D01*
X57495Y-39094D02*
X57519Y-39070D01*
X57519Y-39070D02*
X57519Y-38385D01*
X56897Y-40619D02*
X56897Y-41224D01*
X56897Y-41224D02*
X57192Y-41519D01*
X56897Y-51106D02*
X57192Y-51401D01*
X56897Y-50501D02*
X56897Y-51106D01*
X57519Y-48952D02*
X57519Y-48267D01*
X57495Y-48976D02*
X57519Y-48952D01*
X57495Y-58858D02*
X57519Y-58834D01*
X57519Y-58834D02*
X57519Y-58149D01*
X56897Y-60383D02*
X56897Y-60988D01*
X56897Y-60988D02*
X57192Y-61283D01*
X35149Y-23932D02*
X35444Y-23637D01*
X35149Y-24537D02*
X35149Y-23932D01*
X33346Y-26086D02*
X33346Y-26732D01*
X33322Y-26062D02*
X33346Y-26086D01*
X33322Y-35944D02*
X33346Y-35968D01*
X33346Y-35968D02*
X33346Y-36614D01*
X35149Y-34419D02*
X35149Y-33814D01*
X35149Y-33814D02*
X35444Y-33519D01*
X35149Y-43696D02*
X35444Y-43401D01*
X35149Y-44301D02*
X35149Y-43696D01*
X33346Y-45850D02*
X33346Y-46496D01*
X33322Y-45826D02*
X33346Y-45850D01*
X33322Y-55708D02*
X33346Y-55732D01*
X33346Y-55732D02*
X33346Y-56377D01*
X35149Y-54183D02*
X35149Y-53578D01*
X35149Y-53578D02*
X35444Y-53283D01*
X48023Y-53578D02*
X48318Y-53283D01*
X48023Y-54183D02*
X48023Y-53578D01*
X46220Y-55732D02*
X46220Y-56377D01*
X46196Y-55708D02*
X46220Y-55732D01*
X46196Y-45826D02*
X46220Y-45850D01*
X46220Y-45850D02*
X46220Y-46496D01*
X48023Y-44301D02*
X48023Y-43696D01*
X48023Y-43696D02*
X48318Y-43401D01*
X48023Y-33814D02*
X48318Y-33519D01*
X48023Y-34419D02*
X48023Y-33814D01*
X46220Y-35968D02*
X46220Y-36614D01*
X46196Y-35944D02*
X46220Y-35968D01*
X46196Y-26062D02*
X46220Y-26086D01*
X46220Y-26086D02*
X46220Y-26732D01*
X48023Y-24537D02*
X48023Y-23932D01*
X48023Y-23932D02*
X48318Y-23637D01*
X60897Y-23932D02*
X61192Y-23637D01*
X60897Y-24537D02*
X60897Y-23932D01*
X59094Y-26086D02*
X59094Y-26732D01*
X59070Y-26062D02*
X59094Y-26086D01*
X59070Y-35944D02*
X59094Y-35968D01*
X59094Y-35968D02*
X59094Y-36614D01*
X60897Y-34419D02*
X60897Y-33814D01*
X60897Y-33814D02*
X61192Y-33519D01*
X60897Y-43696D02*
X61192Y-43401D01*
X60897Y-44301D02*
X60897Y-43696D01*
X59094Y-45850D02*
X59094Y-46496D01*
X59070Y-45826D02*
X59094Y-45850D01*
X59070Y-55708D02*
X59094Y-55732D01*
X59094Y-55732D02*
X59094Y-56377D01*
X60897Y-54183D02*
X60897Y-53578D01*
X60897Y-53578D02*
X61192Y-53283D01*
X34149Y-23932D02*
X34444Y-23637D01*
X34149Y-24537D02*
X34149Y-23932D01*
X32952Y-26086D02*
X32952Y-26732D01*
X32928Y-26062D02*
X32952Y-26086D01*
X32928Y-35944D02*
X32952Y-35968D01*
X32952Y-35968D02*
X32952Y-36614D01*
X34149Y-34419D02*
X34149Y-33814D01*
X34149Y-33814D02*
X34444Y-33519D01*
X34149Y-43696D02*
X34444Y-43401D01*
X34149Y-44301D02*
X34149Y-43696D01*
X32952Y-45850D02*
X32952Y-46496D01*
X32928Y-45826D02*
X32952Y-45850D01*
X32928Y-55708D02*
X32952Y-55732D01*
X32952Y-55732D02*
X32952Y-56377D01*
X34149Y-54183D02*
X34149Y-53578D01*
X34149Y-53578D02*
X34444Y-53283D01*
X47023Y-53578D02*
X47318Y-53283D01*
X47023Y-54183D02*
X47023Y-53578D01*
X45826Y-55732D02*
X45826Y-56377D01*
X45802Y-55708D02*
X45826Y-55732D01*
X45802Y-45826D02*
X45826Y-45850D01*
X45826Y-45850D02*
X45826Y-46496D01*
X47023Y-44301D02*
X47023Y-43696D01*
X47023Y-43696D02*
X47318Y-43401D01*
X47023Y-33814D02*
X47318Y-33519D01*
X47023Y-34419D02*
X47023Y-33814D01*
X45826Y-35968D02*
X45826Y-36614D01*
X45802Y-35944D02*
X45826Y-35968D01*
X45802Y-26062D02*
X45826Y-26086D01*
X45826Y-26086D02*
X45826Y-26732D01*
X47023Y-24537D02*
X47023Y-23932D01*
X47023Y-23932D02*
X47318Y-23637D01*
X59897Y-23932D02*
X60192Y-23637D01*
X59897Y-24537D02*
X59897Y-23932D01*
X58700Y-26086D02*
X58700Y-26732D01*
X58676Y-26062D02*
X58700Y-26086D01*
X58676Y-35944D02*
X58700Y-35968D01*
X58700Y-35968D02*
X58700Y-36614D01*
X59897Y-34419D02*
X59897Y-33814D01*
X59897Y-33814D02*
X60192Y-33519D01*
X59897Y-43696D02*
X60192Y-43401D01*
X59897Y-44301D02*
X59897Y-43696D01*
X58700Y-45850D02*
X58700Y-46496D01*
X58676Y-45826D02*
X58700Y-45850D01*
X58676Y-55708D02*
X58700Y-55732D01*
X58700Y-55732D02*
X58700Y-56377D01*
X59897Y-54183D02*
X59897Y-53578D01*
X59897Y-53578D02*
X60192Y-53283D01*
X33149Y-23932D02*
X33444Y-23637D01*
X33149Y-24537D02*
X33149Y-23932D01*
X32559Y-26085D02*
X32559Y-26732D01*
X32535Y-26062D02*
X32559Y-26085D01*
X32535Y-35944D02*
X32559Y-35967D01*
X32559Y-35967D02*
X32559Y-36614D01*
X33149Y-34419D02*
X33149Y-33814D01*
X33149Y-33814D02*
X33444Y-33519D01*
X33149Y-43696D02*
X33444Y-43401D01*
X33149Y-44301D02*
X33149Y-43696D01*
X32559Y-45849D02*
X32559Y-46496D01*
X32535Y-45826D02*
X32559Y-45849D01*
X32535Y-55708D02*
X32559Y-55731D01*
X32559Y-55731D02*
X32559Y-56377D01*
X33149Y-54183D02*
X33149Y-53578D01*
X33149Y-53578D02*
X33444Y-53283D01*
X46023Y-53578D02*
X46318Y-53283D01*
X46023Y-54183D02*
X46023Y-53578D01*
X45433Y-55731D02*
X45433Y-56377D01*
X45409Y-55708D02*
X45433Y-55731D01*
X45409Y-45826D02*
X45433Y-45849D01*
X45433Y-45849D02*
X45433Y-46496D01*
X46023Y-44301D02*
X46023Y-43696D01*
X46023Y-43696D02*
X46318Y-43401D01*
X46023Y-33814D02*
X46318Y-33519D01*
X46023Y-34419D02*
X46023Y-33814D01*
X45433Y-35967D02*
X45433Y-36614D01*
X45409Y-35944D02*
X45433Y-35967D01*
X45409Y-26062D02*
X45433Y-26085D01*
X45433Y-26085D02*
X45433Y-26732D01*
X46023Y-24537D02*
X46023Y-23932D01*
X46023Y-23932D02*
X46318Y-23637D01*
X58897Y-23932D02*
X59192Y-23637D01*
X58897Y-24537D02*
X58897Y-23932D01*
X58307Y-26085D02*
X58307Y-26732D01*
X58283Y-26062D02*
X58307Y-26085D01*
X58283Y-35944D02*
X58307Y-35967D01*
X58307Y-35967D02*
X58307Y-36614D01*
X58897Y-34419D02*
X58897Y-33814D01*
X58897Y-33814D02*
X59192Y-33519D01*
X58897Y-43696D02*
X59192Y-43401D01*
X58897Y-44301D02*
X58897Y-43696D01*
X58307Y-45849D02*
X58307Y-46496D01*
X58283Y-45826D02*
X58307Y-45849D01*
X58283Y-55708D02*
X58307Y-55731D01*
X58307Y-55731D02*
X58307Y-56377D01*
X58897Y-54183D02*
X58897Y-53578D01*
X58897Y-53578D02*
X59192Y-53283D01*
X32149Y-23932D02*
X32444Y-23637D01*
X32149Y-24537D02*
X32149Y-23932D01*
X32165Y-26086D02*
X32165Y-26732D01*
X32141Y-26062D02*
X32165Y-26086D01*
X32141Y-35944D02*
X32165Y-35968D01*
X32165Y-35968D02*
X32165Y-36614D01*
X32149Y-34419D02*
X32149Y-33814D01*
X32149Y-33814D02*
X32444Y-33519D01*
X32149Y-43696D02*
X32444Y-43401D01*
X32149Y-44301D02*
X32149Y-43696D01*
X32165Y-45850D02*
X32165Y-46496D01*
X32141Y-45826D02*
X32165Y-45850D01*
X32141Y-55708D02*
X32165Y-55731D01*
X32165Y-55731D02*
X32165Y-56377D01*
X32149Y-54183D02*
X32149Y-53578D01*
X32149Y-53578D02*
X32444Y-53283D01*
X45023Y-53578D02*
X45318Y-53283D01*
X45023Y-54183D02*
X45023Y-53578D01*
X45039Y-55731D02*
X45039Y-56377D01*
X45015Y-55708D02*
X45039Y-55731D01*
X45015Y-45826D02*
X45039Y-45850D01*
X45039Y-45850D02*
X45039Y-46496D01*
X45023Y-44301D02*
X45023Y-43696D01*
X45023Y-43696D02*
X45318Y-43401D01*
X45023Y-33814D02*
X45318Y-33519D01*
X45023Y-34419D02*
X45023Y-33814D01*
X45039Y-35968D02*
X45039Y-36614D01*
X45015Y-35944D02*
X45039Y-35968D01*
X45015Y-26062D02*
X45039Y-26086D01*
X45039Y-26086D02*
X45039Y-26732D01*
X45023Y-24537D02*
X45023Y-23932D01*
X45023Y-23932D02*
X45318Y-23637D01*
X57897Y-23932D02*
X58192Y-23637D01*
X57897Y-24537D02*
X57897Y-23932D01*
X57913Y-26086D02*
X57913Y-26732D01*
X57889Y-26062D02*
X57913Y-26086D01*
X57889Y-35944D02*
X57913Y-35968D01*
X57913Y-35968D02*
X57913Y-36614D01*
X57897Y-34419D02*
X57897Y-33814D01*
X57897Y-33814D02*
X58192Y-33519D01*
X57897Y-43696D02*
X58192Y-43401D01*
X57897Y-44301D02*
X57897Y-43696D01*
X57913Y-45850D02*
X57913Y-46496D01*
X57889Y-45826D02*
X57913Y-45850D01*
X57889Y-55708D02*
X57913Y-55731D01*
X57913Y-55731D02*
X57913Y-56377D01*
X57897Y-54183D02*
X57897Y-53578D01*
X57897Y-53578D02*
X58192Y-53283D01*
X31149Y-23932D02*
X31444Y-23637D01*
X31149Y-24537D02*
X31149Y-23932D01*
X31771Y-26086D02*
X31771Y-26732D01*
X31747Y-26062D02*
X31771Y-26086D01*
X31747Y-35944D02*
X31771Y-35968D01*
X31771Y-35968D02*
X31771Y-36614D01*
X31149Y-34419D02*
X31149Y-33814D01*
X31149Y-33814D02*
X31444Y-33519D01*
X31149Y-43696D02*
X31444Y-43401D01*
X31149Y-44301D02*
X31149Y-43696D01*
X31771Y-45850D02*
X31771Y-46496D01*
X31747Y-45826D02*
X31771Y-45850D01*
X31747Y-55708D02*
X31771Y-55732D01*
X31771Y-55732D02*
X31771Y-56377D01*
X31149Y-54183D02*
X31149Y-53578D01*
X31149Y-53578D02*
X31444Y-53283D01*
X44023Y-53578D02*
X44318Y-53283D01*
X44023Y-54183D02*
X44023Y-53578D01*
X44645Y-55732D02*
X44645Y-56377D01*
X44621Y-55708D02*
X44645Y-55732D01*
X44621Y-45826D02*
X44645Y-45850D01*
X44645Y-45850D02*
X44645Y-46496D01*
X44023Y-44301D02*
X44023Y-43696D01*
X44023Y-43696D02*
X44318Y-43401D01*
X44023Y-33814D02*
X44318Y-33519D01*
X44023Y-34419D02*
X44023Y-33814D01*
X44645Y-35968D02*
X44645Y-36614D01*
X44621Y-35944D02*
X44645Y-35968D01*
X44621Y-26062D02*
X44645Y-26086D01*
X44645Y-26086D02*
X44645Y-26732D01*
X44023Y-24537D02*
X44023Y-23932D01*
X44023Y-23932D02*
X44318Y-23637D01*
X56897Y-23932D02*
X57192Y-23637D01*
X56897Y-24537D02*
X56897Y-23932D01*
X57519Y-26086D02*
X57519Y-26732D01*
X57495Y-26062D02*
X57519Y-26086D01*
X57495Y-35944D02*
X57519Y-35968D01*
X57519Y-35968D02*
X57519Y-36614D01*
X56897Y-34419D02*
X56897Y-33814D01*
X56897Y-33814D02*
X57192Y-33519D01*
X56897Y-43696D02*
X57192Y-43401D01*
X56897Y-44301D02*
X56897Y-43696D01*
X57519Y-45850D02*
X57519Y-46496D01*
X57495Y-45826D02*
X57519Y-45850D01*
X57495Y-55708D02*
X57519Y-55732D01*
X57519Y-55732D02*
X57519Y-56377D01*
X56897Y-54183D02*
X56897Y-53578D01*
X56897Y-53578D02*
X57192Y-53283D01*
X30149Y-23932D02*
X30444Y-23637D01*
X30149Y-24537D02*
X30149Y-23932D01*
X31377Y-26086D02*
X31377Y-26732D01*
X31353Y-26062D02*
X31377Y-26086D01*
X31353Y-35944D02*
X31377Y-35968D01*
X31377Y-35968D02*
X31377Y-36614D01*
X30149Y-34419D02*
X30149Y-33814D01*
X30149Y-33814D02*
X30444Y-33519D01*
X30149Y-43696D02*
X30444Y-43401D01*
X30149Y-44301D02*
X30149Y-43696D01*
X31377Y-45850D02*
X31377Y-46496D01*
X31353Y-45826D02*
X31377Y-45850D01*
X31353Y-55708D02*
X31377Y-55732D01*
X31377Y-55732D02*
X31377Y-56377D01*
X30149Y-54183D02*
X30149Y-53578D01*
X30149Y-53578D02*
X30444Y-53283D01*
X43023Y-53578D02*
X43318Y-53283D01*
X43023Y-54183D02*
X43023Y-53578D01*
X44251Y-55732D02*
X44251Y-56377D01*
X44227Y-55708D02*
X44251Y-55732D01*
X44227Y-45826D02*
X44251Y-45850D01*
X44251Y-45850D02*
X44251Y-46496D01*
X43023Y-44301D02*
X43023Y-43696D01*
X43023Y-43696D02*
X43318Y-43401D01*
X43023Y-33814D02*
X43318Y-33519D01*
X43023Y-34419D02*
X43023Y-33814D01*
X44251Y-35968D02*
X44251Y-36614D01*
X44227Y-35944D02*
X44251Y-35968D01*
X44227Y-26062D02*
X44251Y-26086D01*
X44251Y-26086D02*
X44251Y-26732D01*
X43023Y-24537D02*
X43023Y-23932D01*
X43023Y-23932D02*
X43318Y-23637D01*
X55897Y-23932D02*
X56192Y-23637D01*
X55897Y-24537D02*
X55897Y-23932D01*
X57125Y-26086D02*
X57125Y-26732D01*
X57101Y-26062D02*
X57125Y-26086D01*
X57101Y-35944D02*
X57125Y-35968D01*
X57125Y-35968D02*
X57125Y-36614D01*
X55897Y-34419D02*
X55897Y-33814D01*
X55897Y-33814D02*
X56192Y-33519D01*
X55897Y-43696D02*
X56192Y-43401D01*
X55897Y-44301D02*
X55897Y-43696D01*
X57125Y-45850D02*
X57125Y-46496D01*
X57101Y-45826D02*
X57125Y-45850D01*
X57101Y-55708D02*
X57125Y-55732D01*
X57125Y-55732D02*
X57125Y-56377D01*
X55897Y-54183D02*
X55897Y-53578D01*
X55897Y-53578D02*
X56192Y-53283D01*
X32149Y-31342D02*
X32444Y-31637D01*
X32149Y-30737D02*
X32149Y-31342D01*
X32165Y-29189D02*
X32165Y-28503D01*
X32141Y-29212D02*
X32165Y-29189D01*
X32141Y-39094D02*
X32165Y-39071D01*
X32165Y-39071D02*
X32165Y-38385D01*
X32149Y-40619D02*
X32149Y-41224D01*
X32149Y-41224D02*
X32444Y-41519D01*
X32149Y-51106D02*
X32444Y-51401D01*
X32149Y-50501D02*
X32149Y-51106D01*
X32165Y-48953D02*
X32165Y-48267D01*
X32141Y-48976D02*
X32165Y-48953D01*
X32141Y-58858D02*
X32165Y-58834D01*
X32165Y-58834D02*
X32165Y-58149D01*
X32149Y-60383D02*
X32149Y-60988D01*
X32149Y-60988D02*
X32444Y-61283D01*
X45023Y-60988D02*
X45318Y-61283D01*
X45023Y-60383D02*
X45023Y-60988D01*
X45039Y-58834D02*
X45039Y-58149D01*
X45015Y-58858D02*
X45039Y-58834D01*
X45015Y-48976D02*
X45039Y-48953D01*
X45039Y-48953D02*
X45039Y-48267D01*
X45023Y-50501D02*
X45023Y-51106D01*
X45023Y-51106D02*
X45318Y-51401D01*
X45023Y-41224D02*
X45318Y-41519D01*
X45023Y-40619D02*
X45023Y-41224D01*
X45039Y-39071D02*
X45039Y-38385D01*
X45015Y-39094D02*
X45039Y-39071D01*
X45015Y-29212D02*
X45039Y-29189D01*
X45039Y-29189D02*
X45039Y-28503D01*
X45023Y-30737D02*
X45023Y-31342D01*
X45023Y-31342D02*
X45318Y-31637D01*
X57897Y-31342D02*
X58192Y-31637D01*
X57897Y-30737D02*
X57897Y-31342D01*
X57913Y-29189D02*
X57913Y-28503D01*
X57889Y-29212D02*
X57913Y-29189D01*
X57889Y-39094D02*
X57913Y-39071D01*
X57913Y-39071D02*
X57913Y-38385D01*
X57897Y-40619D02*
X57897Y-41224D01*
X57897Y-41224D02*
X58192Y-41519D01*
X57897Y-51106D02*
X58192Y-51401D01*
X57897Y-50501D02*
X57897Y-51106D01*
X57913Y-48953D02*
X57913Y-48267D01*
X57889Y-48976D02*
X57913Y-48953D01*
X57889Y-58858D02*
X57913Y-58834D01*
X57913Y-58834D02*
X57913Y-58149D01*
X57897Y-60383D02*
X57897Y-60988D01*
X57897Y-60988D02*
X58192Y-61283D01*
X33149Y-31342D02*
X33444Y-31637D01*
X33149Y-30737D02*
X33149Y-31342D01*
X32559Y-29189D02*
X32559Y-28503D01*
X32535Y-29212D02*
X32559Y-29189D01*
X32535Y-39094D02*
X32559Y-39071D01*
X32559Y-39071D02*
X32559Y-38385D01*
X33149Y-40619D02*
X33149Y-41224D01*
X33149Y-41224D02*
X33444Y-41519D01*
X33149Y-51106D02*
X33444Y-51401D01*
X33149Y-50501D02*
X33149Y-51106D01*
X32559Y-48953D02*
X32559Y-48267D01*
X32535Y-48976D02*
X32559Y-48953D01*
X32535Y-58858D02*
X32559Y-58835D01*
X32559Y-58835D02*
X32559Y-58149D01*
X33149Y-60383D02*
X33149Y-60988D01*
X33149Y-60988D02*
X33444Y-61283D01*
X46023Y-60988D02*
X46318Y-61283D01*
X46023Y-60383D02*
X46023Y-60988D01*
X45433Y-58835D02*
X45433Y-58149D01*
X45409Y-58858D02*
X45433Y-58835D01*
X45409Y-48976D02*
X45433Y-48953D01*
X45433Y-48953D02*
X45433Y-48267D01*
X46023Y-50501D02*
X46023Y-51106D01*
X46023Y-51106D02*
X46318Y-51401D01*
X46023Y-41224D02*
X46318Y-41519D01*
X46023Y-40619D02*
X46023Y-41224D01*
X45433Y-39071D02*
X45433Y-38385D01*
X45409Y-39094D02*
X45433Y-39071D01*
X45409Y-29212D02*
X45433Y-29189D01*
X45433Y-29189D02*
X45433Y-28503D01*
X46023Y-30737D02*
X46023Y-31342D01*
X46023Y-31342D02*
X46318Y-31637D01*
X58897Y-31342D02*
X59192Y-31637D01*
X58897Y-30737D02*
X58897Y-31342D01*
X58307Y-29189D02*
X58307Y-28503D01*
X58283Y-29212D02*
X58307Y-29189D01*
X58283Y-39094D02*
X58307Y-39071D01*
X58307Y-39071D02*
X58307Y-38385D01*
X58897Y-40619D02*
X58897Y-41224D01*
X58897Y-41224D02*
X59192Y-41519D01*
X58897Y-51106D02*
X59192Y-51401D01*
X58897Y-50501D02*
X58897Y-51106D01*
X58307Y-48953D02*
X58307Y-48267D01*
X58283Y-48976D02*
X58307Y-48953D01*
X58283Y-58858D02*
X58307Y-58835D01*
X58307Y-58835D02*
X58307Y-58149D01*
X58897Y-60383D02*
X58897Y-60988D01*
X58897Y-60988D02*
X59192Y-61283D01*
X34149Y-31342D02*
X34444Y-31637D01*
X34149Y-30737D02*
X34149Y-31342D01*
X32952Y-29188D02*
X32952Y-28503D01*
X32928Y-29212D02*
X32952Y-29188D01*
X32928Y-39094D02*
X32952Y-39070D01*
X32952Y-39070D02*
X32952Y-38385D01*
X34149Y-40619D02*
X34149Y-41224D01*
X34149Y-41224D02*
X34444Y-41519D01*
X34149Y-51106D02*
X34444Y-51401D01*
X34149Y-50501D02*
X34149Y-51106D01*
X32952Y-48952D02*
X32952Y-48267D01*
X32928Y-48976D02*
X32952Y-48952D01*
X32928Y-58858D02*
X32952Y-58834D01*
X32952Y-58834D02*
X32952Y-58149D01*
X34149Y-60383D02*
X34149Y-60988D01*
X34149Y-60988D02*
X34444Y-61283D01*
X47023Y-60988D02*
X47318Y-61283D01*
X47023Y-60383D02*
X47023Y-60988D01*
X45826Y-58834D02*
X45826Y-58149D01*
X45802Y-58858D02*
X45826Y-58834D01*
X45802Y-48976D02*
X45826Y-48952D01*
X45826Y-48952D02*
X45826Y-48267D01*
X47023Y-50501D02*
X47023Y-51106D01*
X47023Y-51106D02*
X47318Y-51401D01*
X47023Y-41224D02*
X47318Y-41519D01*
X47023Y-40619D02*
X47023Y-41224D01*
X45826Y-39070D02*
X45826Y-38385D01*
X45802Y-39094D02*
X45826Y-39070D01*
X45802Y-29212D02*
X45826Y-29188D01*
X45826Y-29188D02*
X45826Y-28503D01*
X47023Y-30737D02*
X47023Y-31342D01*
X47023Y-31342D02*
X47318Y-31637D01*
X59897Y-31342D02*
X60192Y-31637D01*
X59897Y-30737D02*
X59897Y-31342D01*
X58700Y-29188D02*
X58700Y-28503D01*
X58676Y-29212D02*
X58700Y-29188D01*
X58676Y-39094D02*
X58700Y-39070D01*
X58700Y-39070D02*
X58700Y-38385D01*
X59897Y-40619D02*
X59897Y-41224D01*
X59897Y-41224D02*
X60192Y-41519D01*
X59897Y-51106D02*
X60192Y-51401D01*
X59897Y-50501D02*
X59897Y-51106D01*
X58700Y-48952D02*
X58700Y-48267D01*
X58676Y-48976D02*
X58700Y-48952D01*
X58676Y-58858D02*
X58700Y-58834D01*
X58700Y-58834D02*
X58700Y-58149D01*
X59897Y-60383D02*
X59897Y-60988D01*
X59897Y-60988D02*
X60192Y-61283D01*
X35149Y-31342D02*
X35444Y-31637D01*
X35149Y-30737D02*
X35149Y-31342D01*
X33346Y-29189D02*
X33346Y-28503D01*
X33322Y-29212D02*
X33346Y-29189D01*
X33322Y-39094D02*
X33346Y-39071D01*
X33346Y-39071D02*
X33346Y-38385D01*
X35149Y-40619D02*
X35149Y-41224D01*
X35149Y-41224D02*
X35444Y-41519D01*
X35149Y-51106D02*
X35444Y-51401D01*
X35149Y-50501D02*
X35149Y-51106D01*
X33346Y-48953D02*
X33346Y-48267D01*
X33322Y-48976D02*
X33346Y-48953D01*
X33322Y-58858D02*
X33346Y-58834D01*
X33346Y-58834D02*
X33346Y-58149D01*
X35149Y-60383D02*
X35149Y-60988D01*
X35149Y-60988D02*
X35444Y-61283D01*
X48023Y-60988D02*
X48318Y-61283D01*
X48023Y-60383D02*
X48023Y-60988D01*
X46220Y-58834D02*
X46220Y-58149D01*
X46196Y-58858D02*
X46220Y-58834D01*
X46196Y-48976D02*
X46220Y-48953D01*
X46220Y-48953D02*
X46220Y-48267D01*
X48023Y-50501D02*
X48023Y-51106D01*
X48023Y-51106D02*
X48318Y-51401D01*
X48023Y-41224D02*
X48318Y-41519D01*
X48023Y-40619D02*
X48023Y-41224D01*
X46220Y-39071D02*
X46220Y-38385D01*
X46196Y-39094D02*
X46220Y-39071D01*
X46196Y-29212D02*
X46220Y-29189D01*
X46220Y-29189D02*
X46220Y-28503D01*
X48023Y-30737D02*
X48023Y-31342D01*
X48023Y-31342D02*
X48318Y-31637D01*
X60897Y-31342D02*
X61192Y-31637D01*
X60897Y-30737D02*
X60897Y-31342D01*
X59094Y-29189D02*
X59094Y-28503D01*
X59070Y-29212D02*
X59094Y-29189D01*
X59070Y-39094D02*
X59094Y-39071D01*
X59094Y-39071D02*
X59094Y-38385D01*
X60897Y-40619D02*
X60897Y-41224D01*
X60897Y-41224D02*
X61192Y-41519D01*
X60897Y-51106D02*
X61192Y-51401D01*
X60897Y-50501D02*
X60897Y-51106D01*
X59094Y-48953D02*
X59094Y-48267D01*
X59070Y-48976D02*
X59094Y-48953D01*
X59070Y-58858D02*
X59094Y-58834D01*
X59094Y-58834D02*
X59094Y-58149D01*
X60897Y-60383D02*
X60897Y-60988D01*
X60897Y-60988D02*
X61192Y-61283D01*
X36149Y-31342D02*
X36444Y-31637D01*
X36149Y-30737D02*
X36149Y-31342D01*
X33740Y-29189D02*
X33740Y-28503D01*
X33716Y-29212D02*
X33740Y-29189D01*
X33716Y-39094D02*
X33740Y-39071D01*
X33740Y-39071D02*
X33740Y-38385D01*
X36149Y-40619D02*
X36149Y-41224D01*
X36149Y-41224D02*
X36444Y-41519D01*
X36149Y-51106D02*
X36444Y-51401D01*
X36149Y-50501D02*
X36149Y-51106D01*
X33740Y-48953D02*
X33740Y-48267D01*
X33716Y-48976D02*
X33740Y-48953D01*
X33716Y-58858D02*
X33740Y-58835D01*
X33740Y-58835D02*
X33740Y-58149D01*
X36149Y-60383D02*
X36149Y-60988D01*
X36149Y-60988D02*
X36444Y-61283D01*
X49023Y-60988D02*
X49318Y-61283D01*
X49023Y-60383D02*
X49023Y-60988D01*
X46614Y-58835D02*
X46614Y-58149D01*
X46590Y-58858D02*
X46614Y-58835D01*
X46590Y-48976D02*
X46614Y-48953D01*
X46614Y-48953D02*
X46614Y-48267D01*
X49023Y-50501D02*
X49023Y-51106D01*
X49023Y-51106D02*
X49318Y-51401D01*
X49023Y-41224D02*
X49318Y-41519D01*
X49023Y-40619D02*
X49023Y-41224D01*
X46614Y-39071D02*
X46614Y-38385D01*
X46590Y-39094D02*
X46614Y-39071D01*
X46590Y-29212D02*
X46614Y-29189D01*
X46614Y-29189D02*
X46614Y-28503D01*
X49023Y-30737D02*
X49023Y-31342D01*
X49023Y-31342D02*
X49318Y-31637D01*
X61897Y-31342D02*
X62192Y-31637D01*
X61897Y-30737D02*
X61897Y-31342D01*
X59488Y-29189D02*
X59488Y-28503D01*
X59464Y-29212D02*
X59488Y-29189D01*
X59464Y-39094D02*
X59488Y-39071D01*
X59488Y-39071D02*
X59488Y-38385D01*
X61897Y-40619D02*
X61897Y-41224D01*
X61897Y-41224D02*
X62192Y-41519D01*
X61897Y-51106D02*
X62192Y-51401D01*
X61897Y-50501D02*
X61897Y-51106D01*
X59488Y-48953D02*
X59488Y-48267D01*
X59464Y-48976D02*
X59488Y-48953D01*
X59464Y-58858D02*
X59488Y-58835D01*
X59488Y-58835D02*
X59488Y-58149D01*
X61897Y-60383D02*
X61897Y-60988D01*
X61897Y-60988D02*
X62192Y-61283D01*
X37149Y-31342D02*
X37444Y-31637D01*
X37149Y-30737D02*
X37149Y-31342D01*
X34149Y-29251D02*
X34566Y-29251D01*
X34109Y-29212D02*
X34149Y-29251D01*
X34109Y-39094D02*
X34149Y-39133D01*
X34149Y-39133D02*
X34566Y-39133D01*
X37149Y-40619D02*
X37149Y-41224D01*
X37149Y-41224D02*
X37444Y-41519D01*
X37149Y-51106D02*
X37444Y-51401D01*
X37149Y-50501D02*
X37149Y-51106D01*
X34149Y-49015D02*
X34566Y-49015D01*
X34109Y-48976D02*
X34149Y-49015D01*
X34109Y-58858D02*
X34149Y-58897D01*
X34149Y-58897D02*
X34566Y-58897D01*
X37149Y-60383D02*
X37149Y-60988D01*
X37149Y-60988D02*
X37444Y-61283D01*
X50023Y-60988D02*
X50318Y-61283D01*
X50023Y-60383D02*
X50023Y-60988D01*
X47023Y-58897D02*
X47440Y-58897D01*
X46983Y-58858D02*
X47023Y-58897D01*
X46983Y-48976D02*
X47023Y-49015D01*
X47023Y-49015D02*
X47440Y-49015D01*
X50023Y-50501D02*
X50023Y-51106D01*
X50023Y-51106D02*
X50318Y-51401D01*
X50023Y-41224D02*
X50318Y-41519D01*
X50023Y-40619D02*
X50023Y-41224D01*
X47023Y-39133D02*
X47440Y-39133D01*
X46983Y-39094D02*
X47023Y-39133D01*
X46983Y-29212D02*
X47023Y-29251D01*
X47023Y-29251D02*
X47440Y-29251D01*
X50023Y-30737D02*
X50023Y-31342D01*
X50023Y-31342D02*
X50318Y-31637D01*
X62897Y-31342D02*
X63192Y-31637D01*
X62897Y-30737D02*
X62897Y-31342D01*
X59897Y-29251D02*
X60314Y-29251D01*
X59857Y-29212D02*
X59897Y-29251D01*
X59857Y-39094D02*
X59897Y-39133D01*
X59897Y-39133D02*
X60314Y-39133D01*
X62897Y-40619D02*
X62897Y-41224D01*
X62897Y-41224D02*
X63192Y-41519D01*
X62897Y-51106D02*
X63192Y-51401D01*
X62897Y-50501D02*
X62897Y-51106D01*
X59897Y-49015D02*
X60314Y-49015D01*
X59857Y-48976D02*
X59897Y-49015D01*
X59857Y-58858D02*
X59897Y-58897D01*
X59897Y-58897D02*
X60314Y-58897D01*
X62897Y-60383D02*
X62897Y-60988D01*
X62897Y-60988D02*
X63192Y-61283D01*
X37149Y-23932D02*
X37444Y-23637D01*
X37149Y-24537D02*
X37149Y-23932D01*
X34134Y-26087D02*
X34544Y-26087D01*
X34109Y-26062D02*
X34134Y-26087D01*
X34109Y-35944D02*
X34134Y-35969D01*
X34134Y-35969D02*
X34544Y-35969D01*
X37149Y-34419D02*
X37149Y-33814D01*
X37149Y-33814D02*
X37444Y-33519D01*
X37149Y-43696D02*
X37444Y-43401D01*
X37149Y-44301D02*
X37149Y-43696D01*
X34134Y-45851D02*
X34544Y-45851D01*
X34109Y-45826D02*
X34134Y-45851D01*
X34109Y-55708D02*
X34134Y-55733D01*
X34134Y-55733D02*
X34544Y-55733D01*
X37149Y-54183D02*
X37149Y-53578D01*
X37149Y-53578D02*
X37444Y-53283D01*
X50023Y-53578D02*
X50318Y-53283D01*
X50023Y-54183D02*
X50023Y-53578D01*
X47008Y-55733D02*
X47418Y-55733D01*
X46983Y-55708D02*
X47008Y-55733D01*
X46983Y-45826D02*
X47008Y-45851D01*
X47008Y-45851D02*
X47418Y-45851D01*
X50023Y-44301D02*
X50023Y-43696D01*
X50023Y-43696D02*
X50318Y-43401D01*
X50023Y-33814D02*
X50318Y-33519D01*
X50023Y-34419D02*
X50023Y-33814D01*
X47008Y-35969D02*
X47418Y-35969D01*
X46983Y-35944D02*
X47008Y-35969D01*
X46983Y-26062D02*
X47008Y-26087D01*
X47008Y-26087D02*
X47418Y-26087D01*
X50023Y-24537D02*
X50023Y-23932D01*
X50023Y-23932D02*
X50318Y-23637D01*
X62897Y-23932D02*
X63192Y-23637D01*
X62897Y-24537D02*
X62897Y-23932D01*
X59882Y-26087D02*
X60292Y-26087D01*
X59857Y-26062D02*
X59882Y-26087D01*
X59857Y-35944D02*
X59882Y-35969D01*
X59882Y-35969D02*
X60292Y-35969D01*
X62897Y-34419D02*
X62897Y-33814D01*
X62897Y-33814D02*
X63192Y-33519D01*
X62897Y-43696D02*
X63192Y-43401D01*
X62897Y-44301D02*
X62897Y-43696D01*
X59882Y-45851D02*
X60292Y-45851D01*
X59857Y-45826D02*
X59882Y-45851D01*
X59857Y-55708D02*
X59882Y-55733D01*
X59882Y-55733D02*
X60292Y-55733D01*
X62897Y-54183D02*
X62897Y-53578D01*
X62897Y-53578D02*
X63192Y-53283D01*
X36149Y-23932D02*
X36444Y-23637D01*
X36149Y-24537D02*
X36149Y-23932D01*
X33740Y-26086D02*
X33740Y-26732D01*
X33716Y-26062D02*
X33740Y-26086D01*
X33716Y-35944D02*
X33740Y-35967D01*
X33740Y-35967D02*
X33740Y-36614D01*
X36149Y-34419D02*
X36149Y-33814D01*
X36149Y-33814D02*
X36444Y-33519D01*
X36149Y-43696D02*
X36444Y-43401D01*
X36149Y-44301D02*
X36149Y-43696D01*
X33740Y-45849D02*
X33740Y-46496D01*
X33716Y-45826D02*
X33740Y-45849D01*
X33716Y-55708D02*
X33740Y-55731D01*
X33740Y-55731D02*
X33740Y-56377D01*
X36149Y-54183D02*
X36149Y-53578D01*
X36149Y-53578D02*
X36444Y-53283D01*
X49023Y-53578D02*
X49318Y-53283D01*
X49023Y-54183D02*
X49023Y-53578D01*
X46614Y-55731D02*
X46614Y-56377D01*
X46590Y-55708D02*
X46614Y-55731D01*
X46590Y-45826D02*
X46614Y-45849D01*
X46614Y-45849D02*
X46614Y-46496D01*
X49023Y-44301D02*
X49023Y-43696D01*
X49023Y-43696D02*
X49318Y-43401D01*
X49023Y-33814D02*
X49318Y-33519D01*
X49023Y-34419D02*
X49023Y-33814D01*
X46614Y-35967D02*
X46614Y-36614D01*
X46590Y-35944D02*
X46614Y-35967D01*
X46590Y-26062D02*
X46614Y-26086D01*
X46614Y-26086D02*
X46614Y-26732D01*
X49023Y-24537D02*
X49023Y-23932D01*
X49023Y-23932D02*
X49318Y-23637D01*
X61897Y-23932D02*
X62192Y-23637D01*
X61897Y-24537D02*
X61897Y-23932D01*
X59488Y-26086D02*
X59488Y-26732D01*
X59464Y-26062D02*
X59488Y-26086D01*
X59464Y-35944D02*
X59488Y-35967D01*
X59488Y-35967D02*
X59488Y-36614D01*
X61897Y-34419D02*
X61897Y-33814D01*
X61897Y-33814D02*
X62192Y-33519D01*
X61897Y-43696D02*
X62192Y-43401D01*
X61897Y-44301D02*
X61897Y-43696D01*
X59488Y-45849D02*
X59488Y-46496D01*
X59464Y-45826D02*
X59488Y-45849D01*
X59464Y-55708D02*
X59488Y-55731D01*
X59488Y-55731D02*
X59488Y-56377D01*
X61897Y-54183D02*
X61897Y-53578D01*
X61897Y-53578D02*
X62192Y-53283D01*
X30196Y-26086D02*
X30196Y-26732D01*
X30172Y-26062D02*
X30196Y-26086D01*
X30449Y-27342D02*
X30722Y-27615D01*
X30196Y-27089D02*
X30449Y-27342D01*
X30196Y-27089D02*
X30196Y-26732D01*
X34902Y-27615D02*
X30722Y-27615D01*
X34902Y-37497D02*
X30722Y-37497D01*
X30196Y-36971D02*
X30196Y-36614D01*
X30196Y-36971D02*
X30449Y-37224D01*
X30449Y-37224D02*
X30722Y-37497D01*
X30172Y-35944D02*
X30196Y-35968D01*
X30196Y-35968D02*
X30196Y-36614D01*
X30196Y-45850D02*
X30196Y-46496D01*
X30172Y-45826D02*
X30196Y-45850D01*
X30449Y-47106D02*
X30722Y-47378D01*
X30196Y-46853D02*
X30449Y-47106D01*
X30196Y-46853D02*
X30196Y-46496D01*
X34902Y-47378D02*
X30722Y-47378D01*
X34902Y-57260D02*
X30722Y-57260D01*
X30196Y-56735D02*
X30196Y-56377D01*
X30196Y-56735D02*
X30449Y-56988D01*
X30449Y-56988D02*
X30722Y-57260D01*
X30172Y-55708D02*
X30196Y-55732D01*
X30196Y-55732D02*
X30196Y-56377D01*
X43070Y-55732D02*
X43070Y-56377D01*
X43046Y-55708D02*
X43070Y-55732D01*
X43323Y-56988D02*
X43596Y-57260D01*
X43070Y-56735D02*
X43323Y-56988D01*
X43070Y-56735D02*
X43070Y-56377D01*
X47776Y-57260D02*
X43596Y-57260D01*
X47776Y-47378D02*
X43596Y-47378D01*
X43070Y-46853D02*
X43070Y-46496D01*
X43070Y-46853D02*
X43323Y-47106D01*
X43323Y-47106D02*
X43596Y-47378D01*
X43046Y-45826D02*
X43070Y-45850D01*
X43070Y-45850D02*
X43070Y-46496D01*
X43070Y-35968D02*
X43070Y-36614D01*
X43046Y-35944D02*
X43070Y-35968D01*
X43323Y-37224D02*
X43596Y-37497D01*
X43070Y-36971D02*
X43323Y-37224D01*
X43070Y-36971D02*
X43070Y-36614D01*
X47776Y-37497D02*
X43596Y-37497D01*
X47776Y-27615D02*
X43596Y-27615D01*
X43070Y-27089D02*
X43070Y-26732D01*
X43070Y-27089D02*
X43323Y-27342D01*
X43323Y-27342D02*
X43596Y-27615D01*
X43046Y-26062D02*
X43070Y-26086D01*
X43070Y-26086D02*
X43070Y-26732D01*
X55944Y-26086D02*
X55944Y-26732D01*
X55920Y-26062D02*
X55944Y-26086D01*
X56197Y-27342D02*
X56470Y-27615D01*
X55944Y-27089D02*
X56197Y-27342D01*
X55944Y-27089D02*
X55944Y-26732D01*
X60650Y-27615D02*
X56470Y-27615D01*
X60650Y-37497D02*
X56470Y-37497D01*
X55944Y-36971D02*
X55944Y-36614D01*
X55944Y-36971D02*
X56197Y-37224D01*
X56197Y-37224D02*
X56470Y-37497D01*
X55920Y-35944D02*
X55944Y-35968D01*
X55944Y-35968D02*
X55944Y-36614D01*
X55944Y-45850D02*
X55944Y-46496D01*
X55920Y-45826D02*
X55944Y-45850D01*
X56197Y-47106D02*
X56470Y-47378D01*
X55944Y-46853D02*
X56197Y-47106D01*
X55944Y-46853D02*
X55944Y-46496D01*
X60650Y-47378D02*
X56470Y-47378D01*
X60650Y-57260D02*
X56470Y-57260D01*
X55944Y-56735D02*
X55944Y-56377D01*
X55944Y-56735D02*
X56197Y-56988D01*
X56197Y-56988D02*
X56470Y-57260D01*
X55920Y-55708D02*
X55944Y-55732D01*
X55944Y-55732D02*
X55944Y-56377D01*
X30196Y-29188D02*
X30196Y-28503D01*
X30172Y-29212D02*
X30196Y-29188D01*
X30172Y-39094D02*
X30196Y-39070D01*
X30196Y-39070D02*
X30196Y-38385D01*
X30196Y-48952D02*
X30196Y-48267D01*
X30172Y-48976D02*
X30196Y-48952D01*
X30172Y-58858D02*
X30196Y-58834D01*
X30196Y-58834D02*
X30196Y-58149D01*
X43070Y-58834D02*
X43070Y-58149D01*
X43046Y-58858D02*
X43070Y-58834D01*
X43046Y-48976D02*
X43070Y-48952D01*
X43070Y-48952D02*
X43070Y-48267D01*
X43070Y-39070D02*
X43070Y-38385D01*
X43046Y-39094D02*
X43070Y-39070D01*
X43046Y-29212D02*
X43070Y-29188D01*
X43070Y-29188D02*
X43070Y-28503D01*
X55944Y-29188D02*
X55944Y-28503D01*
X55920Y-29212D02*
X55944Y-29188D01*
X55920Y-39094D02*
X55944Y-39070D01*
X55944Y-39070D02*
X55944Y-38385D01*
X55944Y-48952D02*
X55944Y-48267D01*
X55920Y-48976D02*
X55944Y-48952D01*
X55920Y-58858D02*
X55944Y-58834D01*
X55944Y-58834D02*
X55944Y-58149D01*
X30590Y-26086D02*
X30590Y-26732D01*
X30566Y-26062D02*
X30590Y-26086D01*
X30566Y-35944D02*
X30590Y-35968D01*
X30590Y-35968D02*
X30590Y-36614D01*
X30590Y-45850D02*
X30590Y-46496D01*
X30566Y-45826D02*
X30590Y-45850D01*
X30566Y-55708D02*
X30590Y-55732D01*
X30590Y-55732D02*
X30590Y-56377D01*
X43464Y-55732D02*
X43464Y-56377D01*
X43440Y-55708D02*
X43464Y-55732D01*
X43440Y-45826D02*
X43464Y-45850D01*
X43464Y-45850D02*
X43464Y-46496D01*
X43464Y-35968D02*
X43464Y-36614D01*
X43440Y-35944D02*
X43464Y-35968D01*
X43440Y-26062D02*
X43464Y-26086D01*
X43464Y-26086D02*
X43464Y-26732D01*
X56338Y-26086D02*
X56338Y-26732D01*
X56314Y-26062D02*
X56338Y-26086D01*
X56314Y-35944D02*
X56338Y-35968D01*
X56338Y-35968D02*
X56338Y-36614D01*
X56338Y-45850D02*
X56338Y-46496D01*
X56314Y-45826D02*
X56338Y-45850D01*
X56314Y-55708D02*
X56338Y-55732D01*
X56338Y-55732D02*
X56338Y-56377D01*
G54D24*
X27994Y-28036D02*
X28819Y-28036D01*
G54D25*
X29779Y-29212D02*
X29779Y-29212D01*
G54D22*
X37538Y-27543D02*
X37538Y-27028D01*
X37144Y-27937D02*
X37538Y-27543D01*
X37144Y-28308D02*
X37144Y-27937D01*
G54D24*
X29779Y-28222D02*
X29779Y-29212D01*
X29593Y-28036D02*
X29779Y-28222D01*
X28819Y-28036D02*
X29593Y-28036D01*
G54D23*
X37073Y-28237D02*
X37144Y-28308D01*
G54D24*
X29779Y-29212D02*
X29444Y-29212D01*
G54D26*
X28119Y-29212D02*
X26444Y-30887D01*
X26444Y-30887D02*
X26444Y-31637D01*
X29444Y-29212D02*
X28119Y-29212D01*
G54D24*
X37194Y-28259D02*
X37144Y-28308D01*
G54D22*
X29789Y-28222D02*
X29779Y-28222D01*
X33858Y-28110D02*
X29892Y-28110D01*
X29892Y-28110D02*
X29779Y-28222D01*
X34764Y-28110D02*
X34468Y-28110D01*
X34764Y-28110D02*
X36946Y-28110D01*
X37144Y-28308D02*
X36946Y-28110D01*
X34468Y-28110D02*
X33858Y-28110D01*
X34468Y-37992D02*
X33858Y-37992D01*
X37144Y-38190D02*
X36946Y-37992D01*
X34764Y-37992D02*
X36946Y-37992D01*
X34764Y-37992D02*
X34468Y-37992D01*
X29892Y-37992D02*
X29779Y-38104D01*
X33858Y-37992D02*
X29892Y-37992D01*
X29789Y-38104D02*
X29779Y-38104D01*
G54D24*
X37194Y-38140D02*
X37144Y-38190D01*
G54D26*
X29444Y-39094D02*
X28119Y-39094D01*
X26444Y-40769D02*
X26444Y-41519D01*
X28119Y-39094D02*
X26444Y-40769D01*
G54D24*
X29779Y-39094D02*
X29444Y-39094D01*
G54D23*
X37073Y-38119D02*
X37144Y-38190D01*
G54D24*
X28819Y-37918D02*
X29593Y-37918D01*
X29593Y-37918D02*
X29779Y-38104D01*
X29779Y-38104D02*
X29779Y-39094D01*
G54D22*
X37144Y-38190D02*
X37144Y-37819D01*
X37144Y-37819D02*
X37538Y-37425D01*
X37538Y-37425D02*
X37538Y-36910D01*
G54D25*
X29779Y-39094D02*
X29779Y-39094D01*
G54D24*
X27994Y-37918D02*
X28819Y-37918D01*
X27994Y-47800D02*
X28819Y-47800D01*
G54D25*
X29779Y-48976D02*
X29779Y-48976D01*
G54D22*
X37538Y-47307D02*
X37538Y-46792D01*
X37144Y-47701D02*
X37538Y-47307D01*
X37144Y-48072D02*
X37144Y-47701D01*
G54D24*
X29779Y-47986D02*
X29779Y-48976D01*
X29593Y-47800D02*
X29779Y-47986D01*
X28819Y-47800D02*
X29593Y-47800D01*
G54D23*
X37073Y-48001D02*
X37144Y-48072D01*
G54D24*
X29779Y-48976D02*
X29444Y-48976D01*
G54D26*
X28119Y-48976D02*
X26444Y-50651D01*
X26444Y-50651D02*
X26444Y-51401D01*
X29444Y-48976D02*
X28119Y-48976D01*
G54D24*
X37194Y-48022D02*
X37144Y-48072D01*
G54D22*
X29789Y-47986D02*
X29779Y-47986D01*
X33858Y-47874D02*
X29892Y-47874D01*
X29892Y-47874D02*
X29779Y-47986D01*
X34764Y-47874D02*
X34468Y-47874D01*
X34764Y-47874D02*
X36946Y-47874D01*
X37144Y-48072D02*
X36946Y-47874D01*
X34468Y-47874D02*
X33858Y-47874D01*
X34468Y-57755D02*
X33858Y-57755D01*
X37144Y-57954D02*
X36946Y-57755D01*
X34764Y-57755D02*
X36946Y-57755D01*
X34764Y-57755D02*
X34468Y-57755D01*
X29892Y-57755D02*
X29779Y-57868D01*
X33858Y-57755D02*
X29892Y-57755D01*
X29789Y-57868D02*
X29779Y-57868D01*
G54D24*
X37194Y-57904D02*
X37144Y-57954D01*
G54D26*
X29444Y-58858D02*
X28119Y-58858D01*
X26444Y-60533D02*
X26444Y-61283D01*
X28119Y-58858D02*
X26444Y-60533D01*
G54D24*
X29779Y-58858D02*
X29444Y-58858D01*
G54D23*
X37073Y-57883D02*
X37144Y-57954D01*
G54D24*
X28819Y-57682D02*
X29593Y-57682D01*
X29593Y-57682D02*
X29779Y-57868D01*
X29779Y-57868D02*
X29779Y-58858D01*
G54D22*
X37144Y-57954D02*
X37144Y-57583D01*
X37144Y-57583D02*
X37538Y-57189D01*
X37538Y-57189D02*
X37538Y-56674D01*
G54D25*
X29779Y-58858D02*
X29779Y-58858D01*
G54D24*
X27994Y-57682D02*
X28819Y-57682D01*
X40868Y-57682D02*
X41693Y-57682D01*
G54D25*
X42653Y-58858D02*
X42653Y-58858D01*
G54D22*
X50412Y-57189D02*
X50412Y-56674D01*
X50018Y-57583D02*
X50412Y-57189D01*
X50018Y-57954D02*
X50018Y-57583D01*
G54D24*
X42653Y-57868D02*
X42653Y-58858D01*
X42467Y-57682D02*
X42653Y-57868D01*
X41693Y-57682D02*
X42467Y-57682D01*
G54D23*
X49947Y-57883D02*
X50018Y-57954D01*
G54D24*
X42653Y-58858D02*
X42318Y-58858D01*
G54D26*
X40993Y-58858D02*
X39318Y-60533D01*
X39318Y-60533D02*
X39318Y-61283D01*
X42318Y-58858D02*
X40993Y-58858D01*
G54D24*
X50068Y-57904D02*
X50018Y-57954D01*
G54D22*
X42663Y-57868D02*
X42653Y-57868D01*
X46732Y-57755D02*
X42766Y-57755D01*
X42766Y-57755D02*
X42653Y-57868D01*
X47638Y-57755D02*
X47342Y-57755D01*
X47638Y-57755D02*
X49820Y-57755D01*
X50018Y-57954D02*
X49820Y-57755D01*
X47342Y-57755D02*
X46732Y-57755D01*
X47342Y-47874D02*
X46732Y-47874D01*
X50018Y-48072D02*
X49820Y-47874D01*
X47638Y-47874D02*
X49820Y-47874D01*
X47638Y-47874D02*
X47342Y-47874D01*
X42766Y-47874D02*
X42653Y-47986D01*
X46732Y-47874D02*
X42766Y-47874D01*
X42663Y-47986D02*
X42653Y-47986D01*
G54D24*
X50068Y-48022D02*
X50018Y-48072D01*
G54D26*
X42318Y-48976D02*
X40993Y-48976D01*
X39318Y-50651D02*
X39318Y-51401D01*
X40993Y-48976D02*
X39318Y-50651D01*
G54D24*
X42653Y-48976D02*
X42318Y-48976D01*
G54D23*
X49947Y-48001D02*
X50018Y-48072D01*
G54D24*
X41693Y-47800D02*
X42467Y-47800D01*
X42467Y-47800D02*
X42653Y-47986D01*
X42653Y-47986D02*
X42653Y-48976D01*
G54D22*
X50018Y-48072D02*
X50018Y-47701D01*
X50018Y-47701D02*
X50412Y-47307D01*
X50412Y-47307D02*
X50412Y-46792D01*
G54D25*
X42653Y-48976D02*
X42653Y-48976D01*
G54D24*
X40868Y-47800D02*
X41693Y-47800D01*
X40868Y-37918D02*
X41693Y-37918D01*
G54D25*
X42653Y-39094D02*
X42653Y-39094D01*
G54D22*
X50412Y-37425D02*
X50412Y-36910D01*
X50018Y-37819D02*
X50412Y-37425D01*
X50018Y-38190D02*
X50018Y-37819D01*
G54D24*
X42653Y-38104D02*
X42653Y-39094D01*
X42467Y-37918D02*
X42653Y-38104D01*
X41693Y-37918D02*
X42467Y-37918D01*
G54D23*
X49947Y-38119D02*
X50018Y-38190D01*
G54D24*
X42653Y-39094D02*
X42318Y-39094D01*
G54D26*
X40993Y-39094D02*
X39318Y-40769D01*
X39318Y-40769D02*
X39318Y-41519D01*
X42318Y-39094D02*
X40993Y-39094D01*
G54D24*
X50068Y-38140D02*
X50018Y-38190D01*
G54D22*
X42663Y-38104D02*
X42653Y-38104D01*
X46732Y-37992D02*
X42766Y-37992D01*
X42766Y-37992D02*
X42653Y-38104D01*
X47638Y-37992D02*
X47342Y-37992D01*
X47638Y-37992D02*
X49820Y-37992D01*
X50018Y-38190D02*
X49820Y-37992D01*
X47342Y-37992D02*
X46732Y-37992D01*
X47342Y-28110D02*
X46732Y-28110D01*
X50018Y-28308D02*
X49820Y-28110D01*
X47638Y-28110D02*
X49820Y-28110D01*
X47638Y-28110D02*
X47342Y-28110D01*
X42766Y-28110D02*
X42653Y-28222D01*
X46732Y-28110D02*
X42766Y-28110D01*
X42663Y-28222D02*
X42653Y-28222D01*
G54D24*
X50068Y-28259D02*
X50018Y-28308D01*
G54D26*
X42318Y-29212D02*
X40993Y-29212D01*
X39318Y-30887D02*
X39318Y-31637D01*
X40993Y-29212D02*
X39318Y-30887D01*
G54D24*
X42653Y-29212D02*
X42318Y-29212D01*
G54D23*
X49947Y-28237D02*
X50018Y-28308D01*
G54D24*
X41693Y-28036D02*
X42467Y-28036D01*
X42467Y-28036D02*
X42653Y-28222D01*
X42653Y-28222D02*
X42653Y-29212D01*
G54D22*
X50018Y-28308D02*
X50018Y-27937D01*
X50018Y-27937D02*
X50412Y-27543D01*
X50412Y-27543D02*
X50412Y-27028D01*
G54D25*
X42653Y-29212D02*
X42653Y-29212D01*
G54D24*
X40868Y-28036D02*
X41693Y-28036D01*
X53742Y-28036D02*
X54567Y-28036D01*
G54D25*
X55527Y-29212D02*
X55527Y-29212D01*
G54D22*
X63286Y-27543D02*
X63286Y-27028D01*
X62892Y-27937D02*
X63286Y-27543D01*
X62892Y-28308D02*
X62892Y-27937D01*
G54D24*
X55527Y-28222D02*
X55527Y-29212D01*
X55341Y-28036D02*
X55527Y-28222D01*
X54567Y-28036D02*
X55341Y-28036D01*
G54D23*
X62821Y-28237D02*
X62892Y-28308D01*
G54D24*
X55527Y-29212D02*
X55192Y-29212D01*
G54D26*
X53867Y-29212D02*
X52192Y-30887D01*
X52192Y-30887D02*
X52192Y-31637D01*
X55192Y-29212D02*
X53867Y-29212D01*
G54D24*
X62942Y-28259D02*
X62892Y-28308D01*
G54D22*
X55537Y-28222D02*
X55527Y-28222D01*
X59606Y-28110D02*
X55640Y-28110D01*
X55640Y-28110D02*
X55527Y-28222D01*
X60512Y-28110D02*
X60216Y-28110D01*
X60512Y-28110D02*
X62694Y-28110D01*
X62892Y-28308D02*
X62694Y-28110D01*
X60216Y-28110D02*
X59606Y-28110D01*
X60216Y-37992D02*
X59606Y-37992D01*
X62892Y-38190D02*
X62694Y-37992D01*
X60512Y-37992D02*
X62694Y-37992D01*
X60512Y-37992D02*
X60216Y-37992D01*
X55640Y-37992D02*
X55527Y-38104D01*
X59606Y-37992D02*
X55640Y-37992D01*
X55537Y-38104D02*
X55527Y-38104D01*
G54D24*
X62942Y-38140D02*
X62892Y-38190D01*
G54D26*
X55192Y-39094D02*
X53867Y-39094D01*
X52192Y-40769D02*
X52192Y-41519D01*
X53867Y-39094D02*
X52192Y-40769D01*
G54D24*
X55527Y-39094D02*
X55192Y-39094D01*
G54D23*
X62821Y-38119D02*
X62892Y-38190D01*
G54D24*
X54567Y-37918D02*
X55341Y-37918D01*
X55341Y-37918D02*
X55527Y-38104D01*
X55527Y-38104D02*
X55527Y-39094D01*
G54D22*
X62892Y-38190D02*
X62892Y-37819D01*
X62892Y-37819D02*
X63286Y-37425D01*
X63286Y-37425D02*
X63286Y-36910D01*
G54D25*
X55527Y-39094D02*
X55527Y-39094D01*
G54D24*
X53742Y-37918D02*
X54567Y-37918D01*
X53742Y-47800D02*
X54567Y-47800D01*
G54D25*
X55527Y-48976D02*
X55527Y-48976D01*
G54D22*
X63286Y-47307D02*
X63286Y-46792D01*
X62892Y-47701D02*
X63286Y-47307D01*
X62892Y-48072D02*
X62892Y-47701D01*
G54D24*
X55527Y-47986D02*
X55527Y-48976D01*
X55341Y-47800D02*
X55527Y-47986D01*
X54567Y-47800D02*
X55341Y-47800D01*
G54D23*
X62821Y-48001D02*
X62892Y-48072D01*
G54D24*
X55527Y-48976D02*
X55192Y-48976D01*
G54D26*
X53867Y-48976D02*
X52192Y-50651D01*
X52192Y-50651D02*
X52192Y-51401D01*
X55192Y-48976D02*
X53867Y-48976D01*
G54D24*
X62942Y-48022D02*
X62892Y-48072D01*
G54D22*
X55537Y-47986D02*
X55527Y-47986D01*
X59606Y-47874D02*
X55640Y-47874D01*
X55640Y-47874D02*
X55527Y-47986D01*
X60512Y-47874D02*
X60216Y-47874D01*
X60512Y-47874D02*
X62694Y-47874D01*
X62892Y-48072D02*
X62694Y-47874D01*
X60216Y-47874D02*
X59606Y-47874D01*
X60216Y-57755D02*
X59606Y-57755D01*
X62892Y-57954D02*
X62694Y-57755D01*
X60512Y-57755D02*
X62694Y-57755D01*
X60512Y-57755D02*
X60216Y-57755D01*
X55640Y-57755D02*
X55527Y-57868D01*
X59606Y-57755D02*
X55640Y-57755D01*
X55537Y-57868D02*
X55527Y-57868D01*
G54D24*
X62942Y-57904D02*
X62892Y-57954D01*
G54D26*
X55192Y-58858D02*
X53867Y-58858D01*
X52192Y-60533D02*
X52192Y-61283D01*
X53867Y-58858D02*
X52192Y-60533D01*
G54D24*
X55527Y-58858D02*
X55192Y-58858D01*
G54D23*
X62821Y-57883D02*
X62892Y-57954D01*
G54D24*
X54567Y-57682D02*
X55341Y-57682D01*
X55341Y-57682D02*
X55527Y-57868D01*
X55527Y-57868D02*
X55527Y-58858D01*
G54D22*
X62892Y-57954D02*
X62892Y-57583D01*
X62892Y-57583D02*
X63286Y-57189D01*
X63286Y-57189D02*
X63286Y-56674D01*
G54D25*
X55527Y-58858D02*
X55527Y-58858D01*
G54D24*
X53742Y-57682D02*
X54567Y-57682D01*
G54D22*
X35495Y-27618D02*
X36464Y-27618D01*
X36750Y-27331D02*
X36750Y-27028D01*
X36464Y-27618D02*
X36750Y-27331D01*
X35492Y-27615D02*
X35495Y-27618D01*
X35492Y-37497D02*
X35495Y-37500D01*
X36464Y-37500D02*
X36750Y-37213D01*
X36750Y-37213D02*
X36750Y-36910D01*
X35495Y-37500D02*
X36464Y-37500D01*
X35495Y-47381D02*
X36464Y-47381D01*
X36750Y-47095D02*
X36750Y-46792D01*
X36464Y-47381D02*
X36750Y-47095D01*
X35492Y-47378D02*
X35495Y-47381D01*
X35492Y-57260D02*
X35495Y-57263D01*
X36464Y-57263D02*
X36750Y-56977D01*
X36750Y-56977D02*
X36750Y-56674D01*
X35495Y-57263D02*
X36464Y-57263D01*
X48369Y-57263D02*
X49338Y-57263D01*
X49624Y-56977D02*
X49624Y-56674D01*
X49338Y-57263D02*
X49624Y-56977D01*
X48366Y-57260D02*
X48369Y-57263D01*
X48366Y-47378D02*
X48369Y-47381D01*
X49338Y-47381D02*
X49624Y-47095D01*
X49624Y-47095D02*
X49624Y-46792D01*
X48369Y-47381D02*
X49338Y-47381D01*
X48369Y-37500D02*
X49338Y-37500D01*
X49624Y-37213D02*
X49624Y-36910D01*
X49338Y-37500D02*
X49624Y-37213D01*
X48366Y-37497D02*
X48369Y-37500D01*
X48366Y-27615D02*
X48369Y-27618D01*
X49338Y-27618D02*
X49624Y-27331D01*
X49624Y-27331D02*
X49624Y-27028D01*
X48369Y-27618D02*
X49338Y-27618D01*
X61243Y-27618D02*
X62212Y-27618D01*
X62498Y-27331D02*
X62498Y-27028D01*
X62212Y-27618D02*
X62498Y-27331D01*
X61240Y-27615D02*
X61243Y-27618D01*
X61240Y-37497D02*
X61243Y-37500D01*
X62212Y-37500D02*
X62498Y-37213D01*
X62498Y-37213D02*
X62498Y-36910D01*
X61243Y-37500D02*
X62212Y-37500D01*
X61243Y-47381D02*
X62212Y-47381D01*
X62498Y-47095D02*
X62498Y-46792D01*
X62212Y-47381D02*
X62498Y-47095D01*
X61240Y-47378D02*
X61243Y-47381D01*
X61240Y-57260D02*
X61243Y-57263D01*
X62212Y-57263D02*
X62498Y-56977D01*
X62498Y-56977D02*
X62498Y-56674D01*
X61243Y-57263D02*
X62212Y-57263D01*
X37303Y-29035D02*
X37667Y-29035D01*
X36988Y-29035D02*
X37303Y-29035D01*
X36624Y-29035D02*
X36988Y-29035D01*
X36545Y-26358D02*
X36624Y-26358D01*
X36131Y-26771D02*
X36545Y-26358D01*
X35767Y-26771D02*
X36131Y-26771D01*
X35452Y-26771D02*
X35767Y-26771D01*
X35088Y-26771D02*
X35452Y-26771D01*
X35068Y-26751D02*
X34665Y-26751D01*
X34665Y-28622D02*
X35088Y-28622D01*
X35088Y-26771D02*
X35068Y-26751D01*
X36210Y-28622D02*
X36624Y-29035D01*
X36131Y-28622D02*
X36210Y-28622D01*
X35767Y-28622D02*
X36131Y-28622D01*
X35452Y-28622D02*
X35767Y-28622D01*
X35088Y-28622D02*
X35452Y-28622D01*
X37303Y-26240D02*
X37667Y-26240D01*
X36988Y-26240D02*
X37303Y-26240D01*
X36624Y-26240D02*
X36988Y-26240D01*
X36624Y-36122D02*
X36988Y-36122D01*
X36988Y-36122D02*
X37303Y-36122D01*
X37303Y-36122D02*
X37667Y-36122D01*
X35088Y-38503D02*
X35452Y-38503D01*
X35452Y-38503D02*
X35767Y-38503D01*
X35767Y-38503D02*
X36131Y-38503D01*
X36131Y-38503D02*
X36210Y-38503D01*
X36210Y-38503D02*
X36624Y-38917D01*
X35088Y-36653D02*
X35068Y-36633D01*
X34665Y-38503D02*
X35088Y-38503D01*
X35068Y-36633D02*
X34665Y-36633D01*
X35088Y-36653D02*
X35452Y-36653D01*
X35452Y-36653D02*
X35767Y-36653D01*
X35767Y-36653D02*
X36131Y-36653D01*
X36131Y-36653D02*
X36545Y-36240D01*
X36545Y-36240D02*
X36624Y-36240D01*
X36624Y-38917D02*
X36988Y-38917D01*
X36988Y-38917D02*
X37303Y-38917D01*
X37303Y-38917D02*
X37667Y-38917D01*
X37303Y-48799D02*
X37667Y-48799D01*
X36988Y-48799D02*
X37303Y-48799D01*
X36624Y-48799D02*
X36988Y-48799D01*
X36545Y-46122D02*
X36624Y-46122D01*
X36131Y-46535D02*
X36545Y-46122D01*
X35767Y-46535D02*
X36131Y-46535D01*
X35452Y-46535D02*
X35767Y-46535D01*
X35088Y-46535D02*
X35452Y-46535D01*
X35068Y-46515D02*
X34665Y-46515D01*
X34665Y-48385D02*
X35088Y-48385D01*
X35088Y-46535D02*
X35068Y-46515D01*
X36210Y-48385D02*
X36624Y-48799D01*
X36131Y-48385D02*
X36210Y-48385D01*
X35767Y-48385D02*
X36131Y-48385D01*
X35452Y-48385D02*
X35767Y-48385D01*
X35088Y-48385D02*
X35452Y-48385D01*
X37303Y-46003D02*
X37667Y-46003D01*
X36988Y-46003D02*
X37303Y-46003D01*
X36624Y-46003D02*
X36988Y-46003D01*
X36624Y-55885D02*
X36988Y-55885D01*
X36988Y-55885D02*
X37303Y-55885D01*
X37303Y-55885D02*
X37667Y-55885D01*
X35088Y-58267D02*
X35452Y-58267D01*
X35452Y-58267D02*
X35767Y-58267D01*
X35767Y-58267D02*
X36131Y-58267D01*
X36131Y-58267D02*
X36210Y-58267D01*
X36210Y-58267D02*
X36624Y-58681D01*
X35088Y-56417D02*
X35068Y-56397D01*
X34665Y-58267D02*
X35088Y-58267D01*
X35068Y-56397D02*
X34665Y-56397D01*
X35088Y-56417D02*
X35452Y-56417D01*
X35452Y-56417D02*
X35767Y-56417D01*
X35767Y-56417D02*
X36131Y-56417D01*
X36131Y-56417D02*
X36545Y-56003D01*
X36545Y-56003D02*
X36624Y-56003D01*
X36624Y-58681D02*
X36988Y-58681D01*
X36988Y-58681D02*
X37303Y-58681D01*
X37303Y-58681D02*
X37667Y-58681D01*
X50177Y-58681D02*
X50541Y-58681D01*
X49862Y-58681D02*
X50177Y-58681D01*
X49498Y-58681D02*
X49862Y-58681D01*
X49419Y-56003D02*
X49498Y-56003D01*
X49005Y-56417D02*
X49419Y-56003D01*
X48641Y-56417D02*
X49005Y-56417D01*
X48326Y-56417D02*
X48641Y-56417D01*
X47962Y-56417D02*
X48326Y-56417D01*
X47942Y-56397D02*
X47539Y-56397D01*
X47539Y-58267D02*
X47962Y-58267D01*
X47962Y-56417D02*
X47942Y-56397D01*
X49084Y-58267D02*
X49498Y-58681D01*
X49005Y-58267D02*
X49084Y-58267D01*
X48641Y-58267D02*
X49005Y-58267D01*
X48326Y-58267D02*
X48641Y-58267D01*
X47962Y-58267D02*
X48326Y-58267D01*
X50177Y-55885D02*
X50541Y-55885D01*
X49862Y-55885D02*
X50177Y-55885D01*
X49498Y-55885D02*
X49862Y-55885D01*
X49498Y-46003D02*
X49862Y-46003D01*
X49862Y-46003D02*
X50177Y-46003D01*
X50177Y-46003D02*
X50541Y-46003D01*
X47962Y-48385D02*
X48326Y-48385D01*
X48326Y-48385D02*
X48641Y-48385D01*
X48641Y-48385D02*
X49005Y-48385D01*
X49005Y-48385D02*
X49084Y-48385D01*
X49084Y-48385D02*
X49498Y-48799D01*
X47962Y-46535D02*
X47942Y-46515D01*
X47539Y-48385D02*
X47962Y-48385D01*
X47942Y-46515D02*
X47539Y-46515D01*
X47962Y-46535D02*
X48326Y-46535D01*
X48326Y-46535D02*
X48641Y-46535D01*
X48641Y-46535D02*
X49005Y-46535D01*
X49005Y-46535D02*
X49419Y-46122D01*
X49419Y-46122D02*
X49498Y-46122D01*
X49498Y-48799D02*
X49862Y-48799D01*
X49862Y-48799D02*
X50177Y-48799D01*
X50177Y-48799D02*
X50541Y-48799D01*
X50177Y-38917D02*
X50541Y-38917D01*
X49862Y-38917D02*
X50177Y-38917D01*
X49498Y-38917D02*
X49862Y-38917D01*
X49419Y-36240D02*
X49498Y-36240D01*
X49005Y-36653D02*
X49419Y-36240D01*
X48641Y-36653D02*
X49005Y-36653D01*
X48326Y-36653D02*
X48641Y-36653D01*
X47962Y-36653D02*
X48326Y-36653D01*
X47942Y-36633D02*
X47539Y-36633D01*
X47539Y-38503D02*
X47962Y-38503D01*
X47962Y-36653D02*
X47942Y-36633D01*
X49084Y-38503D02*
X49498Y-38917D01*
X49005Y-38503D02*
X49084Y-38503D01*
X48641Y-38503D02*
X49005Y-38503D01*
X48326Y-38503D02*
X48641Y-38503D01*
X47962Y-38503D02*
X48326Y-38503D01*
X50177Y-36122D02*
X50541Y-36122D01*
X49862Y-36122D02*
X50177Y-36122D01*
X49498Y-36122D02*
X49862Y-36122D01*
X49498Y-26240D02*
X49862Y-26240D01*
X49862Y-26240D02*
X50177Y-26240D01*
X50177Y-26240D02*
X50541Y-26240D01*
X47962Y-28622D02*
X48326Y-28622D01*
X48326Y-28622D02*
X48641Y-28622D01*
X48641Y-28622D02*
X49005Y-28622D01*
X49005Y-28622D02*
X49084Y-28622D01*
X49084Y-28622D02*
X49498Y-29035D01*
X47962Y-26771D02*
X47942Y-26751D01*
X47539Y-28622D02*
X47962Y-28622D01*
X47942Y-26751D02*
X47539Y-26751D01*
X47962Y-26771D02*
X48326Y-26771D01*
X48326Y-26771D02*
X48641Y-26771D01*
X48641Y-26771D02*
X49005Y-26771D01*
X49005Y-26771D02*
X49419Y-26358D01*
X49419Y-26358D02*
X49498Y-26358D01*
X49498Y-29035D02*
X49862Y-29035D01*
X49862Y-29035D02*
X50177Y-29035D01*
X50177Y-29035D02*
X50541Y-29035D01*
X63051Y-29035D02*
X63415Y-29035D01*
X62736Y-29035D02*
X63051Y-29035D01*
X62372Y-29035D02*
X62736Y-29035D01*
X62293Y-26358D02*
X62372Y-26358D01*
X61879Y-26771D02*
X62293Y-26358D01*
X61515Y-26771D02*
X61879Y-26771D01*
X61200Y-26771D02*
X61515Y-26771D01*
X60836Y-26771D02*
X61200Y-26771D01*
X60816Y-26751D02*
X60413Y-26751D01*
X60413Y-28622D02*
X60836Y-28622D01*
X60836Y-26771D02*
X60816Y-26751D01*
X61958Y-28622D02*
X62372Y-29035D01*
X61879Y-28622D02*
X61958Y-28622D01*
X61515Y-28622D02*
X61879Y-28622D01*
X61200Y-28622D02*
X61515Y-28622D01*
X60836Y-28622D02*
X61200Y-28622D01*
X63051Y-26240D02*
X63415Y-26240D01*
X62736Y-26240D02*
X63051Y-26240D01*
X62372Y-26240D02*
X62736Y-26240D01*
X62372Y-36122D02*
X62736Y-36122D01*
X62736Y-36122D02*
X63051Y-36122D01*
X63051Y-36122D02*
X63415Y-36122D01*
X60836Y-38503D02*
X61200Y-38503D01*
X61200Y-38503D02*
X61515Y-38503D01*
X61515Y-38503D02*
X61879Y-38503D01*
X61879Y-38503D02*
X61958Y-38503D01*
X61958Y-38503D02*
X62372Y-38917D01*
X60836Y-36653D02*
X60816Y-36633D01*
X60413Y-38503D02*
X60836Y-38503D01*
X60816Y-36633D02*
X60413Y-36633D01*
X60836Y-36653D02*
X61200Y-36653D01*
X61200Y-36653D02*
X61515Y-36653D01*
X61515Y-36653D02*
X61879Y-36653D01*
X61879Y-36653D02*
X62293Y-36240D01*
X62293Y-36240D02*
X62372Y-36240D01*
X62372Y-38917D02*
X62736Y-38917D01*
X62736Y-38917D02*
X63051Y-38917D01*
X63051Y-38917D02*
X63415Y-38917D01*
X63051Y-48799D02*
X63415Y-48799D01*
X62736Y-48799D02*
X63051Y-48799D01*
X62372Y-48799D02*
X62736Y-48799D01*
X62293Y-46122D02*
X62372Y-46122D01*
X61879Y-46535D02*
X62293Y-46122D01*
X61515Y-46535D02*
X61879Y-46535D01*
X61200Y-46535D02*
X61515Y-46535D01*
X60836Y-46535D02*
X61200Y-46535D01*
X60816Y-46515D02*
X60413Y-46515D01*
X60413Y-48385D02*
X60836Y-48385D01*
X60836Y-46535D02*
X60816Y-46515D01*
X61958Y-48385D02*
X62372Y-48799D01*
X61879Y-48385D02*
X61958Y-48385D01*
X61515Y-48385D02*
X61879Y-48385D01*
X61200Y-48385D02*
X61515Y-48385D01*
X60836Y-48385D02*
X61200Y-48385D01*
X63051Y-46003D02*
X63415Y-46003D01*
X62736Y-46003D02*
X63051Y-46003D01*
X62372Y-46003D02*
X62736Y-46003D01*
X62372Y-55885D02*
X62736Y-55885D01*
X62736Y-55885D02*
X63051Y-55885D01*
X63051Y-55885D02*
X63415Y-55885D01*
X60836Y-58267D02*
X61200Y-58267D01*
X61200Y-58267D02*
X61515Y-58267D01*
X61515Y-58267D02*
X61879Y-58267D01*
X61879Y-58267D02*
X61958Y-58267D01*
X61958Y-58267D02*
X62372Y-58681D01*
X60836Y-56417D02*
X60816Y-56397D01*
X60413Y-58267D02*
X60836Y-58267D01*
X60816Y-56397D02*
X60413Y-56397D01*
X60836Y-56417D02*
X61200Y-56417D01*
X61200Y-56417D02*
X61515Y-56417D01*
X61515Y-56417D02*
X61879Y-56417D01*
X61879Y-56417D02*
X62293Y-56003D01*
X62293Y-56003D02*
X62372Y-56003D01*
X62372Y-58681D02*
X62736Y-58681D01*
X62736Y-58681D02*
X63051Y-58681D01*
X63051Y-58681D02*
X63415Y-58681D01*
X27849Y-27143D02*
X27994Y-27288D01*
G54D27*
X27994Y-27288D02*
X28819Y-27288D01*
X29493Y-27288D02*
X29779Y-27002D01*
X29779Y-27002D02*
X29779Y-26062D01*
X28819Y-27288D02*
X29493Y-27288D01*
X29779Y-26062D02*
X29754Y-26037D01*
X29754Y-26037D02*
X29344Y-26037D01*
X26607Y-27288D02*
X26456Y-27137D01*
X27994Y-27288D02*
X26607Y-27288D01*
X27994Y-37170D02*
X26607Y-37170D01*
X26607Y-37170D02*
X26456Y-37019D01*
X29754Y-35919D02*
X29344Y-35919D01*
X29779Y-35944D02*
X29754Y-35919D01*
X28819Y-37170D02*
X29493Y-37170D01*
X29779Y-36884D02*
X29779Y-35944D01*
X29493Y-37170D02*
X29779Y-36884D01*
X27994Y-37170D02*
X28819Y-37170D01*
G54D22*
X27849Y-37025D02*
X27994Y-37170D01*
X27849Y-46906D02*
X27994Y-47052D01*
G54D27*
X27994Y-47052D02*
X28819Y-47052D01*
X29493Y-47052D02*
X29779Y-46766D01*
X29779Y-46766D02*
X29779Y-45826D01*
X28819Y-47052D02*
X29493Y-47052D01*
X29779Y-45826D02*
X29754Y-45801D01*
X29754Y-45801D02*
X29344Y-45801D01*
X26607Y-47052D02*
X26456Y-46901D01*
X27994Y-47052D02*
X26607Y-47052D01*
X27994Y-56934D02*
X26607Y-56934D01*
X26607Y-56934D02*
X26456Y-56783D01*
X29754Y-55683D02*
X29344Y-55683D01*
X29779Y-55708D02*
X29754Y-55683D01*
X28819Y-56934D02*
X29493Y-56934D01*
X29779Y-56648D02*
X29779Y-55708D01*
X29493Y-56934D02*
X29779Y-56648D01*
X27994Y-56934D02*
X28819Y-56934D01*
G54D22*
X27849Y-56788D02*
X27994Y-56934D01*
X40723Y-56788D02*
X40868Y-56934D01*
G54D27*
X40868Y-56934D02*
X41693Y-56934D01*
X42367Y-56934D02*
X42653Y-56648D01*
X42653Y-56648D02*
X42653Y-55708D01*
X41693Y-56934D02*
X42367Y-56934D01*
X42653Y-55708D02*
X42628Y-55683D01*
X42628Y-55683D02*
X42218Y-55683D01*
X39481Y-56934D02*
X39330Y-56783D01*
X40868Y-56934D02*
X39481Y-56934D01*
X40868Y-47052D02*
X39481Y-47052D01*
X39481Y-47052D02*
X39330Y-46901D01*
X42628Y-45801D02*
X42218Y-45801D01*
X42653Y-45826D02*
X42628Y-45801D01*
X41693Y-47052D02*
X42367Y-47052D01*
X42653Y-46766D02*
X42653Y-45826D01*
X42367Y-47052D02*
X42653Y-46766D01*
X40868Y-47052D02*
X41693Y-47052D01*
G54D22*
X40723Y-46906D02*
X40868Y-47052D01*
X40723Y-37025D02*
X40868Y-37170D01*
G54D27*
X40868Y-37170D02*
X41693Y-37170D01*
X42367Y-37170D02*
X42653Y-36884D01*
X42653Y-36884D02*
X42653Y-35944D01*
X41693Y-37170D02*
X42367Y-37170D01*
X42653Y-35944D02*
X42628Y-35919D01*
X42628Y-35919D02*
X42218Y-35919D01*
X39481Y-37170D02*
X39330Y-37019D01*
X40868Y-37170D02*
X39481Y-37170D01*
X40868Y-27288D02*
X39481Y-27288D01*
X39481Y-27288D02*
X39330Y-27137D01*
X42628Y-26037D02*
X42218Y-26037D01*
X42653Y-26062D02*
X42628Y-26037D01*
X41693Y-27288D02*
X42367Y-27288D01*
X42653Y-27002D02*
X42653Y-26062D01*
X42367Y-27288D02*
X42653Y-27002D01*
X40868Y-27288D02*
X41693Y-27288D01*
G54D22*
X40723Y-27143D02*
X40868Y-27288D01*
X53597Y-27143D02*
X53742Y-27288D01*
G54D27*
X53742Y-27288D02*
X54567Y-27288D01*
X55241Y-27288D02*
X55527Y-27002D01*
X55527Y-27002D02*
X55527Y-26062D01*
X54567Y-27288D02*
X55241Y-27288D01*
X55527Y-26062D02*
X55502Y-26037D01*
X55502Y-26037D02*
X55092Y-26037D01*
X52355Y-27288D02*
X52204Y-27137D01*
X53742Y-27288D02*
X52355Y-27288D01*
X53742Y-37170D02*
X52355Y-37170D01*
X52355Y-37170D02*
X52204Y-37019D01*
X55502Y-35919D02*
X55092Y-35919D01*
X55527Y-35944D02*
X55502Y-35919D01*
X54567Y-37170D02*
X55241Y-37170D01*
X55527Y-36884D02*
X55527Y-35944D01*
X55241Y-37170D02*
X55527Y-36884D01*
X53742Y-37170D02*
X54567Y-37170D01*
G54D22*
X53597Y-37025D02*
X53742Y-37170D01*
X53597Y-46906D02*
X53742Y-47052D01*
G54D27*
X53742Y-47052D02*
X54567Y-47052D01*
X55241Y-47052D02*
X55527Y-46766D01*
X55527Y-46766D02*
X55527Y-45826D01*
X54567Y-47052D02*
X55241Y-47052D01*
X55527Y-45826D02*
X55502Y-45801D01*
X55502Y-45801D02*
X55092Y-45801D01*
X52355Y-47052D02*
X52204Y-46901D01*
X53742Y-47052D02*
X52355Y-47052D01*
X53742Y-56934D02*
X52355Y-56934D01*
X52355Y-56934D02*
X52204Y-56783D01*
X55502Y-55683D02*
X55092Y-55683D01*
X55527Y-55708D02*
X55502Y-55683D01*
X54567Y-56934D02*
X55241Y-56934D01*
X55527Y-56648D02*
X55527Y-55708D01*
X55241Y-56934D02*
X55527Y-56648D01*
X53742Y-56934D02*
X54567Y-56934D01*
G54D22*
X53597Y-56788D02*
X53742Y-56934D01*
M02*
