G04 (created by PCBNEW (2013-04-01 BZR 4056)-testing) date Tue 02 Apr 2013 12:46:50 AM CEST*
%MOIN*%
G04 Gerber Fmt 3.4, Leading zero omitted, Abs format*
%FSLAX34Y34*%
G01*
G70*
G90*
G04 APERTURE LIST*
%ADD10C,0.006*%
%ADD11C,0.019685*%
%ADD12R,0.0649606X0.0649606*%
%ADD13C,0.0649606*%
G04 APERTURE END LIST*
G54D10*
G54D11*
X54842Y-51948D03*
X54251Y-52637D03*
X55157Y-52637D03*
X54251Y-52047D03*
X54566Y-51948D03*
X55157Y-52047D03*
X54566Y-52736D03*
X54842Y-52736D03*
X60826Y-51948D03*
X60236Y-52637D03*
X61141Y-52637D03*
X60236Y-52047D03*
X60551Y-51948D03*
X61141Y-52047D03*
X60551Y-52736D03*
X60826Y-52736D03*
X60826Y-32185D03*
X60236Y-32874D03*
X61141Y-32874D03*
X60236Y-32283D03*
X60551Y-32185D03*
X61141Y-32283D03*
X60551Y-32972D03*
X60826Y-32972D03*
X54842Y-32185D03*
X54251Y-32874D03*
X55157Y-32874D03*
X54251Y-32283D03*
X54566Y-32185D03*
X55157Y-32283D03*
X54566Y-32972D03*
X54842Y-32972D03*
X54842Y-42066D03*
X54251Y-42755D03*
X55157Y-42755D03*
X54251Y-42165D03*
X54566Y-42066D03*
X55157Y-42165D03*
X54566Y-42854D03*
X54842Y-42854D03*
X60826Y-42066D03*
X60236Y-42755D03*
X61141Y-42755D03*
X60236Y-42165D03*
X60551Y-42066D03*
X61141Y-42165D03*
X60551Y-42854D03*
X60826Y-42854D03*
X29094Y-51948D03*
X28503Y-52637D03*
X29409Y-52637D03*
X28503Y-52047D03*
X28818Y-51948D03*
X29409Y-52047D03*
X28818Y-52736D03*
X29094Y-52736D03*
X35078Y-51948D03*
X34488Y-52637D03*
X35393Y-52637D03*
X34488Y-52047D03*
X34803Y-51948D03*
X35393Y-52047D03*
X34803Y-52736D03*
X35078Y-52736D03*
X35078Y-32185D03*
X34488Y-32874D03*
X35393Y-32874D03*
X34488Y-32283D03*
X34803Y-32185D03*
X35393Y-32283D03*
X34803Y-32972D03*
X35078Y-32972D03*
X29094Y-32185D03*
X28503Y-32874D03*
X29409Y-32874D03*
X28503Y-32283D03*
X28818Y-32185D03*
X29409Y-32283D03*
X28818Y-32972D03*
X29094Y-32972D03*
X29094Y-42066D03*
X28503Y-42755D03*
X29409Y-42755D03*
X28503Y-42165D03*
X28818Y-42066D03*
X29409Y-42165D03*
X28818Y-42854D03*
X29094Y-42854D03*
X35078Y-42066D03*
X34488Y-42755D03*
X35393Y-42755D03*
X34488Y-42165D03*
X34803Y-42066D03*
X35393Y-42165D03*
X34803Y-42854D03*
X35078Y-42854D03*
X47952Y-42066D03*
X47362Y-42755D03*
X48267Y-42755D03*
X47362Y-42165D03*
X47677Y-42066D03*
X48267Y-42165D03*
X47677Y-42854D03*
X47952Y-42854D03*
X41968Y-42066D03*
X41377Y-42755D03*
X42283Y-42755D03*
X41377Y-42165D03*
X41692Y-42066D03*
X42283Y-42165D03*
X41692Y-42854D03*
X41968Y-42854D03*
X41968Y-32185D03*
X41377Y-32874D03*
X42283Y-32874D03*
X41377Y-32283D03*
X41692Y-32185D03*
X42283Y-32283D03*
X41692Y-32972D03*
X41968Y-32972D03*
X47952Y-32185D03*
X47362Y-32874D03*
X48267Y-32874D03*
X47362Y-32283D03*
X47677Y-32185D03*
X48267Y-32283D03*
X47677Y-32972D03*
X47952Y-32972D03*
X47952Y-51948D03*
X47362Y-52637D03*
X48267Y-52637D03*
X47362Y-52047D03*
X47677Y-51948D03*
X48267Y-52047D03*
X47677Y-52736D03*
X47952Y-52736D03*
X41968Y-51948D03*
X41377Y-52637D03*
X42283Y-52637D03*
X41377Y-52047D03*
X41692Y-51948D03*
X42283Y-52047D03*
X41692Y-52736D03*
X41968Y-52736D03*
G54D12*
X39330Y-56783D03*
G54D13*
X39330Y-57783D03*
G54D12*
X39318Y-53283D03*
G54D13*
X40318Y-53283D03*
X41318Y-53283D03*
X42318Y-53283D03*
X43318Y-53283D03*
X44318Y-53283D03*
X45318Y-53283D03*
X46318Y-53283D03*
X47318Y-53283D03*
X48318Y-53283D03*
X49318Y-53283D03*
X50318Y-53283D03*
G54D12*
X39318Y-61283D03*
G54D13*
X40318Y-61283D03*
X41318Y-61283D03*
X42318Y-61283D03*
X43318Y-61283D03*
X44318Y-61283D03*
X45318Y-61283D03*
X46318Y-61283D03*
X47318Y-61283D03*
X48318Y-61283D03*
X49318Y-61283D03*
X50318Y-61283D03*
G54D12*
X39318Y-51401D03*
G54D13*
X40318Y-51401D03*
X41318Y-51401D03*
X42318Y-51401D03*
X43318Y-51401D03*
X44318Y-51401D03*
X45318Y-51401D03*
X46318Y-51401D03*
X47318Y-51401D03*
X48318Y-51401D03*
X49318Y-51401D03*
X50318Y-51401D03*
G54D12*
X39318Y-43401D03*
G54D13*
X40318Y-43401D03*
X41318Y-43401D03*
X42318Y-43401D03*
X43318Y-43401D03*
X44318Y-43401D03*
X45318Y-43401D03*
X46318Y-43401D03*
X47318Y-43401D03*
X48318Y-43401D03*
X49318Y-43401D03*
X50318Y-43401D03*
G54D12*
X39330Y-46901D03*
G54D13*
X39330Y-47901D03*
G54D12*
X39330Y-27137D03*
G54D13*
X39330Y-28137D03*
G54D12*
X39318Y-23637D03*
G54D13*
X40318Y-23637D03*
X41318Y-23637D03*
X42318Y-23637D03*
X43318Y-23637D03*
X44318Y-23637D03*
X45318Y-23637D03*
X46318Y-23637D03*
X47318Y-23637D03*
X48318Y-23637D03*
X49318Y-23637D03*
X50318Y-23637D03*
G54D12*
X39318Y-31637D03*
G54D13*
X40318Y-31637D03*
X41318Y-31637D03*
X42318Y-31637D03*
X43318Y-31637D03*
X44318Y-31637D03*
X45318Y-31637D03*
X46318Y-31637D03*
X47318Y-31637D03*
X48318Y-31637D03*
X49318Y-31637D03*
X50318Y-31637D03*
G54D12*
X39318Y-41519D03*
G54D13*
X40318Y-41519D03*
X41318Y-41519D03*
X42318Y-41519D03*
X43318Y-41519D03*
X44318Y-41519D03*
X45318Y-41519D03*
X46318Y-41519D03*
X47318Y-41519D03*
X48318Y-41519D03*
X49318Y-41519D03*
X50318Y-41519D03*
G54D12*
X39318Y-33519D03*
G54D13*
X40318Y-33519D03*
X41318Y-33519D03*
X42318Y-33519D03*
X43318Y-33519D03*
X44318Y-33519D03*
X45318Y-33519D03*
X46318Y-33519D03*
X47318Y-33519D03*
X48318Y-33519D03*
X49318Y-33519D03*
X50318Y-33519D03*
G54D12*
X39330Y-37019D03*
G54D13*
X39330Y-38019D03*
G54D12*
X26456Y-37019D03*
G54D13*
X26456Y-38019D03*
G54D12*
X26444Y-33519D03*
G54D13*
X27444Y-33519D03*
X28444Y-33519D03*
X29444Y-33519D03*
X30444Y-33519D03*
X31444Y-33519D03*
X32444Y-33519D03*
X33444Y-33519D03*
X34444Y-33519D03*
X35444Y-33519D03*
X36444Y-33519D03*
X37444Y-33519D03*
G54D12*
X26444Y-41519D03*
G54D13*
X27444Y-41519D03*
X28444Y-41519D03*
X29444Y-41519D03*
X30444Y-41519D03*
X31444Y-41519D03*
X32444Y-41519D03*
X33444Y-41519D03*
X34444Y-41519D03*
X35444Y-41519D03*
X36444Y-41519D03*
X37444Y-41519D03*
G54D12*
X26444Y-31637D03*
G54D13*
X27444Y-31637D03*
X28444Y-31637D03*
X29444Y-31637D03*
X30444Y-31637D03*
X31444Y-31637D03*
X32444Y-31637D03*
X33444Y-31637D03*
X34444Y-31637D03*
X35444Y-31637D03*
X36444Y-31637D03*
X37444Y-31637D03*
G54D12*
X26444Y-23637D03*
G54D13*
X27444Y-23637D03*
X28444Y-23637D03*
X29444Y-23637D03*
X30444Y-23637D03*
X31444Y-23637D03*
X32444Y-23637D03*
X33444Y-23637D03*
X34444Y-23637D03*
X35444Y-23637D03*
X36444Y-23637D03*
X37444Y-23637D03*
G54D12*
X26456Y-27137D03*
G54D13*
X26456Y-28137D03*
G54D12*
X26456Y-46901D03*
G54D13*
X26456Y-47901D03*
G54D12*
X26444Y-43401D03*
G54D13*
X27444Y-43401D03*
X28444Y-43401D03*
X29444Y-43401D03*
X30444Y-43401D03*
X31444Y-43401D03*
X32444Y-43401D03*
X33444Y-43401D03*
X34444Y-43401D03*
X35444Y-43401D03*
X36444Y-43401D03*
X37444Y-43401D03*
G54D12*
X26444Y-51401D03*
G54D13*
X27444Y-51401D03*
X28444Y-51401D03*
X29444Y-51401D03*
X30444Y-51401D03*
X31444Y-51401D03*
X32444Y-51401D03*
X33444Y-51401D03*
X34444Y-51401D03*
X35444Y-51401D03*
X36444Y-51401D03*
X37444Y-51401D03*
G54D12*
X26444Y-61283D03*
G54D13*
X27444Y-61283D03*
X28444Y-61283D03*
X29444Y-61283D03*
X30444Y-61283D03*
X31444Y-61283D03*
X32444Y-61283D03*
X33444Y-61283D03*
X34444Y-61283D03*
X35444Y-61283D03*
X36444Y-61283D03*
X37444Y-61283D03*
G54D12*
X26444Y-53283D03*
G54D13*
X27444Y-53283D03*
X28444Y-53283D03*
X29444Y-53283D03*
X30444Y-53283D03*
X31444Y-53283D03*
X32444Y-53283D03*
X33444Y-53283D03*
X34444Y-53283D03*
X35444Y-53283D03*
X36444Y-53283D03*
X37444Y-53283D03*
G54D12*
X26456Y-56783D03*
G54D13*
X26456Y-57783D03*
G54D12*
X52204Y-37019D03*
G54D13*
X52204Y-38019D03*
G54D12*
X52192Y-33519D03*
G54D13*
X53192Y-33519D03*
X54192Y-33519D03*
X55192Y-33519D03*
X56192Y-33519D03*
X57192Y-33519D03*
X58192Y-33519D03*
X59192Y-33519D03*
X60192Y-33519D03*
X61192Y-33519D03*
X62192Y-33519D03*
X63192Y-33519D03*
G54D12*
X52192Y-41519D03*
G54D13*
X53192Y-41519D03*
X54192Y-41519D03*
X55192Y-41519D03*
X56192Y-41519D03*
X57192Y-41519D03*
X58192Y-41519D03*
X59192Y-41519D03*
X60192Y-41519D03*
X61192Y-41519D03*
X62192Y-41519D03*
X63192Y-41519D03*
G54D12*
X52192Y-31637D03*
G54D13*
X53192Y-31637D03*
X54192Y-31637D03*
X55192Y-31637D03*
X56192Y-31637D03*
X57192Y-31637D03*
X58192Y-31637D03*
X59192Y-31637D03*
X60192Y-31637D03*
X61192Y-31637D03*
X62192Y-31637D03*
X63192Y-31637D03*
G54D12*
X52192Y-23637D03*
G54D13*
X53192Y-23637D03*
X54192Y-23637D03*
X55192Y-23637D03*
X56192Y-23637D03*
X57192Y-23637D03*
X58192Y-23637D03*
X59192Y-23637D03*
X60192Y-23637D03*
X61192Y-23637D03*
X62192Y-23637D03*
X63192Y-23637D03*
G54D12*
X52204Y-27137D03*
G54D13*
X52204Y-28137D03*
G54D12*
X52204Y-46901D03*
G54D13*
X52204Y-47901D03*
G54D12*
X52192Y-43401D03*
G54D13*
X53192Y-43401D03*
X54192Y-43401D03*
X55192Y-43401D03*
X56192Y-43401D03*
X57192Y-43401D03*
X58192Y-43401D03*
X59192Y-43401D03*
X60192Y-43401D03*
X61192Y-43401D03*
X62192Y-43401D03*
X63192Y-43401D03*
G54D12*
X52192Y-51401D03*
G54D13*
X53192Y-51401D03*
X54192Y-51401D03*
X55192Y-51401D03*
X56192Y-51401D03*
X57192Y-51401D03*
X58192Y-51401D03*
X59192Y-51401D03*
X60192Y-51401D03*
X61192Y-51401D03*
X62192Y-51401D03*
X63192Y-51401D03*
G54D12*
X52192Y-61283D03*
G54D13*
X53192Y-61283D03*
X54192Y-61283D03*
X55192Y-61283D03*
X56192Y-61283D03*
X57192Y-61283D03*
X58192Y-61283D03*
X59192Y-61283D03*
X60192Y-61283D03*
X61192Y-61283D03*
X62192Y-61283D03*
X63192Y-61283D03*
G54D12*
X52192Y-53283D03*
G54D13*
X53192Y-53283D03*
X54192Y-53283D03*
X55192Y-53283D03*
X56192Y-53283D03*
X57192Y-53283D03*
X58192Y-53283D03*
X59192Y-53283D03*
X60192Y-53283D03*
X61192Y-53283D03*
X62192Y-53283D03*
X63192Y-53283D03*
G54D12*
X52204Y-56783D03*
G54D13*
X52204Y-57783D03*
M02*
