G04 (created by PCBNEW (2013-04-03 BZR 4062)-testing) date Thu 04 Apr 2013 12:57:26 AM CEST*
%MOIN*%
G04 Gerber Fmt 3.4, Leading zero omitted, Abs format*
%FSLAX34Y34*%
G01*
G70*
G90*
G04 APERTURE LIST*
%ADD10C,0.006*%
%ADD11C,0.0393701*%
G04 APERTURE END LIST*
G54D10*
G54D11*
X29547Y-32578D02*
X34350Y-32578D01*
X35531Y-32578D02*
X41240Y-32578D01*
X42421Y-32578D02*
X47224Y-32578D01*
X48405Y-32578D02*
X54114Y-32578D01*
X55295Y-32578D02*
X60098Y-32578D01*
X61279Y-32578D02*
X64133Y-32578D01*
X28366Y-32578D02*
X25511Y-32578D01*
X28366Y-42460D02*
X25511Y-42460D01*
X55295Y-42460D02*
X60098Y-42460D01*
X48405Y-42460D02*
X54114Y-42460D01*
X42421Y-42460D02*
X47224Y-42460D01*
X35531Y-42460D02*
X41240Y-42460D01*
X29547Y-42460D02*
X34350Y-42460D01*
X61279Y-42460D02*
X64133Y-42460D01*
X61279Y-52342D02*
X64133Y-52342D01*
X29547Y-52342D02*
X34350Y-52342D01*
X35531Y-52342D02*
X41240Y-52342D01*
X42421Y-52342D02*
X47224Y-52342D01*
X48405Y-52342D02*
X54114Y-52342D01*
X55295Y-52342D02*
X60098Y-52342D01*
X28366Y-52342D02*
X25511Y-52342D01*
X64133Y-22696D02*
X64133Y-62224D01*
X64133Y-62224D02*
X25511Y-62224D01*
X25511Y-62224D02*
X25511Y-22696D01*
X25511Y-22696D02*
X64133Y-22696D01*
X28366Y-52342D02*
X28366Y-52342D01*
X29547Y-52342D02*
X29547Y-52342D01*
X34350Y-52342D02*
X34350Y-52342D01*
X35531Y-52342D02*
X35531Y-52342D01*
X34350Y-32578D02*
X34350Y-32578D01*
X35531Y-32578D02*
X35531Y-32578D01*
X28366Y-32578D02*
X28366Y-32578D01*
X29547Y-32578D02*
X29547Y-32578D01*
X28366Y-42460D02*
X28366Y-42460D01*
X29547Y-42460D02*
X29547Y-42460D01*
X34350Y-42460D02*
X34350Y-42460D01*
X35531Y-42460D02*
X35531Y-42460D01*
X47224Y-42460D02*
X47224Y-42460D01*
X48405Y-42460D02*
X48405Y-42460D01*
X41240Y-42460D02*
X41240Y-42460D01*
X42421Y-42460D02*
X42421Y-42460D01*
X41240Y-32578D02*
X41240Y-32578D01*
X42421Y-32578D02*
X42421Y-32578D01*
X47224Y-32578D02*
X47224Y-32578D01*
X48405Y-32578D02*
X48405Y-32578D01*
X47224Y-52342D02*
X47224Y-52342D01*
X48405Y-52342D02*
X48405Y-52342D01*
X41240Y-52342D02*
X41240Y-52342D01*
X42421Y-52342D02*
X42421Y-52342D01*
X54114Y-52342D02*
X54114Y-52342D01*
X55295Y-52342D02*
X55295Y-52342D01*
X60098Y-52342D02*
X60098Y-52342D01*
X61279Y-52342D02*
X61279Y-52342D01*
X60098Y-32578D02*
X60098Y-32578D01*
X61279Y-32578D02*
X61279Y-32578D01*
X54114Y-32578D02*
X54114Y-32578D01*
X55295Y-32578D02*
X55295Y-32578D01*
X54114Y-42460D02*
X54114Y-42460D01*
X55295Y-42460D02*
X55295Y-42460D01*
X60098Y-42460D02*
X60098Y-42460D01*
X61279Y-42460D02*
X61279Y-42460D01*
M02*
