M48
METRIC,TZ
T1C0.330
T2C1.016
%
G90
G05
T1
X074536Y-066136
X074536Y-091236
X074536Y-116336
X074536Y-141436
X076700Y-067900
X076700Y-072400
X076700Y-093000
X076700Y-097500
X076700Y-118100
X076700Y-122600
X076700Y-143200
X076700Y-147700
X077700Y-067900
X077700Y-072400
X077700Y-093000
X077700Y-097500
X077700Y-118100
X077700Y-122600
X077700Y-143200
X077700Y-147700
X078700Y-067900
X078700Y-072400
X078700Y-093000
X078700Y-097500
X078700Y-118100
X078700Y-122600
X078700Y-143200
X078700Y-147700
X079700Y-067900
X079700Y-072400
X079700Y-093000
X079700Y-097500
X079700Y-118100
X079700Y-122600
X079700Y-143200
X079700Y-147700
X080700Y-067900
X080700Y-072400
X080700Y-093000
X080700Y-097500
X080700Y-118100
X080700Y-122600
X080700Y-143200
X080700Y-147700
X081700Y-067900
X081700Y-072400
X081700Y-093000
X081700Y-097500
X081700Y-118100
X081700Y-122600
X081700Y-143200
X081700Y-147700
X082700Y-067900
X082700Y-072400
X082700Y-093000
X082700Y-097500
X082700Y-118100
X082700Y-122600
X082700Y-143200
X082700Y-147700
X083700Y-067900
X083700Y-072400
X083700Y-093000
X083700Y-097500
X083700Y-118100
X083700Y-122600
X083700Y-143200
X083700Y-147700
X084700Y-067900
X084700Y-072400
X084700Y-093000
X084700Y-097500
X084700Y-118100
X084700Y-122600
X084700Y-143200
X084700Y-147700
X085700Y-067900
X085700Y-072400
X085700Y-093000
X085700Y-097500
X085700Y-118100
X085700Y-122600
X085700Y-143200
X085700Y-147700
X087744Y-066263
X087744Y-091363
X087744Y-116463
X087744Y-141563
X087800Y-074300
X087800Y-099400
X087800Y-124500
X087800Y-149600
X088050Y-067950
X088050Y-072700
X088050Y-093050
X088050Y-097800
X088050Y-118150
X088050Y-122900
X088050Y-143250
X088050Y-148000
X107236Y-066136
X107236Y-091236
X107236Y-116336
X107236Y-141436
X109400Y-067900
X109400Y-072400
X109400Y-093000
X109400Y-097500
X109400Y-118100
X109400Y-122600
X109400Y-143200
X109400Y-147700
X110400Y-067900
X110400Y-072400
X110400Y-093000
X110400Y-097500
X110400Y-118100
X110400Y-122600
X110400Y-143200
X110400Y-147700
X111400Y-067900
X111400Y-072400
X111400Y-093000
X111400Y-097500
X111400Y-118100
X111400Y-122600
X111400Y-143200
X111400Y-147700
X112400Y-067900
X112400Y-072400
X112400Y-093000
X112400Y-097500
X112400Y-118100
X112400Y-122600
X112400Y-143200
X112400Y-147700
X113400Y-067900
X113400Y-072400
X113400Y-093000
X113400Y-097500
X113400Y-118100
X113400Y-122600
X113400Y-143200
X113400Y-147700
X114400Y-067900
X114400Y-072400
X114400Y-093000
X114400Y-097500
X114400Y-118100
X114400Y-122600
X114400Y-143200
X114400Y-147700
X115400Y-067900
X115400Y-072400
X115400Y-093000
X115400Y-097500
X115400Y-118100
X115400Y-122600
X115400Y-143200
X115400Y-147700
X116400Y-067900
X116400Y-072400
X116400Y-093000
X116400Y-097500
X116400Y-118100
X116400Y-122600
X116400Y-143200
X116400Y-147700
X117400Y-067900
X117400Y-072400
X117400Y-093000
X117400Y-097500
X117400Y-118100
X117400Y-122600
X117400Y-143200
X117400Y-147700
X118400Y-067900
X118400Y-072400
X118400Y-093000
X118400Y-097500
X118400Y-118100
X118400Y-122600
X118400Y-143200
X118400Y-147700
X120444Y-066263
X120444Y-091363
X120444Y-116463
X120444Y-141563
X120500Y-074300
X120500Y-099400
X120500Y-124500
X120500Y-149600
X120750Y-067950
X120750Y-072700
X120750Y-093050
X120750Y-097800
X120750Y-118150
X120750Y-122900
X120750Y-143250
X120750Y-148000
X139936Y-066136
X139936Y-091236
X139936Y-116336
X139936Y-141436
X142100Y-067900
X142100Y-072400
X142100Y-093000
X142100Y-097500
X142100Y-118100
X142100Y-122600
X142100Y-143200
X142100Y-147700
X143100Y-067900
X143100Y-072400
X143100Y-093000
X143100Y-097500
X143100Y-118100
X143100Y-122600
X143100Y-143200
X143100Y-147700
X144100Y-067900
X144100Y-072400
X144100Y-093000
X144100Y-097500
X144100Y-118100
X144100Y-122600
X144100Y-143200
X144100Y-147700
X145100Y-067900
X145100Y-072400
X145100Y-093000
X145100Y-097500
X145100Y-118100
X145100Y-122600
X145100Y-143200
X145100Y-147700
X146100Y-067900
X146100Y-072400
X146100Y-093000
X146100Y-097500
X146100Y-118100
X146100Y-122600
X146100Y-143200
X146100Y-147700
X147100Y-067900
X147100Y-072400
X147100Y-093000
X147100Y-097500
X147100Y-118100
X147100Y-122600
X147100Y-143200
X147100Y-147700
X148100Y-067900
X148100Y-072400
X148100Y-093000
X148100Y-097500
X148100Y-118100
X148100Y-122600
X148100Y-143200
X148100Y-147700
X149100Y-067900
X149100Y-072400
X149100Y-093000
X149100Y-097500
X149100Y-118100
X149100Y-122600
X149100Y-143200
X149100Y-147700
X150100Y-067900
X150100Y-072400
X150100Y-093000
X150100Y-097500
X150100Y-118100
X150100Y-122600
X150100Y-143200
X150100Y-147700
X151100Y-067900
X151100Y-072400
X151100Y-093000
X151100Y-097500
X151100Y-118100
X151100Y-122600
X151100Y-143200
X151100Y-147700
X153144Y-066263
X153144Y-091363
X153144Y-116463
X153144Y-141563
X153200Y-074300
X153200Y-099400
X153200Y-124500
X153200Y-149600
X153450Y-067950
X153450Y-072700
X153450Y-093050
X153450Y-097800
X153450Y-118150
X153450Y-122900
X153450Y-143250
X153450Y-148000
T2
X067170Y-060040
X067170Y-080360
X067170Y-085140
X067170Y-105460
X067170Y-110240
X067170Y-130560
X067170Y-135340
X067170Y-155660
X067200Y-068930
X067200Y-071470
X067200Y-094030
X067200Y-096570
X067200Y-119130
X067200Y-121670
X067200Y-144230
X067200Y-146770
X069710Y-060040
X069710Y-080360
X069710Y-085140
X069710Y-105460
X069710Y-110240
X069710Y-130560
X069710Y-135340
X069710Y-155660
X072250Y-060040
X072250Y-080360
X072250Y-085140
X072250Y-105460
X072250Y-110240
X072250Y-130560
X072250Y-135340
X072250Y-155660
X074790Y-060040
X074790Y-080360
X074790Y-085140
X074790Y-105460
X074790Y-110240
X074790Y-130560
X074790Y-135340
X074790Y-155660
X077330Y-060040
X077330Y-080360
X077330Y-085140
X077330Y-105460
X077330Y-110240
X077330Y-130560
X077330Y-135340
X077330Y-155660
X079870Y-060040
X079870Y-080360
X079870Y-085140
X079870Y-105460
X079870Y-110240
X079870Y-130560
X079870Y-135340
X079870Y-155660
X082410Y-060040
X082410Y-080360
X082410Y-085140
X082410Y-105460
X082410Y-110240
X082410Y-130560
X082410Y-135340
X082410Y-155660
X084950Y-060040
X084950Y-080360
X084950Y-085140
X084950Y-105460
X084950Y-110240
X084950Y-130560
X084950Y-135340
X084950Y-155660
X087490Y-060040
X087490Y-080360
X087490Y-085140
X087490Y-105460
X087490Y-110240
X087490Y-130560
X087490Y-135340
X087490Y-155660
X090030Y-060040
X090030Y-080360
X090030Y-085140
X090030Y-105460
X090030Y-110240
X090030Y-130560
X090030Y-135340
X090030Y-155660
X092570Y-060040
X092570Y-080360
X092570Y-085140
X092570Y-105460
X092570Y-110240
X092570Y-130560
X092570Y-135340
X092570Y-155660
X095110Y-060040
X095110Y-080360
X095110Y-085140
X095110Y-105460
X095110Y-110240
X095110Y-130560
X095110Y-135340
X095110Y-155660
X099870Y-060040
X099870Y-080360
X099870Y-085140
X099870Y-105460
X099870Y-110240
X099870Y-130560
X099870Y-135340
X099870Y-155660
X099900Y-068930
X099900Y-071470
X099900Y-094030
X099900Y-096570
X099900Y-119130
X099900Y-121670
X099900Y-144230
X099900Y-146770
X102410Y-060040
X102410Y-080360
X102410Y-085140
X102410Y-105460
X102410Y-110240
X102410Y-130560
X102410Y-135340
X102410Y-155660
X104950Y-060040
X104950Y-080360
X104950Y-085140
X104950Y-105460
X104950Y-110240
X104950Y-130560
X104950Y-135340
X104950Y-155660
X107490Y-060040
X107490Y-080360
X107490Y-085140
X107490Y-105460
X107490Y-110240
X107490Y-130560
X107490Y-135340
X107490Y-155660
X110030Y-060040
X110030Y-080360
X110030Y-085140
X110030Y-105460
X110030Y-110240
X110030Y-130560
X110030Y-135340
X110030Y-155660
X112570Y-060040
X112570Y-080360
X112570Y-085140
X112570Y-105460
X112570Y-110240
X112570Y-130560
X112570Y-135340
X112570Y-155660
X115110Y-060040
X115110Y-080360
X115110Y-085140
X115110Y-105460
X115110Y-110240
X115110Y-130560
X115110Y-135340
X115110Y-155660
X117650Y-060040
X117650Y-080360
X117650Y-085140
X117650Y-105460
X117650Y-110240
X117650Y-130560
X117650Y-135340
X117650Y-155660
X120190Y-060040
X120190Y-080360
X120190Y-085140
X120190Y-105460
X120190Y-110240
X120190Y-130560
X120190Y-135340
X120190Y-155660
X122730Y-060040
X122730Y-080360
X122730Y-085140
X122730Y-105460
X122730Y-110240
X122730Y-130560
X122730Y-135340
X122730Y-155660
X125270Y-060040
X125270Y-080360
X125270Y-085140
X125270Y-105460
X125270Y-110240
X125270Y-130560
X125270Y-135340
X125270Y-155660
X127810Y-060040
X127810Y-080360
X127810Y-085140
X127810Y-105460
X127810Y-110240
X127810Y-130560
X127810Y-135340
X127810Y-155660
X132570Y-060040
X132570Y-080360
X132570Y-085140
X132570Y-105460
X132570Y-110240
X132570Y-130560
X132570Y-135340
X132570Y-155660
X132600Y-068930
X132600Y-071470
X132600Y-094030
X132600Y-096570
X132600Y-119130
X132600Y-121670
X132600Y-144230
X132600Y-146770
X135110Y-060040
X135110Y-080360
X135110Y-085140
X135110Y-105460
X135110Y-110240
X135110Y-130560
X135110Y-135340
X135110Y-155660
X137650Y-060040
X137650Y-080360
X137650Y-085140
X137650Y-105460
X137650Y-110240
X137650Y-130560
X137650Y-135340
X137650Y-155660
X140190Y-060040
X140190Y-080360
X140190Y-085140
X140190Y-105460
X140190Y-110240
X140190Y-130560
X140190Y-135340
X140190Y-155660
X142730Y-060040
X142730Y-080360
X142730Y-085140
X142730Y-105460
X142730Y-110240
X142730Y-130560
X142730Y-135340
X142730Y-155660
X145270Y-060040
X145270Y-080360
X145270Y-085140
X145270Y-105460
X145270Y-110240
X145270Y-130560
X145270Y-135340
X145270Y-155660
X147810Y-060040
X147810Y-080360
X147810Y-085140
X147810Y-105460
X147810Y-110240
X147810Y-130560
X147810Y-135340
X147810Y-155660
X150350Y-060040
X150350Y-080360
X150350Y-085140
X150350Y-105460
X150350Y-110240
X150350Y-130560
X150350Y-135340
X150350Y-155660
X152890Y-060040
X152890Y-080360
X152890Y-085140
X152890Y-105460
X152890Y-110240
X152890Y-130560
X152890Y-135340
X152890Y-155660
X155430Y-060040
X155430Y-080360
X155430Y-085140
X155430Y-105460
X155430Y-110240
X155430Y-130560
X155430Y-135340
X155430Y-155660
X157970Y-060040
X157970Y-080360
X157970Y-085140
X157970Y-105460
X157970Y-110240
X157970Y-130560
X157970Y-135340
X157970Y-155660
X160510Y-060040
X160510Y-080360
X160510Y-085140
X160510Y-105460
X160510Y-110240
X160510Y-130560
X160510Y-135340
X160510Y-155660
T0
M30
