M48
METRIC,TZ
T1C0.500
%
G90
G05
T1
X072400Y-082000
X072400Y-083500
X072400Y-107100
X072400Y-108600
X072400Y-132200
X072400Y-133700
X073200Y-081750
X073200Y-083750
X073200Y-106850
X073200Y-108850
X073200Y-131950
X073200Y-133950
X073900Y-081750
X073900Y-083750
X073900Y-106850
X073900Y-108850
X073900Y-131950
X073900Y-133950
X074700Y-082000
X074700Y-083500
X074700Y-107100
X074700Y-108600
X074700Y-132200
X074700Y-133700
X087600Y-082000
X087600Y-083500
X087600Y-107100
X087600Y-108600
X087600Y-132200
X087600Y-133700
X088400Y-081750
X088400Y-083750
X088400Y-106850
X088400Y-108850
X088400Y-131950
X088400Y-133950
X089100Y-081750
X089100Y-083750
X089100Y-106850
X089100Y-108850
X089100Y-131950
X089100Y-133950
X089900Y-082000
X089900Y-083500
X089900Y-107100
X089900Y-108600
X089900Y-132200
X089900Y-133700
X105100Y-082000
X105100Y-083500
X105100Y-107100
X105100Y-108600
X105100Y-132200
X105100Y-133700
X105900Y-081750
X105900Y-083750
X105900Y-106850
X105900Y-108850
X105900Y-131950
X105900Y-133950
X106600Y-081750
X106600Y-083750
X106600Y-106850
X106600Y-108850
X106600Y-131950
X106600Y-133950
X107400Y-082000
X107400Y-083500
X107400Y-107100
X107400Y-108600
X107400Y-132200
X107400Y-133700
X120300Y-082000
X120300Y-083500
X120300Y-107100
X120300Y-108600
X120300Y-132200
X120300Y-133700
X121100Y-081750
X121100Y-083750
X121100Y-106850
X121100Y-108850
X121100Y-131950
X121100Y-133950
X121800Y-081750
X121800Y-083750
X121800Y-106850
X121800Y-108850
X121800Y-131950
X121800Y-133950
X122600Y-082000
X122600Y-083500
X122600Y-107100
X122600Y-108600
X122600Y-132200
X122600Y-133700
X137800Y-082000
X137800Y-083500
X137800Y-107100
X137800Y-108600
X137800Y-132200
X137800Y-133700
X138600Y-081750
X138600Y-083750
X138600Y-106850
X138600Y-108850
X138600Y-131950
X138600Y-133950
X139300Y-081750
X139300Y-083750
X139300Y-106850
X139300Y-108850
X139300Y-131950
X139300Y-133950
X140100Y-082000
X140100Y-083500
X140100Y-107100
X140100Y-108600
X140100Y-132200
X140100Y-133700
X153000Y-082000
X153000Y-083500
X153000Y-107100
X153000Y-108600
X153000Y-132200
X153000Y-133700
X153800Y-081750
X153800Y-083750
X153800Y-106850
X153800Y-108850
X153800Y-131950
X153800Y-133950
X154500Y-081750
X154500Y-083750
X154500Y-106850
X154500Y-108850
X154500Y-131950
X154500Y-133950
X155300Y-082000
X155300Y-083500
X155300Y-107100
X155300Y-108600
X155300Y-132200
X155300Y-133700
T0
M30
