G04 (created by PCBNEW (2013-04-03 BZR 4062)-testing) date Fri 05 Apr 2013 04:05:24 PM CEST*
%MOIN*%
G04 Gerber Fmt 3.4, Leading zero omitted, Abs format*
%FSLAX34Y34*%
G01*
G70*
G90*
G04 APERTURE LIST*
%ADD10C,0.006*%
%ADD11R,0.0255906X0.0393701*%
%ADD12R,0.019685X0.0393701*%
%ADD13R,0.0314961X0.0433071*%
%ADD14R,0.0649606X0.0649606*%
%ADD15C,0.0649606*%
%ADD16R,0.0256X0.063*%
%ADD17R,0.0314X0.0314*%
%ADD18R,0.0472X0.0472*%
%ADD19R,0.063X0.0591*%
%ADD20R,0.059X0.0511*%
%ADD21C,0.019685*%
G04 APERTURE END LIST*
G54D10*
G54D11*
X36131Y-26771D03*
G54D12*
X35767Y-26771D03*
X35452Y-26771D03*
G54D11*
X35088Y-26771D03*
X36131Y-26062D03*
G54D12*
X35767Y-26062D03*
X35452Y-26062D03*
G54D11*
X35088Y-26062D03*
X37667Y-26240D03*
G54D12*
X37303Y-26240D03*
X36988Y-26240D03*
G54D11*
X36624Y-26240D03*
X37667Y-25531D03*
G54D12*
X37303Y-25531D03*
X36988Y-25531D03*
G54D11*
X36624Y-25531D03*
X36624Y-29035D03*
G54D12*
X36988Y-29035D03*
X37303Y-29035D03*
G54D11*
X37667Y-29035D03*
X36624Y-29744D03*
G54D12*
X36988Y-29744D03*
X37303Y-29744D03*
G54D11*
X37667Y-29744D03*
X35088Y-28622D03*
G54D12*
X35452Y-28622D03*
X35767Y-28622D03*
G54D11*
X36131Y-28622D03*
X35088Y-29330D03*
G54D12*
X35452Y-29330D03*
X35767Y-29330D03*
G54D11*
X36131Y-29330D03*
G54D13*
X30740Y-24537D03*
X30150Y-24537D03*
G54D14*
X26456Y-27137D03*
G54D15*
X26456Y-28137D03*
G54D14*
X26444Y-23637D03*
G54D15*
X27444Y-23637D03*
X28444Y-23637D03*
X29444Y-23637D03*
X30444Y-23637D03*
X31444Y-23637D03*
X32444Y-23637D03*
X33444Y-23637D03*
X34444Y-23637D03*
X35444Y-23637D03*
X36444Y-23637D03*
X37444Y-23637D03*
G54D14*
X26444Y-31637D03*
G54D15*
X27444Y-31637D03*
X28444Y-31637D03*
X29444Y-31637D03*
X30444Y-31637D03*
X31444Y-31637D03*
X32444Y-31637D03*
X33444Y-31637D03*
X34444Y-31637D03*
X35444Y-31637D03*
X36444Y-31637D03*
X37444Y-31637D03*
G54D16*
X29779Y-29212D03*
X30172Y-29212D03*
X30566Y-29212D03*
X30960Y-29212D03*
X31353Y-29212D03*
X31747Y-29212D03*
X32141Y-29212D03*
X32535Y-29212D03*
X32928Y-29212D03*
X33322Y-29212D03*
X33716Y-29212D03*
X34109Y-29212D03*
X34109Y-26062D03*
X33716Y-26062D03*
X33322Y-26062D03*
X32928Y-26062D03*
X32535Y-26062D03*
X32141Y-26062D03*
X31747Y-26062D03*
X31353Y-26062D03*
X30960Y-26062D03*
X30566Y-26062D03*
X30172Y-26062D03*
X29779Y-26062D03*
G54D17*
X35492Y-27615D03*
X34902Y-27615D03*
G54D18*
X37539Y-26968D03*
X36751Y-26968D03*
G54D19*
X37145Y-28248D03*
G54D20*
X27994Y-27288D03*
X27994Y-28036D03*
X28819Y-27288D03*
X28819Y-28036D03*
G54D13*
X35740Y-30737D03*
X35150Y-30737D03*
X34740Y-30737D03*
X34150Y-30737D03*
X36740Y-30737D03*
X36150Y-30737D03*
X33740Y-30737D03*
X33150Y-30737D03*
X32740Y-30737D03*
X32150Y-30737D03*
X31740Y-30737D03*
X31150Y-30737D03*
X30740Y-30737D03*
X30150Y-30737D03*
X37740Y-30737D03*
X37150Y-30737D03*
X37740Y-24537D03*
X37150Y-24537D03*
X36740Y-24537D03*
X36150Y-24537D03*
X35740Y-24537D03*
X35150Y-24537D03*
X34740Y-24537D03*
X34150Y-24537D03*
X31740Y-24537D03*
X31150Y-24537D03*
X33740Y-24537D03*
X33150Y-24537D03*
X32740Y-24537D03*
X32150Y-24537D03*
X32740Y-34419D03*
X32150Y-34419D03*
X33740Y-34419D03*
X33150Y-34419D03*
X31740Y-34419D03*
X31150Y-34419D03*
X34740Y-34419D03*
X34150Y-34419D03*
X35740Y-34419D03*
X35150Y-34419D03*
X36740Y-34419D03*
X36150Y-34419D03*
X37740Y-34419D03*
X37150Y-34419D03*
X37740Y-40619D03*
X37150Y-40619D03*
X30740Y-40619D03*
X30150Y-40619D03*
X31740Y-40619D03*
X31150Y-40619D03*
X32740Y-40619D03*
X32150Y-40619D03*
X33740Y-40619D03*
X33150Y-40619D03*
X36740Y-40619D03*
X36150Y-40619D03*
X34740Y-40619D03*
X34150Y-40619D03*
X35740Y-40619D03*
X35150Y-40619D03*
G54D20*
X28819Y-37170D03*
X28819Y-37918D03*
X27994Y-37170D03*
X27994Y-37918D03*
G54D18*
X37539Y-36850D03*
X36751Y-36850D03*
G54D19*
X37145Y-38130D03*
G54D17*
X35492Y-37497D03*
X34902Y-37497D03*
G54D16*
X29779Y-39094D03*
X30172Y-39094D03*
X30566Y-39094D03*
X30960Y-39094D03*
X31353Y-39094D03*
X31747Y-39094D03*
X32141Y-39094D03*
X32535Y-39094D03*
X32928Y-39094D03*
X33322Y-39094D03*
X33716Y-39094D03*
X34109Y-39094D03*
X34109Y-35944D03*
X33716Y-35944D03*
X33322Y-35944D03*
X32928Y-35944D03*
X32535Y-35944D03*
X32141Y-35944D03*
X31747Y-35944D03*
X31353Y-35944D03*
X30960Y-35944D03*
X30566Y-35944D03*
X30172Y-35944D03*
X29779Y-35944D03*
G54D14*
X26444Y-41519D03*
G54D15*
X27444Y-41519D03*
X28444Y-41519D03*
X29444Y-41519D03*
X30444Y-41519D03*
X31444Y-41519D03*
X32444Y-41519D03*
X33444Y-41519D03*
X34444Y-41519D03*
X35444Y-41519D03*
X36444Y-41519D03*
X37444Y-41519D03*
G54D14*
X26444Y-33519D03*
G54D15*
X27444Y-33519D03*
X28444Y-33519D03*
X29444Y-33519D03*
X30444Y-33519D03*
X31444Y-33519D03*
X32444Y-33519D03*
X33444Y-33519D03*
X34444Y-33519D03*
X35444Y-33519D03*
X36444Y-33519D03*
X37444Y-33519D03*
G54D14*
X26456Y-37019D03*
G54D15*
X26456Y-38019D03*
G54D13*
X30740Y-34419D03*
X30150Y-34419D03*
G54D11*
X35088Y-38503D03*
G54D12*
X35452Y-38503D03*
X35767Y-38503D03*
G54D11*
X36131Y-38503D03*
X35088Y-39212D03*
G54D12*
X35452Y-39212D03*
X35767Y-39212D03*
G54D11*
X36131Y-39212D03*
X36624Y-38917D03*
G54D12*
X36988Y-38917D03*
X37303Y-38917D03*
G54D11*
X37667Y-38917D03*
X36624Y-39625D03*
G54D12*
X36988Y-39625D03*
X37303Y-39625D03*
G54D11*
X37667Y-39625D03*
X37667Y-36122D03*
G54D12*
X37303Y-36122D03*
X36988Y-36122D03*
G54D11*
X36624Y-36122D03*
X37667Y-35413D03*
G54D12*
X37303Y-35413D03*
X36988Y-35413D03*
G54D11*
X36624Y-35413D03*
X36131Y-36653D03*
G54D12*
X35767Y-36653D03*
X35452Y-36653D03*
G54D11*
X35088Y-36653D03*
X36131Y-35944D03*
G54D12*
X35767Y-35944D03*
X35452Y-35944D03*
G54D11*
X35088Y-35944D03*
X36131Y-46535D03*
G54D12*
X35767Y-46535D03*
X35452Y-46535D03*
G54D11*
X35088Y-46535D03*
X36131Y-45826D03*
G54D12*
X35767Y-45826D03*
X35452Y-45826D03*
G54D11*
X35088Y-45826D03*
X37667Y-46003D03*
G54D12*
X37303Y-46003D03*
X36988Y-46003D03*
G54D11*
X36624Y-46003D03*
X37667Y-45295D03*
G54D12*
X37303Y-45295D03*
X36988Y-45295D03*
G54D11*
X36624Y-45295D03*
X36624Y-48799D03*
G54D12*
X36988Y-48799D03*
X37303Y-48799D03*
G54D11*
X37667Y-48799D03*
X36624Y-49507D03*
G54D12*
X36988Y-49507D03*
X37303Y-49507D03*
G54D11*
X37667Y-49507D03*
X35088Y-48385D03*
G54D12*
X35452Y-48385D03*
X35767Y-48385D03*
G54D11*
X36131Y-48385D03*
X35088Y-49094D03*
G54D12*
X35452Y-49094D03*
X35767Y-49094D03*
G54D11*
X36131Y-49094D03*
G54D13*
X30740Y-44301D03*
X30150Y-44301D03*
G54D14*
X26456Y-46901D03*
G54D15*
X26456Y-47901D03*
G54D14*
X26444Y-43401D03*
G54D15*
X27444Y-43401D03*
X28444Y-43401D03*
X29444Y-43401D03*
X30444Y-43401D03*
X31444Y-43401D03*
X32444Y-43401D03*
X33444Y-43401D03*
X34444Y-43401D03*
X35444Y-43401D03*
X36444Y-43401D03*
X37444Y-43401D03*
G54D14*
X26444Y-51401D03*
G54D15*
X27444Y-51401D03*
X28444Y-51401D03*
X29444Y-51401D03*
X30444Y-51401D03*
X31444Y-51401D03*
X32444Y-51401D03*
X33444Y-51401D03*
X34444Y-51401D03*
X35444Y-51401D03*
X36444Y-51401D03*
X37444Y-51401D03*
G54D16*
X29779Y-48976D03*
X30172Y-48976D03*
X30566Y-48976D03*
X30960Y-48976D03*
X31353Y-48976D03*
X31747Y-48976D03*
X32141Y-48976D03*
X32535Y-48976D03*
X32928Y-48976D03*
X33322Y-48976D03*
X33716Y-48976D03*
X34109Y-48976D03*
X34109Y-45826D03*
X33716Y-45826D03*
X33322Y-45826D03*
X32928Y-45826D03*
X32535Y-45826D03*
X32141Y-45826D03*
X31747Y-45826D03*
X31353Y-45826D03*
X30960Y-45826D03*
X30566Y-45826D03*
X30172Y-45826D03*
X29779Y-45826D03*
G54D17*
X35492Y-47378D03*
X34902Y-47378D03*
G54D18*
X37539Y-46731D03*
X36751Y-46731D03*
G54D19*
X37145Y-48011D03*
G54D20*
X27994Y-47052D03*
X27994Y-47800D03*
X28819Y-47052D03*
X28819Y-47800D03*
G54D13*
X35740Y-50501D03*
X35150Y-50501D03*
X34740Y-50501D03*
X34150Y-50501D03*
X36740Y-50501D03*
X36150Y-50501D03*
X33740Y-50501D03*
X33150Y-50501D03*
X32740Y-50501D03*
X32150Y-50501D03*
X31740Y-50501D03*
X31150Y-50501D03*
X30740Y-50501D03*
X30150Y-50501D03*
X37740Y-50501D03*
X37150Y-50501D03*
X37740Y-44301D03*
X37150Y-44301D03*
X36740Y-44301D03*
X36150Y-44301D03*
X35740Y-44301D03*
X35150Y-44301D03*
X34740Y-44301D03*
X34150Y-44301D03*
X31740Y-44301D03*
X31150Y-44301D03*
X33740Y-44301D03*
X33150Y-44301D03*
X32740Y-44301D03*
X32150Y-44301D03*
X32740Y-54183D03*
X32150Y-54183D03*
X33740Y-54183D03*
X33150Y-54183D03*
X31740Y-54183D03*
X31150Y-54183D03*
X34740Y-54183D03*
X34150Y-54183D03*
X35740Y-54183D03*
X35150Y-54183D03*
X36740Y-54183D03*
X36150Y-54183D03*
X37740Y-54183D03*
X37150Y-54183D03*
X37740Y-60383D03*
X37150Y-60383D03*
X30740Y-60383D03*
X30150Y-60383D03*
X31740Y-60383D03*
X31150Y-60383D03*
X32740Y-60383D03*
X32150Y-60383D03*
X33740Y-60383D03*
X33150Y-60383D03*
X36740Y-60383D03*
X36150Y-60383D03*
X34740Y-60383D03*
X34150Y-60383D03*
X35740Y-60383D03*
X35150Y-60383D03*
G54D20*
X28819Y-56934D03*
X28819Y-57682D03*
X27994Y-56934D03*
X27994Y-57682D03*
G54D18*
X37539Y-56613D03*
X36751Y-56613D03*
G54D19*
X37145Y-57893D03*
G54D17*
X35492Y-57260D03*
X34902Y-57260D03*
G54D16*
X29779Y-58858D03*
X30172Y-58858D03*
X30566Y-58858D03*
X30960Y-58858D03*
X31353Y-58858D03*
X31747Y-58858D03*
X32141Y-58858D03*
X32535Y-58858D03*
X32928Y-58858D03*
X33322Y-58858D03*
X33716Y-58858D03*
X34109Y-58858D03*
X34109Y-55708D03*
X33716Y-55708D03*
X33322Y-55708D03*
X32928Y-55708D03*
X32535Y-55708D03*
X32141Y-55708D03*
X31747Y-55708D03*
X31353Y-55708D03*
X30960Y-55708D03*
X30566Y-55708D03*
X30172Y-55708D03*
X29779Y-55708D03*
G54D14*
X26444Y-61283D03*
G54D15*
X27444Y-61283D03*
X28444Y-61283D03*
X29444Y-61283D03*
X30444Y-61283D03*
X31444Y-61283D03*
X32444Y-61283D03*
X33444Y-61283D03*
X34444Y-61283D03*
X35444Y-61283D03*
X36444Y-61283D03*
X37444Y-61283D03*
G54D14*
X26444Y-53283D03*
G54D15*
X27444Y-53283D03*
X28444Y-53283D03*
X29444Y-53283D03*
X30444Y-53283D03*
X31444Y-53283D03*
X32444Y-53283D03*
X33444Y-53283D03*
X34444Y-53283D03*
X35444Y-53283D03*
X36444Y-53283D03*
X37444Y-53283D03*
G54D14*
X26456Y-56783D03*
G54D15*
X26456Y-57783D03*
G54D13*
X30740Y-54183D03*
X30150Y-54183D03*
G54D11*
X35088Y-58267D03*
G54D12*
X35452Y-58267D03*
X35767Y-58267D03*
G54D11*
X36131Y-58267D03*
X35088Y-58976D03*
G54D12*
X35452Y-58976D03*
X35767Y-58976D03*
G54D11*
X36131Y-58976D03*
X36624Y-58681D03*
G54D12*
X36988Y-58681D03*
X37303Y-58681D03*
G54D11*
X37667Y-58681D03*
X36624Y-59389D03*
G54D12*
X36988Y-59389D03*
X37303Y-59389D03*
G54D11*
X37667Y-59389D03*
X37667Y-55885D03*
G54D12*
X37303Y-55885D03*
X36988Y-55885D03*
G54D11*
X36624Y-55885D03*
X37667Y-55177D03*
G54D12*
X37303Y-55177D03*
X36988Y-55177D03*
G54D11*
X36624Y-55177D03*
X36131Y-56417D03*
G54D12*
X35767Y-56417D03*
X35452Y-56417D03*
G54D11*
X35088Y-56417D03*
X36131Y-55708D03*
G54D12*
X35767Y-55708D03*
X35452Y-55708D03*
G54D11*
X35088Y-55708D03*
G54D21*
X29094Y-51948D03*
X28503Y-52637D03*
X29409Y-52637D03*
X28503Y-52047D03*
X28818Y-51948D03*
X29409Y-52047D03*
X28818Y-52736D03*
X29094Y-52736D03*
X35078Y-51948D03*
X34488Y-52637D03*
X35393Y-52637D03*
X34488Y-52047D03*
X34803Y-51948D03*
X35393Y-52047D03*
X34803Y-52736D03*
X35078Y-52736D03*
X35078Y-32185D03*
X34488Y-32874D03*
X35393Y-32874D03*
X34488Y-32283D03*
X34803Y-32185D03*
X35393Y-32283D03*
X34803Y-32972D03*
X35078Y-32972D03*
X29094Y-32185D03*
X28503Y-32874D03*
X29409Y-32874D03*
X28503Y-32283D03*
X28818Y-32185D03*
X29409Y-32283D03*
X28818Y-32972D03*
X29094Y-32972D03*
X29094Y-42066D03*
X28503Y-42755D03*
X29409Y-42755D03*
X28503Y-42165D03*
X28818Y-42066D03*
X29409Y-42165D03*
X28818Y-42854D03*
X29094Y-42854D03*
X35078Y-42066D03*
X34488Y-42755D03*
X35393Y-42755D03*
X34488Y-42165D03*
X34803Y-42066D03*
X35393Y-42165D03*
X34803Y-42854D03*
X35078Y-42854D03*
X47952Y-42066D03*
X47362Y-42755D03*
X48267Y-42755D03*
X47362Y-42165D03*
X47677Y-42066D03*
X48267Y-42165D03*
X47677Y-42854D03*
X47952Y-42854D03*
X41968Y-42066D03*
X41377Y-42755D03*
X42283Y-42755D03*
X41377Y-42165D03*
X41692Y-42066D03*
X42283Y-42165D03*
X41692Y-42854D03*
X41968Y-42854D03*
X41968Y-32185D03*
X41377Y-32874D03*
X42283Y-32874D03*
X41377Y-32283D03*
X41692Y-32185D03*
X42283Y-32283D03*
X41692Y-32972D03*
X41968Y-32972D03*
X47952Y-32185D03*
X47362Y-32874D03*
X48267Y-32874D03*
X47362Y-32283D03*
X47677Y-32185D03*
X48267Y-32283D03*
X47677Y-32972D03*
X47952Y-32972D03*
X47952Y-51948D03*
X47362Y-52637D03*
X48267Y-52637D03*
X47362Y-52047D03*
X47677Y-51948D03*
X48267Y-52047D03*
X47677Y-52736D03*
X47952Y-52736D03*
X41968Y-51948D03*
X41377Y-52637D03*
X42283Y-52637D03*
X41377Y-52047D03*
X41692Y-51948D03*
X42283Y-52047D03*
X41692Y-52736D03*
X41968Y-52736D03*
G54D11*
X49005Y-56417D03*
G54D12*
X48641Y-56417D03*
X48326Y-56417D03*
G54D11*
X47962Y-56417D03*
X49005Y-55708D03*
G54D12*
X48641Y-55708D03*
X48326Y-55708D03*
G54D11*
X47962Y-55708D03*
X50541Y-55885D03*
G54D12*
X50177Y-55885D03*
X49862Y-55885D03*
G54D11*
X49498Y-55885D03*
X50541Y-55177D03*
G54D12*
X50177Y-55177D03*
X49862Y-55177D03*
G54D11*
X49498Y-55177D03*
X49498Y-58681D03*
G54D12*
X49862Y-58681D03*
X50177Y-58681D03*
G54D11*
X50541Y-58681D03*
X49498Y-59389D03*
G54D12*
X49862Y-59389D03*
X50177Y-59389D03*
G54D11*
X50541Y-59389D03*
X47962Y-58267D03*
G54D12*
X48326Y-58267D03*
X48641Y-58267D03*
G54D11*
X49005Y-58267D03*
X47962Y-58976D03*
G54D12*
X48326Y-58976D03*
X48641Y-58976D03*
G54D11*
X49005Y-58976D03*
G54D13*
X43614Y-54183D03*
X43024Y-54183D03*
G54D14*
X39330Y-56783D03*
G54D15*
X39330Y-57783D03*
G54D14*
X39318Y-53283D03*
G54D15*
X40318Y-53283D03*
X41318Y-53283D03*
X42318Y-53283D03*
X43318Y-53283D03*
X44318Y-53283D03*
X45318Y-53283D03*
X46318Y-53283D03*
X47318Y-53283D03*
X48318Y-53283D03*
X49318Y-53283D03*
X50318Y-53283D03*
G54D14*
X39318Y-61283D03*
G54D15*
X40318Y-61283D03*
X41318Y-61283D03*
X42318Y-61283D03*
X43318Y-61283D03*
X44318Y-61283D03*
X45318Y-61283D03*
X46318Y-61283D03*
X47318Y-61283D03*
X48318Y-61283D03*
X49318Y-61283D03*
X50318Y-61283D03*
G54D16*
X42653Y-58858D03*
X43046Y-58858D03*
X43440Y-58858D03*
X43834Y-58858D03*
X44227Y-58858D03*
X44621Y-58858D03*
X45015Y-58858D03*
X45409Y-58858D03*
X45802Y-58858D03*
X46196Y-58858D03*
X46590Y-58858D03*
X46983Y-58858D03*
X46983Y-55708D03*
X46590Y-55708D03*
X46196Y-55708D03*
X45802Y-55708D03*
X45409Y-55708D03*
X45015Y-55708D03*
X44621Y-55708D03*
X44227Y-55708D03*
X43834Y-55708D03*
X43440Y-55708D03*
X43046Y-55708D03*
X42653Y-55708D03*
G54D17*
X48366Y-57260D03*
X47776Y-57260D03*
G54D18*
X50413Y-56613D03*
X49625Y-56613D03*
G54D19*
X50019Y-57893D03*
G54D20*
X40868Y-56934D03*
X40868Y-57682D03*
X41693Y-56934D03*
X41693Y-57682D03*
G54D13*
X48614Y-60383D03*
X48024Y-60383D03*
X47614Y-60383D03*
X47024Y-60383D03*
X49614Y-60383D03*
X49024Y-60383D03*
X46614Y-60383D03*
X46024Y-60383D03*
X45614Y-60383D03*
X45024Y-60383D03*
X44614Y-60383D03*
X44024Y-60383D03*
X43614Y-60383D03*
X43024Y-60383D03*
X50614Y-60383D03*
X50024Y-60383D03*
X50614Y-54183D03*
X50024Y-54183D03*
X49614Y-54183D03*
X49024Y-54183D03*
X48614Y-54183D03*
X48024Y-54183D03*
X47614Y-54183D03*
X47024Y-54183D03*
X44614Y-54183D03*
X44024Y-54183D03*
X46614Y-54183D03*
X46024Y-54183D03*
X45614Y-54183D03*
X45024Y-54183D03*
X45614Y-44301D03*
X45024Y-44301D03*
X46614Y-44301D03*
X46024Y-44301D03*
X44614Y-44301D03*
X44024Y-44301D03*
X47614Y-44301D03*
X47024Y-44301D03*
X48614Y-44301D03*
X48024Y-44301D03*
X49614Y-44301D03*
X49024Y-44301D03*
X50614Y-44301D03*
X50024Y-44301D03*
X50614Y-50501D03*
X50024Y-50501D03*
X43614Y-50501D03*
X43024Y-50501D03*
X44614Y-50501D03*
X44024Y-50501D03*
X45614Y-50501D03*
X45024Y-50501D03*
X46614Y-50501D03*
X46024Y-50501D03*
X49614Y-50501D03*
X49024Y-50501D03*
X47614Y-50501D03*
X47024Y-50501D03*
X48614Y-50501D03*
X48024Y-50501D03*
G54D20*
X41693Y-47052D03*
X41693Y-47800D03*
X40868Y-47052D03*
X40868Y-47800D03*
G54D18*
X50413Y-46731D03*
X49625Y-46731D03*
G54D19*
X50019Y-48011D03*
G54D17*
X48366Y-47378D03*
X47776Y-47378D03*
G54D16*
X42653Y-48976D03*
X43046Y-48976D03*
X43440Y-48976D03*
X43834Y-48976D03*
X44227Y-48976D03*
X44621Y-48976D03*
X45015Y-48976D03*
X45409Y-48976D03*
X45802Y-48976D03*
X46196Y-48976D03*
X46590Y-48976D03*
X46983Y-48976D03*
X46983Y-45826D03*
X46590Y-45826D03*
X46196Y-45826D03*
X45802Y-45826D03*
X45409Y-45826D03*
X45015Y-45826D03*
X44621Y-45826D03*
X44227Y-45826D03*
X43834Y-45826D03*
X43440Y-45826D03*
X43046Y-45826D03*
X42653Y-45826D03*
G54D14*
X39318Y-51401D03*
G54D15*
X40318Y-51401D03*
X41318Y-51401D03*
X42318Y-51401D03*
X43318Y-51401D03*
X44318Y-51401D03*
X45318Y-51401D03*
X46318Y-51401D03*
X47318Y-51401D03*
X48318Y-51401D03*
X49318Y-51401D03*
X50318Y-51401D03*
G54D14*
X39318Y-43401D03*
G54D15*
X40318Y-43401D03*
X41318Y-43401D03*
X42318Y-43401D03*
X43318Y-43401D03*
X44318Y-43401D03*
X45318Y-43401D03*
X46318Y-43401D03*
X47318Y-43401D03*
X48318Y-43401D03*
X49318Y-43401D03*
X50318Y-43401D03*
G54D14*
X39330Y-46901D03*
G54D15*
X39330Y-47901D03*
G54D13*
X43614Y-44301D03*
X43024Y-44301D03*
G54D11*
X47962Y-48385D03*
G54D12*
X48326Y-48385D03*
X48641Y-48385D03*
G54D11*
X49005Y-48385D03*
X47962Y-49094D03*
G54D12*
X48326Y-49094D03*
X48641Y-49094D03*
G54D11*
X49005Y-49094D03*
X49498Y-48799D03*
G54D12*
X49862Y-48799D03*
X50177Y-48799D03*
G54D11*
X50541Y-48799D03*
X49498Y-49507D03*
G54D12*
X49862Y-49507D03*
X50177Y-49507D03*
G54D11*
X50541Y-49507D03*
X50541Y-46003D03*
G54D12*
X50177Y-46003D03*
X49862Y-46003D03*
G54D11*
X49498Y-46003D03*
X50541Y-45295D03*
G54D12*
X50177Y-45295D03*
X49862Y-45295D03*
G54D11*
X49498Y-45295D03*
X49005Y-46535D03*
G54D12*
X48641Y-46535D03*
X48326Y-46535D03*
G54D11*
X47962Y-46535D03*
X49005Y-45826D03*
G54D12*
X48641Y-45826D03*
X48326Y-45826D03*
G54D11*
X47962Y-45826D03*
X49005Y-36653D03*
G54D12*
X48641Y-36653D03*
X48326Y-36653D03*
G54D11*
X47962Y-36653D03*
X49005Y-35944D03*
G54D12*
X48641Y-35944D03*
X48326Y-35944D03*
G54D11*
X47962Y-35944D03*
X50541Y-36122D03*
G54D12*
X50177Y-36122D03*
X49862Y-36122D03*
G54D11*
X49498Y-36122D03*
X50541Y-35413D03*
G54D12*
X50177Y-35413D03*
X49862Y-35413D03*
G54D11*
X49498Y-35413D03*
X49498Y-38917D03*
G54D12*
X49862Y-38917D03*
X50177Y-38917D03*
G54D11*
X50541Y-38917D03*
X49498Y-39625D03*
G54D12*
X49862Y-39625D03*
X50177Y-39625D03*
G54D11*
X50541Y-39625D03*
X47962Y-38503D03*
G54D12*
X48326Y-38503D03*
X48641Y-38503D03*
G54D11*
X49005Y-38503D03*
X47962Y-39212D03*
G54D12*
X48326Y-39212D03*
X48641Y-39212D03*
G54D11*
X49005Y-39212D03*
G54D13*
X43614Y-34419D03*
X43024Y-34419D03*
G54D14*
X39330Y-37019D03*
G54D15*
X39330Y-38019D03*
G54D14*
X39318Y-33519D03*
G54D15*
X40318Y-33519D03*
X41318Y-33519D03*
X42318Y-33519D03*
X43318Y-33519D03*
X44318Y-33519D03*
X45318Y-33519D03*
X46318Y-33519D03*
X47318Y-33519D03*
X48318Y-33519D03*
X49318Y-33519D03*
X50318Y-33519D03*
G54D14*
X39318Y-41519D03*
G54D15*
X40318Y-41519D03*
X41318Y-41519D03*
X42318Y-41519D03*
X43318Y-41519D03*
X44318Y-41519D03*
X45318Y-41519D03*
X46318Y-41519D03*
X47318Y-41519D03*
X48318Y-41519D03*
X49318Y-41519D03*
X50318Y-41519D03*
G54D16*
X42653Y-39094D03*
X43046Y-39094D03*
X43440Y-39094D03*
X43834Y-39094D03*
X44227Y-39094D03*
X44621Y-39094D03*
X45015Y-39094D03*
X45409Y-39094D03*
X45802Y-39094D03*
X46196Y-39094D03*
X46590Y-39094D03*
X46983Y-39094D03*
X46983Y-35944D03*
X46590Y-35944D03*
X46196Y-35944D03*
X45802Y-35944D03*
X45409Y-35944D03*
X45015Y-35944D03*
X44621Y-35944D03*
X44227Y-35944D03*
X43834Y-35944D03*
X43440Y-35944D03*
X43046Y-35944D03*
X42653Y-35944D03*
G54D17*
X48366Y-37497D03*
X47776Y-37497D03*
G54D18*
X50413Y-36850D03*
X49625Y-36850D03*
G54D19*
X50019Y-38130D03*
G54D20*
X40868Y-37170D03*
X40868Y-37918D03*
X41693Y-37170D03*
X41693Y-37918D03*
G54D13*
X48614Y-40619D03*
X48024Y-40619D03*
X47614Y-40619D03*
X47024Y-40619D03*
X49614Y-40619D03*
X49024Y-40619D03*
X46614Y-40619D03*
X46024Y-40619D03*
X45614Y-40619D03*
X45024Y-40619D03*
X44614Y-40619D03*
X44024Y-40619D03*
X43614Y-40619D03*
X43024Y-40619D03*
X50614Y-40619D03*
X50024Y-40619D03*
X50614Y-34419D03*
X50024Y-34419D03*
X49614Y-34419D03*
X49024Y-34419D03*
X48614Y-34419D03*
X48024Y-34419D03*
X47614Y-34419D03*
X47024Y-34419D03*
X44614Y-34419D03*
X44024Y-34419D03*
X46614Y-34419D03*
X46024Y-34419D03*
X45614Y-34419D03*
X45024Y-34419D03*
X45614Y-24537D03*
X45024Y-24537D03*
X46614Y-24537D03*
X46024Y-24537D03*
X44614Y-24537D03*
X44024Y-24537D03*
X47614Y-24537D03*
X47024Y-24537D03*
X48614Y-24537D03*
X48024Y-24537D03*
X49614Y-24537D03*
X49024Y-24537D03*
X50614Y-24537D03*
X50024Y-24537D03*
X50614Y-30737D03*
X50024Y-30737D03*
X43614Y-30737D03*
X43024Y-30737D03*
X44614Y-30737D03*
X44024Y-30737D03*
X45614Y-30737D03*
X45024Y-30737D03*
X46614Y-30737D03*
X46024Y-30737D03*
X49614Y-30737D03*
X49024Y-30737D03*
X47614Y-30737D03*
X47024Y-30737D03*
X48614Y-30737D03*
X48024Y-30737D03*
G54D20*
X41693Y-27288D03*
X41693Y-28036D03*
X40868Y-27288D03*
X40868Y-28036D03*
G54D18*
X50413Y-26968D03*
X49625Y-26968D03*
G54D19*
X50019Y-28248D03*
G54D17*
X48366Y-27615D03*
X47776Y-27615D03*
G54D16*
X42653Y-29212D03*
X43046Y-29212D03*
X43440Y-29212D03*
X43834Y-29212D03*
X44227Y-29212D03*
X44621Y-29212D03*
X45015Y-29212D03*
X45409Y-29212D03*
X45802Y-29212D03*
X46196Y-29212D03*
X46590Y-29212D03*
X46983Y-29212D03*
X46983Y-26062D03*
X46590Y-26062D03*
X46196Y-26062D03*
X45802Y-26062D03*
X45409Y-26062D03*
X45015Y-26062D03*
X44621Y-26062D03*
X44227Y-26062D03*
X43834Y-26062D03*
X43440Y-26062D03*
X43046Y-26062D03*
X42653Y-26062D03*
G54D14*
X39318Y-31637D03*
G54D15*
X40318Y-31637D03*
X41318Y-31637D03*
X42318Y-31637D03*
X43318Y-31637D03*
X44318Y-31637D03*
X45318Y-31637D03*
X46318Y-31637D03*
X47318Y-31637D03*
X48318Y-31637D03*
X49318Y-31637D03*
X50318Y-31637D03*
G54D14*
X39318Y-23637D03*
G54D15*
X40318Y-23637D03*
X41318Y-23637D03*
X42318Y-23637D03*
X43318Y-23637D03*
X44318Y-23637D03*
X45318Y-23637D03*
X46318Y-23637D03*
X47318Y-23637D03*
X48318Y-23637D03*
X49318Y-23637D03*
X50318Y-23637D03*
G54D14*
X39330Y-27137D03*
G54D15*
X39330Y-28137D03*
G54D13*
X43614Y-24537D03*
X43024Y-24537D03*
G54D11*
X47962Y-28622D03*
G54D12*
X48326Y-28622D03*
X48641Y-28622D03*
G54D11*
X49005Y-28622D03*
X47962Y-29330D03*
G54D12*
X48326Y-29330D03*
X48641Y-29330D03*
G54D11*
X49005Y-29330D03*
X49498Y-29035D03*
G54D12*
X49862Y-29035D03*
X50177Y-29035D03*
G54D11*
X50541Y-29035D03*
X49498Y-29744D03*
G54D12*
X49862Y-29744D03*
X50177Y-29744D03*
G54D11*
X50541Y-29744D03*
X50541Y-26240D03*
G54D12*
X50177Y-26240D03*
X49862Y-26240D03*
G54D11*
X49498Y-26240D03*
X50541Y-25531D03*
G54D12*
X50177Y-25531D03*
X49862Y-25531D03*
G54D11*
X49498Y-25531D03*
X49005Y-26771D03*
G54D12*
X48641Y-26771D03*
X48326Y-26771D03*
G54D11*
X47962Y-26771D03*
X49005Y-26062D03*
G54D12*
X48641Y-26062D03*
X48326Y-26062D03*
G54D11*
X47962Y-26062D03*
X61879Y-26771D03*
G54D12*
X61515Y-26771D03*
X61200Y-26771D03*
G54D11*
X60836Y-26771D03*
X61879Y-26062D03*
G54D12*
X61515Y-26062D03*
X61200Y-26062D03*
G54D11*
X60836Y-26062D03*
X63415Y-26240D03*
G54D12*
X63051Y-26240D03*
X62736Y-26240D03*
G54D11*
X62372Y-26240D03*
X63415Y-25531D03*
G54D12*
X63051Y-25531D03*
X62736Y-25531D03*
G54D11*
X62372Y-25531D03*
X62372Y-29035D03*
G54D12*
X62736Y-29035D03*
X63051Y-29035D03*
G54D11*
X63415Y-29035D03*
X62372Y-29744D03*
G54D12*
X62736Y-29744D03*
X63051Y-29744D03*
G54D11*
X63415Y-29744D03*
X60836Y-28622D03*
G54D12*
X61200Y-28622D03*
X61515Y-28622D03*
G54D11*
X61879Y-28622D03*
X60836Y-29330D03*
G54D12*
X61200Y-29330D03*
X61515Y-29330D03*
G54D11*
X61879Y-29330D03*
G54D13*
X56488Y-24537D03*
X55898Y-24537D03*
G54D14*
X52204Y-27137D03*
G54D15*
X52204Y-28137D03*
G54D14*
X52192Y-23637D03*
G54D15*
X53192Y-23637D03*
X54192Y-23637D03*
X55192Y-23637D03*
X56192Y-23637D03*
X57192Y-23637D03*
X58192Y-23637D03*
X59192Y-23637D03*
X60192Y-23637D03*
X61192Y-23637D03*
X62192Y-23637D03*
X63192Y-23637D03*
G54D14*
X52192Y-31637D03*
G54D15*
X53192Y-31637D03*
X54192Y-31637D03*
X55192Y-31637D03*
X56192Y-31637D03*
X57192Y-31637D03*
X58192Y-31637D03*
X59192Y-31637D03*
X60192Y-31637D03*
X61192Y-31637D03*
X62192Y-31637D03*
X63192Y-31637D03*
G54D16*
X55527Y-29212D03*
X55920Y-29212D03*
X56314Y-29212D03*
X56708Y-29212D03*
X57101Y-29212D03*
X57495Y-29212D03*
X57889Y-29212D03*
X58283Y-29212D03*
X58676Y-29212D03*
X59070Y-29212D03*
X59464Y-29212D03*
X59857Y-29212D03*
X59857Y-26062D03*
X59464Y-26062D03*
X59070Y-26062D03*
X58676Y-26062D03*
X58283Y-26062D03*
X57889Y-26062D03*
X57495Y-26062D03*
X57101Y-26062D03*
X56708Y-26062D03*
X56314Y-26062D03*
X55920Y-26062D03*
X55527Y-26062D03*
G54D17*
X61240Y-27615D03*
X60650Y-27615D03*
G54D18*
X63287Y-26968D03*
X62499Y-26968D03*
G54D19*
X62893Y-28248D03*
G54D20*
X53742Y-27288D03*
X53742Y-28036D03*
X54567Y-27288D03*
X54567Y-28036D03*
G54D13*
X61488Y-30737D03*
X60898Y-30737D03*
X60488Y-30737D03*
X59898Y-30737D03*
X62488Y-30737D03*
X61898Y-30737D03*
X59488Y-30737D03*
X58898Y-30737D03*
X58488Y-30737D03*
X57898Y-30737D03*
X57488Y-30737D03*
X56898Y-30737D03*
X56488Y-30737D03*
X55898Y-30737D03*
X63488Y-30737D03*
X62898Y-30737D03*
X63488Y-24537D03*
X62898Y-24537D03*
X62488Y-24537D03*
X61898Y-24537D03*
X61488Y-24537D03*
X60898Y-24537D03*
X60488Y-24537D03*
X59898Y-24537D03*
X57488Y-24537D03*
X56898Y-24537D03*
X59488Y-24537D03*
X58898Y-24537D03*
X58488Y-24537D03*
X57898Y-24537D03*
X58488Y-34419D03*
X57898Y-34419D03*
X59488Y-34419D03*
X58898Y-34419D03*
X57488Y-34419D03*
X56898Y-34419D03*
X60488Y-34419D03*
X59898Y-34419D03*
X61488Y-34419D03*
X60898Y-34419D03*
X62488Y-34419D03*
X61898Y-34419D03*
X63488Y-34419D03*
X62898Y-34419D03*
X63488Y-40619D03*
X62898Y-40619D03*
X56488Y-40619D03*
X55898Y-40619D03*
X57488Y-40619D03*
X56898Y-40619D03*
X58488Y-40619D03*
X57898Y-40619D03*
X59488Y-40619D03*
X58898Y-40619D03*
X62488Y-40619D03*
X61898Y-40619D03*
X60488Y-40619D03*
X59898Y-40619D03*
X61488Y-40619D03*
X60898Y-40619D03*
G54D20*
X54567Y-37170D03*
X54567Y-37918D03*
X53742Y-37170D03*
X53742Y-37918D03*
G54D18*
X63287Y-36850D03*
X62499Y-36850D03*
G54D19*
X62893Y-38130D03*
G54D17*
X61240Y-37497D03*
X60650Y-37497D03*
G54D16*
X55527Y-39094D03*
X55920Y-39094D03*
X56314Y-39094D03*
X56708Y-39094D03*
X57101Y-39094D03*
X57495Y-39094D03*
X57889Y-39094D03*
X58283Y-39094D03*
X58676Y-39094D03*
X59070Y-39094D03*
X59464Y-39094D03*
X59857Y-39094D03*
X59857Y-35944D03*
X59464Y-35944D03*
X59070Y-35944D03*
X58676Y-35944D03*
X58283Y-35944D03*
X57889Y-35944D03*
X57495Y-35944D03*
X57101Y-35944D03*
X56708Y-35944D03*
X56314Y-35944D03*
X55920Y-35944D03*
X55527Y-35944D03*
G54D14*
X52192Y-41519D03*
G54D15*
X53192Y-41519D03*
X54192Y-41519D03*
X55192Y-41519D03*
X56192Y-41519D03*
X57192Y-41519D03*
X58192Y-41519D03*
X59192Y-41519D03*
X60192Y-41519D03*
X61192Y-41519D03*
X62192Y-41519D03*
X63192Y-41519D03*
G54D14*
X52192Y-33519D03*
G54D15*
X53192Y-33519D03*
X54192Y-33519D03*
X55192Y-33519D03*
X56192Y-33519D03*
X57192Y-33519D03*
X58192Y-33519D03*
X59192Y-33519D03*
X60192Y-33519D03*
X61192Y-33519D03*
X62192Y-33519D03*
X63192Y-33519D03*
G54D14*
X52204Y-37019D03*
G54D15*
X52204Y-38019D03*
G54D13*
X56488Y-34419D03*
X55898Y-34419D03*
G54D11*
X60836Y-38503D03*
G54D12*
X61200Y-38503D03*
X61515Y-38503D03*
G54D11*
X61879Y-38503D03*
X60836Y-39212D03*
G54D12*
X61200Y-39212D03*
X61515Y-39212D03*
G54D11*
X61879Y-39212D03*
X62372Y-38917D03*
G54D12*
X62736Y-38917D03*
X63051Y-38917D03*
G54D11*
X63415Y-38917D03*
X62372Y-39625D03*
G54D12*
X62736Y-39625D03*
X63051Y-39625D03*
G54D11*
X63415Y-39625D03*
X63415Y-36122D03*
G54D12*
X63051Y-36122D03*
X62736Y-36122D03*
G54D11*
X62372Y-36122D03*
X63415Y-35413D03*
G54D12*
X63051Y-35413D03*
X62736Y-35413D03*
G54D11*
X62372Y-35413D03*
X61879Y-36653D03*
G54D12*
X61515Y-36653D03*
X61200Y-36653D03*
G54D11*
X60836Y-36653D03*
X61879Y-35944D03*
G54D12*
X61515Y-35944D03*
X61200Y-35944D03*
G54D11*
X60836Y-35944D03*
X61879Y-46535D03*
G54D12*
X61515Y-46535D03*
X61200Y-46535D03*
G54D11*
X60836Y-46535D03*
X61879Y-45826D03*
G54D12*
X61515Y-45826D03*
X61200Y-45826D03*
G54D11*
X60836Y-45826D03*
X63415Y-46003D03*
G54D12*
X63051Y-46003D03*
X62736Y-46003D03*
G54D11*
X62372Y-46003D03*
X63415Y-45295D03*
G54D12*
X63051Y-45295D03*
X62736Y-45295D03*
G54D11*
X62372Y-45295D03*
X62372Y-48799D03*
G54D12*
X62736Y-48799D03*
X63051Y-48799D03*
G54D11*
X63415Y-48799D03*
X62372Y-49507D03*
G54D12*
X62736Y-49507D03*
X63051Y-49507D03*
G54D11*
X63415Y-49507D03*
X60836Y-48385D03*
G54D12*
X61200Y-48385D03*
X61515Y-48385D03*
G54D11*
X61879Y-48385D03*
X60836Y-49094D03*
G54D12*
X61200Y-49094D03*
X61515Y-49094D03*
G54D11*
X61879Y-49094D03*
G54D13*
X56488Y-44301D03*
X55898Y-44301D03*
G54D14*
X52204Y-46901D03*
G54D15*
X52204Y-47901D03*
G54D14*
X52192Y-43401D03*
G54D15*
X53192Y-43401D03*
X54192Y-43401D03*
X55192Y-43401D03*
X56192Y-43401D03*
X57192Y-43401D03*
X58192Y-43401D03*
X59192Y-43401D03*
X60192Y-43401D03*
X61192Y-43401D03*
X62192Y-43401D03*
X63192Y-43401D03*
G54D14*
X52192Y-51401D03*
G54D15*
X53192Y-51401D03*
X54192Y-51401D03*
X55192Y-51401D03*
X56192Y-51401D03*
X57192Y-51401D03*
X58192Y-51401D03*
X59192Y-51401D03*
X60192Y-51401D03*
X61192Y-51401D03*
X62192Y-51401D03*
X63192Y-51401D03*
G54D16*
X55527Y-48976D03*
X55920Y-48976D03*
X56314Y-48976D03*
X56708Y-48976D03*
X57101Y-48976D03*
X57495Y-48976D03*
X57889Y-48976D03*
X58283Y-48976D03*
X58676Y-48976D03*
X59070Y-48976D03*
X59464Y-48976D03*
X59857Y-48976D03*
X59857Y-45826D03*
X59464Y-45826D03*
X59070Y-45826D03*
X58676Y-45826D03*
X58283Y-45826D03*
X57889Y-45826D03*
X57495Y-45826D03*
X57101Y-45826D03*
X56708Y-45826D03*
X56314Y-45826D03*
X55920Y-45826D03*
X55527Y-45826D03*
G54D17*
X61240Y-47378D03*
X60650Y-47378D03*
G54D18*
X63287Y-46731D03*
X62499Y-46731D03*
G54D19*
X62893Y-48011D03*
G54D20*
X53742Y-47052D03*
X53742Y-47800D03*
X54567Y-47052D03*
X54567Y-47800D03*
G54D13*
X61488Y-50501D03*
X60898Y-50501D03*
X60488Y-50501D03*
X59898Y-50501D03*
X62488Y-50501D03*
X61898Y-50501D03*
X59488Y-50501D03*
X58898Y-50501D03*
X58488Y-50501D03*
X57898Y-50501D03*
X57488Y-50501D03*
X56898Y-50501D03*
X56488Y-50501D03*
X55898Y-50501D03*
X63488Y-50501D03*
X62898Y-50501D03*
X63488Y-44301D03*
X62898Y-44301D03*
X62488Y-44301D03*
X61898Y-44301D03*
X61488Y-44301D03*
X60898Y-44301D03*
X60488Y-44301D03*
X59898Y-44301D03*
X57488Y-44301D03*
X56898Y-44301D03*
X59488Y-44301D03*
X58898Y-44301D03*
X58488Y-44301D03*
X57898Y-44301D03*
X58488Y-54183D03*
X57898Y-54183D03*
X59488Y-54183D03*
X58898Y-54183D03*
X57488Y-54183D03*
X56898Y-54183D03*
X60488Y-54183D03*
X59898Y-54183D03*
X61488Y-54183D03*
X60898Y-54183D03*
X62488Y-54183D03*
X61898Y-54183D03*
X63488Y-54183D03*
X62898Y-54183D03*
X63488Y-60383D03*
X62898Y-60383D03*
X56488Y-60383D03*
X55898Y-60383D03*
X57488Y-60383D03*
X56898Y-60383D03*
X58488Y-60383D03*
X57898Y-60383D03*
X59488Y-60383D03*
X58898Y-60383D03*
X62488Y-60383D03*
X61898Y-60383D03*
X60488Y-60383D03*
X59898Y-60383D03*
X61488Y-60383D03*
X60898Y-60383D03*
G54D20*
X54567Y-56934D03*
X54567Y-57682D03*
X53742Y-56934D03*
X53742Y-57682D03*
G54D18*
X63287Y-56613D03*
X62499Y-56613D03*
G54D19*
X62893Y-57893D03*
G54D17*
X61240Y-57260D03*
X60650Y-57260D03*
G54D16*
X55527Y-58858D03*
X55920Y-58858D03*
X56314Y-58858D03*
X56708Y-58858D03*
X57101Y-58858D03*
X57495Y-58858D03*
X57889Y-58858D03*
X58283Y-58858D03*
X58676Y-58858D03*
X59070Y-58858D03*
X59464Y-58858D03*
X59857Y-58858D03*
X59857Y-55708D03*
X59464Y-55708D03*
X59070Y-55708D03*
X58676Y-55708D03*
X58283Y-55708D03*
X57889Y-55708D03*
X57495Y-55708D03*
X57101Y-55708D03*
X56708Y-55708D03*
X56314Y-55708D03*
X55920Y-55708D03*
X55527Y-55708D03*
G54D14*
X52192Y-61283D03*
G54D15*
X53192Y-61283D03*
X54192Y-61283D03*
X55192Y-61283D03*
X56192Y-61283D03*
X57192Y-61283D03*
X58192Y-61283D03*
X59192Y-61283D03*
X60192Y-61283D03*
X61192Y-61283D03*
X62192Y-61283D03*
X63192Y-61283D03*
G54D14*
X52192Y-53283D03*
G54D15*
X53192Y-53283D03*
X54192Y-53283D03*
X55192Y-53283D03*
X56192Y-53283D03*
X57192Y-53283D03*
X58192Y-53283D03*
X59192Y-53283D03*
X60192Y-53283D03*
X61192Y-53283D03*
X62192Y-53283D03*
X63192Y-53283D03*
G54D14*
X52204Y-56783D03*
G54D15*
X52204Y-57783D03*
G54D13*
X56488Y-54183D03*
X55898Y-54183D03*
G54D11*
X60836Y-58267D03*
G54D12*
X61200Y-58267D03*
X61515Y-58267D03*
G54D11*
X61879Y-58267D03*
X60836Y-58976D03*
G54D12*
X61200Y-58976D03*
X61515Y-58976D03*
G54D11*
X61879Y-58976D03*
X62372Y-58681D03*
G54D12*
X62736Y-58681D03*
X63051Y-58681D03*
G54D11*
X63415Y-58681D03*
X62372Y-59389D03*
G54D12*
X62736Y-59389D03*
X63051Y-59389D03*
G54D11*
X63415Y-59389D03*
X63415Y-55885D03*
G54D12*
X63051Y-55885D03*
X62736Y-55885D03*
G54D11*
X62372Y-55885D03*
X63415Y-55177D03*
G54D12*
X63051Y-55177D03*
X62736Y-55177D03*
G54D11*
X62372Y-55177D03*
X61879Y-56417D03*
G54D12*
X61515Y-56417D03*
X61200Y-56417D03*
G54D11*
X60836Y-56417D03*
X61879Y-55708D03*
G54D12*
X61515Y-55708D03*
X61200Y-55708D03*
G54D11*
X60836Y-55708D03*
G54D21*
X54842Y-51948D03*
X54251Y-52637D03*
X55157Y-52637D03*
X54251Y-52047D03*
X54566Y-51948D03*
X55157Y-52047D03*
X54566Y-52736D03*
X54842Y-52736D03*
X60826Y-51948D03*
X60236Y-52637D03*
X61141Y-52637D03*
X60236Y-52047D03*
X60551Y-51948D03*
X61141Y-52047D03*
X60551Y-52736D03*
X60826Y-52736D03*
X60826Y-32185D03*
X60236Y-32874D03*
X61141Y-32874D03*
X60236Y-32283D03*
X60551Y-32185D03*
X61141Y-32283D03*
X60551Y-32972D03*
X60826Y-32972D03*
X54842Y-32185D03*
X54251Y-32874D03*
X55157Y-32874D03*
X54251Y-32283D03*
X54566Y-32185D03*
X55157Y-32283D03*
X54566Y-32972D03*
X54842Y-32972D03*
X54842Y-42066D03*
X54251Y-42755D03*
X55157Y-42755D03*
X54251Y-42165D03*
X54566Y-42066D03*
X55157Y-42165D03*
X54566Y-42854D03*
X54842Y-42854D03*
X60826Y-42066D03*
X60236Y-42755D03*
X61141Y-42755D03*
X60236Y-42165D03*
X60551Y-42066D03*
X61141Y-42165D03*
X60551Y-42854D03*
X60826Y-42854D03*
M02*
