G04 (created by PCBNEW (2013-04-01 BZR 4056)-testing) date Tue 02 Apr 2013 12:46:50 AM CEST*
%MOIN*%
G04 Gerber Fmt 3.4, Leading zero omitted, Abs format*
%FSLAX34Y34*%
G01*
G70*
G90*
G04 APERTURE LIST*
%ADD10C,0.006*%
%ADD11C,0.019685*%
%ADD12R,0.0314961X0.0433071*%
%ADD13R,0.0649606X0.0649606*%
%ADD14C,0.0649606*%
%ADD15R,0.0256X0.063*%
%ADD16R,0.0314X0.0314*%
%ADD17R,0.0472X0.0472*%
%ADD18R,0.063X0.0591*%
%ADD19R,0.059X0.0511*%
G04 APERTURE END LIST*
G54D10*
G54D11*
X54842Y-51948D03*
X54251Y-52637D03*
X55157Y-52637D03*
X54251Y-52047D03*
X54566Y-51948D03*
X55157Y-52047D03*
X54566Y-52736D03*
X54842Y-52736D03*
X60826Y-51948D03*
X60236Y-52637D03*
X61141Y-52637D03*
X60236Y-52047D03*
X60551Y-51948D03*
X61141Y-52047D03*
X60551Y-52736D03*
X60826Y-52736D03*
X60826Y-32185D03*
X60236Y-32874D03*
X61141Y-32874D03*
X60236Y-32283D03*
X60551Y-32185D03*
X61141Y-32283D03*
X60551Y-32972D03*
X60826Y-32972D03*
X54842Y-32185D03*
X54251Y-32874D03*
X55157Y-32874D03*
X54251Y-32283D03*
X54566Y-32185D03*
X55157Y-32283D03*
X54566Y-32972D03*
X54842Y-32972D03*
X54842Y-42066D03*
X54251Y-42755D03*
X55157Y-42755D03*
X54251Y-42165D03*
X54566Y-42066D03*
X55157Y-42165D03*
X54566Y-42854D03*
X54842Y-42854D03*
X60826Y-42066D03*
X60236Y-42755D03*
X61141Y-42755D03*
X60236Y-42165D03*
X60551Y-42066D03*
X61141Y-42165D03*
X60551Y-42854D03*
X60826Y-42854D03*
X29094Y-51948D03*
X28503Y-52637D03*
X29409Y-52637D03*
X28503Y-52047D03*
X28818Y-51948D03*
X29409Y-52047D03*
X28818Y-52736D03*
X29094Y-52736D03*
X35078Y-51948D03*
X34488Y-52637D03*
X35393Y-52637D03*
X34488Y-52047D03*
X34803Y-51948D03*
X35393Y-52047D03*
X34803Y-52736D03*
X35078Y-52736D03*
X35078Y-32185D03*
X34488Y-32874D03*
X35393Y-32874D03*
X34488Y-32283D03*
X34803Y-32185D03*
X35393Y-32283D03*
X34803Y-32972D03*
X35078Y-32972D03*
X29094Y-32185D03*
X28503Y-32874D03*
X29409Y-32874D03*
X28503Y-32283D03*
X28818Y-32185D03*
X29409Y-32283D03*
X28818Y-32972D03*
X29094Y-32972D03*
X29094Y-42066D03*
X28503Y-42755D03*
X29409Y-42755D03*
X28503Y-42165D03*
X28818Y-42066D03*
X29409Y-42165D03*
X28818Y-42854D03*
X29094Y-42854D03*
X35078Y-42066D03*
X34488Y-42755D03*
X35393Y-42755D03*
X34488Y-42165D03*
X34803Y-42066D03*
X35393Y-42165D03*
X34803Y-42854D03*
X35078Y-42854D03*
X47952Y-42066D03*
X47362Y-42755D03*
X48267Y-42755D03*
X47362Y-42165D03*
X47677Y-42066D03*
X48267Y-42165D03*
X47677Y-42854D03*
X47952Y-42854D03*
X41968Y-42066D03*
X41377Y-42755D03*
X42283Y-42755D03*
X41377Y-42165D03*
X41692Y-42066D03*
X42283Y-42165D03*
X41692Y-42854D03*
X41968Y-42854D03*
X41968Y-32185D03*
X41377Y-32874D03*
X42283Y-32874D03*
X41377Y-32283D03*
X41692Y-32185D03*
X42283Y-32283D03*
X41692Y-32972D03*
X41968Y-32972D03*
X47952Y-32185D03*
X47362Y-32874D03*
X48267Y-32874D03*
X47362Y-32283D03*
X47677Y-32185D03*
X48267Y-32283D03*
X47677Y-32972D03*
X47952Y-32972D03*
X47952Y-51948D03*
X47362Y-52637D03*
X48267Y-52637D03*
X47362Y-52047D03*
X47677Y-51948D03*
X48267Y-52047D03*
X47677Y-52736D03*
X47952Y-52736D03*
X41968Y-51948D03*
X41377Y-52637D03*
X42283Y-52637D03*
X41377Y-52047D03*
X41692Y-51948D03*
X42283Y-52047D03*
X41692Y-52736D03*
X41968Y-52736D03*
G54D12*
X43614Y-54183D03*
X43024Y-54183D03*
G54D13*
X39330Y-56783D03*
G54D14*
X39330Y-57783D03*
G54D13*
X39318Y-53283D03*
G54D14*
X40318Y-53283D03*
X41318Y-53283D03*
X42318Y-53283D03*
X43318Y-53283D03*
X44318Y-53283D03*
X45318Y-53283D03*
X46318Y-53283D03*
X47318Y-53283D03*
X48318Y-53283D03*
X49318Y-53283D03*
X50318Y-53283D03*
G54D13*
X39318Y-61283D03*
G54D14*
X40318Y-61283D03*
X41318Y-61283D03*
X42318Y-61283D03*
X43318Y-61283D03*
X44318Y-61283D03*
X45318Y-61283D03*
X46318Y-61283D03*
X47318Y-61283D03*
X48318Y-61283D03*
X49318Y-61283D03*
X50318Y-61283D03*
G54D15*
X42653Y-58858D03*
X43046Y-58858D03*
X43440Y-58858D03*
X43834Y-58858D03*
X44227Y-58858D03*
X44621Y-58858D03*
X45015Y-58858D03*
X45409Y-58858D03*
X45802Y-58858D03*
X46196Y-58858D03*
X46590Y-58858D03*
X46983Y-58858D03*
X46983Y-55708D03*
X46590Y-55708D03*
X46196Y-55708D03*
X45802Y-55708D03*
X45409Y-55708D03*
X45015Y-55708D03*
X44621Y-55708D03*
X44227Y-55708D03*
X43834Y-55708D03*
X43440Y-55708D03*
X43046Y-55708D03*
X42653Y-55708D03*
G54D16*
X43614Y-54830D03*
X43024Y-54830D03*
X44614Y-54830D03*
X44024Y-54830D03*
X50614Y-54830D03*
X50024Y-54830D03*
X48071Y-57579D03*
X48071Y-56989D03*
X49614Y-54830D03*
X49024Y-54830D03*
X47614Y-54830D03*
X47024Y-54830D03*
X48614Y-54830D03*
X48024Y-54830D03*
X46614Y-54830D03*
X46024Y-54830D03*
X45614Y-54830D03*
X45024Y-54830D03*
X50614Y-59730D03*
X50024Y-59730D03*
X49614Y-59730D03*
X49024Y-59730D03*
X48614Y-59730D03*
X48024Y-59730D03*
X47614Y-59730D03*
X47024Y-59730D03*
X45614Y-59730D03*
X45024Y-59730D03*
X46614Y-59730D03*
X46024Y-59730D03*
X44614Y-59730D03*
X44024Y-59730D03*
X43614Y-59730D03*
X43024Y-59730D03*
G54D17*
X50412Y-56674D03*
X49624Y-56674D03*
G54D18*
X50018Y-57954D03*
G54D19*
X40868Y-56934D03*
X40868Y-57682D03*
X41693Y-56934D03*
X41693Y-57682D03*
G54D12*
X48614Y-60383D03*
X48024Y-60383D03*
X47614Y-60383D03*
X47024Y-60383D03*
X49614Y-60383D03*
X49024Y-60383D03*
X46614Y-60383D03*
X46024Y-60383D03*
X45614Y-60383D03*
X45024Y-60383D03*
X44614Y-60383D03*
X44024Y-60383D03*
X43614Y-60383D03*
X43024Y-60383D03*
X50614Y-60383D03*
X50024Y-60383D03*
X50614Y-54183D03*
X50024Y-54183D03*
X49614Y-54183D03*
X49024Y-54183D03*
X48614Y-54183D03*
X48024Y-54183D03*
X47614Y-54183D03*
X47024Y-54183D03*
X44614Y-54183D03*
X44024Y-54183D03*
X46614Y-54183D03*
X46024Y-54183D03*
X45614Y-54183D03*
X45024Y-54183D03*
X45614Y-44301D03*
X45024Y-44301D03*
X46614Y-44301D03*
X46024Y-44301D03*
X44614Y-44301D03*
X44024Y-44301D03*
X47614Y-44301D03*
X47024Y-44301D03*
X48614Y-44301D03*
X48024Y-44301D03*
X49614Y-44301D03*
X49024Y-44301D03*
X50614Y-44301D03*
X50024Y-44301D03*
X50614Y-50501D03*
X50024Y-50501D03*
X43614Y-50501D03*
X43024Y-50501D03*
X44614Y-50501D03*
X44024Y-50501D03*
X45614Y-50501D03*
X45024Y-50501D03*
X46614Y-50501D03*
X46024Y-50501D03*
X49614Y-50501D03*
X49024Y-50501D03*
X47614Y-50501D03*
X47024Y-50501D03*
X48614Y-50501D03*
X48024Y-50501D03*
G54D19*
X41693Y-47052D03*
X41693Y-47800D03*
X40868Y-47052D03*
X40868Y-47800D03*
G54D17*
X50412Y-46792D03*
X49624Y-46792D03*
G54D18*
X50018Y-48072D03*
G54D16*
X43614Y-49848D03*
X43024Y-49848D03*
X44614Y-49848D03*
X44024Y-49848D03*
X46614Y-49848D03*
X46024Y-49848D03*
X45614Y-49848D03*
X45024Y-49848D03*
X47614Y-49848D03*
X47024Y-49848D03*
X48614Y-49848D03*
X48024Y-49848D03*
X49614Y-49848D03*
X49024Y-49848D03*
X50614Y-49848D03*
X50024Y-49848D03*
X45614Y-44948D03*
X45024Y-44948D03*
X46614Y-44948D03*
X46024Y-44948D03*
X48614Y-44948D03*
X48024Y-44948D03*
X47614Y-44948D03*
X47024Y-44948D03*
X49614Y-44948D03*
X49024Y-44948D03*
X48071Y-47697D03*
X48071Y-47107D03*
X50614Y-44948D03*
X50024Y-44948D03*
X44614Y-44948D03*
X44024Y-44948D03*
X43614Y-44948D03*
X43024Y-44948D03*
G54D15*
X42653Y-48976D03*
X43046Y-48976D03*
X43440Y-48976D03*
X43834Y-48976D03*
X44227Y-48976D03*
X44621Y-48976D03*
X45015Y-48976D03*
X45409Y-48976D03*
X45802Y-48976D03*
X46196Y-48976D03*
X46590Y-48976D03*
X46983Y-48976D03*
X46983Y-45826D03*
X46590Y-45826D03*
X46196Y-45826D03*
X45802Y-45826D03*
X45409Y-45826D03*
X45015Y-45826D03*
X44621Y-45826D03*
X44227Y-45826D03*
X43834Y-45826D03*
X43440Y-45826D03*
X43046Y-45826D03*
X42653Y-45826D03*
G54D13*
X39318Y-51401D03*
G54D14*
X40318Y-51401D03*
X41318Y-51401D03*
X42318Y-51401D03*
X43318Y-51401D03*
X44318Y-51401D03*
X45318Y-51401D03*
X46318Y-51401D03*
X47318Y-51401D03*
X48318Y-51401D03*
X49318Y-51401D03*
X50318Y-51401D03*
G54D13*
X39318Y-43401D03*
G54D14*
X40318Y-43401D03*
X41318Y-43401D03*
X42318Y-43401D03*
X43318Y-43401D03*
X44318Y-43401D03*
X45318Y-43401D03*
X46318Y-43401D03*
X47318Y-43401D03*
X48318Y-43401D03*
X49318Y-43401D03*
X50318Y-43401D03*
G54D13*
X39330Y-46901D03*
G54D14*
X39330Y-47901D03*
G54D12*
X43614Y-44301D03*
X43024Y-44301D03*
X43614Y-24537D03*
X43024Y-24537D03*
G54D13*
X39330Y-27137D03*
G54D14*
X39330Y-28137D03*
G54D13*
X39318Y-23637D03*
G54D14*
X40318Y-23637D03*
X41318Y-23637D03*
X42318Y-23637D03*
X43318Y-23637D03*
X44318Y-23637D03*
X45318Y-23637D03*
X46318Y-23637D03*
X47318Y-23637D03*
X48318Y-23637D03*
X49318Y-23637D03*
X50318Y-23637D03*
G54D13*
X39318Y-31637D03*
G54D14*
X40318Y-31637D03*
X41318Y-31637D03*
X42318Y-31637D03*
X43318Y-31637D03*
X44318Y-31637D03*
X45318Y-31637D03*
X46318Y-31637D03*
X47318Y-31637D03*
X48318Y-31637D03*
X49318Y-31637D03*
X50318Y-31637D03*
G54D15*
X42653Y-29212D03*
X43046Y-29212D03*
X43440Y-29212D03*
X43834Y-29212D03*
X44227Y-29212D03*
X44621Y-29212D03*
X45015Y-29212D03*
X45409Y-29212D03*
X45802Y-29212D03*
X46196Y-29212D03*
X46590Y-29212D03*
X46983Y-29212D03*
X46983Y-26062D03*
X46590Y-26062D03*
X46196Y-26062D03*
X45802Y-26062D03*
X45409Y-26062D03*
X45015Y-26062D03*
X44621Y-26062D03*
X44227Y-26062D03*
X43834Y-26062D03*
X43440Y-26062D03*
X43046Y-26062D03*
X42653Y-26062D03*
G54D16*
X43614Y-25184D03*
X43024Y-25184D03*
X44614Y-25184D03*
X44024Y-25184D03*
X50614Y-25184D03*
X50024Y-25184D03*
X48071Y-27933D03*
X48071Y-27343D03*
X49614Y-25184D03*
X49024Y-25184D03*
X47614Y-25184D03*
X47024Y-25184D03*
X48614Y-25184D03*
X48024Y-25184D03*
X46614Y-25184D03*
X46024Y-25184D03*
X45614Y-25184D03*
X45024Y-25184D03*
X50614Y-30084D03*
X50024Y-30084D03*
X49614Y-30084D03*
X49024Y-30084D03*
X48614Y-30084D03*
X48024Y-30084D03*
X47614Y-30084D03*
X47024Y-30084D03*
X45614Y-30084D03*
X45024Y-30084D03*
X46614Y-30084D03*
X46024Y-30084D03*
X44614Y-30084D03*
X44024Y-30084D03*
X43614Y-30084D03*
X43024Y-30084D03*
G54D17*
X50412Y-27028D03*
X49624Y-27028D03*
G54D18*
X50018Y-28308D03*
G54D19*
X40868Y-27288D03*
X40868Y-28036D03*
X41693Y-27288D03*
X41693Y-28036D03*
G54D12*
X48614Y-30737D03*
X48024Y-30737D03*
X47614Y-30737D03*
X47024Y-30737D03*
X49614Y-30737D03*
X49024Y-30737D03*
X46614Y-30737D03*
X46024Y-30737D03*
X45614Y-30737D03*
X45024Y-30737D03*
X44614Y-30737D03*
X44024Y-30737D03*
X43614Y-30737D03*
X43024Y-30737D03*
X50614Y-30737D03*
X50024Y-30737D03*
X50614Y-24537D03*
X50024Y-24537D03*
X49614Y-24537D03*
X49024Y-24537D03*
X48614Y-24537D03*
X48024Y-24537D03*
X47614Y-24537D03*
X47024Y-24537D03*
X44614Y-24537D03*
X44024Y-24537D03*
X46614Y-24537D03*
X46024Y-24537D03*
X45614Y-24537D03*
X45024Y-24537D03*
X45614Y-34419D03*
X45024Y-34419D03*
X46614Y-34419D03*
X46024Y-34419D03*
X44614Y-34419D03*
X44024Y-34419D03*
X47614Y-34419D03*
X47024Y-34419D03*
X48614Y-34419D03*
X48024Y-34419D03*
X49614Y-34419D03*
X49024Y-34419D03*
X50614Y-34419D03*
X50024Y-34419D03*
X50614Y-40619D03*
X50024Y-40619D03*
X43614Y-40619D03*
X43024Y-40619D03*
X44614Y-40619D03*
X44024Y-40619D03*
X45614Y-40619D03*
X45024Y-40619D03*
X46614Y-40619D03*
X46024Y-40619D03*
X49614Y-40619D03*
X49024Y-40619D03*
X47614Y-40619D03*
X47024Y-40619D03*
X48614Y-40619D03*
X48024Y-40619D03*
G54D19*
X41693Y-37170D03*
X41693Y-37918D03*
X40868Y-37170D03*
X40868Y-37918D03*
G54D17*
X50412Y-36910D03*
X49624Y-36910D03*
G54D18*
X50018Y-38190D03*
G54D16*
X43614Y-39966D03*
X43024Y-39966D03*
X44614Y-39966D03*
X44024Y-39966D03*
X46614Y-39966D03*
X46024Y-39966D03*
X45614Y-39966D03*
X45024Y-39966D03*
X47614Y-39966D03*
X47024Y-39966D03*
X48614Y-39966D03*
X48024Y-39966D03*
X49614Y-39966D03*
X49024Y-39966D03*
X50614Y-39966D03*
X50024Y-39966D03*
X45614Y-35066D03*
X45024Y-35066D03*
X46614Y-35066D03*
X46024Y-35066D03*
X48614Y-35066D03*
X48024Y-35066D03*
X47614Y-35066D03*
X47024Y-35066D03*
X49614Y-35066D03*
X49024Y-35066D03*
X48071Y-37815D03*
X48071Y-37225D03*
X50614Y-35066D03*
X50024Y-35066D03*
X44614Y-35066D03*
X44024Y-35066D03*
X43614Y-35066D03*
X43024Y-35066D03*
G54D15*
X42653Y-39094D03*
X43046Y-39094D03*
X43440Y-39094D03*
X43834Y-39094D03*
X44227Y-39094D03*
X44621Y-39094D03*
X45015Y-39094D03*
X45409Y-39094D03*
X45802Y-39094D03*
X46196Y-39094D03*
X46590Y-39094D03*
X46983Y-39094D03*
X46983Y-35944D03*
X46590Y-35944D03*
X46196Y-35944D03*
X45802Y-35944D03*
X45409Y-35944D03*
X45015Y-35944D03*
X44621Y-35944D03*
X44227Y-35944D03*
X43834Y-35944D03*
X43440Y-35944D03*
X43046Y-35944D03*
X42653Y-35944D03*
G54D13*
X39318Y-41519D03*
G54D14*
X40318Y-41519D03*
X41318Y-41519D03*
X42318Y-41519D03*
X43318Y-41519D03*
X44318Y-41519D03*
X45318Y-41519D03*
X46318Y-41519D03*
X47318Y-41519D03*
X48318Y-41519D03*
X49318Y-41519D03*
X50318Y-41519D03*
G54D13*
X39318Y-33519D03*
G54D14*
X40318Y-33519D03*
X41318Y-33519D03*
X42318Y-33519D03*
X43318Y-33519D03*
X44318Y-33519D03*
X45318Y-33519D03*
X46318Y-33519D03*
X47318Y-33519D03*
X48318Y-33519D03*
X49318Y-33519D03*
X50318Y-33519D03*
G54D13*
X39330Y-37019D03*
G54D14*
X39330Y-38019D03*
G54D12*
X43614Y-34419D03*
X43024Y-34419D03*
X30740Y-34419D03*
X30150Y-34419D03*
G54D13*
X26456Y-37019D03*
G54D14*
X26456Y-38019D03*
G54D13*
X26444Y-33519D03*
G54D14*
X27444Y-33519D03*
X28444Y-33519D03*
X29444Y-33519D03*
X30444Y-33519D03*
X31444Y-33519D03*
X32444Y-33519D03*
X33444Y-33519D03*
X34444Y-33519D03*
X35444Y-33519D03*
X36444Y-33519D03*
X37444Y-33519D03*
G54D13*
X26444Y-41519D03*
G54D14*
X27444Y-41519D03*
X28444Y-41519D03*
X29444Y-41519D03*
X30444Y-41519D03*
X31444Y-41519D03*
X32444Y-41519D03*
X33444Y-41519D03*
X34444Y-41519D03*
X35444Y-41519D03*
X36444Y-41519D03*
X37444Y-41519D03*
G54D15*
X29779Y-39094D03*
X30172Y-39094D03*
X30566Y-39094D03*
X30960Y-39094D03*
X31353Y-39094D03*
X31747Y-39094D03*
X32141Y-39094D03*
X32535Y-39094D03*
X32928Y-39094D03*
X33322Y-39094D03*
X33716Y-39094D03*
X34109Y-39094D03*
X34109Y-35944D03*
X33716Y-35944D03*
X33322Y-35944D03*
X32928Y-35944D03*
X32535Y-35944D03*
X32141Y-35944D03*
X31747Y-35944D03*
X31353Y-35944D03*
X30960Y-35944D03*
X30566Y-35944D03*
X30172Y-35944D03*
X29779Y-35944D03*
G54D16*
X30740Y-35066D03*
X30150Y-35066D03*
X31740Y-35066D03*
X31150Y-35066D03*
X37740Y-35066D03*
X37150Y-35066D03*
X35197Y-37815D03*
X35197Y-37225D03*
X36740Y-35066D03*
X36150Y-35066D03*
X34740Y-35066D03*
X34150Y-35066D03*
X35740Y-35066D03*
X35150Y-35066D03*
X33740Y-35066D03*
X33150Y-35066D03*
X32740Y-35066D03*
X32150Y-35066D03*
X37740Y-39966D03*
X37150Y-39966D03*
X36740Y-39966D03*
X36150Y-39966D03*
X35740Y-39966D03*
X35150Y-39966D03*
X34740Y-39966D03*
X34150Y-39966D03*
X32740Y-39966D03*
X32150Y-39966D03*
X33740Y-39966D03*
X33150Y-39966D03*
X31740Y-39966D03*
X31150Y-39966D03*
X30740Y-39966D03*
X30150Y-39966D03*
G54D17*
X37538Y-36910D03*
X36750Y-36910D03*
G54D18*
X37144Y-38190D03*
G54D19*
X27994Y-37170D03*
X27994Y-37918D03*
X28819Y-37170D03*
X28819Y-37918D03*
G54D12*
X35740Y-40619D03*
X35150Y-40619D03*
X34740Y-40619D03*
X34150Y-40619D03*
X36740Y-40619D03*
X36150Y-40619D03*
X33740Y-40619D03*
X33150Y-40619D03*
X32740Y-40619D03*
X32150Y-40619D03*
X31740Y-40619D03*
X31150Y-40619D03*
X30740Y-40619D03*
X30150Y-40619D03*
X37740Y-40619D03*
X37150Y-40619D03*
X37740Y-34419D03*
X37150Y-34419D03*
X36740Y-34419D03*
X36150Y-34419D03*
X35740Y-34419D03*
X35150Y-34419D03*
X34740Y-34419D03*
X34150Y-34419D03*
X31740Y-34419D03*
X31150Y-34419D03*
X33740Y-34419D03*
X33150Y-34419D03*
X32740Y-34419D03*
X32150Y-34419D03*
X32740Y-24537D03*
X32150Y-24537D03*
X33740Y-24537D03*
X33150Y-24537D03*
X31740Y-24537D03*
X31150Y-24537D03*
X34740Y-24537D03*
X34150Y-24537D03*
X35740Y-24537D03*
X35150Y-24537D03*
X36740Y-24537D03*
X36150Y-24537D03*
X37740Y-24537D03*
X37150Y-24537D03*
X37740Y-30737D03*
X37150Y-30737D03*
X30740Y-30737D03*
X30150Y-30737D03*
X31740Y-30737D03*
X31150Y-30737D03*
X32740Y-30737D03*
X32150Y-30737D03*
X33740Y-30737D03*
X33150Y-30737D03*
X36740Y-30737D03*
X36150Y-30737D03*
X34740Y-30737D03*
X34150Y-30737D03*
X35740Y-30737D03*
X35150Y-30737D03*
G54D19*
X28819Y-27288D03*
X28819Y-28036D03*
X27994Y-27288D03*
X27994Y-28036D03*
G54D17*
X37538Y-27028D03*
X36750Y-27028D03*
G54D18*
X37144Y-28308D03*
G54D16*
X30740Y-30084D03*
X30150Y-30084D03*
X31740Y-30084D03*
X31150Y-30084D03*
X33740Y-30084D03*
X33150Y-30084D03*
X32740Y-30084D03*
X32150Y-30084D03*
X34740Y-30084D03*
X34150Y-30084D03*
X35740Y-30084D03*
X35150Y-30084D03*
X36740Y-30084D03*
X36150Y-30084D03*
X37740Y-30084D03*
X37150Y-30084D03*
X32740Y-25184D03*
X32150Y-25184D03*
X33740Y-25184D03*
X33150Y-25184D03*
X35740Y-25184D03*
X35150Y-25184D03*
X34740Y-25184D03*
X34150Y-25184D03*
X36740Y-25184D03*
X36150Y-25184D03*
X35197Y-27933D03*
X35197Y-27343D03*
X37740Y-25184D03*
X37150Y-25184D03*
X31740Y-25184D03*
X31150Y-25184D03*
X30740Y-25184D03*
X30150Y-25184D03*
G54D15*
X29779Y-29212D03*
X30172Y-29212D03*
X30566Y-29212D03*
X30960Y-29212D03*
X31353Y-29212D03*
X31747Y-29212D03*
X32141Y-29212D03*
X32535Y-29212D03*
X32928Y-29212D03*
X33322Y-29212D03*
X33716Y-29212D03*
X34109Y-29212D03*
X34109Y-26062D03*
X33716Y-26062D03*
X33322Y-26062D03*
X32928Y-26062D03*
X32535Y-26062D03*
X32141Y-26062D03*
X31747Y-26062D03*
X31353Y-26062D03*
X30960Y-26062D03*
X30566Y-26062D03*
X30172Y-26062D03*
X29779Y-26062D03*
G54D13*
X26444Y-31637D03*
G54D14*
X27444Y-31637D03*
X28444Y-31637D03*
X29444Y-31637D03*
X30444Y-31637D03*
X31444Y-31637D03*
X32444Y-31637D03*
X33444Y-31637D03*
X34444Y-31637D03*
X35444Y-31637D03*
X36444Y-31637D03*
X37444Y-31637D03*
G54D13*
X26444Y-23637D03*
G54D14*
X27444Y-23637D03*
X28444Y-23637D03*
X29444Y-23637D03*
X30444Y-23637D03*
X31444Y-23637D03*
X32444Y-23637D03*
X33444Y-23637D03*
X34444Y-23637D03*
X35444Y-23637D03*
X36444Y-23637D03*
X37444Y-23637D03*
G54D13*
X26456Y-27137D03*
G54D14*
X26456Y-28137D03*
G54D12*
X30740Y-24537D03*
X30150Y-24537D03*
X30740Y-44301D03*
X30150Y-44301D03*
G54D13*
X26456Y-46901D03*
G54D14*
X26456Y-47901D03*
G54D13*
X26444Y-43401D03*
G54D14*
X27444Y-43401D03*
X28444Y-43401D03*
X29444Y-43401D03*
X30444Y-43401D03*
X31444Y-43401D03*
X32444Y-43401D03*
X33444Y-43401D03*
X34444Y-43401D03*
X35444Y-43401D03*
X36444Y-43401D03*
X37444Y-43401D03*
G54D13*
X26444Y-51401D03*
G54D14*
X27444Y-51401D03*
X28444Y-51401D03*
X29444Y-51401D03*
X30444Y-51401D03*
X31444Y-51401D03*
X32444Y-51401D03*
X33444Y-51401D03*
X34444Y-51401D03*
X35444Y-51401D03*
X36444Y-51401D03*
X37444Y-51401D03*
G54D15*
X29779Y-48976D03*
X30172Y-48976D03*
X30566Y-48976D03*
X30960Y-48976D03*
X31353Y-48976D03*
X31747Y-48976D03*
X32141Y-48976D03*
X32535Y-48976D03*
X32928Y-48976D03*
X33322Y-48976D03*
X33716Y-48976D03*
X34109Y-48976D03*
X34109Y-45826D03*
X33716Y-45826D03*
X33322Y-45826D03*
X32928Y-45826D03*
X32535Y-45826D03*
X32141Y-45826D03*
X31747Y-45826D03*
X31353Y-45826D03*
X30960Y-45826D03*
X30566Y-45826D03*
X30172Y-45826D03*
X29779Y-45826D03*
G54D16*
X30740Y-44948D03*
X30150Y-44948D03*
X31740Y-44948D03*
X31150Y-44948D03*
X37740Y-44948D03*
X37150Y-44948D03*
X35197Y-47697D03*
X35197Y-47107D03*
X36740Y-44948D03*
X36150Y-44948D03*
X34740Y-44948D03*
X34150Y-44948D03*
X35740Y-44948D03*
X35150Y-44948D03*
X33740Y-44948D03*
X33150Y-44948D03*
X32740Y-44948D03*
X32150Y-44948D03*
X37740Y-49848D03*
X37150Y-49848D03*
X36740Y-49848D03*
X36150Y-49848D03*
X35740Y-49848D03*
X35150Y-49848D03*
X34740Y-49848D03*
X34150Y-49848D03*
X32740Y-49848D03*
X32150Y-49848D03*
X33740Y-49848D03*
X33150Y-49848D03*
X31740Y-49848D03*
X31150Y-49848D03*
X30740Y-49848D03*
X30150Y-49848D03*
G54D17*
X37538Y-46792D03*
X36750Y-46792D03*
G54D18*
X37144Y-48072D03*
G54D19*
X27994Y-47052D03*
X27994Y-47800D03*
X28819Y-47052D03*
X28819Y-47800D03*
G54D12*
X35740Y-50501D03*
X35150Y-50501D03*
X34740Y-50501D03*
X34150Y-50501D03*
X36740Y-50501D03*
X36150Y-50501D03*
X33740Y-50501D03*
X33150Y-50501D03*
X32740Y-50501D03*
X32150Y-50501D03*
X31740Y-50501D03*
X31150Y-50501D03*
X30740Y-50501D03*
X30150Y-50501D03*
X37740Y-50501D03*
X37150Y-50501D03*
X37740Y-44301D03*
X37150Y-44301D03*
X36740Y-44301D03*
X36150Y-44301D03*
X35740Y-44301D03*
X35150Y-44301D03*
X34740Y-44301D03*
X34150Y-44301D03*
X31740Y-44301D03*
X31150Y-44301D03*
X33740Y-44301D03*
X33150Y-44301D03*
X32740Y-44301D03*
X32150Y-44301D03*
X32740Y-54183D03*
X32150Y-54183D03*
X33740Y-54183D03*
X33150Y-54183D03*
X31740Y-54183D03*
X31150Y-54183D03*
X34740Y-54183D03*
X34150Y-54183D03*
X35740Y-54183D03*
X35150Y-54183D03*
X36740Y-54183D03*
X36150Y-54183D03*
X37740Y-54183D03*
X37150Y-54183D03*
X37740Y-60383D03*
X37150Y-60383D03*
X30740Y-60383D03*
X30150Y-60383D03*
X31740Y-60383D03*
X31150Y-60383D03*
X32740Y-60383D03*
X32150Y-60383D03*
X33740Y-60383D03*
X33150Y-60383D03*
X36740Y-60383D03*
X36150Y-60383D03*
X34740Y-60383D03*
X34150Y-60383D03*
X35740Y-60383D03*
X35150Y-60383D03*
G54D19*
X28819Y-56934D03*
X28819Y-57682D03*
X27994Y-56934D03*
X27994Y-57682D03*
G54D17*
X37538Y-56674D03*
X36750Y-56674D03*
G54D18*
X37144Y-57954D03*
G54D16*
X30740Y-59730D03*
X30150Y-59730D03*
X31740Y-59730D03*
X31150Y-59730D03*
X33740Y-59730D03*
X33150Y-59730D03*
X32740Y-59730D03*
X32150Y-59730D03*
X34740Y-59730D03*
X34150Y-59730D03*
X35740Y-59730D03*
X35150Y-59730D03*
X36740Y-59730D03*
X36150Y-59730D03*
X37740Y-59730D03*
X37150Y-59730D03*
X32740Y-54830D03*
X32150Y-54830D03*
X33740Y-54830D03*
X33150Y-54830D03*
X35740Y-54830D03*
X35150Y-54830D03*
X34740Y-54830D03*
X34150Y-54830D03*
X36740Y-54830D03*
X36150Y-54830D03*
X35197Y-57579D03*
X35197Y-56989D03*
X37740Y-54830D03*
X37150Y-54830D03*
X31740Y-54830D03*
X31150Y-54830D03*
X30740Y-54830D03*
X30150Y-54830D03*
G54D15*
X29779Y-58858D03*
X30172Y-58858D03*
X30566Y-58858D03*
X30960Y-58858D03*
X31353Y-58858D03*
X31747Y-58858D03*
X32141Y-58858D03*
X32535Y-58858D03*
X32928Y-58858D03*
X33322Y-58858D03*
X33716Y-58858D03*
X34109Y-58858D03*
X34109Y-55708D03*
X33716Y-55708D03*
X33322Y-55708D03*
X32928Y-55708D03*
X32535Y-55708D03*
X32141Y-55708D03*
X31747Y-55708D03*
X31353Y-55708D03*
X30960Y-55708D03*
X30566Y-55708D03*
X30172Y-55708D03*
X29779Y-55708D03*
G54D13*
X26444Y-61283D03*
G54D14*
X27444Y-61283D03*
X28444Y-61283D03*
X29444Y-61283D03*
X30444Y-61283D03*
X31444Y-61283D03*
X32444Y-61283D03*
X33444Y-61283D03*
X34444Y-61283D03*
X35444Y-61283D03*
X36444Y-61283D03*
X37444Y-61283D03*
G54D13*
X26444Y-53283D03*
G54D14*
X27444Y-53283D03*
X28444Y-53283D03*
X29444Y-53283D03*
X30444Y-53283D03*
X31444Y-53283D03*
X32444Y-53283D03*
X33444Y-53283D03*
X34444Y-53283D03*
X35444Y-53283D03*
X36444Y-53283D03*
X37444Y-53283D03*
G54D13*
X26456Y-56783D03*
G54D14*
X26456Y-57783D03*
G54D12*
X30740Y-54183D03*
X30150Y-54183D03*
X56488Y-34419D03*
X55898Y-34419D03*
G54D13*
X52204Y-37019D03*
G54D14*
X52204Y-38019D03*
G54D13*
X52192Y-33519D03*
G54D14*
X53192Y-33519D03*
X54192Y-33519D03*
X55192Y-33519D03*
X56192Y-33519D03*
X57192Y-33519D03*
X58192Y-33519D03*
X59192Y-33519D03*
X60192Y-33519D03*
X61192Y-33519D03*
X62192Y-33519D03*
X63192Y-33519D03*
G54D13*
X52192Y-41519D03*
G54D14*
X53192Y-41519D03*
X54192Y-41519D03*
X55192Y-41519D03*
X56192Y-41519D03*
X57192Y-41519D03*
X58192Y-41519D03*
X59192Y-41519D03*
X60192Y-41519D03*
X61192Y-41519D03*
X62192Y-41519D03*
X63192Y-41519D03*
G54D15*
X55527Y-39094D03*
X55920Y-39094D03*
X56314Y-39094D03*
X56708Y-39094D03*
X57101Y-39094D03*
X57495Y-39094D03*
X57889Y-39094D03*
X58283Y-39094D03*
X58676Y-39094D03*
X59070Y-39094D03*
X59464Y-39094D03*
X59857Y-39094D03*
X59857Y-35944D03*
X59464Y-35944D03*
X59070Y-35944D03*
X58676Y-35944D03*
X58283Y-35944D03*
X57889Y-35944D03*
X57495Y-35944D03*
X57101Y-35944D03*
X56708Y-35944D03*
X56314Y-35944D03*
X55920Y-35944D03*
X55527Y-35944D03*
G54D16*
X56488Y-35066D03*
X55898Y-35066D03*
X57488Y-35066D03*
X56898Y-35066D03*
X63488Y-35066D03*
X62898Y-35066D03*
X60945Y-37815D03*
X60945Y-37225D03*
X62488Y-35066D03*
X61898Y-35066D03*
X60488Y-35066D03*
X59898Y-35066D03*
X61488Y-35066D03*
X60898Y-35066D03*
X59488Y-35066D03*
X58898Y-35066D03*
X58488Y-35066D03*
X57898Y-35066D03*
X63488Y-39966D03*
X62898Y-39966D03*
X62488Y-39966D03*
X61898Y-39966D03*
X61488Y-39966D03*
X60898Y-39966D03*
X60488Y-39966D03*
X59898Y-39966D03*
X58488Y-39966D03*
X57898Y-39966D03*
X59488Y-39966D03*
X58898Y-39966D03*
X57488Y-39966D03*
X56898Y-39966D03*
X56488Y-39966D03*
X55898Y-39966D03*
G54D17*
X63286Y-36910D03*
X62498Y-36910D03*
G54D18*
X62892Y-38190D03*
G54D19*
X53742Y-37170D03*
X53742Y-37918D03*
X54567Y-37170D03*
X54567Y-37918D03*
G54D12*
X61488Y-40619D03*
X60898Y-40619D03*
X60488Y-40619D03*
X59898Y-40619D03*
X62488Y-40619D03*
X61898Y-40619D03*
X59488Y-40619D03*
X58898Y-40619D03*
X58488Y-40619D03*
X57898Y-40619D03*
X57488Y-40619D03*
X56898Y-40619D03*
X56488Y-40619D03*
X55898Y-40619D03*
X63488Y-40619D03*
X62898Y-40619D03*
X63488Y-34419D03*
X62898Y-34419D03*
X62488Y-34419D03*
X61898Y-34419D03*
X61488Y-34419D03*
X60898Y-34419D03*
X60488Y-34419D03*
X59898Y-34419D03*
X57488Y-34419D03*
X56898Y-34419D03*
X59488Y-34419D03*
X58898Y-34419D03*
X58488Y-34419D03*
X57898Y-34419D03*
X58488Y-24537D03*
X57898Y-24537D03*
X59488Y-24537D03*
X58898Y-24537D03*
X57488Y-24537D03*
X56898Y-24537D03*
X60488Y-24537D03*
X59898Y-24537D03*
X61488Y-24537D03*
X60898Y-24537D03*
X62488Y-24537D03*
X61898Y-24537D03*
X63488Y-24537D03*
X62898Y-24537D03*
X63488Y-30737D03*
X62898Y-30737D03*
X56488Y-30737D03*
X55898Y-30737D03*
X57488Y-30737D03*
X56898Y-30737D03*
X58488Y-30737D03*
X57898Y-30737D03*
X59488Y-30737D03*
X58898Y-30737D03*
X62488Y-30737D03*
X61898Y-30737D03*
X60488Y-30737D03*
X59898Y-30737D03*
X61488Y-30737D03*
X60898Y-30737D03*
G54D19*
X54567Y-27288D03*
X54567Y-28036D03*
X53742Y-27288D03*
X53742Y-28036D03*
G54D17*
X63286Y-27028D03*
X62498Y-27028D03*
G54D18*
X62892Y-28308D03*
G54D16*
X56488Y-30084D03*
X55898Y-30084D03*
X57488Y-30084D03*
X56898Y-30084D03*
X59488Y-30084D03*
X58898Y-30084D03*
X58488Y-30084D03*
X57898Y-30084D03*
X60488Y-30084D03*
X59898Y-30084D03*
X61488Y-30084D03*
X60898Y-30084D03*
X62488Y-30084D03*
X61898Y-30084D03*
X63488Y-30084D03*
X62898Y-30084D03*
X58488Y-25184D03*
X57898Y-25184D03*
X59488Y-25184D03*
X58898Y-25184D03*
X61488Y-25184D03*
X60898Y-25184D03*
X60488Y-25184D03*
X59898Y-25184D03*
X62488Y-25184D03*
X61898Y-25184D03*
X60945Y-27933D03*
X60945Y-27343D03*
X63488Y-25184D03*
X62898Y-25184D03*
X57488Y-25184D03*
X56898Y-25184D03*
X56488Y-25184D03*
X55898Y-25184D03*
G54D15*
X55527Y-29212D03*
X55920Y-29212D03*
X56314Y-29212D03*
X56708Y-29212D03*
X57101Y-29212D03*
X57495Y-29212D03*
X57889Y-29212D03*
X58283Y-29212D03*
X58676Y-29212D03*
X59070Y-29212D03*
X59464Y-29212D03*
X59857Y-29212D03*
X59857Y-26062D03*
X59464Y-26062D03*
X59070Y-26062D03*
X58676Y-26062D03*
X58283Y-26062D03*
X57889Y-26062D03*
X57495Y-26062D03*
X57101Y-26062D03*
X56708Y-26062D03*
X56314Y-26062D03*
X55920Y-26062D03*
X55527Y-26062D03*
G54D13*
X52192Y-31637D03*
G54D14*
X53192Y-31637D03*
X54192Y-31637D03*
X55192Y-31637D03*
X56192Y-31637D03*
X57192Y-31637D03*
X58192Y-31637D03*
X59192Y-31637D03*
X60192Y-31637D03*
X61192Y-31637D03*
X62192Y-31637D03*
X63192Y-31637D03*
G54D13*
X52192Y-23637D03*
G54D14*
X53192Y-23637D03*
X54192Y-23637D03*
X55192Y-23637D03*
X56192Y-23637D03*
X57192Y-23637D03*
X58192Y-23637D03*
X59192Y-23637D03*
X60192Y-23637D03*
X61192Y-23637D03*
X62192Y-23637D03*
X63192Y-23637D03*
G54D13*
X52204Y-27137D03*
G54D14*
X52204Y-28137D03*
G54D12*
X56488Y-24537D03*
X55898Y-24537D03*
X56488Y-44301D03*
X55898Y-44301D03*
G54D13*
X52204Y-46901D03*
G54D14*
X52204Y-47901D03*
G54D13*
X52192Y-43401D03*
G54D14*
X53192Y-43401D03*
X54192Y-43401D03*
X55192Y-43401D03*
X56192Y-43401D03*
X57192Y-43401D03*
X58192Y-43401D03*
X59192Y-43401D03*
X60192Y-43401D03*
X61192Y-43401D03*
X62192Y-43401D03*
X63192Y-43401D03*
G54D13*
X52192Y-51401D03*
G54D14*
X53192Y-51401D03*
X54192Y-51401D03*
X55192Y-51401D03*
X56192Y-51401D03*
X57192Y-51401D03*
X58192Y-51401D03*
X59192Y-51401D03*
X60192Y-51401D03*
X61192Y-51401D03*
X62192Y-51401D03*
X63192Y-51401D03*
G54D15*
X55527Y-48976D03*
X55920Y-48976D03*
X56314Y-48976D03*
X56708Y-48976D03*
X57101Y-48976D03*
X57495Y-48976D03*
X57889Y-48976D03*
X58283Y-48976D03*
X58676Y-48976D03*
X59070Y-48976D03*
X59464Y-48976D03*
X59857Y-48976D03*
X59857Y-45826D03*
X59464Y-45826D03*
X59070Y-45826D03*
X58676Y-45826D03*
X58283Y-45826D03*
X57889Y-45826D03*
X57495Y-45826D03*
X57101Y-45826D03*
X56708Y-45826D03*
X56314Y-45826D03*
X55920Y-45826D03*
X55527Y-45826D03*
G54D16*
X56488Y-44948D03*
X55898Y-44948D03*
X57488Y-44948D03*
X56898Y-44948D03*
X63488Y-44948D03*
X62898Y-44948D03*
X60945Y-47697D03*
X60945Y-47107D03*
X62488Y-44948D03*
X61898Y-44948D03*
X60488Y-44948D03*
X59898Y-44948D03*
X61488Y-44948D03*
X60898Y-44948D03*
X59488Y-44948D03*
X58898Y-44948D03*
X58488Y-44948D03*
X57898Y-44948D03*
X63488Y-49848D03*
X62898Y-49848D03*
X62488Y-49848D03*
X61898Y-49848D03*
X61488Y-49848D03*
X60898Y-49848D03*
X60488Y-49848D03*
X59898Y-49848D03*
X58488Y-49848D03*
X57898Y-49848D03*
X59488Y-49848D03*
X58898Y-49848D03*
X57488Y-49848D03*
X56898Y-49848D03*
X56488Y-49848D03*
X55898Y-49848D03*
G54D17*
X63286Y-46792D03*
X62498Y-46792D03*
G54D18*
X62892Y-48072D03*
G54D19*
X53742Y-47052D03*
X53742Y-47800D03*
X54567Y-47052D03*
X54567Y-47800D03*
G54D12*
X61488Y-50501D03*
X60898Y-50501D03*
X60488Y-50501D03*
X59898Y-50501D03*
X62488Y-50501D03*
X61898Y-50501D03*
X59488Y-50501D03*
X58898Y-50501D03*
X58488Y-50501D03*
X57898Y-50501D03*
X57488Y-50501D03*
X56898Y-50501D03*
X56488Y-50501D03*
X55898Y-50501D03*
X63488Y-50501D03*
X62898Y-50501D03*
X63488Y-44301D03*
X62898Y-44301D03*
X62488Y-44301D03*
X61898Y-44301D03*
X61488Y-44301D03*
X60898Y-44301D03*
X60488Y-44301D03*
X59898Y-44301D03*
X57488Y-44301D03*
X56898Y-44301D03*
X59488Y-44301D03*
X58898Y-44301D03*
X58488Y-44301D03*
X57898Y-44301D03*
X58488Y-54183D03*
X57898Y-54183D03*
X59488Y-54183D03*
X58898Y-54183D03*
X57488Y-54183D03*
X56898Y-54183D03*
X60488Y-54183D03*
X59898Y-54183D03*
X61488Y-54183D03*
X60898Y-54183D03*
X62488Y-54183D03*
X61898Y-54183D03*
X63488Y-54183D03*
X62898Y-54183D03*
X63488Y-60383D03*
X62898Y-60383D03*
X56488Y-60383D03*
X55898Y-60383D03*
X57488Y-60383D03*
X56898Y-60383D03*
X58488Y-60383D03*
X57898Y-60383D03*
X59488Y-60383D03*
X58898Y-60383D03*
X62488Y-60383D03*
X61898Y-60383D03*
X60488Y-60383D03*
X59898Y-60383D03*
X61488Y-60383D03*
X60898Y-60383D03*
G54D19*
X54567Y-56934D03*
X54567Y-57682D03*
X53742Y-56934D03*
X53742Y-57682D03*
G54D17*
X63286Y-56674D03*
X62498Y-56674D03*
G54D18*
X62892Y-57954D03*
G54D16*
X56488Y-59730D03*
X55898Y-59730D03*
X57488Y-59730D03*
X56898Y-59730D03*
X59488Y-59730D03*
X58898Y-59730D03*
X58488Y-59730D03*
X57898Y-59730D03*
X60488Y-59730D03*
X59898Y-59730D03*
X61488Y-59730D03*
X60898Y-59730D03*
X62488Y-59730D03*
X61898Y-59730D03*
X63488Y-59730D03*
X62898Y-59730D03*
X58488Y-54830D03*
X57898Y-54830D03*
X59488Y-54830D03*
X58898Y-54830D03*
X61488Y-54830D03*
X60898Y-54830D03*
X60488Y-54830D03*
X59898Y-54830D03*
X62488Y-54830D03*
X61898Y-54830D03*
X60945Y-57579D03*
X60945Y-56989D03*
X63488Y-54830D03*
X62898Y-54830D03*
X57488Y-54830D03*
X56898Y-54830D03*
X56488Y-54830D03*
X55898Y-54830D03*
G54D15*
X55527Y-58858D03*
X55920Y-58858D03*
X56314Y-58858D03*
X56708Y-58858D03*
X57101Y-58858D03*
X57495Y-58858D03*
X57889Y-58858D03*
X58283Y-58858D03*
X58676Y-58858D03*
X59070Y-58858D03*
X59464Y-58858D03*
X59857Y-58858D03*
X59857Y-55708D03*
X59464Y-55708D03*
X59070Y-55708D03*
X58676Y-55708D03*
X58283Y-55708D03*
X57889Y-55708D03*
X57495Y-55708D03*
X57101Y-55708D03*
X56708Y-55708D03*
X56314Y-55708D03*
X55920Y-55708D03*
X55527Y-55708D03*
G54D13*
X52192Y-61283D03*
G54D14*
X53192Y-61283D03*
X54192Y-61283D03*
X55192Y-61283D03*
X56192Y-61283D03*
X57192Y-61283D03*
X58192Y-61283D03*
X59192Y-61283D03*
X60192Y-61283D03*
X61192Y-61283D03*
X62192Y-61283D03*
X63192Y-61283D03*
G54D13*
X52192Y-53283D03*
G54D14*
X53192Y-53283D03*
X54192Y-53283D03*
X55192Y-53283D03*
X56192Y-53283D03*
X57192Y-53283D03*
X58192Y-53283D03*
X59192Y-53283D03*
X60192Y-53283D03*
X61192Y-53283D03*
X62192Y-53283D03*
X63192Y-53283D03*
G54D13*
X52204Y-56783D03*
G54D14*
X52204Y-57783D03*
G54D12*
X56488Y-54183D03*
X55898Y-54183D03*
M02*
