G04 (created by PCBNEW (2013-04-03 BZR 4062)-testing) date Fri 05 Apr 2013 04:05:24 PM CEST*
%MOIN*%
G04 Gerber Fmt 3.4, Leading zero omitted, Abs format*
%FSLAX34Y34*%
G01*
G70*
G90*
G04 APERTURE LIST*
%ADD10C,0.006*%
%ADD11C,0.00787402*%
%ADD12C,0.00393701*%
%ADD13C,0.00984252*%
G04 APERTURE END LIST*
G54D10*
G54D11*
X38385Y-22500D02*
X38385Y-62421D01*
X51259Y-62421D02*
X51259Y-22500D01*
G54D12*
X44232Y-19173D02*
X43641Y-19173D01*
X44468Y-20000D02*
X44232Y-19173D01*
X44704Y-19173D02*
X45295Y-19173D01*
X44468Y-20000D02*
X44704Y-19173D01*
X44232Y-21692D02*
X43641Y-21692D01*
X44468Y-20866D02*
X44232Y-21692D01*
X44704Y-21692D02*
X45295Y-21692D01*
X44468Y-20866D02*
X44704Y-21692D01*
X43641Y-19173D02*
X41515Y-19173D01*
X45295Y-19173D02*
X47421Y-19173D01*
X43641Y-21692D02*
X41515Y-21692D01*
X45295Y-21692D02*
X47421Y-21692D01*
G54D13*
X42125Y-17641D02*
X42387Y-18428D01*
X42649Y-17641D01*
X42912Y-18128D02*
X43512Y-18128D01*
X43849Y-18391D02*
X43924Y-18428D01*
X44074Y-18428D01*
X44149Y-18391D01*
X44187Y-18316D01*
X44187Y-18278D01*
X44149Y-18203D01*
X44074Y-18166D01*
X43962Y-18166D01*
X43887Y-18128D01*
X43849Y-18053D01*
X43849Y-18016D01*
X43887Y-17941D01*
X43962Y-17904D01*
X44074Y-17904D01*
X44149Y-17941D01*
X44862Y-18391D02*
X44787Y-18428D01*
X44637Y-18428D01*
X44562Y-18391D01*
X44524Y-18353D01*
X44487Y-18278D01*
X44487Y-18053D01*
X44524Y-17979D01*
X44562Y-17941D01*
X44637Y-17904D01*
X44787Y-17904D01*
X44862Y-17941D01*
X45312Y-18428D02*
X45237Y-18391D01*
X45199Y-18353D01*
X45162Y-18278D01*
X45162Y-18053D01*
X45199Y-17979D01*
X45237Y-17941D01*
X45312Y-17904D01*
X45424Y-17904D01*
X45499Y-17941D01*
X45537Y-17979D01*
X45574Y-18053D01*
X45574Y-18278D01*
X45537Y-18353D01*
X45499Y-18391D01*
X45424Y-18428D01*
X45312Y-18428D01*
X45912Y-18428D02*
X45912Y-17904D01*
X45912Y-18053D02*
X45949Y-17979D01*
X45987Y-17941D01*
X46062Y-17904D01*
X46137Y-17904D01*
X46699Y-18391D02*
X46624Y-18428D01*
X46474Y-18428D01*
X46399Y-18391D01*
X46362Y-18316D01*
X46362Y-18016D01*
X46399Y-17941D01*
X46474Y-17904D01*
X46624Y-17904D01*
X46699Y-17941D01*
X46736Y-18016D01*
X46736Y-18091D01*
X46362Y-18166D01*
M02*
