G04 (created by PCBNEW (2013-04-03 BZR 4062)-testing) date Thu 04 Apr 2013 12:57:26 AM CEST*
%MOIN*%
G04 Gerber Fmt 3.4, Leading zero omitted, Abs format*
%FSLAX34Y34*%
G01*
G70*
G90*
G04 APERTURE LIST*
%ADD10C,0.006*%
%ADD11R,0.0649606X0.0649606*%
%ADD12C,0.0649606*%
%ADD13C,0.025*%
%ADD14C,0.012*%
%ADD15C,0.024*%
%ADD16C,0.02*%
G04 APERTURE END LIST*
G54D10*
G54D11*
X26456Y-27137D03*
G54D12*
X26456Y-28137D03*
G54D11*
X26444Y-23637D03*
G54D12*
X27444Y-23637D03*
X28444Y-23637D03*
X29444Y-23637D03*
X30444Y-23637D03*
X31444Y-23637D03*
X32444Y-23637D03*
X33444Y-23637D03*
X34444Y-23637D03*
X35444Y-23637D03*
X36444Y-23637D03*
X37444Y-23637D03*
G54D11*
X26444Y-31637D03*
G54D12*
X27444Y-31637D03*
X28444Y-31637D03*
X29444Y-31637D03*
X30444Y-31637D03*
X31444Y-31637D03*
X32444Y-31637D03*
X33444Y-31637D03*
X34444Y-31637D03*
X35444Y-31637D03*
X36444Y-31637D03*
X37444Y-31637D03*
G54D11*
X26444Y-41519D03*
G54D12*
X27444Y-41519D03*
X28444Y-41519D03*
X29444Y-41519D03*
X30444Y-41519D03*
X31444Y-41519D03*
X32444Y-41519D03*
X33444Y-41519D03*
X34444Y-41519D03*
X35444Y-41519D03*
X36444Y-41519D03*
X37444Y-41519D03*
G54D11*
X26444Y-33519D03*
G54D12*
X27444Y-33519D03*
X28444Y-33519D03*
X29444Y-33519D03*
X30444Y-33519D03*
X31444Y-33519D03*
X32444Y-33519D03*
X33444Y-33519D03*
X34444Y-33519D03*
X35444Y-33519D03*
X36444Y-33519D03*
X37444Y-33519D03*
G54D11*
X26456Y-37019D03*
G54D12*
X26456Y-38019D03*
G54D11*
X26456Y-46901D03*
G54D12*
X26456Y-47901D03*
G54D11*
X26444Y-43401D03*
G54D12*
X27444Y-43401D03*
X28444Y-43401D03*
X29444Y-43401D03*
X30444Y-43401D03*
X31444Y-43401D03*
X32444Y-43401D03*
X33444Y-43401D03*
X34444Y-43401D03*
X35444Y-43401D03*
X36444Y-43401D03*
X37444Y-43401D03*
G54D11*
X26444Y-51401D03*
G54D12*
X27444Y-51401D03*
X28444Y-51401D03*
X29444Y-51401D03*
X30444Y-51401D03*
X31444Y-51401D03*
X32444Y-51401D03*
X33444Y-51401D03*
X34444Y-51401D03*
X35444Y-51401D03*
X36444Y-51401D03*
X37444Y-51401D03*
G54D11*
X26444Y-61283D03*
G54D12*
X27444Y-61283D03*
X28444Y-61283D03*
X29444Y-61283D03*
X30444Y-61283D03*
X31444Y-61283D03*
X32444Y-61283D03*
X33444Y-61283D03*
X34444Y-61283D03*
X35444Y-61283D03*
X36444Y-61283D03*
X37444Y-61283D03*
G54D11*
X26444Y-53283D03*
G54D12*
X27444Y-53283D03*
X28444Y-53283D03*
X29444Y-53283D03*
X30444Y-53283D03*
X31444Y-53283D03*
X32444Y-53283D03*
X33444Y-53283D03*
X34444Y-53283D03*
X35444Y-53283D03*
X36444Y-53283D03*
X37444Y-53283D03*
G54D11*
X26456Y-56783D03*
G54D12*
X26456Y-57783D03*
G54D11*
X39330Y-56783D03*
G54D12*
X39330Y-57783D03*
G54D11*
X39318Y-53283D03*
G54D12*
X40318Y-53283D03*
X41318Y-53283D03*
X42318Y-53283D03*
X43318Y-53283D03*
X44318Y-53283D03*
X45318Y-53283D03*
X46318Y-53283D03*
X47318Y-53283D03*
X48318Y-53283D03*
X49318Y-53283D03*
X50318Y-53283D03*
G54D11*
X39318Y-61283D03*
G54D12*
X40318Y-61283D03*
X41318Y-61283D03*
X42318Y-61283D03*
X43318Y-61283D03*
X44318Y-61283D03*
X45318Y-61283D03*
X46318Y-61283D03*
X47318Y-61283D03*
X48318Y-61283D03*
X49318Y-61283D03*
X50318Y-61283D03*
G54D11*
X39318Y-51401D03*
G54D12*
X40318Y-51401D03*
X41318Y-51401D03*
X42318Y-51401D03*
X43318Y-51401D03*
X44318Y-51401D03*
X45318Y-51401D03*
X46318Y-51401D03*
X47318Y-51401D03*
X48318Y-51401D03*
X49318Y-51401D03*
X50318Y-51401D03*
G54D11*
X39318Y-43401D03*
G54D12*
X40318Y-43401D03*
X41318Y-43401D03*
X42318Y-43401D03*
X43318Y-43401D03*
X44318Y-43401D03*
X45318Y-43401D03*
X46318Y-43401D03*
X47318Y-43401D03*
X48318Y-43401D03*
X49318Y-43401D03*
X50318Y-43401D03*
G54D11*
X39330Y-46901D03*
G54D12*
X39330Y-47901D03*
G54D11*
X39330Y-37019D03*
G54D12*
X39330Y-38019D03*
G54D11*
X39318Y-33519D03*
G54D12*
X40318Y-33519D03*
X41318Y-33519D03*
X42318Y-33519D03*
X43318Y-33519D03*
X44318Y-33519D03*
X45318Y-33519D03*
X46318Y-33519D03*
X47318Y-33519D03*
X48318Y-33519D03*
X49318Y-33519D03*
X50318Y-33519D03*
G54D11*
X39318Y-41519D03*
G54D12*
X40318Y-41519D03*
X41318Y-41519D03*
X42318Y-41519D03*
X43318Y-41519D03*
X44318Y-41519D03*
X45318Y-41519D03*
X46318Y-41519D03*
X47318Y-41519D03*
X48318Y-41519D03*
X49318Y-41519D03*
X50318Y-41519D03*
G54D11*
X39318Y-31637D03*
G54D12*
X40318Y-31637D03*
X41318Y-31637D03*
X42318Y-31637D03*
X43318Y-31637D03*
X44318Y-31637D03*
X45318Y-31637D03*
X46318Y-31637D03*
X47318Y-31637D03*
X48318Y-31637D03*
X49318Y-31637D03*
X50318Y-31637D03*
G54D11*
X39318Y-23637D03*
G54D12*
X40318Y-23637D03*
X41318Y-23637D03*
X42318Y-23637D03*
X43318Y-23637D03*
X44318Y-23637D03*
X45318Y-23637D03*
X46318Y-23637D03*
X47318Y-23637D03*
X48318Y-23637D03*
X49318Y-23637D03*
X50318Y-23637D03*
G54D11*
X39330Y-27137D03*
G54D12*
X39330Y-28137D03*
G54D11*
X52204Y-27137D03*
G54D12*
X52204Y-28137D03*
G54D11*
X52192Y-23637D03*
G54D12*
X53192Y-23637D03*
X54192Y-23637D03*
X55192Y-23637D03*
X56192Y-23637D03*
X57192Y-23637D03*
X58192Y-23637D03*
X59192Y-23637D03*
X60192Y-23637D03*
X61192Y-23637D03*
X62192Y-23637D03*
X63192Y-23637D03*
G54D11*
X52192Y-31637D03*
G54D12*
X53192Y-31637D03*
X54192Y-31637D03*
X55192Y-31637D03*
X56192Y-31637D03*
X57192Y-31637D03*
X58192Y-31637D03*
X59192Y-31637D03*
X60192Y-31637D03*
X61192Y-31637D03*
X62192Y-31637D03*
X63192Y-31637D03*
G54D11*
X52192Y-41519D03*
G54D12*
X53192Y-41519D03*
X54192Y-41519D03*
X55192Y-41519D03*
X56192Y-41519D03*
X57192Y-41519D03*
X58192Y-41519D03*
X59192Y-41519D03*
X60192Y-41519D03*
X61192Y-41519D03*
X62192Y-41519D03*
X63192Y-41519D03*
G54D11*
X52192Y-33519D03*
G54D12*
X53192Y-33519D03*
X54192Y-33519D03*
X55192Y-33519D03*
X56192Y-33519D03*
X57192Y-33519D03*
X58192Y-33519D03*
X59192Y-33519D03*
X60192Y-33519D03*
X61192Y-33519D03*
X62192Y-33519D03*
X63192Y-33519D03*
G54D11*
X52204Y-37019D03*
G54D12*
X52204Y-38019D03*
G54D11*
X52204Y-46901D03*
G54D12*
X52204Y-47901D03*
G54D11*
X52192Y-43401D03*
G54D12*
X53192Y-43401D03*
X54192Y-43401D03*
X55192Y-43401D03*
X56192Y-43401D03*
X57192Y-43401D03*
X58192Y-43401D03*
X59192Y-43401D03*
X60192Y-43401D03*
X61192Y-43401D03*
X62192Y-43401D03*
X63192Y-43401D03*
G54D11*
X52192Y-51401D03*
G54D12*
X53192Y-51401D03*
X54192Y-51401D03*
X55192Y-51401D03*
X56192Y-51401D03*
X57192Y-51401D03*
X58192Y-51401D03*
X59192Y-51401D03*
X60192Y-51401D03*
X61192Y-51401D03*
X62192Y-51401D03*
X63192Y-51401D03*
G54D11*
X52192Y-61283D03*
G54D12*
X53192Y-61283D03*
X54192Y-61283D03*
X55192Y-61283D03*
X56192Y-61283D03*
X57192Y-61283D03*
X58192Y-61283D03*
X59192Y-61283D03*
X60192Y-61283D03*
X61192Y-61283D03*
X62192Y-61283D03*
X63192Y-61283D03*
G54D11*
X52192Y-53283D03*
G54D12*
X53192Y-53283D03*
X54192Y-53283D03*
X55192Y-53283D03*
X56192Y-53283D03*
X57192Y-53283D03*
X58192Y-53283D03*
X59192Y-53283D03*
X60192Y-53283D03*
X61192Y-53283D03*
X62192Y-53283D03*
X63192Y-53283D03*
G54D11*
X52204Y-56783D03*
G54D12*
X52204Y-57783D03*
G54D13*
X30590Y-28503D03*
X30590Y-38385D03*
X30590Y-48267D03*
X30590Y-58149D03*
X43464Y-58149D03*
X43464Y-48267D03*
X43464Y-38385D03*
X43464Y-28503D03*
X56338Y-28503D03*
X56338Y-38385D03*
X56338Y-48267D03*
X56338Y-58149D03*
X30984Y-26732D03*
X30984Y-36614D03*
X30984Y-46496D03*
X30984Y-56377D03*
X43858Y-56377D03*
X43858Y-46496D03*
X43858Y-36614D03*
X43858Y-26732D03*
X56732Y-26732D03*
X56732Y-36614D03*
X56732Y-46496D03*
X56732Y-56377D03*
X30984Y-28503D03*
X30984Y-38385D03*
X30984Y-48267D03*
X30984Y-58149D03*
X43858Y-58149D03*
X43858Y-48267D03*
X43858Y-38385D03*
X43858Y-28503D03*
X56732Y-28503D03*
X56732Y-38385D03*
X56732Y-48267D03*
X56732Y-58149D03*
X31377Y-28503D03*
X31377Y-38385D03*
X31377Y-48267D03*
X31377Y-58149D03*
X44251Y-58149D03*
X44251Y-48267D03*
X44251Y-38385D03*
X44251Y-28503D03*
X57125Y-28503D03*
X57125Y-38385D03*
X57125Y-48267D03*
X57125Y-58149D03*
X31771Y-28503D03*
X31771Y-38385D03*
X31771Y-48267D03*
X31771Y-58149D03*
X44645Y-58149D03*
X44645Y-48267D03*
X44645Y-38385D03*
X44645Y-28503D03*
X57519Y-28503D03*
X57519Y-38385D03*
X57519Y-48267D03*
X57519Y-58149D03*
X33346Y-26732D03*
X33346Y-36614D03*
X33346Y-46496D03*
X33346Y-56377D03*
X46220Y-56377D03*
X46220Y-46496D03*
X46220Y-36614D03*
X46220Y-26732D03*
X59094Y-26732D03*
X59094Y-36614D03*
X59094Y-46496D03*
X59094Y-56377D03*
X32952Y-26732D03*
X32952Y-36614D03*
X32952Y-46496D03*
X32952Y-56377D03*
X45826Y-56377D03*
X45826Y-46496D03*
X45826Y-36614D03*
X45826Y-26732D03*
X58700Y-26732D03*
X58700Y-36614D03*
X58700Y-46496D03*
X58700Y-56377D03*
X32559Y-26732D03*
X32559Y-36614D03*
X32559Y-46496D03*
X32559Y-56377D03*
X45433Y-56377D03*
X45433Y-46496D03*
X45433Y-36614D03*
X45433Y-26732D03*
X58307Y-26732D03*
X58307Y-36614D03*
X58307Y-46496D03*
X58307Y-56377D03*
X32165Y-26732D03*
X32165Y-36614D03*
X32165Y-46496D03*
X32165Y-56377D03*
X45039Y-56377D03*
X45039Y-46496D03*
X45039Y-36614D03*
X45039Y-26732D03*
X57913Y-26732D03*
X57913Y-36614D03*
X57913Y-46496D03*
X57913Y-56377D03*
X31771Y-26732D03*
X31771Y-36614D03*
X31771Y-46496D03*
X31771Y-56377D03*
X44645Y-56377D03*
X44645Y-46496D03*
X44645Y-36614D03*
X44645Y-26732D03*
X57519Y-26732D03*
X57519Y-36614D03*
X57519Y-46496D03*
X57519Y-56377D03*
X31377Y-26732D03*
X31377Y-36614D03*
X31377Y-46496D03*
X31377Y-56377D03*
X44251Y-56377D03*
X44251Y-46496D03*
X44251Y-36614D03*
X44251Y-26732D03*
X57125Y-26732D03*
X57125Y-36614D03*
X57125Y-46496D03*
X57125Y-56377D03*
X32165Y-28503D03*
X32165Y-38385D03*
X32165Y-48267D03*
X32165Y-58149D03*
X45039Y-58149D03*
X45039Y-48267D03*
X45039Y-38385D03*
X45039Y-28503D03*
X57913Y-28503D03*
X57913Y-38385D03*
X57913Y-48267D03*
X57913Y-58149D03*
X32559Y-28503D03*
X32559Y-38385D03*
X32559Y-48267D03*
X32559Y-58149D03*
X45433Y-58149D03*
X45433Y-48267D03*
X45433Y-38385D03*
X45433Y-28503D03*
X58307Y-28503D03*
X58307Y-38385D03*
X58307Y-48267D03*
X58307Y-58149D03*
X32952Y-28503D03*
X32952Y-38385D03*
X32952Y-48267D03*
X32952Y-58149D03*
X45826Y-58149D03*
X45826Y-48267D03*
X45826Y-38385D03*
X45826Y-28503D03*
X58700Y-28503D03*
X58700Y-38385D03*
X58700Y-48267D03*
X58700Y-58149D03*
X33346Y-28503D03*
X33346Y-38385D03*
X33346Y-48267D03*
X33346Y-58149D03*
X46220Y-58149D03*
X46220Y-48267D03*
X46220Y-38385D03*
X46220Y-28503D03*
X59094Y-28503D03*
X59094Y-38385D03*
X59094Y-48267D03*
X59094Y-58149D03*
X33740Y-28503D03*
X33740Y-38385D03*
X33740Y-48267D03*
X33740Y-58149D03*
X46614Y-58149D03*
X46614Y-48267D03*
X46614Y-38385D03*
X46614Y-28503D03*
X59488Y-28503D03*
X59488Y-38385D03*
X59488Y-48267D03*
X59488Y-58149D03*
X34566Y-29251D03*
X34566Y-39133D03*
X34566Y-49015D03*
X34566Y-58897D03*
X47440Y-58897D03*
X47440Y-49015D03*
X47440Y-39133D03*
X47440Y-29251D03*
X60314Y-29251D03*
X60314Y-39133D03*
X60314Y-49015D03*
X60314Y-58897D03*
X34544Y-26087D03*
X34544Y-35969D03*
X34544Y-45851D03*
X34544Y-55733D03*
X47418Y-55733D03*
X47418Y-45851D03*
X47418Y-35969D03*
X47418Y-26087D03*
X60292Y-26087D03*
X60292Y-35969D03*
X60292Y-45851D03*
X60292Y-55733D03*
X33740Y-26732D03*
X33740Y-36614D03*
X33740Y-46496D03*
X33740Y-56377D03*
X46614Y-56377D03*
X46614Y-46496D03*
X46614Y-36614D03*
X46614Y-26732D03*
X59488Y-26732D03*
X59488Y-36614D03*
X59488Y-46496D03*
X59488Y-56377D03*
X30196Y-26732D03*
X30196Y-36614D03*
X30196Y-46496D03*
X30196Y-56377D03*
X43070Y-56377D03*
X43070Y-46496D03*
X43070Y-36614D03*
X43070Y-26732D03*
X55944Y-26732D03*
X55944Y-36614D03*
X55944Y-46496D03*
X55944Y-56377D03*
X30196Y-28503D03*
X30196Y-38385D03*
X30196Y-48267D03*
X30196Y-58149D03*
X43070Y-58149D03*
X43070Y-48267D03*
X43070Y-38385D03*
X43070Y-28503D03*
X55944Y-28503D03*
X55944Y-38385D03*
X55944Y-48267D03*
X55944Y-58149D03*
X30590Y-26732D03*
X30590Y-36614D03*
X30590Y-46496D03*
X30590Y-56377D03*
X43464Y-56377D03*
X43464Y-46496D03*
X43464Y-36614D03*
X43464Y-26732D03*
X56338Y-26732D03*
X56338Y-36614D03*
X56338Y-46496D03*
X56338Y-56377D03*
X34665Y-26751D03*
X34665Y-28622D03*
X34665Y-38503D03*
X34665Y-36633D03*
X34665Y-46515D03*
X34665Y-48385D03*
X34665Y-58267D03*
X34665Y-56397D03*
X47539Y-56397D03*
X47539Y-58267D03*
X47539Y-48385D03*
X47539Y-46515D03*
X47539Y-36633D03*
X47539Y-38503D03*
X47539Y-28622D03*
X47539Y-26751D03*
X60413Y-26751D03*
X60413Y-28622D03*
X60413Y-38503D03*
X60413Y-36633D03*
X60413Y-46515D03*
X60413Y-48385D03*
X60413Y-58267D03*
X60413Y-56397D03*
X29344Y-26037D03*
X29344Y-35919D03*
X29344Y-45801D03*
X29344Y-55683D03*
X42218Y-55683D03*
X42218Y-45801D03*
X42218Y-35919D03*
X42218Y-26037D03*
X55092Y-26037D03*
X55092Y-35919D03*
X55092Y-45801D03*
X55092Y-55683D03*
G54D14*
X30590Y-28503D02*
X30590Y-29492D01*
X30590Y-29492D02*
X28444Y-31637D01*
X30590Y-39374D02*
X28444Y-41519D01*
X30590Y-38385D02*
X30590Y-39374D01*
X30590Y-48267D02*
X30590Y-49255D01*
X30590Y-49255D02*
X28444Y-51401D01*
X30590Y-59137D02*
X28444Y-61283D01*
X30590Y-58149D02*
X30590Y-59137D01*
X43464Y-58149D02*
X43464Y-59137D01*
X43464Y-59137D02*
X41318Y-61283D01*
X43464Y-49255D02*
X41318Y-51401D01*
X43464Y-48267D02*
X43464Y-49255D01*
X43464Y-38385D02*
X43464Y-39374D01*
X43464Y-39374D02*
X41318Y-41519D01*
X43464Y-29492D02*
X41318Y-31637D01*
X43464Y-28503D02*
X43464Y-29492D01*
X56338Y-28503D02*
X56338Y-29492D01*
X56338Y-29492D02*
X54192Y-31637D01*
X56338Y-39374D02*
X54192Y-41519D01*
X56338Y-38385D02*
X56338Y-39374D01*
X56338Y-48267D02*
X56338Y-49255D01*
X56338Y-49255D02*
X54192Y-51401D01*
X56338Y-59137D02*
X54192Y-61283D01*
X56338Y-58149D02*
X56338Y-59137D01*
X30984Y-26732D02*
X30984Y-25177D01*
X30984Y-25177D02*
X29444Y-23637D01*
X30984Y-35059D02*
X29444Y-33519D01*
X30984Y-36614D02*
X30984Y-35059D01*
X30984Y-46496D02*
X30984Y-44940D01*
X30984Y-44940D02*
X29444Y-43401D01*
X30984Y-54822D02*
X29444Y-53283D01*
X30984Y-56377D02*
X30984Y-54822D01*
X43858Y-56377D02*
X43858Y-54822D01*
X43858Y-54822D02*
X42318Y-53283D01*
X43858Y-44940D02*
X42318Y-43401D01*
X43858Y-46496D02*
X43858Y-44940D01*
X43858Y-36614D02*
X43858Y-35059D01*
X43858Y-35059D02*
X42318Y-33519D01*
X43858Y-25177D02*
X42318Y-23637D01*
X43858Y-26732D02*
X43858Y-25177D01*
X56732Y-26732D02*
X56732Y-25177D01*
X56732Y-25177D02*
X55192Y-23637D01*
X56732Y-35059D02*
X55192Y-33519D01*
X56732Y-36614D02*
X56732Y-35059D01*
X56732Y-46496D02*
X56732Y-44940D01*
X56732Y-44940D02*
X55192Y-43401D01*
X56732Y-54822D02*
X55192Y-53283D01*
X56732Y-56377D02*
X56732Y-54822D01*
X30984Y-28503D02*
X30984Y-30098D01*
X30984Y-30098D02*
X29444Y-31637D01*
X30984Y-39980D02*
X29444Y-41519D01*
X30984Y-38385D02*
X30984Y-39980D01*
X30984Y-48267D02*
X30984Y-49862D01*
X30984Y-49862D02*
X29444Y-51401D01*
X30984Y-59744D02*
X29444Y-61283D01*
X30984Y-58149D02*
X30984Y-59744D01*
X43858Y-58149D02*
X43858Y-59744D01*
X43858Y-59744D02*
X42318Y-61283D01*
X43858Y-49862D02*
X42318Y-51401D01*
X43858Y-48267D02*
X43858Y-49862D01*
X43858Y-38385D02*
X43858Y-39980D01*
X43858Y-39980D02*
X42318Y-41519D01*
X43858Y-30098D02*
X42318Y-31637D01*
X43858Y-28503D02*
X43858Y-30098D01*
X56732Y-28503D02*
X56732Y-30098D01*
X56732Y-30098D02*
X55192Y-31637D01*
X56732Y-39980D02*
X55192Y-41519D01*
X56732Y-38385D02*
X56732Y-39980D01*
X56732Y-48267D02*
X56732Y-49862D01*
X56732Y-49862D02*
X55192Y-51401D01*
X56732Y-59744D02*
X55192Y-61283D01*
X56732Y-58149D02*
X56732Y-59744D01*
X31377Y-28503D02*
X31377Y-30704D01*
X31377Y-30704D02*
X30444Y-31637D01*
X31377Y-40586D02*
X30444Y-41519D01*
X31377Y-38385D02*
X31377Y-40586D01*
X31377Y-48267D02*
X31377Y-50468D01*
X31377Y-50468D02*
X30444Y-51401D01*
X31377Y-60350D02*
X30444Y-61283D01*
X31377Y-58149D02*
X31377Y-60350D01*
X44251Y-58149D02*
X44251Y-60350D01*
X44251Y-60350D02*
X43318Y-61283D01*
X44251Y-50468D02*
X43318Y-51401D01*
X44251Y-48267D02*
X44251Y-50468D01*
X44251Y-38385D02*
X44251Y-40586D01*
X44251Y-40586D02*
X43318Y-41519D01*
X44251Y-30704D02*
X43318Y-31637D01*
X44251Y-28503D02*
X44251Y-30704D01*
X57125Y-28503D02*
X57125Y-30704D01*
X57125Y-30704D02*
X56192Y-31637D01*
X57125Y-40586D02*
X56192Y-41519D01*
X57125Y-38385D02*
X57125Y-40586D01*
X57125Y-48267D02*
X57125Y-50468D01*
X57125Y-50468D02*
X56192Y-51401D01*
X57125Y-60350D02*
X56192Y-61283D01*
X57125Y-58149D02*
X57125Y-60350D01*
X31771Y-28503D02*
X31771Y-31311D01*
X31771Y-31311D02*
X31444Y-31637D01*
X31771Y-41192D02*
X31444Y-41519D01*
X31771Y-38385D02*
X31771Y-41192D01*
X31771Y-48267D02*
X31771Y-51074D01*
X31771Y-51074D02*
X31444Y-51401D01*
X31771Y-60956D02*
X31444Y-61283D01*
X31771Y-58149D02*
X31771Y-60956D01*
X44645Y-58149D02*
X44645Y-60956D01*
X44645Y-60956D02*
X44318Y-61283D01*
X44645Y-51074D02*
X44318Y-51401D01*
X44645Y-48267D02*
X44645Y-51074D01*
X44645Y-38385D02*
X44645Y-41192D01*
X44645Y-41192D02*
X44318Y-41519D01*
X44645Y-31311D02*
X44318Y-31637D01*
X44645Y-28503D02*
X44645Y-31311D01*
X57519Y-28503D02*
X57519Y-31311D01*
X57519Y-31311D02*
X57192Y-31637D01*
X57519Y-41192D02*
X57192Y-41519D01*
X57519Y-38385D02*
X57519Y-41192D01*
X57519Y-48267D02*
X57519Y-51074D01*
X57519Y-51074D02*
X57192Y-51401D01*
X57519Y-60956D02*
X57192Y-61283D01*
X57519Y-58149D02*
X57519Y-60956D01*
X33346Y-26732D02*
X33346Y-25736D01*
X33346Y-25736D02*
X35444Y-23637D01*
X33346Y-35618D02*
X35444Y-33519D01*
X33346Y-36614D02*
X33346Y-35618D01*
X33346Y-46496D02*
X33346Y-45500D01*
X33346Y-45500D02*
X35444Y-43401D01*
X33346Y-55381D02*
X35444Y-53283D01*
X33346Y-56377D02*
X33346Y-55381D01*
X46220Y-56377D02*
X46220Y-55381D01*
X46220Y-55381D02*
X48318Y-53283D01*
X46220Y-45500D02*
X48318Y-43401D01*
X46220Y-46496D02*
X46220Y-45500D01*
X46220Y-36614D02*
X46220Y-35618D01*
X46220Y-35618D02*
X48318Y-33519D01*
X46220Y-25736D02*
X48318Y-23637D01*
X46220Y-26732D02*
X46220Y-25736D01*
X59094Y-26732D02*
X59094Y-25736D01*
X59094Y-25736D02*
X61192Y-23637D01*
X59094Y-35618D02*
X61192Y-33519D01*
X59094Y-36614D02*
X59094Y-35618D01*
X59094Y-46496D02*
X59094Y-45500D01*
X59094Y-45500D02*
X61192Y-43401D01*
X59094Y-55381D02*
X61192Y-53283D01*
X59094Y-56377D02*
X59094Y-55381D01*
X32952Y-26732D02*
X32952Y-25129D01*
X32952Y-25129D02*
X34444Y-23637D01*
X32952Y-35011D02*
X34444Y-33519D01*
X32952Y-36614D02*
X32952Y-35011D01*
X32952Y-46496D02*
X32952Y-44893D01*
X32952Y-44893D02*
X34444Y-43401D01*
X32952Y-54775D02*
X34444Y-53283D01*
X32952Y-56377D02*
X32952Y-54775D01*
X45826Y-56377D02*
X45826Y-54775D01*
X45826Y-54775D02*
X47318Y-53283D01*
X45826Y-44893D02*
X47318Y-43401D01*
X45826Y-46496D02*
X45826Y-44893D01*
X45826Y-36614D02*
X45826Y-35011D01*
X45826Y-35011D02*
X47318Y-33519D01*
X45826Y-25129D02*
X47318Y-23637D01*
X45826Y-26732D02*
X45826Y-25129D01*
X58700Y-26732D02*
X58700Y-25129D01*
X58700Y-25129D02*
X60192Y-23637D01*
X58700Y-35011D02*
X60192Y-33519D01*
X58700Y-36614D02*
X58700Y-35011D01*
X58700Y-46496D02*
X58700Y-44893D01*
X58700Y-44893D02*
X60192Y-43401D01*
X58700Y-54775D02*
X60192Y-53283D01*
X58700Y-56377D02*
X58700Y-54775D01*
X32559Y-26732D02*
X32559Y-24523D01*
X32559Y-24523D02*
X33444Y-23637D01*
X32559Y-34405D02*
X33444Y-33519D01*
X32559Y-36614D02*
X32559Y-34405D01*
X32559Y-46496D02*
X32559Y-44287D01*
X32559Y-44287D02*
X33444Y-43401D01*
X32559Y-54169D02*
X33444Y-53283D01*
X32559Y-56377D02*
X32559Y-54169D01*
X45433Y-56377D02*
X45433Y-54169D01*
X45433Y-54169D02*
X46318Y-53283D01*
X45433Y-44287D02*
X46318Y-43401D01*
X45433Y-46496D02*
X45433Y-44287D01*
X45433Y-36614D02*
X45433Y-34405D01*
X45433Y-34405D02*
X46318Y-33519D01*
X45433Y-24523D02*
X46318Y-23637D01*
X45433Y-26732D02*
X45433Y-24523D01*
X58307Y-26732D02*
X58307Y-24523D01*
X58307Y-24523D02*
X59192Y-23637D01*
X58307Y-34405D02*
X59192Y-33519D01*
X58307Y-36614D02*
X58307Y-34405D01*
X58307Y-46496D02*
X58307Y-44287D01*
X58307Y-44287D02*
X59192Y-43401D01*
X58307Y-54169D02*
X59192Y-53283D01*
X58307Y-56377D02*
X58307Y-54169D01*
X32165Y-26732D02*
X32165Y-23917D01*
X32165Y-23917D02*
X32444Y-23637D01*
X32165Y-33799D02*
X32444Y-33519D01*
X32165Y-36614D02*
X32165Y-33799D01*
X32165Y-46496D02*
X32165Y-43681D01*
X32165Y-43681D02*
X32444Y-43401D01*
X32165Y-53562D02*
X32444Y-53283D01*
X32165Y-56377D02*
X32165Y-53562D01*
X45039Y-56377D02*
X45039Y-53562D01*
X45039Y-53562D02*
X45318Y-53283D01*
X45039Y-43681D02*
X45318Y-43401D01*
X45039Y-46496D02*
X45039Y-43681D01*
X45039Y-36614D02*
X45039Y-33799D01*
X45039Y-33799D02*
X45318Y-33519D01*
X45039Y-23917D02*
X45318Y-23637D01*
X45039Y-26732D02*
X45039Y-23917D01*
X57913Y-26732D02*
X57913Y-23917D01*
X57913Y-23917D02*
X58192Y-23637D01*
X57913Y-33799D02*
X58192Y-33519D01*
X57913Y-36614D02*
X57913Y-33799D01*
X57913Y-46496D02*
X57913Y-43681D01*
X57913Y-43681D02*
X58192Y-43401D01*
X57913Y-53562D02*
X58192Y-53283D01*
X57913Y-56377D02*
X57913Y-53562D01*
X31771Y-26732D02*
X31771Y-23964D01*
X31771Y-23964D02*
X31444Y-23637D01*
X31771Y-33846D02*
X31444Y-33519D01*
X31771Y-36614D02*
X31771Y-33846D01*
X31771Y-46496D02*
X31771Y-43728D01*
X31771Y-43728D02*
X31444Y-43401D01*
X31771Y-53610D02*
X31444Y-53283D01*
X31771Y-56377D02*
X31771Y-53610D01*
X44645Y-56377D02*
X44645Y-53610D01*
X44645Y-53610D02*
X44318Y-53283D01*
X44645Y-43728D02*
X44318Y-43401D01*
X44645Y-46496D02*
X44645Y-43728D01*
X44645Y-36614D02*
X44645Y-33846D01*
X44645Y-33846D02*
X44318Y-33519D01*
X44645Y-23964D02*
X44318Y-23637D01*
X44645Y-26732D02*
X44645Y-23964D01*
X57519Y-26732D02*
X57519Y-23964D01*
X57519Y-23964D02*
X57192Y-23637D01*
X57519Y-33846D02*
X57192Y-33519D01*
X57519Y-36614D02*
X57519Y-33846D01*
X57519Y-46496D02*
X57519Y-43728D01*
X57519Y-43728D02*
X57192Y-43401D01*
X57519Y-53610D02*
X57192Y-53283D01*
X57519Y-56377D02*
X57519Y-53610D01*
X31377Y-26732D02*
X31377Y-24570D01*
X31377Y-24570D02*
X30444Y-23637D01*
X31377Y-34452D02*
X30444Y-33519D01*
X31377Y-36614D02*
X31377Y-34452D01*
X31377Y-46496D02*
X31377Y-44334D01*
X31377Y-44334D02*
X30444Y-43401D01*
X31377Y-54216D02*
X30444Y-53283D01*
X31377Y-56377D02*
X31377Y-54216D01*
X44251Y-56377D02*
X44251Y-54216D01*
X44251Y-54216D02*
X43318Y-53283D01*
X44251Y-44334D02*
X43318Y-43401D01*
X44251Y-46496D02*
X44251Y-44334D01*
X44251Y-36614D02*
X44251Y-34452D01*
X44251Y-34452D02*
X43318Y-33519D01*
X44251Y-24570D02*
X43318Y-23637D01*
X44251Y-26732D02*
X44251Y-24570D01*
X57125Y-26732D02*
X57125Y-24570D01*
X57125Y-24570D02*
X56192Y-23637D01*
X57125Y-34452D02*
X56192Y-33519D01*
X57125Y-36614D02*
X57125Y-34452D01*
X57125Y-46496D02*
X57125Y-44334D01*
X57125Y-44334D02*
X56192Y-43401D01*
X57125Y-54216D02*
X56192Y-53283D01*
X57125Y-56377D02*
X57125Y-54216D01*
X32165Y-28503D02*
X32165Y-31358D01*
X32165Y-31358D02*
X32444Y-31637D01*
X32165Y-41240D02*
X32444Y-41519D01*
X32165Y-38385D02*
X32165Y-41240D01*
X32165Y-48267D02*
X32165Y-51122D01*
X32165Y-51122D02*
X32444Y-51401D01*
X32165Y-61003D02*
X32444Y-61283D01*
X32165Y-58149D02*
X32165Y-61003D01*
X45039Y-58149D02*
X45039Y-61003D01*
X45039Y-61003D02*
X45318Y-61283D01*
X45039Y-51122D02*
X45318Y-51401D01*
X45039Y-48267D02*
X45039Y-51122D01*
X45039Y-38385D02*
X45039Y-41240D01*
X45039Y-41240D02*
X45318Y-41519D01*
X45039Y-31358D02*
X45318Y-31637D01*
X45039Y-28503D02*
X45039Y-31358D01*
X57913Y-28503D02*
X57913Y-31358D01*
X57913Y-31358D02*
X58192Y-31637D01*
X57913Y-41240D02*
X58192Y-41519D01*
X57913Y-38385D02*
X57913Y-41240D01*
X57913Y-48267D02*
X57913Y-51122D01*
X57913Y-51122D02*
X58192Y-51401D01*
X57913Y-61003D02*
X58192Y-61283D01*
X57913Y-58149D02*
X57913Y-61003D01*
X32559Y-28503D02*
X32559Y-30751D01*
X32559Y-30751D02*
X33444Y-31637D01*
X32559Y-40633D02*
X33444Y-41519D01*
X32559Y-38385D02*
X32559Y-40633D01*
X32559Y-48267D02*
X32559Y-50515D01*
X32559Y-50515D02*
X33444Y-51401D01*
X32559Y-60397D02*
X33444Y-61283D01*
X32559Y-58149D02*
X32559Y-60397D01*
X45433Y-58149D02*
X45433Y-60397D01*
X45433Y-60397D02*
X46318Y-61283D01*
X45433Y-50515D02*
X46318Y-51401D01*
X45433Y-48267D02*
X45433Y-50515D01*
X45433Y-38385D02*
X45433Y-40633D01*
X45433Y-40633D02*
X46318Y-41519D01*
X45433Y-30751D02*
X46318Y-31637D01*
X45433Y-28503D02*
X45433Y-30751D01*
X58307Y-28503D02*
X58307Y-30751D01*
X58307Y-30751D02*
X59192Y-31637D01*
X58307Y-40633D02*
X59192Y-41519D01*
X58307Y-38385D02*
X58307Y-40633D01*
X58307Y-48267D02*
X58307Y-50515D01*
X58307Y-50515D02*
X59192Y-51401D01*
X58307Y-60397D02*
X59192Y-61283D01*
X58307Y-58149D02*
X58307Y-60397D01*
X32952Y-28503D02*
X32952Y-30145D01*
X32952Y-30145D02*
X34444Y-31637D01*
X32952Y-40027D02*
X34444Y-41519D01*
X32952Y-38385D02*
X32952Y-40027D01*
X32952Y-48267D02*
X32952Y-49909D01*
X32952Y-49909D02*
X34444Y-51401D01*
X32952Y-59791D02*
X34444Y-61283D01*
X32952Y-58149D02*
X32952Y-59791D01*
X45826Y-58149D02*
X45826Y-59791D01*
X45826Y-59791D02*
X47318Y-61283D01*
X45826Y-49909D02*
X47318Y-51401D01*
X45826Y-48267D02*
X45826Y-49909D01*
X45826Y-38385D02*
X45826Y-40027D01*
X45826Y-40027D02*
X47318Y-41519D01*
X45826Y-30145D02*
X47318Y-31637D01*
X45826Y-28503D02*
X45826Y-30145D01*
X58700Y-28503D02*
X58700Y-30145D01*
X58700Y-30145D02*
X60192Y-31637D01*
X58700Y-40027D02*
X60192Y-41519D01*
X58700Y-38385D02*
X58700Y-40027D01*
X58700Y-48267D02*
X58700Y-49909D01*
X58700Y-49909D02*
X60192Y-51401D01*
X58700Y-59791D02*
X60192Y-61283D01*
X58700Y-58149D02*
X58700Y-59791D01*
X33346Y-28503D02*
X33346Y-29539D01*
X33346Y-29539D02*
X35444Y-31637D01*
X33346Y-39421D02*
X35444Y-41519D01*
X33346Y-38385D02*
X33346Y-39421D01*
X33346Y-48267D02*
X33346Y-49303D01*
X33346Y-49303D02*
X35444Y-51401D01*
X33346Y-59185D02*
X35444Y-61283D01*
X33346Y-58149D02*
X33346Y-59185D01*
X46220Y-58149D02*
X46220Y-59185D01*
X46220Y-59185D02*
X48318Y-61283D01*
X46220Y-49303D02*
X48318Y-51401D01*
X46220Y-48267D02*
X46220Y-49303D01*
X46220Y-38385D02*
X46220Y-39421D01*
X46220Y-39421D02*
X48318Y-41519D01*
X46220Y-29539D02*
X48318Y-31637D01*
X46220Y-28503D02*
X46220Y-29539D01*
X59094Y-28503D02*
X59094Y-29539D01*
X59094Y-29539D02*
X61192Y-31637D01*
X59094Y-39421D02*
X61192Y-41519D01*
X59094Y-38385D02*
X59094Y-39421D01*
X59094Y-48267D02*
X59094Y-49303D01*
X59094Y-49303D02*
X61192Y-51401D01*
X59094Y-59185D02*
X61192Y-61283D01*
X59094Y-58149D02*
X59094Y-59185D01*
X33740Y-28503D02*
X33740Y-28933D01*
X33740Y-28933D02*
X36444Y-31637D01*
X33740Y-38814D02*
X36444Y-41519D01*
X33740Y-38385D02*
X33740Y-38814D01*
X33740Y-48267D02*
X33740Y-48696D01*
X33740Y-48696D02*
X36444Y-51401D01*
X33740Y-58578D02*
X36444Y-61283D01*
X33740Y-58149D02*
X33740Y-58578D01*
X46614Y-58149D02*
X46614Y-58578D01*
X46614Y-58578D02*
X49318Y-61283D01*
X46614Y-48696D02*
X49318Y-51401D01*
X46614Y-48267D02*
X46614Y-48696D01*
X46614Y-38385D02*
X46614Y-38814D01*
X46614Y-38814D02*
X49318Y-41519D01*
X46614Y-28933D02*
X49318Y-31637D01*
X46614Y-28503D02*
X46614Y-28933D01*
X59488Y-28503D02*
X59488Y-28933D01*
X59488Y-28933D02*
X62192Y-31637D01*
X59488Y-38814D02*
X62192Y-41519D01*
X59488Y-38385D02*
X59488Y-38814D01*
X59488Y-48267D02*
X59488Y-48696D01*
X59488Y-48696D02*
X62192Y-51401D01*
X59488Y-58578D02*
X62192Y-61283D01*
X59488Y-58149D02*
X59488Y-58578D01*
X34566Y-29251D02*
X35059Y-29251D01*
X35059Y-29251D02*
X37444Y-31637D01*
X35059Y-39133D02*
X37444Y-41519D01*
X34566Y-39133D02*
X35059Y-39133D01*
X34566Y-49015D02*
X35059Y-49015D01*
X35059Y-49015D02*
X37444Y-51401D01*
X35059Y-58897D02*
X37444Y-61283D01*
X34566Y-58897D02*
X35059Y-58897D01*
X47440Y-58897D02*
X47933Y-58897D01*
X47933Y-58897D02*
X50318Y-61283D01*
X47933Y-49015D02*
X50318Y-51401D01*
X47440Y-49015D02*
X47933Y-49015D01*
X47440Y-39133D02*
X47933Y-39133D01*
X47933Y-39133D02*
X50318Y-41519D01*
X47933Y-29251D02*
X50318Y-31637D01*
X47440Y-29251D02*
X47933Y-29251D01*
X60314Y-29251D02*
X60807Y-29251D01*
X60807Y-29251D02*
X63192Y-31637D01*
X60807Y-39133D02*
X63192Y-41519D01*
X60314Y-39133D02*
X60807Y-39133D01*
X60314Y-49015D02*
X60807Y-49015D01*
X60807Y-49015D02*
X63192Y-51401D01*
X60807Y-58897D02*
X63192Y-61283D01*
X60314Y-58897D02*
X60807Y-58897D01*
X34994Y-26087D02*
X37444Y-23637D01*
X34544Y-26087D02*
X34994Y-26087D01*
X34544Y-35969D02*
X34994Y-35969D01*
X34994Y-35969D02*
X37444Y-33519D01*
X34994Y-45851D02*
X37444Y-43401D01*
X34544Y-45851D02*
X34994Y-45851D01*
X34544Y-55733D02*
X34994Y-55733D01*
X34994Y-55733D02*
X37444Y-53283D01*
X47868Y-55733D02*
X50318Y-53283D01*
X47418Y-55733D02*
X47868Y-55733D01*
X47418Y-45851D02*
X47868Y-45851D01*
X47868Y-45851D02*
X50318Y-43401D01*
X47868Y-35969D02*
X50318Y-33519D01*
X47418Y-35969D02*
X47868Y-35969D01*
X47418Y-26087D02*
X47868Y-26087D01*
X47868Y-26087D02*
X50318Y-23637D01*
X60742Y-26087D02*
X63192Y-23637D01*
X60292Y-26087D02*
X60742Y-26087D01*
X60292Y-35969D02*
X60742Y-35969D01*
X60742Y-35969D02*
X63192Y-33519D01*
X60742Y-45851D02*
X63192Y-43401D01*
X60292Y-45851D02*
X60742Y-45851D01*
X60292Y-55733D02*
X60742Y-55733D01*
X60742Y-55733D02*
X63192Y-53283D01*
X33740Y-26732D02*
X33740Y-26342D01*
X33740Y-26342D02*
X36444Y-23637D01*
X33740Y-36224D02*
X36444Y-33519D01*
X33740Y-36614D02*
X33740Y-36224D01*
X33740Y-46496D02*
X33740Y-46106D01*
X33740Y-46106D02*
X36444Y-43401D01*
X33740Y-55988D02*
X36444Y-53283D01*
X33740Y-56377D02*
X33740Y-55988D01*
X46614Y-56377D02*
X46614Y-55988D01*
X46614Y-55988D02*
X49318Y-53283D01*
X46614Y-46106D02*
X49318Y-43401D01*
X46614Y-46496D02*
X46614Y-46106D01*
X46614Y-36614D02*
X46614Y-36224D01*
X46614Y-36224D02*
X49318Y-33519D01*
X46614Y-26342D02*
X49318Y-23637D01*
X46614Y-26732D02*
X46614Y-26342D01*
X59488Y-26732D02*
X59488Y-26342D01*
X59488Y-26342D02*
X62192Y-23637D01*
X59488Y-36224D02*
X62192Y-33519D01*
X59488Y-36614D02*
X59488Y-36224D01*
X59488Y-46496D02*
X59488Y-46106D01*
X59488Y-46106D02*
X62192Y-43401D01*
X59488Y-55988D02*
X62192Y-53283D01*
X59488Y-56377D02*
X59488Y-55988D01*
X30196Y-26732D02*
X30196Y-26389D01*
X30196Y-26389D02*
X27444Y-23637D01*
X30196Y-36271D02*
X27444Y-33519D01*
X30196Y-36614D02*
X30196Y-36271D01*
X30196Y-46496D02*
X30196Y-46153D01*
X30196Y-46153D02*
X27444Y-43401D01*
X30196Y-56035D02*
X27444Y-53283D01*
X30196Y-56377D02*
X30196Y-56035D01*
X43070Y-56377D02*
X43070Y-56035D01*
X43070Y-56035D02*
X40318Y-53283D01*
X43070Y-46153D02*
X40318Y-43401D01*
X43070Y-46496D02*
X43070Y-46153D01*
X43070Y-36614D02*
X43070Y-36271D01*
X43070Y-36271D02*
X40318Y-33519D01*
X43070Y-26389D02*
X40318Y-23637D01*
X43070Y-26732D02*
X43070Y-26389D01*
X55944Y-26732D02*
X55944Y-26389D01*
X55944Y-26389D02*
X53192Y-23637D01*
X55944Y-36271D02*
X53192Y-33519D01*
X55944Y-36614D02*
X55944Y-36271D01*
X55944Y-46496D02*
X55944Y-46153D01*
X55944Y-46153D02*
X53192Y-43401D01*
X55944Y-56035D02*
X53192Y-53283D01*
X55944Y-56377D02*
X55944Y-56035D01*
X30196Y-28503D02*
X30196Y-28885D01*
X30196Y-28885D02*
X27444Y-31637D01*
X30196Y-38767D02*
X27444Y-41519D01*
X30196Y-38385D02*
X30196Y-38767D01*
X30196Y-48267D02*
X30196Y-48649D01*
X30196Y-48649D02*
X27444Y-51401D01*
X30196Y-58531D02*
X27444Y-61283D01*
X30196Y-58149D02*
X30196Y-58531D01*
X43070Y-58149D02*
X43070Y-58531D01*
X43070Y-58531D02*
X40318Y-61283D01*
X43070Y-48649D02*
X40318Y-51401D01*
X43070Y-48267D02*
X43070Y-48649D01*
X43070Y-38385D02*
X43070Y-38767D01*
X43070Y-38767D02*
X40318Y-41519D01*
X43070Y-28885D02*
X40318Y-31637D01*
X43070Y-28503D02*
X43070Y-28885D01*
X55944Y-28503D02*
X55944Y-28885D01*
X55944Y-28885D02*
X53192Y-31637D01*
X55944Y-38767D02*
X53192Y-41519D01*
X55944Y-38385D02*
X55944Y-38767D01*
X55944Y-48267D02*
X55944Y-48649D01*
X55944Y-48649D02*
X53192Y-51401D01*
X55944Y-58531D02*
X53192Y-61283D01*
X55944Y-58149D02*
X55944Y-58531D01*
X30590Y-26732D02*
X30590Y-25783D01*
X30590Y-25783D02*
X28444Y-23637D01*
X30590Y-35665D02*
X28444Y-33519D01*
X30590Y-36614D02*
X30590Y-35665D01*
X30590Y-46496D02*
X30590Y-45547D01*
X30590Y-45547D02*
X28444Y-43401D01*
X30590Y-55429D02*
X28444Y-53283D01*
X30590Y-56377D02*
X30590Y-55429D01*
X43464Y-56377D02*
X43464Y-55429D01*
X43464Y-55429D02*
X41318Y-53283D01*
X43464Y-45547D02*
X41318Y-43401D01*
X43464Y-46496D02*
X43464Y-45547D01*
X43464Y-36614D02*
X43464Y-35665D01*
X43464Y-35665D02*
X41318Y-33519D01*
X43464Y-25783D02*
X41318Y-23637D01*
X43464Y-26732D02*
X43464Y-25783D01*
X56338Y-26732D02*
X56338Y-25783D01*
X56338Y-25783D02*
X54192Y-23637D01*
X56338Y-35665D02*
X54192Y-33519D01*
X56338Y-36614D02*
X56338Y-35665D01*
X56338Y-46496D02*
X56338Y-45547D01*
X56338Y-45547D02*
X54192Y-43401D01*
X56338Y-55429D02*
X54192Y-53283D01*
X56338Y-56377D02*
X56338Y-55429D01*
G54D15*
X34665Y-27608D02*
X34665Y-28622D01*
X34665Y-27677D02*
X34665Y-27608D01*
X34665Y-26751D02*
X34665Y-27677D01*
X29332Y-28137D02*
X29793Y-27677D01*
X26456Y-28137D02*
X29332Y-28137D01*
X34665Y-27677D02*
X29793Y-27677D01*
X34665Y-37559D02*
X29793Y-37559D01*
X26456Y-38019D02*
X29332Y-38019D01*
X29332Y-38019D02*
X29793Y-37559D01*
X34665Y-36633D02*
X34665Y-37559D01*
X34665Y-37559D02*
X34665Y-37490D01*
X34665Y-37490D02*
X34665Y-38503D01*
X34665Y-47372D02*
X34665Y-48385D01*
X34665Y-47440D02*
X34665Y-47372D01*
X34665Y-46515D02*
X34665Y-47440D01*
X29332Y-47901D02*
X29793Y-47440D01*
X26456Y-47901D02*
X29332Y-47901D01*
X34665Y-47440D02*
X29793Y-47440D01*
X34665Y-57322D02*
X29793Y-57322D01*
X26456Y-57783D02*
X29332Y-57783D01*
X29332Y-57783D02*
X29793Y-57322D01*
X34665Y-56397D02*
X34665Y-57322D01*
X34665Y-57322D02*
X34665Y-57253D01*
X34665Y-57253D02*
X34665Y-58267D01*
X47539Y-57253D02*
X47539Y-58267D01*
X47539Y-57322D02*
X47539Y-57253D01*
X47539Y-56397D02*
X47539Y-57322D01*
X42206Y-57783D02*
X42667Y-57322D01*
X39330Y-57783D02*
X42206Y-57783D01*
X47539Y-57322D02*
X42667Y-57322D01*
X47539Y-47440D02*
X42667Y-47440D01*
X39330Y-47901D02*
X42206Y-47901D01*
X42206Y-47901D02*
X42667Y-47440D01*
X47539Y-46515D02*
X47539Y-47440D01*
X47539Y-47440D02*
X47539Y-47372D01*
X47539Y-47372D02*
X47539Y-48385D01*
X47539Y-37490D02*
X47539Y-38503D01*
X47539Y-37559D02*
X47539Y-37490D01*
X47539Y-36633D02*
X47539Y-37559D01*
X42206Y-38019D02*
X42667Y-37559D01*
X39330Y-38019D02*
X42206Y-38019D01*
X47539Y-37559D02*
X42667Y-37559D01*
X47539Y-27677D02*
X42667Y-27677D01*
X39330Y-28137D02*
X42206Y-28137D01*
X42206Y-28137D02*
X42667Y-27677D01*
X47539Y-26751D02*
X47539Y-27677D01*
X47539Y-27677D02*
X47539Y-27608D01*
X47539Y-27608D02*
X47539Y-28622D01*
X60413Y-27608D02*
X60413Y-28622D01*
X60413Y-27677D02*
X60413Y-27608D01*
X60413Y-26751D02*
X60413Y-27677D01*
X55080Y-28137D02*
X55541Y-27677D01*
X52204Y-28137D02*
X55080Y-28137D01*
X60413Y-27677D02*
X55541Y-27677D01*
X60413Y-37559D02*
X55541Y-37559D01*
X52204Y-38019D02*
X55080Y-38019D01*
X55080Y-38019D02*
X55541Y-37559D01*
X60413Y-36633D02*
X60413Y-37559D01*
X60413Y-37559D02*
X60413Y-37490D01*
X60413Y-37490D02*
X60413Y-38503D01*
X60413Y-47372D02*
X60413Y-48385D01*
X60413Y-47440D02*
X60413Y-47372D01*
X60413Y-46515D02*
X60413Y-47440D01*
X55080Y-47901D02*
X55541Y-47440D01*
X52204Y-47901D02*
X55080Y-47901D01*
X60413Y-47440D02*
X55541Y-47440D01*
X60413Y-57322D02*
X55541Y-57322D01*
X52204Y-57783D02*
X55080Y-57783D01*
X55080Y-57783D02*
X55541Y-57322D01*
X60413Y-56397D02*
X60413Y-57322D01*
X60413Y-57322D02*
X60413Y-57253D01*
X60413Y-57253D02*
X60413Y-58267D01*
G54D16*
X28844Y-26037D02*
X26444Y-23637D01*
X29344Y-26037D02*
X28844Y-26037D01*
X29344Y-35919D02*
X28844Y-35919D01*
X28844Y-35919D02*
X26444Y-33519D01*
X28844Y-45801D02*
X26444Y-43401D01*
X29344Y-45801D02*
X28844Y-45801D01*
X29344Y-55683D02*
X28844Y-55683D01*
X28844Y-55683D02*
X26444Y-53283D01*
X41718Y-55683D02*
X39318Y-53283D01*
X42218Y-55683D02*
X41718Y-55683D01*
X42218Y-45801D02*
X41718Y-45801D01*
X41718Y-45801D02*
X39318Y-43401D01*
X41718Y-35919D02*
X39318Y-33519D01*
X42218Y-35919D02*
X41718Y-35919D01*
X42218Y-26037D02*
X41718Y-26037D01*
X41718Y-26037D02*
X39318Y-23637D01*
X54592Y-26037D02*
X52192Y-23637D01*
X55092Y-26037D02*
X54592Y-26037D01*
X55092Y-35919D02*
X54592Y-35919D01*
X54592Y-35919D02*
X52192Y-33519D01*
X54592Y-45801D02*
X52192Y-43401D01*
X55092Y-45801D02*
X54592Y-45801D01*
X55092Y-55683D02*
X54592Y-55683D01*
X54592Y-55683D02*
X52192Y-53283D01*
M02*
