G04 (created by PCBNEW (2013-02-09 BZR 3938)-testing) date Sat 09 Feb 2013 10:45:36 PM CET*
%MOIN*%
G04 Gerber Fmt 3.4, Leading zero omitted, Abs format*
%FSLAX34Y34*%
G01*
G70*
G90*
G04 APERTURE LIST*
%ADD10C,2.3622e-06*%
%ADD11C,0.00787402*%
G04 APERTURE END LIST*
G54D10*
G54D11*
X53661Y-46284D02*
X53661Y-46246D01*
X53680Y-46209D01*
X53698Y-46190D01*
X53736Y-46171D01*
X53811Y-46152D01*
X53905Y-46152D01*
X53980Y-46171D01*
X54017Y-46190D01*
X54036Y-46209D01*
X54055Y-46246D01*
X54055Y-46284D01*
X54036Y-46321D01*
X54017Y-46340D01*
X53980Y-46359D01*
X53905Y-46377D01*
X53811Y-46377D01*
X53736Y-46359D01*
X53698Y-46340D01*
X53680Y-46321D01*
X53661Y-46284D01*
X54017Y-45984D02*
X54036Y-45965D01*
X54055Y-45984D01*
X54036Y-46002D01*
X54017Y-45984D01*
X54055Y-45984D01*
X53830Y-45740D02*
X53811Y-45778D01*
X53792Y-45796D01*
X53755Y-45815D01*
X53736Y-45815D01*
X53698Y-45796D01*
X53680Y-45778D01*
X53661Y-45740D01*
X53661Y-45665D01*
X53680Y-45628D01*
X53698Y-45609D01*
X53736Y-45590D01*
X53755Y-45590D01*
X53792Y-45609D01*
X53811Y-45628D01*
X53830Y-45665D01*
X53830Y-45740D01*
X53848Y-45778D01*
X53867Y-45796D01*
X53905Y-45815D01*
X53980Y-45815D01*
X54017Y-45796D01*
X54036Y-45778D01*
X54055Y-45740D01*
X54055Y-45665D01*
X54036Y-45628D01*
X54017Y-45609D01*
X53980Y-45590D01*
X53905Y-45590D01*
X53867Y-45609D01*
X53848Y-45628D01*
X53830Y-45665D01*
X53661Y-45346D02*
X53661Y-45309D01*
X53680Y-45271D01*
X53698Y-45253D01*
X53736Y-45234D01*
X53811Y-45215D01*
X53905Y-45215D01*
X53980Y-45234D01*
X54017Y-45253D01*
X54036Y-45271D01*
X54055Y-45309D01*
X54055Y-45346D01*
X54036Y-45384D01*
X54017Y-45403D01*
X53980Y-45421D01*
X53905Y-45440D01*
X53811Y-45440D01*
X53736Y-45421D01*
X53698Y-45403D01*
X53680Y-45384D01*
X53661Y-45346D01*
X53661Y-44971D02*
X53661Y-44934D01*
X53680Y-44896D01*
X53698Y-44878D01*
X53736Y-44859D01*
X53811Y-44840D01*
X53905Y-44840D01*
X53980Y-44859D01*
X54017Y-44878D01*
X54036Y-44896D01*
X54055Y-44934D01*
X54055Y-44971D01*
X54036Y-45009D01*
X54017Y-45028D01*
X53980Y-45046D01*
X53905Y-45065D01*
X53811Y-45065D01*
X53736Y-45046D01*
X53698Y-45028D01*
X53680Y-45009D01*
X53661Y-44971D01*
X53661Y-44596D02*
X53661Y-44559D01*
X53680Y-44521D01*
X53698Y-44503D01*
X53736Y-44484D01*
X53811Y-44465D01*
X53905Y-44465D01*
X53980Y-44484D01*
X54017Y-44503D01*
X54036Y-44521D01*
X54055Y-44559D01*
X54055Y-44596D01*
X54036Y-44634D01*
X54017Y-44653D01*
X53980Y-44671D01*
X53905Y-44690D01*
X53811Y-44690D01*
X53736Y-44671D01*
X53698Y-44653D01*
X53680Y-44634D01*
X53661Y-44596D01*
X54055Y-43997D02*
X53792Y-43997D01*
X53661Y-43997D02*
X53680Y-44015D01*
X53698Y-43997D01*
X53680Y-43978D01*
X53661Y-43997D01*
X53698Y-43997D01*
X53792Y-43809D02*
X54055Y-43809D01*
X53830Y-43809D02*
X53811Y-43790D01*
X53792Y-43753D01*
X53792Y-43697D01*
X53811Y-43659D01*
X53848Y-43640D01*
X54055Y-43640D01*
X54250Y-49000D02*
X54250Y-41000D01*
X55500Y-49000D02*
X53541Y-49000D01*
X55500Y-41000D02*
X53541Y-41000D01*
X54250Y-41000D02*
X54480Y-41443D01*
X54250Y-41000D02*
X54019Y-41443D01*
X54250Y-49000D02*
X54480Y-48556D01*
X54250Y-49000D02*
X54019Y-48556D01*
X68869Y-46284D02*
X68869Y-46246D01*
X68888Y-46209D01*
X68907Y-46190D01*
X68944Y-46171D01*
X69019Y-46152D01*
X69113Y-46152D01*
X69188Y-46171D01*
X69226Y-46190D01*
X69244Y-46209D01*
X69263Y-46246D01*
X69263Y-46284D01*
X69244Y-46321D01*
X69226Y-46340D01*
X69188Y-46359D01*
X69113Y-46377D01*
X69019Y-46377D01*
X68944Y-46359D01*
X68907Y-46340D01*
X68888Y-46321D01*
X68869Y-46284D01*
X69226Y-45984D02*
X69244Y-45965D01*
X69263Y-45984D01*
X69244Y-46002D01*
X69226Y-45984D01*
X69263Y-45984D01*
X69263Y-45778D02*
X69263Y-45703D01*
X69244Y-45665D01*
X69226Y-45646D01*
X69169Y-45609D01*
X69094Y-45590D01*
X68944Y-45590D01*
X68907Y-45609D01*
X68888Y-45628D01*
X68869Y-45665D01*
X68869Y-45740D01*
X68888Y-45778D01*
X68907Y-45796D01*
X68944Y-45815D01*
X69038Y-45815D01*
X69076Y-45796D01*
X69094Y-45778D01*
X69113Y-45740D01*
X69113Y-45665D01*
X69094Y-45628D01*
X69076Y-45609D01*
X69038Y-45590D01*
X68869Y-45234D02*
X68869Y-45421D01*
X69057Y-45440D01*
X69038Y-45421D01*
X69019Y-45384D01*
X69019Y-45290D01*
X69038Y-45253D01*
X69057Y-45234D01*
X69094Y-45215D01*
X69188Y-45215D01*
X69226Y-45234D01*
X69244Y-45253D01*
X69263Y-45290D01*
X69263Y-45384D01*
X69244Y-45421D01*
X69226Y-45440D01*
X68869Y-44971D02*
X68869Y-44934D01*
X68888Y-44896D01*
X68907Y-44878D01*
X68944Y-44859D01*
X69019Y-44840D01*
X69113Y-44840D01*
X69188Y-44859D01*
X69226Y-44878D01*
X69244Y-44896D01*
X69263Y-44934D01*
X69263Y-44971D01*
X69244Y-45009D01*
X69226Y-45028D01*
X69188Y-45046D01*
X69113Y-45065D01*
X69019Y-45065D01*
X68944Y-45046D01*
X68907Y-45028D01*
X68888Y-45009D01*
X68869Y-44971D01*
X68869Y-44596D02*
X68869Y-44559D01*
X68888Y-44521D01*
X68907Y-44503D01*
X68944Y-44484D01*
X69019Y-44465D01*
X69113Y-44465D01*
X69188Y-44484D01*
X69226Y-44503D01*
X69244Y-44521D01*
X69263Y-44559D01*
X69263Y-44596D01*
X69244Y-44634D01*
X69226Y-44653D01*
X69188Y-44671D01*
X69113Y-44690D01*
X69019Y-44690D01*
X68944Y-44671D01*
X68907Y-44653D01*
X68888Y-44634D01*
X68869Y-44596D01*
X69263Y-43997D02*
X69001Y-43997D01*
X68869Y-43997D02*
X68888Y-44015D01*
X68907Y-43997D01*
X68888Y-43978D01*
X68869Y-43997D01*
X68907Y-43997D01*
X69001Y-43809D02*
X69263Y-43809D01*
X69038Y-43809D02*
X69019Y-43790D01*
X69001Y-43753D01*
X69001Y-43697D01*
X69019Y-43659D01*
X69057Y-43640D01*
X69263Y-43640D01*
X68750Y-49750D02*
X68750Y-40250D01*
X67250Y-49750D02*
X69458Y-49750D01*
X67250Y-40250D02*
X69458Y-40250D01*
X68750Y-40250D02*
X68980Y-40693D01*
X68750Y-40250D02*
X68519Y-40693D01*
X68750Y-49750D02*
X68980Y-49306D01*
X68750Y-49750D02*
X68519Y-49306D01*
X59847Y-51763D02*
X59622Y-51763D01*
X59734Y-51763D02*
X59734Y-51369D01*
X59697Y-51426D01*
X59659Y-51463D01*
X59622Y-51482D01*
X60015Y-51726D02*
X60034Y-51744D01*
X60015Y-51763D01*
X59997Y-51744D01*
X60015Y-51726D01*
X60015Y-51763D01*
X60184Y-51407D02*
X60203Y-51388D01*
X60240Y-51369D01*
X60334Y-51369D01*
X60371Y-51388D01*
X60390Y-51407D01*
X60409Y-51444D01*
X60409Y-51482D01*
X60390Y-51538D01*
X60165Y-51763D01*
X60409Y-51763D01*
X60765Y-51369D02*
X60578Y-51369D01*
X60559Y-51557D01*
X60578Y-51538D01*
X60615Y-51519D01*
X60709Y-51519D01*
X60746Y-51538D01*
X60765Y-51557D01*
X60784Y-51594D01*
X60784Y-51688D01*
X60765Y-51726D01*
X60746Y-51744D01*
X60709Y-51763D01*
X60615Y-51763D01*
X60578Y-51744D01*
X60559Y-51726D01*
X61028Y-51369D02*
X61065Y-51369D01*
X61103Y-51388D01*
X61121Y-51407D01*
X61140Y-51444D01*
X61159Y-51519D01*
X61159Y-51613D01*
X61140Y-51688D01*
X61121Y-51726D01*
X61103Y-51744D01*
X61065Y-51763D01*
X61028Y-51763D01*
X60990Y-51744D01*
X60971Y-51726D01*
X60953Y-51688D01*
X60934Y-51613D01*
X60934Y-51519D01*
X60953Y-51444D01*
X60971Y-51407D01*
X60990Y-51388D01*
X61028Y-51369D01*
X61403Y-51369D02*
X61440Y-51369D01*
X61478Y-51388D01*
X61496Y-51407D01*
X61515Y-51444D01*
X61534Y-51519D01*
X61534Y-51613D01*
X61515Y-51688D01*
X61496Y-51726D01*
X61478Y-51744D01*
X61440Y-51763D01*
X61403Y-51763D01*
X61365Y-51744D01*
X61346Y-51726D01*
X61328Y-51688D01*
X61309Y-51613D01*
X61309Y-51519D01*
X61328Y-51444D01*
X61346Y-51407D01*
X61365Y-51388D01*
X61403Y-51369D01*
X62002Y-51763D02*
X62002Y-51501D01*
X62002Y-51369D02*
X61984Y-51388D01*
X62002Y-51407D01*
X62021Y-51388D01*
X62002Y-51369D01*
X62002Y-51407D01*
X62190Y-51501D02*
X62190Y-51763D01*
X62190Y-51538D02*
X62209Y-51519D01*
X62246Y-51501D01*
X62302Y-51501D01*
X62340Y-51519D01*
X62359Y-51557D01*
X62359Y-51763D01*
X54750Y-51249D02*
X67250Y-51249D01*
X54750Y-49750D02*
X54750Y-51958D01*
X67250Y-49750D02*
X67250Y-51958D01*
X67250Y-51249D02*
X66806Y-51480D01*
X67250Y-51249D02*
X66806Y-51019D01*
X54750Y-51249D02*
X55193Y-51480D01*
X54750Y-51249D02*
X55193Y-51019D01*
X67857Y-46631D02*
X67838Y-46612D01*
X67819Y-46574D01*
X67819Y-46481D01*
X67838Y-46443D01*
X67857Y-46424D01*
X67894Y-46406D01*
X67932Y-46406D01*
X67988Y-46424D01*
X68213Y-46649D01*
X68213Y-46406D01*
X67951Y-46068D02*
X68213Y-46068D01*
X67801Y-46162D02*
X68082Y-46256D01*
X68082Y-46012D01*
X68176Y-45862D02*
X68194Y-45843D01*
X68213Y-45862D01*
X68194Y-45881D01*
X68176Y-45862D01*
X68213Y-45862D01*
X68213Y-45468D02*
X68213Y-45693D01*
X68213Y-45581D02*
X67819Y-45581D01*
X67876Y-45618D01*
X67913Y-45656D01*
X67932Y-45693D01*
X67819Y-45337D02*
X67819Y-45093D01*
X67969Y-45224D01*
X67969Y-45168D01*
X67988Y-45131D01*
X68007Y-45112D01*
X68044Y-45093D01*
X68138Y-45093D01*
X68176Y-45112D01*
X68194Y-45131D01*
X68213Y-45168D01*
X68213Y-45281D01*
X68194Y-45318D01*
X68176Y-45337D01*
X67819Y-44850D02*
X67819Y-44812D01*
X67838Y-44775D01*
X67857Y-44756D01*
X67894Y-44737D01*
X67969Y-44718D01*
X68063Y-44718D01*
X68138Y-44737D01*
X68176Y-44756D01*
X68194Y-44775D01*
X68213Y-44812D01*
X68213Y-44850D01*
X68194Y-44887D01*
X68176Y-44906D01*
X68138Y-44925D01*
X68063Y-44943D01*
X67969Y-44943D01*
X67894Y-44925D01*
X67857Y-44906D01*
X67838Y-44887D01*
X67819Y-44850D01*
X68213Y-44250D02*
X67951Y-44250D01*
X67988Y-44250D02*
X67969Y-44231D01*
X67951Y-44193D01*
X67951Y-44137D01*
X67969Y-44100D01*
X68007Y-44081D01*
X68213Y-44081D01*
X68007Y-44081D02*
X67969Y-44062D01*
X67951Y-44025D01*
X67951Y-43968D01*
X67969Y-43931D01*
X68007Y-43912D01*
X68213Y-43912D01*
X68213Y-43725D02*
X67951Y-43725D01*
X67988Y-43725D02*
X67969Y-43706D01*
X67951Y-43668D01*
X67951Y-43612D01*
X67969Y-43575D01*
X68007Y-43556D01*
X68213Y-43556D01*
X68007Y-43556D02*
X67969Y-43537D01*
X67951Y-43500D01*
X67951Y-43443D01*
X67969Y-43406D01*
X68007Y-43387D01*
X68213Y-43387D01*
X67700Y-49750D02*
X67700Y-40250D01*
X67250Y-49750D02*
X68408Y-49750D01*
X67250Y-40250D02*
X68408Y-40250D01*
X67700Y-40250D02*
X67930Y-40693D01*
X67700Y-40250D02*
X67469Y-40693D01*
X67700Y-49750D02*
X67930Y-49306D01*
X67700Y-49750D02*
X67469Y-49306D01*
X59350Y-50319D02*
X59593Y-50319D01*
X59462Y-50469D01*
X59518Y-50469D01*
X59556Y-50488D01*
X59575Y-50507D01*
X59593Y-50544D01*
X59593Y-50638D01*
X59575Y-50676D01*
X59556Y-50694D01*
X59518Y-50713D01*
X59406Y-50713D01*
X59368Y-50694D01*
X59350Y-50676D01*
X59968Y-50713D02*
X59743Y-50713D01*
X59856Y-50713D02*
X59856Y-50319D01*
X59818Y-50376D01*
X59781Y-50413D01*
X59743Y-50432D01*
X60137Y-50676D02*
X60156Y-50694D01*
X60137Y-50713D01*
X60118Y-50694D01*
X60137Y-50676D01*
X60137Y-50713D01*
X60287Y-50319D02*
X60550Y-50319D01*
X60381Y-50713D01*
X60887Y-50319D02*
X60700Y-50319D01*
X60681Y-50507D01*
X60700Y-50488D01*
X60737Y-50469D01*
X60831Y-50469D01*
X60868Y-50488D01*
X60887Y-50507D01*
X60906Y-50544D01*
X60906Y-50638D01*
X60887Y-50676D01*
X60868Y-50694D01*
X60831Y-50713D01*
X60737Y-50713D01*
X60700Y-50694D01*
X60681Y-50676D01*
X61149Y-50319D02*
X61187Y-50319D01*
X61224Y-50338D01*
X61243Y-50357D01*
X61262Y-50394D01*
X61281Y-50469D01*
X61281Y-50563D01*
X61262Y-50638D01*
X61243Y-50676D01*
X61224Y-50694D01*
X61187Y-50713D01*
X61149Y-50713D01*
X61112Y-50694D01*
X61093Y-50676D01*
X61074Y-50638D01*
X61056Y-50563D01*
X61056Y-50469D01*
X61074Y-50394D01*
X61093Y-50357D01*
X61112Y-50338D01*
X61149Y-50319D01*
X61749Y-50713D02*
X61749Y-50451D01*
X61749Y-50488D02*
X61768Y-50469D01*
X61806Y-50451D01*
X61862Y-50451D01*
X61899Y-50469D01*
X61918Y-50507D01*
X61918Y-50713D01*
X61918Y-50507D02*
X61937Y-50469D01*
X61974Y-50451D01*
X62031Y-50451D01*
X62068Y-50469D01*
X62087Y-50507D01*
X62087Y-50713D01*
X62274Y-50713D02*
X62274Y-50451D01*
X62274Y-50488D02*
X62293Y-50469D01*
X62331Y-50451D01*
X62387Y-50451D01*
X62424Y-50469D01*
X62443Y-50507D01*
X62443Y-50713D01*
X62443Y-50507D02*
X62462Y-50469D01*
X62499Y-50451D01*
X62556Y-50451D01*
X62593Y-50469D01*
X62612Y-50507D01*
X62612Y-50713D01*
X54750Y-50199D02*
X67250Y-50199D01*
X54750Y-49750D02*
X54750Y-50908D01*
X67250Y-49750D02*
X67250Y-50908D01*
X67250Y-50199D02*
X66806Y-50430D01*
X67250Y-50199D02*
X66806Y-49969D01*
X54750Y-50199D02*
X55193Y-50430D01*
X54750Y-50199D02*
X55193Y-49969D01*
M02*
