G04 (created by PCBNEW (2013-01-19 BZR 3914)-testing) date Mon 21 Jan 2013 01:26:33 AM CET*
%MOIN*%
G04 Gerber Fmt 3.4, Leading zero omitted, Abs format*
%FSLAX34Y34*%
G01*
G70*
G90*
G04 APERTURE LIST*
%ADD10C,2.3622e-06*%
%ADD11C,0.00787402*%
%ADD12C,0.012*%
%ADD13C,0.0026*%
%ADD14C,0.002*%
%ADD15C,0.004*%
%ADD16C,0.015*%
%ADD17C,0.006*%
%ADD18C,0.001*%
%ADD19R,0.06X0.06*%
%ADD20C,0.06*%
%ADD21R,0.059X0.0511*%
%ADD22R,0.065X0.065*%
%ADD23C,0.065*%
%ADD24R,0.0472X0.0472*%
%ADD25R,0.063X0.0591*%
%ADD26R,0.0256X0.063*%
%ADD27R,0.0393X0.0433*%
%ADD28R,0.0433X0.0393*%
%ADD29R,0.0314X0.0314*%
G04 APERTURE END LIST*
G54D10*
G54D11*
X65259Y-45765D02*
X64865Y-45765D01*
X65296Y-45671D02*
X65296Y-45371D01*
X65240Y-45296D02*
X65259Y-45240D01*
X65259Y-45146D01*
X65240Y-45109D01*
X65221Y-45090D01*
X65184Y-45071D01*
X65146Y-45071D01*
X65109Y-45090D01*
X65090Y-45109D01*
X65071Y-45146D01*
X65053Y-45221D01*
X65034Y-45259D01*
X65015Y-45278D01*
X64978Y-45296D01*
X64940Y-45296D01*
X64903Y-45278D01*
X64884Y-45259D01*
X64865Y-45221D01*
X64865Y-45128D01*
X64884Y-45071D01*
X65053Y-44903D02*
X65053Y-44771D01*
X65259Y-44715D02*
X65259Y-44903D01*
X64865Y-44903D01*
X64865Y-44715D01*
X64865Y-44603D02*
X64865Y-44378D01*
X65259Y-44490D02*
X64865Y-44490D01*
X58284Y-42349D02*
X58265Y-42387D01*
X58265Y-42443D01*
X58284Y-42499D01*
X58321Y-42537D01*
X58359Y-42556D01*
X58434Y-42574D01*
X58490Y-42574D01*
X58565Y-42556D01*
X58603Y-42537D01*
X58640Y-42499D01*
X58659Y-42443D01*
X58659Y-42406D01*
X58640Y-42349D01*
X58621Y-42331D01*
X58490Y-42331D01*
X58490Y-42406D01*
X58621Y-41937D02*
X58640Y-41956D01*
X58659Y-42012D01*
X58659Y-42049D01*
X58640Y-42106D01*
X58603Y-42143D01*
X58565Y-42162D01*
X58490Y-42181D01*
X58434Y-42181D01*
X58359Y-42162D01*
X58321Y-42143D01*
X58284Y-42106D01*
X58265Y-42049D01*
X58265Y-42012D01*
X58284Y-41956D01*
X58303Y-41937D01*
X58659Y-41581D02*
X58659Y-41768D01*
X58265Y-41768D01*
X58659Y-41450D02*
X58265Y-41450D01*
X58659Y-41225D02*
X58434Y-41393D01*
X58265Y-41225D02*
X58490Y-41450D01*
X57640Y-42215D02*
X57659Y-42159D01*
X57659Y-42065D01*
X57640Y-42028D01*
X57621Y-42009D01*
X57584Y-41990D01*
X57546Y-41990D01*
X57509Y-42009D01*
X57490Y-42028D01*
X57471Y-42065D01*
X57453Y-42140D01*
X57434Y-42178D01*
X57415Y-42196D01*
X57378Y-42215D01*
X57340Y-42215D01*
X57303Y-42196D01*
X57284Y-42178D01*
X57265Y-42140D01*
X57265Y-42046D01*
X57284Y-41990D01*
X57659Y-41821D02*
X57265Y-41821D01*
X57265Y-41728D01*
X57284Y-41671D01*
X57321Y-41634D01*
X57359Y-41615D01*
X57434Y-41596D01*
X57490Y-41596D01*
X57565Y-41615D01*
X57603Y-41634D01*
X57640Y-41671D01*
X57659Y-41728D01*
X57659Y-41821D01*
X57265Y-41353D02*
X57265Y-41278D01*
X57284Y-41240D01*
X57321Y-41203D01*
X57396Y-41184D01*
X57528Y-41184D01*
X57603Y-41203D01*
X57640Y-41240D01*
X57659Y-41278D01*
X57659Y-41353D01*
X57640Y-41390D01*
X57603Y-41428D01*
X57528Y-41446D01*
X57396Y-41446D01*
X57321Y-41428D01*
X57284Y-41390D01*
X57265Y-41353D01*
X56659Y-42737D02*
X56471Y-42868D01*
X56659Y-42962D02*
X56265Y-42962D01*
X56265Y-42812D01*
X56284Y-42774D01*
X56303Y-42756D01*
X56340Y-42737D01*
X56396Y-42737D01*
X56434Y-42756D01*
X56453Y-42774D01*
X56471Y-42812D01*
X56471Y-42962D01*
X56509Y-42568D02*
X56509Y-42268D01*
X56453Y-42081D02*
X56453Y-41950D01*
X56659Y-41893D02*
X56659Y-42081D01*
X56265Y-42081D01*
X56265Y-41893D01*
X56265Y-41762D02*
X56659Y-41500D01*
X56265Y-41500D02*
X56659Y-41762D01*
X56265Y-41406D02*
X56265Y-41181D01*
X56659Y-41293D02*
X56265Y-41293D01*
X58659Y-48556D02*
X58659Y-48743D01*
X58265Y-48743D01*
X58453Y-48425D02*
X58453Y-48293D01*
X58659Y-48237D02*
X58659Y-48425D01*
X58265Y-48425D01*
X58265Y-48237D01*
X57621Y-48534D02*
X57640Y-48553D01*
X57659Y-48609D01*
X57659Y-48646D01*
X57640Y-48703D01*
X57603Y-48740D01*
X57565Y-48759D01*
X57490Y-48778D01*
X57434Y-48778D01*
X57359Y-48759D01*
X57321Y-48740D01*
X57284Y-48703D01*
X57265Y-48646D01*
X57265Y-48609D01*
X57284Y-48553D01*
X57303Y-48534D01*
X57659Y-48178D02*
X57659Y-48365D01*
X57265Y-48365D01*
X57659Y-48046D02*
X57265Y-48046D01*
X57659Y-47821D02*
X57434Y-47990D01*
X57265Y-47821D02*
X57490Y-48046D01*
X56640Y-48803D02*
X56659Y-48746D01*
X56659Y-48653D01*
X56640Y-48615D01*
X56621Y-48596D01*
X56584Y-48578D01*
X56546Y-48578D01*
X56509Y-48596D01*
X56490Y-48615D01*
X56471Y-48653D01*
X56453Y-48728D01*
X56434Y-48765D01*
X56415Y-48784D01*
X56378Y-48803D01*
X56340Y-48803D01*
X56303Y-48784D01*
X56284Y-48765D01*
X56265Y-48728D01*
X56265Y-48634D01*
X56284Y-48578D01*
X56659Y-48409D02*
X56265Y-48409D01*
X56265Y-48315D01*
X56284Y-48259D01*
X56321Y-48221D01*
X56359Y-48203D01*
X56434Y-48184D01*
X56490Y-48184D01*
X56565Y-48203D01*
X56603Y-48221D01*
X56640Y-48259D01*
X56659Y-48315D01*
X56659Y-48409D01*
X56659Y-48015D02*
X56265Y-48015D01*
X55200Y-48484D02*
X55162Y-48465D01*
X55106Y-48465D01*
X55050Y-48484D01*
X55012Y-48521D01*
X54993Y-48559D01*
X54975Y-48634D01*
X54975Y-48690D01*
X54993Y-48765D01*
X55012Y-48803D01*
X55050Y-48840D01*
X55106Y-48859D01*
X55143Y-48859D01*
X55200Y-48840D01*
X55218Y-48821D01*
X55218Y-48690D01*
X55143Y-48690D01*
X55387Y-48859D02*
X55387Y-48465D01*
X55612Y-48859D01*
X55612Y-48465D01*
X55799Y-48859D02*
X55799Y-48465D01*
X55893Y-48465D01*
X55949Y-48484D01*
X55987Y-48521D01*
X56006Y-48559D01*
X56024Y-48634D01*
X56024Y-48690D01*
X56006Y-48765D01*
X55987Y-48803D01*
X55949Y-48840D01*
X55893Y-48859D01*
X55799Y-48859D01*
X54975Y-41140D02*
X55106Y-41534D01*
X55237Y-41140D01*
X55593Y-41496D02*
X55574Y-41515D01*
X55518Y-41534D01*
X55481Y-41534D01*
X55425Y-41515D01*
X55387Y-41478D01*
X55368Y-41440D01*
X55350Y-41365D01*
X55350Y-41309D01*
X55368Y-41234D01*
X55387Y-41196D01*
X55425Y-41159D01*
X55481Y-41140D01*
X55518Y-41140D01*
X55574Y-41159D01*
X55593Y-41178D01*
X55987Y-41496D02*
X55968Y-41515D01*
X55912Y-41534D01*
X55874Y-41534D01*
X55818Y-41515D01*
X55781Y-41478D01*
X55762Y-41440D01*
X55743Y-41365D01*
X55743Y-41309D01*
X55762Y-41234D01*
X55781Y-41196D01*
X55818Y-41159D01*
X55874Y-41140D01*
X55912Y-41140D01*
X55968Y-41159D01*
X55987Y-41178D01*
G54D12*
X55525Y-44000D02*
X56525Y-44000D01*
X56525Y-44000D02*
X56525Y-46000D01*
X56525Y-46000D02*
X55525Y-46000D01*
X55525Y-46000D02*
X55525Y-44000D01*
G54D13*
X57590Y-44596D02*
X57590Y-44891D01*
X57590Y-44891D02*
X58160Y-44891D01*
X58160Y-44596D02*
X58160Y-44891D01*
X57590Y-44596D02*
X58160Y-44596D01*
X57590Y-45165D02*
X57590Y-45460D01*
X57590Y-45460D02*
X58160Y-45460D01*
X58160Y-45165D02*
X58160Y-45460D01*
X57590Y-45165D02*
X58160Y-45165D01*
X57718Y-44986D02*
X57718Y-45064D01*
X57718Y-45064D02*
X58032Y-45064D01*
X58032Y-44986D02*
X58032Y-45064D01*
X57718Y-44986D02*
X58032Y-44986D01*
G54D14*
X58262Y-44249D02*
X58262Y-45801D01*
X57488Y-45801D02*
X57488Y-44249D01*
X57488Y-44249D02*
X58262Y-44249D01*
G54D15*
X58134Y-44875D02*
X58134Y-45175D01*
X57616Y-44885D02*
X57616Y-45175D01*
G54D14*
X58262Y-45801D02*
X57488Y-45801D01*
G54D12*
X55000Y-50000D02*
X55000Y-50000D01*
X55000Y-50000D02*
X55000Y-49000D01*
X55000Y-49000D02*
X65000Y-49000D01*
X65000Y-50000D02*
X55000Y-50000D01*
X56000Y-50000D02*
X56000Y-49000D01*
X65000Y-49000D02*
X66750Y-49000D01*
X66750Y-49000D02*
X67000Y-49000D01*
X67000Y-49000D02*
X67000Y-50000D01*
X67000Y-50000D02*
X65000Y-50000D01*
X66515Y-45100D02*
X65885Y-45100D01*
X66200Y-45415D02*
X66200Y-44785D01*
X66710Y-45100D02*
G75*
G03X66710Y-45100I-510J0D01*
G74*
G01*
X66200Y-45789D02*
X65491Y-45789D01*
X65491Y-45789D02*
X65491Y-44313D01*
X65491Y-44313D02*
X66909Y-44313D01*
X66909Y-44313D02*
X66909Y-45789D01*
X66909Y-45789D02*
X66200Y-45789D01*
G54D16*
X58992Y-45787D02*
G75*
G03X58992Y-45787I-157J0D01*
G74*
G01*
X58913Y-45788D02*
G75*
G03X58913Y-45788I-78J0D01*
G74*
G01*
X58441Y-43819D02*
X63559Y-43819D01*
X63559Y-43819D02*
X63559Y-46181D01*
X63559Y-46181D02*
X58441Y-46181D01*
X58441Y-46181D02*
X58441Y-43819D01*
G54D13*
X66626Y-42433D02*
X66786Y-42433D01*
X66786Y-42433D02*
X66786Y-42093D01*
X66626Y-42093D02*
X66786Y-42093D01*
X66626Y-42433D02*
X66626Y-42093D01*
X66126Y-42433D02*
X66286Y-42433D01*
X66286Y-42433D02*
X66286Y-42093D01*
X66126Y-42093D02*
X66286Y-42093D01*
X66126Y-42433D02*
X66126Y-42093D01*
X66378Y-42420D02*
X66534Y-42420D01*
X66534Y-42420D02*
X66534Y-42106D01*
X66378Y-42106D02*
X66534Y-42106D01*
X66378Y-42420D02*
X66378Y-42106D01*
G54D17*
X66286Y-42403D02*
X66626Y-42403D01*
X66626Y-42123D02*
X66286Y-42123D01*
G54D14*
X65877Y-41876D02*
X67035Y-41876D01*
X67035Y-41876D02*
X67035Y-42650D01*
X67035Y-42650D02*
X65877Y-42650D01*
X65877Y-42650D02*
X65877Y-41876D01*
G54D13*
X64160Y-45189D02*
X64160Y-45349D01*
X64160Y-45349D02*
X64500Y-45349D01*
X64500Y-45189D02*
X64500Y-45349D01*
X64160Y-45189D02*
X64500Y-45189D01*
X64160Y-44689D02*
X64160Y-44849D01*
X64160Y-44849D02*
X64500Y-44849D01*
X64500Y-44689D02*
X64500Y-44849D01*
X64160Y-44689D02*
X64500Y-44689D01*
X64173Y-44941D02*
X64173Y-45097D01*
X64173Y-45097D02*
X64487Y-45097D01*
X64487Y-44941D02*
X64487Y-45097D01*
X64173Y-44941D02*
X64487Y-44941D01*
G54D17*
X64190Y-44849D02*
X64190Y-45189D01*
X64470Y-45189D02*
X64470Y-44849D01*
G54D14*
X64717Y-44440D02*
X64717Y-45598D01*
X64717Y-45598D02*
X63943Y-45598D01*
X63943Y-45598D02*
X63943Y-44440D01*
X63943Y-44440D02*
X64717Y-44440D01*
G54D13*
X66292Y-43595D02*
X66452Y-43595D01*
X66452Y-43595D02*
X66452Y-43255D01*
X66292Y-43255D02*
X66452Y-43255D01*
X66292Y-43595D02*
X66292Y-43255D01*
X65792Y-43595D02*
X65952Y-43595D01*
X65952Y-43595D02*
X65952Y-43255D01*
X65792Y-43255D02*
X65952Y-43255D01*
X65792Y-43595D02*
X65792Y-43255D01*
X66044Y-43582D02*
X66200Y-43582D01*
X66200Y-43582D02*
X66200Y-43268D01*
X66044Y-43268D02*
X66200Y-43268D01*
X66044Y-43582D02*
X66044Y-43268D01*
G54D17*
X65952Y-43565D02*
X66292Y-43565D01*
X66292Y-43285D02*
X65952Y-43285D01*
G54D14*
X65543Y-43038D02*
X66701Y-43038D01*
X66701Y-43038D02*
X66701Y-43812D01*
X66701Y-43812D02*
X65543Y-43812D01*
X65543Y-43812D02*
X65543Y-43038D01*
G54D13*
X64003Y-42093D02*
X63843Y-42093D01*
X63843Y-42093D02*
X63843Y-42433D01*
X64003Y-42433D02*
X63843Y-42433D01*
X64003Y-42093D02*
X64003Y-42433D01*
X64503Y-42093D02*
X64343Y-42093D01*
X64343Y-42093D02*
X64343Y-42433D01*
X64503Y-42433D02*
X64343Y-42433D01*
X64503Y-42093D02*
X64503Y-42433D01*
X64251Y-42106D02*
X64095Y-42106D01*
X64095Y-42106D02*
X64095Y-42420D01*
X64251Y-42420D02*
X64095Y-42420D01*
X64251Y-42106D02*
X64251Y-42420D01*
G54D17*
X64343Y-42123D02*
X64003Y-42123D01*
X64003Y-42403D02*
X64343Y-42403D01*
G54D14*
X64752Y-42650D02*
X63594Y-42650D01*
X63594Y-42650D02*
X63594Y-41876D01*
X63594Y-41876D02*
X64752Y-41876D01*
X64752Y-41876D02*
X64752Y-42650D01*
G54D13*
X64475Y-43255D02*
X64315Y-43255D01*
X64315Y-43255D02*
X64315Y-43595D01*
X64475Y-43595D02*
X64315Y-43595D01*
X64475Y-43255D02*
X64475Y-43595D01*
X64975Y-43255D02*
X64815Y-43255D01*
X64815Y-43255D02*
X64815Y-43595D01*
X64975Y-43595D02*
X64815Y-43595D01*
X64975Y-43255D02*
X64975Y-43595D01*
X64723Y-43268D02*
X64567Y-43268D01*
X64567Y-43268D02*
X64567Y-43582D01*
X64723Y-43582D02*
X64567Y-43582D01*
X64723Y-43268D02*
X64723Y-43582D01*
G54D17*
X64815Y-43285D02*
X64475Y-43285D01*
X64475Y-43565D02*
X64815Y-43565D01*
G54D14*
X65224Y-43812D02*
X64066Y-43812D01*
X64066Y-43812D02*
X64066Y-43038D01*
X64066Y-43038D02*
X65224Y-43038D01*
X65224Y-43038D02*
X65224Y-43812D01*
G54D13*
X57570Y-43970D02*
X57730Y-43970D01*
X57730Y-43970D02*
X57730Y-43630D01*
X57570Y-43630D02*
X57730Y-43630D01*
X57570Y-43970D02*
X57570Y-43630D01*
X57070Y-43970D02*
X57230Y-43970D01*
X57230Y-43970D02*
X57230Y-43630D01*
X57070Y-43630D02*
X57230Y-43630D01*
X57070Y-43970D02*
X57070Y-43630D01*
X57322Y-43957D02*
X57478Y-43957D01*
X57478Y-43957D02*
X57478Y-43643D01*
X57322Y-43643D02*
X57478Y-43643D01*
X57322Y-43957D02*
X57322Y-43643D01*
G54D17*
X57230Y-43940D02*
X57570Y-43940D01*
X57570Y-43660D02*
X57230Y-43660D01*
G54D14*
X56821Y-43413D02*
X57979Y-43413D01*
X57979Y-43413D02*
X57979Y-44187D01*
X57979Y-44187D02*
X56821Y-44187D01*
X56821Y-44187D02*
X56821Y-43413D01*
G54D13*
X57570Y-43120D02*
X57730Y-43120D01*
X57730Y-43120D02*
X57730Y-42780D01*
X57570Y-42780D02*
X57730Y-42780D01*
X57570Y-43120D02*
X57570Y-42780D01*
X57070Y-43120D02*
X57230Y-43120D01*
X57230Y-43120D02*
X57230Y-42780D01*
X57070Y-42780D02*
X57230Y-42780D01*
X57070Y-43120D02*
X57070Y-42780D01*
X57322Y-43107D02*
X57478Y-43107D01*
X57478Y-43107D02*
X57478Y-42793D01*
X57322Y-42793D02*
X57478Y-42793D01*
X57322Y-43107D02*
X57322Y-42793D01*
G54D17*
X57230Y-43090D02*
X57570Y-43090D01*
X57570Y-42810D02*
X57230Y-42810D01*
G54D14*
X56821Y-42563D02*
X57979Y-42563D01*
X57979Y-42563D02*
X57979Y-43337D01*
X57979Y-43337D02*
X56821Y-43337D01*
X56821Y-43337D02*
X56821Y-42563D01*
G54D13*
X55720Y-43020D02*
X55880Y-43020D01*
X55880Y-43020D02*
X55880Y-42680D01*
X55720Y-42680D02*
X55880Y-42680D01*
X55720Y-43020D02*
X55720Y-42680D01*
X55220Y-43020D02*
X55380Y-43020D01*
X55380Y-43020D02*
X55380Y-42680D01*
X55220Y-42680D02*
X55380Y-42680D01*
X55220Y-43020D02*
X55220Y-42680D01*
X55472Y-43007D02*
X55628Y-43007D01*
X55628Y-43007D02*
X55628Y-42693D01*
X55472Y-42693D02*
X55628Y-42693D01*
X55472Y-43007D02*
X55472Y-42693D01*
G54D17*
X55380Y-42990D02*
X55720Y-42990D01*
X55720Y-42710D02*
X55380Y-42710D01*
G54D14*
X54971Y-42463D02*
X56129Y-42463D01*
X56129Y-42463D02*
X56129Y-43237D01*
X56129Y-43237D02*
X54971Y-43237D01*
X54971Y-43237D02*
X54971Y-42463D01*
G54D13*
X55720Y-42170D02*
X55880Y-42170D01*
X55880Y-42170D02*
X55880Y-41830D01*
X55720Y-41830D02*
X55880Y-41830D01*
X55720Y-42170D02*
X55720Y-41830D01*
X55220Y-42170D02*
X55380Y-42170D01*
X55380Y-42170D02*
X55380Y-41830D01*
X55220Y-41830D02*
X55380Y-41830D01*
X55220Y-42170D02*
X55220Y-41830D01*
X55472Y-42157D02*
X55628Y-42157D01*
X55628Y-42157D02*
X55628Y-41843D01*
X55472Y-41843D02*
X55628Y-41843D01*
X55472Y-42157D02*
X55472Y-41843D01*
G54D17*
X55380Y-42140D02*
X55720Y-42140D01*
X55720Y-41860D02*
X55380Y-41860D01*
G54D14*
X54971Y-41613D02*
X56129Y-41613D01*
X56129Y-41613D02*
X56129Y-42387D01*
X56129Y-42387D02*
X54971Y-42387D01*
X54971Y-42387D02*
X54971Y-41613D01*
G54D13*
X66626Y-47925D02*
X66786Y-47925D01*
X66786Y-47925D02*
X66786Y-47585D01*
X66626Y-47585D02*
X66786Y-47585D01*
X66626Y-47925D02*
X66626Y-47585D01*
X66126Y-47925D02*
X66286Y-47925D01*
X66286Y-47925D02*
X66286Y-47585D01*
X66126Y-47585D02*
X66286Y-47585D01*
X66126Y-47925D02*
X66126Y-47585D01*
X66378Y-47912D02*
X66534Y-47912D01*
X66534Y-47912D02*
X66534Y-47598D01*
X66378Y-47598D02*
X66534Y-47598D01*
X66378Y-47912D02*
X66378Y-47598D01*
G54D17*
X66286Y-47895D02*
X66626Y-47895D01*
X66626Y-47615D02*
X66286Y-47615D01*
G54D14*
X65877Y-47368D02*
X67035Y-47368D01*
X67035Y-47368D02*
X67035Y-48142D01*
X67035Y-48142D02*
X65877Y-48142D01*
X65877Y-48142D02*
X65877Y-47368D01*
G54D13*
X66272Y-46902D02*
X66432Y-46902D01*
X66432Y-46902D02*
X66432Y-46562D01*
X66272Y-46562D02*
X66432Y-46562D01*
X66272Y-46902D02*
X66272Y-46562D01*
X65772Y-46902D02*
X65932Y-46902D01*
X65932Y-46902D02*
X65932Y-46562D01*
X65772Y-46562D02*
X65932Y-46562D01*
X65772Y-46902D02*
X65772Y-46562D01*
X66024Y-46889D02*
X66180Y-46889D01*
X66180Y-46889D02*
X66180Y-46575D01*
X66024Y-46575D02*
X66180Y-46575D01*
X66024Y-46889D02*
X66024Y-46575D01*
G54D17*
X65932Y-46872D02*
X66272Y-46872D01*
X66272Y-46592D02*
X65932Y-46592D01*
G54D14*
X65523Y-46345D02*
X66681Y-46345D01*
X66681Y-46345D02*
X66681Y-47119D01*
X66681Y-47119D02*
X65523Y-47119D01*
X65523Y-47119D02*
X65523Y-46345D01*
G54D13*
X64475Y-46562D02*
X64315Y-46562D01*
X64315Y-46562D02*
X64315Y-46902D01*
X64475Y-46902D02*
X64315Y-46902D01*
X64475Y-46562D02*
X64475Y-46902D01*
X64975Y-46562D02*
X64815Y-46562D01*
X64815Y-46562D02*
X64815Y-46902D01*
X64975Y-46902D02*
X64815Y-46902D01*
X64975Y-46562D02*
X64975Y-46902D01*
X64723Y-46575D02*
X64567Y-46575D01*
X64567Y-46575D02*
X64567Y-46889D01*
X64723Y-46889D02*
X64567Y-46889D01*
X64723Y-46575D02*
X64723Y-46889D01*
G54D17*
X64815Y-46592D02*
X64475Y-46592D01*
X64475Y-46872D02*
X64815Y-46872D01*
G54D14*
X65224Y-47119D02*
X64066Y-47119D01*
X64066Y-47119D02*
X64066Y-46345D01*
X64066Y-46345D02*
X65224Y-46345D01*
X65224Y-46345D02*
X65224Y-47119D01*
G54D13*
X63983Y-47585D02*
X63823Y-47585D01*
X63823Y-47585D02*
X63823Y-47925D01*
X63983Y-47925D02*
X63823Y-47925D01*
X63983Y-47585D02*
X63983Y-47925D01*
X64483Y-47585D02*
X64323Y-47585D01*
X64323Y-47585D02*
X64323Y-47925D01*
X64483Y-47925D02*
X64323Y-47925D01*
X64483Y-47585D02*
X64483Y-47925D01*
X64231Y-47598D02*
X64075Y-47598D01*
X64075Y-47598D02*
X64075Y-47912D01*
X64231Y-47912D02*
X64075Y-47912D01*
X64231Y-47598D02*
X64231Y-47912D01*
G54D17*
X64323Y-47615D02*
X63983Y-47615D01*
X63983Y-47895D02*
X64323Y-47895D01*
G54D14*
X64732Y-48142D02*
X63574Y-48142D01*
X63574Y-48142D02*
X63574Y-47368D01*
X63574Y-47368D02*
X64732Y-47368D01*
X64732Y-47368D02*
X64732Y-48142D01*
G54D13*
X57570Y-47270D02*
X57730Y-47270D01*
X57730Y-47270D02*
X57730Y-46930D01*
X57570Y-46930D02*
X57730Y-46930D01*
X57570Y-47270D02*
X57570Y-46930D01*
X57070Y-47270D02*
X57230Y-47270D01*
X57230Y-47270D02*
X57230Y-46930D01*
X57070Y-46930D02*
X57230Y-46930D01*
X57070Y-47270D02*
X57070Y-46930D01*
X57322Y-47257D02*
X57478Y-47257D01*
X57478Y-47257D02*
X57478Y-46943D01*
X57322Y-46943D02*
X57478Y-46943D01*
X57322Y-47257D02*
X57322Y-46943D01*
G54D17*
X57230Y-47240D02*
X57570Y-47240D01*
X57570Y-46960D02*
X57230Y-46960D01*
G54D14*
X56821Y-46713D02*
X57979Y-46713D01*
X57979Y-46713D02*
X57979Y-47487D01*
X57979Y-47487D02*
X56821Y-47487D01*
X56821Y-47487D02*
X56821Y-46713D01*
G54D13*
X57570Y-46420D02*
X57730Y-46420D01*
X57730Y-46420D02*
X57730Y-46080D01*
X57570Y-46080D02*
X57730Y-46080D01*
X57570Y-46420D02*
X57570Y-46080D01*
X57070Y-46420D02*
X57230Y-46420D01*
X57230Y-46420D02*
X57230Y-46080D01*
X57070Y-46080D02*
X57230Y-46080D01*
X57070Y-46420D02*
X57070Y-46080D01*
X57322Y-46407D02*
X57478Y-46407D01*
X57478Y-46407D02*
X57478Y-46093D01*
X57322Y-46093D02*
X57478Y-46093D01*
X57322Y-46407D02*
X57322Y-46093D01*
G54D17*
X57230Y-46390D02*
X57570Y-46390D01*
X57570Y-46110D02*
X57230Y-46110D01*
G54D14*
X56821Y-45863D02*
X57979Y-45863D01*
X57979Y-45863D02*
X57979Y-46637D01*
X57979Y-46637D02*
X56821Y-46637D01*
X56821Y-46637D02*
X56821Y-45863D01*
G54D13*
X55720Y-47320D02*
X55880Y-47320D01*
X55880Y-47320D02*
X55880Y-46980D01*
X55720Y-46980D02*
X55880Y-46980D01*
X55720Y-47320D02*
X55720Y-46980D01*
X55220Y-47320D02*
X55380Y-47320D01*
X55380Y-47320D02*
X55380Y-46980D01*
X55220Y-46980D02*
X55380Y-46980D01*
X55220Y-47320D02*
X55220Y-46980D01*
X55472Y-47307D02*
X55628Y-47307D01*
X55628Y-47307D02*
X55628Y-46993D01*
X55472Y-46993D02*
X55628Y-46993D01*
X55472Y-47307D02*
X55472Y-46993D01*
G54D17*
X55380Y-47290D02*
X55720Y-47290D01*
X55720Y-47010D02*
X55380Y-47010D01*
G54D14*
X54971Y-46763D02*
X56129Y-46763D01*
X56129Y-46763D02*
X56129Y-47537D01*
X56129Y-47537D02*
X54971Y-47537D01*
X54971Y-47537D02*
X54971Y-46763D01*
G54D13*
X55720Y-48170D02*
X55880Y-48170D01*
X55880Y-48170D02*
X55880Y-47830D01*
X55720Y-47830D02*
X55880Y-47830D01*
X55720Y-48170D02*
X55720Y-47830D01*
X55220Y-48170D02*
X55380Y-48170D01*
X55380Y-48170D02*
X55380Y-47830D01*
X55220Y-47830D02*
X55380Y-47830D01*
X55220Y-48170D02*
X55220Y-47830D01*
X55472Y-48157D02*
X55628Y-48157D01*
X55628Y-48157D02*
X55628Y-47843D01*
X55472Y-47843D02*
X55628Y-47843D01*
X55472Y-48157D02*
X55472Y-47843D01*
G54D17*
X55380Y-48140D02*
X55720Y-48140D01*
X55720Y-47860D02*
X55380Y-47860D01*
G54D14*
X54971Y-47613D02*
X56129Y-47613D01*
X56129Y-47613D02*
X56129Y-48387D01*
X56129Y-48387D02*
X54971Y-48387D01*
X54971Y-48387D02*
X54971Y-47613D01*
G54D13*
X56765Y-44596D02*
X56765Y-44891D01*
X56765Y-44891D02*
X57335Y-44891D01*
X57335Y-44596D02*
X57335Y-44891D01*
X56765Y-44596D02*
X57335Y-44596D01*
X56765Y-45165D02*
X56765Y-45460D01*
X56765Y-45460D02*
X57335Y-45460D01*
X57335Y-45165D02*
X57335Y-45460D01*
X56765Y-45165D02*
X57335Y-45165D01*
X56893Y-44986D02*
X56893Y-45064D01*
X56893Y-45064D02*
X57207Y-45064D01*
X57207Y-44986D02*
X57207Y-45064D01*
X56893Y-44986D02*
X57207Y-44986D01*
G54D14*
X57437Y-44249D02*
X57437Y-45801D01*
X56663Y-45801D02*
X56663Y-44249D01*
X56663Y-44249D02*
X57437Y-44249D01*
G54D15*
X57309Y-44875D02*
X57309Y-45175D01*
X56791Y-44885D02*
X56791Y-45175D01*
G54D14*
X57437Y-45801D02*
X56663Y-45801D01*
G54D12*
X55000Y-41000D02*
X55000Y-41000D01*
X55000Y-41000D02*
X55000Y-40000D01*
X55000Y-40000D02*
X65000Y-40000D01*
X65000Y-41000D02*
X55000Y-41000D01*
X56000Y-41000D02*
X56000Y-40000D01*
X65000Y-40000D02*
X66750Y-40000D01*
X66750Y-40000D02*
X67000Y-40000D01*
X67000Y-40000D02*
X67000Y-41000D01*
X67000Y-41000D02*
X65000Y-41000D01*
G54D13*
X64232Y-48739D02*
X64232Y-48660D01*
X64232Y-48660D02*
X64173Y-48660D01*
X64173Y-48739D02*
X64173Y-48660D01*
X64232Y-48739D02*
X64173Y-48739D01*
X64291Y-48670D02*
X64291Y-48650D01*
X64291Y-48650D02*
X64271Y-48650D01*
X64271Y-48670D02*
X64271Y-48650D01*
X64291Y-48670D02*
X64271Y-48670D01*
X64370Y-48739D02*
X64370Y-48719D01*
X64370Y-48719D02*
X64222Y-48719D01*
X64222Y-48739D02*
X64222Y-48719D01*
X64370Y-48739D02*
X64222Y-48739D01*
X64291Y-48464D02*
X64291Y-48385D01*
X64291Y-48385D02*
X64173Y-48385D01*
X64173Y-48464D02*
X64173Y-48385D01*
X64291Y-48464D02*
X64173Y-48464D01*
X64370Y-48739D02*
X64370Y-48385D01*
X64370Y-48385D02*
X64281Y-48385D01*
X64281Y-48739D02*
X64281Y-48385D01*
X64370Y-48739D02*
X64281Y-48739D01*
X64841Y-48739D02*
X64841Y-48660D01*
X64841Y-48660D02*
X64644Y-48660D01*
X64644Y-48739D02*
X64644Y-48660D01*
X64841Y-48739D02*
X64644Y-48739D01*
X64841Y-48464D02*
X64841Y-48385D01*
X64841Y-48385D02*
X64644Y-48385D01*
X64644Y-48464D02*
X64644Y-48385D01*
X64841Y-48464D02*
X64644Y-48464D01*
X64733Y-48670D02*
X64733Y-48454D01*
X64733Y-48454D02*
X64644Y-48454D01*
X64644Y-48670D02*
X64644Y-48454D01*
X64733Y-48670D02*
X64644Y-48670D01*
X64762Y-48670D02*
X64762Y-48630D01*
X64762Y-48630D02*
X64723Y-48630D01*
X64723Y-48670D02*
X64723Y-48630D01*
X64762Y-48670D02*
X64723Y-48670D01*
X64762Y-48494D02*
X64762Y-48454D01*
X64762Y-48454D02*
X64723Y-48454D01*
X64723Y-48494D02*
X64723Y-48454D01*
X64762Y-48494D02*
X64723Y-48494D01*
X64507Y-48611D02*
X64507Y-48513D01*
X64507Y-48513D02*
X64409Y-48513D01*
X64409Y-48611D02*
X64409Y-48513D01*
X64507Y-48611D02*
X64409Y-48611D01*
G54D15*
X64360Y-48719D02*
X64644Y-48719D01*
X64370Y-48405D02*
X64644Y-48405D01*
G54D18*
X64281Y-48699D02*
G75*
G03X64281Y-48699I-19J0D01*
G74*
G01*
G54D15*
X64183Y-48680D02*
G75*
G03X64183Y-48444I0J118D01*
G74*
G01*
G54D14*
X64831Y-48454D02*
G75*
G03X64831Y-48670I0J-108D01*
G74*
G01*
G54D13*
X63228Y-48739D02*
X63228Y-48660D01*
X63228Y-48660D02*
X63169Y-48660D01*
X63169Y-48739D02*
X63169Y-48660D01*
X63228Y-48739D02*
X63169Y-48739D01*
X63287Y-48670D02*
X63287Y-48650D01*
X63287Y-48650D02*
X63267Y-48650D01*
X63267Y-48670D02*
X63267Y-48650D01*
X63287Y-48670D02*
X63267Y-48670D01*
X63366Y-48739D02*
X63366Y-48719D01*
X63366Y-48719D02*
X63218Y-48719D01*
X63218Y-48739D02*
X63218Y-48719D01*
X63366Y-48739D02*
X63218Y-48739D01*
X63287Y-48464D02*
X63287Y-48385D01*
X63287Y-48385D02*
X63169Y-48385D01*
X63169Y-48464D02*
X63169Y-48385D01*
X63287Y-48464D02*
X63169Y-48464D01*
X63366Y-48739D02*
X63366Y-48385D01*
X63366Y-48385D02*
X63277Y-48385D01*
X63277Y-48739D02*
X63277Y-48385D01*
X63366Y-48739D02*
X63277Y-48739D01*
X63837Y-48739D02*
X63837Y-48660D01*
X63837Y-48660D02*
X63640Y-48660D01*
X63640Y-48739D02*
X63640Y-48660D01*
X63837Y-48739D02*
X63640Y-48739D01*
X63837Y-48464D02*
X63837Y-48385D01*
X63837Y-48385D02*
X63640Y-48385D01*
X63640Y-48464D02*
X63640Y-48385D01*
X63837Y-48464D02*
X63640Y-48464D01*
X63729Y-48670D02*
X63729Y-48454D01*
X63729Y-48454D02*
X63640Y-48454D01*
X63640Y-48670D02*
X63640Y-48454D01*
X63729Y-48670D02*
X63640Y-48670D01*
X63758Y-48670D02*
X63758Y-48630D01*
X63758Y-48630D02*
X63719Y-48630D01*
X63719Y-48670D02*
X63719Y-48630D01*
X63758Y-48670D02*
X63719Y-48670D01*
X63758Y-48494D02*
X63758Y-48454D01*
X63758Y-48454D02*
X63719Y-48454D01*
X63719Y-48494D02*
X63719Y-48454D01*
X63758Y-48494D02*
X63719Y-48494D01*
X63503Y-48611D02*
X63503Y-48513D01*
X63503Y-48513D02*
X63405Y-48513D01*
X63405Y-48611D02*
X63405Y-48513D01*
X63503Y-48611D02*
X63405Y-48611D01*
G54D15*
X63356Y-48719D02*
X63640Y-48719D01*
X63366Y-48405D02*
X63640Y-48405D01*
G54D18*
X63277Y-48699D02*
G75*
G03X63277Y-48699I-19J0D01*
G74*
G01*
G54D15*
X63179Y-48680D02*
G75*
G03X63179Y-48444I0J118D01*
G74*
G01*
G54D14*
X63827Y-48454D02*
G75*
G03X63827Y-48670I0J-108D01*
G74*
G01*
G54D13*
X65217Y-48739D02*
X65217Y-48660D01*
X65217Y-48660D02*
X65158Y-48660D01*
X65158Y-48739D02*
X65158Y-48660D01*
X65217Y-48739D02*
X65158Y-48739D01*
X65276Y-48670D02*
X65276Y-48650D01*
X65276Y-48650D02*
X65256Y-48650D01*
X65256Y-48670D02*
X65256Y-48650D01*
X65276Y-48670D02*
X65256Y-48670D01*
X65355Y-48739D02*
X65355Y-48719D01*
X65355Y-48719D02*
X65207Y-48719D01*
X65207Y-48739D02*
X65207Y-48719D01*
X65355Y-48739D02*
X65207Y-48739D01*
X65276Y-48464D02*
X65276Y-48385D01*
X65276Y-48385D02*
X65158Y-48385D01*
X65158Y-48464D02*
X65158Y-48385D01*
X65276Y-48464D02*
X65158Y-48464D01*
X65355Y-48739D02*
X65355Y-48385D01*
X65355Y-48385D02*
X65266Y-48385D01*
X65266Y-48739D02*
X65266Y-48385D01*
X65355Y-48739D02*
X65266Y-48739D01*
X65826Y-48739D02*
X65826Y-48660D01*
X65826Y-48660D02*
X65629Y-48660D01*
X65629Y-48739D02*
X65629Y-48660D01*
X65826Y-48739D02*
X65629Y-48739D01*
X65826Y-48464D02*
X65826Y-48385D01*
X65826Y-48385D02*
X65629Y-48385D01*
X65629Y-48464D02*
X65629Y-48385D01*
X65826Y-48464D02*
X65629Y-48464D01*
X65718Y-48670D02*
X65718Y-48454D01*
X65718Y-48454D02*
X65629Y-48454D01*
X65629Y-48670D02*
X65629Y-48454D01*
X65718Y-48670D02*
X65629Y-48670D01*
X65747Y-48670D02*
X65747Y-48630D01*
X65747Y-48630D02*
X65708Y-48630D01*
X65708Y-48670D02*
X65708Y-48630D01*
X65747Y-48670D02*
X65708Y-48670D01*
X65747Y-48494D02*
X65747Y-48454D01*
X65747Y-48454D02*
X65708Y-48454D01*
X65708Y-48494D02*
X65708Y-48454D01*
X65747Y-48494D02*
X65708Y-48494D01*
X65492Y-48611D02*
X65492Y-48513D01*
X65492Y-48513D02*
X65394Y-48513D01*
X65394Y-48611D02*
X65394Y-48513D01*
X65492Y-48611D02*
X65394Y-48611D01*
G54D15*
X65345Y-48719D02*
X65629Y-48719D01*
X65355Y-48405D02*
X65629Y-48405D01*
G54D18*
X65265Y-48699D02*
G75*
G03X65265Y-48699I-19J0D01*
G74*
G01*
G54D15*
X65168Y-48680D02*
G75*
G03X65168Y-48444I0J118D01*
G74*
G01*
G54D14*
X65816Y-48454D02*
G75*
G03X65816Y-48670I0J-108D01*
G74*
G01*
G54D13*
X62225Y-48739D02*
X62225Y-48660D01*
X62225Y-48660D02*
X62166Y-48660D01*
X62166Y-48739D02*
X62166Y-48660D01*
X62225Y-48739D02*
X62166Y-48739D01*
X62284Y-48670D02*
X62284Y-48650D01*
X62284Y-48650D02*
X62264Y-48650D01*
X62264Y-48670D02*
X62264Y-48650D01*
X62284Y-48670D02*
X62264Y-48670D01*
X62363Y-48739D02*
X62363Y-48719D01*
X62363Y-48719D02*
X62215Y-48719D01*
X62215Y-48739D02*
X62215Y-48719D01*
X62363Y-48739D02*
X62215Y-48739D01*
X62284Y-48464D02*
X62284Y-48385D01*
X62284Y-48385D02*
X62166Y-48385D01*
X62166Y-48464D02*
X62166Y-48385D01*
X62284Y-48464D02*
X62166Y-48464D01*
X62363Y-48739D02*
X62363Y-48385D01*
X62363Y-48385D02*
X62274Y-48385D01*
X62274Y-48739D02*
X62274Y-48385D01*
X62363Y-48739D02*
X62274Y-48739D01*
X62834Y-48739D02*
X62834Y-48660D01*
X62834Y-48660D02*
X62637Y-48660D01*
X62637Y-48739D02*
X62637Y-48660D01*
X62834Y-48739D02*
X62637Y-48739D01*
X62834Y-48464D02*
X62834Y-48385D01*
X62834Y-48385D02*
X62637Y-48385D01*
X62637Y-48464D02*
X62637Y-48385D01*
X62834Y-48464D02*
X62637Y-48464D01*
X62726Y-48670D02*
X62726Y-48454D01*
X62726Y-48454D02*
X62637Y-48454D01*
X62637Y-48670D02*
X62637Y-48454D01*
X62726Y-48670D02*
X62637Y-48670D01*
X62755Y-48670D02*
X62755Y-48630D01*
X62755Y-48630D02*
X62716Y-48630D01*
X62716Y-48670D02*
X62716Y-48630D01*
X62755Y-48670D02*
X62716Y-48670D01*
X62755Y-48494D02*
X62755Y-48454D01*
X62755Y-48454D02*
X62716Y-48454D01*
X62716Y-48494D02*
X62716Y-48454D01*
X62755Y-48494D02*
X62716Y-48494D01*
X62500Y-48611D02*
X62500Y-48513D01*
X62500Y-48513D02*
X62402Y-48513D01*
X62402Y-48611D02*
X62402Y-48513D01*
X62500Y-48611D02*
X62402Y-48611D01*
G54D15*
X62353Y-48719D02*
X62637Y-48719D01*
X62363Y-48405D02*
X62637Y-48405D01*
G54D18*
X62273Y-48699D02*
G75*
G03X62273Y-48699I-19J0D01*
G74*
G01*
G54D15*
X62176Y-48680D02*
G75*
G03X62176Y-48444I0J118D01*
G74*
G01*
G54D14*
X62824Y-48454D02*
G75*
G03X62824Y-48670I0J-108D01*
G74*
G01*
G54D13*
X61221Y-48739D02*
X61221Y-48660D01*
X61221Y-48660D02*
X61162Y-48660D01*
X61162Y-48739D02*
X61162Y-48660D01*
X61221Y-48739D02*
X61162Y-48739D01*
X61280Y-48670D02*
X61280Y-48650D01*
X61280Y-48650D02*
X61260Y-48650D01*
X61260Y-48670D02*
X61260Y-48650D01*
X61280Y-48670D02*
X61260Y-48670D01*
X61359Y-48739D02*
X61359Y-48719D01*
X61359Y-48719D02*
X61211Y-48719D01*
X61211Y-48739D02*
X61211Y-48719D01*
X61359Y-48739D02*
X61211Y-48739D01*
X61280Y-48464D02*
X61280Y-48385D01*
X61280Y-48385D02*
X61162Y-48385D01*
X61162Y-48464D02*
X61162Y-48385D01*
X61280Y-48464D02*
X61162Y-48464D01*
X61359Y-48739D02*
X61359Y-48385D01*
X61359Y-48385D02*
X61270Y-48385D01*
X61270Y-48739D02*
X61270Y-48385D01*
X61359Y-48739D02*
X61270Y-48739D01*
X61830Y-48739D02*
X61830Y-48660D01*
X61830Y-48660D02*
X61633Y-48660D01*
X61633Y-48739D02*
X61633Y-48660D01*
X61830Y-48739D02*
X61633Y-48739D01*
X61830Y-48464D02*
X61830Y-48385D01*
X61830Y-48385D02*
X61633Y-48385D01*
X61633Y-48464D02*
X61633Y-48385D01*
X61830Y-48464D02*
X61633Y-48464D01*
X61722Y-48670D02*
X61722Y-48454D01*
X61722Y-48454D02*
X61633Y-48454D01*
X61633Y-48670D02*
X61633Y-48454D01*
X61722Y-48670D02*
X61633Y-48670D01*
X61751Y-48670D02*
X61751Y-48630D01*
X61751Y-48630D02*
X61712Y-48630D01*
X61712Y-48670D02*
X61712Y-48630D01*
X61751Y-48670D02*
X61712Y-48670D01*
X61751Y-48494D02*
X61751Y-48454D01*
X61751Y-48454D02*
X61712Y-48454D01*
X61712Y-48494D02*
X61712Y-48454D01*
X61751Y-48494D02*
X61712Y-48494D01*
X61496Y-48611D02*
X61496Y-48513D01*
X61496Y-48513D02*
X61398Y-48513D01*
X61398Y-48611D02*
X61398Y-48513D01*
X61496Y-48611D02*
X61398Y-48611D01*
G54D15*
X61349Y-48719D02*
X61633Y-48719D01*
X61359Y-48405D02*
X61633Y-48405D01*
G54D18*
X61269Y-48699D02*
G75*
G03X61269Y-48699I-19J0D01*
G74*
G01*
G54D15*
X61172Y-48680D02*
G75*
G03X61172Y-48444I0J118D01*
G74*
G01*
G54D14*
X61820Y-48454D02*
G75*
G03X61820Y-48670I0J-108D01*
G74*
G01*
G54D13*
X60217Y-48739D02*
X60217Y-48660D01*
X60217Y-48660D02*
X60158Y-48660D01*
X60158Y-48739D02*
X60158Y-48660D01*
X60217Y-48739D02*
X60158Y-48739D01*
X60276Y-48670D02*
X60276Y-48650D01*
X60276Y-48650D02*
X60256Y-48650D01*
X60256Y-48670D02*
X60256Y-48650D01*
X60276Y-48670D02*
X60256Y-48670D01*
X60355Y-48739D02*
X60355Y-48719D01*
X60355Y-48719D02*
X60207Y-48719D01*
X60207Y-48739D02*
X60207Y-48719D01*
X60355Y-48739D02*
X60207Y-48739D01*
X60276Y-48464D02*
X60276Y-48385D01*
X60276Y-48385D02*
X60158Y-48385D01*
X60158Y-48464D02*
X60158Y-48385D01*
X60276Y-48464D02*
X60158Y-48464D01*
X60355Y-48739D02*
X60355Y-48385D01*
X60355Y-48385D02*
X60266Y-48385D01*
X60266Y-48739D02*
X60266Y-48385D01*
X60355Y-48739D02*
X60266Y-48739D01*
X60826Y-48739D02*
X60826Y-48660D01*
X60826Y-48660D02*
X60629Y-48660D01*
X60629Y-48739D02*
X60629Y-48660D01*
X60826Y-48739D02*
X60629Y-48739D01*
X60826Y-48464D02*
X60826Y-48385D01*
X60826Y-48385D02*
X60629Y-48385D01*
X60629Y-48464D02*
X60629Y-48385D01*
X60826Y-48464D02*
X60629Y-48464D01*
X60718Y-48670D02*
X60718Y-48454D01*
X60718Y-48454D02*
X60629Y-48454D01*
X60629Y-48670D02*
X60629Y-48454D01*
X60718Y-48670D02*
X60629Y-48670D01*
X60747Y-48670D02*
X60747Y-48630D01*
X60747Y-48630D02*
X60708Y-48630D01*
X60708Y-48670D02*
X60708Y-48630D01*
X60747Y-48670D02*
X60708Y-48670D01*
X60747Y-48494D02*
X60747Y-48454D01*
X60747Y-48454D02*
X60708Y-48454D01*
X60708Y-48494D02*
X60708Y-48454D01*
X60747Y-48494D02*
X60708Y-48494D01*
X60492Y-48611D02*
X60492Y-48513D01*
X60492Y-48513D02*
X60394Y-48513D01*
X60394Y-48611D02*
X60394Y-48513D01*
X60492Y-48611D02*
X60394Y-48611D01*
G54D15*
X60345Y-48719D02*
X60629Y-48719D01*
X60355Y-48405D02*
X60629Y-48405D01*
G54D18*
X60265Y-48699D02*
G75*
G03X60265Y-48699I-19J0D01*
G74*
G01*
G54D15*
X60168Y-48680D02*
G75*
G03X60168Y-48444I0J118D01*
G74*
G01*
G54D14*
X60816Y-48454D02*
G75*
G03X60816Y-48670I0J-108D01*
G74*
G01*
G54D13*
X59232Y-48739D02*
X59232Y-48660D01*
X59232Y-48660D02*
X59173Y-48660D01*
X59173Y-48739D02*
X59173Y-48660D01*
X59232Y-48739D02*
X59173Y-48739D01*
X59291Y-48670D02*
X59291Y-48650D01*
X59291Y-48650D02*
X59271Y-48650D01*
X59271Y-48670D02*
X59271Y-48650D01*
X59291Y-48670D02*
X59271Y-48670D01*
X59370Y-48739D02*
X59370Y-48719D01*
X59370Y-48719D02*
X59222Y-48719D01*
X59222Y-48739D02*
X59222Y-48719D01*
X59370Y-48739D02*
X59222Y-48739D01*
X59291Y-48464D02*
X59291Y-48385D01*
X59291Y-48385D02*
X59173Y-48385D01*
X59173Y-48464D02*
X59173Y-48385D01*
X59291Y-48464D02*
X59173Y-48464D01*
X59370Y-48739D02*
X59370Y-48385D01*
X59370Y-48385D02*
X59281Y-48385D01*
X59281Y-48739D02*
X59281Y-48385D01*
X59370Y-48739D02*
X59281Y-48739D01*
X59841Y-48739D02*
X59841Y-48660D01*
X59841Y-48660D02*
X59644Y-48660D01*
X59644Y-48739D02*
X59644Y-48660D01*
X59841Y-48739D02*
X59644Y-48739D01*
X59841Y-48464D02*
X59841Y-48385D01*
X59841Y-48385D02*
X59644Y-48385D01*
X59644Y-48464D02*
X59644Y-48385D01*
X59841Y-48464D02*
X59644Y-48464D01*
X59733Y-48670D02*
X59733Y-48454D01*
X59733Y-48454D02*
X59644Y-48454D01*
X59644Y-48670D02*
X59644Y-48454D01*
X59733Y-48670D02*
X59644Y-48670D01*
X59762Y-48670D02*
X59762Y-48630D01*
X59762Y-48630D02*
X59723Y-48630D01*
X59723Y-48670D02*
X59723Y-48630D01*
X59762Y-48670D02*
X59723Y-48670D01*
X59762Y-48494D02*
X59762Y-48454D01*
X59762Y-48454D02*
X59723Y-48454D01*
X59723Y-48494D02*
X59723Y-48454D01*
X59762Y-48494D02*
X59723Y-48494D01*
X59507Y-48611D02*
X59507Y-48513D01*
X59507Y-48513D02*
X59409Y-48513D01*
X59409Y-48611D02*
X59409Y-48513D01*
X59507Y-48611D02*
X59409Y-48611D01*
G54D15*
X59360Y-48719D02*
X59644Y-48719D01*
X59370Y-48405D02*
X59644Y-48405D01*
G54D18*
X59281Y-48699D02*
G75*
G03X59281Y-48699I-19J0D01*
G74*
G01*
G54D15*
X59183Y-48680D02*
G75*
G03X59183Y-48444I0J118D01*
G74*
G01*
G54D14*
X59831Y-48454D02*
G75*
G03X59831Y-48670I0J-108D01*
G74*
G01*
G54D13*
X66221Y-48739D02*
X66221Y-48660D01*
X66221Y-48660D02*
X66162Y-48660D01*
X66162Y-48739D02*
X66162Y-48660D01*
X66221Y-48739D02*
X66162Y-48739D01*
X66280Y-48670D02*
X66280Y-48650D01*
X66280Y-48650D02*
X66260Y-48650D01*
X66260Y-48670D02*
X66260Y-48650D01*
X66280Y-48670D02*
X66260Y-48670D01*
X66359Y-48739D02*
X66359Y-48719D01*
X66359Y-48719D02*
X66211Y-48719D01*
X66211Y-48739D02*
X66211Y-48719D01*
X66359Y-48739D02*
X66211Y-48739D01*
X66280Y-48464D02*
X66280Y-48385D01*
X66280Y-48385D02*
X66162Y-48385D01*
X66162Y-48464D02*
X66162Y-48385D01*
X66280Y-48464D02*
X66162Y-48464D01*
X66359Y-48739D02*
X66359Y-48385D01*
X66359Y-48385D02*
X66270Y-48385D01*
X66270Y-48739D02*
X66270Y-48385D01*
X66359Y-48739D02*
X66270Y-48739D01*
X66830Y-48739D02*
X66830Y-48660D01*
X66830Y-48660D02*
X66633Y-48660D01*
X66633Y-48739D02*
X66633Y-48660D01*
X66830Y-48739D02*
X66633Y-48739D01*
X66830Y-48464D02*
X66830Y-48385D01*
X66830Y-48385D02*
X66633Y-48385D01*
X66633Y-48464D02*
X66633Y-48385D01*
X66830Y-48464D02*
X66633Y-48464D01*
X66722Y-48670D02*
X66722Y-48454D01*
X66722Y-48454D02*
X66633Y-48454D01*
X66633Y-48670D02*
X66633Y-48454D01*
X66722Y-48670D02*
X66633Y-48670D01*
X66751Y-48670D02*
X66751Y-48630D01*
X66751Y-48630D02*
X66712Y-48630D01*
X66712Y-48670D02*
X66712Y-48630D01*
X66751Y-48670D02*
X66712Y-48670D01*
X66751Y-48494D02*
X66751Y-48454D01*
X66751Y-48454D02*
X66712Y-48454D01*
X66712Y-48494D02*
X66712Y-48454D01*
X66751Y-48494D02*
X66712Y-48494D01*
X66496Y-48611D02*
X66496Y-48513D01*
X66496Y-48513D02*
X66398Y-48513D01*
X66398Y-48611D02*
X66398Y-48513D01*
X66496Y-48611D02*
X66398Y-48611D01*
G54D15*
X66349Y-48719D02*
X66633Y-48719D01*
X66359Y-48405D02*
X66633Y-48405D01*
G54D18*
X66269Y-48699D02*
G75*
G03X66269Y-48699I-19J0D01*
G74*
G01*
G54D15*
X66172Y-48680D02*
G75*
G03X66172Y-48444I0J118D01*
G74*
G01*
G54D14*
X66820Y-48454D02*
G75*
G03X66820Y-48670I0J-108D01*
G74*
G01*
G54D13*
X66240Y-41574D02*
X66240Y-41495D01*
X66240Y-41495D02*
X66181Y-41495D01*
X66181Y-41574D02*
X66181Y-41495D01*
X66240Y-41574D02*
X66181Y-41574D01*
X66299Y-41505D02*
X66299Y-41485D01*
X66299Y-41485D02*
X66279Y-41485D01*
X66279Y-41505D02*
X66279Y-41485D01*
X66299Y-41505D02*
X66279Y-41505D01*
X66378Y-41574D02*
X66378Y-41554D01*
X66378Y-41554D02*
X66230Y-41554D01*
X66230Y-41574D02*
X66230Y-41554D01*
X66378Y-41574D02*
X66230Y-41574D01*
X66299Y-41299D02*
X66299Y-41220D01*
X66299Y-41220D02*
X66181Y-41220D01*
X66181Y-41299D02*
X66181Y-41220D01*
X66299Y-41299D02*
X66181Y-41299D01*
X66378Y-41574D02*
X66378Y-41220D01*
X66378Y-41220D02*
X66289Y-41220D01*
X66289Y-41574D02*
X66289Y-41220D01*
X66378Y-41574D02*
X66289Y-41574D01*
X66849Y-41574D02*
X66849Y-41495D01*
X66849Y-41495D02*
X66652Y-41495D01*
X66652Y-41574D02*
X66652Y-41495D01*
X66849Y-41574D02*
X66652Y-41574D01*
X66849Y-41299D02*
X66849Y-41220D01*
X66849Y-41220D02*
X66652Y-41220D01*
X66652Y-41299D02*
X66652Y-41220D01*
X66849Y-41299D02*
X66652Y-41299D01*
X66741Y-41505D02*
X66741Y-41289D01*
X66741Y-41289D02*
X66652Y-41289D01*
X66652Y-41505D02*
X66652Y-41289D01*
X66741Y-41505D02*
X66652Y-41505D01*
X66770Y-41505D02*
X66770Y-41465D01*
X66770Y-41465D02*
X66731Y-41465D01*
X66731Y-41505D02*
X66731Y-41465D01*
X66770Y-41505D02*
X66731Y-41505D01*
X66770Y-41329D02*
X66770Y-41289D01*
X66770Y-41289D02*
X66731Y-41289D01*
X66731Y-41329D02*
X66731Y-41289D01*
X66770Y-41329D02*
X66731Y-41329D01*
X66515Y-41446D02*
X66515Y-41348D01*
X66515Y-41348D02*
X66417Y-41348D01*
X66417Y-41446D02*
X66417Y-41348D01*
X66515Y-41446D02*
X66417Y-41446D01*
G54D15*
X66368Y-41554D02*
X66652Y-41554D01*
X66378Y-41240D02*
X66652Y-41240D01*
G54D18*
X66289Y-41534D02*
G75*
G03X66289Y-41534I-19J0D01*
G74*
G01*
G54D15*
X66191Y-41515D02*
G75*
G03X66191Y-41279I0J118D01*
G74*
G01*
G54D14*
X66839Y-41289D02*
G75*
G03X66839Y-41505I0J-108D01*
G74*
G01*
G54D13*
X65236Y-41574D02*
X65236Y-41495D01*
X65236Y-41495D02*
X65177Y-41495D01*
X65177Y-41574D02*
X65177Y-41495D01*
X65236Y-41574D02*
X65177Y-41574D01*
X65295Y-41505D02*
X65295Y-41485D01*
X65295Y-41485D02*
X65275Y-41485D01*
X65275Y-41505D02*
X65275Y-41485D01*
X65295Y-41505D02*
X65275Y-41505D01*
X65374Y-41574D02*
X65374Y-41554D01*
X65374Y-41554D02*
X65226Y-41554D01*
X65226Y-41574D02*
X65226Y-41554D01*
X65374Y-41574D02*
X65226Y-41574D01*
X65295Y-41299D02*
X65295Y-41220D01*
X65295Y-41220D02*
X65177Y-41220D01*
X65177Y-41299D02*
X65177Y-41220D01*
X65295Y-41299D02*
X65177Y-41299D01*
X65374Y-41574D02*
X65374Y-41220D01*
X65374Y-41220D02*
X65285Y-41220D01*
X65285Y-41574D02*
X65285Y-41220D01*
X65374Y-41574D02*
X65285Y-41574D01*
X65845Y-41574D02*
X65845Y-41495D01*
X65845Y-41495D02*
X65648Y-41495D01*
X65648Y-41574D02*
X65648Y-41495D01*
X65845Y-41574D02*
X65648Y-41574D01*
X65845Y-41299D02*
X65845Y-41220D01*
X65845Y-41220D02*
X65648Y-41220D01*
X65648Y-41299D02*
X65648Y-41220D01*
X65845Y-41299D02*
X65648Y-41299D01*
X65737Y-41505D02*
X65737Y-41289D01*
X65737Y-41289D02*
X65648Y-41289D01*
X65648Y-41505D02*
X65648Y-41289D01*
X65737Y-41505D02*
X65648Y-41505D01*
X65766Y-41505D02*
X65766Y-41465D01*
X65766Y-41465D02*
X65727Y-41465D01*
X65727Y-41505D02*
X65727Y-41465D01*
X65766Y-41505D02*
X65727Y-41505D01*
X65766Y-41329D02*
X65766Y-41289D01*
X65766Y-41289D02*
X65727Y-41289D01*
X65727Y-41329D02*
X65727Y-41289D01*
X65766Y-41329D02*
X65727Y-41329D01*
X65511Y-41446D02*
X65511Y-41348D01*
X65511Y-41348D02*
X65413Y-41348D01*
X65413Y-41446D02*
X65413Y-41348D01*
X65511Y-41446D02*
X65413Y-41446D01*
G54D15*
X65364Y-41554D02*
X65648Y-41554D01*
X65374Y-41240D02*
X65648Y-41240D01*
G54D18*
X65285Y-41534D02*
G75*
G03X65285Y-41534I-19J0D01*
G74*
G01*
G54D15*
X65187Y-41515D02*
G75*
G03X65187Y-41279I0J118D01*
G74*
G01*
G54D14*
X65835Y-41289D02*
G75*
G03X65835Y-41505I0J-108D01*
G74*
G01*
G54D13*
X64232Y-41574D02*
X64232Y-41495D01*
X64232Y-41495D02*
X64173Y-41495D01*
X64173Y-41574D02*
X64173Y-41495D01*
X64232Y-41574D02*
X64173Y-41574D01*
X64291Y-41505D02*
X64291Y-41485D01*
X64291Y-41485D02*
X64271Y-41485D01*
X64271Y-41505D02*
X64271Y-41485D01*
X64291Y-41505D02*
X64271Y-41505D01*
X64370Y-41574D02*
X64370Y-41554D01*
X64370Y-41554D02*
X64222Y-41554D01*
X64222Y-41574D02*
X64222Y-41554D01*
X64370Y-41574D02*
X64222Y-41574D01*
X64291Y-41299D02*
X64291Y-41220D01*
X64291Y-41220D02*
X64173Y-41220D01*
X64173Y-41299D02*
X64173Y-41220D01*
X64291Y-41299D02*
X64173Y-41299D01*
X64370Y-41574D02*
X64370Y-41220D01*
X64370Y-41220D02*
X64281Y-41220D01*
X64281Y-41574D02*
X64281Y-41220D01*
X64370Y-41574D02*
X64281Y-41574D01*
X64841Y-41574D02*
X64841Y-41495D01*
X64841Y-41495D02*
X64644Y-41495D01*
X64644Y-41574D02*
X64644Y-41495D01*
X64841Y-41574D02*
X64644Y-41574D01*
X64841Y-41299D02*
X64841Y-41220D01*
X64841Y-41220D02*
X64644Y-41220D01*
X64644Y-41299D02*
X64644Y-41220D01*
X64841Y-41299D02*
X64644Y-41299D01*
X64733Y-41505D02*
X64733Y-41289D01*
X64733Y-41289D02*
X64644Y-41289D01*
X64644Y-41505D02*
X64644Y-41289D01*
X64733Y-41505D02*
X64644Y-41505D01*
X64762Y-41505D02*
X64762Y-41465D01*
X64762Y-41465D02*
X64723Y-41465D01*
X64723Y-41505D02*
X64723Y-41465D01*
X64762Y-41505D02*
X64723Y-41505D01*
X64762Y-41329D02*
X64762Y-41289D01*
X64762Y-41289D02*
X64723Y-41289D01*
X64723Y-41329D02*
X64723Y-41289D01*
X64762Y-41329D02*
X64723Y-41329D01*
X64507Y-41446D02*
X64507Y-41348D01*
X64507Y-41348D02*
X64409Y-41348D01*
X64409Y-41446D02*
X64409Y-41348D01*
X64507Y-41446D02*
X64409Y-41446D01*
G54D15*
X64360Y-41554D02*
X64644Y-41554D01*
X64370Y-41240D02*
X64644Y-41240D01*
G54D18*
X64281Y-41534D02*
G75*
G03X64281Y-41534I-19J0D01*
G74*
G01*
G54D15*
X64183Y-41515D02*
G75*
G03X64183Y-41279I0J118D01*
G74*
G01*
G54D14*
X64831Y-41289D02*
G75*
G03X64831Y-41505I0J-108D01*
G74*
G01*
G54D13*
X63248Y-41574D02*
X63248Y-41495D01*
X63248Y-41495D02*
X63189Y-41495D01*
X63189Y-41574D02*
X63189Y-41495D01*
X63248Y-41574D02*
X63189Y-41574D01*
X63307Y-41505D02*
X63307Y-41485D01*
X63307Y-41485D02*
X63287Y-41485D01*
X63287Y-41505D02*
X63287Y-41485D01*
X63307Y-41505D02*
X63287Y-41505D01*
X63386Y-41574D02*
X63386Y-41554D01*
X63386Y-41554D02*
X63238Y-41554D01*
X63238Y-41574D02*
X63238Y-41554D01*
X63386Y-41574D02*
X63238Y-41574D01*
X63307Y-41299D02*
X63307Y-41220D01*
X63307Y-41220D02*
X63189Y-41220D01*
X63189Y-41299D02*
X63189Y-41220D01*
X63307Y-41299D02*
X63189Y-41299D01*
X63386Y-41574D02*
X63386Y-41220D01*
X63386Y-41220D02*
X63297Y-41220D01*
X63297Y-41574D02*
X63297Y-41220D01*
X63386Y-41574D02*
X63297Y-41574D01*
X63857Y-41574D02*
X63857Y-41495D01*
X63857Y-41495D02*
X63660Y-41495D01*
X63660Y-41574D02*
X63660Y-41495D01*
X63857Y-41574D02*
X63660Y-41574D01*
X63857Y-41299D02*
X63857Y-41220D01*
X63857Y-41220D02*
X63660Y-41220D01*
X63660Y-41299D02*
X63660Y-41220D01*
X63857Y-41299D02*
X63660Y-41299D01*
X63749Y-41505D02*
X63749Y-41289D01*
X63749Y-41289D02*
X63660Y-41289D01*
X63660Y-41505D02*
X63660Y-41289D01*
X63749Y-41505D02*
X63660Y-41505D01*
X63778Y-41505D02*
X63778Y-41465D01*
X63778Y-41465D02*
X63739Y-41465D01*
X63739Y-41505D02*
X63739Y-41465D01*
X63778Y-41505D02*
X63739Y-41505D01*
X63778Y-41329D02*
X63778Y-41289D01*
X63778Y-41289D02*
X63739Y-41289D01*
X63739Y-41329D02*
X63739Y-41289D01*
X63778Y-41329D02*
X63739Y-41329D01*
X63523Y-41446D02*
X63523Y-41348D01*
X63523Y-41348D02*
X63425Y-41348D01*
X63425Y-41446D02*
X63425Y-41348D01*
X63523Y-41446D02*
X63425Y-41446D01*
G54D15*
X63376Y-41554D02*
X63660Y-41554D01*
X63386Y-41240D02*
X63660Y-41240D01*
G54D18*
X63297Y-41534D02*
G75*
G03X63297Y-41534I-19J0D01*
G74*
G01*
G54D15*
X63199Y-41515D02*
G75*
G03X63199Y-41279I0J118D01*
G74*
G01*
G54D14*
X63847Y-41289D02*
G75*
G03X63847Y-41505I0J-108D01*
G74*
G01*
G54D13*
X60217Y-41574D02*
X60217Y-41495D01*
X60217Y-41495D02*
X60158Y-41495D01*
X60158Y-41574D02*
X60158Y-41495D01*
X60217Y-41574D02*
X60158Y-41574D01*
X60276Y-41505D02*
X60276Y-41485D01*
X60276Y-41485D02*
X60256Y-41485D01*
X60256Y-41505D02*
X60256Y-41485D01*
X60276Y-41505D02*
X60256Y-41505D01*
X60355Y-41574D02*
X60355Y-41554D01*
X60355Y-41554D02*
X60207Y-41554D01*
X60207Y-41574D02*
X60207Y-41554D01*
X60355Y-41574D02*
X60207Y-41574D01*
X60276Y-41299D02*
X60276Y-41220D01*
X60276Y-41220D02*
X60158Y-41220D01*
X60158Y-41299D02*
X60158Y-41220D01*
X60276Y-41299D02*
X60158Y-41299D01*
X60355Y-41574D02*
X60355Y-41220D01*
X60355Y-41220D02*
X60266Y-41220D01*
X60266Y-41574D02*
X60266Y-41220D01*
X60355Y-41574D02*
X60266Y-41574D01*
X60826Y-41574D02*
X60826Y-41495D01*
X60826Y-41495D02*
X60629Y-41495D01*
X60629Y-41574D02*
X60629Y-41495D01*
X60826Y-41574D02*
X60629Y-41574D01*
X60826Y-41299D02*
X60826Y-41220D01*
X60826Y-41220D02*
X60629Y-41220D01*
X60629Y-41299D02*
X60629Y-41220D01*
X60826Y-41299D02*
X60629Y-41299D01*
X60718Y-41505D02*
X60718Y-41289D01*
X60718Y-41289D02*
X60629Y-41289D01*
X60629Y-41505D02*
X60629Y-41289D01*
X60718Y-41505D02*
X60629Y-41505D01*
X60747Y-41505D02*
X60747Y-41465D01*
X60747Y-41465D02*
X60708Y-41465D01*
X60708Y-41505D02*
X60708Y-41465D01*
X60747Y-41505D02*
X60708Y-41505D01*
X60747Y-41329D02*
X60747Y-41289D01*
X60747Y-41289D02*
X60708Y-41289D01*
X60708Y-41329D02*
X60708Y-41289D01*
X60747Y-41329D02*
X60708Y-41329D01*
X60492Y-41446D02*
X60492Y-41348D01*
X60492Y-41348D02*
X60394Y-41348D01*
X60394Y-41446D02*
X60394Y-41348D01*
X60492Y-41446D02*
X60394Y-41446D01*
G54D15*
X60345Y-41554D02*
X60629Y-41554D01*
X60355Y-41240D02*
X60629Y-41240D01*
G54D18*
X60265Y-41534D02*
G75*
G03X60265Y-41534I-19J0D01*
G74*
G01*
G54D15*
X60168Y-41515D02*
G75*
G03X60168Y-41279I0J118D01*
G74*
G01*
G54D14*
X60816Y-41289D02*
G75*
G03X60816Y-41505I0J-108D01*
G74*
G01*
G54D13*
X59213Y-41574D02*
X59213Y-41495D01*
X59213Y-41495D02*
X59154Y-41495D01*
X59154Y-41574D02*
X59154Y-41495D01*
X59213Y-41574D02*
X59154Y-41574D01*
X59272Y-41505D02*
X59272Y-41485D01*
X59272Y-41485D02*
X59252Y-41485D01*
X59252Y-41505D02*
X59252Y-41485D01*
X59272Y-41505D02*
X59252Y-41505D01*
X59351Y-41574D02*
X59351Y-41554D01*
X59351Y-41554D02*
X59203Y-41554D01*
X59203Y-41574D02*
X59203Y-41554D01*
X59351Y-41574D02*
X59203Y-41574D01*
X59272Y-41299D02*
X59272Y-41220D01*
X59272Y-41220D02*
X59154Y-41220D01*
X59154Y-41299D02*
X59154Y-41220D01*
X59272Y-41299D02*
X59154Y-41299D01*
X59351Y-41574D02*
X59351Y-41220D01*
X59351Y-41220D02*
X59262Y-41220D01*
X59262Y-41574D02*
X59262Y-41220D01*
X59351Y-41574D02*
X59262Y-41574D01*
X59822Y-41574D02*
X59822Y-41495D01*
X59822Y-41495D02*
X59625Y-41495D01*
X59625Y-41574D02*
X59625Y-41495D01*
X59822Y-41574D02*
X59625Y-41574D01*
X59822Y-41299D02*
X59822Y-41220D01*
X59822Y-41220D02*
X59625Y-41220D01*
X59625Y-41299D02*
X59625Y-41220D01*
X59822Y-41299D02*
X59625Y-41299D01*
X59714Y-41505D02*
X59714Y-41289D01*
X59714Y-41289D02*
X59625Y-41289D01*
X59625Y-41505D02*
X59625Y-41289D01*
X59714Y-41505D02*
X59625Y-41505D01*
X59743Y-41505D02*
X59743Y-41465D01*
X59743Y-41465D02*
X59704Y-41465D01*
X59704Y-41505D02*
X59704Y-41465D01*
X59743Y-41505D02*
X59704Y-41505D01*
X59743Y-41329D02*
X59743Y-41289D01*
X59743Y-41289D02*
X59704Y-41289D01*
X59704Y-41329D02*
X59704Y-41289D01*
X59743Y-41329D02*
X59704Y-41329D01*
X59488Y-41446D02*
X59488Y-41348D01*
X59488Y-41348D02*
X59390Y-41348D01*
X59390Y-41446D02*
X59390Y-41348D01*
X59488Y-41446D02*
X59390Y-41446D01*
G54D15*
X59341Y-41554D02*
X59625Y-41554D01*
X59351Y-41240D02*
X59625Y-41240D01*
G54D18*
X59261Y-41534D02*
G75*
G03X59261Y-41534I-19J0D01*
G74*
G01*
G54D15*
X59164Y-41515D02*
G75*
G03X59164Y-41279I0J118D01*
G74*
G01*
G54D14*
X59812Y-41289D02*
G75*
G03X59812Y-41505I0J-108D01*
G74*
G01*
G54D13*
X62225Y-41574D02*
X62225Y-41495D01*
X62225Y-41495D02*
X62166Y-41495D01*
X62166Y-41574D02*
X62166Y-41495D01*
X62225Y-41574D02*
X62166Y-41574D01*
X62284Y-41505D02*
X62284Y-41485D01*
X62284Y-41485D02*
X62264Y-41485D01*
X62264Y-41505D02*
X62264Y-41485D01*
X62284Y-41505D02*
X62264Y-41505D01*
X62363Y-41574D02*
X62363Y-41554D01*
X62363Y-41554D02*
X62215Y-41554D01*
X62215Y-41574D02*
X62215Y-41554D01*
X62363Y-41574D02*
X62215Y-41574D01*
X62284Y-41299D02*
X62284Y-41220D01*
X62284Y-41220D02*
X62166Y-41220D01*
X62166Y-41299D02*
X62166Y-41220D01*
X62284Y-41299D02*
X62166Y-41299D01*
X62363Y-41574D02*
X62363Y-41220D01*
X62363Y-41220D02*
X62274Y-41220D01*
X62274Y-41574D02*
X62274Y-41220D01*
X62363Y-41574D02*
X62274Y-41574D01*
X62834Y-41574D02*
X62834Y-41495D01*
X62834Y-41495D02*
X62637Y-41495D01*
X62637Y-41574D02*
X62637Y-41495D01*
X62834Y-41574D02*
X62637Y-41574D01*
X62834Y-41299D02*
X62834Y-41220D01*
X62834Y-41220D02*
X62637Y-41220D01*
X62637Y-41299D02*
X62637Y-41220D01*
X62834Y-41299D02*
X62637Y-41299D01*
X62726Y-41505D02*
X62726Y-41289D01*
X62726Y-41289D02*
X62637Y-41289D01*
X62637Y-41505D02*
X62637Y-41289D01*
X62726Y-41505D02*
X62637Y-41505D01*
X62755Y-41505D02*
X62755Y-41465D01*
X62755Y-41465D02*
X62716Y-41465D01*
X62716Y-41505D02*
X62716Y-41465D01*
X62755Y-41505D02*
X62716Y-41505D01*
X62755Y-41329D02*
X62755Y-41289D01*
X62755Y-41289D02*
X62716Y-41289D01*
X62716Y-41329D02*
X62716Y-41289D01*
X62755Y-41329D02*
X62716Y-41329D01*
X62500Y-41446D02*
X62500Y-41348D01*
X62500Y-41348D02*
X62402Y-41348D01*
X62402Y-41446D02*
X62402Y-41348D01*
X62500Y-41446D02*
X62402Y-41446D01*
G54D15*
X62353Y-41554D02*
X62637Y-41554D01*
X62363Y-41240D02*
X62637Y-41240D01*
G54D18*
X62273Y-41534D02*
G75*
G03X62273Y-41534I-19J0D01*
G74*
G01*
G54D15*
X62176Y-41515D02*
G75*
G03X62176Y-41279I0J118D01*
G74*
G01*
G54D14*
X62824Y-41289D02*
G75*
G03X62824Y-41505I0J-108D01*
G74*
G01*
G54D13*
X61221Y-41574D02*
X61221Y-41495D01*
X61221Y-41495D02*
X61162Y-41495D01*
X61162Y-41574D02*
X61162Y-41495D01*
X61221Y-41574D02*
X61162Y-41574D01*
X61280Y-41505D02*
X61280Y-41485D01*
X61280Y-41485D02*
X61260Y-41485D01*
X61260Y-41505D02*
X61260Y-41485D01*
X61280Y-41505D02*
X61260Y-41505D01*
X61359Y-41574D02*
X61359Y-41554D01*
X61359Y-41554D02*
X61211Y-41554D01*
X61211Y-41574D02*
X61211Y-41554D01*
X61359Y-41574D02*
X61211Y-41574D01*
X61280Y-41299D02*
X61280Y-41220D01*
X61280Y-41220D02*
X61162Y-41220D01*
X61162Y-41299D02*
X61162Y-41220D01*
X61280Y-41299D02*
X61162Y-41299D01*
X61359Y-41574D02*
X61359Y-41220D01*
X61359Y-41220D02*
X61270Y-41220D01*
X61270Y-41574D02*
X61270Y-41220D01*
X61359Y-41574D02*
X61270Y-41574D01*
X61830Y-41574D02*
X61830Y-41495D01*
X61830Y-41495D02*
X61633Y-41495D01*
X61633Y-41574D02*
X61633Y-41495D01*
X61830Y-41574D02*
X61633Y-41574D01*
X61830Y-41299D02*
X61830Y-41220D01*
X61830Y-41220D02*
X61633Y-41220D01*
X61633Y-41299D02*
X61633Y-41220D01*
X61830Y-41299D02*
X61633Y-41299D01*
X61722Y-41505D02*
X61722Y-41289D01*
X61722Y-41289D02*
X61633Y-41289D01*
X61633Y-41505D02*
X61633Y-41289D01*
X61722Y-41505D02*
X61633Y-41505D01*
X61751Y-41505D02*
X61751Y-41465D01*
X61751Y-41465D02*
X61712Y-41465D01*
X61712Y-41505D02*
X61712Y-41465D01*
X61751Y-41505D02*
X61712Y-41505D01*
X61751Y-41329D02*
X61751Y-41289D01*
X61751Y-41289D02*
X61712Y-41289D01*
X61712Y-41329D02*
X61712Y-41289D01*
X61751Y-41329D02*
X61712Y-41329D01*
X61496Y-41446D02*
X61496Y-41348D01*
X61496Y-41348D02*
X61398Y-41348D01*
X61398Y-41446D02*
X61398Y-41348D01*
X61496Y-41446D02*
X61398Y-41446D01*
G54D15*
X61349Y-41554D02*
X61633Y-41554D01*
X61359Y-41240D02*
X61633Y-41240D01*
G54D18*
X61269Y-41534D02*
G75*
G03X61269Y-41534I-19J0D01*
G74*
G01*
G54D15*
X61172Y-41515D02*
G75*
G03X61172Y-41279I0J118D01*
G74*
G01*
G54D14*
X61820Y-41289D02*
G75*
G03X61820Y-41505I0J-108D01*
G74*
G01*
G54D11*
X55334Y-46202D02*
X55071Y-46202D01*
X54940Y-46202D02*
X54959Y-46221D01*
X54978Y-46202D01*
X54959Y-46184D01*
X54940Y-46202D01*
X54978Y-46202D01*
X55071Y-46015D02*
X55334Y-46015D01*
X55109Y-46015D02*
X55090Y-45996D01*
X55071Y-45959D01*
X55071Y-45903D01*
X55090Y-45865D01*
X55128Y-45846D01*
X55334Y-45846D01*
X55071Y-45715D02*
X55071Y-45565D01*
X54940Y-45659D02*
X55278Y-45659D01*
X55315Y-45640D01*
X55334Y-45603D01*
X55334Y-45565D01*
X55296Y-45434D02*
X55315Y-45415D01*
X55334Y-45434D01*
X55315Y-45453D01*
X55296Y-45434D01*
X55334Y-45434D01*
X55334Y-44759D02*
X55334Y-44946D01*
X54940Y-44946D01*
X55128Y-44628D02*
X55128Y-44496D01*
X55334Y-44440D02*
X55334Y-44628D01*
X54940Y-44628D01*
X54940Y-44440D01*
X55334Y-44271D02*
X54940Y-44271D01*
X54940Y-44178D01*
X54959Y-44121D01*
X54996Y-44084D01*
X55034Y-44065D01*
X55109Y-44046D01*
X55165Y-44046D01*
X55240Y-44065D01*
X55278Y-44084D01*
X55315Y-44121D01*
X55334Y-44178D01*
X55334Y-44271D01*
X55315Y-43897D02*
X55334Y-43859D01*
X55334Y-43784D01*
X55315Y-43747D01*
X55278Y-43728D01*
X55259Y-43728D01*
X55221Y-43747D01*
X55203Y-43784D01*
X55203Y-43840D01*
X55184Y-43878D01*
X55146Y-43897D01*
X55128Y-43897D01*
X55090Y-43878D01*
X55071Y-43840D01*
X55071Y-43784D01*
X55090Y-43747D01*
X60615Y-44659D02*
X60615Y-44265D01*
X61028Y-44621D02*
X61009Y-44640D01*
X60953Y-44659D01*
X60915Y-44659D01*
X60859Y-44640D01*
X60821Y-44603D01*
X60803Y-44565D01*
X60784Y-44490D01*
X60784Y-44434D01*
X60803Y-44359D01*
X60821Y-44321D01*
X60859Y-44284D01*
X60915Y-44265D01*
X60953Y-44265D01*
X61009Y-44284D01*
X61028Y-44303D01*
X61403Y-44659D02*
X61178Y-44659D01*
X61290Y-44659D02*
X61290Y-44265D01*
X61253Y-44321D01*
X61215Y-44359D01*
X61178Y-44378D01*
X59462Y-45659D02*
X59462Y-45265D01*
X59593Y-45546D01*
X59725Y-45265D01*
X59725Y-45659D01*
X60043Y-45453D02*
X60100Y-45471D01*
X60118Y-45490D01*
X60137Y-45528D01*
X60137Y-45584D01*
X60118Y-45621D01*
X60100Y-45640D01*
X60062Y-45659D01*
X59912Y-45659D01*
X59912Y-45265D01*
X60043Y-45265D01*
X60081Y-45284D01*
X60100Y-45303D01*
X60118Y-45340D01*
X60118Y-45378D01*
X60100Y-45415D01*
X60081Y-45434D01*
X60043Y-45453D01*
X59912Y-45453D01*
X60306Y-45659D02*
X60306Y-45265D01*
X60681Y-45265D02*
X60493Y-45265D01*
X60475Y-45453D01*
X60493Y-45434D01*
X60531Y-45415D01*
X60625Y-45415D01*
X60662Y-45434D01*
X60681Y-45453D01*
X60700Y-45490D01*
X60700Y-45584D01*
X60681Y-45621D01*
X60662Y-45640D01*
X60625Y-45659D01*
X60531Y-45659D01*
X60493Y-45640D01*
X60475Y-45621D01*
X60943Y-45265D02*
X60981Y-45265D01*
X61018Y-45284D01*
X61037Y-45303D01*
X61056Y-45340D01*
X61074Y-45415D01*
X61074Y-45509D01*
X61056Y-45584D01*
X61037Y-45621D01*
X61018Y-45640D01*
X60981Y-45659D01*
X60943Y-45659D01*
X60906Y-45640D01*
X60887Y-45621D01*
X60868Y-45584D01*
X60850Y-45509D01*
X60850Y-45415D01*
X60868Y-45340D01*
X60887Y-45303D01*
X60906Y-45284D01*
X60943Y-45265D01*
X61206Y-45265D02*
X61449Y-45265D01*
X61318Y-45415D01*
X61374Y-45415D01*
X61412Y-45434D01*
X61431Y-45453D01*
X61449Y-45490D01*
X61449Y-45584D01*
X61431Y-45621D01*
X61412Y-45640D01*
X61374Y-45659D01*
X61262Y-45659D01*
X61224Y-45640D01*
X61206Y-45621D01*
X61693Y-45265D02*
X61731Y-45265D01*
X61768Y-45284D01*
X61787Y-45303D01*
X61806Y-45340D01*
X61824Y-45415D01*
X61824Y-45509D01*
X61806Y-45584D01*
X61787Y-45621D01*
X61768Y-45640D01*
X61731Y-45659D01*
X61693Y-45659D01*
X61656Y-45640D01*
X61637Y-45621D01*
X61618Y-45584D01*
X61599Y-45509D01*
X61599Y-45415D01*
X61618Y-45340D01*
X61637Y-45303D01*
X61656Y-45284D01*
X61693Y-45265D01*
X62199Y-45284D02*
X62162Y-45265D01*
X62106Y-45265D01*
X62049Y-45284D01*
X62012Y-45321D01*
X61993Y-45359D01*
X61974Y-45434D01*
X61974Y-45490D01*
X61993Y-45565D01*
X62012Y-45603D01*
X62049Y-45640D01*
X62106Y-45659D01*
X62143Y-45659D01*
X62199Y-45640D01*
X62218Y-45621D01*
X62218Y-45490D01*
X62143Y-45490D01*
X62518Y-45453D02*
X62387Y-45453D01*
X62387Y-45659D02*
X62387Y-45265D01*
X62574Y-45265D01*
X64096Y-44309D02*
X63965Y-44121D01*
X63871Y-44309D02*
X63871Y-43915D01*
X64021Y-43915D01*
X64059Y-43934D01*
X64078Y-43953D01*
X64096Y-43990D01*
X64096Y-44046D01*
X64078Y-44084D01*
X64059Y-44103D01*
X64021Y-44121D01*
X63871Y-44121D01*
X64471Y-44309D02*
X64246Y-44309D01*
X64359Y-44309D02*
X64359Y-43915D01*
X64321Y-43971D01*
X64284Y-44009D01*
X64246Y-44028D01*
X64603Y-43915D02*
X64865Y-43915D01*
X64696Y-44309D01*
%LPC*%
G54D19*
X56025Y-44500D03*
G54D20*
X56025Y-45500D03*
G54D21*
X57875Y-44651D03*
X57875Y-45399D03*
G54D22*
X55500Y-49500D03*
G54D23*
X56500Y-49500D03*
X57500Y-49500D03*
X58500Y-49500D03*
X59500Y-49500D03*
X60500Y-49500D03*
X61500Y-49500D03*
X62500Y-49500D03*
X63500Y-49500D03*
X64500Y-49500D03*
X65500Y-49500D03*
X66500Y-49500D03*
G54D24*
X66594Y-44391D03*
X65806Y-44391D03*
G54D25*
X66200Y-45671D03*
G54D26*
X58835Y-46575D03*
X59228Y-46575D03*
X59622Y-46575D03*
X60016Y-46575D03*
X60409Y-46575D03*
X60803Y-46575D03*
X61197Y-46575D03*
X61591Y-46575D03*
X61984Y-46575D03*
X62378Y-46575D03*
X62772Y-46575D03*
X63165Y-46575D03*
X63165Y-43425D03*
X62772Y-43425D03*
X62378Y-43425D03*
X61984Y-43425D03*
X61591Y-43425D03*
X61197Y-43425D03*
X60803Y-43425D03*
X60409Y-43425D03*
X60016Y-43425D03*
X59622Y-43425D03*
X59228Y-43425D03*
X58835Y-43425D03*
G54D27*
X66122Y-42263D03*
X66790Y-42263D03*
G54D28*
X64330Y-44685D03*
X64330Y-45353D03*
G54D27*
X65788Y-43425D03*
X66456Y-43425D03*
X64507Y-42263D03*
X63839Y-42263D03*
X64979Y-43425D03*
X64311Y-43425D03*
X57066Y-43800D03*
X57734Y-43800D03*
X57066Y-42950D03*
X57734Y-42950D03*
X55216Y-42850D03*
X55884Y-42850D03*
X55216Y-42000D03*
X55884Y-42000D03*
X66122Y-47755D03*
X66790Y-47755D03*
X65768Y-46732D03*
X66436Y-46732D03*
X64979Y-46732D03*
X64311Y-46732D03*
X64487Y-47755D03*
X63819Y-47755D03*
X57066Y-47100D03*
X57734Y-47100D03*
X57066Y-46250D03*
X57734Y-46250D03*
X55216Y-47150D03*
X55884Y-47150D03*
X55216Y-48000D03*
X55884Y-48000D03*
G54D21*
X57050Y-44651D03*
X57050Y-45399D03*
G54D19*
X55500Y-40500D03*
G54D20*
X56500Y-40500D03*
X57500Y-40500D03*
X58500Y-40500D03*
X59500Y-40500D03*
X60500Y-40500D03*
X61500Y-40500D03*
X62500Y-40500D03*
X63500Y-40500D03*
X64500Y-40500D03*
X65500Y-40500D03*
X66500Y-40500D03*
G54D29*
X64802Y-48562D03*
X64212Y-48562D03*
X63798Y-48562D03*
X63208Y-48562D03*
X65787Y-48562D03*
X65197Y-48562D03*
X62795Y-48562D03*
X62205Y-48562D03*
X61791Y-48562D03*
X61201Y-48562D03*
X60787Y-48562D03*
X60197Y-48562D03*
X59802Y-48562D03*
X59212Y-48562D03*
X66791Y-48562D03*
X66201Y-48562D03*
X66810Y-41397D03*
X66220Y-41397D03*
X65806Y-41397D03*
X65216Y-41397D03*
X64802Y-41397D03*
X64212Y-41397D03*
X63818Y-41397D03*
X63228Y-41397D03*
X60787Y-41397D03*
X60197Y-41397D03*
X59783Y-41397D03*
X59193Y-41397D03*
X62795Y-41397D03*
X62205Y-41397D03*
X61791Y-41397D03*
X61201Y-41397D03*
M02*
