G04 (created by PCBNEW (2013-01-25 BZR 3922)-testing) date Sat 26 Jan 2013 09:44:33 AM CET*
%MOIN*%
G04 Gerber Fmt 3.4, Leading zero omitted, Abs format*
%FSLAX34Y34*%
G01*
G70*
G90*
G04 APERTURE LIST*
%ADD10C,2.3622e-06*%
%ADD11R,0.06X0.06*%
%ADD12C,0.06*%
%ADD13R,0.059X0.0511*%
%ADD14R,0.065X0.065*%
%ADD15C,0.065*%
%ADD16R,0.0472X0.0472*%
%ADD17R,0.063X0.0591*%
%ADD18R,0.0256X0.063*%
%ADD19R,0.0314X0.0314*%
G04 APERTURE END LIST*
G54D10*
G54D11*
X56025Y-44500D03*
G54D12*
X56025Y-45500D03*
G54D13*
X57875Y-44651D03*
X57875Y-45399D03*
G54D14*
X55500Y-49000D03*
G54D15*
X56500Y-49000D03*
X57500Y-49000D03*
X58500Y-49000D03*
X59500Y-49000D03*
X60500Y-49000D03*
X61500Y-49000D03*
X62500Y-49000D03*
X63500Y-49000D03*
X64500Y-49000D03*
X65500Y-49000D03*
X66500Y-49000D03*
G54D16*
X66594Y-44391D03*
X65806Y-44391D03*
G54D17*
X66200Y-45671D03*
G54D18*
X58835Y-46575D03*
X59228Y-46575D03*
X59622Y-46575D03*
X60016Y-46575D03*
X60409Y-46575D03*
X60803Y-46575D03*
X61197Y-46575D03*
X61591Y-46575D03*
X61984Y-46575D03*
X62378Y-46575D03*
X62772Y-46575D03*
X63165Y-46575D03*
X63165Y-43425D03*
X62772Y-43425D03*
X62378Y-43425D03*
X61984Y-43425D03*
X61591Y-43425D03*
X61197Y-43425D03*
X60803Y-43425D03*
X60409Y-43425D03*
X60016Y-43425D03*
X59622Y-43425D03*
X59228Y-43425D03*
X58835Y-43425D03*
G54D13*
X57050Y-44651D03*
X57050Y-45399D03*
G54D11*
X55500Y-41000D03*
G54D12*
X56500Y-41000D03*
X57500Y-41000D03*
X58500Y-41000D03*
X59500Y-41000D03*
X60500Y-41000D03*
X61500Y-41000D03*
X62500Y-41000D03*
X63500Y-41000D03*
X64500Y-41000D03*
X65500Y-41000D03*
X66500Y-41000D03*
G54D19*
X64795Y-48100D03*
X64205Y-48100D03*
X63795Y-48100D03*
X63205Y-48100D03*
X65795Y-48100D03*
X65205Y-48100D03*
X62795Y-48100D03*
X62205Y-48100D03*
X61795Y-48100D03*
X61205Y-48100D03*
X60795Y-48100D03*
X60205Y-48100D03*
X59795Y-48100D03*
X59205Y-48100D03*
X66795Y-48100D03*
X66205Y-48100D03*
X66795Y-41900D03*
X66205Y-41900D03*
X65795Y-41900D03*
X65205Y-41900D03*
X64795Y-41900D03*
X64205Y-41900D03*
X63795Y-41900D03*
X63205Y-41900D03*
X60795Y-41900D03*
X60205Y-41900D03*
X59795Y-41900D03*
X59205Y-41900D03*
X62795Y-41900D03*
X62205Y-41900D03*
X61795Y-41900D03*
X61205Y-41900D03*
X59205Y-42550D03*
X59795Y-42550D03*
X60205Y-42550D03*
X60795Y-42550D03*
X66205Y-42550D03*
X66795Y-42550D03*
X64250Y-44705D03*
X64250Y-45295D03*
X65205Y-42550D03*
X65795Y-42550D03*
X63205Y-42550D03*
X63795Y-42550D03*
X64205Y-42550D03*
X64795Y-42550D03*
X62205Y-42550D03*
X62795Y-42550D03*
X61205Y-42550D03*
X61795Y-42550D03*
X66205Y-47450D03*
X66795Y-47450D03*
X65205Y-47450D03*
X65795Y-47450D03*
X64205Y-47450D03*
X64795Y-47450D03*
X63205Y-47450D03*
X63795Y-47450D03*
X61205Y-47450D03*
X61795Y-47450D03*
X62205Y-47450D03*
X62795Y-47450D03*
X60205Y-47450D03*
X60795Y-47450D03*
X59205Y-47450D03*
X59795Y-47450D03*
M02*
