G04 (created by PCBNEW (2013-01-19 BZR 3914)-testing) date Mon 21 Jan 2013 08:32:15 AM CET*
%MOIN*%
G04 Gerber Fmt 3.4, Leading zero omitted, Abs format*
%FSLAX34Y34*%
G01*
G70*
G90*
G04 APERTURE LIST*
%ADD10C,2.3622e-06*%
%ADD11R,0.06X0.06*%
%ADD12C,0.06*%
%ADD13R,0.065X0.065*%
%ADD14C,0.065*%
%ADD15C,0.025*%
%ADD16C,0.012*%
G04 APERTURE END LIST*
G54D10*
G54D11*
X56025Y-44500D03*
G54D12*
X56025Y-45500D03*
G54D13*
X55500Y-49000D03*
G54D14*
X56500Y-49000D03*
X57500Y-49000D03*
X58500Y-49000D03*
X59500Y-49000D03*
X60500Y-49000D03*
X61500Y-49000D03*
X62500Y-49000D03*
X63500Y-49000D03*
X64500Y-49000D03*
X65500Y-49000D03*
X66500Y-49000D03*
G54D11*
X55500Y-41000D03*
G54D12*
X56500Y-41000D03*
X57500Y-41000D03*
X58500Y-41000D03*
X59500Y-41000D03*
X60500Y-41000D03*
X61500Y-41000D03*
X62500Y-41000D03*
X63500Y-41000D03*
X64500Y-41000D03*
X65500Y-41000D03*
X66500Y-41000D03*
G54D15*
X59645Y-45866D03*
X60039Y-44094D03*
X60039Y-45866D03*
X60433Y-45866D03*
X60826Y-45866D03*
X62401Y-44094D03*
X62007Y-44094D03*
X61614Y-44094D03*
X61220Y-44094D03*
X60826Y-44094D03*
X60433Y-44094D03*
X61220Y-45866D03*
X61614Y-45866D03*
X62007Y-45866D03*
X62401Y-45866D03*
X62795Y-45866D03*
X63622Y-46614D03*
X63600Y-43450D03*
X62795Y-44094D03*
X59251Y-44094D03*
X59251Y-45866D03*
X59645Y-44094D03*
X58425Y-46614D03*
X65200Y-45900D03*
X65200Y-44100D03*
X58400Y-43400D03*
G54D16*
X59645Y-46854D02*
X57500Y-49000D01*
X59645Y-45866D02*
X59645Y-46854D01*
X60039Y-42539D02*
X58500Y-41000D01*
X60039Y-44094D02*
X60039Y-42539D01*
X60039Y-47460D02*
X58500Y-49000D01*
X60039Y-45866D02*
X60039Y-47460D01*
X60433Y-48066D02*
X59500Y-49000D01*
X60433Y-45866D02*
X60433Y-48066D01*
X60826Y-48673D02*
X60500Y-49000D01*
X60826Y-45866D02*
X60826Y-48673D01*
X62401Y-43098D02*
X64500Y-41000D01*
X62401Y-44094D02*
X62401Y-43098D01*
X62007Y-42492D02*
X63500Y-41000D01*
X62007Y-44094D02*
X62007Y-42492D01*
X61614Y-41885D02*
X62500Y-41000D01*
X61614Y-44094D02*
X61614Y-41885D01*
X61220Y-41279D02*
X61500Y-41000D01*
X61220Y-44094D02*
X61220Y-41279D01*
X60826Y-41326D02*
X60500Y-41000D01*
X60826Y-44094D02*
X60826Y-41326D01*
X60433Y-41933D02*
X59500Y-41000D01*
X60433Y-44094D02*
X60433Y-41933D01*
X61220Y-48720D02*
X61500Y-49000D01*
X61220Y-45866D02*
X61220Y-48720D01*
X61614Y-48114D02*
X62500Y-49000D01*
X61614Y-45866D02*
X61614Y-48114D01*
X62007Y-47507D02*
X63500Y-49000D01*
X62007Y-45866D02*
X62007Y-47507D01*
X62401Y-46901D02*
X64500Y-49000D01*
X62401Y-45866D02*
X62401Y-46901D01*
X62795Y-46295D02*
X65500Y-49000D01*
X62795Y-45866D02*
X62795Y-46295D01*
X64114Y-46614D02*
X66500Y-49000D01*
X63622Y-46614D02*
X64114Y-46614D01*
X64050Y-43450D02*
X66500Y-41000D01*
X63600Y-43450D02*
X64050Y-43450D01*
X62795Y-43704D02*
X65500Y-41000D01*
X62795Y-44094D02*
X62795Y-43704D01*
X59251Y-43751D02*
X56500Y-41000D01*
X59251Y-44094D02*
X59251Y-43751D01*
X59251Y-46248D02*
X56500Y-49000D01*
X59251Y-45866D02*
X59251Y-46248D01*
X59645Y-43145D02*
X57500Y-41000D01*
X59645Y-44094D02*
X59645Y-43145D01*
X58425Y-46614D02*
X57885Y-46614D01*
X57885Y-46614D02*
X55500Y-49000D01*
X64300Y-45000D02*
X65200Y-45900D01*
X56025Y-45500D02*
X56525Y-45000D01*
X56525Y-45000D02*
X64300Y-45000D01*
X64300Y-45000D02*
X65200Y-44100D01*
X57900Y-43400D02*
X55500Y-41000D01*
X58400Y-43400D02*
X57900Y-43400D01*
M02*
