G04 (created by PCBNEW (2013-04-03 BZR 4062)-testing) date Fri 05 Apr 2013 04:06:22 PM CEST*
%MOIN*%
G04 Gerber Fmt 3.4, Leading zero omitted, Abs format*
%FSLAX34Y34*%
G01*
G70*
G90*
G04 APERTURE LIST*
%ADD10C,2.3622e-06*%
%ADD11R,0.0314961X0.0433071*%
%ADD12R,0.059X0.0511*%
%ADD13R,0.0472X0.0472*%
%ADD14R,0.063X0.0591*%
%ADD15R,0.0314X0.0314*%
%ADD16R,0.0256X0.063*%
%ADD17R,0.0649606X0.0649606*%
%ADD18C,0.0649606*%
%ADD19R,0.0255906X0.0393701*%
%ADD20R,0.019685X0.0393701*%
G04 APERTURE END LIST*
G54D10*
G54D11*
X61795Y-41900D03*
X61205Y-41900D03*
X62795Y-41900D03*
X62205Y-41900D03*
X60795Y-41900D03*
X60205Y-41900D03*
X63795Y-41900D03*
X63205Y-41900D03*
X64795Y-41900D03*
X64205Y-41900D03*
X65795Y-41900D03*
X65205Y-41900D03*
X66795Y-41900D03*
X66205Y-41900D03*
X66795Y-48100D03*
X66205Y-48100D03*
X59795Y-48100D03*
X59205Y-48100D03*
X60795Y-48100D03*
X60205Y-48100D03*
X61795Y-48100D03*
X61205Y-48100D03*
X62795Y-48100D03*
X62205Y-48100D03*
X65795Y-48100D03*
X65205Y-48100D03*
X63795Y-48100D03*
X63205Y-48100D03*
X64795Y-48100D03*
X64205Y-48100D03*
G54D12*
X57875Y-44651D03*
X57875Y-45399D03*
X57050Y-44651D03*
X57050Y-45399D03*
G54D13*
X66594Y-44330D03*
X65806Y-44330D03*
G54D14*
X66200Y-45610D03*
G54D15*
X64547Y-44977D03*
X63957Y-44977D03*
G54D16*
X58835Y-46575D03*
X59228Y-46575D03*
X59622Y-46575D03*
X60016Y-46575D03*
X60409Y-46575D03*
X60803Y-46575D03*
X61197Y-46575D03*
X61591Y-46575D03*
X61984Y-46575D03*
X62378Y-46575D03*
X62772Y-46575D03*
X63165Y-46575D03*
X63165Y-43425D03*
X62772Y-43425D03*
X62378Y-43425D03*
X61984Y-43425D03*
X61591Y-43425D03*
X61197Y-43425D03*
X60803Y-43425D03*
X60409Y-43425D03*
X60016Y-43425D03*
X59622Y-43425D03*
X59228Y-43425D03*
X58835Y-43425D03*
G54D17*
X55500Y-49000D03*
G54D18*
X56500Y-49000D03*
X57500Y-49000D03*
X58500Y-49000D03*
X59500Y-49000D03*
X60500Y-49000D03*
X61500Y-49000D03*
X62500Y-49000D03*
X63500Y-49000D03*
X64500Y-49000D03*
X65500Y-49000D03*
X66500Y-49000D03*
G54D17*
X55500Y-41000D03*
G54D18*
X56500Y-41000D03*
X57500Y-41000D03*
X58500Y-41000D03*
X59500Y-41000D03*
X60500Y-41000D03*
X61500Y-41000D03*
X62500Y-41000D03*
X63500Y-41000D03*
X64500Y-41000D03*
X65500Y-41000D03*
X66500Y-41000D03*
G54D17*
X55511Y-44500D03*
G54D18*
X55511Y-45500D03*
G54D11*
X59795Y-41900D03*
X59205Y-41900D03*
G54D19*
X64143Y-45984D03*
G54D20*
X64507Y-45984D03*
X64822Y-45984D03*
G54D19*
X65187Y-45984D03*
X64143Y-46692D03*
G54D20*
X64507Y-46692D03*
X64822Y-46692D03*
G54D19*
X65187Y-46692D03*
X65679Y-46397D03*
G54D20*
X66043Y-46397D03*
X66358Y-46397D03*
G54D19*
X66722Y-46397D03*
X65679Y-47106D03*
G54D20*
X66043Y-47106D03*
X66358Y-47106D03*
G54D19*
X66722Y-47106D03*
X66722Y-43602D03*
G54D20*
X66358Y-43602D03*
X66043Y-43602D03*
G54D19*
X65679Y-43602D03*
X66722Y-42893D03*
G54D20*
X66358Y-42893D03*
X66043Y-42893D03*
G54D19*
X65679Y-42893D03*
X65187Y-44133D03*
G54D20*
X64822Y-44133D03*
X64507Y-44133D03*
G54D19*
X64143Y-44133D03*
X65187Y-43425D03*
G54D20*
X64822Y-43425D03*
X64507Y-43425D03*
G54D19*
X64143Y-43425D03*
M02*
