G04 (created by PCBNEW (2013-01-19 BZR 3914)-testing) date Mon 21 Jan 2013 01:26:33 AM CET*
%MOIN*%
G04 Gerber Fmt 3.4, Leading zero omitted, Abs format*
%FSLAX34Y34*%
G01*
G70*
G90*
G04 APERTURE LIST*
%ADD10C,2.3622e-06*%
%ADD11R,0.06X0.06*%
%ADD12C,0.06*%
%ADD13R,0.059X0.0511*%
%ADD14R,0.065X0.065*%
%ADD15C,0.065*%
%ADD16R,0.0472X0.0472*%
%ADD17R,0.063X0.0591*%
%ADD18R,0.0256X0.063*%
%ADD19R,0.0393X0.0433*%
%ADD20R,0.0433X0.0393*%
%ADD21R,0.0314X0.0314*%
%ADD22C,0.025*%
%ADD23C,0.016*%
G04 APERTURE END LIST*
G54D10*
G54D11*
X56025Y-44500D03*
G54D12*
X56025Y-45500D03*
G54D13*
X57875Y-44651D03*
X57875Y-45399D03*
G54D14*
X55500Y-49500D03*
G54D15*
X56500Y-49500D03*
X57500Y-49500D03*
X58500Y-49500D03*
X59500Y-49500D03*
X60500Y-49500D03*
X61500Y-49500D03*
X62500Y-49500D03*
X63500Y-49500D03*
X64500Y-49500D03*
X65500Y-49500D03*
X66500Y-49500D03*
G54D16*
X66594Y-44391D03*
X65806Y-44391D03*
G54D17*
X66200Y-45671D03*
G54D18*
X58835Y-46575D03*
X59228Y-46575D03*
X59622Y-46575D03*
X60016Y-46575D03*
X60409Y-46575D03*
X60803Y-46575D03*
X61197Y-46575D03*
X61591Y-46575D03*
X61984Y-46575D03*
X62378Y-46575D03*
X62772Y-46575D03*
X63165Y-46575D03*
X63165Y-43425D03*
X62772Y-43425D03*
X62378Y-43425D03*
X61984Y-43425D03*
X61591Y-43425D03*
X61197Y-43425D03*
X60803Y-43425D03*
X60409Y-43425D03*
X60016Y-43425D03*
X59622Y-43425D03*
X59228Y-43425D03*
X58835Y-43425D03*
G54D19*
X66122Y-42263D03*
X66790Y-42263D03*
G54D20*
X64330Y-44685D03*
X64330Y-45353D03*
G54D19*
X65788Y-43425D03*
X66456Y-43425D03*
X64507Y-42263D03*
X63839Y-42263D03*
X64979Y-43425D03*
X64311Y-43425D03*
X57066Y-43800D03*
X57734Y-43800D03*
X57066Y-42950D03*
X57734Y-42950D03*
X55216Y-42850D03*
X55884Y-42850D03*
X55216Y-42000D03*
X55884Y-42000D03*
X66122Y-47755D03*
X66790Y-47755D03*
X65768Y-46732D03*
X66436Y-46732D03*
X64979Y-46732D03*
X64311Y-46732D03*
X64487Y-47755D03*
X63819Y-47755D03*
X57066Y-47100D03*
X57734Y-47100D03*
X57066Y-46250D03*
X57734Y-46250D03*
X55216Y-47150D03*
X55884Y-47150D03*
X55216Y-48000D03*
X55884Y-48000D03*
G54D13*
X57050Y-44651D03*
X57050Y-45399D03*
G54D11*
X55500Y-40500D03*
G54D12*
X56500Y-40500D03*
X57500Y-40500D03*
X58500Y-40500D03*
X59500Y-40500D03*
X60500Y-40500D03*
X61500Y-40500D03*
X62500Y-40500D03*
X63500Y-40500D03*
X64500Y-40500D03*
X65500Y-40500D03*
X66500Y-40500D03*
G54D21*
X64802Y-48562D03*
X64212Y-48562D03*
X63798Y-48562D03*
X63208Y-48562D03*
X65787Y-48562D03*
X65197Y-48562D03*
X62795Y-48562D03*
X62205Y-48562D03*
X61791Y-48562D03*
X61201Y-48562D03*
X60787Y-48562D03*
X60197Y-48562D03*
X59802Y-48562D03*
X59212Y-48562D03*
X66791Y-48562D03*
X66201Y-48562D03*
X66810Y-41397D03*
X66220Y-41397D03*
X65806Y-41397D03*
X65216Y-41397D03*
X64802Y-41397D03*
X64212Y-41397D03*
X63818Y-41397D03*
X63228Y-41397D03*
X60787Y-41397D03*
X60197Y-41397D03*
X59783Y-41397D03*
X59193Y-41397D03*
X62795Y-41397D03*
X62205Y-41397D03*
X61791Y-41397D03*
X61201Y-41397D03*
G54D22*
X59625Y-47125D03*
X60019Y-42893D03*
X60019Y-47125D03*
X60413Y-47125D03*
X60807Y-47125D03*
X62381Y-42893D03*
X61988Y-42893D03*
X61594Y-42893D03*
X61200Y-42893D03*
X60807Y-42893D03*
X60413Y-42893D03*
X61200Y-47125D03*
X61594Y-47125D03*
X61988Y-47125D03*
X62381Y-47125D03*
X62775Y-47125D03*
X63562Y-46574D03*
X63602Y-43425D03*
X62775Y-42893D03*
X59232Y-42893D03*
X59232Y-47125D03*
X59625Y-42893D03*
X58405Y-46574D03*
X65374Y-46259D03*
X65393Y-43877D03*
X58425Y-43405D03*
G54D23*
X59622Y-46575D02*
X59625Y-46578D01*
X59625Y-46578D02*
X59625Y-47125D01*
X60019Y-42893D02*
X60016Y-42897D01*
X60016Y-42897D02*
X60016Y-43425D01*
X60019Y-47125D02*
X60016Y-47122D01*
X60016Y-47122D02*
X60016Y-46575D01*
X59212Y-48562D02*
X59212Y-49212D01*
X59212Y-49212D02*
X59500Y-49500D01*
X60409Y-46575D02*
X60413Y-46579D01*
X60413Y-46579D02*
X60413Y-47125D01*
X60197Y-48562D02*
X60197Y-49197D01*
X60197Y-49197D02*
X60500Y-49500D01*
X60807Y-47125D02*
X60803Y-47121D01*
X60803Y-47121D02*
X60803Y-46575D01*
X64212Y-41397D02*
X64212Y-40787D01*
X64212Y-40787D02*
X64500Y-40500D01*
X62378Y-43425D02*
X62381Y-43421D01*
X62381Y-43421D02*
X62381Y-42893D01*
X63228Y-41397D02*
X63228Y-40771D01*
X63228Y-40771D02*
X63500Y-40500D01*
X61988Y-42893D02*
X61984Y-42897D01*
X61984Y-42897D02*
X61984Y-43425D01*
X62205Y-41397D02*
X62205Y-40795D01*
X62205Y-40795D02*
X62500Y-40500D01*
X61591Y-43425D02*
X61594Y-43421D01*
X61594Y-43421D02*
X61594Y-42893D01*
X61201Y-41397D02*
X61201Y-40798D01*
X61201Y-40798D02*
X61500Y-40500D01*
X61200Y-42893D02*
X61197Y-42897D01*
X61197Y-42897D02*
X61197Y-43425D01*
X60197Y-41397D02*
X60197Y-40802D01*
X60197Y-40802D02*
X60500Y-40500D01*
X60807Y-42893D02*
X60803Y-42897D01*
X60803Y-42897D02*
X60803Y-43425D01*
X59193Y-41397D02*
X59193Y-40806D01*
X59193Y-40806D02*
X59500Y-40500D01*
X60413Y-42893D02*
X60409Y-42898D01*
X60409Y-42898D02*
X60409Y-43425D01*
X61201Y-48562D02*
X61201Y-49201D01*
X61201Y-49201D02*
X61500Y-49500D01*
X61197Y-46575D02*
X61197Y-47122D01*
X61200Y-47125D02*
X61197Y-47122D01*
X62205Y-48562D02*
X62205Y-49205D01*
X62205Y-49205D02*
X62500Y-49500D01*
X61591Y-46575D02*
X61591Y-47122D01*
X61594Y-47125D02*
X61591Y-47122D01*
X63208Y-48562D02*
X63208Y-49208D01*
X63208Y-49208D02*
X63500Y-49500D01*
X61984Y-46575D02*
X61984Y-47121D01*
X61988Y-47125D02*
X61984Y-47121D01*
X64212Y-48562D02*
X64212Y-49212D01*
X64212Y-49212D02*
X64500Y-49500D01*
X62381Y-47125D02*
X62378Y-47122D01*
X62378Y-47122D02*
X62378Y-46575D01*
X65197Y-48562D02*
X65197Y-49197D01*
X65197Y-49197D02*
X65500Y-49500D01*
X62772Y-46575D02*
X62772Y-47122D01*
X62775Y-47125D02*
X62772Y-47122D01*
X66201Y-48562D02*
X66201Y-49201D01*
X66201Y-49201D02*
X66500Y-49500D01*
X63165Y-46575D02*
X63165Y-46574D01*
X63165Y-46574D02*
X63562Y-46574D01*
X66220Y-41397D02*
X66220Y-40779D01*
X66220Y-40779D02*
X66500Y-40500D01*
X63602Y-43425D02*
X63602Y-43425D01*
X63602Y-43425D02*
X63165Y-43425D01*
X65216Y-41397D02*
X65216Y-40783D01*
X65216Y-40783D02*
X65500Y-40500D01*
X62775Y-42893D02*
X62772Y-42897D01*
X62772Y-42897D02*
X62772Y-43425D01*
X59228Y-43425D02*
X59228Y-42897D01*
X59232Y-42893D02*
X59228Y-42897D01*
X59902Y-44685D02*
X59228Y-44011D01*
X64330Y-44685D02*
X59902Y-44685D01*
X59228Y-44011D02*
X59228Y-43425D01*
X59232Y-47125D02*
X59228Y-47121D01*
X59228Y-47121D02*
X59228Y-46575D01*
X59625Y-42893D02*
X59622Y-42897D01*
X59622Y-42897D02*
X59622Y-43425D01*
X58307Y-45393D02*
X58831Y-45918D01*
X57875Y-45399D02*
X58307Y-45393D01*
X66200Y-45671D02*
X66200Y-45300D01*
X66594Y-44906D02*
X66594Y-44391D01*
X66200Y-45300D02*
X66594Y-44906D01*
X58831Y-45918D02*
X63781Y-45918D01*
X66021Y-45850D02*
X66200Y-45671D01*
X63850Y-45850D02*
X66021Y-45850D01*
X63781Y-45918D02*
X63850Y-45850D01*
X58835Y-46575D02*
X58834Y-46574D01*
X58834Y-46574D02*
X58405Y-46574D01*
X58831Y-45918D02*
X58835Y-45921D01*
X58835Y-45921D02*
X58835Y-46575D01*
X57050Y-45399D02*
X57875Y-45399D01*
X57734Y-47100D02*
X57800Y-47100D01*
X57800Y-47100D02*
X58393Y-47693D01*
X61791Y-48169D02*
X61791Y-48562D01*
X61315Y-47693D02*
X61791Y-48169D01*
X58393Y-47693D02*
X61315Y-47693D01*
X57734Y-46250D02*
X57950Y-46250D01*
X58825Y-47425D02*
X58825Y-47436D01*
X58836Y-47436D02*
X58825Y-47425D01*
X58125Y-46725D02*
X58836Y-47436D01*
X58125Y-46425D02*
X58125Y-46725D01*
X57950Y-46250D02*
X58125Y-46425D01*
X58825Y-47436D02*
X62062Y-47436D01*
X62062Y-47436D02*
X62795Y-48169D01*
X62795Y-48169D02*
X62795Y-48562D01*
X63819Y-47755D02*
X63819Y-48542D01*
X63819Y-48542D02*
X63798Y-48562D01*
X64802Y-48562D02*
X64802Y-48248D01*
X64311Y-47067D02*
X64311Y-46732D01*
X64448Y-47204D02*
X64311Y-47067D01*
X64881Y-47204D02*
X64448Y-47204D01*
X64940Y-47263D02*
X64881Y-47204D01*
X64940Y-48110D02*
X64940Y-47263D01*
X64802Y-48248D02*
X64940Y-48110D01*
X65787Y-48562D02*
X65787Y-48326D01*
X66003Y-47165D02*
X66436Y-46732D01*
X65767Y-47165D02*
X66003Y-47165D01*
X65610Y-47322D02*
X65767Y-47165D01*
X65610Y-48149D02*
X65610Y-47322D01*
X65787Y-48326D02*
X65610Y-48149D01*
X66790Y-47755D02*
X66790Y-48562D01*
X66790Y-48562D02*
X66791Y-48562D01*
X64311Y-43425D02*
X64586Y-43150D01*
X65039Y-42657D02*
X65039Y-41909D01*
X65039Y-41909D02*
X64802Y-41672D01*
X64802Y-41672D02*
X64802Y-41397D01*
X64586Y-43110D02*
X65039Y-42657D01*
X64586Y-43150D02*
X64586Y-43110D01*
X57734Y-43800D02*
X57800Y-43800D01*
X62795Y-41930D02*
X62795Y-41397D01*
X62125Y-42600D02*
X62795Y-41930D01*
X58650Y-42600D02*
X62125Y-42600D01*
X58150Y-43100D02*
X58650Y-42600D01*
X58150Y-43450D02*
X58150Y-43100D01*
X57800Y-43800D02*
X58150Y-43450D01*
X57734Y-42950D02*
X58338Y-42345D01*
X61791Y-41811D02*
X61791Y-41397D01*
X61256Y-42345D02*
X61791Y-41811D01*
X58338Y-42345D02*
X61256Y-42345D01*
X55884Y-42850D02*
X56008Y-42850D01*
X60787Y-41791D02*
X60787Y-41397D01*
X60510Y-42068D02*
X60787Y-41791D01*
X56789Y-42068D02*
X60510Y-42068D01*
X56008Y-42850D02*
X56789Y-42068D01*
X55884Y-42000D02*
X56101Y-41811D01*
X59783Y-41673D02*
X59783Y-41397D01*
X59645Y-41811D02*
X59783Y-41673D01*
X56101Y-41811D02*
X59645Y-41811D01*
X55216Y-43775D02*
X57041Y-43775D01*
X57041Y-43775D02*
X57066Y-43800D01*
X55216Y-42850D02*
X55216Y-43775D01*
X55216Y-43775D02*
X55216Y-44966D01*
X55750Y-45500D02*
X55216Y-44966D01*
X55750Y-45500D02*
X56025Y-45500D01*
X57066Y-42950D02*
X57066Y-43400D01*
X57066Y-43400D02*
X57066Y-43800D01*
X57066Y-46250D02*
X57066Y-47100D01*
X56025Y-45500D02*
X56025Y-45575D01*
X56700Y-46250D02*
X57066Y-46250D01*
X56025Y-45575D02*
X56700Y-46250D01*
X56025Y-45500D02*
X56025Y-45675D01*
X55216Y-46484D02*
X55216Y-47150D01*
X56025Y-45675D02*
X55216Y-46484D01*
X55216Y-47150D02*
X55216Y-48000D01*
X66122Y-42579D02*
X66122Y-42263D01*
X66279Y-42736D02*
X66122Y-42579D01*
X66574Y-42736D02*
X66279Y-42736D01*
X65393Y-46279D02*
X65393Y-46732D01*
X65374Y-46259D02*
X65393Y-46279D01*
X65374Y-43858D02*
X65374Y-43425D01*
X65393Y-43877D02*
X65374Y-43858D01*
X55216Y-42850D02*
X55216Y-42000D01*
X65768Y-46732D02*
X65768Y-46377D01*
X66122Y-47440D02*
X66122Y-47755D01*
X66279Y-47283D02*
X66122Y-47440D01*
X66692Y-47283D02*
X66279Y-47283D01*
X66909Y-47066D02*
X66692Y-47283D01*
X66909Y-46437D02*
X66909Y-47066D01*
X66673Y-46200D02*
X66909Y-46437D01*
X65944Y-46200D02*
X66673Y-46200D01*
X65768Y-46377D02*
X65944Y-46200D01*
X64487Y-47755D02*
X64487Y-47715D01*
X64979Y-46239D02*
X64979Y-46732D01*
X64842Y-46102D02*
X64979Y-46239D01*
X64055Y-46102D02*
X64842Y-46102D01*
X63838Y-46318D02*
X64055Y-46102D01*
X63838Y-47066D02*
X63838Y-46318D01*
X64487Y-47715D02*
X63838Y-47066D01*
X66870Y-43031D02*
X66574Y-42736D01*
X65807Y-43444D02*
X65807Y-43917D01*
X65807Y-43917D02*
X66751Y-43917D01*
X66751Y-43917D02*
X66870Y-43799D01*
X66870Y-43799D02*
X66870Y-43031D01*
X65788Y-43425D02*
X65807Y-43444D01*
X64979Y-46732D02*
X65393Y-46732D01*
X65393Y-46732D02*
X65768Y-46732D01*
X64979Y-43425D02*
X64979Y-43819D01*
X64979Y-43819D02*
X64842Y-43956D01*
X64842Y-43956D02*
X64094Y-43956D01*
X64094Y-43956D02*
X63877Y-43740D01*
X63877Y-43740D02*
X63877Y-42992D01*
X63877Y-42992D02*
X64055Y-42814D01*
X64055Y-42814D02*
X64370Y-42814D01*
X64370Y-42814D02*
X64507Y-42677D01*
X64507Y-42677D02*
X64507Y-42263D01*
X64979Y-43425D02*
X65374Y-43425D01*
X65374Y-43425D02*
X65788Y-43425D01*
X64330Y-45353D02*
X65296Y-45353D01*
X65806Y-44844D02*
X65806Y-44391D01*
X65296Y-45353D02*
X65806Y-44844D01*
X66810Y-41397D02*
X66790Y-41417D01*
X66790Y-41417D02*
X66790Y-42263D01*
X66456Y-43425D02*
X66456Y-43208D01*
X65806Y-41653D02*
X65806Y-41397D01*
X65511Y-41948D02*
X65806Y-41653D01*
X65511Y-42736D02*
X65511Y-41948D01*
X65748Y-42972D02*
X65511Y-42736D01*
X66220Y-42972D02*
X65748Y-42972D01*
X66456Y-43208D02*
X66220Y-42972D01*
X63839Y-42263D02*
X63818Y-42243D01*
X63818Y-42243D02*
X63818Y-41397D01*
X59802Y-48562D02*
X59802Y-48247D01*
X59802Y-48247D02*
X59763Y-48208D01*
X59763Y-48208D02*
X56141Y-48208D01*
X56141Y-48208D02*
X55884Y-48000D01*
X55884Y-47150D02*
X55929Y-47150D01*
X60787Y-48267D02*
X60787Y-48562D01*
X60470Y-47951D02*
X60787Y-48267D01*
X56730Y-47951D02*
X60470Y-47951D01*
X55929Y-47150D02*
X56730Y-47951D01*
X56025Y-44500D02*
X56904Y-44505D01*
X56904Y-44505D02*
X57050Y-44651D01*
X58267Y-44645D02*
X58835Y-44078D01*
X58267Y-44645D02*
X57875Y-44651D01*
X58835Y-43425D02*
X58835Y-44078D01*
X58835Y-43425D02*
X58444Y-43425D01*
X58444Y-43425D02*
X58425Y-43405D01*
X57050Y-44651D02*
X57875Y-44651D01*
X57875Y-44651D02*
X57875Y-44650D01*
M02*
