M48
INCH,TZ
T1C0.013
T2C0.040
%
G90
G05
T1
X057900Y-047100
X058400Y-043400
X059252Y-044094
X059252Y-045866
X059646Y-044094
X059646Y-045866
X060039Y-044094
X060039Y-045866
X060433Y-044094
X060433Y-045866
X060827Y-044094
X060827Y-045866
X061220Y-044094
X061220Y-045866
X061614Y-044094
X061614Y-045866
X062008Y-044094
X062008Y-045866
X062402Y-044094
X062402Y-045866
X062795Y-044094
X062795Y-045866
X063600Y-043450
X063622Y-046614
T2
X055500Y-041000
X055500Y-049000
X056025Y-044500
X056025Y-045500
X056500Y-041000
X056500Y-049000
X057500Y-041000
X057500Y-049000
X058500Y-041000
X058500Y-049000
X059500Y-041000
X059500Y-049000
X060500Y-041000
X060500Y-049000
X061500Y-041000
X061500Y-049000
X062500Y-041000
X062500Y-049000
X063500Y-041000
X063500Y-049000
X064500Y-041000
X064500Y-049000
X065500Y-041000
X065500Y-049000
X066500Y-041000
X066500Y-049000
T0
M30
