G04 (created by PCBNEW (2013-04-03 BZR 4062)-testing) date Thu 04 Apr 2013 12:24:56 AM CEST*
%MOIN*%
G04 Gerber Fmt 3.4, Leading zero omitted, Abs format*
%FSLAX34Y34*%
G01*
G70*
G90*
G04 APERTURE LIST*
%ADD10C,2.3622e-06*%
%ADD11C,0.00787402*%
G04 APERTURE END LIST*
G54D10*
G54D11*
X59354Y-50336D02*
X59597Y-50336D01*
X59466Y-50486D01*
X59522Y-50486D01*
X59560Y-50505D01*
X59579Y-50523D01*
X59597Y-50561D01*
X59597Y-50655D01*
X59579Y-50692D01*
X59560Y-50711D01*
X59522Y-50730D01*
X59410Y-50730D01*
X59372Y-50711D01*
X59354Y-50692D01*
X59972Y-50730D02*
X59747Y-50730D01*
X59860Y-50730D02*
X59860Y-50336D01*
X59822Y-50392D01*
X59785Y-50430D01*
X59747Y-50449D01*
X60141Y-50692D02*
X60160Y-50711D01*
X60141Y-50730D01*
X60122Y-50711D01*
X60141Y-50692D01*
X60141Y-50730D01*
X60291Y-50336D02*
X60553Y-50336D01*
X60385Y-50730D01*
X60778Y-50336D02*
X60816Y-50336D01*
X60853Y-50355D01*
X60872Y-50374D01*
X60891Y-50411D01*
X60910Y-50486D01*
X60910Y-50580D01*
X60891Y-50655D01*
X60872Y-50692D01*
X60853Y-50711D01*
X60816Y-50730D01*
X60778Y-50730D01*
X60741Y-50711D01*
X60722Y-50692D01*
X60703Y-50655D01*
X60685Y-50580D01*
X60685Y-50486D01*
X60703Y-50411D01*
X60722Y-50374D01*
X60741Y-50355D01*
X60778Y-50336D01*
X61153Y-50336D02*
X61191Y-50336D01*
X61228Y-50355D01*
X61247Y-50374D01*
X61266Y-50411D01*
X61285Y-50486D01*
X61285Y-50580D01*
X61266Y-50655D01*
X61247Y-50692D01*
X61228Y-50711D01*
X61191Y-50730D01*
X61153Y-50730D01*
X61116Y-50711D01*
X61097Y-50692D01*
X61078Y-50655D01*
X61060Y-50580D01*
X61060Y-50486D01*
X61078Y-50411D01*
X61097Y-50374D01*
X61116Y-50355D01*
X61153Y-50336D01*
X61753Y-50730D02*
X61753Y-50467D01*
X61753Y-50505D02*
X61772Y-50486D01*
X61810Y-50467D01*
X61866Y-50467D01*
X61903Y-50486D01*
X61922Y-50523D01*
X61922Y-50730D01*
X61922Y-50523D02*
X61941Y-50486D01*
X61978Y-50467D01*
X62035Y-50467D01*
X62072Y-50486D01*
X62091Y-50523D01*
X62091Y-50730D01*
X62278Y-50730D02*
X62278Y-50467D01*
X62278Y-50505D02*
X62297Y-50486D01*
X62335Y-50467D01*
X62391Y-50467D01*
X62428Y-50486D01*
X62447Y-50523D01*
X62447Y-50730D01*
X62447Y-50523D02*
X62466Y-50486D01*
X62503Y-50467D01*
X62559Y-50467D01*
X62597Y-50486D01*
X62616Y-50523D01*
X62616Y-50730D01*
X54763Y-50216D02*
X67244Y-50216D01*
X54763Y-49744D02*
X54763Y-50925D01*
X67244Y-49744D02*
X67244Y-50925D01*
X67244Y-50216D02*
X66800Y-50447D01*
X67244Y-50216D02*
X66800Y-49985D01*
X54763Y-50216D02*
X55207Y-50447D01*
X54763Y-50216D02*
X55207Y-49985D01*
X67854Y-46631D02*
X67835Y-46612D01*
X67816Y-46574D01*
X67816Y-46481D01*
X67835Y-46443D01*
X67854Y-46424D01*
X67891Y-46406D01*
X67929Y-46406D01*
X67985Y-46424D01*
X68210Y-46649D01*
X68210Y-46406D01*
X67948Y-46068D02*
X68210Y-46068D01*
X67798Y-46162D02*
X68079Y-46256D01*
X68079Y-46012D01*
X68173Y-45862D02*
X68191Y-45843D01*
X68210Y-45862D01*
X68191Y-45881D01*
X68173Y-45862D01*
X68210Y-45862D01*
X68210Y-45468D02*
X68210Y-45693D01*
X68210Y-45581D02*
X67816Y-45581D01*
X67873Y-45618D01*
X67910Y-45656D01*
X67929Y-45693D01*
X67816Y-45224D02*
X67816Y-45187D01*
X67835Y-45149D01*
X67854Y-45131D01*
X67891Y-45112D01*
X67966Y-45093D01*
X68060Y-45093D01*
X68135Y-45112D01*
X68173Y-45131D01*
X68191Y-45149D01*
X68210Y-45187D01*
X68210Y-45224D01*
X68191Y-45262D01*
X68173Y-45281D01*
X68135Y-45299D01*
X68060Y-45318D01*
X67966Y-45318D01*
X67891Y-45299D01*
X67854Y-45281D01*
X67835Y-45262D01*
X67816Y-45224D01*
X67816Y-44850D02*
X67816Y-44812D01*
X67835Y-44775D01*
X67854Y-44756D01*
X67891Y-44737D01*
X67966Y-44718D01*
X68060Y-44718D01*
X68135Y-44737D01*
X68173Y-44756D01*
X68191Y-44775D01*
X68210Y-44812D01*
X68210Y-44850D01*
X68191Y-44887D01*
X68173Y-44906D01*
X68135Y-44925D01*
X68060Y-44943D01*
X67966Y-44943D01*
X67891Y-44925D01*
X67854Y-44906D01*
X67835Y-44887D01*
X67816Y-44850D01*
X68210Y-44250D02*
X67948Y-44250D01*
X67985Y-44250D02*
X67966Y-44231D01*
X67948Y-44193D01*
X67948Y-44137D01*
X67966Y-44100D01*
X68004Y-44081D01*
X68210Y-44081D01*
X68004Y-44081D02*
X67966Y-44062D01*
X67948Y-44025D01*
X67948Y-43968D01*
X67966Y-43931D01*
X68004Y-43912D01*
X68210Y-43912D01*
X68210Y-43725D02*
X67948Y-43725D01*
X67985Y-43725D02*
X67966Y-43706D01*
X67948Y-43668D01*
X67948Y-43612D01*
X67966Y-43575D01*
X68004Y-43556D01*
X68210Y-43556D01*
X68004Y-43556D02*
X67966Y-43537D01*
X67948Y-43500D01*
X67948Y-43443D01*
X67966Y-43406D01*
X68004Y-43387D01*
X68210Y-43387D01*
X67696Y-49744D02*
X67696Y-40255D01*
X67244Y-49744D02*
X68405Y-49744D01*
X67244Y-40255D02*
X68405Y-40255D01*
X67696Y-40255D02*
X67927Y-40699D01*
X67696Y-40255D02*
X67465Y-40699D01*
X67696Y-49744D02*
X67927Y-49300D01*
X67696Y-49744D02*
X67465Y-49300D01*
X53661Y-46284D02*
X53661Y-46246D01*
X53680Y-46209D01*
X53698Y-46190D01*
X53736Y-46171D01*
X53811Y-46152D01*
X53905Y-46152D01*
X53980Y-46171D01*
X54017Y-46190D01*
X54036Y-46209D01*
X54055Y-46246D01*
X54055Y-46284D01*
X54036Y-46321D01*
X54017Y-46340D01*
X53980Y-46359D01*
X53905Y-46377D01*
X53811Y-46377D01*
X53736Y-46359D01*
X53698Y-46340D01*
X53680Y-46321D01*
X53661Y-46284D01*
X54017Y-45984D02*
X54036Y-45965D01*
X54055Y-45984D01*
X54036Y-46002D01*
X54017Y-45984D01*
X54055Y-45984D01*
X53830Y-45740D02*
X53811Y-45778D01*
X53792Y-45796D01*
X53755Y-45815D01*
X53736Y-45815D01*
X53698Y-45796D01*
X53680Y-45778D01*
X53661Y-45740D01*
X53661Y-45665D01*
X53680Y-45628D01*
X53698Y-45609D01*
X53736Y-45590D01*
X53755Y-45590D01*
X53792Y-45609D01*
X53811Y-45628D01*
X53830Y-45665D01*
X53830Y-45740D01*
X53848Y-45778D01*
X53867Y-45796D01*
X53905Y-45815D01*
X53980Y-45815D01*
X54017Y-45796D01*
X54036Y-45778D01*
X54055Y-45740D01*
X54055Y-45665D01*
X54036Y-45628D01*
X54017Y-45609D01*
X53980Y-45590D01*
X53905Y-45590D01*
X53867Y-45609D01*
X53848Y-45628D01*
X53830Y-45665D01*
X53661Y-45346D02*
X53661Y-45309D01*
X53680Y-45271D01*
X53698Y-45253D01*
X53736Y-45234D01*
X53811Y-45215D01*
X53905Y-45215D01*
X53980Y-45234D01*
X54017Y-45253D01*
X54036Y-45271D01*
X54055Y-45309D01*
X54055Y-45346D01*
X54036Y-45384D01*
X54017Y-45403D01*
X53980Y-45421D01*
X53905Y-45440D01*
X53811Y-45440D01*
X53736Y-45421D01*
X53698Y-45403D01*
X53680Y-45384D01*
X53661Y-45346D01*
X53661Y-44971D02*
X53661Y-44934D01*
X53680Y-44896D01*
X53698Y-44878D01*
X53736Y-44859D01*
X53811Y-44840D01*
X53905Y-44840D01*
X53980Y-44859D01*
X54017Y-44878D01*
X54036Y-44896D01*
X54055Y-44934D01*
X54055Y-44971D01*
X54036Y-45009D01*
X54017Y-45028D01*
X53980Y-45046D01*
X53905Y-45065D01*
X53811Y-45065D01*
X53736Y-45046D01*
X53698Y-45028D01*
X53680Y-45009D01*
X53661Y-44971D01*
X53661Y-44596D02*
X53661Y-44559D01*
X53680Y-44521D01*
X53698Y-44503D01*
X53736Y-44484D01*
X53811Y-44465D01*
X53905Y-44465D01*
X53980Y-44484D01*
X54017Y-44503D01*
X54036Y-44521D01*
X54055Y-44559D01*
X54055Y-44596D01*
X54036Y-44634D01*
X54017Y-44653D01*
X53980Y-44671D01*
X53905Y-44690D01*
X53811Y-44690D01*
X53736Y-44671D01*
X53698Y-44653D01*
X53680Y-44634D01*
X53661Y-44596D01*
X54055Y-43997D02*
X53792Y-43997D01*
X53661Y-43997D02*
X53680Y-44015D01*
X53698Y-43997D01*
X53680Y-43978D01*
X53661Y-43997D01*
X53698Y-43997D01*
X53792Y-43809D02*
X54055Y-43809D01*
X53830Y-43809D02*
X53811Y-43790D01*
X53792Y-43753D01*
X53792Y-43697D01*
X53811Y-43659D01*
X53848Y-43640D01*
X54055Y-43640D01*
X54250Y-49000D02*
X54250Y-41000D01*
X55500Y-49000D02*
X53541Y-49000D01*
X55500Y-41000D02*
X53541Y-41000D01*
X54250Y-41000D02*
X54480Y-41443D01*
X54250Y-41000D02*
X54019Y-41443D01*
X54250Y-49000D02*
X54480Y-48556D01*
X54250Y-49000D02*
X54019Y-48556D01*
M02*
