M48
INCH,TZ
T1C0.013
T2C0.040
%
G90
G05
T1
X058406Y-046575
X058425Y-043406
X059232Y-042894
X059232Y-047126
X059626Y-042894
X059626Y-047126
X060020Y-042894
X060020Y-047126
X060413Y-042894
X060413Y-047126
X060807Y-042894
X060807Y-047126
X061201Y-042894
X061201Y-047126
X061594Y-042894
X061594Y-047126
X061988Y-042894
X061988Y-047126
X062382Y-042894
X062382Y-047126
X062776Y-042894
X062776Y-047126
X063563Y-046575
X063602Y-043425
X065374Y-046260
X065394Y-043878
T2
X055500Y-040500
X055500Y-049500
X056025Y-044500
X056025Y-045500
X056500Y-040500
X056500Y-049500
X057500Y-040500
X057500Y-049500
X058500Y-040500
X058500Y-049500
X059500Y-040500
X059500Y-049500
X060500Y-040500
X060500Y-049500
X061500Y-040500
X061500Y-049500
X062500Y-040500
X062500Y-049500
X063500Y-040500
X063500Y-049500
X064500Y-040500
X064500Y-049500
X065500Y-040500
X065500Y-049500
X066500Y-040500
X066500Y-049500
T0
M30
