M48
METRIC,TZ
T1C0.330
T2C1.016
%
G90
G05
T1
X148336Y-110236
X150500Y-112000
X150500Y-116500
X151500Y-112000
X151500Y-116500
X152500Y-112000
X152500Y-116500
X153500Y-112000
X153500Y-116500
X154500Y-112000
X154500Y-116500
X155500Y-112000
X155500Y-116500
X156500Y-112000
X156500Y-116500
X157500Y-112000
X157500Y-116500
X158500Y-112000
X158500Y-116500
X159500Y-112000
X159500Y-116500
X161544Y-110363
X161600Y-118400
X161850Y-112050
X161850Y-116800
T2
X140970Y-104140
X140970Y-124460
X141000Y-113030
X141000Y-115570
X143510Y-104140
X143510Y-124460
X146050Y-104140
X146050Y-124460
X148590Y-104140
X148590Y-124460
X151130Y-104140
X151130Y-124460
X153670Y-104140
X153670Y-124460
X156210Y-104140
X156210Y-124460
X158750Y-104140
X158750Y-124460
X161290Y-104140
X161290Y-124460
X163830Y-104140
X163830Y-124460
X166370Y-104140
X166370Y-124460
X168910Y-104140
X168910Y-124460
T0
M30
