G04 (created by PCBNEW (2013-07-05 BZR 4237)-testing) date Mon 08 Jul 2013 09:02:46 PM CEST*
%MOIN*%
G04 Gerber Fmt 3.4, Leading zero omitted, Abs format*
%FSLAX34Y34*%
G01*
G70*
G90*
G04 APERTURE LIST*
%ADD10C,0.005906*%
%ADD11R,0.023622X0.035433*%
%ADD12R,0.051126X0.043226*%
%ADD13R,0.039326X0.039326*%
%ADD14R,0.055126X0.051226*%
%ADD15R,0.023526X0.023526*%
%ADD16R,0.017726X0.055126*%
%ADD17R,0.017717X0.031496*%
%ADD18R,0.011811X0.031496*%
G04 APERTURE END LIST*
G54D10*
G54D11*
X61795Y-41900D03*
X61205Y-41900D03*
X62795Y-41900D03*
X62205Y-41900D03*
X60795Y-41900D03*
X60205Y-41900D03*
X63795Y-41900D03*
X63205Y-41900D03*
X64795Y-41900D03*
X64205Y-41900D03*
X65795Y-41900D03*
X65205Y-41900D03*
X66795Y-41900D03*
X66205Y-41900D03*
X66795Y-48100D03*
X66205Y-48100D03*
X59795Y-48100D03*
X59205Y-48100D03*
X60795Y-48100D03*
X60205Y-48100D03*
X61795Y-48100D03*
X61205Y-48100D03*
X62795Y-48100D03*
X62205Y-48100D03*
X65795Y-48100D03*
X65205Y-48100D03*
X63795Y-48100D03*
X63205Y-48100D03*
X64795Y-48100D03*
X64205Y-48100D03*
G54D12*
X57875Y-44651D03*
X57875Y-45399D03*
X57050Y-44651D03*
X57050Y-45399D03*
G54D13*
X66594Y-44330D03*
X65806Y-44330D03*
G54D14*
X66200Y-45610D03*
G54D15*
X64547Y-44977D03*
X63957Y-44977D03*
G54D16*
X58835Y-46575D03*
X59228Y-46575D03*
X59622Y-46575D03*
X60016Y-46575D03*
X60409Y-46575D03*
X60803Y-46575D03*
X61197Y-46575D03*
X61591Y-46575D03*
X61984Y-46575D03*
X62378Y-46575D03*
X62772Y-46575D03*
X63165Y-46575D03*
X63165Y-43425D03*
X62772Y-43425D03*
X62378Y-43425D03*
X61984Y-43425D03*
X61591Y-43425D03*
X61197Y-43425D03*
X60803Y-43425D03*
X60409Y-43425D03*
X60016Y-43425D03*
X59622Y-43425D03*
X59228Y-43425D03*
X58835Y-43425D03*
G54D11*
X59795Y-41900D03*
X59205Y-41900D03*
G54D17*
X64143Y-45984D03*
G54D18*
X64507Y-45984D03*
X64822Y-45984D03*
G54D17*
X65187Y-45984D03*
X64143Y-46692D03*
G54D18*
X64507Y-46692D03*
X64822Y-46692D03*
G54D17*
X65187Y-46692D03*
X65679Y-46397D03*
G54D18*
X66043Y-46397D03*
X66358Y-46397D03*
G54D17*
X66722Y-46397D03*
X65679Y-47106D03*
G54D18*
X66043Y-47106D03*
X66358Y-47106D03*
G54D17*
X66722Y-47106D03*
X66722Y-43602D03*
G54D18*
X66358Y-43602D03*
X66043Y-43602D03*
G54D17*
X65679Y-43602D03*
X66722Y-42893D03*
G54D18*
X66358Y-42893D03*
X66043Y-42893D03*
G54D17*
X65679Y-42893D03*
X65187Y-44133D03*
G54D18*
X64822Y-44133D03*
X64507Y-44133D03*
G54D17*
X64143Y-44133D03*
X65187Y-43425D03*
G54D18*
X64822Y-43425D03*
X64507Y-43425D03*
G54D17*
X64143Y-43425D03*
M02*
