G04 (created by PCBNEW (2013-02-09 BZR 3938)-testing) date Sat 09 Feb 2013 10:45:36 PM CET*
%MOIN*%
G04 Gerber Fmt 3.4, Leading zero omitted, Abs format*
%FSLAX34Y34*%
G01*
G70*
G90*
G04 APERTURE LIST*
%ADD10C,2.3622e-06*%
%ADD11C,0.00787402*%
%ADD12C,0.00738189*%
%ADD13C,0.00393701*%
%ADD14C,0.0001*%
%ADD15C,0.0026*%
%ADD16C,0.002*%
%ADD17C,0.004*%
%ADD18R,0.0314961X0.0433071*%
%ADD19R,0.059X0.0511*%
%ADD20R,0.0472X0.0472*%
%ADD21R,0.063X0.0591*%
%ADD22R,0.0314X0.0314*%
%ADD23R,0.0256X0.063*%
%ADD24R,0.0649606X0.0649606*%
%ADD25C,0.0649606*%
G04 APERTURE END LIST*
G54D10*
G54D11*
X64569Y-46711D02*
X64550Y-46730D01*
X64494Y-46749D01*
X64457Y-46749D01*
X64400Y-46730D01*
X64363Y-46693D01*
X64344Y-46655D01*
X64325Y-46580D01*
X64325Y-46524D01*
X64344Y-46449D01*
X64363Y-46411D01*
X64400Y-46374D01*
X64457Y-46355D01*
X64494Y-46355D01*
X64550Y-46374D01*
X64569Y-46393D01*
X64738Y-46749D02*
X64738Y-46355D01*
X64738Y-46543D02*
X64963Y-46543D01*
X64963Y-46749D02*
X64963Y-46355D01*
X65825Y-46355D02*
X65863Y-46355D01*
X65900Y-46374D01*
X65919Y-46393D01*
X65938Y-46430D01*
X65956Y-46505D01*
X65956Y-46599D01*
X65938Y-46674D01*
X65919Y-46711D01*
X65900Y-46730D01*
X65863Y-46749D01*
X65825Y-46749D01*
X65788Y-46730D01*
X65769Y-46711D01*
X65750Y-46674D01*
X65731Y-46599D01*
X65731Y-46505D01*
X65750Y-46430D01*
X65769Y-46393D01*
X65788Y-46374D01*
X65825Y-46355D01*
X66125Y-46711D02*
X66144Y-46730D01*
X66125Y-46749D01*
X66106Y-46730D01*
X66125Y-46711D01*
X66125Y-46749D01*
X66313Y-46711D02*
X66331Y-46730D01*
X66313Y-46749D01*
X66294Y-46730D01*
X66313Y-46711D01*
X66313Y-46749D01*
X66500Y-46711D02*
X66519Y-46730D01*
X66500Y-46749D01*
X66481Y-46730D01*
X66500Y-46711D01*
X66500Y-46749D01*
X66650Y-46355D02*
X66912Y-46355D01*
X66744Y-46749D01*
X64542Y-43611D02*
X64523Y-43630D01*
X64467Y-43649D01*
X64429Y-43649D01*
X64373Y-43630D01*
X64335Y-43593D01*
X64317Y-43555D01*
X64298Y-43480D01*
X64298Y-43424D01*
X64317Y-43349D01*
X64335Y-43311D01*
X64373Y-43274D01*
X64429Y-43255D01*
X64467Y-43255D01*
X64523Y-43274D01*
X64542Y-43293D01*
X64710Y-43649D02*
X64710Y-43255D01*
X64710Y-43443D02*
X64935Y-43443D01*
X64935Y-43649D02*
X64935Y-43255D01*
X65629Y-43649D02*
X65404Y-43649D01*
X65516Y-43649D02*
X65516Y-43255D01*
X65479Y-43311D01*
X65441Y-43349D01*
X65404Y-43368D01*
X65985Y-43255D02*
X65798Y-43255D01*
X65779Y-43443D01*
X65798Y-43424D01*
X65835Y-43405D01*
X65929Y-43405D01*
X65966Y-43424D01*
X65985Y-43443D01*
X66004Y-43480D01*
X66004Y-43574D01*
X65985Y-43611D01*
X65966Y-43630D01*
X65929Y-43649D01*
X65835Y-43649D01*
X65798Y-43630D01*
X65779Y-43611D01*
X66173Y-43611D02*
X66191Y-43630D01*
X66173Y-43649D01*
X66154Y-43630D01*
X66173Y-43611D01*
X66173Y-43649D01*
X66360Y-43611D02*
X66379Y-43630D01*
X66360Y-43649D01*
X66341Y-43630D01*
X66360Y-43611D01*
X66360Y-43649D01*
X66548Y-43611D02*
X66566Y-43630D01*
X66548Y-43649D01*
X66529Y-43630D01*
X66548Y-43611D01*
X66548Y-43649D01*
X66791Y-43424D02*
X66754Y-43405D01*
X66735Y-43386D01*
X66716Y-43349D01*
X66716Y-43330D01*
X66735Y-43293D01*
X66754Y-43274D01*
X66791Y-43255D01*
X66866Y-43255D01*
X66904Y-43274D01*
X66922Y-43293D01*
X66941Y-43330D01*
X66941Y-43349D01*
X66922Y-43386D01*
X66904Y-43405D01*
X66866Y-43424D01*
X66791Y-43424D01*
X66754Y-43443D01*
X66735Y-43461D01*
X66716Y-43499D01*
X66716Y-43574D01*
X66735Y-43611D01*
X66754Y-43630D01*
X66791Y-43649D01*
X66866Y-43649D01*
X66904Y-43630D01*
X66922Y-43611D01*
X66941Y-43574D01*
X66941Y-43499D01*
X66922Y-43461D01*
X66904Y-43443D01*
X66866Y-43424D01*
G54D12*
X55434Y-46764D02*
X55434Y-46905D01*
X55139Y-46905D01*
X55279Y-46666D02*
X55279Y-46567D01*
X55434Y-46525D02*
X55434Y-46666D01*
X55139Y-46666D01*
X55139Y-46525D01*
X55434Y-46399D02*
X55139Y-46399D01*
X55139Y-46328D01*
X55153Y-46286D01*
X55181Y-46258D01*
X55209Y-46244D01*
X55265Y-46230D01*
X55307Y-46230D01*
X55364Y-46244D01*
X55392Y-46258D01*
X55420Y-46286D01*
X55434Y-46328D01*
X55434Y-46399D01*
X55907Y-46912D02*
X55921Y-46870D01*
X55921Y-46799D01*
X55907Y-46771D01*
X55893Y-46757D01*
X55865Y-46743D01*
X55837Y-46743D01*
X55809Y-46757D01*
X55795Y-46771D01*
X55781Y-46799D01*
X55767Y-46856D01*
X55752Y-46884D01*
X55738Y-46898D01*
X55710Y-46912D01*
X55682Y-46912D01*
X55654Y-46898D01*
X55640Y-46884D01*
X55626Y-46856D01*
X55626Y-46785D01*
X55640Y-46743D01*
X55767Y-46616D02*
X55767Y-46518D01*
X55921Y-46476D02*
X55921Y-46616D01*
X55626Y-46616D01*
X55626Y-46476D01*
X55921Y-46209D02*
X55921Y-46349D01*
X55626Y-46349D01*
G54D11*
X56417Y-45118D02*
X56417Y-45511D01*
X56377Y-45511D02*
X56377Y-45118D01*
X56338Y-45118D02*
X56338Y-45511D01*
X56456Y-45511D02*
X56456Y-45118D01*
X56299Y-45511D02*
X56456Y-45511D01*
X56299Y-45118D02*
X56299Y-45511D01*
X56456Y-45118D02*
X56299Y-45118D01*
X56456Y-44881D02*
X56456Y-44488D01*
X56299Y-44881D02*
X56456Y-44881D01*
X56299Y-44488D02*
X56299Y-44881D01*
X56456Y-44488D02*
X56299Y-44488D01*
G54D12*
X56455Y-44197D02*
X56469Y-44225D01*
X56469Y-44282D01*
X56455Y-44310D01*
X56427Y-44324D01*
X56314Y-44324D01*
X56286Y-44310D01*
X56272Y-44282D01*
X56272Y-44225D01*
X56286Y-44197D01*
X56314Y-44183D01*
X56342Y-44183D01*
X56371Y-44324D01*
X56469Y-44085D02*
X56272Y-43930D01*
X56272Y-44085D02*
X56469Y-43930D01*
X56272Y-43860D02*
X56272Y-43747D01*
X56174Y-43817D02*
X56427Y-43817D01*
X56455Y-43803D01*
X56469Y-43775D01*
X56469Y-43747D01*
X56469Y-46217D02*
X56272Y-46217D01*
X56174Y-46217D02*
X56188Y-46232D01*
X56202Y-46217D01*
X56188Y-46203D01*
X56174Y-46217D01*
X56202Y-46217D01*
X56272Y-46077D02*
X56469Y-46077D01*
X56300Y-46077D02*
X56286Y-46063D01*
X56272Y-46035D01*
X56272Y-45992D01*
X56286Y-45964D01*
X56314Y-45950D01*
X56469Y-45950D01*
X56272Y-45852D02*
X56272Y-45739D01*
X56174Y-45810D02*
X56427Y-45810D01*
X56455Y-45796D01*
X56469Y-45767D01*
X56469Y-45739D01*
G54D11*
X65109Y-45715D02*
X64715Y-45715D01*
X65146Y-45621D02*
X65146Y-45321D01*
X65090Y-45246D02*
X65109Y-45190D01*
X65109Y-45096D01*
X65090Y-45059D01*
X65071Y-45040D01*
X65034Y-45021D01*
X64996Y-45021D01*
X64959Y-45040D01*
X64940Y-45059D01*
X64921Y-45096D01*
X64903Y-45171D01*
X64884Y-45209D01*
X64865Y-45228D01*
X64828Y-45246D01*
X64790Y-45246D01*
X64753Y-45228D01*
X64734Y-45209D01*
X64715Y-45171D01*
X64715Y-45078D01*
X64734Y-45021D01*
X64903Y-44853D02*
X64903Y-44721D01*
X65109Y-44665D02*
X65109Y-44853D01*
X64715Y-44853D01*
X64715Y-44665D01*
X64715Y-44553D02*
X64715Y-44328D01*
X65109Y-44440D02*
X64715Y-44440D01*
X58284Y-42849D02*
X58265Y-42887D01*
X58265Y-42943D01*
X58284Y-42999D01*
X58321Y-43037D01*
X58359Y-43056D01*
X58434Y-43074D01*
X58490Y-43074D01*
X58565Y-43056D01*
X58603Y-43037D01*
X58640Y-42999D01*
X58659Y-42943D01*
X58659Y-42906D01*
X58640Y-42849D01*
X58621Y-42831D01*
X58490Y-42831D01*
X58490Y-42906D01*
X58621Y-42437D02*
X58640Y-42456D01*
X58659Y-42512D01*
X58659Y-42549D01*
X58640Y-42606D01*
X58603Y-42643D01*
X58565Y-42662D01*
X58490Y-42681D01*
X58434Y-42681D01*
X58359Y-42662D01*
X58321Y-42643D01*
X58284Y-42606D01*
X58265Y-42549D01*
X58265Y-42512D01*
X58284Y-42456D01*
X58303Y-42437D01*
X58659Y-42081D02*
X58659Y-42268D01*
X58265Y-42268D01*
X58659Y-41950D02*
X58265Y-41950D01*
X58659Y-41725D02*
X58434Y-41893D01*
X58265Y-41725D02*
X58490Y-41950D01*
X57640Y-42739D02*
X57659Y-42683D01*
X57659Y-42589D01*
X57640Y-42552D01*
X57621Y-42533D01*
X57584Y-42514D01*
X57546Y-42514D01*
X57509Y-42533D01*
X57490Y-42552D01*
X57471Y-42589D01*
X57453Y-42664D01*
X57434Y-42702D01*
X57415Y-42721D01*
X57378Y-42739D01*
X57340Y-42739D01*
X57303Y-42721D01*
X57284Y-42702D01*
X57265Y-42664D01*
X57265Y-42571D01*
X57284Y-42514D01*
X57659Y-42346D02*
X57265Y-42346D01*
X57265Y-42252D01*
X57284Y-42196D01*
X57321Y-42158D01*
X57359Y-42140D01*
X57434Y-42121D01*
X57490Y-42121D01*
X57565Y-42140D01*
X57603Y-42158D01*
X57640Y-42196D01*
X57659Y-42252D01*
X57659Y-42346D01*
X57265Y-41877D02*
X57265Y-41802D01*
X57284Y-41765D01*
X57321Y-41727D01*
X57396Y-41708D01*
X57528Y-41708D01*
X57603Y-41727D01*
X57640Y-41765D01*
X57659Y-41802D01*
X57659Y-41877D01*
X57640Y-41915D01*
X57603Y-41952D01*
X57528Y-41971D01*
X57396Y-41971D01*
X57321Y-41952D01*
X57284Y-41915D01*
X57265Y-41877D01*
X56655Y-42775D02*
X56467Y-42906D01*
X56655Y-43000D02*
X56261Y-43000D01*
X56261Y-42850D01*
X56280Y-42813D01*
X56299Y-42794D01*
X56336Y-42775D01*
X56392Y-42775D01*
X56430Y-42794D01*
X56449Y-42813D01*
X56467Y-42850D01*
X56467Y-43000D01*
X56449Y-42606D02*
X56449Y-42475D01*
X56655Y-42419D02*
X56655Y-42606D01*
X56261Y-42606D01*
X56261Y-42419D01*
X56261Y-42288D02*
X56655Y-42025D01*
X56261Y-42025D02*
X56655Y-42288D01*
X56261Y-41931D02*
X56261Y-41706D01*
X56655Y-41819D02*
X56261Y-41819D01*
X58659Y-48056D02*
X58659Y-48243D01*
X58265Y-48243D01*
X58453Y-47925D02*
X58453Y-47793D01*
X58659Y-47737D02*
X58659Y-47925D01*
X58265Y-47925D01*
X58265Y-47737D01*
X57659Y-48256D02*
X57265Y-48256D01*
X57265Y-48162D01*
X57284Y-48106D01*
X57321Y-48068D01*
X57359Y-48049D01*
X57434Y-48031D01*
X57490Y-48031D01*
X57565Y-48049D01*
X57603Y-48068D01*
X57640Y-48106D01*
X57659Y-48162D01*
X57659Y-48256D01*
X57621Y-47637D02*
X57640Y-47656D01*
X57659Y-47712D01*
X57659Y-47749D01*
X57640Y-47806D01*
X57603Y-47843D01*
X57565Y-47862D01*
X57490Y-47881D01*
X57434Y-47881D01*
X57359Y-47862D01*
X57321Y-47843D01*
X57284Y-47806D01*
X57265Y-47749D01*
X57265Y-47712D01*
X57284Y-47656D01*
X57303Y-47637D01*
X57659Y-47281D02*
X57659Y-47468D01*
X57265Y-47468D01*
X57659Y-47150D02*
X57265Y-47150D01*
X57659Y-46925D02*
X57434Y-47093D01*
X57265Y-46925D02*
X57490Y-47150D01*
X56640Y-48253D02*
X56659Y-48196D01*
X56659Y-48103D01*
X56640Y-48065D01*
X56621Y-48046D01*
X56584Y-48028D01*
X56546Y-48028D01*
X56509Y-48046D01*
X56490Y-48065D01*
X56471Y-48103D01*
X56453Y-48178D01*
X56434Y-48215D01*
X56415Y-48234D01*
X56378Y-48253D01*
X56340Y-48253D01*
X56303Y-48234D01*
X56284Y-48215D01*
X56265Y-48178D01*
X56265Y-48084D01*
X56284Y-48028D01*
X56659Y-47859D02*
X56265Y-47859D01*
X56265Y-47765D01*
X56284Y-47709D01*
X56321Y-47671D01*
X56359Y-47653D01*
X56434Y-47634D01*
X56490Y-47634D01*
X56565Y-47653D01*
X56603Y-47671D01*
X56640Y-47709D01*
X56659Y-47765D01*
X56659Y-47859D01*
X56659Y-47465D02*
X56265Y-47465D01*
X55284Y-48049D02*
X55265Y-48087D01*
X55265Y-48143D01*
X55284Y-48199D01*
X55321Y-48237D01*
X55359Y-48256D01*
X55434Y-48274D01*
X55490Y-48274D01*
X55565Y-48256D01*
X55603Y-48237D01*
X55640Y-48199D01*
X55659Y-48143D01*
X55659Y-48106D01*
X55640Y-48049D01*
X55621Y-48031D01*
X55490Y-48031D01*
X55490Y-48106D01*
X55659Y-47862D02*
X55265Y-47862D01*
X55659Y-47637D01*
X55265Y-47637D01*
X55659Y-47450D02*
X55265Y-47450D01*
X55265Y-47356D01*
X55284Y-47300D01*
X55321Y-47262D01*
X55359Y-47243D01*
X55434Y-47225D01*
X55490Y-47225D01*
X55565Y-47243D01*
X55603Y-47262D01*
X55640Y-47300D01*
X55659Y-47356D01*
X55659Y-47450D01*
X55265Y-42724D02*
X55659Y-42593D01*
X55265Y-42462D01*
X55621Y-42106D02*
X55640Y-42125D01*
X55659Y-42181D01*
X55659Y-42218D01*
X55640Y-42274D01*
X55603Y-42312D01*
X55565Y-42331D01*
X55490Y-42349D01*
X55434Y-42349D01*
X55359Y-42331D01*
X55321Y-42312D01*
X55284Y-42274D01*
X55265Y-42218D01*
X55265Y-42181D01*
X55284Y-42125D01*
X55303Y-42106D01*
X55621Y-41712D02*
X55640Y-41731D01*
X55659Y-41787D01*
X55659Y-41825D01*
X55640Y-41881D01*
X55603Y-41918D01*
X55565Y-41937D01*
X55490Y-41956D01*
X55434Y-41956D01*
X55359Y-41937D01*
X55321Y-41918D01*
X55284Y-41881D01*
X55265Y-41825D01*
X55265Y-41787D01*
X55284Y-41731D01*
X55303Y-41712D01*
G54D13*
X61638Y-41722D02*
X61362Y-41722D01*
X61362Y-42077D02*
X61638Y-42077D01*
X61165Y-42018D02*
X61165Y-42077D01*
X61165Y-42077D02*
X61362Y-42077D01*
X61362Y-42077D02*
X61362Y-41722D01*
X61362Y-41722D02*
X61165Y-41722D01*
X61165Y-41722D02*
X61165Y-41781D01*
X61835Y-41722D02*
X61835Y-41791D01*
X61835Y-42077D02*
X61835Y-42008D01*
X61835Y-41722D02*
X61638Y-41722D01*
X61638Y-41722D02*
X61638Y-42077D01*
X61638Y-42077D02*
X61835Y-42077D01*
X61510Y-41949D02*
X61510Y-41851D01*
X61510Y-41851D02*
X61412Y-41851D01*
X61412Y-41949D02*
X61412Y-41851D01*
X61510Y-41949D02*
X61412Y-41949D01*
X61166Y-42018D02*
G75*
G03X61166Y-41782I0J118D01*
G74*
G01*
X61834Y-41792D02*
G75*
G03X61834Y-42008I0J-108D01*
G74*
G01*
X62638Y-41722D02*
X62362Y-41722D01*
X62362Y-42077D02*
X62638Y-42077D01*
X62165Y-42018D02*
X62165Y-42077D01*
X62165Y-42077D02*
X62362Y-42077D01*
X62362Y-42077D02*
X62362Y-41722D01*
X62362Y-41722D02*
X62165Y-41722D01*
X62165Y-41722D02*
X62165Y-41781D01*
X62835Y-41722D02*
X62835Y-41791D01*
X62835Y-42077D02*
X62835Y-42008D01*
X62835Y-41722D02*
X62638Y-41722D01*
X62638Y-41722D02*
X62638Y-42077D01*
X62638Y-42077D02*
X62835Y-42077D01*
X62510Y-41949D02*
X62510Y-41851D01*
X62510Y-41851D02*
X62412Y-41851D01*
X62412Y-41949D02*
X62412Y-41851D01*
X62510Y-41949D02*
X62412Y-41949D01*
X62166Y-42018D02*
G75*
G03X62166Y-41782I0J118D01*
G74*
G01*
X62834Y-41792D02*
G75*
G03X62834Y-42008I0J-108D01*
G74*
G01*
X60638Y-41722D02*
X60362Y-41722D01*
X60362Y-42077D02*
X60638Y-42077D01*
X60165Y-42018D02*
X60165Y-42077D01*
X60165Y-42077D02*
X60362Y-42077D01*
X60362Y-42077D02*
X60362Y-41722D01*
X60362Y-41722D02*
X60165Y-41722D01*
X60165Y-41722D02*
X60165Y-41781D01*
X60835Y-41722D02*
X60835Y-41791D01*
X60835Y-42077D02*
X60835Y-42008D01*
X60835Y-41722D02*
X60638Y-41722D01*
X60638Y-41722D02*
X60638Y-42077D01*
X60638Y-42077D02*
X60835Y-42077D01*
X60510Y-41949D02*
X60510Y-41851D01*
X60510Y-41851D02*
X60412Y-41851D01*
X60412Y-41949D02*
X60412Y-41851D01*
X60510Y-41949D02*
X60412Y-41949D01*
X60166Y-42018D02*
G75*
G03X60166Y-41782I0J118D01*
G74*
G01*
X60834Y-41792D02*
G75*
G03X60834Y-42008I0J-108D01*
G74*
G01*
X63638Y-41722D02*
X63362Y-41722D01*
X63362Y-42077D02*
X63638Y-42077D01*
X63165Y-42018D02*
X63165Y-42077D01*
X63165Y-42077D02*
X63362Y-42077D01*
X63362Y-42077D02*
X63362Y-41722D01*
X63362Y-41722D02*
X63165Y-41722D01*
X63165Y-41722D02*
X63165Y-41781D01*
X63835Y-41722D02*
X63835Y-41791D01*
X63835Y-42077D02*
X63835Y-42008D01*
X63835Y-41722D02*
X63638Y-41722D01*
X63638Y-41722D02*
X63638Y-42077D01*
X63638Y-42077D02*
X63835Y-42077D01*
X63510Y-41949D02*
X63510Y-41851D01*
X63510Y-41851D02*
X63412Y-41851D01*
X63412Y-41949D02*
X63412Y-41851D01*
X63510Y-41949D02*
X63412Y-41949D01*
X63166Y-42018D02*
G75*
G03X63166Y-41782I0J118D01*
G74*
G01*
X63834Y-41792D02*
G75*
G03X63834Y-42008I0J-108D01*
G74*
G01*
X64638Y-41722D02*
X64362Y-41722D01*
X64362Y-42077D02*
X64638Y-42077D01*
X64165Y-42018D02*
X64165Y-42077D01*
X64165Y-42077D02*
X64362Y-42077D01*
X64362Y-42077D02*
X64362Y-41722D01*
X64362Y-41722D02*
X64165Y-41722D01*
X64165Y-41722D02*
X64165Y-41781D01*
X64835Y-41722D02*
X64835Y-41791D01*
X64835Y-42077D02*
X64835Y-42008D01*
X64835Y-41722D02*
X64638Y-41722D01*
X64638Y-41722D02*
X64638Y-42077D01*
X64638Y-42077D02*
X64835Y-42077D01*
X64510Y-41949D02*
X64510Y-41851D01*
X64510Y-41851D02*
X64412Y-41851D01*
X64412Y-41949D02*
X64412Y-41851D01*
X64510Y-41949D02*
X64412Y-41949D01*
X64166Y-42018D02*
G75*
G03X64166Y-41782I0J118D01*
G74*
G01*
X64834Y-41792D02*
G75*
G03X64834Y-42008I0J-108D01*
G74*
G01*
X65638Y-41722D02*
X65362Y-41722D01*
X65362Y-42077D02*
X65638Y-42077D01*
X65165Y-42018D02*
X65165Y-42077D01*
X65165Y-42077D02*
X65362Y-42077D01*
X65362Y-42077D02*
X65362Y-41722D01*
X65362Y-41722D02*
X65165Y-41722D01*
X65165Y-41722D02*
X65165Y-41781D01*
X65835Y-41722D02*
X65835Y-41791D01*
X65835Y-42077D02*
X65835Y-42008D01*
X65835Y-41722D02*
X65638Y-41722D01*
X65638Y-41722D02*
X65638Y-42077D01*
X65638Y-42077D02*
X65835Y-42077D01*
X65510Y-41949D02*
X65510Y-41851D01*
X65510Y-41851D02*
X65412Y-41851D01*
X65412Y-41949D02*
X65412Y-41851D01*
X65510Y-41949D02*
X65412Y-41949D01*
X65166Y-42018D02*
G75*
G03X65166Y-41782I0J118D01*
G74*
G01*
X65834Y-41792D02*
G75*
G03X65834Y-42008I0J-108D01*
G74*
G01*
X66638Y-41722D02*
X66362Y-41722D01*
X66362Y-42077D02*
X66638Y-42077D01*
X66165Y-42018D02*
X66165Y-42077D01*
X66165Y-42077D02*
X66362Y-42077D01*
X66362Y-42077D02*
X66362Y-41722D01*
X66362Y-41722D02*
X66165Y-41722D01*
X66165Y-41722D02*
X66165Y-41781D01*
X66835Y-41722D02*
X66835Y-41791D01*
X66835Y-42077D02*
X66835Y-42008D01*
X66835Y-41722D02*
X66638Y-41722D01*
X66638Y-41722D02*
X66638Y-42077D01*
X66638Y-42077D02*
X66835Y-42077D01*
X66510Y-41949D02*
X66510Y-41851D01*
X66510Y-41851D02*
X66412Y-41851D01*
X66412Y-41949D02*
X66412Y-41851D01*
X66510Y-41949D02*
X66412Y-41949D01*
X66166Y-42018D02*
G75*
G03X66166Y-41782I0J118D01*
G74*
G01*
X66834Y-41792D02*
G75*
G03X66834Y-42008I0J-108D01*
G74*
G01*
X66638Y-47922D02*
X66362Y-47922D01*
X66362Y-48277D02*
X66638Y-48277D01*
X66165Y-48218D02*
X66165Y-48277D01*
X66165Y-48277D02*
X66362Y-48277D01*
X66362Y-48277D02*
X66362Y-47922D01*
X66362Y-47922D02*
X66165Y-47922D01*
X66165Y-47922D02*
X66165Y-47981D01*
X66835Y-47922D02*
X66835Y-47991D01*
X66835Y-48277D02*
X66835Y-48208D01*
X66835Y-47922D02*
X66638Y-47922D01*
X66638Y-47922D02*
X66638Y-48277D01*
X66638Y-48277D02*
X66835Y-48277D01*
X66510Y-48149D02*
X66510Y-48051D01*
X66510Y-48051D02*
X66412Y-48051D01*
X66412Y-48149D02*
X66412Y-48051D01*
X66510Y-48149D02*
X66412Y-48149D01*
X66166Y-48218D02*
G75*
G03X66166Y-47982I0J118D01*
G74*
G01*
X66834Y-47992D02*
G75*
G03X66834Y-48208I0J-108D01*
G74*
G01*
X59638Y-47922D02*
X59362Y-47922D01*
X59362Y-48277D02*
X59638Y-48277D01*
X59165Y-48218D02*
X59165Y-48277D01*
X59165Y-48277D02*
X59362Y-48277D01*
X59362Y-48277D02*
X59362Y-47922D01*
X59362Y-47922D02*
X59165Y-47922D01*
X59165Y-47922D02*
X59165Y-47981D01*
X59835Y-47922D02*
X59835Y-47991D01*
X59835Y-48277D02*
X59835Y-48208D01*
X59835Y-47922D02*
X59638Y-47922D01*
X59638Y-47922D02*
X59638Y-48277D01*
X59638Y-48277D02*
X59835Y-48277D01*
X59510Y-48149D02*
X59510Y-48051D01*
X59510Y-48051D02*
X59412Y-48051D01*
X59412Y-48149D02*
X59412Y-48051D01*
X59510Y-48149D02*
X59412Y-48149D01*
X59166Y-48218D02*
G75*
G03X59166Y-47982I0J118D01*
G74*
G01*
X59834Y-47992D02*
G75*
G03X59834Y-48208I0J-108D01*
G74*
G01*
X60638Y-47922D02*
X60362Y-47922D01*
X60362Y-48277D02*
X60638Y-48277D01*
X60165Y-48218D02*
X60165Y-48277D01*
X60165Y-48277D02*
X60362Y-48277D01*
X60362Y-48277D02*
X60362Y-47922D01*
X60362Y-47922D02*
X60165Y-47922D01*
X60165Y-47922D02*
X60165Y-47981D01*
X60835Y-47922D02*
X60835Y-47991D01*
X60835Y-48277D02*
X60835Y-48208D01*
X60835Y-47922D02*
X60638Y-47922D01*
X60638Y-47922D02*
X60638Y-48277D01*
X60638Y-48277D02*
X60835Y-48277D01*
X60510Y-48149D02*
X60510Y-48051D01*
X60510Y-48051D02*
X60412Y-48051D01*
X60412Y-48149D02*
X60412Y-48051D01*
X60510Y-48149D02*
X60412Y-48149D01*
X60166Y-48218D02*
G75*
G03X60166Y-47982I0J118D01*
G74*
G01*
X60834Y-47992D02*
G75*
G03X60834Y-48208I0J-108D01*
G74*
G01*
X61638Y-47922D02*
X61362Y-47922D01*
X61362Y-48277D02*
X61638Y-48277D01*
X61165Y-48218D02*
X61165Y-48277D01*
X61165Y-48277D02*
X61362Y-48277D01*
X61362Y-48277D02*
X61362Y-47922D01*
X61362Y-47922D02*
X61165Y-47922D01*
X61165Y-47922D02*
X61165Y-47981D01*
X61835Y-47922D02*
X61835Y-47991D01*
X61835Y-48277D02*
X61835Y-48208D01*
X61835Y-47922D02*
X61638Y-47922D01*
X61638Y-47922D02*
X61638Y-48277D01*
X61638Y-48277D02*
X61835Y-48277D01*
X61510Y-48149D02*
X61510Y-48051D01*
X61510Y-48051D02*
X61412Y-48051D01*
X61412Y-48149D02*
X61412Y-48051D01*
X61510Y-48149D02*
X61412Y-48149D01*
X61166Y-48218D02*
G75*
G03X61166Y-47982I0J118D01*
G74*
G01*
X61834Y-47992D02*
G75*
G03X61834Y-48208I0J-108D01*
G74*
G01*
X62638Y-47922D02*
X62362Y-47922D01*
X62362Y-48277D02*
X62638Y-48277D01*
X62165Y-48218D02*
X62165Y-48277D01*
X62165Y-48277D02*
X62362Y-48277D01*
X62362Y-48277D02*
X62362Y-47922D01*
X62362Y-47922D02*
X62165Y-47922D01*
X62165Y-47922D02*
X62165Y-47981D01*
X62835Y-47922D02*
X62835Y-47991D01*
X62835Y-48277D02*
X62835Y-48208D01*
X62835Y-47922D02*
X62638Y-47922D01*
X62638Y-47922D02*
X62638Y-48277D01*
X62638Y-48277D02*
X62835Y-48277D01*
X62510Y-48149D02*
X62510Y-48051D01*
X62510Y-48051D02*
X62412Y-48051D01*
X62412Y-48149D02*
X62412Y-48051D01*
X62510Y-48149D02*
X62412Y-48149D01*
X62166Y-48218D02*
G75*
G03X62166Y-47982I0J118D01*
G74*
G01*
X62834Y-47992D02*
G75*
G03X62834Y-48208I0J-108D01*
G74*
G01*
X65638Y-47922D02*
X65362Y-47922D01*
X65362Y-48277D02*
X65638Y-48277D01*
X65165Y-48218D02*
X65165Y-48277D01*
X65165Y-48277D02*
X65362Y-48277D01*
X65362Y-48277D02*
X65362Y-47922D01*
X65362Y-47922D02*
X65165Y-47922D01*
X65165Y-47922D02*
X65165Y-47981D01*
X65835Y-47922D02*
X65835Y-47991D01*
X65835Y-48277D02*
X65835Y-48208D01*
X65835Y-47922D02*
X65638Y-47922D01*
X65638Y-47922D02*
X65638Y-48277D01*
X65638Y-48277D02*
X65835Y-48277D01*
X65510Y-48149D02*
X65510Y-48051D01*
X65510Y-48051D02*
X65412Y-48051D01*
X65412Y-48149D02*
X65412Y-48051D01*
X65510Y-48149D02*
X65412Y-48149D01*
X65166Y-48218D02*
G75*
G03X65166Y-47982I0J118D01*
G74*
G01*
X65834Y-47992D02*
G75*
G03X65834Y-48208I0J-108D01*
G74*
G01*
X63638Y-47922D02*
X63362Y-47922D01*
X63362Y-48277D02*
X63638Y-48277D01*
X63165Y-48218D02*
X63165Y-48277D01*
X63165Y-48277D02*
X63362Y-48277D01*
X63362Y-48277D02*
X63362Y-47922D01*
X63362Y-47922D02*
X63165Y-47922D01*
X63165Y-47922D02*
X63165Y-47981D01*
X63835Y-47922D02*
X63835Y-47991D01*
X63835Y-48277D02*
X63835Y-48208D01*
X63835Y-47922D02*
X63638Y-47922D01*
X63638Y-47922D02*
X63638Y-48277D01*
X63638Y-48277D02*
X63835Y-48277D01*
X63510Y-48149D02*
X63510Y-48051D01*
X63510Y-48051D02*
X63412Y-48051D01*
X63412Y-48149D02*
X63412Y-48051D01*
X63510Y-48149D02*
X63412Y-48149D01*
X63166Y-48218D02*
G75*
G03X63166Y-47982I0J118D01*
G74*
G01*
X63834Y-47992D02*
G75*
G03X63834Y-48208I0J-108D01*
G74*
G01*
X64638Y-47922D02*
X64362Y-47922D01*
X64362Y-48277D02*
X64638Y-48277D01*
X64165Y-48218D02*
X64165Y-48277D01*
X64165Y-48277D02*
X64362Y-48277D01*
X64362Y-48277D02*
X64362Y-47922D01*
X64362Y-47922D02*
X64165Y-47922D01*
X64165Y-47922D02*
X64165Y-47981D01*
X64835Y-47922D02*
X64835Y-47991D01*
X64835Y-48277D02*
X64835Y-48208D01*
X64835Y-47922D02*
X64638Y-47922D01*
X64638Y-47922D02*
X64638Y-48277D01*
X64638Y-48277D02*
X64835Y-48277D01*
X64510Y-48149D02*
X64510Y-48051D01*
X64510Y-48051D02*
X64412Y-48051D01*
X64412Y-48149D02*
X64412Y-48051D01*
X64510Y-48149D02*
X64412Y-48149D01*
X64166Y-48218D02*
G75*
G03X64166Y-47982I0J118D01*
G74*
G01*
X64834Y-47992D02*
G75*
G03X64834Y-48208I0J-108D01*
G74*
G01*
G54D14*
G36*
X55906Y-42854D02*
X55915Y-42855D01*
X55923Y-42857D01*
X55930Y-42862D01*
X55936Y-42868D01*
X55940Y-42876D01*
X55940Y-42879D01*
X55941Y-42881D01*
X55941Y-42886D01*
X55941Y-42893D01*
X55941Y-42903D01*
X55941Y-42916D01*
X55941Y-42930D01*
X55941Y-42938D01*
X55880Y-42938D01*
X55876Y-42940D01*
X55875Y-42941D01*
X55871Y-42943D01*
X55865Y-42947D01*
X55856Y-42951D01*
X55846Y-42957D01*
X55834Y-42964D01*
X55820Y-42972D01*
X55804Y-42981D01*
X55787Y-42991D01*
X55769Y-43002D01*
X55749Y-43013D01*
X55728Y-43025D01*
X55707Y-43038D01*
X55684Y-43051D01*
X55661Y-43064D01*
X55646Y-43073D01*
X55620Y-43088D01*
X55593Y-43103D01*
X55566Y-43119D01*
X55539Y-43135D01*
X55512Y-43150D01*
X55486Y-43166D01*
X55459Y-43181D01*
X55433Y-43196D01*
X55408Y-43210D01*
X55385Y-43224D01*
X55363Y-43237D01*
X55342Y-43249D01*
X55323Y-43260D01*
X55307Y-43269D01*
X55297Y-43275D01*
X55280Y-43285D01*
X55263Y-43295D01*
X55247Y-43304D01*
X55233Y-43312D01*
X55219Y-43320D01*
X55207Y-43327D01*
X55197Y-43333D01*
X55188Y-43338D01*
X55182Y-43342D01*
X55177Y-43345D01*
X55174Y-43346D01*
X55174Y-43346D01*
X55175Y-43346D01*
X55179Y-43348D01*
X55185Y-43352D01*
X55193Y-43357D01*
X55203Y-43363D01*
X55216Y-43370D01*
X55230Y-43378D01*
X55246Y-43387D01*
X55264Y-43398D01*
X55283Y-43409D01*
X55304Y-43421D01*
X55326Y-43434D01*
X55349Y-43447D01*
X55374Y-43462D01*
X55400Y-43476D01*
X55426Y-43492D01*
X55454Y-43508D01*
X55483Y-43524D01*
X55511Y-43541D01*
X55522Y-43547D01*
X55551Y-43564D01*
X55580Y-43581D01*
X55608Y-43597D01*
X55635Y-43613D01*
X55662Y-43628D01*
X55687Y-43643D01*
X55711Y-43657D01*
X55734Y-43670D01*
X55756Y-43682D01*
X55776Y-43694D01*
X55794Y-43705D01*
X55811Y-43714D01*
X55826Y-43723D01*
X55840Y-43731D01*
X55851Y-43737D01*
X55860Y-43743D01*
X55867Y-43747D01*
X55872Y-43750D01*
X55875Y-43751D01*
X55875Y-43751D01*
X55880Y-43754D01*
X55880Y-43346D01*
X55880Y-42938D01*
X55941Y-42938D01*
X55941Y-42947D01*
X55941Y-42965D01*
X55941Y-42986D01*
X55941Y-43008D01*
X55941Y-43031D01*
X55942Y-43057D01*
X55942Y-43083D01*
X55942Y-43110D01*
X55942Y-43139D01*
X55942Y-43169D01*
X55942Y-43199D01*
X55942Y-43230D01*
X55942Y-43261D01*
X55942Y-43293D01*
X55942Y-43325D01*
X55942Y-43356D01*
X55942Y-43388D01*
X55942Y-43419D01*
X55942Y-43451D01*
X55942Y-43482D01*
X55942Y-43512D01*
X55942Y-43542D01*
X55942Y-43571D01*
X55942Y-43599D01*
X55942Y-43626D01*
X55941Y-43651D01*
X55941Y-43676D01*
X55941Y-43698D01*
X55941Y-43720D01*
X55941Y-43739D01*
X55941Y-43756D01*
X55941Y-43772D01*
X55941Y-43785D01*
X55941Y-43796D01*
X55941Y-43804D01*
X55940Y-43810D01*
X55940Y-43813D01*
X55940Y-43814D01*
X55937Y-43823D01*
X55931Y-43830D01*
X55924Y-43835D01*
X55915Y-43837D01*
X55910Y-43838D01*
X55904Y-43837D01*
X55898Y-43835D01*
X55894Y-43833D01*
X55891Y-43832D01*
X55887Y-43829D01*
X55879Y-43825D01*
X55870Y-43820D01*
X55859Y-43813D01*
X55846Y-43806D01*
X55831Y-43797D01*
X55815Y-43788D01*
X55797Y-43777D01*
X55777Y-43766D01*
X55756Y-43754D01*
X55734Y-43741D01*
X55711Y-43728D01*
X55687Y-43714D01*
X55663Y-43700D01*
X55637Y-43685D01*
X55611Y-43670D01*
X55584Y-43655D01*
X55557Y-43639D01*
X55530Y-43623D01*
X55503Y-43607D01*
X55475Y-43591D01*
X55448Y-43575D01*
X55421Y-43560D01*
X55394Y-43544D01*
X55367Y-43529D01*
X55341Y-43513D01*
X55316Y-43499D01*
X55291Y-43485D01*
X55267Y-43471D01*
X55245Y-43458D01*
X55223Y-43445D01*
X55203Y-43433D01*
X55184Y-43422D01*
X55166Y-43412D01*
X55150Y-43403D01*
X55136Y-43394D01*
X55123Y-43387D01*
X55113Y-43381D01*
X55104Y-43376D01*
X55098Y-43372D01*
X55094Y-43370D01*
X55092Y-43369D01*
X55087Y-43363D01*
X55083Y-43355D01*
X55082Y-43347D01*
X55082Y-43340D01*
X55085Y-43332D01*
X55089Y-43325D01*
X55092Y-43323D01*
X55094Y-43322D01*
X55098Y-43320D01*
X55104Y-43316D01*
X55112Y-43311D01*
X55123Y-43305D01*
X55135Y-43298D01*
X55150Y-43289D01*
X55166Y-43280D01*
X55183Y-43270D01*
X55202Y-43259D01*
X55222Y-43247D01*
X55244Y-43235D01*
X55267Y-43221D01*
X55290Y-43208D01*
X55315Y-43193D01*
X55340Y-43179D01*
X55367Y-43164D01*
X55393Y-43148D01*
X55420Y-43133D01*
X55447Y-43117D01*
X55475Y-43101D01*
X55503Y-43085D01*
X55529Y-43069D01*
X55557Y-43053D01*
X55584Y-43038D01*
X55611Y-43022D01*
X55637Y-43007D01*
X55663Y-42992D01*
X55688Y-42978D01*
X55712Y-42964D01*
X55735Y-42950D01*
X55757Y-42938D01*
X55778Y-42925D01*
X55798Y-42914D01*
X55816Y-42904D01*
X55833Y-42894D01*
X55848Y-42885D01*
X55861Y-42878D01*
X55873Y-42871D01*
X55882Y-42866D01*
X55889Y-42862D01*
X55895Y-42859D01*
X55897Y-42857D01*
X55898Y-42857D01*
X55906Y-42854D01*
X55906Y-42854D01*
X55906Y-42854D01*
G37*
G36*
X55772Y-43303D02*
X55783Y-43304D01*
X55793Y-43308D01*
X55802Y-43314D01*
X55809Y-43323D01*
X55811Y-43327D01*
X55813Y-43331D01*
X55814Y-43335D01*
X55814Y-43340D01*
X55814Y-43346D01*
X55814Y-43353D01*
X55813Y-43359D01*
X55812Y-43364D01*
X55806Y-43373D01*
X55798Y-43381D01*
X55789Y-43386D01*
X55778Y-43389D01*
X55772Y-43389D01*
X55760Y-43388D01*
X55751Y-43384D01*
X55742Y-43378D01*
X55740Y-43376D01*
X55734Y-43369D01*
X55731Y-43362D01*
X55729Y-43355D01*
X55728Y-43346D01*
X55728Y-43346D01*
X55729Y-43338D01*
X55731Y-43330D01*
X55734Y-43324D01*
X55740Y-43317D01*
X55740Y-43316D01*
X55748Y-43309D01*
X55757Y-43305D01*
X55768Y-43303D01*
X55772Y-43303D01*
X55772Y-43303D01*
X55772Y-43303D01*
G37*
G36*
X55390Y-43306D02*
X55395Y-43306D01*
X55401Y-43306D01*
X55409Y-43307D01*
X55419Y-43307D01*
X55430Y-43308D01*
X55443Y-43310D01*
X55458Y-43311D01*
X55475Y-43313D01*
X55495Y-43315D01*
X55517Y-43318D01*
X55520Y-43318D01*
X55536Y-43320D01*
X55552Y-43322D01*
X55569Y-43324D01*
X55585Y-43325D01*
X55600Y-43327D01*
X55614Y-43328D01*
X55626Y-43330D01*
X55631Y-43330D01*
X55673Y-43334D01*
X55673Y-43346D01*
X55672Y-43353D01*
X55672Y-43357D01*
X55671Y-43359D01*
X55671Y-43359D01*
X55669Y-43360D01*
X55664Y-43360D01*
X55659Y-43360D01*
X55657Y-43361D01*
X55648Y-43361D01*
X55637Y-43362D01*
X55624Y-43363D01*
X55608Y-43365D01*
X55592Y-43367D01*
X55574Y-43368D01*
X55556Y-43370D01*
X55537Y-43372D01*
X55518Y-43374D01*
X55510Y-43375D01*
X55488Y-43378D01*
X55469Y-43380D01*
X55452Y-43381D01*
X55437Y-43383D01*
X55425Y-43384D01*
X55414Y-43385D01*
X55405Y-43386D01*
X55398Y-43386D01*
X55392Y-43386D01*
X55387Y-43386D01*
X55383Y-43386D01*
X55379Y-43386D01*
X55376Y-43385D01*
X55374Y-43384D01*
X55372Y-43383D01*
X55365Y-43379D01*
X55358Y-43373D01*
X55352Y-43367D01*
X55350Y-43362D01*
X55348Y-43354D01*
X55347Y-43346D01*
X55348Y-43338D01*
X55349Y-43331D01*
X55352Y-43325D01*
X55358Y-43319D01*
X55364Y-43313D01*
X55371Y-43309D01*
X55371Y-43309D01*
X55374Y-43308D01*
X55376Y-43307D01*
X55379Y-43306D01*
X55382Y-43306D01*
X55385Y-43306D01*
X55390Y-43306D01*
X55390Y-43306D01*
X55390Y-43306D01*
G37*
G54D15*
X57590Y-44596D02*
X57590Y-44891D01*
X57590Y-44891D02*
X58160Y-44891D01*
X58160Y-44596D02*
X58160Y-44891D01*
X57590Y-44596D02*
X58160Y-44596D01*
X57590Y-45165D02*
X57590Y-45460D01*
X57590Y-45460D02*
X58160Y-45460D01*
X58160Y-45165D02*
X58160Y-45460D01*
X57590Y-45165D02*
X58160Y-45165D01*
X57718Y-44986D02*
X57718Y-45064D01*
X57718Y-45064D02*
X58032Y-45064D01*
X58032Y-44986D02*
X58032Y-45064D01*
X57718Y-44986D02*
X58032Y-44986D01*
G54D16*
X58262Y-44249D02*
X58262Y-45801D01*
X57488Y-45801D02*
X57488Y-44249D01*
X57488Y-44249D02*
X58262Y-44249D01*
G54D17*
X58134Y-44875D02*
X58134Y-45175D01*
X57616Y-44885D02*
X57616Y-45175D01*
G54D16*
X58262Y-45801D02*
X57488Y-45801D01*
G54D15*
X56765Y-44596D02*
X56765Y-44891D01*
X56765Y-44891D02*
X57335Y-44891D01*
X57335Y-44596D02*
X57335Y-44891D01*
X56765Y-44596D02*
X57335Y-44596D01*
X56765Y-45165D02*
X56765Y-45460D01*
X56765Y-45460D02*
X57335Y-45460D01*
X57335Y-45165D02*
X57335Y-45460D01*
X56765Y-45165D02*
X57335Y-45165D01*
X56893Y-44986D02*
X56893Y-45064D01*
X56893Y-45064D02*
X57207Y-45064D01*
X57207Y-44986D02*
X57207Y-45064D01*
X56893Y-44986D02*
X57207Y-44986D01*
G54D16*
X57437Y-44249D02*
X57437Y-45801D01*
X56663Y-45801D02*
X56663Y-44249D01*
X56663Y-44249D02*
X57437Y-44249D01*
G54D17*
X57309Y-44875D02*
X57309Y-45175D01*
X56791Y-44885D02*
X56791Y-45175D01*
G54D16*
X57437Y-45801D02*
X56663Y-45801D01*
G54D11*
X66515Y-45100D02*
X65885Y-45100D01*
X66200Y-45415D02*
X66200Y-44785D01*
X66710Y-45100D02*
G75*
G03X66710Y-45100I-510J0D01*
G74*
G01*
X66200Y-45789D02*
X65491Y-45789D01*
X65491Y-45789D02*
X65491Y-44313D01*
X65491Y-44313D02*
X66909Y-44313D01*
X66909Y-44313D02*
X66909Y-45789D01*
X66909Y-45789D02*
X66200Y-45789D01*
X59200Y-47297D02*
X59800Y-47297D01*
X59800Y-47297D02*
X59800Y-47597D01*
X59800Y-47597D02*
X59200Y-47597D01*
X59200Y-47597D02*
X59200Y-47297D01*
X60200Y-47297D02*
X60800Y-47297D01*
X60800Y-47297D02*
X60800Y-47597D01*
X60800Y-47597D02*
X60200Y-47597D01*
X60200Y-47597D02*
X60200Y-47297D01*
X62200Y-47297D02*
X62800Y-47297D01*
X62800Y-47297D02*
X62800Y-47597D01*
X62800Y-47597D02*
X62200Y-47597D01*
X62200Y-47597D02*
X62200Y-47297D01*
X61200Y-47297D02*
X61800Y-47297D01*
X61800Y-47297D02*
X61800Y-47597D01*
X61800Y-47597D02*
X61200Y-47597D01*
X61200Y-47597D02*
X61200Y-47297D01*
X63200Y-47297D02*
X63800Y-47297D01*
X63800Y-47297D02*
X63800Y-47597D01*
X63800Y-47597D02*
X63200Y-47597D01*
X63200Y-47597D02*
X63200Y-47297D01*
X64200Y-47297D02*
X64800Y-47297D01*
X64800Y-47297D02*
X64800Y-47597D01*
X64800Y-47597D02*
X64200Y-47597D01*
X64200Y-47597D02*
X64200Y-47297D01*
X65200Y-47297D02*
X65800Y-47297D01*
X65800Y-47297D02*
X65800Y-47597D01*
X65800Y-47597D02*
X65200Y-47597D01*
X65200Y-47597D02*
X65200Y-47297D01*
X66200Y-47297D02*
X66800Y-47297D01*
X66800Y-47297D02*
X66800Y-47597D01*
X66800Y-47597D02*
X66200Y-47597D01*
X66200Y-47597D02*
X66200Y-47297D01*
X61200Y-42397D02*
X61800Y-42397D01*
X61800Y-42397D02*
X61800Y-42697D01*
X61800Y-42697D02*
X61200Y-42697D01*
X61200Y-42697D02*
X61200Y-42397D01*
X62200Y-42397D02*
X62800Y-42397D01*
X62800Y-42397D02*
X62800Y-42697D01*
X62800Y-42697D02*
X62200Y-42697D01*
X62200Y-42697D02*
X62200Y-42397D01*
X64200Y-42397D02*
X64800Y-42397D01*
X64800Y-42397D02*
X64800Y-42697D01*
X64800Y-42697D02*
X64200Y-42697D01*
X64200Y-42697D02*
X64200Y-42397D01*
X63200Y-42397D02*
X63800Y-42397D01*
X63800Y-42397D02*
X63800Y-42697D01*
X63800Y-42697D02*
X63200Y-42697D01*
X63200Y-42697D02*
X63200Y-42397D01*
X65200Y-42397D02*
X65800Y-42397D01*
X65800Y-42397D02*
X65800Y-42697D01*
X65800Y-42697D02*
X65200Y-42697D01*
X65200Y-42697D02*
X65200Y-42397D01*
X64402Y-44700D02*
X64402Y-45300D01*
X64402Y-45300D02*
X64102Y-45300D01*
X64102Y-45300D02*
X64102Y-44700D01*
X64102Y-44700D02*
X64402Y-44700D01*
X66200Y-42397D02*
X66800Y-42397D01*
X66800Y-42397D02*
X66800Y-42697D01*
X66800Y-42697D02*
X66200Y-42697D01*
X66200Y-42697D02*
X66200Y-42397D01*
X60200Y-42397D02*
X60800Y-42397D01*
X60800Y-42397D02*
X60800Y-42697D01*
X60800Y-42697D02*
X60200Y-42697D01*
X60200Y-42697D02*
X60200Y-42397D01*
X59200Y-42397D02*
X59800Y-42397D01*
X59800Y-42397D02*
X59800Y-42697D01*
X59800Y-42697D02*
X59200Y-42697D01*
X59200Y-42697D02*
X59200Y-42397D01*
X58992Y-45787D02*
G75*
G03X58992Y-45787I-157J0D01*
G74*
G01*
X58441Y-43819D02*
X63559Y-43819D01*
X63559Y-43819D02*
X63559Y-46181D01*
X63559Y-46181D02*
X58441Y-46181D01*
X58441Y-46181D02*
X58441Y-43819D01*
X55000Y-49500D02*
X55000Y-49500D01*
X55000Y-49500D02*
X55000Y-48500D01*
X55000Y-48500D02*
X65000Y-48500D01*
X65000Y-49500D02*
X55000Y-49500D01*
X56000Y-49500D02*
X56000Y-48500D01*
X65000Y-48500D02*
X66750Y-48500D01*
X66750Y-48500D02*
X67000Y-48500D01*
X67000Y-48500D02*
X67000Y-49500D01*
X67000Y-49500D02*
X65000Y-49500D01*
X55000Y-41500D02*
X55000Y-41500D01*
X55000Y-41500D02*
X55000Y-40500D01*
X55000Y-40500D02*
X65000Y-40500D01*
X65000Y-41500D02*
X55000Y-41500D01*
X56000Y-41500D02*
X56000Y-40500D01*
X65000Y-40500D02*
X66750Y-40500D01*
X66750Y-40500D02*
X67000Y-40500D01*
X67000Y-40500D02*
X67000Y-41500D01*
X67000Y-41500D02*
X65000Y-41500D01*
X55011Y-44000D02*
X56011Y-44000D01*
X56011Y-44000D02*
X56011Y-46000D01*
X56011Y-46000D02*
X55011Y-46000D01*
X55011Y-46000D02*
X55011Y-44000D01*
G54D13*
X59638Y-41722D02*
X59362Y-41722D01*
X59362Y-42077D02*
X59638Y-42077D01*
X59165Y-42018D02*
X59165Y-42077D01*
X59165Y-42077D02*
X59362Y-42077D01*
X59362Y-42077D02*
X59362Y-41722D01*
X59362Y-41722D02*
X59165Y-41722D01*
X59165Y-41722D02*
X59165Y-41781D01*
X59835Y-41722D02*
X59835Y-41791D01*
X59835Y-42077D02*
X59835Y-42008D01*
X59835Y-41722D02*
X59638Y-41722D01*
X59638Y-41722D02*
X59638Y-42077D01*
X59638Y-42077D02*
X59835Y-42077D01*
X59510Y-41949D02*
X59510Y-41851D01*
X59510Y-41851D02*
X59412Y-41851D01*
X59412Y-41949D02*
X59412Y-41851D01*
X59510Y-41949D02*
X59412Y-41949D01*
X59166Y-42018D02*
G75*
G03X59166Y-41782I0J118D01*
G74*
G01*
X59834Y-41792D02*
G75*
G03X59834Y-42008I0J-108D01*
G74*
G01*
G54D11*
X57784Y-44071D02*
X57765Y-44090D01*
X57709Y-44109D01*
X57671Y-44109D01*
X57615Y-44090D01*
X57578Y-44053D01*
X57559Y-44015D01*
X57540Y-43940D01*
X57540Y-43884D01*
X57559Y-43809D01*
X57578Y-43771D01*
X57615Y-43734D01*
X57671Y-43715D01*
X57709Y-43715D01*
X57765Y-43734D01*
X57784Y-43753D01*
X58159Y-44109D02*
X57934Y-44109D01*
X58046Y-44109D02*
X58046Y-43715D01*
X58009Y-43771D01*
X57971Y-43809D01*
X57934Y-43828D01*
X56984Y-44071D02*
X56965Y-44090D01*
X56909Y-44109D01*
X56871Y-44109D01*
X56815Y-44090D01*
X56778Y-44053D01*
X56759Y-44015D01*
X56740Y-43940D01*
X56740Y-43884D01*
X56759Y-43809D01*
X56778Y-43771D01*
X56815Y-43734D01*
X56871Y-43715D01*
X56909Y-43715D01*
X56965Y-43734D01*
X56984Y-43753D01*
X57134Y-43753D02*
X57153Y-43734D01*
X57190Y-43715D01*
X57284Y-43715D01*
X57321Y-43734D01*
X57340Y-43753D01*
X57359Y-43790D01*
X57359Y-43828D01*
X57340Y-43884D01*
X57115Y-44109D01*
X57359Y-44109D01*
X60615Y-44759D02*
X60615Y-44365D01*
X61028Y-44721D02*
X61009Y-44740D01*
X60953Y-44759D01*
X60915Y-44759D01*
X60859Y-44740D01*
X60821Y-44703D01*
X60803Y-44665D01*
X60784Y-44590D01*
X60784Y-44534D01*
X60803Y-44459D01*
X60821Y-44421D01*
X60859Y-44384D01*
X60915Y-44365D01*
X60953Y-44365D01*
X61009Y-44384D01*
X61028Y-44403D01*
X61403Y-44759D02*
X61178Y-44759D01*
X61290Y-44759D02*
X61290Y-44365D01*
X61253Y-44421D01*
X61215Y-44459D01*
X61178Y-44478D01*
X59462Y-45459D02*
X59462Y-45065D01*
X59593Y-45346D01*
X59725Y-45065D01*
X59725Y-45459D01*
X60043Y-45253D02*
X60100Y-45271D01*
X60118Y-45290D01*
X60137Y-45328D01*
X60137Y-45384D01*
X60118Y-45421D01*
X60100Y-45440D01*
X60062Y-45459D01*
X59912Y-45459D01*
X59912Y-45065D01*
X60043Y-45065D01*
X60081Y-45084D01*
X60100Y-45103D01*
X60118Y-45140D01*
X60118Y-45178D01*
X60100Y-45215D01*
X60081Y-45234D01*
X60043Y-45253D01*
X59912Y-45253D01*
X60306Y-45459D02*
X60306Y-45065D01*
X60681Y-45065D02*
X60493Y-45065D01*
X60475Y-45253D01*
X60493Y-45234D01*
X60531Y-45215D01*
X60625Y-45215D01*
X60662Y-45234D01*
X60681Y-45253D01*
X60700Y-45290D01*
X60700Y-45384D01*
X60681Y-45421D01*
X60662Y-45440D01*
X60625Y-45459D01*
X60531Y-45459D01*
X60493Y-45440D01*
X60475Y-45421D01*
X60943Y-45065D02*
X60981Y-45065D01*
X61018Y-45084D01*
X61037Y-45103D01*
X61056Y-45140D01*
X61074Y-45215D01*
X61074Y-45309D01*
X61056Y-45384D01*
X61037Y-45421D01*
X61018Y-45440D01*
X60981Y-45459D01*
X60943Y-45459D01*
X60906Y-45440D01*
X60887Y-45421D01*
X60868Y-45384D01*
X60850Y-45309D01*
X60850Y-45215D01*
X60868Y-45140D01*
X60887Y-45103D01*
X60906Y-45084D01*
X60943Y-45065D01*
X61206Y-45065D02*
X61449Y-45065D01*
X61318Y-45215D01*
X61374Y-45215D01*
X61412Y-45234D01*
X61431Y-45253D01*
X61449Y-45290D01*
X61449Y-45384D01*
X61431Y-45421D01*
X61412Y-45440D01*
X61374Y-45459D01*
X61262Y-45459D01*
X61224Y-45440D01*
X61206Y-45421D01*
X61693Y-45065D02*
X61731Y-45065D01*
X61768Y-45084D01*
X61787Y-45103D01*
X61806Y-45140D01*
X61824Y-45215D01*
X61824Y-45309D01*
X61806Y-45384D01*
X61787Y-45421D01*
X61768Y-45440D01*
X61731Y-45459D01*
X61693Y-45459D01*
X61656Y-45440D01*
X61637Y-45421D01*
X61618Y-45384D01*
X61599Y-45309D01*
X61599Y-45215D01*
X61618Y-45140D01*
X61637Y-45103D01*
X61656Y-45084D01*
X61693Y-45065D01*
X62199Y-45084D02*
X62162Y-45065D01*
X62106Y-45065D01*
X62049Y-45084D01*
X62012Y-45121D01*
X61993Y-45159D01*
X61974Y-45234D01*
X61974Y-45290D01*
X61993Y-45365D01*
X62012Y-45403D01*
X62049Y-45440D01*
X62106Y-45459D01*
X62143Y-45459D01*
X62199Y-45440D01*
X62218Y-45421D01*
X62218Y-45290D01*
X62143Y-45290D01*
X62518Y-45253D02*
X62387Y-45253D01*
X62387Y-45459D02*
X62387Y-45065D01*
X62574Y-45065D01*
%LPC*%
G54D18*
X61795Y-41900D03*
X61205Y-41900D03*
X62795Y-41900D03*
X62205Y-41900D03*
X60795Y-41900D03*
X60205Y-41900D03*
X63795Y-41900D03*
X63205Y-41900D03*
X64795Y-41900D03*
X64205Y-41900D03*
X65795Y-41900D03*
X65205Y-41900D03*
X66795Y-41900D03*
X66205Y-41900D03*
X66795Y-48100D03*
X66205Y-48100D03*
X59795Y-48100D03*
X59205Y-48100D03*
X60795Y-48100D03*
X60205Y-48100D03*
X61795Y-48100D03*
X61205Y-48100D03*
X62795Y-48100D03*
X62205Y-48100D03*
X65795Y-48100D03*
X65205Y-48100D03*
X63795Y-48100D03*
X63205Y-48100D03*
X64795Y-48100D03*
X64205Y-48100D03*
G54D19*
X57875Y-44651D03*
X57875Y-45399D03*
X57050Y-44651D03*
X57050Y-45399D03*
G54D20*
X66594Y-44391D03*
X65806Y-44391D03*
G54D21*
X66200Y-45671D03*
G54D22*
X59795Y-47447D03*
X59205Y-47447D03*
X60795Y-47447D03*
X60205Y-47447D03*
X62795Y-47447D03*
X62205Y-47447D03*
X61795Y-47447D03*
X61205Y-47447D03*
X63795Y-47447D03*
X63205Y-47447D03*
X64795Y-47447D03*
X64205Y-47447D03*
X65795Y-47447D03*
X65205Y-47447D03*
X66795Y-47447D03*
X66205Y-47447D03*
X61795Y-42547D03*
X61205Y-42547D03*
X62795Y-42547D03*
X62205Y-42547D03*
X64795Y-42547D03*
X64205Y-42547D03*
X63795Y-42547D03*
X63205Y-42547D03*
X65795Y-42547D03*
X65205Y-42547D03*
X64252Y-45295D03*
X64252Y-44705D03*
X66795Y-42547D03*
X66205Y-42547D03*
X60795Y-42547D03*
X60205Y-42547D03*
X59795Y-42547D03*
X59205Y-42547D03*
G54D23*
X58835Y-46575D03*
X59228Y-46575D03*
X59622Y-46575D03*
X60016Y-46575D03*
X60409Y-46575D03*
X60803Y-46575D03*
X61197Y-46575D03*
X61591Y-46575D03*
X61984Y-46575D03*
X62378Y-46575D03*
X62772Y-46575D03*
X63165Y-46575D03*
X63165Y-43425D03*
X62772Y-43425D03*
X62378Y-43425D03*
X61984Y-43425D03*
X61591Y-43425D03*
X61197Y-43425D03*
X60803Y-43425D03*
X60409Y-43425D03*
X60016Y-43425D03*
X59622Y-43425D03*
X59228Y-43425D03*
X58835Y-43425D03*
G54D24*
X55500Y-49000D03*
G54D25*
X56500Y-49000D03*
X57500Y-49000D03*
X58500Y-49000D03*
X59500Y-49000D03*
X60500Y-49000D03*
X61500Y-49000D03*
X62500Y-49000D03*
X63500Y-49000D03*
X64500Y-49000D03*
X65500Y-49000D03*
X66500Y-49000D03*
G54D24*
X55500Y-41000D03*
G54D25*
X56500Y-41000D03*
X57500Y-41000D03*
X58500Y-41000D03*
X59500Y-41000D03*
X60500Y-41000D03*
X61500Y-41000D03*
X62500Y-41000D03*
X63500Y-41000D03*
X64500Y-41000D03*
X65500Y-41000D03*
X66500Y-41000D03*
G54D24*
X55511Y-44500D03*
G54D25*
X55511Y-45500D03*
G54D18*
X59795Y-41900D03*
X59205Y-41900D03*
M02*
